<svg version="1.0" xmlns="http://www.w3.org/2000/svg"
 width="691.000000pt" height="1056.000000pt" viewBox="0 0 691.000000 1056.000000"
 preserveAspectRatio="xMidYMid meet">
<g transform="translate(0.000000,1056.000000) scale(0.100000,-0.100000)"
fill="#000000" stroke="none">
<path d="M644 9996 c-122 -30 -210 -127 -230 -255 -7 -47 2 -61 43 -61 30 0
49 22 56 68 21 129 185 204 311 142 85 -41 117 -120 91 -223 -25 -99 -56 -129
-216 -217 -109 -59 -213 -161 -258 -252 -40 -80 -61 -202 -43 -242 l12 -26
300 0 300 0 0 115 c0 112 -1 115 -25 131 -21 13 -31 15 -50 6 -22 -10 -24 -18
-27 -84 l-3 -73 -196 -3 c-229 -3 -230 -2 -209 74 23 80 83 158 173 222 45 32
105 69 132 82 72 34 143 98 171 152 27 53 49 175 40 226 -10 66 -54 139 -101
171 -84 56 -170 71 -271 47z"/>
<path d="M3405 9371 c-55 -4 -94 -14 -124 -30 -65 -34 -137 -107 -167 -167
-24 -49 -26 -62 -22 -147 5 -112 31 -173 114 -272 30 -35 54 -66 54 -69 0 -12
-28 -6 -76 16 -68 30 -189 30 -259 -1 -72 -32 -109 -64 -148 -128 -90 -152
-71 -345 49 -473 69 -74 139 -105 239 -105 70 0 87 4 134 30 61 34 112 89 157
172 45 84 58 82 52 -8 -5 -80 -57 -248 -109 -353 -48 -96 -48 -96 84 -90 61 3
146 2 187 -4 41 -5 76 -9 77 -8 1 1 -22 66 -52 143 -62 160 -83 231 -85 294
-4 108 8 117 45 35 32 -71 115 -161 179 -194 146 -75 358 11 434 177 20 42 27
77 30 142 9 180 -65 311 -208 370 -50 20 -192 18 -258 -5 -29 -10 -55 -16 -57
-14 -2 2 23 37 57 78 74 91 108 162 115 239 14 152 -68 291 -204 348 -66 27
-124 33 -238 24z"/>
<path d="M620 8771 c-76 -41 -95 -117 -52 -213 l21 -48 -52 0 c-95 0 -147 -53
-147 -152 0 -90 61 -158 143 -158 30 0 46 8 82 41 24 22 48 38 54 35 5 -3 -1
-38 -15 -81 -13 -42 -24 -80 -24 -85 0 -6 32 -10 70 -10 39 0 70 4 70 8 0 5
-9 35 -20 67 -11 32 -20 72 -20 89 l1 31 20 -24 c58 -70 132 -90 194 -53 43
26 89 114 81 155 -15 81 -79 137 -158 137 l-46 0 19 50 c25 67 25 140 -1 172
-44 57 -152 76 -220 39z"/>
<path d="M3225 2756 c3 -17 8 -41 9 -54 2 -13 13 -33 24 -45 11 -12 25 -40 30
-62 6 -22 20 -66 32 -99 24 -68 37 -175 23 -201 -8 -14 -15 -9 -41 37 -40 72
-123 161 -172 187 -60 31 -187 30 -255 -3 -75 -36 -128 -87 -171 -168 -39 -72
-39 -74 -39 -183 0 -102 2 -114 29 -168 80 -156 240 -221 416 -168 40 12 74
21 76 19 1 -2 -22 -35 -53 -73 -167 -208 -162 -420 14 -550 170 -123 449 -91
563 67 47 64 63 127 58 227 -5 103 -28 155 -114 256 -54 63 -64 93 -24 68 10
-7 55 -19 100 -29 143 -29 254 8 332 111 147 193 75 498 -137 581 -176 68
-320 11 -413 -165 -18 -33 -38 -63 -44 -67 -54 -33 -1 211 88 405 19 41 34 81
34 90 0 14 -22 16 -186 17 l-186 1 7 -31z"/>
<path d="M6100 2465 c0 -2 11 -39 25 -82 34 -102 27 -117 -30 -64 -52 48 -83
58 -135 42 -67 -20 -120 -111 -104 -178 18 -76 51 -104 142 -123 l49 -11 -18
-52 c-34 -97 -16 -168 52 -202 44 -23 130 -22 171 2 74 43 96 118 58 202 -11
24 -20 46 -20 50 0 3 24 7 53 9 31 1 62 9 77 20 30 22 70 97 70 132 0 40 -42
113 -79 137 -52 35 -91 29 -178 -27 -33 -21 -36 -9 -13 59 31 92 31 91 -50 91
-38 0 -70 -2 -70 -5z"/>
<path d="M5901 1637 c-7 -7 -11 -55 -11 -124 0 -111 0 -113 24 -119 13 -3 34
-1 45 6 18 9 21 20 21 69 0 38 5 63 14 70 9 8 73 11 207 9 l194 -3 -1 -41 c-2
-107 -111 -230 -296 -335 -89 -50 -125 -77 -152 -113 -20 -25 -36 -53 -36 -60
0 -8 -4 -17 -9 -20 -4 -3 -13 -38 -20 -78 -11 -66 -10 -80 9 -140 26 -86 55
-120 138 -160 59 -29 76 -33 147 -32 66 0 89 5 130 26 91 48 159 140 172 234
7 51 -3 64 -49 64 -25 0 -29 -6 -45 -62 -24 -87 -87 -151 -165 -168 -46 -11
-63 -10 -110 4 -126 36 -174 167 -109 294 26 52 82 98 182 152 98 53 209 153
256 232 54 89 84 259 51 285 -19 15 -573 24 -587 10z"/>
</g>
</svg>
