<svg version="1.0" xmlns="http://www.w3.org/2000/svg"
 width="691.000000pt" height="1056.000000pt" viewBox="0 0 691.000000 1056.000000"
 preserveAspectRatio="xMidYMid meet">
<g transform="translate(0.000000,1056.000000) scale(0.100000,-0.100000)"
fill="#000000" stroke="none">
<path d="M543 10001 c-78 -3 -144 -9 -148 -13 -4 -3 -7 -53 -8 -110 l-2 -103
42 -3 42 -3 6 48 c13 103 -8 93 190 93 103 0 176 -4 180 -10 3 -5 -66 -95
-155 -200 -88 -105 -160 -194 -160 -199 0 -4 13 -19 28 -34 l29 -28 54 26 c30
13 65 25 79 25 86 0 176 -69 199 -153 35 -123 -33 -289 -136 -333 -18 -8 -61
-14 -96 -14 -122 0 -208 69 -237 191 -11 47 -14 49 -46 49 -42 0 -53 -20 -43
-75 13 -69 34 -111 84 -164 68 -72 127 -96 245 -96 84 0 101 3 145 27 116 61
185 189 185 341 0 88 -11 129 -50 190 -34 54 -99 99 -177 124 -29 9 -53 19
-53 23 0 3 59 76 130 162 140 168 146 181 98 225 -17 15 -39 18 -152 19 -72 0
-195 -2 -273 -5z"/>
<path d="M3150 8953 c-168 -224 -315 -428 -328 -454 -36 -73 -48 -164 -34
-259 20 -143 72 -222 177 -272 70 -33 159 -38 220 -12 52 21 129 96 171 166
19 32 40 58 45 58 14 0 11 -119 -5 -203 -8 -41 -28 -116 -45 -167 -17 -50 -31
-93 -31 -96 0 -2 65 -4 145 -4 80 0 145 1 145 3 0 1 -15 45 -34 98 -19 52 -42
130 -50 172 -18 83 -21 201 -7 195 5 -1 38 -41 73 -87 82 -110 140 -145 238
-145 52 0 78 6 122 27 103 50 158 134 179 268 15 92 -5 202 -51 294 -16 33
-153 217 -305 408 -151 192 -284 364 -296 383 -11 19 -21 34 -23 34 -1 0 -139
-183 -306 -407z"/>
<path d="M540 8613 c-158 -212 -163 -222 -157 -297 6 -68 27 -103 79 -129 49
-24 92 -13 141 37 l40 41 -7 -65 c-3 -36 -9 -77 -12 -92 -6 -28 -6 -28 45 -28
28 0 51 3 51 8 0 4 -7 42 -15 85 -8 43 -15 82 -15 85 0 3 17 -11 38 -31 48
-47 91 -60 140 -44 56 19 82 65 82 147 0 61 -4 72 -38 126 -34 51 -204 276
-236 312 -9 9 -40 -25 -136 -155z"/>
<path d="M3269 5873 c-429 -561 -445 -587 -463 -723 -9 -64 10 -185 38 -246
49 -106 156 -174 274 -174 101 1 178 53 258 177 45 70 49 63 41 -82 -3 -68
-13 -129 -32 -190 -15 -49 -30 -100 -32 -112 l-5 -23 141 0 c77 0 141 3 141 6
0 4 -14 47 -31 96 -40 119 -59 208 -59 292 0 81 3 80 76 -20 56 -76 116 -119
188 -134 130 -27 276 57 328 190 32 81 32 239 0 332 -29 84 -47 110 -351 492
-138 174 -261 332 -274 351 -12 19 -25 35 -28 35 -4 0 -98 -120 -210 -267z"/>
<path d="M3366 2883 c4 -16 18 -59 31 -98 22 -64 63 -271 63 -316 0 -37 -27
-18 -77 55 -56 80 -102 121 -160 142 -84 30 -198 9 -276 -51 -114 -87 -154
-305 -87 -475 27 -69 52 -103 269 -380 337 -428 372 -471 384 -467 29 9 606
776 635 844 61 143 38 344 -53 451 -83 97 -236 127 -344 67 -54 -30 -112 -92
-154 -167 -30 -53 -47 -49 -47 10 0 84 45 288 86 397 5 13 -13 15 -135 15
l-141 0 6 -27z"/>
<path d="M6252 2533 c-17 -3 -21 -10 -17 -26 13 -66 25 -129 25 -137 0 -6 -20
5 -45 24 -24 19 -57 37 -74 41 -41 9 -96 -17 -121 -57 -28 -44 -23 -149 10
-205 41 -71 252 -333 262 -327 19 12 250 328 264 361 40 94 -3 214 -83 229
-47 9 -75 -1 -123 -41 -24 -20 -44 -34 -46 -33 -1 2 4 32 11 68 22 99 20 110
-12 109 -16 -1 -38 -4 -51 -6z"/>
<path d="M6185 1727 c-81 -27 -143 -76 -187 -148 -29 -46 -58 -159 -58 -223 0
-131 63 -221 205 -291 41 -20 75 -40 75 -43 0 -4 -56 -74 -125 -157 -69 -82
-125 -157 -125 -166 0 -70 31 -79 278 -79 115 0 237 3 271 6 l62 7 -3 105 c-3
115 -12 131 -60 119 -23 -6 -26 -13 -30 -62 -3 -30 -8 -58 -12 -62 -12 -12
-333 -10 -345 2 -7 7 40 70 149 200 l159 190 -30 28 c-20 18 -37 26 -47 22
-196 -76 -322 2 -322 197 1 161 95 268 236 268 119 0 204 -69 235 -191 13 -48
13 -49 52 -49 l40 0 -6 56 c-12 115 -94 224 -195 258 -66 23 -169 29 -217 13z"/>
</g>
</svg>
