<svg version="1.0" xmlns="http://www.w3.org/2000/svg"
 width="691.000000pt" height="1056.000000pt" viewBox="0 0 691.000000 1056.000000"
 preserveAspectRatio="xMidYMid meet">
<g transform="translate(0.000000,1056.000000) scale(0.100000,-0.100000)"
fill="#000000" stroke="none">
<path d="M801 9970 c-32 -3 -58 -12 -63 -20 -5 -8 -92 -159 -193 -335 -251
-434 -253 -420 38 -427 97 -3 181 -8 185 -12 4 -4 7 -44 7 -89 l0 -82 -49 -7
c-27 -4 -53 -13 -58 -20 -7 -11 -2 -66 7 -76 2 -2 70 -4 150 -4 161 -1 167 2
163 57 -3 27 -7 31 -53 41 -48 10 -50 12 -59 52 -5 25 -5 60 0 85 9 41 10 42
57 48 50 5 67 19 67 55 0 31 -20 44 -67 44 -32 0 -45 5 -53 19 -6 13 -10 140
-10 345 0 179 -3 326 -7 328 -5 2 -32 1 -62 -2z m-21 -434 c0 -167 -3 -235
-12 -244 -12 -12 -298 -18 -298 -6 0 3 64 115 141 249 99 170 145 242 155 238
11 -4 14 -49 14 -237z"/>
<path d="M1845 9167 c-64 -21 -105 -46 -155 -93 -106 -99 -135 -254 -74 -385
17 -36 57 -96 89 -133 31 -37 55 -70 52 -73 -3 -2 -35 5 -71 17 -53 18 -81 22
-149 18 -99 -5 -146 -28 -220 -107 -73 -78 -91 -126 -92 -246 0 -98 1 -101 42
-183 41 -78 94 -141 120 -142 6 0 18 -8 25 -18 21 -29 148 -45 224 -30 89 19
141 62 216 182 l63 99 3 -56 c4 -74 -44 -248 -104 -375 -51 -109 -53 -107 74
-100 48 3 129 3 180 -1 72 -5 92 -3 92 7 0 7 -20 61 -44 120 -69 166 -106 324
-88 371 8 22 10 21 41 -35 48 -86 76 -120 134 -163 63 -46 92 -55 179 -54 92
2 162 35 239 113 62 63 79 102 99 223 11 71 4 116 -30 194 -36 78 -98 145
-166 179 -51 25 -61 26 -152 21 -53 -2 -116 -12 -139 -20 -24 -9 -43 -14 -43
-11 0 3 25 38 56 77 70 90 93 134 104 204 12 69 -9 199 -40 248 -29 47 -94 99
-166 132 -50 23 -75 28 -159 30 -63 2 -115 -2 -140 -10z"/>
<path d="M4830 9170 c-61 -13 -156 -61 -207 -104 -65 -56 -86 -110 -87 -225
-1 -93 0 -99 38 -176 22 -44 51 -91 66 -105 29 -28 65 -79 59 -84 -2 -3 -31 7
-64 21 -52 21 -71 24 -140 20 -106 -6 -172 -34 -230 -99 -65 -72 -89 -142 -90
-258 0 -132 19 -184 99 -264 83 -85 139 -111 236 -111 62 0 85 5 131 28 67 32
127 94 165 169 46 92 69 92 60 0 -9 -90 -42 -191 -142 -437 -3 -6 63 -10 186
-10 162 0 190 2 190 15 0 8 -18 60 -39 115 -72 181 -121 385 -92 385 12 0 47
-46 84 -110 24 -43 98 -114 142 -137 73 -39 230 -20 307 38 155 116 209 339
120 502 -36 68 -120 141 -183 162 -63 21 -179 16 -251 -11 -26 -10 -50 -15
-54 -11 -3 3 17 32 45 64 29 32 68 89 87 127 29 59 34 79 34 141 0 132 -46
227 -144 292 -83 57 -225 84 -326 63z"/>
<path d="M573 8770 c-87 -50 -103 -108 -55 -203 l28 -55 -63 -4 c-70 -4 -100
-25 -134 -90 -24 -48 -24 -68 2 -129 27 -61 73 -89 147 -89 45 0 53 4 86 40
20 22 38 40 41 40 11 0 3 -45 -20 -112 -14 -39 -25 -74 -25 -76 0 -6 142 7
149 14 3 3 -5 33 -17 67 -12 34 -22 73 -22 87 0 23 2 22 43 -18 38 -37 48 -42
90 -42 59 0 119 29 136 67 22 48 26 135 7 172 -23 44 -93 75 -152 68 -24 -2
-44 -3 -44 -1 0 2 14 25 31 51 27 42 30 54 25 97 -9 77 -63 125 -161 140 -33
5 -49 1 -92 -24z"/>
<path d="M5055 3029 c-22 -4 -104 -8 -182 -8 -165 -1 -159 3 -117 -96 64 -154
95 -260 100 -345 l5 -85 -21 25 c-12 14 -35 50 -51 81 -31 62 -88 117 -158
151 -68 34 -187 32 -256 -4 -80 -42 -131 -92 -167 -166 -32 -64 -33 -71 -33
-187 0 -111 2 -124 27 -171 40 -76 70 -107 140 -145 60 -32 68 -34 158 -33 63
0 110 6 139 17 24 10 46 15 48 13 3 -2 -20 -37 -50 -78 -84 -110 -107 -167
-107 -260 0 -109 27 -177 99 -249 73 -73 168 -107 288 -104 103 2 122 6 199
45 72 37 110 79 149 161 20 44 25 70 25 138 0 74 -4 93 -32 155 -18 41 -53 94
-82 126 -58 63 -51 71 36 47 29 -8 70 -18 90 -21 40 -7 132 12 185 39 41 20
110 103 142 169 22 46 25 62 23 160 -1 60 -6 114 -12 120 -5 5 -10 17 -10 26
0 29 -78 132 -125 165 -48 35 -151 65 -221 65 -95 0 -255 -128 -289 -231 -15
-44 -19 -49 -28 -34 -5 10 -7 43 -4 74 5 54 52 226 67 246 9 12 58 128 70 167
10 34 6 37 -45 27z"/>
<path d="M1780 3019 c0 -3 17 -50 39 -105 64 -163 101 -291 101 -344 0 -69
-22 -66 -59 8 -43 85 -93 137 -166 173 -60 29 -71 31 -143 27 -63 -4 -89 -10
-140 -38 -76 -40 -115 -83 -156 -170 -29 -60 -31 -73 -31 -170 0 -96 2 -110
30 -163 40 -79 129 -161 197 -182 82 -24 129 -20 275 24 32 9 33 9 22 -12 -7
-12 -32 -43 -56 -70 -24 -26 -58 -77 -75 -112 -26 -57 -30 -76 -30 -151 0 -75
4 -93 31 -147 37 -77 65 -106 134 -146 58 -33 219 -68 266 -57 14 3 38 8 52
10 55 9 159 67 195 109 68 80 79 110 79 227 0 95 -3 110 -28 162 -16 32 -51
82 -78 112 -70 77 -64 94 23 59 68 -28 200 -24 262 6 68 34 122 91 159 169 29
61 32 75 31 162 0 109 -22 178 -79 254 -50 64 -162 119 -257 124 -61 4 -76 1
-131 -26 -77 -38 -114 -76 -170 -175 -32 -56 -46 -73 -51 -62 -11 29 -6 100 9
151 9 27 20 65 26 84 6 19 14 44 18 55 41 101 81 206 81 212 0 5 -85 8 -190 8
-104 0 -190 -3 -190 -6z"/>
<path d="M6240 2512 c-94 -4 -93 -3 -66 -64 13 -29 27 -71 31 -92 l7 -39 -38
33 c-55 48 -97 63 -142 51 -55 -15 -81 -38 -103 -89 -29 -66 -19 -129 27 -176
39 -40 69 -51 119 -43 46 7 50 -3 20 -47 -18 -26 -25 -50 -25 -84 0 -68 34
-115 103 -141 53 -19 56 -19 113 -2 48 15 63 26 87 61 26 37 29 48 23 88 -3
25 -15 61 -27 80 -21 36 -13 57 18 45 7 -3 33 -2 58 1 38 6 48 13 74 53 36 54
40 109 15 173 -24 59 -59 80 -134 80 -56 0 -65 -3 -90 -30 -27 -28 -50 -39
-50 -22 0 4 11 43 25 87 13 43 23 79 22 80 -1 0 -31 -1 -67 -3z"/>
<path d="M5934 1646 c-3 -8 -4 -27 -2 -42 3 -25 9 -29 53 -39 l50 -10 3 -65
c5 -96 -1 -110 -44 -110 -48 0 -74 -16 -74 -45 0 -45 10 -55 55 -55 23 0 47
-6 53 -12 6 -8 10 -137 11 -332 1 -218 5 -323 12 -333 16 -18 57 -16 98 5 28
14 60 63 198 302 219 378 219 380 204 418 -18 44 -53 52 -230 52 -86 0 -163 5
-171 10 -18 11 -21 143 -4 160 6 6 30 14 55 18 43 7 44 8 44 47 l0 40 -153 3
c-125 2 -153 0 -158 -12z m480 -388 c-13 -43 -61 -145 -104 -219 -64 -111
-161 -259 -171 -259 -12 0 -11 443 1 474 l10 26 135 0 136 0 -7 -22z"/>
</g>
</svg>
