<svg version="1.0" xmlns="http://www.w3.org/2000/svg"
 width="691.000000pt" height="1056.000000pt" viewBox="0 0 691.000000 1056.000000"
 preserveAspectRatio="xMidYMid meet">
<g transform="translate(0.000000,1056.000000) scale(0.100000,-0.100000)"
fill="#000000" stroke="none">
<path d="M744 10003 c-12 -2 -29 -12 -37 -21 -14 -16 -326 -551 -369 -634 -17
-32 -18 -43 -8 -73 6 -19 20 -40 30 -45 10 -6 91 -10 179 -10 87 0 166 -3 175
-6 13 -5 16 -23 16 -90 l0 -83 -37 -10 c-21 -6 -44 -11 -50 -11 -14 0 -17 -30
-7 -67 6 -22 10 -23 144 -23 155 0 176 8 163 58 -7 31 -19 42 -48 42 -41 1
-46 13 -43 100 l3 84 50 11 c49 10 50 11 47 45 -1 19 -4 35 -6 37 -2 2 -26 6
-55 10 l-51 6 0 338 0 339 -24 0 c-13 0 -30 2 -38 4 -7 2 -23 1 -34 -1z m-9
-600 l-7 -83 -145 0 c-86 0 -143 4 -141 9 2 6 68 124 148 264 l145 254 3 -181
c2 -100 0 -218 -3 -263z"/>
<path d="M4699 9296 c-223 -287 -506 -657 -539 -705 -93 -138 -107 -323 -35
-474 56 -120 213 -185 347 -145 52 15 120 76 173 155 l42 64 6 -48 c8 -72 -10
-189 -47 -307 l-34 -106 145 0 c116 0 144 3 140 13 -53 139 -88 300 -85 388
l3 74 57 -82 c62 -88 106 -127 165 -149 45 -16 124 -18 173 -4 207 57 289 359
161 595 -21 40 -562 748 -605 792 -8 8 -25 -7 -67 -61z"/>
<path d="M2148 9338 c-16 -13 -340 -425 -512 -652 -54 -71 -106 -147 -116
-171 -68 -158 -43 -359 58 -467 79 -84 214 -115 312 -71 65 29 107 68 160 149
25 39 51 69 58 66 25 -8 -11 -232 -60 -371 -16 -45 -28 -84 -26 -86 4 -3 288
-15 288 -11 0 1 -14 42 -30 92 -48 140 -74 317 -51 352 5 9 16 1 36 -30 82
-123 172 -182 281 -182 76 0 137 29 194 90 110 120 135 305 62 469 -30 69
-238 346 -601 802 -29 37 -31 38 -53 21z"/>
<path d="M516 8631 c-147 -196 -165 -232 -146 -303 21 -77 65 -118 127 -118
34 0 88 31 103 59 15 29 42 28 36 -1 -14 -65 -26 -130 -26 -138 0 -6 22 -10
50 -10 l50 0 -7 48 c-11 72 -9 115 5 119 6 3 12 -2 12 -10 0 -8 14 -27 31 -41
54 -46 141 -28 176 37 23 42 22 141 -1 185 -23 45 -256 352 -266 352 -5 0 -69
-81 -144 -179z"/>
<path d="M4615 2920 c57 -192 85 -311 85 -364 0 -94 -10 -97 -60 -21 -76 117
-155 165 -270 165 -43 0 -71 -7 -118 -31 -114 -57 -164 -147 -170 -306 -5
-120 16 -205 70 -289 33 -52 600 -786 603 -781 1 1 73 94 161 207 390 505 470
616 492 685 44 134 21 311 -53 408 -50 65 -145 111 -229 110 -105 -1 -180 -50
-261 -171 l-42 -63 -6 43 c-11 79 34 315 73 389 6 10 10 21 10 26 0 4 -65 8
-145 8 -124 0 -144 -2 -140 -15z"/>
<path d="M2047 2830 c39 -119 65 -259 61 -332 l-3 -53 -52 76 c-114 167 -221
213 -370 158 -195 -74 -263 -352 -142 -579 16 -30 155 -217 309 -414 154 -197
282 -367 285 -378 6 -16 9 -17 26 -4 35 24 601 759 625 811 80 173 66 376 -34
487 -71 79 -197 116 -297 88 -55 -15 -127 -77 -180 -155 -21 -30 -42 -55 -47
-55 -13 0 -9 122 6 202 8 40 28 112 45 161 l30 87 -148 0 -148 0 34 -100z"/>
<path d="M6238 2532 c-27 -2 -48 -7 -48 -12 0 -5 7 -41 15 -81 9 -40 13 -74
11 -77 -3 -2 -21 9 -40 26 -19 16 -50 35 -70 42 -101 33 -190 -109 -141 -226
14 -33 123 -182 224 -304 25 -30 47 -57 49 -60 5 -7 31 26 162 199 91 120 111
153 120 198 19 91 -7 161 -69 186 -51 21 -99 8 -153 -41 -39 -35 -41 -36 -35
-12 11 47 29 161 26 163 -2 1 -25 1 -51 -1z"/>
<path d="M5970 1706 c-6 -8 -10 -25 -8 -38 2 -18 14 -26 57 -37 l53 -14 -6
-45 c-3 -25 -6 -64 -6 -88 0 -41 -2 -44 -27 -44 -60 0 -73 -10 -73 -50 0 -36
2 -38 38 -44 79 -15 72 21 72 -346 0 -181 4 -331 9 -334 5 -3 30 -7 55 -8 35
-1 52 4 66 18 10 10 100 161 199 334 194 338 205 365 160 406 -19 17 -41 19
-206 22 l-184 3 6 82 c8 106 9 107 47 107 50 0 62 12 54 54 l-7 36 -143 0
c-113 0 -146 -3 -156 -14z m480 -380 c0 -35 -200 -396 -259 -467 l-20 -24 -1
253 0 252 140 0 c113 0 140 -3 140 -14z"/>
</g>
</svg>
