<svg version="1.0" xmlns="http://www.w3.org/2000/svg"
 width="691.000000pt" height="1056.000000pt" viewBox="0 0 691.000000 1056.000000"
 preserveAspectRatio="xMidYMid meet">
<g transform="translate(0.000000,1056.000000) scale(0.100000,-0.100000)"
fill="#000000" stroke="none">
<path d="M477 9793 c-41 -348 -40 -342 -27 -358 23 -28 74 -18 125 24 105 87
250 82 332 -12 41 -46 56 -101 49 -180 -11 -130 -52 -202 -140 -243 -61 -28
-73 -29 -144 -7 -62 20 -96 55 -121 125 -14 36 -21 43 -46 46 -48 4 -59 -9
-51 -60 9 -62 64 -143 122 -181 47 -31 53 -32 149 -32 89 0 106 3 150 27 124
65 180 172 183 345 3 135 -60 244 -173 298 -74 35 -144 40 -242 17 l-83 -19 0
31 c0 44 29 287 36 297 3 5 83 9 178 9 l174 0 5 27 c3 15 1 37 -4 50 l-9 23
-218 0 -218 0 -27 -227z"/>
<path d="M1895 9176 c-109 -35 -181 -94 -224 -185 -22 -48 -26 -69 -26 -151 0
-87 3 -100 32 -156 17 -34 55 -86 82 -116 28 -31 51 -61 51 -68 0 -13 -29 -6
-75 19 -22 12 -57 16 -130 16 -85 0 -106 -3 -142 -23 -71 -37 -113 -82 -154
-163 -37 -74 -39 -84 -39 -169 0 -50 4 -98 9 -108 5 -9 19 -40 31 -69 25 -57
94 -129 154 -163 24 -13 74 -26 126 -33 85 -10 86 -10 139 18 67 37 137 113
183 201 l36 68 8 -39 c8 -42 -1 -92 -35 -195 -12 -36 -33 -101 -47 -145 -15
-44 -32 -90 -40 -102 -8 -12 -14 -30 -14 -40 0 -17 14 -18 190 -18 105 0 190
1 190 3 0 1 -22 60 -49 130 -60 157 -83 250 -79 322 l3 55 60 -90 c90 -136
170 -181 305 -173 110 6 186 56 260 170 25 38 42 79 50 123 44 233 -106 435
-323 435 -65 0 -159 -21 -182 -40 -8 -7 -15 -7 -19 -1 -4 5 13 30 36 54 97
100 142 206 136 319 -9 146 -89 257 -223 307 -65 24 -214 28 -280 7z"/>
<path d="M4840 9156 c-62 -18 -143 -60 -184 -97 -45 -39 -93 -135 -101 -204
-4 -30 -2 -84 5 -122 11 -63 17 -74 91 -165 82 -100 84 -113 12 -83 -20 9 -75
18 -122 21 -74 5 -94 3 -140 -15 -72 -29 -104 -53 -139 -105 -53 -78 -67 -130
-67 -246 0 -116 9 -142 83 -244 64 -88 231 -148 326 -116 20 6 63 30 96 52 47
31 67 53 90 97 39 75 66 115 73 104 3 -4 8 -25 12 -45 5 -29 2 -46 -13 -71
-10 -19 -25 -64 -31 -102 -12 -65 -44 -150 -62 -161 -5 -3 -9 -15 -9 -27 0
-12 -7 -35 -15 -50 -26 -50 -14 -57 93 -51 54 3 129 2 167 -3 80 -10 105 -7
105 11 0 7 -20 61 -45 121 -57 136 -85 245 -85 332 l1 68 61 -106 c60 -102 65
-107 128 -140 36 -19 67 -34 70 -34 3 -1 15 -4 27 -8 58 -20 228 36 292 96 38
36 81 125 101 206 38 160 -42 335 -185 403 -77 36 -173 38 -270 7 -36 -12 -67
-20 -70 -17 -2 2 21 31 51 64 30 32 72 92 92 132 32 66 36 82 36 155 0 155
-54 240 -197 310 -86 42 -200 55 -277 33z"/>
<path d="M675 8811 c-44 -11 -84 -40 -101 -72 -20 -39 -18 -108 5 -151 23 -42
20 -48 -27 -48 -84 0 -154 -67 -155 -148 -1 -67 28 -120 83 -149 69 -37 106
-31 162 24 57 56 61 45 24 -61 -13 -38 -22 -74 -20 -80 3 -7 27 -9 72 -6 75 6
77 9 49 85 -8 22 -18 56 -22 75 l-7 34 52 -47 c43 -39 59 -47 92 -47 116 0
192 123 139 227 -31 62 -64 83 -127 83 -30 0 -54 4 -54 10 0 5 9 24 20 42 42
69 17 178 -47 211 -37 19 -100 27 -138 18z"/>
<path d="M3315 6086 c-109 -35 -177 -94 -221 -191 -23 -50 -28 -73 -27 -141 0
-99 24 -157 106 -259 31 -38 57 -73 57 -77 0 -4 -30 2 -67 13 -40 11 -99 19
-144 19 -134 0 -223 -61 -287 -197 -24 -52 -27 -69 -27 -163 0 -99 2 -110 33
-172 61 -124 175 -198 306 -198 111 0 225 76 281 187 48 93 70 96 61 7 -8 -79
-40 -184 -101 -328 -25 -59 -45 -111 -45 -114 0 -8 368 -7 376 1 3 2 -2 22
-10 43 -95 256 -133 394 -121 441 9 37 23 27 56 -39 17 -34 57 -88 89 -119 45
-46 69 -61 115 -75 158 -45 326 39 403 204 24 50 27 69 27 157 0 91 -3 106
-31 165 -56 119 -121 171 -237 190 -64 10 -175 -3 -220 -25 -17 -8 -32 -15
-34 -15 -7 0 -2 29 6 32 22 8 107 120 135 178 27 57 31 75 31 150 0 66 -5 96
-22 132 -32 71 -103 141 -176 174 -54 25 -75 29 -167 31 -66 2 -120 -2 -145
-11z"/>
<path d="M1952 3042 c-208 -3 -209 -4 -168 -75 25 -41 41 -82 87 -222 23 -67
38 -205 22 -205 -5 0 -36 41 -68 90 -52 80 -66 95 -124 128 -60 34 -73 37
-141 37 -63 0 -85 -5 -140 -31 -68 -32 -130 -78 -130 -97 0 -6 -8 -20 -19 -31
-16 -19 -50 -108 -64 -174 -8 -33 10 -132 34 -197 27 -72 95 -146 161 -176 66
-30 196 -32 271 -5 26 9 52 14 57 11 6 -4 -15 -34 -45 -68 -31 -34 -70 -91
-88 -127 -28 -57 -32 -74 -32 -150 0 -76 3 -92 33 -152 95 -194 366 -258 570
-135 104 62 155 155 155 282 -1 106 -26 172 -103 264 -50 59 -70 91 -57 91 1
0 27 -10 57 -22 41 -16 78 -21 145 -22 79 0 96 3 141 26 63 33 118 94 153 167
23 50 26 68 26 166 0 98 -3 116 -27 167 -35 76 -98 142 -167 175 -48 24 -68
28 -141 28 -75 0 -91 -3 -138 -29 -59 -33 -119 -98 -160 -176 -16 -29 -32 -51
-38 -49 -13 5 -6 102 12 174 9 33 38 118 65 189 27 71 48 134 47 140 -2 8 -63
10 -186 8z"/>
<path d="M4686 3011 c-4 -6 6 -44 22 -84 17 -40 33 -94 37 -122 4 -27 20 -76
35 -108 29 -58 47 -153 36 -183 -9 -23 -29 -4 -67 65 -41 72 -91 125 -155 162
-72 41 -150 40 -259 -2 -81 -31 -115 -53 -115 -74 0 -6 -5 -16 -11 -22 -23
-23 -81 -169 -86 -216 -6 -61 21 -183 53 -242 32 -56 72 -90 152 -128 59 -28
70 -29 142 -24 43 4 99 11 124 18 26 6 48 10 51 8 2 -2 -24 -35 -57 -74 -90
-105 -103 -139 -103 -265 0 -120 17 -169 83 -235 66 -66 223 -129 298 -119 16
3 47 6 69 9 58 6 174 68 221 117 51 53 74 117 81 224 5 79 5 83 -32 152 -20
39 -57 97 -80 129 -24 32 -42 59 -40 62 2 2 43 -7 90 -20 78 -20 92 -21 152
-10 122 22 197 79 239 179 26 60 29 79 29 182 0 110 -1 118 -32 175 -74 143
-218 216 -365 186 -86 -18 -137 -57 -196 -147 -94 -145 -95 -145 -81 -34 13
109 67 271 130 392 5 10 9 27 9 38 0 20 -4 21 -47 14 -60 -9 -180 -9 -259 1
-43 5 -64 4 -68 -4z"/>
<path d="M6100 2477 c0 -1 9 -28 20 -59 11 -31 22 -75 26 -98 l7 -43 -50 51
c-45 48 -53 52 -95 52 -114 0 -181 -121 -129 -235 23 -52 36 -61 96 -70 74 -9
80 -16 60 -55 -9 -18 -19 -56 -22 -84 -5 -46 -2 -55 22 -84 34 -41 67 -58 127
-67 39 -6 53 -3 82 14 62 39 86 76 86 134 -1 29 -7 63 -15 77 -23 40 -18 47
35 53 90 11 140 69 140 164 0 83 -63 153 -138 153 -42 0 -67 -13 -114 -58 -46
-43 -47 -33 -13 68 14 40 25 77 25 82 0 4 -34 8 -75 8 -41 0 -75 -1 -75 -3z"/>
<path d="M6084 1650 c-112 -23 -208 -107 -241 -208 -26 -83 -25 -251 3 -313
28 -60 76 -114 132 -146 61 -36 193 -44 272 -18 28 9 55 13 60 9 11 -13 -24
-302 -38 -316 -9 -9 -65 -15 -180 -18 l-167 -5 -3 -28 c-7 -55 1 -57 229 -57
239 0 213 -14 230 121 6 46 14 113 19 149 4 36 13 119 20 184 12 112 12 120
-5 133 -27 19 -69 16 -90 -7 -10 -11 -39 -34 -63 -50 -40 -27 -54 -30 -121
-30 -170 0 -244 99 -219 293 14 108 66 174 157 201 68 20 104 20 141 1 34 -17
100 -100 100 -125 0 -35 24 -52 63 -45 33 7 37 10 37 39 -1 72 -74 177 -154
218 -45 23 -123 31 -182 18z"/>
</g>
</svg>
