<svg version="1.0" xmlns="http://www.w3.org/2000/svg"
 width="691.000000pt" height="1056.000000pt" viewBox="0 0 691.000000 1056.000000"
 preserveAspectRatio="xMidYMid meet">
<g transform="translate(0.000000,1056.000000) scale(0.100000,-0.100000)"
fill="#000000" stroke="none">
<path d="M363 9979 c-28 -10 -28 -11 -53 -269 -27 -289 -27 -300 -5 -316 33
-24 65 -16 115 29 74 66 158 83 253 51 57 -19 112 -77 128 -136 18 -67 6 -185
-25 -246 -74 -146 -264 -165 -346 -35 -17 26 -32 55 -36 65 -6 21 -43 33 -73
23 -29 -9 -27 -49 5 -113 50 -100 142 -155 259 -155 93 0 158 28 223 97 87 91
97 120 96 271 0 117 -2 134 -23 170 -36 63 -81 105 -145 136 -97 46 -160 47
-313 3 -22 -6 -23 -4 -22 52 1 78 22 256 32 272 6 9 54 12 181 12 l173 0 7 41
c4 23 5 43 4 44 -9 7 -417 11 -435 4z"/>
<path d="M4752 9152 c-11 -9 -136 -161 -278 -337 -142 -176 -291 -360 -331
-410 -45 -55 -73 -98 -73 -113 0 -16 69 -106 218 -286 399 -481 487 -585 497
-585 8 -1 589 708 679 830 25 32 28 44 20 64 -10 28 -682 841 -701 849 -7 3
-21 -3 -31 -12z"/>
<path d="M2044 9133 c-6 -10 -163 -204 -348 -432 -185 -227 -336 -418 -336
-425 0 -17 19 -42 270 -340 124 -148 247 -296 273 -330 49 -62 112 -138 158
-190 l25 -29 35 43 c19 23 53 65 77 93 23 29 51 63 62 77 11 14 37 45 58 70
21 25 58 72 82 105 23 33 60 78 80 100 21 22 41 47 46 57 5 9 27 36 49 60 23
23 56 65 75 93 19 27 58 76 87 107 34 37 53 67 53 82 0 28 9 17 -399 506 -168
201 -312 366 -320 368 -9 1 -21 -5 -27 -15z"/>
<path d="M499 8628 c-157 -191 -179 -219 -179 -233 0 -14 277 -351 286 -348
16 4 274 335 274 351 0 25 -259 332 -280 332 -10 0 -55 -46 -101 -102z"/>
<path d="M3413 6128 c-25 -28 -183 -222 -601 -742 -40 -49 -72 -97 -72 -106 0
-14 694 -859 718 -874 4 -3 163 188 353 424 244 304 345 438 347 458 3 25 -45
86 -347 450 -193 232 -354 422 -359 422 -4 0 -22 -15 -39 -32z"/>
<path d="M4524 2818 c-153 -189 -309 -381 -346 -427 -37 -46 -68 -89 -68 -96
0 -8 50 -73 110 -147 96 -116 254 -307 385 -467 135 -166 171 -208 189 -228
38 -41 69 -27 126 57 13 19 39 53 58 75 77 92 525 655 547 688 14 21 14 30 4
49 -7 13 -165 206 -351 431 -220 264 -346 407 -358 407 -12 0 -114 -119 -296
-342z"/>
<path d="M2108 3137 c-8 -7 -166 -197 -351 -424 -244 -297 -337 -419 -337
-437 0 -29 10 -41 407 -516 216 -259 293 -345 310 -345 16 0 69 59 213 240
106 132 211 260 234 285 24 25 48 55 54 66 6 12 50 70 98 130 98 123 110 144
97 169 -16 28 -677 821 -694 833 -12 8 -21 8 -31 -1z"/>
<path d="M6157 2388 c-68 -84 -131 -165 -141 -180 l-17 -26 142 -174 c78 -95
143 -174 144 -176 7 -9 275 340 275 358 0 12 -56 88 -136 185 -75 91 -138 165
-140 165 -1 0 -58 -69 -127 -152z"/>
<path d="M6237 1690 c-57 -15 -97 -38 -157 -93 -46 -42 -58 -60 -73 -111 -25
-85 -27 -226 -4 -293 43 -125 136 -193 276 -201 55 -3 95 1 136 12 38 12 61
14 68 7 16 -16 -13 -279 -34 -305 -16 -19 -28 -21 -161 -24 -189 -3 -190 -3
-186 -50 l3 -37 195 -6 c107 -3 205 -2 217 2 31 11 44 41 47 112 2 34 12 151
22 261 17 194 17 199 -1 212 -32 24 -65 16 -112 -25 -82 -73 -189 -89 -280
-43 -80 41 -107 97 -108 218 0 81 3 96 30 149 43 83 102 120 195 120 57 0 72
-4 101 -27 20 -14 50 -54 68 -87 28 -53 36 -61 60 -61 47 0 57 22 38 84 -42
133 -201 220 -340 186z"/>
</g>
</svg>
