<svg version="1.0" xmlns="http://www.w3.org/2000/svg"
 width="691.000000pt" height="1056.000000pt" viewBox="0 0 691.000000 1056.000000"
 preserveAspectRatio="xMidYMid meet">
<g transform="translate(0.000000,1056.000000) scale(0.100000,-0.100000)"
fill="#000000" stroke="none">
<path d="M541 9959 c-91 -5 -117 -10 -127 -23 -15 -21 -34 -126 -34 -187 0
-24 -7 -111 -15 -193 -8 -83 -12 -158 -9 -168 5 -17 41 -38 65 -38 5 0 26 16
46 36 77 73 158 96 246 70 111 -32 151 -93 152 -231 0 -73 -4 -99 -23 -140
-43 -94 -105 -134 -203 -135 -72 0 -113 26 -156 100 -52 89 -62 95 -102 63
-21 -18 -21 -19 -5 -72 31 -104 150 -191 263 -191 54 0 139 28 187 61 52 35
100 106 121 178 20 71 14 272 -10 299 -8 9 -18 27 -21 39 -9 30 -56 68 -130
105 -52 27 -71 31 -132 30 -39 -1 -87 -9 -107 -17 -46 -19 -73 -19 -80 0 -10
25 13 256 29 286 16 32 3 30 230 33 60 1 97 6 108 15 19 16 22 80 4 82 -46 4
-201 3 -297 -2z"/>
<path d="M4928 9171 c-95 -31 -134 -63 -239 -192 l-25 -32 -32 49 c-84 132
-202 192 -352 181 -100 -8 -143 -23 -195 -69 -75 -67 -115 -176 -115 -322 0
-151 49 -286 176 -479 152 -233 491 -637 534 -637 22 0 143 130 273 292 305
382 427 618 430 828 1 181 -68 319 -186 370 -72 32 -191 37 -269 11z"/>
<path d="M2464 9160 c-98 -20 -203 -95 -264 -189 -17 -28 -37 -48 -43 -45 -7
3 -29 32 -49 64 -65 105 -158 155 -309 167 -60 4 -84 2 -109 -11 -18 -9 -39
-16 -47 -16 -23 0 -107 -86 -131 -134 -35 -69 -55 -179 -49 -271 7 -111 66
-275 139 -386 30 -46 63 -97 72 -114 9 -16 44 -64 77 -105 33 -41 71 -91 84
-110 12 -19 40 -54 61 -77 22 -23 48 -53 59 -67 11 -15 38 -46 60 -69 22 -24
62 -69 90 -100 31 -36 58 -57 71 -57 15 0 45 28 95 87 41 48 90 105 109 127
20 23 54 66 77 96 23 30 56 70 72 89 17 18 31 38 31 42 0 5 16 26 35 46 19 20
42 50 50 67 14 26 40 68 72 112 5 5 15 23 24 40 8 16 20 38 27 49 36 66 82
178 92 230 16 77 16 219 0 287 -34 145 -103 213 -249 244 -73 15 -87 16 -147
4z"/>
<path d="M445 8748 c-126 -44 -136 -229 -21 -398 56 -83 110 -152 171 -218 22
-24 44 -50 48 -58 17 -30 46 -13 114 68 103 123 139 175 186 268 36 74 42 95
45 160 2 57 -1 83 -15 109 -50 95 -172 109 -258 30 -23 -21 -46 -39 -51 -39
-4 0 -24 15 -44 34 -54 51 -112 66 -175 44z"/>
<path d="M2985 6037 c-141 -37 -210 -123 -241 -300 -38 -214 65 -452 354 -816
124 -158 324 -380 346 -387 23 -8 68 37 219 219 239 287 391 521 453 698 49
139 43 329 -13 447 -45 94 -150 152 -277 152 -147 0 -245 -51 -339 -175 -26
-36 -50 -65 -52 -65 -2 0 -15 20 -29 44 -38 65 -127 141 -194 166 -70 27 -161
34 -227 17z"/>
<path d="M4650 2864 c-30 -35 -66 -77 -80 -93 -144 -166 -316 -401 -415 -566
-96 -160 -145 -339 -131 -485 7 -83 9 -89 29 -127 9 -18 17 -38 17 -45 0 -16
82 -96 125 -123 23 -14 56 -20 136 -23 151 -6 189 8 288 107 42 42 86 89 97
106 l21 30 36 -56 c88 -137 238 -206 389 -179 77 14 123 38 169 87 77 80 104
177 96 334 -8 159 -55 277 -192 479 -85 126 -344 452 -414 521 -25 25 -56 57
-68 72 -12 15 -27 27 -35 26 -7 0 -38 -29 -68 -65z"/>
<path d="M2136 2828 c-227 -254 -436 -539 -525 -715 -74 -149 -94 -223 -94
-348 0 -217 76 -341 235 -381 162 -42 319 18 425 162 26 35 50 64 55 64 4 0
19 -20 33 -44 63 -107 178 -177 306 -184 114 -7 176 15 249 86 85 84 104 140
104 302 0 111 -3 134 -27 205 -47 135 -175 341 -338 545 -115 144 -329 380
-344 380 -7 0 -43 -33 -79 -72z"/>
<path d="M6097 2413 c-159 -198 -207 -290 -207 -401 0 -65 29 -135 68 -160 40
-26 119 -21 175 11 26 16 55 39 64 53 l16 25 41 -39 c53 -51 75 -62 129 -62
57 0 105 32 135 90 44 87 22 187 -71 326 -69 104 -210 269 -234 272 -16 2 -43
-24 -116 -115z"/>
<path d="M6135 1686 c-77 -33 -144 -101 -176 -181 -19 -50 -24 -78 -24 -165 0
-92 3 -112 26 -160 36 -76 71 -115 133 -145 72 -35 145 -42 240 -21 42 10 81
14 87 10 19 -11 -8 -300 -30 -313 -7 -5 -83 -11 -168 -15 -86 -4 -160 -9 -165
-12 -15 -9 -9 -72 8 -78 9 -3 100 -6 203 -6 140 0 192 3 205 13 16 12 22 53
44 281 19 188 23 272 16 283 -6 9 -23 21 -38 26 -24 8 -32 5 -64 -26 -131
-125 -325 -103 -386 44 -39 93 -28 214 27 296 44 66 95 93 175 93 95 0 136
-27 182 -123 22 -46 28 -52 54 -50 45 3 52 16 38 70 -44 161 -226 246 -387
179z"/>
</g>
</svg>
