<svg version="1.0" xmlns="http://www.w3.org/2000/svg"
 width="691.000000pt" height="1056.000000pt" viewBox="0 0 691.000000 1056.000000"
 preserveAspectRatio="xMidYMid meet">
<g transform="translate(0.000000,1056.000000) scale(0.100000,-0.100000)"
fill="#000000" stroke="none">
<path d="M390 10018 c0 -7 -13 -134 -30 -282 -27 -253 -28 -270 -12 -282 29
-23 64 -15 122 24 30 22 70 44 89 50 96 33 211 -5 258 -86 36 -60 44 -184 18
-262 -25 -74 -85 -133 -154 -150 -113 -27 -198 23 -241 143 -16 41 -15 41 -59
26 -20 -7 -31 -18 -31 -30 0 -40 41 -126 77 -161 65 -62 96 -73 203 -73 87 0
100 3 150 30 107 59 165 182 164 350 0 107 -22 166 -86 232 -81 83 -195 108
-330 75 l-78 -19 0 21 c0 11 7 82 15 156 8 74 15 141 15 148 0 9 43 12 181 12
l180 0 -3 43 -3 42 -222 3 c-175 2 -223 0 -223 -10z"/>
<path d="M2142 9333 c-20 -19 -267 -332 -475 -603 -135 -176 -163 -224 -183
-324 -17 -81 -13 -139 18 -239 60 -196 289 -279 444 -161 20 16 61 63 91 106
30 43 59 78 65 78 15 0 2 -147 -22 -240 -17 -66 -45 -152 -65 -201 -5 -15 10
-18 135 -24 78 -4 143 -5 146 -2 3 3 -8 43 -24 88 -16 46 -37 118 -46 159 -19
89 -25 212 -11 216 6 2 34 -33 64 -77 98 -146 208 -190 348 -138 195 74 268
328 159 556 -21 44 -130 194 -308 423 -151 196 -280 366 -287 378 -14 27 -23
27 -49 5z"/>
<path d="M4722 9318 c-68 -73 -578 -743 -602 -791 -38 -77 -54 -156 -47 -247
10 -144 69 -245 175 -297 47 -23 70 -28 132 -28 112 0 183 47 256 168 20 31
43 57 51 57 32 0 1 -208 -57 -374 -11 -33 -20 -65 -20 -73 0 -10 30 -13 141
-13 137 0 140 1 134 20 -73 229 -98 366 -78 419 9 23 12 20 62 -52 79 -114
148 -157 252 -157 223 0 362 249 282 505 -29 93 -61 140 -323 480 -250 323
-316 405 -330 405 -4 0 -16 -10 -28 -22z"/>
<path d="M525 8648 c-69 -90 -134 -181 -145 -204 -34 -69 -24 -143 27 -196 49
-52 121 -48 184 9 43 39 43 39 25 -64 l-13 -73 48 0 c56 0 56 0 38 95 -8 45
-8 60 2 66 9 5 19 -2 31 -22 38 -62 131 -65 185 -5 30 32 33 42 33 96 0 33 -6
75 -14 94 -13 31 -248 350 -266 361 -5 3 -65 -68 -135 -157z"/>
<path d="M3229 5867 c-279 -355 -394 -508 -419 -557 -32 -62 -53 -175 -45
-240 14 -114 42 -179 103 -240 47 -46 68 -59 118 -73 75 -21 119 -21 174 -2
62 22 119 73 170 153 25 39 50 69 55 68 16 -5 7 -150 -15 -234 -10 -42 -31
-110 -45 -151 -14 -41 -25 -76 -25 -78 0 -2 65 -3 145 -3 80 0 145 1 145 3 0
2 -15 49 -34 105 -54 158 -81 350 -51 358 6 2 30 -29 55 -68 93 -146 205 -195
348 -153 67 20 152 97 180 163 53 123 50 268 -8 391 -32 67 -54 97 -363 496
-223 287 -255 325 -271 325 -6 0 -104 -118 -217 -263z"/>
<path d="M4733 2923 c-84 -2 -133 -7 -133 -14 0 -6 17 -74 39 -152 47 -172 55
-232 38 -271 l-13 -29 -43 66 c-76 117 -150 168 -246 169 -133 3 -246 -76
-293 -204 -8 -24 -17 -87 -20 -141 -4 -82 -1 -109 18 -167 12 -39 35 -91 51
-115 30 -48 480 -632 556 -722 l44 -52 33 37 c66 74 541 688 573 742 121 199
92 457 -64 569 -51 38 -95 51 -162 50 -105 -1 -185 -51 -257 -159 -26 -38 -54
-70 -62 -70 -29 0 6 214 62 379 28 80 30 92 19 89 -5 -1 -68 -4 -140 -5z"/>
<path d="M2000 2914 c0 -3 13 -42 29 -87 37 -107 53 -204 49 -297 l-3 -74 -44
67 c-77 119 -150 168 -251 170 -151 3 -267 -94 -304 -253 -27 -114 -15 -222
35 -323 42 -84 606 -812 629 -812 22 0 587 720 628 800 59 117 68 280 22 399
-44 116 -150 188 -274 189 -107 1 -182 -50 -266 -181 -50 -76 -60 -78 -60 -7
0 79 52 294 96 403 4 9 -27 12 -140 12 -80 0 -146 -3 -146 -6z"/>
<path d="M6170 2511 c0 -5 7 -44 15 -87 8 -43 12 -80 9 -83 -3 -3 -15 5 -26
19 -69 85 -177 79 -219 -13 -22 -49 -23 -97 -5 -150 17 -47 39 -78 171 -245
l106 -133 58 73 c184 235 220 287 226 332 10 65 -3 123 -35 160 -25 28 -34 31
-83 31 -48 0 -59 -4 -100 -38 -26 -21 -47 -35 -47 -30 1 4 7 37 15 73 22 101
23 100 -35 100 -27 0 -50 -4 -50 -9z"/>
<path d="M6144 1694 c-141 -50 -232 -233 -204 -410 25 -157 109 -248 254 -275
44 -8 72 -6 145 9 l91 19 -1 -36 c-1 -104 -26 -283 -39 -291 -8 -6 -88 -10
-177 -10 l-163 0 0 -45 0 -45 220 0 c121 0 220 1 220 3 0 1 14 126 30 277 16
151 30 280 30 287 0 7 -18 18 -40 24 -38 12 -41 11 -79 -24 -56 -50 -95 -68
-161 -74 -47 -5 -67 -1 -112 19 -61 28 -93 66 -114 135 -27 90 -8 207 46 283
42 59 152 94 223 71 54 -18 85 -47 118 -112 30 -60 36 -64 77 -53 27 8 28 32
5 99 -21 63 -85 127 -148 148 -59 21 -165 21 -221 1z"/>
</g>
</svg>
