<svg version="1.0" xmlns="http://www.w3.org/2000/svg"
 width="683.000000pt" height="1052.000000pt" viewBox="0 0 683.000000 1052.000000"
 preserveAspectRatio="xMidYMid meet">
<g transform="translate(0.000000,1052.000000) scale(0.100000,-0.100000)"
fill="#000000" stroke="none">
<path d="M580 9929 c-139 -62 -227 -243 -237 -485 -17 -380 163 -622 410 -550
77 22 156 95 188 173 20 48 24 75 24 163 0 91 -3 112 -24 154 -43 87 -130 156
-233 184 -62 17 -162 -15 -225 -72 -28 -25 -33 -27 -39 -12 -3 9 -4 26 -1 39
34 137 46 177 60 204 20 38 90 97 141 118 34 14 43 14 89 1 70 -21 92 -38 129
-103 28 -49 33 -54 57 -48 59 15 64 37 21 111 -33 58 -77 99 -135 125 -56 26
-166 25 -225 -2z m195 -487 c49 -34 96 -122 103 -190 9 -103 -54 -224 -135
-259 -133 -55 -273 63 -273 231 0 192 169 312 305 218z"/>
<path d="M1819 9132 c-97 -35 -177 -101 -210 -175 -19 -42 -23 -70 -24 -147 0
-88 3 -101 33 -163 19 -37 58 -94 88 -126 30 -33 50 -62 45 -66 -6 -3 -34 4
-63 17 -72 31 -201 31 -269 1 -126 -57 -199 -189 -199 -362 0 -100 78 -244
160 -294 19 -11 40 -26 47 -33 7 -6 51 -15 98 -19 155 -13 227 31 326 197 40
68 43 70 51 47 15 -39 1 -128 -30 -193 -24 -50 -103 -278 -102 -296 0 -7 368
-5 376 2 3 4 -17 60 -44 125 -27 65 -57 143 -66 173 -21 69 -33 210 -19 210 6
0 30 -33 53 -72 74 -127 133 -173 237 -187 63 -9 152 2 197 23 49 23 112 91
154 165 36 65 37 68 37 171 0 97 -2 110 -31 170 -41 87 -83 133 -152 167 -50
24 -68 28 -147 28 -71 -1 -100 -5 -139 -23 -85 -38 -88 -26 -13 50 28 30 68
83 87 118 33 61 35 70 35 160 0 87 -3 101 -33 166 -26 55 -44 79 -80 105 -26
19 -51 36 -57 38 -5 2 -23 9 -40 16 -99 41 -202 43 -306 7z"/>
<path d="M4781 9149 c-117 -20 -201 -81 -254 -183 -29 -56 -32 -69 -32 -156 0
-83 3 -102 27 -150 15 -30 52 -84 82 -120 31 -36 56 -69 56 -74 0 -10 -43 -3
-95 18 -46 18 -143 21 -197 6 -136 -38 -242 -197 -239 -360 1 -68 6 -84 48
-168 43 -88 50 -96 115 -140 70 -46 71 -46 167 -50 148 -6 198 27 311 200 l38
57 6 -29 c8 -44 -10 -125 -54 -243 -22 -58 -40 -114 -40 -124 -1 -10 -7 -29
-15 -43 -8 -14 -14 -38 -15 -54 0 -27 2 -28 33 -22 46 9 247 9 291 1 54 -11
55 11 8 113 -56 123 -83 214 -89 310 -3 45 -3 82 0 82 3 0 20 -25 37 -55 117
-204 328 -262 491 -133 208 164 193 505 -29 635 -65 39 -188 44 -273 14 -96
-36 -102 -26 -32 52 34 37 75 94 90 125 25 50 28 68 28 152 0 90 -2 98 -36
160 -77 141 -246 212 -428 179z"/>
<path d="M572 8740 c-43 -26 -76 -98 -66 -143 3 -18 15 -48 25 -68 10 -20 15
-39 12 -43 -4 -3 -25 -6 -48 -6 -105 0 -174 -114 -131 -213 27 -60 57 -85 114
-95 l53 -9 55 49 c49 45 54 48 54 27 -1 -13 -10 -49 -21 -79 -11 -30 -22 -62
-25 -72 -8 -21 39 -32 101 -22 52 7 52 7 20 93 -9 24 -15 53 -13 63 3 18 8 16
50 -16 51 -39 94 -46 145 -23 59 26 83 74 83 164 0 49 -4 59 -33 88 -26 26
-48 36 -96 46 -51 10 -61 15 -55 28 23 55 34 110 29 143 -7 39 -45 85 -83 99
-43 17 -135 10 -170 -11z"/>
<path d="M4810 6083 c-136 -24 -240 -97 -289 -202 -22 -47 -26 -70 -26 -146 0
-110 23 -166 109 -267 31 -38 55 -72 51 -78 -3 -6 -27 -1 -58 12 -40 17 -73
22 -142 22 -106 0 -150 -18 -221 -90 -123 -128 -138 -309 -38 -487 48 -87 147
-145 262 -154 70 -5 82 -3 128 20 70 35 133 101 176 183 44 82 53 73 46 -44
-4 -62 -15 -103 -58 -212 -29 -74 -54 -148 -57 -165 l-5 -30 183 1 c130 1 184
5 187 13 2 7 -12 45 -32 85 -52 105 -84 207 -98 308 -17 128 -3 131 61 13 45
-81 77 -111 166 -151 57 -26 62 -27 142 -17 71 9 91 16 148 53 53 35 72 55
101 107 91 161 81 328 -27 464 -78 98 -247 136 -378 83 -73 -29 -75 -14 -9 61
89 101 112 158 113 270 0 76 -4 98 -26 145 -36 76 -68 112 -137 148 -75 40
-207 67 -272 55z"/>
<path d="M1829 6064 c-68 -20 -133 -60 -173 -104 -44 -49 -77 -151 -79 -245
-2 -90 28 -155 114 -249 72 -79 69 -96 -11 -65 -38 15 -79 21 -132 22 -69 1
-85 -3 -145 -34 -117 -59 -183 -179 -183 -331 0 -64 15 -145 30 -158 3 -3 10
-16 17 -30 20 -46 95 -121 146 -147 38 -19 72 -27 132 -31 72 -4 86 -2 131 21
58 29 104 77 170 177 26 38 51 67 55 64 24 -15 -3 -153 -42 -217 -10 -18 -19
-47 -19 -66 0 -18 -16 -73 -36 -123 -20 -49 -34 -91 -32 -94 3 -2 89 -3 191
-2 l186 3 -45 109 c-80 194 -121 381 -87 393 13 5 17 -2 28 -51 9 -41 127
-160 188 -191 86 -42 221 -28 311 33 85 58 156 193 156 298 0 118 -33 206
-106 284 -78 84 -204 118 -314 85 -30 -9 -71 -19 -90 -22 l-34 -6 57 64 c85
93 121 173 125 274 4 74 1 88 -28 151 -41 92 -77 126 -176 168 -75 33 -91 36
-171 35 -48 0 -109 -7 -134 -15z"/>
<path d="M4680 3003 c0 -8 17 -58 39 -111 59 -147 92 -260 98 -336 8 -87 -5
-86 -62 9 -56 92 -97 132 -164 163 -76 35 -176 36 -241 3 -108 -56 -127 -76
-182 -188 l-51 -105 11 -85 c19 -144 83 -247 186 -301 44 -23 63 -27 141 -27
62 0 107 6 143 19 29 10 55 16 57 14 2 -2 -21 -34 -51 -72 -102 -127 -136
-230 -114 -340 15 -73 22 -87 69 -149 75 -100 228 -151 382 -128 93 15 147 41
208 100 66 64 95 140 95 246 0 66 -4 90 -27 139 -26 57 -122 186 -139 186 -4
0 -8 5 -8 10 0 15 28 12 90 -10 67 -24 149 -25 220 -4 75 22 168 115 199 198
31 84 37 159 17 236 -30 118 -101 211 -194 257 -47 23 -70 28 -132 28 -126 0
-217 -61 -293 -197 -21 -38 -43 -68 -49 -68 -7 0 -9 26 -6 78 6 81 49 226 107
356 17 37 29 72 26 76 -3 5 -65 7 -138 3 -73 -3 -156 -1 -184 4 -44 9 -53 8
-53 -4z"/>
<path d="M1778 3002 c-13 -3 -10 -19 22 -95 60 -148 88 -237 99 -315 16 -120
-4 -137 -48 -39 -34 75 -107 147 -187 184 -46 21 -65 24 -118 20 -166 -13
-299 -147 -327 -330 -25 -158 59 -324 196 -388 57 -27 175 -25 260 2 36 12 68
19 71 16 4 -3 -19 -34 -49 -68 -94 -105 -135 -217 -121 -324 35 -275 408 -400
642 -216 116 92 153 282 82 422 -12 23 -51 73 -86 110 -61 65 -71 89 -40 89 7
0 25 -11 40 -25 25 -23 35 -25 114 -25 111 1 166 13 223 52 92 62 142 170 143
313 0 81 -3 97 -31 156 -41 89 -92 142 -170 181 -56 27 -75 32 -141 31 -46 0
-91 -6 -112 -15 -65 -28 -138 -105 -182 -192 l-42 -81 -8 42 c-11 53 31 219
96 378 24 61 43 112 41 113 -4 5 -346 8 -367 4z"/>
<path d="M6103 2474 c-3 -9 8 -51 25 -93 18 -43 32 -80 32 -84 0 -16 -28 -5
-33 13 -3 10 -27 33 -53 50 -39 25 -56 30 -84 26 -48 -8 -81 -34 -107 -86 -28
-54 -29 -92 -3 -148 22 -48 78 -81 138 -82 17 0 32 -1 32 -2 0 -2 -7 -25 -15
-52 -41 -135 16 -221 145 -220 66 1 114 23 140 67 25 41 25 83 0 149 -11 29
-20 56 -20 61 0 4 22 7 50 7 62 0 96 15 119 54 73 122 -17 275 -147 251 -25
-5 -49 -20 -74 -48 -36 -38 -38 -39 -38 -16 0 13 9 53 20 87 11 35 20 68 20
73 0 5 -32 9 -70 9 -56 0 -72 -3 -77 -16z"/>
<path d="M6095 1631 c-87 -23 -169 -93 -208 -180 -16 -35 -22 -72 -25 -158
l-4 -112 40 -73 c34 -60 50 -79 94 -105 74 -44 101 -53 166 -53 61 0 119 22
176 65 18 14 36 25 39 25 12 0 7 -74 -8 -133 -33 -127 -101 -212 -191 -237
-80 -23 -170 24 -215 112 -20 40 -42 48 -80 28 -25 -14 -24 -33 3 -87 69 -138
244 -192 386 -119 88 45 149 137 194 293 32 110 32 323 1 433 -45 155 -95 230
-184 276 -52 26 -137 38 -184 25z m128 -104 c47 -20 102 -86 122 -147 59 -178
-83 -377 -237 -331 -127 39 -197 214 -138 347 52 118 155 171 253 131z"/>
</g>
</svg>
