<svg version="1.0" xmlns="http://www.w3.org/2000/svg"
 width="691.000000pt" height="1056.000000pt" viewBox="0 0 691.000000 1056.000000"
 preserveAspectRatio="xMidYMid meet">
<g transform="translate(0.000000,1056.000000) scale(0.100000,-0.100000)"
fill="#000000" stroke="none">
<path d="M630 9987 c-98 -28 -162 -87 -217 -202 -46 -98 -65 -197 -66 -340 -1
-140 17 -224 68 -331 63 -131 162 -191 296 -182 304 22 383 497 109 652 -49
27 -64 31 -135 31 -74 0 -85 -3 -149 -38 -38 -21 -72 -35 -77 -30 -13 14 11
125 40 188 36 78 71 119 124 144 96 47 196 15 250 -77 37 -63 60 -74 96 -44
l23 18 -22 52 c-55 127 -205 197 -340 159z m164 -500 c19 -15 48 -49 63 -75
25 -42 28 -57 28 -138 0 -83 -2 -94 -30 -139 -91 -147 -249 -147 -340 0 -25
41 -31 61 -34 127 -3 68 0 85 23 131 46 95 100 130 192 125 48 -3 69 -10 98
-31z"/>
<path d="M1760 8743 c-292 -348 -350 -423 -350 -448 0 -23 19 -53 78 -125 43
-52 199 -243 346 -425 148 -181 272 -331 277 -333 7 -3 695 815 722 859 13 21
30 -2 -358 479 -311 385 -332 410 -351 410 -7 0 -171 -188 -364 -417z"/>
<path d="M4824 9142 c-28 -18 -714 -849 -714 -864 0 -10 28 -52 63 -95 396
-488 629 -773 638 -778 15 -10 36 12 187 195 75 91 226 272 334 403 153 184
198 245 198 266 0 22 -56 97 -241 327 -133 164 -287 356 -343 426 -55 70 -103
127 -106 127 -3 0 -10 -3 -16 -7z"/>
<path d="M602 8735 c-17 -25 -35 -45 -40 -45 -5 0 -24 -21 -42 -47 -18 -27
-50 -66 -71 -88 -21 -22 -51 -61 -67 -85 l-28 -45 40 -51 c23 -28 49 -63 59
-77 10 -14 35 -43 55 -65 21 -22 56 -63 80 -91 24 -28 49 -51 56 -51 13 0 286
324 286 339 0 5 -16 29 -35 53 -20 23 -52 65 -73 91 -20 27 -47 60 -60 73 -12
14 -40 50 -62 80 -23 29 -46 54 -53 54 -7 0 -27 -20 -45 -45z"/>
<path d="M1783 5793 c-382 -454 -403 -480 -403 -498 0 -17 684 -861 708 -874
15 -8 42 20 167 171 83 100 204 245 270 323 166 195 199 235 209 254 5 9 22
31 38 50 60 69 61 66 -69 229 -64 81 -123 154 -132 163 -9 9 -27 31 -41 49
-14 19 -37 48 -51 64 -14 17 -43 54 -64 81 -20 28 -56 71 -79 96 -22 25 -52
61 -66 79 -54 73 -152 180 -165 180 -7 0 -152 -165 -322 -367z"/>
<path d="M4799 6143 c-8 -2 -23 -16 -32 -32 -9 -15 -33 -46 -54 -68 -58 -61
-126 -143 -145 -174 -9 -15 -23 -31 -31 -36 -8 -4 -41 -44 -74 -88 -34 -44
-73 -91 -88 -105 -15 -14 -51 -56 -80 -95 -28 -38 -88 -113 -133 -165 -83 -97
-92 -113 -69 -127 7 -4 24 -23 37 -42 13 -19 48 -62 78 -95 30 -34 68 -81 85
-106 34 -49 48 -66 126 -154 29 -34 74 -90 99 -126 26 -36 54 -71 64 -78 10
-7 25 -25 33 -40 8 -15 35 -49 60 -77 25 -27 59 -69 76 -92 16 -24 38 -43 48
-43 11 0 47 35 89 88 39 48 81 98 94 112 13 14 36 43 51 65 16 22 36 47 45 55
10 8 44 48 77 89 33 40 83 101 112 135 28 33 83 102 121 151 38 50 80 99 92
110 34 31 42 61 26 99 -8 18 -23 40 -33 47 -11 8 -38 40 -61 71 -23 31 -46 60
-52 63 -6 4 -36 41 -67 83 -31 41 -63 83 -72 92 -9 9 -26 30 -38 46 -84 109
-172 217 -207 254 -13 14 -37 43 -52 66 -35 49 -99 124 -105 123 -2 -1 -11 -3
-20 -6z"/>
<path d="M2025 3107 c-22 -29 -96 -119 -165 -202 -69 -82 -208 -248 -308 -368
-117 -140 -182 -225 -182 -240 0 -12 21 -48 48 -81 26 -32 56 -73 67 -91 12
-19 46 -60 76 -92 31 -32 69 -78 85 -103 16 -24 48 -65 72 -90 24 -25 75 -88
115 -140 39 -52 79 -101 89 -108 10 -7 34 -37 54 -67 20 -30 40 -55 45 -55 5
0 15 -11 21 -25 16 -34 48 -32 78 6 40 50 117 142 143 169 13 14 37 45 54 70
18 25 48 62 67 83 20 21 36 41 36 46 0 4 18 25 41 46 22 22 61 68 85 103 25
34 49 62 54 62 5 0 32 34 60 75 28 41 61 82 74 90 33 22 60 77 53 106 -3 13
-62 93 -131 177 -68 83 -142 176 -163 205 -53 72 -61 83 -119 147 -61 67 -198
239 -234 293 -36 54 -65 50 -115 -16z"/>
<path d="M4737 3098 c-26 -29 -66 -78 -89 -109 -24 -31 -156 -192 -295 -357
-138 -165 -258 -311 -268 -325 -22 -34 -12 -51 100 -187 48 -58 106 -130 128
-160 23 -30 66 -84 97 -120 31 -36 75 -90 99 -120 84 -110 137 -176 161 -201
14 -15 39 -45 55 -69 46 -64 58 -67 94 -23 17 21 68 82 113 137 46 54 92 111
103 126 26 37 78 99 140 169 28 31 73 85 100 121 27 36 85 108 128 160 89 105
105 133 90 152 -5 7 -124 155 -265 328 -140 173 -259 324 -265 334 -5 10 -24
35 -42 55 -88 101 -124 141 -130 141 -4 0 -28 -24 -54 -52z"/>
<path d="M6154 2391 c-153 -181 -174 -210 -174 -245 0 -31 36 -94 79 -137 9
-9 48 -56 86 -104 39 -47 78 -91 87 -96 14 -7 37 16 130 129 152 182 161 196
154 218 -10 31 -250 319 -268 322 -11 2 -45 -30 -94 -87z"/>
<path d="M6123 1625 c-70 -23 -125 -68 -171 -140 -56 -90 -67 -261 -23 -361
25 -55 110 -138 169 -165 28 -12 66 -19 105 -19 53 0 72 6 135 40 40 22 76 40
79 40 3 0 3 -33 1 -72 -8 -117 -78 -227 -174 -273 -80 -38 -184 6 -231 98 -21
39 -30 47 -53 47 -65 0 -75 -26 -40 -95 23 -46 59 -85 113 -122 35 -24 48 -27
130 -28 114 0 156 14 220 74 57 53 97 128 129 238 33 113 33 343 0 456 -30
106 -62 165 -114 214 -70 63 -194 94 -275 68z m157 -107 c115 -58 164 -232
101 -355 -79 -156 -263 -163 -345 -13 -73 134 -25 315 98 371 54 25 93 24 146
-3z"/>
</g>
</svg>
