<svg version="1.0" xmlns="http://www.w3.org/2000/svg"
 width="691.000000pt" height="1056.000000pt" viewBox="0 0 691.000000 1056.000000"
 preserveAspectRatio="xMidYMid meet">
<g transform="translate(0.000000,1056.000000) scale(0.100000,-0.100000)"
fill="#000000" stroke="none">
<path d="M622 9970 c-239 -5 -255 -6 -269 -25 -10 -14 -13 -33 -9 -64 3 -24 6
-77 6 -118 0 -68 2 -74 24 -84 17 -8 29 -8 45 0 19 10 21 20 21 89 0 47 5 83
12 90 9 9 69 12 210 12 165 0 200 -2 204 -15 3 -8 -17 -51 -44 -97 -153 -253
-255 -551 -265 -771 -2 -59 8 -77 43 -77 35 0 43 19 56 126 13 105 22 144 69
289 45 141 130 310 237 475 56 84 60 121 18 151 -34 23 -64 25 -358 19z"/>
<path d="M5004 9179 c-110 -14 -219 -88 -284 -190 -18 -27 -35 -49 -39 -49 -3
1 -24 29 -46 63 -94 143 -265 208 -425 161 -145 -43 -215 -151 -227 -349 -4
-73 -1 -108 16 -175 25 -100 79 -221 138 -308 23 -34 45 -72 48 -82 4 -11 10
-20 15 -20 5 0 18 -17 31 -37 12 -21 34 -51 49 -68 14 -16 33 -40 41 -51 24
-36 100 -135 118 -153 9 -10 29 -33 45 -52 94 -109 184 -202 200 -209 23 -8
30 -1 125 110 35 41 67 77 71 80 3 3 13 15 22 28 8 12 31 39 49 60 19 20 69
84 111 142 42 58 84 113 92 123 9 9 16 20 16 24 0 4 9 16 19 27 40 43 143 245
174 342 50 152 39 336 -28 450 -57 97 -193 152 -331 133z"/>
<path d="M1733 9160 c-172 -36 -263 -171 -263 -390 0 -47 7 -112 15 -144 21
-79 83 -227 105 -251 11 -11 26 -36 34 -56 8 -20 22 -41 30 -49 9 -7 16 -17
16 -22 0 -5 23 -37 50 -71 28 -34 50 -67 50 -73 0 -7 7 -14 15 -17 8 -4 27
-25 42 -49 15 -24 40 -56 55 -71 16 -16 28 -32 28 -35 0 -4 21 -30 48 -59 26
-29 70 -78 97 -109 74 -84 115 -124 125 -124 10 0 73 62 124 121 144 167 183
214 196 232 8 12 41 58 75 102 159 210 223 320 277 477 28 81 32 106 33 198 0
137 -28 229 -91 299 -67 75 -118 95 -239 96 -88 0 -107 -3 -158 -27 -78 -37
-124 -74 -172 -142 -22 -30 -45 -56 -52 -56 -7 0 -26 20 -42 44 -93 135 -254
206 -398 176z"/>
<path d="M825 8775 c-5 -2 -23 -6 -38 -9 -16 -4 -48 -25 -72 -47 l-45 -41 -46
41 c-50 44 -91 57 -155 48 -84 -11 -122 -66 -123 -177 0 -53 6 -78 34 -139 49
-106 259 -381 291 -381 11 0 119 110 119 121 0 3 27 39 59 79 70 85 126 193
143 272 23 108 -20 206 -97 223 -16 4 -37 8 -45 10 -8 2 -19 2 -25 0z"/>
<path d="M2977 7600 c-102 -26 -181 -100 -217 -203 -28 -79 -37 -224 -20 -298
33 -142 120 -306 271 -509 161 -218 406 -500 435 -500 32 0 341 375 484 588
147 217 206 356 217 507 13 188 -48 329 -171 392 -40 21 -70 27 -137 31 -170
9 -284 -55 -390 -218 l-16 -24 -35 54 c-75 118 -180 182 -308 186 -41 2 -92
-1 -113 -6z"/>
<path d="M4260 6051 c-66 -12 -121 -38 -158 -74 -95 -90 -136 -290 -96 -456
44 -185 223 -463 521 -808 143 -166 169 -188 194 -171 29 20 271 309 379 453
297 395 371 651 261 901 -26 57 -92 119 -149 139 -182 62 -372 -2 -477 -161
l-38 -57 -21 26 c-12 14 -33 44 -49 67 -70 104 -230 165 -367 141z"/>
<path d="M2473 6035 c-105 -29 -196 -95 -250 -180 -15 -25 -33 -45 -39 -45 -6
0 -25 22 -42 49 -42 65 -102 118 -171 150 -117 54 -319 25 -394 -58 -41 -46
-75 -130 -90 -224 -18 -113 14 -301 64 -378 9 -13 32 -56 52 -95 20 -39 47
-84 60 -100 13 -16 30 -40 37 -53 15 -29 73 -108 104 -141 13 -14 32 -38 42
-55 10 -16 26 -37 34 -46 8 -9 24 -27 34 -40 51 -63 127 -150 181 -207 33 -35
64 -70 68 -78 21 -37 85 8 165 116 14 19 33 42 42 50 9 8 36 40 60 70 25 30
47 57 50 60 3 3 17 21 32 42 15 20 34 43 42 50 7 8 21 28 30 45 9 18 22 36 30
40 15 9 158 238 201 324 123 241 110 514 -30 637 -75 66 -212 95 -312 67z"/>
<path d="M4629 2842 c-200 -214 -434 -530 -528 -714 -106 -209 -120 -408 -42
-582 39 -86 150 -156 247 -156 63 0 165 20 212 40 48 21 148 121 178 175 10
19 21 35 24 35 4 0 16 -17 27 -37 35 -62 93 -123 152 -161 52 -33 63 -36 148
-40 145 -7 171 0 249 66 63 53 70 63 93 132 32 99 39 242 17 329 -38 149 -133
318 -303 543 -155 205 -364 438 -394 438 -8 0 -45 -31 -80 -68z"/>
<path d="M2124 2836 c-66 -68 -299 -362 -401 -504 -71 -100 -162 -269 -192
-358 -65 -196 -39 -389 69 -506 41 -45 60 -57 122 -76 73 -24 74 -24 168 -8
56 10 111 26 135 41 40 23 108 91 152 150 l21 30 89 -88 c78 -77 97 -90 152
-107 43 -14 92 -20 156 -20 127 0 174 22 244 115 58 77 75 148 68 295 -7 172
-50 279 -196 497 -143 211 -467 596 -506 600 -13 2 -41 -19 -81 -61z"/>
<path d="M6151 2478 c-22 -24 -67 -77 -100 -118 -196 -245 -230 -423 -98 -507
23 -15 47 -33 53 -40 17 -20 116 29 167 81 l38 39 17 -24 c70 -100 195 -112
262 -24 84 109 34 264 -158 499 -85 102 -118 136 -132 136 -5 0 -26 -19 -49
-42z"/>
<path d="M6244 1638 c-5 -7 -14 -64 -20 -126 -7 -62 -22 -145 -34 -185 -31
-100 -68 -205 -85 -236 -7 -14 -25 -51 -40 -81 -44 -94 -109 -205 -142 -246
-18 -21 -33 -44 -33 -50 0 -7 -5 -14 -11 -16 -8 -3 -10 -16 -5 -41 12 -64 26
-67 338 -66 150 1 284 4 298 8 25 7 25 7 28 149 l3 142 -29 0 c-49 0 -59 -17
-65 -104 -3 -52 -9 -81 -18 -87 -8 -5 -102 -9 -210 -9 -215 0 -228 4 -188 53
10 14 19 30 19 35 0 5 7 15 15 22 8 6 26 35 40 63 13 29 33 66 43 82 10 17 25
48 32 70 7 22 24 62 38 90 36 71 63 168 102 358 14 66 13 160 -2 175 -16 16
-65 15 -74 0z"/>
</g>
</svg>
