<svg version="1.0" xmlns="http://www.w3.org/2000/svg"
 width="691.000000pt" height="1056.000000pt" viewBox="0 0 691.000000 1056.000000"
 preserveAspectRatio="xMidYMid meet">
<g transform="translate(0.000000,1056.000000) scale(0.100000,-0.100000)"
fill="#000000" stroke="none">
<path d="M383 9973 l-53 -4 0 -124 c0 -68 -3 -130 -6 -139 -5 -13 2 -16 39
-16 l45 0 7 95 7 95 62 0 c35 0 131 -3 214 -7 l151 -6 -90 -178 c-150 -300
-199 -438 -218 -613 -15 -129 -10 -146 39 -146 39 0 39 0 45 48 35 290 125
534 289 782 83 127 91 156 51 195 l-24 25 -253 -2 c-139 -1 -277 -3 -305 -5z"/>
<path d="M1919 9068 c-444 -567 -461 -594 -475 -730 -7 -75 14 -187 48 -255
48 -96 155 -158 273 -157 102 1 175 50 254 170 26 40 51 71 55 67 12 -12 6
-133 -10 -210 -8 -42 -29 -113 -45 -157 -16 -44 -29 -83 -29 -88 0 -4 63 -8
140 -8 77 0 140 4 140 9 0 5 -18 74 -39 154 -47 174 -58 246 -41 277 11 21 14
19 54 -41 54 -80 121 -142 172 -160 58 -20 152 -15 210 10 188 83 251 350 134
570 -28 52 -548 721 -609 784 l-27 27 -205 -262z"/>
<path d="M4488 9003 c-408 -525 -402 -516 -417 -637 -28 -239 83 -416 277
-442 105 -14 198 40 281 162 29 43 57 81 62 82 14 6 10 -109 -6 -197 -9 -45
-31 -124 -49 -176 l-33 -95 128 0 c70 0 135 -3 145 -7 21 -8 20 -5 -30 167
-39 132 -54 239 -39 279 9 22 13 19 65 -56 65 -92 124 -137 204 -153 109 -23
223 26 291 124 89 129 85 340 -10 496 -34 57 -561 732 -595 763 -19 17 -27 8
-274 -310z"/>
<path d="M494 8639 c-173 -223 -178 -231 -178 -292 -2 -103 68 -178 151 -162
35 6 84 45 95 75 4 11 9 12 17 5 8 -8 7 -32 -4 -89 -8 -43 -15 -80 -15 -82 0
-2 23 -4 51 -4 l51 0 -7 38 c-4 20 -10 60 -14 89 l-8 52 38 -34 c53 -47 104
-62 152 -42 68 29 99 112 73 201 -12 40 -43 87 -139 207 -68 84 -131 160 -139
167 -13 10 -31 -9 -124 -129z"/>
<path d="M3317 7568 c-268 -338 -454 -576 -484 -622 -54 -79 -76 -170 -71
-285 8 -155 64 -253 176 -308 45 -22 71 -28 122 -28 113 0 205 62 287 191 16
24 33 42 38 41 26 -9 -5 -215 -55 -362 -16 -49 -27 -91 -24 -94 7 -7 284 -15
284 -8 0 3 -18 59 -40 125 -40 120 -74 322 -56 339 8 9 17 -2 85 -96 94 -131
223 -171 361 -110 163 72 230 282 159 497 -28 83 -44 106 -329 468 -302 383
-311 394 -327 394 -7 0 -64 -64 -126 -142z"/>
<path d="M4718 6082 c-34 -36 -415 -518 -531 -673 -98 -130 -139 -270 -118
-395 23 -128 81 -218 173 -265 53 -27 153 -36 213 -19 54 15 134 83 170 144
14 23 37 53 51 67 l27 24 -7 -93 c-7 -95 -39 -235 -76 -329 l-20 -53 146 0
c135 0 146 1 141 18 -2 9 -21 71 -42 137 -38 125 -54 242 -38 284 9 24 11 22
51 -36 57 -84 98 -122 161 -151 72 -33 176 -28 244 11 105 62 157 163 165 317
4 83 1 105 -20 166 -14 39 -41 95 -61 125 -29 43 -558 722 -586 751 -4 5 -23
-9 -43 -30z"/>
<path d="M1920 5854 c-438 -551 -449 -568 -470 -697 -12 -77 -1 -166 30 -250
43 -114 132 -178 260 -185 121 -7 184 29 271 156 29 42 54 79 56 82 2 2 8 -2
13 -10 25 -41 -30 -305 -94 -450 -5 -13 14 -15 144 -15 129 0 149 2 144 15
-18 47 -74 244 -84 297 -12 59 -7 154 8 153 4 -1 30 -33 57 -73 82 -117 156
-160 272 -159 101 1 194 64 242 166 52 109 63 214 36 321 -28 105 -19 92 -414
595 -178 227 -248 310 -261 310 -4 0 -98 -115 -210 -256z"/>
<path d="M1990 2892 c0 -5 9 -35 21 -68 54 -157 88 -371 60 -388 -5 -3 -28 24
-51 60 -98 150 -215 201 -360 158 -41 -12 -67 -29 -110 -72 -121 -121 -140
-309 -52 -496 28 -59 544 -728 609 -789 l29 -27 287 364 c158 201 300 386 317
413 112 181 100 409 -27 537 -56 57 -114 80 -199 81 -95 0 -170 -37 -230 -115
-24 -30 -57 -71 -73 -90 l-30 -35 -1 46 c0 72 27 211 64 325 l34 104 -144 0
c-79 0 -144 -4 -144 -8z"/>
<path d="M4631 2810 c57 -176 80 -314 60 -363 -5 -15 -16 -5 -56 54 -28 39
-67 87 -89 105 -138 119 -362 63 -446 -112 -56 -114 -48 -277 19 -408 41 -81
604 -806 626 -806 12 0 215 252 529 657 131 169 163 256 153 408 -7 112 -31
169 -97 236 -66 67 -138 94 -228 87 -101 -8 -171 -58 -249 -178 -21 -33 -41
-60 -45 -60 -13 0 -9 128 7 204 8 40 29 112 45 161 17 49 30 92 30 97 0 4 -65
8 -144 8 l-144 0 29 -90z"/>
<path d="M6198 2495 c-2 -3 2 -39 9 -81 8 -42 12 -78 9 -81 -3 -3 -24 11 -46
31 -32 29 -48 36 -81 36 -88 0 -129 -48 -129 -153 0 -54 5 -71 31 -113 28 -44
248 -334 254 -334 9 0 275 358 285 385 26 68 -6 172 -63 201 -45 24 -107 14
-153 -24 -21 -17 -40 -29 -42 -27 -4 4 13 109 24 148 5 14 -2 17 -44 17 -27 0
-51 -2 -54 -5z"/>
<path d="M6230 1573 c-32 -263 -133 -519 -307 -778 -58 -88 -63 -109 -32 -149
l20 -26 294 0 c161 0 300 3 309 6 14 5 16 28 16 145 l0 139 -39 0 -38 0 -7
-52 c-3 -29 -6 -72 -6 -95 l0 -43 -221 0 c-121 0 -218 3 -216 8 2 4 30 51 62
105 155 267 247 526 262 745 l6 92 -45 0 -46 0 -12 -97z"/>
</g>
</svg>
