<svg version="1.0" xmlns="http://www.w3.org/2000/svg"
 width="691.000000pt" height="1056.000000pt" viewBox="0 0 691.000000 1056.000000"
 preserveAspectRatio="xMidYMid meet">
<g transform="translate(0.000000,1056.000000) scale(0.100000,-0.100000)"
fill="#000000" stroke="none">
<path d="M601 10003 c-66 -13 -147 -85 -181 -161 -48 -105 -35 -213 35 -301
19 -24 35 -48 35 -53 0 -5 -18 -30 -39 -56 -94 -111 -112 -234 -53 -355 59
-119 150 -174 292 -178 106 -2 168 21 239 92 76 76 94 118 94 218 1 74 -3 93
-26 138 -15 28 -49 74 -77 101 -48 47 -49 50 -31 66 10 9 33 45 51 78 103 193
-43 423 -264 417 -28 -1 -62 -4 -75 -6z m162 -107 c44 -18 94 -77 107 -128 38
-139 -101 -271 -241 -229 -49 15 -108 65 -125 108 -29 68 -9 168 43 215 50 45
152 61 216 34z m53 -492 c149 -91 147 -293 -3 -381 -63 -37 -165 -40 -228 -6
-145 77 -169 261 -47 364 54 45 96 59 168 56 48 -2 73 -9 110 -33z"/>
<path d="M1941 9158 c-13 -4 -26 -6 -31 -3 -14 9 -125 -37 -170 -70 -67 -49
-94 -83 -120 -148 -19 -48 -22 -71 -18 -140 6 -101 40 -176 123 -265 30 -33
55 -62 55 -66 0 -11 -30 -6 -93 15 -84 29 -191 23 -262 -13 -111 -58 -176
-166 -183 -306 -3 -53 0 -99 8 -125 27 -85 106 -201 144 -213 12 -3 28 -12 36
-18 23 -18 78 -34 143 -42 81 -9 168 27 224 94 52 62 99 132 107 160 11 33 28
22 31 -18 6 -69 -48 -241 -135 -435 -23 -51 -11 -60 67 -46 56 10 174 8 261
-4 37 -5 42 -4 42 13 0 11 -9 41 -21 67 -72 163 -111 298 -107 373 l3 57 61
-85 c96 -135 155 -170 285 -170 99 0 186 43 248 122 62 80 82 142 83 248 1 99
-21 166 -80 251 -35 50 -43 56 -117 81 -98 34 -179 36 -260 8 -32 -11 -62 -20
-67 -20 -4 0 19 34 52 76 72 90 82 109 104 194 39 146 -27 305 -157 378 -83
46 -204 70 -256 50z"/>
<path d="M4780 9144 c-105 -28 -190 -99 -233 -193 -17 -36 -21 -66 -22 -141 0
-83 3 -102 27 -150 15 -30 54 -87 87 -125 33 -39 55 -71 50 -73 -5 -2 -34 6
-64 17 -73 28 -186 28 -255 2 -80 -30 -125 -73 -167 -159 -36 -73 -38 -80 -38
-177 0 -93 2 -105 32 -165 68 -139 153 -200 285 -208 72 -4 83 -2 143 27 72
36 128 93 171 176 27 50 46 67 57 48 3 -5 1 -37 -4 -73 -10 -74 -51 -201 -108
-340 -22 -52 -39 -95 -38 -96 1 -1 43 3 93 9 60 7 126 7 192 1 71 -6 102 -6
102 1 0 6 -20 61 -45 123 -62 154 -87 249 -83 319 l3 58 57 -81 c98 -141 163
-179 289 -172 98 6 171 40 233 109 63 71 89 141 94 262 4 91 2 101 -26 162
-36 76 -99 142 -167 175 -41 20 -65 25 -130 24 -51 -1 -94 -7 -119 -17 -38
-17 -76 -22 -76 -12 0 3 23 34 52 68 28 34 65 90 81 125 27 59 29 69 25 160
-5 111 -23 157 -88 222 -95 95 -262 134 -410 94z"/>
<path d="M600 8754 c-72 -38 -94 -102 -66 -197 20 -70 21 -67 -14 -67 -44 0
-108 -29 -129 -59 -10 -14 -21 -49 -25 -78 -13 -99 58 -183 154 -183 35 0 47
6 85 45 41 40 45 42 45 21 0 -12 -8 -47 -18 -77 -11 -30 -21 -61 -23 -69 -3
-12 10 -16 74 -18 72 -3 77 -1 77 18 0 11 -5 20 -11 20 -16 0 -39 65 -39 111
l0 41 55 -47 c53 -45 58 -47 98 -41 91 15 137 70 137 163 0 88 -50 140 -144
150 l-55 6 20 39 c11 22 23 60 26 86 5 43 2 51 -28 88 -19 23 -48 46 -65 53
-40 15 -123 12 -154 -5z"/>
<path d="M3303 7586 c-108 -35 -183 -107 -224 -214 -17 -46 -20 -73 -17 -137
5 -94 36 -162 118 -258 28 -32 50 -63 50 -67 0 -5 -26 1 -57 12 -86 31 -211
30 -278 -2 -68 -33 -121 -90 -158 -168 -29 -61 -32 -76 -32 -167 0 -94 2 -105
34 -169 40 -82 97 -143 166 -177 75 -36 189 -35 267 4 66 32 124 93 165 174
39 76 53 79 53 10 0 -66 -34 -188 -95 -339 -25 -62 -45 -115 -45 -118 0 -3 85
-5 190 -5 104 0 190 3 190 7 0 4 -14 42 -31 85 -85 211 -119 345 -102 391 9
22 13 18 61 -56 88 -135 153 -177 277 -177 66 0 90 5 136 26 117 55 187 154
209 296 21 133 -18 243 -118 334 -83 76 -184 97 -302 63 -94 -26 -100 -27
-100 -14 0 7 21 36 48 64 80 89 106 146 110 251 3 74 0 100 -18 147 -29 79
-94 148 -172 184 -55 25 -77 29 -173 31 -73 2 -124 -2 -152 -11z"/>
<path d="M1848 6071 c-160 -51 -257 -196 -246 -366 6 -86 43 -163 120 -249 28
-31 48 -60 45 -63 -4 -3 -38 4 -77 17 -96 31 -207 26 -273 -13 -64 -38 -132
-118 -157 -185 -18 -47 -21 -73 -18 -153 3 -83 8 -104 35 -160 44 -89 86 -135
146 -163 125 -59 246 -56 326 7 49 39 109 116 135 175 10 23 23 42 28 42 4 0
8 -34 8 -74 0 -85 -30 -195 -86 -313 -19 -39 -37 -85 -40 -101 l-6 -29 169 1
c92 1 178 -3 190 -7 27 -11 35 16 16 53 -37 73 -104 245 -118 301 -16 71 -20
179 -6 179 5 0 17 -22 27 -49 38 -106 122 -185 231 -217 75 -22 137 -15 218
22 57 26 79 43 118 94 73 92 81 118 82 245 0 98 -3 116 -26 166 -60 127 -167
199 -294 199 -46 0 -93 -8 -137 -24 -38 -12 -68 -19 -68 -15 0 4 23 34 50 66
28 32 67 90 87 130 35 70 35 74 31 165 -5 105 -25 156 -87 221 -95 101 -280
143 -423 98z"/>
<path d="M4753 6070 c-130 -46 -218 -159 -230 -291 -8 -83 15 -207 43 -239 12
-14 48 -53 80 -87 49 -54 54 -63 35 -63 -12 0 -45 10 -72 21 -41 18 -63 21
-133 17 -141 -7 -221 -60 -284 -188 -25 -50 -27 -65 -27 -170 0 -107 2 -119
29 -175 36 -73 104 -143 171 -175 38 -18 67 -24 125 -24 127 -1 214 55 298
193 54 91 67 92 59 5 -8 -86 -25 -144 -89 -307 -27 -71 -48 -130 -46 -132 6
-7 378 -10 378 -3 0 3 -15 42 -34 86 -63 148 -106 296 -106 367 0 38 4 64 9
61 5 -4 30 -42 55 -85 42 -74 97 -131 153 -160 48 -24 121 -33 180 -21 123 26
199 88 257 209 28 60 31 75 31 166 0 87 -3 107 -26 155 -55 117 -166 190 -298
198 -61 3 -87 0 -131 -17 -30 -12 -58 -21 -62 -21 -19 0 -5 26 31 59 22 20 59
72 83 116 42 78 43 82 43 175 0 84 -3 102 -28 152 -44 90 -128 154 -242 184
-73 20 -190 17 -252 -6z"/>
<path d="M3250 4565 c0 -16 55 -186 92 -283 41 -110 60 -223 39 -236 -6 -4
-14 1 -18 11 -16 44 -89 146 -129 182 -57 50 -119 71 -208 71 -127 0 -223 -66
-288 -198 -31 -62 -33 -73 -33 -172 0 -100 2 -108 36 -180 45 -92 66 -115 138
-148 47 -22 71 -26 146 -27 61 0 107 6 144 18 29 10 55 16 57 14 3 -3 -18 -31
-45 -63 -95 -110 -138 -226 -124 -332 3 -26 21 -77 40 -113 53 -102 143 -160
279 -179 136 -18 267 24 363 118 42 41 51 56 66 120 34 144 11 235 -99 378
l-54 71 61 -19 c68 -21 197 -21 269 1 57 18 130 96 163 177 26 60 30 82 30
169 0 88 -3 107 -27 157 -34 72 -93 137 -160 173 -44 24 -68 30 -140 33 -80 4
-93 2 -143 -22 -65 -32 -120 -92 -160 -175 -38 -76 -55 -79 -55 -8 0 75 31
187 90 327 27 66 50 125 50 131 0 7 -16 8 -47 3 -60 -10 -223 -10 -285 0 -27
4 -48 4 -48 1z"/>
<path d="M2090 3008 c-36 -5 -118 -6 -182 -3 -109 5 -118 4 -118 -12 1 -10 7
-29 15 -43 8 -14 14 -38 15 -53 0 -16 20 -70 45 -120 43 -88 65 -174 65 -254
0 -46 -22 -42 -44 7 -36 81 -99 153 -167 190 -58 31 -72 35 -144 35 -68 0 -89
-4 -137 -28 -139 -68 -224 -242 -197 -405 19 -121 86 -219 184 -270 43 -23 62
-26 140 -26 82 0 111 6 188 39 26 11 22 -20 -6 -42 -34 -27 -93 -111 -124
-179 -34 -74 -38 -175 -10 -243 56 -137 131 -197 281 -227 111 -22 178 -11
291 46 127 64 180 159 174 309 -5 95 -42 176 -125 269 -59 65 -56 73 17 46 28
-11 77 -17 134 -17 74 -1 98 3 136 21 75 37 125 87 161 160 31 63 33 73 33
172 0 97 -2 110 -31 170 -42 90 -84 134 -162 172 -59 29 -76 33 -147 33 -64 0
-89 -5 -123 -23 -70 -37 -131 -101 -168 -173 -18 -37 -38 -70 -43 -73 -5 -3
-11 8 -15 24 -9 50 49 271 99 378 45 94 52 117 38 125 -5 2 -37 -1 -73 -5z"/>
<path d="M5020 3010 c-19 -5 -97 -7 -172 -4 -161 5 -158 9 -107 -103 47 -103
78 -199 94 -292 18 -103 18 -111 1 -111 -8 0 -30 29 -50 63 -42 77 -100 138
-158 169 -35 19 -59 23 -128 23 -78 0 -91 -3 -156 -37 -59 -31 -78 -47 -109
-94 -110 -165 -110 -330 -2 -478 71 -95 125 -121 253 -120 75 1 100 5 147 27
31 14 57 21 57 16 0 -6 -33 -52 -73 -102 -64 -80 -76 -102 -90 -162 -21 -87
-16 -154 16 -227 82 -184 291 -257 520 -182 64 21 145 97 182 171 27 51 30 67
29 143 -1 109 -29 183 -94 255 -58 64 -81 101 -57 92 53 -20 112 -30 187 -31
74 -1 92 3 141 27 31 15 68 40 82 55 40 43 86 141 98 209 26 148 -47 320 -167
394 -43 26 -140 56 -174 52 -126 -12 -125 -11 -198 -87 -38 -39 -84 -96 -103
-126 l-34 -55 -3 44 c-6 80 53 284 120 414 15 30 17 42 7 53 -6 8 -14 14 -18
13 -3 -1 -22 -5 -41 -9z"/>
<path d="M6140 2477 c0 -8 9 -40 20 -72 32 -94 25 -118 -21 -69 -59 63 -128
72 -184 23 -63 -56 -78 -108 -54 -192 13 -47 70 -87 134 -95 50 -5 51 -7 30
-48 -8 -16 -15 -51 -15 -79 0 -95 56 -145 161 -145 74 0 115 23 145 81 30 60
30 68 -1 129 -14 27 -25 51 -25 54 0 2 21 7 48 11 80 11 90 16 116 54 34 48
36 139 6 189 -45 73 -141 95 -200 45 -17 -14 -36 -37 -41 -50 -10 -26 -29 -31
-29 -8 0 9 9 44 19 78 37 120 42 107 -38 107 -53 0 -71 -3 -71 -13z"/>
<path d="M6073 1652 c-85 -30 -147 -80 -185 -147 -31 -56 -33 -66 -33 -150 0
-79 4 -96 28 -143 16 -30 49 -74 73 -99 l46 -45 -25 -27 c-14 -14 -37 -51 -52
-81 -24 -48 -27 -62 -23 -125 9 -128 91 -239 197 -265 76 -18 190 -9 229 18
16 12 35 22 40 22 18 0 84 99 98 147 29 95 8 207 -52 272 -19 21 -34 43 -34
48 0 5 16 26 35 47 61 67 88 135 88 226 0 138 -64 236 -190 292 -67 30 -172
34 -240 10z m202 -97 c41 -16 93 -61 110 -95 60 -116 19 -246 -97 -304 -159
-79 -341 24 -341 194 0 163 170 269 328 205z m9 -543 c102 -60 128 -203 53
-289 -60 -69 -145 -89 -222 -54 -76 35 -115 95 -115 177 0 142 163 237 284
166z"/>
</g>
</svg>
