<svg version="1.0" xmlns="http://www.w3.org/2000/svg"
 width="691.000000pt" height="1056.000000pt" viewBox="0 0 691.000000 1056.000000"
 preserveAspectRatio="xMidYMid meet">
<g transform="translate(0.000000,1056.000000) scale(0.100000,-0.100000)"
fill="#000000" stroke="none">
<path d="M713 10070 c-172 -34 -277 -199 -229 -361 8 -30 29 -74 46 -99 16
-25 30 -51 30 -58 0 -7 -17 -31 -39 -55 -67 -74 -86 -120 -86 -217 0 -69 4
-94 23 -132 32 -65 94 -125 160 -156 49 -23 70 -27 147 -27 108 0 159 20 234
90 67 63 95 128 95 225 0 87 -24 143 -93 222 -23 25 -41 49 -41 52 0 3 15 26
34 50 97 127 83 295 -32 397 -64 56 -167 85 -249 69z m149 -117 c17 -10 45
-35 62 -56 28 -35 31 -45 31 -111 0 -64 -3 -77 -28 -109 -87 -115 -275 -100
-336 25 -25 53 -27 117 -5 164 20 41 77 91 119 104 41 13 121 4 157 -17z m-19
-486 c78 -33 137 -113 137 -187 0 -77 -67 -164 -145 -190 -61 -20 -148 -9
-197 26 -66 46 -89 95 -86 176 3 57 8 72 34 105 61 74 172 105 257 70z"/>
<path d="M1762 9199 c-135 -23 -219 -112 -257 -270 -33 -143 -10 -282 77 -456
90 -183 203 -346 440 -635 101 -123 134 -158 153 -158 17 0 60 39 169 158 346
375 508 610 563 814 25 95 22 247 -7 322 -48 124 -149 195 -292 204 -138 8
-263 -49 -346 -158 -51 -67 -56 -68 -95 -8 -92 145 -243 215 -405 187z"/>
<path d="M4404 9100 c-111 -44 -174 -135 -201 -289 -33 -188 32 -377 232 -676
90 -135 317 -428 393 -507 20 -21 42 -38 48 -38 17 0 248 245 369 390 299 360
405 587 375 805 -21 147 -80 239 -185 287 -41 19 -67 23 -150 23 -88 0 -107
-3 -157 -27 -78 -36 -123 -72 -170 -135 -21 -29 -43 -53 -48 -53 -5 0 -25 24
-43 53 -48 73 -102 121 -172 154 -81 37 -214 43 -291 13z"/>
<path d="M524 8846 c-63 -28 -100 -109 -91 -199 2 -29 21 -82 46 -133 60 -121
239 -354 272 -354 14 0 138 130 215 227 29 36 69 99 90 139 32 62 37 83 37
141 1 75 -16 118 -59 152 -60 47 -159 36 -227 -25 l-39 -36 -37 36 c-63 61
-140 81 -207 52z"/>
<path d="M3043 7596 c-111 -36 -191 -123 -227 -245 -21 -70 -21 -224 -1 -305
23 -88 121 -282 210 -416 144 -214 415 -552 449 -558 20 -4 73 47 246 239 264
292 431 541 486 724 25 82 25 260 0 329 -55 152 -178 226 -353 213 -112 -8
-179 -44 -268 -140 -42 -46 -78 -77 -84 -73 -6 4 -21 25 -32 48 -72 141 -281
232 -426 184z"/>
<path d="M1622 6066 c-144 -47 -228 -194 -226 -396 2 -196 105 -404 374 -759
143 -189 289 -361 305 -361 7 0 75 64 151 143 333 344 547 654 590 857 40 188
-17 389 -129 454 -102 60 -234 70 -352 26 -49 -19 -75 -38 -142 -106 -44 -46
-84 -84 -87 -84 -3 0 -16 19 -30 43 -38 64 -114 133 -181 164 -48 22 -76 28
-145 30 -52 2 -102 -3 -128 -11z"/>
<path d="M4321 5982 c-65 -24 -97 -47 -138 -100 -75 -99 -104 -275 -68 -425
44 -186 200 -442 489 -802 126 -156 165 -196 185 -186 9 5 83 81 163 168 461
499 615 783 568 1049 -36 210 -194 321 -401 284 -110 -20 -194 -74 -265 -171
-41 -56 -51 -54 -84 11 -27 52 -112 128 -178 157 -79 35 -196 41 -271 15z"/>
<path d="M3306 4343 c-482 -502 -666 -821 -626 -1090 27 -186 112 -278 278
-303 163 -26 281 31 416 200 18 23 20 23 30 6 35 -60 108 -144 150 -173 71
-48 143 -67 239 -60 170 11 262 100 301 290 20 95 20 138 1 232 -34 161 -143
360 -345 630 -155 207 -300 375 -322 375 -11 0 -61 -44 -122 -107z"/>
<path d="M1942 2863 c-223 -237 -403 -452 -495 -590 -60 -90 -141 -261 -158
-333 -20 -84 -16 -203 9 -287 29 -94 72 -150 147 -188 55 -28 65 -30 174 -30
111 0 119 1 177 32 55 28 174 140 174 163 0 4 6 10 14 13 9 4 28 -16 54 -56
100 -155 273 -220 444 -167 114 35 184 120 213 257 29 136 12 271 -53 413 -73
162 -235 403 -437 650 -132 162 -159 190 -181 190 -10 0 -47 -30 -82 -67z"/>
<path d="M4684 2818 c-124 -109 -431 -472 -541 -640 -128 -195 -168 -316 -161
-490 4 -95 8 -113 37 -172 60 -122 148 -171 306 -171 80 0 97 4 156 31 66 32
129 85 183 157 l28 39 43 -64 c50 -75 96 -118 168 -156 47 -24 62 -27 157 -27
116 0 176 19 233 73 96 91 137 304 93 481 -25 97 -111 266 -218 427 -120 179
-414 544 -439 544 -4 0 -25 -15 -45 -32z"/>
<path d="M6113 2393 c-22 -8 -184 -195 -235 -272 -28 -40 -59 -94 -71 -119
-26 -59 -28 -163 -4 -209 50 -95 171 -108 266 -27 l42 37 37 -36 c74 -70 150
-86 213 -44 87 57 103 191 39 317 -67 132 -240 363 -269 359 -3 0 -12 -3 -18
-6z"/>
<path d="M6010 1584 c-103 -37 -175 -115 -206 -223 -28 -95 -4 -186 77 -283
41 -49 49 -87 23 -109 -8 -7 -27 -35 -41 -62 -97 -193 42 -410 262 -411 158 0
272 103 283 255 6 86 -11 148 -55 206 -18 24 -33 46 -33 49 0 3 20 29 45 58
65 77 89 136 90 221 0 118 -62 223 -167 280 -45 25 -66 30 -143 32 -64 2 -103
-1 -135 -13z m198 -110 c214 -89 150 -388 -83 -388 -93 0 -167 51 -200 138
-60 157 122 318 283 250z m29 -540 c21 -17 48 -50 61 -74 68 -133 -43 -283
-199 -268 -177 17 -231 253 -80 350 41 26 53 29 113 26 56 -3 73 -8 105 -34z"/>
</g>
</svg>
