<svg version="1.0" xmlns="http://www.w3.org/2000/svg"
 width="691.000000pt" height="1056.000000pt" viewBox="0 0 691.000000 1056.000000"
 preserveAspectRatio="xMidYMid meet">
<g transform="translate(0.000000,1056.000000) scale(0.100000,-0.100000)"
fill="#000000" stroke="none">
<path d="M435 9889 c-76 -38 -139 -99 -173 -169 -24 -48 -27 -67 -27 -150 0
-87 3 -101 34 -168 51 -108 133 -170 241 -179 66 -6 115 7 180 47 66 42 75 42
72 0 -11 -150 -61 -246 -162 -313 -56 -38 -165 -13 -226 50 -23 25 -50 43 -62
43 -29 0 -62 -29 -55 -49 11 -30 88 -103 138 -129 72 -38 178 -38 251 0 57 30
151 129 161 168 3 14 9 30 13 35 23 32 50 196 50 305 0 133 -23 248 -66 337
-59 120 -141 184 -254 196 -48 6 -62 3 -115 -24z m180 -100 c77 -46 114 -120
115 -227 0 -87 -23 -145 -81 -196 -45 -42 -73 -50 -139 -44 -99 10 -170 98
-178 223 -3 44 0 87 8 111 45 136 170 197 275 133z"/>
<path d="M4669 9187 c-8 -7 -30 -34 -49 -62 -30 -45 -127 -171 -490 -640 -64
-82 -119 -159 -123 -169 -5 -11 -1 -28 8 -42 14 -22 207 -249 435 -514 59 -69
140 -164 180 -212 40 -48 82 -90 93 -94 25 -8 9 -28 282 333 117 155 257 339
309 408 53 70 96 134 96 144 0 9 -126 164 -279 344 -154 180 -314 370 -357
422 -42 52 -79 95 -83 95 -3 0 -13 -6 -22 -13z"/>
<path d="M1964 9073 c-21 -27 -41 -50 -44 -53 -3 -3 -14 -18 -24 -33 -9 -16
-141 -189 -292 -384 -172 -222 -274 -363 -274 -377 0 -14 27 -52 73 -101 39
-43 78 -87 86 -99 8 -12 31 -39 50 -61 20 -22 50 -56 66 -76 327 -382 439
-509 450 -509 8 0 36 27 62 59 66 82 246 315 341 441 43 58 124 165 180 239
56 73 102 141 102 150 0 9 -60 87 -132 172 -215 252 -485 570 -530 626 -24 28
-50 52 -59 52 -9 1 -34 -20 -55 -46z"/>
<path d="M558 8667 c-36 -27 -248 -313 -248 -333 0 -24 21 -54 94 -135 28 -30
80 -90 114 -132 35 -42 67 -77 70 -77 11 0 45 41 82 95 19 28 59 82 90 120 78
97 90 116 90 143 0 16 -41 71 -121 165 -141 165 -149 172 -171 154z"/>
<path d="M4705 7162 c-51 -57 -629 -808 -643 -835 -12 -24 -12 -31 5 -57 10
-16 170 -207 357 -425 244 -286 343 -395 356 -393 10 2 142 166 301 373 155
204 300 390 322 415 69 79 70 117 8 179 -20 20 -175 199 -344 398 -169 198
-314 364 -323 367 -8 3 -24 -6 -39 -22z"/>
<path d="M2025 7093 c-16 -19 -34 -43 -39 -52 -5 -9 -14 -20 -20 -26 -6 -5
-34 -41 -61 -80 -27 -38 -90 -122 -140 -185 -231 -293 -385 -500 -385 -518 0
-10 70 -102 155 -203 86 -101 182 -215 215 -254 32 -38 84 -99 115 -135 30
-36 95 -111 142 -167 47 -57 89 -103 92 -103 18 1 151 160 151 181 0 4 9 11
20 14 11 3 20 13 20 21 0 8 73 110 163 227 310 402 338 441 335 459 -4 21
-708 857 -723 857 -5 0 -23 -16 -40 -36z"/>
<path d="M3398 6133 c-14 -16 -94 -118 -179 -228 -84 -110 -224 -291 -310
-402 -87 -111 -160 -212 -164 -223 -4 -13 0 -31 10 -47 10 -14 139 -168 289
-342 149 -174 298 -349 331 -389 72 -86 98 -97 133 -56 90 107 642 842 642
855 0 8 -30 51 -67 95 -222 262 -654 764 -656 764 -2 0 -15 -12 -29 -27z"/>
<path d="M4753 5158 c-25 -27 -377 -479 -601 -771 -29 -38 -52 -77 -52 -87 0
-10 57 -85 128 -167 70 -82 142 -168 161 -193 19 -25 60 -72 91 -105 31 -33
65 -73 75 -90 11 -16 35 -46 54 -65 20 -19 55 -60 80 -90 69 -86 124 -140 142
-140 10 0 28 15 41 33 12 17 161 214 330 436 170 222 308 409 308 417 0 15
-108 146 -359 438 -80 93 -176 205 -212 250 -37 45 -87 100 -111 124 l-44 42
-31 -32z"/>
<path d="M2043 5048 c-28 -40 -127 -170 -220 -288 -92 -118 -201 -258 -241
-310 -40 -52 -88 -114 -107 -138 -62 -77 -53 -100 105 -277 34 -38 74 -86 88
-105 15 -19 44 -55 67 -80 22 -25 49 -58 60 -72 26 -34 98 -118 160 -189 28
-32 66 -76 85 -99 85 -99 106 -118 123 -109 15 9 204 243 257 319 14 19 114
151 222 294 109 142 198 265 198 272 0 8 -26 44 -57 81 -224 264 -351 414
-443 519 -58 67 -128 151 -155 187 -66 87 -78 87 -142 -5z"/>
<path d="M4523 2803 c-160 -208 -307 -398 -326 -423 -56 -71 -57 -90 -5 -147
25 -26 58 -68 75 -93 17 -25 48 -61 68 -80 21 -19 62 -68 92 -108 30 -40 61
-76 69 -79 7 -3 24 -21 36 -41 13 -21 58 -75 102 -122 43 -47 104 -118 134
-158 30 -40 68 -80 85 -88 26 -14 31 -14 49 2 15 14 359 461 621 807 21 27 37
55 37 63 0 15 -95 131 -390 474 -97 113 -194 230 -217 261 -48 65 -97 109
-122 109 -12 0 -120 -133 -308 -377z"/>
<path d="M2067 3013 c-232 -298 -555 -721 -565 -740 -30 -55 -20 -71 182 -303
56 -63 126 -147 156 -185 30 -39 75 -92 100 -118 25 -27 53 -62 63 -78 11 -16
22 -29 27 -29 4 0 43 -42 86 -94 61 -73 82 -92 95 -86 19 11 115 127 194 235
32 44 78 103 102 130 25 28 78 97 118 155 40 58 99 136 131 174 71 83 123 164
124 192 0 27 -1 29 -350 439 -329 388 -353 415 -369 415 -5 0 -47 -48 -94
-107z"/>
<path d="M6258 2543 c-14 -16 -71 -88 -127 -161 -75 -97 -101 -139 -99 -156 2
-14 65 -96 141 -186 l138 -161 120 157 c164 214 155 198 133 232 -34 53 -255
302 -268 302 -7 0 -24 -12 -38 -27z"/>
<path d="M6269 1704 c-145 -44 -249 -256 -249 -503 1 -375 179 -605 415 -537
148 44 249 230 215 399 -23 118 -81 201 -172 246 -98 49 -209 37 -300 -33 -54
-40 -62 -36 -55 32 18 171 108 299 217 310 83 8 118 -4 172 -60 46 -48 50 -50
78 -38 41 17 45 37 14 81 -67 98 -210 142 -335 103z m178 -485 c151 -94 149
-356 -4 -446 -37 -21 -53 -25 -99 -21 -68 6 -117 42 -159 119 -25 46 -29 65
-29 129 0 64 4 83 29 129 62 112 167 148 262 90z"/>
</g>
</svg>
