<svg version="1.0" xmlns="http://www.w3.org/2000/svg"
 width="691.000000pt" height="1056.000000pt" viewBox="0 0 691.000000 1056.000000"
 preserveAspectRatio="xMidYMid meet">
<g transform="translate(0.000000,1056.000000) scale(0.100000,-0.100000)"
fill="#000000" stroke="none">
<path d="M551 9989 c-184 -36 -298 -262 -231 -458 38 -112 101 -181 199 -216
84 -29 188 -10 266 49 18 14 37 26 41 26 11 0 -4 -132 -21 -180 -49 -139 -159
-211 -275 -180 -28 7 -61 29 -96 62 l-53 50 -30 -18 c-17 -10 -31 -22 -31 -27
0 -21 33 -68 71 -101 87 -74 222 -91 324 -42 202 99 286 453 184 771 -63 199
-190 295 -348 264z m137 -88 c44 -23 93 -73 118 -121 25 -50 31 -174 10 -237
-54 -164 -227 -220 -350 -112 -110 97 -122 288 -26 409 59 75 169 102 248 61z"/>
<path d="M1928 9313 c-15 -16 -151 -185 -304 -378 -295 -373 -324 -419 -351
-554 -38 -183 60 -381 210 -426 137 -41 254 8 346 144 22 31 46 63 55 70 14
12 16 8 16 -45 0 -87 -17 -175 -55 -293 -19 -58 -32 -108 -29 -111 6 -5 274
-17 279 -12 2 2 -8 36 -21 75 -59 170 -86 329 -65 380 5 15 16 5 55 -53 60
-87 114 -134 178 -156 61 -20 157 -15 210 10 126 61 206 248 178 415 -13 76
-55 173 -99 230 -123 158 -556 709 -565 719 -10 10 -17 7 -38 -15z"/>
<path d="M4893 9324 c-24 -21 -399 -496 -532 -674 -109 -145 -133 -199 -139
-309 -14 -243 112 -402 317 -401 101 1 170 46 248 163 l48 72 3 -80 c3 -86
-14 -180 -54 -297 -13 -40 -24 -75 -24 -80 0 -4 66 -8 146 -8 135 0 146 1 139
18 -47 115 -84 262 -92 363 -7 96 6 104 52 31 123 -196 298 -240 460 -116 135
103 157 373 45 556 -16 25 -152 204 -302 396 -150 192 -278 357 -283 367 -10
16 -11 16 -32 -1z"/>
<path d="M583 8778 c-39 -44 -190 -244 -226 -298 -48 -73 -57 -139 -29 -203
37 -84 120 -99 204 -38 23 17 43 29 46 27 3 -4 -6 -63 -24 -143 -4 -21 -1 -23
33 -23 63 0 68 8 55 89 -17 97 -16 99 21 64 42 -40 68 -53 108 -53 47 0 94 34
113 80 36 89 19 128 -143 345 -73 96 -134 175 -135 175 -1 0 -12 -10 -23 -22z"/>
<path d="M1682 6838 c-355 -457 -350 -451 -380 -515 -25 -53 -27 -68 -27 -183
0 -122 1 -127 33 -192 77 -157 243 -218 388 -145 56 28 102 75 154 157 l35 55
3 -80 c4 -98 -10 -179 -48 -295 -17 -48 -30 -91 -30 -94 0 -8 275 -8 282 0 4
3 -9 51 -28 107 -56 165 -83 357 -51 357 6 0 28 -25 46 -55 97 -155 215 -212
353 -171 81 23 141 73 178 150 66 134 63 287 -8 425 -22 42 -146 209 -302 408
-289 368 -318 403 -331 403 -4 0 -124 -150 -267 -332z"/>
<path d="M4878 7143 c-15 -16 -149 -183 -298 -373 -336 -426 -369 -488 -358
-668 13 -190 121 -317 284 -330 111 -8 193 39 274 158 21 31 45 62 54 69 39
32 11 -192 -44 -354 -17 -49 -30 -92 -30 -97 0 -4 65 -8 145 -8 80 0 145 1
145 3 0 1 -16 46 -35 100 -52 144 -85 367 -55 367 6 0 26 -25 45 -55 79 -123
146 -173 243 -182 95 -9 163 17 233 86 47 47 61 69 77 122 43 141 34 261 -28
377 -17 32 -128 182 -246 333 -118 151 -249 319 -290 374 -42 55 -80 101 -83
103 -4 1 -19 -10 -33 -25z"/>
<path d="M3307 5958 c-324 -408 -504 -648 -526 -698 -18 -39 -26 -80 -29 -140
-12 -245 106 -411 293 -413 106 -1 203 61 277 176 16 26 34 47 39 47 14 0 11
-120 -5 -202 -8 -40 -26 -111 -41 -156 -15 -46 -25 -85 -23 -87 3 -3 288 -15
288 -12 0 1 -15 45 -34 98 -19 52 -42 130 -50 172 -18 85 -21 197 -6 197 5 0
27 -27 50 -60 73 -108 131 -151 224 -169 91 -17 180 14 249 88 105 113 127
313 51 481 -26 57 -607 810 -631 818 -7 2 -63 -61 -126 -140z"/>
<path d="M4782 4948 c16 -51 36 -122 44 -158 14 -66 19 -202 8 -213 -4 -3 -23
20 -43 51 -46 70 -129 147 -178 163 -55 18 -159 7 -219 -24 -63 -32 -123 -98
-147 -163 -25 -65 -33 -206 -17 -275 19 -80 47 -135 119 -229 128 -168 532
-679 542 -685 5 -4 17 -1 25 6 16 13 420 525 543 687 34 45 73 106 86 135 77
169 38 394 -88 497 -42 34 -122 59 -187 60 -102 0 -187 -59 -269 -187 -18 -29
-37 -50 -42 -47 -26 16 -4 169 48 336 20 65 35 120 32 122 -2 2 -68 6 -145 10
l-142 6 30 -92z"/>
<path d="M1813 5017 c53 -139 88 -300 85 -388 l-3 -74 -57 82 c-86 123 -153
165 -263 166 -84 0 -152 -31 -214 -99 -67 -73 -86 -131 -86 -259 0 -126 26
-206 99 -308 69 -95 546 -700 560 -709 6 -4 17 -8 23 -8 23 0 606 744 639 816
70 149 51 354 -41 462 -53 62 -142 102 -224 102 -111 -1 -182 -45 -267 -170
-26 -38 -51 -67 -57 -63 -24 15 15 241 64 376 16 43 29 80 29 83 0 2 -66 4
-146 4 -117 0 -145 -3 -141 -13z"/>
<path d="M1810 2907 c0 -2 11 -37 26 -78 14 -41 34 -110 44 -154 21 -84 27
-210 11 -220 -5 -3 -25 21 -45 54 -42 68 -112 136 -164 158 -22 10 -64 16
-103 16 -194 0 -320 -164 -307 -399 6 -113 33 -170 150 -325 179 -238 529
-670 538 -667 12 4 550 685 596 753 58 87 78 156 77 275 0 86 -4 116 -23 164
-62 161 -240 243 -385 178 -60 -28 -106 -70 -150 -137 -18 -28 -40 -57 -49
-64 -14 -12 -16 -6 -16 60 0 79 23 187 64 308 15 41 26 76 26 78 0 2 -65 3
-145 3 -80 0 -145 -1 -145 -3z"/>
<path d="M4760 2902 c0 -5 11 -40 24 -79 42 -125 67 -253 64 -328 l-3 -69 -44
67 c-87 134 -151 179 -267 185 -91 5 -155 -21 -217 -87 -88 -94 -121 -268 -78
-408 31 -100 57 -140 311 -463 202 -256 276 -353 332 -433 12 -17 18 -13 66
48 161 200 538 686 560 720 14 22 36 74 50 115 33 104 29 247 -10 332 -64 138
-217 209 -360 166 -53 -16 -125 -82 -178 -163 -23 -35 -46 -62 -51 -59 -33 20
17 276 86 447 7 16 -4 17 -139 17 -80 0 -146 -4 -146 -8z"/>
<path d="M6186 2453 c8 -32 14 -73 14 -91 l0 -34 -32 32 c-75 75 -169 65 -215
-23 -21 -42 -20 -124 2 -167 19 -36 266 -359 275 -359 3 0 64 78 137 173 144
189 161 225 149 309 -18 116 -131 155 -221 76 -20 -18 -37 -30 -40 -28 -2 2 3
38 11 79 8 41 14 78 14 83 0 4 -24 7 -54 7 l-53 0 13 -57z"/>
<path d="M6157 1636 c-124 -46 -197 -154 -242 -360 -14 -61 -16 -107 -13 -205
11 -272 113 -446 283 -481 214 -44 402 192 341 430 -39 154 -153 252 -291 252
-69 0 -117 -17 -186 -68 l-49 -36 6 58 c22 199 121 328 249 328 59 0 131 -36
167 -84 24 -34 43 -37 76 -14 22 15 22 15 3 52 -26 52 -68 91 -121 115 -58 26
-171 33 -223 13z m151 -452 c47 -19 97 -67 125 -119 18 -33 22 -57 22 -135 0
-88 -2 -99 -31 -150 -92 -163 -290 -163 -379 1 -38 70 -47 185 -20 256 21 55
87 130 130 149 41 18 108 17 153 -2z"/>
</g>
</svg>
