<svg version="1.0" xmlns="http://www.w3.org/2000/svg"
 width="691.000000pt" height="1056.000000pt" viewBox="0 0 691.000000 1056.000000"
 preserveAspectRatio="xMidYMid meet">
<g transform="translate(0.000000,1056.000000) scale(0.100000,-0.100000)"
fill="#000000" stroke="none">
<path d="M577 9933 c-8 -10 -20 -45 -26 -78 -147 -851 -147 -850 -215 -857
-29 -3 -31 -6 -31 -43 l0 -40 115 -3 c150 -4 160 -1 160 44 0 31 -4 37 -35 50
-40 16 -42 26 -24 133 15 91 28 101 139 101 70 0 90 -3 102 -17 19 -21 51
-173 42 -196 -3 -9 -19 -19 -35 -22 -33 -8 -47 -41 -29 -74 10 -19 19 -21 124
-21 125 0 140 6 134 57 -2 22 -10 30 -37 39 -23 7 -39 21 -48 40 -6 16 -51
216 -98 444 -47 228 -90 425 -95 438 -8 19 -17 22 -68 22 -43 0 -63 -5 -75
-17z m106 -278 c14 -60 33 -150 42 -199 19 -106 15 -113 -62 -122 -66 -8 -93
6 -93 49 0 35 43 292 62 364 14 57 19 48 51 -92z"/>
<path d="M445 8766 c-42 -19 -71 -54 -84 -101 -34 -125 22 -251 213 -480 56
-66 86 -95 101 -95 39 0 236 254 291 374 49 108 41 216 -21 276 -59 57 -141
51 -230 -17 l-47 -35 -31 30 c-59 57 -131 75 -192 48z"/>
<path d="M2902 6230 c-163 -34 -287 -161 -327 -335 -18 -76 -21 -229 -6 -297
42 -184 155 -393 370 -677 169 -223 465 -561 493 -561 19 0 95 81 265 284 397
472 583 802 599 1058 11 161 -36 330 -115 421 -18 20 -63 51 -99 69 -65 32
-70 33 -197 33 -131 0 -131 0 -206 -37 -81 -40 -167 -119 -219 -200 -16 -27
-34 -48 -40 -48 -5 0 -22 19 -36 43 -48 75 -87 119 -146 163 -93 68 -237 104
-336 84z"/>
<path d="M6100 2438 c-153 -178 -229 -318 -230 -422 0 -107 51 -175 139 -184
54 -5 98 12 153 59 l37 32 40 -36 c94 -85 223 -66 267 40 20 47 17 134 -6 196
-41 109 -263 397 -307 397 -15 0 -44 -26 -93 -82z"/>
<path d="M5892 1651 c-8 -5 -12 -21 -10 -41 2 -27 9 -35 35 -44 18 -6 37 -15
42 -21 5 -5 53 -210 107 -455 53 -245 100 -450 105 -456 28 -35 121 -19 143
25 8 14 46 206 85 426 40 220 74 412 77 427 7 34 39 58 76 58 30 0 44 26 34
66 l-7 25 -137 -3 -137 -3 0 -39 c0 -36 3 -40 32 -48 17 -5 34 -16 37 -26 9
-28 -21 -173 -38 -191 -13 -12 -37 -16 -111 -16 -58 0 -98 4 -106 12 -15 15
-51 171 -44 193 3 9 20 21 38 26 25 8 33 16 35 37 6 50 -9 57 -132 57 -61 0
-117 -4 -124 -9z m406 -423 c17 -17 15 -87 -8 -213 -26 -146 -40 -205 -49
-205 -14 0 -101 349 -101 404 0 24 137 35 158 14z"/>
</g>
</svg>
