<svg version="1.0" xmlns="http://www.w3.org/2000/svg"
 width="691.000000pt" height="1056.000000pt" viewBox="0 0 691.000000 1056.000000"
 preserveAspectRatio="xMidYMid meet">
<g transform="translate(0.000000,1056.000000) scale(0.100000,-0.100000)"
fill="#000000" stroke="none">
<path d="M582 9923 c-6 -27 -45 -236 -88 -465 l-78 -418 -46 -13 c-42 -12 -45
-15 -48 -50 l-3 -37 134 0 c130 0 135 1 140 22 8 29 -7 53 -43 68 -35 14 -35
15 -11 135 l17 90 45 3 c24 2 76 1 115 -3 l71 -6 20 -100 20 -100 -27 -14
c-39 -20 -52 -40 -44 -69 l6 -26 123 0 c117 0 123 1 128 22 9 31 -8 55 -44 63
-17 4 -34 16 -39 28 -5 12 -46 202 -90 422 -45 220 -86 421 -92 448 l-10 47
-73 0 -73 0 -10 -47z m103 -195 c16 -55 75 -333 75 -355 0 -10 -25 -13 -90
-13 -49 0 -90 2 -90 5 0 17 42 267 51 300 6 22 15 57 20 78 5 20 12 37 14 37
2 0 11 -24 20 -52z"/>
<path d="M530 8642 c-144 -193 -160 -221 -160 -279 0 -113 80 -182 166 -144
22 10 45 26 53 35 8 9 22 21 31 26 16 9 17 5 4 -63 -21 -109 -22 -107 36 -107
47 0 50 2 45 23 -12 57 -25 141 -21 144 2 2 20 -10 39 -27 55 -48 87 -55 141
-32 61 27 79 65 74 151 -3 61 -8 73 -52 136 -76 110 -220 304 -226 304 -3 1
-61 -75 -130 -167z"/>
<path d="M3388 8132 c-26 -37 -104 -150 -174 -252 -245 -357 -552 -752 -1100
-1415 -325 -394 -387 -472 -502 -633 -217 -302 -348 -563 -403 -802 -29 -126
-37 -368 -14 -485 33 -178 110 -328 233 -457 245 -256 606 -337 930 -207 154
61 272 158 397 324 150 203 254 338 321 420 43 53 85 120 122 197 45 94 62
120 85 129 24 10 32 9 55 -8 35 -26 45 -79 38 -213 -6 -141 -20 -197 -74 -313
-25 -53 -43 -99 -40 -102 12 -13 109 -17 231 -10 l135 7 -49 96 c-59 118 -79
209 -79 364 0 95 3 118 20 146 42 68 100 32 155 -95 43 -101 97 -188 132 -210
13 -9 58 -64 100 -122 279 -386 334 -449 460 -531 341 -223 803 -169 1085 127
168 177 249 390 250 653 0 282 -81 544 -257 835 -138 228 -306 449 -708 933
-362 436 -567 693 -791 992 -170 228 -237 321 -437 614 -30 44 -58 81 -64 83
-5 1 -31 -28 -57 -65z m124 -594 c209 -312 479 -666 919 -1204 299 -365 390
-484 543 -711 158 -235 203 -331 242 -513 21 -104 24 -318 5 -405 -46 -209
-189 -391 -376 -480 -100 -48 -149 -62 -251 -71 -112 -10 -281 25 -353 73 -26
18 -26 18 74 26 253 19 422 125 516 322 106 223 90 523 -43 790 -59 117 -245
384 -557 799 -377 501 -485 650 -648 898 -68 103 -128 190 -133 193 -18 11
-33 -8 -129 -160 -130 -204 -356 -517 -669 -927 -148 -194 -301 -401 -340
-459 -285 -427 -340 -567 -330 -842 9 -211 63 -345 190 -463 101 -96 238 -144
405 -144 104 0 109 -6 34 -44 -85 -43 -166 -60 -291 -59 -96 0 -128 4 -195 26
-200 66 -352 210 -428 405 -118 305 -50 656 200 1030 82 122 298 399 579 742
387 473 628 788 844 1103 63 92 118 167 122 167 4 0 35 -42 70 -92z m29 -766
c114 -185 286 -435 502 -732 110 -151 240 -336 289 -410 100 -152 199 -345
223 -435 23 -84 30 -255 15 -342 -31 -186 -161 -342 -324 -388 -104 -30 -249
-7 -293 47 -9 11 8 13 95 13 94 0 114 3 162 26 150 70 232 206 231 384 0 220
-45 297 -526 919 -408 527 -459 591 -475 591 -8 0 -30 -22 -50 -49 -146 -202
-327 -437 -494 -641 -202 -247 -358 -464 -407 -570 -75 -159 -77 -318 -8 -463
69 -142 254 -226 428 -194 l53 10 -24 -24 c-71 -72 -248 -84 -372 -26 -117 55
-214 178 -251 317 -33 127 -13 358 42 489 55 132 246 425 534 821 180 247 343
486 444 650 108 176 94 159 115 140 10 -9 51 -69 91 -133z"/>
<path d="M3272 4141 c-49 -81 -106 -200 -99 -208 14 -13 514 -10 527 3 9 9 -3
39 -50 123 l-62 111 -149 0 -149 0 -18 -29z"/>
<path d="M3175 3657 c-29 -62 -81 -155 -115 -206 -34 -51 -58 -96 -55 -100 11
-11 843 -7 854 4 6 7 -29 78 -101 206 l-110 196 -127 6 c-69 4 -163 7 -209 7
l-83 0 -54 -113z"/>
<path d="M6170 2516 c0 -3 7 -37 15 -77 20 -96 13 -114 -26 -66 -85 103 -220
45 -221 -96 0 -30 7 -69 16 -88 9 -19 73 -109 142 -202 l126 -167 67 87 c214
282 232 317 216 412 -8 48 -50 96 -91 104 -37 7 -88 -9 -124 -40 -17 -14 -33
-23 -37 -20 -3 3 0 35 6 70 16 90 17 87 -39 87 -27 0 -50 -2 -50 -4z"/>
<path d="M6304 1656 c-11 -29 6 -67 40 -87 l33 -19 -20 -100 -20 -100 -117 0
-117 0 -20 100 -20 101 28 14 c35 18 47 40 41 71 -4 24 -5 24 -128 24 l-124 0
0 -39 c0 -35 3 -39 30 -44 16 -4 36 -17 44 -29 8 -13 47 -179 86 -368 73 -361
113 -536 124 -547 3 -4 36 -7 73 -7 l68 -1 85 463 c48 254 90 466 96 470 5 5
28 14 52 21 33 9 42 16 42 34 0 48 -11 52 -145 55 -107 3 -126 1 -131 -12z
m10 -443 c-2 -10 -17 -94 -34 -188 -43 -240 -39 -228 -60 -180 -20 45 -65 240
-75 328 l-6 57 89 0 c81 0 90 -2 86 -17z"/>
</g>
</svg>
