<svg version="1.0" xmlns="http://www.w3.org/2000/svg"
 width="427.000000pt" height="600.000000pt" viewBox="0 0 427.000000 600.000000"
 preserveAspectRatio="xMidYMid meet">
<g transform="translate(0.000000,600.000000) scale(0.100000,-0.100000)"
fill="#000000" stroke="none">
<path d="M294 5696 c-19 -14 -19 -51 -16 -2707 2 -1923 6 -2697 14 -2706 16
-20 3666 -19 3693 1 18 13 19 86 22 2701 2 1805 -1 2693 -8 2706 -9 19 -53 19
-1847 19 -1572 0 -1841 -2 -1858 -14z m3644 -2704 l2 -2652 -932 -1 c-513 -1
-1322 -2 -1798 -3 l-865 -1 -3 2652 -2 2653 1082 2 c596 2 1405 3 1798 3 l715
0 3 -2653z"/>
<path d="M1902 5612 l-1532 -2 2 -2623 3 -2622 905 0 c498 1 1293 2 1768 3
l862 2 0 2620 c0 2488 -1 2620 -17 2620 -344 4 -718 5 -1991 2z m361 -121 c64
-61 122 -142 147 -208 25 -65 97 -160 157 -205 63 -48 125 -68 208 -68 120 0
239 86 271 197 9 29 22 59 30 67 18 19 18 36 -1 36 -8 0 -15 5 -15 10 0 6 9
10 20 10 13 0 28 -15 45 -47 13 -27 41 -66 60 -87 l36 -40 28 17 c19 11 50 17
88 17 63 0 74 -4 91 -35 6 -11 12 -14 12 -7 0 21 25 13 53 -16 19 -20 32 -49
41 -93 15 -75 7 -110 -33 -138 -84 -60 -180 -66 -252 -15 -49 34 -74 49 -114
67 -24 10 -30 18 -28 41 2 27 1 27 -16 12 -21 -19 -42 -21 -59 -4 -19 19 -14
29 8 16 14 -9 23 -9 30 -2 16 16 2 41 -31 54 -26 11 -33 10 -61 -12 -76 -58
-117 -72 -213 -72 -78 1 -98 4 -147 29 -35 17 -82 53 -117 90 l-59 61 -6 -45
c-12 -88 -83 -147 -168 -139 -61 6 -98 38 -98 82 1 78 103 112 129 44 9 -22
10 -21 26 15 21 50 12 108 -25 173 -33 58 -136 174 -155 174 -7 0 -42 -31 -78
-69 -73 -78 -110 -155 -111 -233 -1 -63 14 -77 47 -44 33 33 61 33 92 1 29
-28 31 -56 8 -95 -58 -100 -236 -38 -257 89 l-6 42 -50 -54 c-27 -30 -77 -69
-112 -88 -58 -31 -70 -34 -153 -34 -98 0 -156 19 -217 70 -34 29 -62 26 -90
-7 -22 -25 -13 -41 19 -35 15 3 22 0 20 -7 -6 -18 -56 -20 -63 -2 -3 9 -16 16
-29 16 -27 0 -48 22 -43 47 3 20 48 32 48 13 0 -6 -4 -9 -9 -6 -5 3 -14 -1
-21 -9 -21 -25 17 -31 43 -7 12 11 35 25 50 31 l28 11 -26 47 c-25 47 -34 103
-16 103 5 0 12 -15 15 -33 14 -76 93 -160 183 -196 45 -18 140 -16 209 4 84
24 182 125 248 255 63 123 136 211 239 287 l30 22 31 -21 c17 -12 57 -47 89
-77z m-843 74 c10 -12 10 -21 2 -40 -10 -22 -9 -25 7 -25 10 0 21 3 25 8 4 4
13 7 19 7 5 0 12 7 14 15 4 13 3 13 -6 0 -9 -12 -11 -10 -11 11 0 31 7 40 26
32 16 -6 19 -49 4 -58 -16 -10 -11 -25 8 -25 23 0 42 19 42 43 0 13 6 18 23
15 17 -2 23 -11 25 -38 2 -20 12 -40 23 -48 23 -16 25 -32 3 -32 -12 0 -14 -5
-8 -17 13 -30 17 -133 5 -133 -6 0 -11 19 -11 43 0 89 -61 146 -166 155 -40 3
-63 -1 -98 -18 -41 -19 -58 -37 -112 -117 -7 -10 -13 -12 -17 -6 -12 19 56
105 110 140 43 27 53 39 53 62 0 42 17 53 40 26z m460 -12 c17 -22 21 -37 17
-70 -2 -24 -3 -43 -1 -43 2 0 11 24 19 54 9 30 22 60 30 66 23 19 50 8 50 -20
0 -20 -5 -25 -25 -25 -20 0 -28 -9 -41 -45 -27 -70 -158 -323 -179 -344 -17
-17 -20 -18 -25 -4 -5 13 -15 10 -56 -18 -28 -18 -67 -38 -87 -44 -41 -11
-112 -13 -136 -4 -28 11 -17 24 19 24 44 0 95 21 143 58 21 15 51 34 67 42
l30 14 -27 4 c-50 6 -22 52 31 52 30 0 118 70 152 121 36 55 37 71 2 37 -16
-15 -40 -31 -55 -37 -20 -8 -27 -18 -30 -42 -4 -41 -25 -49 -38 -13 -12 30 -4
47 10 24 6 -10 10 -11 10 -3 0 17 -26 29 -78 38 -65 11 -37 23 35 16 34 -4 73
-3 85 2 62 23 95 95 64 142 -27 41 -76 27 -76 -22 0 -33 29 -41 51 -15 14 18
18 19 23 7 9 -23 -31 -58 -59 -51 -14 4 -27 0 -35 -9 -13 -16 -47 -20 -74 -9
-9 4 -16 18 -16 34 0 35 17 49 22 18 2 -17 10 -23 28 -23 21 0 26 6 31 37 12
77 77 104 119 51z m622 10 c10 -9 18 -27 18 -40 0 -58 53 -89 66 -38 7 28 24
24 24 -5 0 -43 -63 -67 -91 -34 -7 8 -21 13 -32 10 -31 -8 -67 14 -67 41 0 28
16 31 23 3 7 -25 44 -26 52 -1 8 27 -4 50 -31 57 -35 9 -54 -12 -54 -58 0 -84
45 -114 157 -104 79 6 101 -8 29 -18 -27 -4 -51 -15 -62 -29 -19 -21 -19 -21
0 -7 18 14 19 13 12 -15 -10 -38 -12 -41 -31 -25 -9 7 -15 25 -13 38 2 21 -2
27 -29 34 -17 4 -43 22 -57 39 -35 41 -33 24 3 -33 35 -54 130 -128 165 -128
27 0 60 -26 51 -40 -3 -5 -12 -7 -19 -4 -28 11 -26 -16 1 -28 15 -7 44 -25 63
-40 41 -32 109 -58 154 -58 29 -1 30 -1 12 -15 -41 -31 -157 -9 -237 44 -35
24 -45 27 -49 15 -10 -27 -37 6 -81 96 -22 47 -53 105 -69 130 -15 25 -38 73
-50 108 -18 50 -26 61 -40 57 -21 -7 -44 19 -36 41 4 10 15 14 33 12 22 -2 31
-11 44 -47 l16 -44 7 33 c3 19 14 42 23 52 20 23 70 23 95 1z m318 -13 c0 -19
7 -33 20 -40 11 -6 20 -7 21 -3 0 4 2 22 2 38 2 23 7 30 22 30 12 0 19 -6 17
-14 -6 -28 12 -53 58 -82 42 -26 110 -106 110 -131 0 -18 -20 -6 -34 20 -19
37 -89 100 -118 107 -54 12 -76 12 -121 0 -79 -20 -127 -81 -127 -160 0 -22
-4 -34 -10 -30 -15 9 -12 70 4 109 13 32 13 34 -7 40 -22 6 -22 7 5 30 18 16
25 31 22 43 -5 19 18 53 35 53 5 0 11 -13 14 -29 7 -34 38 -46 64 -24 10 8 13
12 6 8 -19 -9 -37 33 -22 51 20 24 39 17 39 -16z m1001 7 c63 -42 71 -126 18
-184 -29 -30 -20 -93 14 -93 21 -1 21 -1 3 -15 -12 -9 -28 -48 -42 -102 -21
-80 -21 -90 -8 -111 17 -26 47 -26 52 1 2 10 -5 28 -15 39 -18 20 -17 20 2 17
10 -2 26 -17 35 -32 14 -27 14 -29 -9 -48 -32 -26 -47 -24 -83 11 -19 20 -40
30 -59 30 -36 0 -69 43 -52 69 15 24 58 21 58 -4 0 -13 -6 -19 -18 -19 -10 1
-16 -3 -14 -10 2 -6 14 -11 27 -11 30 0 58 45 66 110 7 45 6 47 -14 40 -12 -3
-22 -2 -22 3 0 5 9 12 21 15 16 4 20 12 17 39 -3 30 -7 33 -42 39 -57 9 -80
41 -72 100 8 58 -13 73 -47 33 -21 -24 -25 -25 -67 -15 -25 6 -58 11 -74 11
-16 0 -35 8 -42 17 -11 15 -17 16 -43 6 -35 -13 -41 -1 -10 20 l21 15 -21 7
c-12 3 -21 11 -21 17 0 6 8 7 23 2 12 -4 52 -7 89 -6 37 1 88 -2 114 -8 41 -9
50 -8 68 8 42 39 98 42 147 9z m-3220 -5 c20 -15 42 -17 139 -15 63 1 126 5
140 8 24 6 25 6 5 -10 -20 -16 -15 -25 20 -38 6 -3 7 -7 4 -11 -3 -4 -19 -2
-35 4 -25 10 -31 9 -43 -9 -10 -16 -24 -21 -55 -21 -23 0 -55 -4 -73 -9 -27
-8 -35 -6 -54 15 -25 26 -28 27 -46 16 -9 -6 -10 -17 -4 -38 12 -42 -9 -87
-48 -103 -17 -7 -37 -11 -45 -8 -32 12 -35 -54 -3 -77 l22 -17 -22 5 c-28 5
-30 -17 -8 -92 16 -53 41 -77 69 -66 22 9 20 21 -5 27 -30 8 -18 32 17 32 24
0 30 -5 32 -27 4 -30 -28 -58 -67 -58 -13 0 -34 -11 -47 -25 -26 -28 -65 -32
-88 -9 -26 26 -19 52 22 73 12 6 22 8 22 2 0 -5 -7 -11 -15 -15 -8 -3 -15 -17
-15 -31 0 -20 5 -25 24 -25 39 0 52 24 38 73 -7 23 -17 65 -23 94 -8 36 -17
53 -30 56 -11 3 -19 10 -19 16 0 6 7 8 16 4 39 -15 45 51 9 103 -38 56 -35
116 9 160 30 30 41 34 84 34 32 0 58 -6 73 -18z m2544 -63 c2 -34 26 -51 40
-30 8 15 38 14 53 -1 9 -9 4 -17 -20 -35 -18 -13 -38 -23 -45 -23 -9 0 -13
-16 -13 -54 0 -72 -18 -83 -22 -14 -3 52 -4 53 -33 51 -27 -2 -65 20 -65 39 0
4 13 8 28 8 38 0 44 8 27 34 -15 21 -20 87 -8 100 13 13 55 -41 58 -75z
m-1945 30 c0 -22 -5 -50 -11 -61 -13 -24 4 -41 34 -34 9 2 17 -2 17 -9 0 -21
-28 -38 -55 -32 -33 6 -49 -22 -42 -69 3 -19 2 -34 -3 -34 -11 0 -23 59 -18
91 2 18 -2 25 -18 27 -12 2 -31 13 -43 26 -19 20 -20 25 -7 35 11 9 20 10 35
2 35 -19 51 -13 51 18 0 28 33 81 51 81 5 0 9 -18 9 -41z m2276 -156 c7 -25
-23 -91 -61 -138 -34 -41 -44 -23 -11 20 39 51 58 102 47 123 -5 9 -24 31 -43
47 l-33 30 30 -33 c27 -30 28 -35 14 -45 -9 -7 -14 -19 -11 -27 5 -13 3 -13
-13 0 -17 14 -18 14 -6 -9 7 -13 9 -26 5 -30 -5 -3 -10 -13 -12 -21 -2 -8 -10
-18 -17 -23 -8 -4 -11 -15 -8 -24 4 -11 3 -14 -5 -9 -7 4 -12 2 -12 -3 0 -6
-7 -11 -15 -11 -23 0 -18 49 9 94 l23 39 -18 53 c-11 32 -16 65 -13 83 l6 30
70 -62 c38 -34 71 -72 74 -84z m-2516 100 c0 -21 -7 -59 -16 -84 -16 -45 -16
-47 5 -76 21 -28 31 -86 18 -100 -10 -9 -39 18 -33 32 2 7 -5 20 -16 29 -11
10 -17 24 -14 33 6 14 4 14 -10 2 -15 -13 -15 -10 1 21 l18 35 -22 -19 c-27
-25 -27 -13 1 27 19 28 19 30 2 16 -23 -20 -51 -14 -33 7 6 8 16 11 23 7 6 -3
8 -2 3 2 -4 5 3 20 15 34 13 14 1 6 -25 -19 -43 -40 -48 -49 -43 -77 2 -18 18
-52 35 -77 33 -48 36 -56 22 -56 -17 0 -81 114 -81 143 0 23 14 43 68 93 37
35 70 64 75 64 4 0 7 -17 7 -37z m1218 -77 l24 -35 -21 -28 c-17 -24 -21 -46
-23 -142 -2 -80 -7 -116 -15 -119 -10 -3 -13 25 -13 116 0 104 -3 123 -20 145
-11 14 -20 29 -20 33 0 9 51 64 59 64 3 0 16 -16 29 -34z m-964 -65 c3 -5 -1
-11 -9 -15 -18 -6 -20 -36 -3 -36 6 0 4 -6 -5 -12 -9 -7 -26 -39 -37 -71 -11
-32 -26 -67 -32 -77 -24 -38 -106 -30 -148 15 -27 28 -52 35 -27 7 22 -24 21
-40 0 -65 -17 -19 -17 -20 1 -10 12 6 24 7 30 2 6 -5 24 -20 39 -34 15 -14 32
-25 38 -25 26 0 3 -20 -47 -38 l-55 -20 -26 24 c-14 13 -32 24 -40 24 -9 0
-11 5 -7 13 6 8 3 8 -9 -2 -10 -8 -27 -11 -42 -7 -38 10 -30 -1 18 -25 23 -12
49 -28 58 -36 14 -12 25 -11 85 8 76 23 96 31 136 57 26 16 28 16 45 -1 17
-17 17 -19 -7 -37 -14 -11 -32 -20 -40 -20 -9 0 -42 -20 -75 -45 -59 -44 -83
-51 -154 -45 -43 4 -129 47 -147 75 -16 24 -16 35 -6 93 11 66 32 106 66 126
14 8 20 8 23 0 2 -7 16 1 33 17 23 24 37 29 77 29 28 0 63 -8 83 -19 l35 -19
38 44 c22 25 46 59 54 77 27 55 44 69 57 48z m-455 -83 c42 -45 45 -80 9 -111
-28 -24 -63 -15 -105 25 -29 28 -31 33 -20 55 12 21 61 60 79 62 4 1 21 -14
37 -31z m2839 18 c15 -8 34 -26 42 -41 14 -26 13 -28 -23 -61 -83 -77 -169 -7
-101 83 28 37 42 40 82 19z m-2910 -203 c74 -10 49 -26 -31 -20 -78 7 -108 -3
-113 -37 -2 -14 0 -15 12 -5 7 6 11 15 8 20 -3 5 2 6 11 3 14 -6 14 -9 -2 -28
-13 -15 -13 -17 -2 -8 9 6 18 9 22 6 3 -3 16 -7 29 -9 49 -7 103 -17 107 -21
2 -2 1 -11 -3 -20 -5 -13 -15 -15 -54 -10 -67 8 -72 8 -122 -2 -34 -8 -53 -7
-77 3 -43 18 -42 40 5 64 20 10 55 33 77 51 30 24 46 30 65 25 14 -3 44 -8 68
-12z m3051 -17 c25 -18 62 -41 81 -51 l34 -18 -29 -24 c-25 -22 -34 -24 -79
-18 -52 7 -72 7 -141 3 -34 -3 -40 0 -43 17 -2 18 3 21 35 23 20 2 43 8 50 14
7 6 13 7 13 3 0 -5 9 0 19 9 11 10 24 15 29 12 14 -8 9 21 -6 36 -8 8 -22 8
-56 -2 -40 -11 -106 -7 -94 6 6 6 85 21 117 23 13 1 44 -14 70 -33z m-664 -86
c4 -7 -45 -10 -152 -10 -87 0 -508 -3 -935 -7 -574 -4 -778 -3 -778 6 0 8 164
12 603 13 331 2 749 4 929 6 218 2 328 -1 333 -8z m100 -54 c13 -44 29 -65 59
-77 17 -7 42 -21 55 -31 13 -10 39 -18 57 -18 28 0 38 -7 64 -45 34 -50 56
-65 95 -65 18 0 29 6 32 20 3 11 9 20 13 20 11 0 40 -29 40 -39 0 -15 -37 -41
-68 -47 l-32 -7 35 -38 c59 -65 41 -117 -19 -55 -20 22 -43 36 -58 36 -13 0
-29 5 -36 12 -6 6 -13 10 -14 7 -2 -2 -10 -17 -19 -34 -12 -24 -21 -30 -44
-28 -16 1 -35 9 -43 17 -13 12 -11 16 17 30 36 19 61 63 60 103 -1 21 -3 23
-6 8 -8 -31 -34 -55 -60 -55 -24 0 -31 18 -12 37 14 14 3 49 -17 57 -9 3 -26
-5 -41 -20 -23 -23 -25 -31 -20 -79 11 -103 70 -174 185 -221 96 -40 172 -25
172 33 0 22 2 24 16 12 32 -26 -5 -93 -60 -107 -24 -7 -4 -11 94 -21 102 -10
129 -16 145 -33 l20 -20 -50 5 c-27 2 -59 8 -70 12 -11 4 5 -8 35 -26 62 -39
122 -119 139 -186 6 -23 11 -70 11 -105 0 -54 -6 -77 -41 -148 -47 -98 -52
-136 -21 -161 28 -22 28 -31 0 -27 -14 2 -30 16 -40 37 l-17 33 -75 -76 c-93
-94 -126 -148 -133 -219 -9 -93 41 -147 136 -147 54 0 81 26 81 80 0 48 -27
80 -68 80 -34 0 -52 -16 -52 -46 0 -18 5 -22 32 -20 24 1 33 -4 36 -18 8 -37
-46 -48 -78 -16 -45 45 -6 130 60 130 29 0 30 1 30 49 0 39 5 53 26 75 35 34
97 36 131 4 31 -29 32 -92 2 -108 -42 -23 -98 15 -83 55 10 25 49 15 48 -12
-1 -27 12 -30 24 -5 14 25 -2 58 -32 66 -36 9 -71 -8 -85 -42 -14 -33 -11 -48
22 -130 18 -44 19 -59 10 -92 -10 -40 -10 -40 19 -40 67 0 121 -63 102 -118
-6 -19 -18 -28 -35 -30 -30 -4 -61 22 -53 43 8 20 31 19 43 -2 16 -30 35 -2
20 29 -19 43 -49 52 -142 45 -92 -7 -137 2 -175 37 -19 17 -24 18 -32 6 -13
-22 -24 12 -17 55 5 33 5 34 -22 29 -16 -4 -32 -1 -35 5 -4 7 1 11 12 11 26 0
37 15 55 77 l15 52 -59 -45 c-60 -48 -81 -73 -93 -112 -9 -27 17 -62 46 -62
20 0 23 11 8 26 -14 14 5 38 25 31 11 -5 15 -16 13 -39 -3 -30 -6 -33 -40 -36
-66 -6 -98 54 -64 121 14 26 14 27 -10 21 -14 -4 -24 -2 -24 4 0 16 41 42 67
42 27 0 39 16 18 24 -27 10 -16 25 18 24 34 -1 97 26 97 42 0 6 -12 10 -26 10
-14 0 -55 8 -91 17 l-65 18 -19 -24 c-22 -27 -20 -44 4 -49 11 -2 14 2 10 17
-4 16 -1 21 15 21 27 0 36 -29 16 -51 -21 -23 -42 -24 -66 -2 -22 20 -23 61
-1 85 20 22 55 23 153 2 74 -16 77 -16 120 4 l45 21 -40 -7 c-104 -18 -186 6
-240 70 -70 83 -75 157 -21 312 42 121 56 216 36 241 -16 19 -46 19 -54 0 -4
-10 1 -15 15 -15 15 0 20 -5 17 -22 -4 -31 -43 -36 -58 -8 -21 40 12 90 60 90
37 0 60 -32 61 -85 0 -39 1 -39 20 25 20 64 34 88 44 79 2 -3 -4 -34 -15 -69
-11 -35 -18 -65 -16 -67 1 -2 22 24 46 57 24 33 49 60 57 60 7 0 13 -2 13 -6
0 -3 -41 -59 -90 -126 -50 -66 -89 -122 -88 -124 2 -2 22 3 43 11 94 33 186 4
234 -75 57 -95 -16 -220 -122 -206 -57 7 -89 40 -85 90 4 53 40 77 89 59 37
-14 42 -13 34 10 -9 23 -59 40 -94 32 -35 -7 -81 -57 -81 -87 0 -36 33 -90 71
-117 41 -28 48 -41 23 -41 -8 0 -36 20 -61 43 -42 40 -46 49 -51 100 -4 54 -3
58 31 92 31 31 41 35 87 35 44 0 56 -4 81 -29 34 -34 36 -50 10 -82 l-19 -24
-19 24 c-37 46 -100 -1 -71 -53 14 -25 76 -32 113 -11 84 44 72 161 -20 205
-147 71 -289 -62 -240 -226 25 -84 107 -144 198 -144 15 0 27 5 27 10 0 6 -5
10 -10 10 -6 0 -15 11 -22 25 -8 19 -8 28 2 40 19 23 30 18 30 -15 0 -72 103
-57 180 26 72 79 129 240 106 300 -6 15 -10 12 -28 -17 -25 -42 -35 -49 -70
-49 -34 0 -35 9 -6 45 14 18 23 46 26 79 3 43 -1 58 -26 98 -40 61 -97 93
-229 128 -132 35 -172 49 -251 89 -123 62 -181 137 -190 247 l-5 62 32 7 c42
9 74 50 60 77 -13 24 -30 19 -46 -13 -17 -33 -38 -31 -38 4 l1 28 -18 -23
c-10 -13 -18 -26 -18 -30 0 -12 -60 -39 -71 -32 -7 4 0 18 18 36 15 17 24 29
18 27 -5 -2 -27 -11 -47 -19 -21 -8 -38 -20 -38 -27 0 -7 -4 -13 -10 -13 -5 0
-10 9 -10 20 0 11 -5 20 -10 20 -25 0 -60 50 -60 84 0 42 40 79 79 74 33 -4
61 -50 45 -75 -14 -22 -42 -29 -58 -13 -8 8 -5 15 12 29 20 15 21 19 9 29 -20
17 -46 5 -53 -23 -11 -46 30 -84 79 -71 12 3 50 32 85 66 82 78 153 98 167 46z
m-1978 12 c15 -6 57 -11 93 -11 l65 1 -59 -7 -58 -6 56 -53 c47 -45 61 -53 88
-50 43 4 75 47 58 77 -14 27 -53 25 -58 -3 -2 -10 0 -16 6 -12 5 3 15 0 21 -8
18 -21 -11 -41 -38 -26 -54 28 -1 117 54 92 64 -29 70 -108 10 -144 -22 -12
-32 -25 -28 -34 3 -9 -1 -14 -12 -14 -11 0 -15 5 -11 15 3 10 -1 15 -12 15 -9
0 -29 7 -44 14 -34 18 -36 10 -6 -21 12 -13 19 -26 15 -29 -7 -7 -67 15 -67
25 0 3 -9 17 -19 30 l-18 23 1 -23 c1 -33 -30 -37 -38 -6 -11 45 -56 46 -56 2
0 -26 42 -65 71 -65 11 0 19 -7 20 -17 5 -86 -21 -165 -69 -216 -61 -65 -201
-129 -374 -173 -168 -42 -246 -104 -256 -204 -4 -42 0 -57 22 -90 14 -22 26
-42 26 -45 0 -3 -15 -5 -34 -5 -36 0 -76 36 -76 69 0 14 -2 14 -10 1 -34 -52
11 -198 92 -301 73 -92 198 -106 198 -22 0 21 2 24 15 13 21 -17 19 -40 -7
-67 l-21 -23 47 0 c119 0 204 99 194 226 -5 61 -42 118 -94 144 -42 21 -112
19 -159 -6 -109 -56 -89 -214 26 -214 73 0 105 53 53 87 -26 17 -27 16 -49 -9
-22 -25 -24 -26 -39 -9 -41 45 1 110 76 118 50 6 104 -24 126 -70 29 -59 -16
-155 -89 -192 -41 -22 -45 0 -5 25 45 27 76 78 76 123 0 27 -7 41 -31 61 -48
41 -139 32 -139 -15 0 -19 1 -19 25 -3 21 14 30 14 55 4 57 -24 66 -76 21
-121 -23 -23 -38 -29 -71 -29 -59 0 -94 22 -120 75 -25 51 -22 90 9 141 39 64
170 96 242 58 17 -8 33 -13 36 -11 2 3 -39 61 -91 130 -85 112 -99 137 -76
137 4 0 26 -27 50 -61 23 -33 44 -58 47 -55 3 3 -2 26 -11 52 -9 26 -16 57
-16 68 0 38 21 0 45 -80 l22 -79 -1 56 c-1 64 20 99 61 99 50 0 82 -69 47
-104 -12 -12 -20 -13 -35 -6 -25 14 -24 40 1 47 24 6 26 21 3 30 -10 4 -23 -2
-36 -18 -26 -32 -18 -88 35 -244 47 -140 47 -195 3 -270 -49 -85 -126 -121
-234 -112 -61 6 -64 5 -41 -8 34 -19 92 -19 172 2 76 19 110 11 130 -31 22
-49 -43 -101 -80 -64 -17 17 -15 48 4 55 19 7 35 -14 26 -35 -3 -10 0 -13 9
-10 25 8 22 45 -5 63 -23 15 -29 15 -78 1 -29 -9 -68 -20 -87 -24 l-35 -8 37
-23 c25 -15 48 -22 67 -19 31 5 39 -9 19 -29 -7 -7 -1 -12 22 -17 33 -6 69
-32 69 -48 0 -4 -11 -6 -25 -2 l-24 6 15 -39 c26 -66 -18 -125 -82 -109 -40
10 -43 76 -3 76 20 0 26 -24 8 -36 -7 -4 -8 -9 0 -17 7 -7 18 -5 35 7 30 19
34 55 11 90 -21 31 -141 125 -132 104 3 -9 11 -35 17 -57 7 -27 20 -46 38 -55
l27 -15 -33 -1 c-34 0 -34 0 -27 -39 7 -41 -9 -66 -26 -40 -5 9 -9 10 -9 2 0
-6 -21 -21 -46 -33 -42 -21 -55 -22 -143 -16 -90 6 -100 5 -124 -14 -16 -13
-27 -31 -27 -46 0 -28 6 -30 27 -9 12 12 18 13 29 4 20 -16 17 -26 -11 -45
-23 -15 -27 -15 -50 0 -14 9 -25 26 -25 39 0 34 36 86 65 92 14 3 36 7 49 10
22 4 23 7 13 42 -8 32 -6 47 17 100 31 75 33 102 5 137 -28 35 -82 36 -104 2
-17 -26 -11 -56 12 -56 8 0 11 5 8 10 -7 12 12 40 26 40 5 0 13 -9 19 -21 24
-43 -58 -83 -90 -44 -22 27 -14 77 16 104 22 18 35 22 66 18 21 -3 46 -11 55
-19 25 -21 45 -77 38 -109 -6 -28 -5 -29 28 -29 43 0 75 -25 83 -67 8 -41 -33
-88 -69 -77 -34 10 -43 22 -30 42 10 16 21 19 52 11 24 -6 24 28 1 51 -62 62
-147 -52 -91 -121 26 -32 102 -32 154 0 41 25 49 43 49 107 0 70 -40 138 -136
233 l-84 83 -7 -30 c-8 -37 -29 -57 -51 -48 -15 6 -15 9 4 27 31 28 27 65 -15
155 -35 73 -38 85 -38 169 0 70 5 100 22 136 29 65 85 124 146 154 52 26 48
27 -30 4 -23 -6 -49 -9 -59 -5 -16 6 -16 8 -3 22 10 9 60 20 144 30 125 14
169 24 110 24 -37 0 -75 36 -75 71 0 38 16 45 23 10 21 -102 274 -16 336 113
41 83 21 192 -32 184 -25 -3 -36 -43 -18 -61 15 -15 14 -24 -5 -31 -21 -8 -53
10 -64 37 -8 20 -9 19 -9 -8 -1 -37 22 -73 55 -85 29 -12 31 -26 3 -40 -33
-18 -63 -8 -80 27 -9 18 -20 28 -25 24 -5 -5 -26 -14 -47 -21 -21 -6 -47 -25
-59 -41 -28 -37 -38 -37 -38 3 0 24 10 42 37 70 l37 38 -30 0 c-37 0 -74 25
-74 51 0 30 31 37 48 11 29 -43 80 -22 132 53 27 39 36 45 66 45 21 0 47 9 61
20 14 11 31 20 38 20 16 0 51 40 60 70 13 41 40 50 92 28z m-475 -30 c21 -12
38 -24 38 -27 0 -3 9 -17 19 -30 15 -20 21 -22 40 -11 18 9 27 8 47 -5 20 -13
22 -19 14 -35 -14 -26 -40 -26 -40 0 0 37 -36 5 -50 -45 -18 -63 -34 -52 -31
21 2 53 0 62 -26 85 -43 41 -93 55 -141 41 -79 -24 -121 -85 -108 -156 7 -35
48 -80 82 -90 32 -10 73 10 80 38 8 34 -3 50 -22 31 -21 -20 -31 -19 -44 5 -8
15 -6 24 9 39 23 23 55 18 76 -12 46 -66 -26 -149 -109 -126 -102 29 -136 160
-63 244 58 66 147 79 229 33z m2098 23 c0 -8 -168 -11 -582 -12 -321 0 -617
-1 -658 -1 -138 0 -127 6 20 12 310 11 1220 12 1220 1z m925 -14 c45 -25 85
-92 85 -142 0 -44 -30 -96 -70 -123 -43 -29 -105 -25 -132 8 -23 28 -23 88 -1
112 34 38 96 11 73 -31 -12 -23 -30 -27 -47 -10 -7 7 -12 7 -15 -3 -9 -24 11
-57 38 -64 65 -16 119 37 119 117 0 43 -4 53 -36 85 -63 62 -158 58 -215 -9
-22 -26 -25 -39 -22 -81 4 -68 -12 -73 -31 -11 -10 32 -22 51 -34 53 -13 3
-17 -2 -15 -15 4 -23 -21 -24 -35 -1 -18 28 10 51 53 44 32 -5 38 -2 53 23 39
66 157 90 232 48z m-955 -37 c0 -6 -103 -10 -287 -10 -159 0 -412 0 -563 -1
-427 0 -450 0 -450 11 0 7 223 10 650 10 427 0 650 -3 650 -10z m-429 -89 c42
-11 110 -36 150 -56 218 -109 363 -275 440 -503 28 -84 33 -114 37 -225 5
-158 -18 -272 -82 -404 -73 -149 -160 -250 -290 -335 -33 -21 -62 -41 -65 -44
-9 -9 105 44 228 106 128 63 141 68 141 47 0 -12 -35 -31 -170 -89 -25 -11
-72 -32 -105 -48 -33 -15 -113 -51 -178 -80 -64 -29 -116 -55 -114 -57 2 -2
136 42 298 97 187 63 297 96 303 90 5 -5 8 -11 5 -14 -2 -2 -85 -29 -184 -61
-296 -93 -434 -139 -431 -143 3 -3 83 14 484 100 104 22 147 27 155 19 6 -6 8
-13 6 -16 -3 -3 -115 -25 -250 -50 -382 -70 -420 -78 -417 -80 3 -3 374 23
596 41 70 5 82 4 82 -9 0 -18 -45 -23 -285 -33 -281 -11 -393 -19 -355 -26 19
-4 168 -14 330 -23 162 -9 298 -19 302 -21 4 -3 8 -9 8 -15 0 -12 -85 -12
-185 1 -107 13 -487 41 -492 36 -2 -2 141 -32 319 -66 178 -34 327 -66 332
-70 4 -5 6 -13 2 -18 -4 -6 -36 -3 -88 8 -46 10 -186 42 -311 70 -226 50 -304
61 -191 26 314 -96 564 -182 564 -193 0 -21 -27 -16 -169 36 -242 89 -454 161
-458 158 -2 -2 38 -22 89 -45 248 -110 493 -223 501 -231 5 -5 6 -14 3 -20 -5
-7 -51 11 -127 50 -130 65 -229 110 -229 104 0 -2 21 -15 46 -30 104 -61 237
-210 302 -340 70 -141 100 -351 73 -508 -59 -341 -332 -622 -669 -692 -94 -19
-252 -19 -350 0 -198 40 -405 183 -531 368 -153 224 -179 547 -66 803 58 130
180 275 302 357 97 65 85 61 -100 -30 -170 -84 -195 -94 -203 -82 -3 6 -4 13
-1 15 3 3 88 43 189 88 284 127 398 180 395 183 -5 4 -77 -20 -340 -111 -137
-47 -255 -86 -264 -86 -32 0 -4 25 48 41 30 10 170 55 311 100 142 46 256 84
254 86 -1 2 -141 -26 -310 -62 -169 -36 -316 -65 -326 -65 -11 0 -20 6 -20 13
0 9 33 19 98 31 211 39 262 48 402 76 l145 29 -105 -5 c-58 -3 -159 -9 -225
-14 -311 -23 -325 -23 -325 -6 0 9 2 16 3 16 46 0 672 32 674 34 2 2 -49 7
-114 10 -65 4 -174 11 -243 16 -69 5 -169 12 -222 15 -75 5 -98 10 -98 21 0
18 21 18 201 -1 201 -20 449 -38 454 -33 3 2 -93 23 -213 47 -356 70 -417 83
-426 92 -34 32 98 8 543 -97 57 -14 106 -23 108 -20 4 4 -40 19 -404 136 -123
39 -223 75 -223 80 0 5 4 11 9 15 5 3 144 -42 307 -100 164 -58 301 -104 305
-103 5 2 -87 46 -204 98 -332 148 -377 170 -377 185 0 8 5 15 10 15 6 0 91
-41 190 -90 178 -89 231 -111 125 -51 -116 66 -261 230 -326 369 -102 221 -99
502 8 717 130 261 364 431 658 479 63 10 251 -3 326 -23z m1519 -62 c0 -32 -3
-40 -14 -36 -29 12 -48 -39 -45 -124 2 -44 7 -85 11 -92 4 -6 8 -8 8 -3 0 14
30 -15 30 -30 0 -7 -10 -16 -22 -20 -35 -11 -48 19 -48 115 l0 86 -24 -30
c-52 -63 -52 -62 2 -171 36 -73 53 -98 65 -96 15 2 16 -3 11 -35 -3 -24 2 -65
15 -113 39 -147 36 -225 -15 -351 -16 -38 -24 -76 -22 -96 4 -36 -3 -41 -22
-18 -15 18 -12 32 29 145 39 109 41 188 6 318 -23 85 -88 243 -123 300 l-15
23 -15 -23 c-15 -20 -14 -25 11 -70 30 -53 31 -58 18 -58 -6 0 -20 18 -32 40
-13 22 -26 40 -29 40 -4 0 -20 -18 -35 -40 -15 -22 -34 -40 -41 -40 -15 0 -19
16 -6 24 5 3 21 23 36 45 l28 40 -46 79 c-48 82 -52 92 -37 92 5 0 28 -30 51
-67 24 -38 45 -70 47 -73 3 -3 13 5 23 18 19 23 19 24 0 55 -27 44 -27 66 0
42 11 -10 20 -24 20 -32 0 -7 5 -13 10 -13 11 0 126 151 143 188 16 34 27 26
27 -19z m-3449 9 c6 -13 39 -60 73 -106 l61 -83 17 23 c10 13 18 26 18 31 0 4
7 7 15 7 12 0 11 -8 -7 -45 -21 -43 -21 -45 -3 -65 19 -21 19 -20 67 55 27 42
53 73 58 70 6 -4 7 -12 3 -18 -4 -7 -21 -34 -38 -62 -59 -93 -59 -87 -19 -140
46 -59 32 -83 -15 -25 -17 22 -35 40 -39 40 -4 0 -17 -18 -30 -40 -12 -22 -27
-40 -32 -40 -15 0 -13 7 17 61 22 38 26 53 17 66 -6 9 -15 18 -21 20 -13 5
-94 -169 -128 -277 -19 -57 -29 -114 -32 -175 -4 -79 -1 -99 22 -165 47 -130
50 -147 36 -164 -21 -25 -31 -19 -25 13 4 20 -4 58 -25 116 -43 120 -49 199
-20 300 13 44 23 105 23 136 0 46 3 55 15 52 12 -3 29 23 64 92 26 52 47 101
47 108 0 6 -16 30 -35 52 l-34 40 -1 -86 c0 -91 -10 -114 -47 -107 -27 5 -23
42 5 46 21 3 22 8 22 94 0 93 -13 128 -47 128 -8 0 -13 12 -13 35 0 40 14 46
31 13z m2719 -290 c0 -7 1 -652 2 -1432 3 -1146 1 -1420 -10 -1424 -10 -3 -12
124 -11 660 1 617 -1 663 -16 660 -11 -2 -15 2 -13 10 3 7 12 12 21 10 13 -2
15 6 11 50 -2 29 -9 55 -14 56 -6 2 -10 8 -10 13 0 6 5 7 10 4 7 -4 10 232 10
699 0 464 3 706 10 706 6 0 10 -6 10 -12z m-2000 -1434 c0 -954 -3 -1433 -10
-1429 -7 4 -10 493 -10 1436 0 946 3 1429 10 1429 7 0 10 -485 10 -1436z m-50
441 c2 -1625 1 -1847 -10 -1840 -11 7 -15 2787 -3 2798 3 4 8 6 9 4 2 -1 4
-435 4 -962z m2100 -435 c0 -927 -3 -1400 -10 -1400 -7 0 -10 473 -10 1400 0
927 3 1400 10 1400 7 0 10 -473 10 -1400z m50 5 c0 -910 -3 -1375 -10 -1375
-7 0 -10 465 -10 1375 0 910 3 1375 10 1375 7 0 10 -465 10 -1375z m-2192 -13
c1 -846 -1 -1372 -7 -1372 -5 0 -11 21 -14 47 -3 27 -5 646 -5 1376 0 989 3
1327 11 1324 9 -3 13 -360 15 -1375z m2537 1218 c4 -13 -1 -30 -14 -47 -12
-14 -19 -28 -17 -30 2 -3 22 1 43 7 48 15 83 10 97 -12 14 -24 7 -28 -53 -29
-58 -2 -74 -14 -39 -30 25 -11 53 -47 44 -56 -2 -3 -17 2 -33 10 -15 9 -39 18
-53 21 -18 4 -31 17 -43 44 -23 52 -21 69 8 88 13 9 27 24 30 35 8 25 22 24
30 -1z m-2854 -31 c21 -22 39 -43 39 -46 0 -3 -6 -17 -14 -31 -8 -15 -17 -35
-20 -44 -3 -10 -15 -18 -28 -18 -13 -1 -34 -7 -48 -15 -32 -19 -40 -18 -40 0
0 9 13 24 30 33 43 24 32 37 -33 37 -61 0 -73 13 -37 38 20 14 69 11 113 -8
21 -9 22 4 2 31 -14 19 -21 64 -9 64 3 0 23 -18 45 -41z m2258 -764 c50 -101
91 -235 91 -293 0 -24 4 -30 15 -26 8 4 15 1 15 -5 0 -6 -4 -11 -8 -11 -5 0
-12 -48 -16 -107 -8 -133 -25 -215 -65 -318 -32 -83 -104 -205 -120 -205 -22
0 -16 30 20 89 84 138 122 281 122 456 0 188 -37 328 -127 478 -25 42 -31 59
-23 72 9 17 11 16 29 -6 10 -13 41 -69 67 -124z m-1609 111 c0 -8 -16 -40 -35
-72 -102 -170 -149 -416 -114 -610 20 -113 77 -260 131 -336 18 -26 18 -68 0
-68 -9 0 -69 99 -95 155 -31 66 -65 172 -72 222 -9 62 -15 83 -23 80 -4 -1 -7
3 -7 8 0 6 3 9 8 7 4 -1 7 35 7 80 0 181 51 357 145 504 32 50 55 63 55 30z
m30 -42 c0 -3 -9 -19 -21 -35 -33 -46 -76 -150 -99 -235 -57 -216 -24 -463 84
-646 19 -32 31 -60 26 -63 -9 -6 -57 73 -89 148 -69 160 -86 393 -43 555 33
121 108 282 132 282 6 0 10 -3 10 -6z m1506 -59 c18 -32 48 -102 66 -154 32
-94 33 -99 32 -271 0 -165 -1 -180 -28 -260 -40 -121 -105 -244 -120 -229 -4
3 9 31 27 62 47 77 94 224 107 335 20 165 -23 376 -105 515 -38 64 -41 71 -23
65 6 -2 26 -31 44 -63z m-2000 -212 c80 -41 109 -133 59 -187 -13 -14 -30 -26
-37 -26 -7 0 -2 -6 12 -13 51 -26 65 -105 30 -163 -53 -85 -185 -97 -320 -30
-78 40 -167 100 -235 159 l-40 35 25 27 c66 71 237 180 333 211 54 18 125 12
173 -13z m2665 -2 c68 -29 184 -105 252 -166 45 -39 44 -45 -36 -113 -71 -61
-128 -99 -215 -140 -60 -29 -89 -37 -132 -36 -90 0 -170 54 -185 124 -8 36 21
101 47 108 19 5 25 22 8 22 -17 0 -48 41 -54 71 -10 53 29 118 89 145 53 23
152 17 226 -15z m-3117 -337 c9 -8 16 -21 16 -29 0 -20 -28 -26 -45 -8 -21 21
-31 9 -19 -24 15 -44 47 -54 145 -47 94 7 145 -4 175 -37 12 -13 20 -16 25 -8
15 24 31 -3 25 -42 -6 -39 -6 -39 26 -39 l32 0 -31 -27 c-17 -16 -33 -39 -36
-53 -2 -14 -8 -34 -13 -44 -5 -14 13 -4 54 27 71 55 92 82 92 117 0 33 -17 50
-49 50 -19 0 -22 -3 -13 -12 18 -18 14 -38 -7 -38 -28 0 -37 37 -15 61 23 26
60 24 89 -6 29 -28 31 -58 10 -99 -19 -37 -19 -39 6 -26 11 7 23 9 26 6 12
-11 -20 -36 -59 -47 -30 -8 -38 -13 -29 -22 19 -19 12 -27 -20 -27 -18 0 -48
-10 -67 -22 l-35 -22 59 -13 c110 -25 139 -26 153 -10 15 19 11 49 -8 55 -9 3
-12 0 -8 -10 8 -22 -13 -41 -30 -27 -20 17 -16 37 11 54 48 32 96 -28 63 -79
-21 -31 -59 -37 -124 -20 -67 17 -140 17 -172 0 -20 -11 -13 -12 55 -9 93 5
135 -9 188 -63 66 -68 83 -170 45 -272 -27 -71 -68 -220 -68 -248 -1 -32 30
-67 52 -59 24 10 21 35 -4 35 -24 0 -23 27 3 43 35 23 63 -36 38 -83 -12 -22
-55 -34 -79 -20 -24 13 -42 62 -36 103 3 18 -4 5 -15 -28 -11 -33 -20 -65 -20
-72 0 -13 -19 -28 -26 -20 -3 3 3 35 14 71 11 36 19 66 17 66 -2 0 -25 -29
-51 -65 -46 -62 -64 -78 -64 -54 0 6 41 65 91 131 81 109 105 152 64 118 -8
-7 -44 -15 -79 -17 -53 -5 -72 -2 -110 16 -139 68 -109 274 40 274 51 0 91
-24 100 -60 16 -63 -36 -109 -96 -86 -35 13 -40 1 -13 -29 26 -28 86 -24 122
10 31 28 34 37 32 84 -1 31 -60 103 -93 114 -14 4 -17 9 -9 17 15 15 89 -38
113 -83 39 -71 7 -156 -69 -180 -91 -31 -187 57 -124 114 19 17 20 17 31 -3
21 -39 80 -21 80 25 0 64 -115 69 -156 6 -21 -32 -23 -91 -5 -126 43 -79 174
-94 252 -29 86 73 77 236 -17 308 -34 26 -137 55 -150 43 -3 -4 3 -19 15 -34
16 -20 18 -31 10 -45 -14 -27 -27 -23 -31 8 -2 19 -12 32 -30 41 -24 11 -34
10 -70 -6 -55 -25 -113 -83 -144 -144 -35 -68 -57 -163 -49 -206 l7 -36 22 40
c19 35 26 39 64 42 l42 3 -25 -37 c-41 -61 -43 -97 -10 -179 8 -19 7 -19 -11
-5 -18 14 -18 14 -5 -3 8 -9 16 -15 18 -13 3 2 28 -13 56 -34 36 -28 74 -45
131 -60 153 -39 267 -80 336 -120 101 -59 143 -122 156 -234 l7 -56 -31 -6
c-62 -12 -96 -85 -44 -92 19 -3 21 -6 11 -18 -21 -25 -3 -15 22 13 13 15 16
21 6 13 -17 -12 -18 -11 -11 16 9 38 11 39 29 24 9 -7 13 -21 10 -31 -10 -30
1 -22 23 16 20 32 65 56 79 41 4 -3 -4 -18 -18 -33 -21 -23 -22 -25 -4 -18 11
5 39 10 62 13 37 3 47 0 73 -26 37 -37 39 -74 5 -107 -28 -28 -66 -32 -89 -9
-30 30 -14 84 25 84 26 0 33 -31 9 -37 -11 -3 -20 -12 -20 -19 0 -25 30 -28
52 -7 27 27 16 59 -27 80 -31 15 -35 15 -69 -6 -38 -24 -47 -41 -21 -41 8 0
15 -4 15 -10 0 -14 -27 -12 -33 3 -3 8 -19 -2 -44 -26 -68 -65 -128 -67 -148
-6 -8 25 -23 40 -54 56 -23 12 -48 26 -55 32 -7 6 -30 13 -52 15 -26 3 -44 12
-54 28 -52 81 -113 109 -142 66 -17 -25 -48 -19 -48 10 0 27 30 50 69 54 l35
3 -37 40 c-24 26 -37 50 -37 68 0 15 3 27 8 27 9 0 66 -61 67 -72 0 -3 4 -10
9 -15 5 -5 6 -3 2 5 -11 18 34 15 55 -4 17 -15 18 -15 24 9 4 14 15 33 26 43
16 14 23 15 49 4 31 -13 42 -40 16 -40 -24 0 -66 -59 -66 -93 0 -32 0 -32 13
-8 15 30 40 46 60 38 13 -5 14 -11 4 -36 -8 -23 -8 -33 2 -45 54 -65 99 80 53
170 -71 137 -317 220 -339 113 -7 -35 -23 -28 -23 10 0 30 30 64 70 77 18 6
-8 11 -98 20 -113 11 -152 23 -152 45 0 14 42 11 94 -7 26 -9 49 -14 52 -12 2
3 -13 10 -34 16 -59 18 -117 74 -154 150 -30 60 -33 75 -32 152 0 79 3 91 43
172 45 90 47 113 13 151 -8 9 -12 20 -9 23 12 12 37 -5 49 -33 7 -15 14 -30
15 -32 6 -8 154 142 178 180 72 112 43 226 -64 250 -49 11 -84 -1 -107 -36
-37 -56 14 -140 73 -119 32 11 48 36 39 59 -5 14 -9 15 -21 5 -21 -18 -47 -4
-43 22 5 34 60 38 82 6 34 -49 9 -102 -57 -119 -41 -10 -42 -11 -42 -55 0 -34
-6 -50 -27 -70 -55 -55 -158 -22 -158 51 0 40 16 55 57 55 22 0 36 -6 43 -21
16 -29 5 -51 -22 -47 -18 2 -22 8 -20 28 4 21 2 22 -12 11 -22 -18 -20 -58 3
-71 30 -15 56 -12 85 11 34 26 34 61 0 141 -21 51 -24 67 -16 99 l9 37 -36 6
c-49 8 -77 30 -91 71 -10 30 -9 40 4 60 19 29 47 32 70 9z m3404 4 c7 -7 12
-27 12 -46 0 -47 -46 -92 -94 -92 l-35 0 6 -48 c4 -33 0 -59 -12 -87 -9 -22
-21 -53 -25 -68 -20 -66 43 -127 99 -96 30 17 38 43 19 66 -11 14 -13 13 -18
-8 -8 -31 -44 -33 -48 -2 -2 14 5 27 22 38 46 31 94 -7 81 -65 -14 -63 -105
-82 -156 -31 -24 24 -29 38 -29 75 0 45 -1 46 -30 46 -44 0 -82 41 -78 82 4
42 47 75 77 59 23 -13 28 -47 9 -54 -7 -2 -21 0 -31 5 -21 11 -35 -16 -20 -40
18 -29 61 -33 89 -8 38 32 38 90 -1 123 -24 22 -34 24 -74 18 -87 -13 -130
-72 -117 -157 10 -61 31 -93 124 -190 l86 -89 16 33 c9 20 24 34 38 36 27 4
28 -2 2 -28 -27 -27 -25 -60 9 -128 42 -85 54 -130 53 -198 -2 -117 -70 -235
-164 -284 -24 -12 -32 -19 -18 -15 14 3 45 9 70 12 l45 5 -20 -20 c-17 -17
-42 -23 -150 -33 -94 -10 -121 -15 -98 -20 53 -11 91 -57 77 -94 -8 -20 -24
-19 -24 2 0 82 -166 63 -279 -33 -85 -71 -109 -237 -38 -260 31 -10 64 44 37
61 -5 3 -10 13 -10 21 0 11 8 14 28 12 19 -2 32 -13 45 -38 l19 -35 -6 39 c-7
49 -30 84 -64 97 l-27 11 24 19 c35 29 63 21 85 -25 15 -30 21 -35 27 -23 5 8
24 18 43 21 21 4 45 19 60 37 14 17 30 27 36 24 20 -12 10 -45 -25 -84 l-35
-39 34 -6 c41 -8 59 -27 54 -58 -4 -29 -34 -36 -41 -8 -4 14 -13 20 -34 20
-36 0 -62 -18 -97 -69 -24 -34 -35 -41 -61 -41 -18 0 -43 -8 -56 -17 -13 -10
-41 -27 -62 -37 -28 -15 -39 -28 -47 -58 -10 -36 -13 -38 -49 -38 -42 0 -64
14 -148 92 -28 26 -60 48 -71 48 -30 0 -72 -38 -72 -65 0 -31 35 -52 56 -34
20 16 18 26 -7 32 -26 7 -20 31 9 35 29 4 48 -32 33 -64 -25 -56 -113 -31
-119 35 -4 37 18 77 48 86 11 3 20 15 20 26 0 10 5 19 10 19 6 0 10 -6 10 -14
0 -8 12 -19 28 -24 15 -5 36 -13 47 -18 16 -5 14 0 -9 24 l-30 32 26 0 c19 0
36 -12 60 -41 33 -40 34 -40 33 -13 0 38 18 40 32 4 8 -21 18 -30 33 -30 18 0
21 5 18 33 -3 27 -10 35 -46 52 l-43 20 4 62 c5 72 36 133 94 183 48 43 178
104 278 131 44 12 109 30 145 40 149 42 223 173 155 273 -27 40 -25 56 6 56
25 0 79 -52 79 -75 0 -9 5 -13 11 -9 8 4 10 30 7 76 -11 149 -137 318 -237
318 -27 0 -51 -27 -51 -57 0 -27 -17 -27 -34 0 -8 13 -4 23 19 47 l29 30 -42
0 c-118 0 -204 -89 -204 -210 0 -109 66 -180 167 -180 122 0 190 93 140 191
-35 68 -155 63 -155 -6 0 -44 50 -61 72 -25 18 28 34 25 48 -11 11 -24 10 -35
-1 -56 -17 -31 -46 -43 -106 -43 -38 0 -50 5 -79 34 -57 57 -45 138 31 205 33
29 65 41 65 24 0 -5 -17 -19 -37 -33 -42 -29 -77 -97 -67 -134 14 -59 100 -94
149 -62 29 19 35 53 8 41 -65 -28 -113 -3 -113 58 0 101 160 114 212 17 24
-44 20 -119 -9 -158 -45 -62 -153 -89 -230 -57 -20 8 -38 13 -40 11 -2 -2 37
-58 87 -125 49 -67 90 -123 90 -126 0 -3 -6 -5 -13 -5 -8 0 -33 27 -57 60 -24
33 -44 60 -46 60 -4 0 15 -76 26 -105 11 -29 6 -45 -9 -29 -5 5 -18 38 -29 74
l-20 65 -1 -44 c-1 -52 -23 -81 -61 -81 -51 0 -81 50 -53 89 18 27 39 27 53 1
11 -21 10 -22 -29 -32 -11 -3 -10 -7 3 -21 41 -40 70 24 51 113 -6 30 -26 98
-44 150 -28 81 -33 105 -29 161 11 146 137 242 278 210 57 -13 64 -6 14 15
-34 15 -47 15 -104 4 -125 -24 -146 -24 -169 -1 -12 12 -21 31 -21 43 0 26 27
58 50 58 24 0 54 -36 46 -55 -8 -22 -41 -14 -40 8 3 26 -20 15 -24 -11 -6 -37
36 -48 106 -28 32 9 68 16 80 16 12 0 22 4 22 9 0 18 -56 45 -92 44 -28 -2
-36 1 -31 13 3 7 9 14 15 14 5 0 6 5 3 10 -3 6 -16 10 -28 10 -25 0 -67 26
-67 41 0 5 11 7 25 3 25 -6 25 -6 10 22 -21 41 -19 71 10 99 28 29 66 32 90 9
19 -20 16 -43 -7 -58 -23 -14 -35 0 -20 25 10 16 10 20 -2 25 -8 3 -24 1 -35
-6 -25 -13 -28 -60 -6 -94 18 -27 140 -124 132 -104 -3 7 -11 33 -18 56 -8 29
-20 47 -35 54 -34 16 -30 32 6 25 l30 -6 -6 43 c-6 42 7 69 21 46 4 -6 18 -2
38 12 29 21 43 23 150 23 118 0 119 0 143 28 13 15 24 34 24 42 0 20 -17 27
-24 10 -8 -22 -46 -19 -46 3 0 24 19 42 45 42 12 0 26 -5 33 -12z m-3408 -573
c15 -19 10 -50 -26 -145 -25 -64 -29 -89 -28 -170 0 -80 6 -111 33 -195 19
-55 53 -140 78 -189 l45 -89 20 21 21 21 -31 49 c-34 51 -38 62 -23 62 4 0 21
-19 36 -42 l28 -42 36 42 c60 69 73 49 16 -25 -19 -25 -32 -51 -28 -57 4 -6
21 -33 38 -61 51 -81 58 -95 43 -95 -8 0 -33 32 -57 70 -23 39 -45 70 -47 70
-2 0 -11 -11 -19 -24 -15 -22 -14 -26 6 -60 12 -20 18 -40 14 -44 -7 -7 -38
26 -48 51 -7 15 -27 -9 -104 -121 -33 -48 -60 -79 -66 -73 -12 12 -4 66 9 64
7 -1 19 6 28 16 14 15 16 36 14 112 -2 64 -7 93 -15 92 -6 -1 -17 4 -24 13
-18 22 14 54 39 38 13 -9 18 -30 22 -105 l5 -94 33 44 c17 24 32 49 32 56 0 6
-20 53 -45 103 -34 71 -49 92 -65 92 -23 0 -24 4 -11 29 7 12 2 47 -14 112
-34 129 -33 226 1 322 40 111 42 121 33 145 -9 25 2 29 21 7z m3364 -10 c-4
-15 6 -57 27 -117 43 -117 46 -221 10 -338 -15 -48 -21 -88 -18 -113 4 -31 2
-37 -9 -33 -10 4 -29 -24 -66 -98 l-51 -103 34 -48 34 -47 5 90 c5 94 15 116
46 110 29 -5 29 -36 1 -47 -23 -9 -25 -14 -26 -97 -2 -93 14 -139 44 -128 12
5 15 -3 15 -35 0 -49 -9 -52 -35 -8 -33 56 -125 177 -135 177 -6 0 -10 -6 -10
-13 0 -8 -10 -22 -22 -33 -21 -19 -21 -19 -15 1 3 11 11 34 18 52 10 26 10 34
0 47 -8 9 -17 16 -21 16 -4 0 -26 -31 -49 -70 -23 -38 -46 -70 -51 -70 -17 0
-11 13 35 88 25 40 45 76 45 81 0 4 -16 29 -35 54 -39 51 -41 57 -21 57 7 0
26 -18 41 -40 15 -22 31 -40 35 -40 3 0 16 18 29 40 12 22 29 40 37 40 10 0 5
-15 -17 -51 -28 -45 -30 -53 -19 -74 7 -14 16 -22 20 -20 15 9 99 194 124 274
50 157 51 242 6 366 -43 117 -44 123 -30 140 19 23 31 18 24 -10z m-3113 -345
c16 0 59 -71 59 -97 0 -5 -13 -22 -30 -36 -16 -15 -30 -32 -30 -37 0 -6 -7
-10 -15 -10 -9 0 -15 9 -15 24 0 13 7 29 15 36 22 18 20 44 -2 35 -65 -27
-124 -20 -131 16 -2 12 8 15 54 14 57 0 79 11 51 27 -25 14 -47 38 -47 53 0
10 9 8 37 -6 21 -10 45 -19 54 -19z m2939 29 c0 -5 -17 -26 -37 -44 l-38 -35
40 -2 c22 -1 50 -1 63 0 24 1 29 -17 10 -36 -15 -15 -69 -15 -103 0 -34 15
-43 3 -17 -25 12 -13 22 -31 22 -40 0 -20 -22 -35 -28 -18 -2 7 -17 24 -33 39
-34 29 -35 41 -12 93 13 31 23 39 59 48 24 6 46 15 49 21 8 13 25 13 25 -1z
m-3002 -624 c44 -51 18 -129 -41 -123 -27 2 -33 8 -35 31 -4 34 25 49 44 22
13 -17 14 -17 20 -1 19 48 -46 93 -94 65 -60 -34 -84 -114 -53 -172 43 -80
180 -92 242 -21 25 28 31 57 20 103 -7 32 -6 41 4 41 8 0 17 -10 20 -22 15
-52 28 -78 41 -78 8 0 14 7 14 15 0 21 36 19 45 -2 10 -28 -29 -55 -62 -42
-22 8 -29 7 -36 -7 -49 -87 -185 -113 -270 -52 -41 30 -70 99 -62 148 18 108
141 165 203 95z m3092 20 c40 -21 69 -66 76 -117 12 -92 -68 -177 -165 -178
-55 0 -124 32 -151 70 -17 24 -25 28 -53 23 -40 -6 -67 18 -51 45 16 25 34 26
34 2 0 -39 34 -19 50 30 20 61 36 58 32 -6 -4 -62 13 -95 63 -118 95 -45 215
18 215 112 0 68 -68 132 -124 118 -28 -7 -50 -45 -40 -71 6 -14 8 -14 19 1 14
19 42 13 51 -11 8 -20 -13 -45 -39 -45 -34 0 -57 29 -57 72 0 74 69 110 140
73z m-960 -235 c0 -7 -224 -10 -651 -10 -431 0 -648 3 -644 10 9 14 1295 14
1295 0z m-1785 -18 c17 -8 46 -28 65 -43 19 -16 42 -29 51 -29 27 0 72 -41 60
-53 -6 -6 -11 -18 -11 -26 0 -11 6 -9 23 7 28 26 50 28 68 6 12 -15 10 -16
-20 -9 -30 6 -32 5 -29 -16 4 -27 55 -57 73 -43 62 46 102 68 151 81 125 32
260 -11 353 -112 l49 -55 7 40 c14 80 81 140 158 140 82 0 128 -54 101 -118
-23 -55 -85 -62 -120 -14 -10 14 -13 13 -23 -6 -6 -11 -11 -43 -11 -69 0 -67
37 -137 119 -225 l67 -71 62 57 c71 66 119 153 128 232 7 60 -10 109 -30 82
-6 -8 -22 -20 -34 -27 -53 -28 -114 35 -92 94 12 32 66 65 106 65 76 0 163
-82 164 -154 0 -29 1 -28 61 33 87 90 148 116 264 115 98 -1 153 -18 212 -68
25 -21 36 -24 55 -17 52 20 62 69 11 56 -18 -4 -24 -2 -21 7 7 19 53 21 68 4
7 -9 23 -16 35 -16 29 0 48 -24 40 -50 -7 -21 -55 -30 -55 -10 0 6 9 10 20 10
22 0 27 15 9 26 -6 3 -24 -3 -40 -15 -16 -12 -40 -26 -53 -31 l-25 -9 23 -43
c30 -54 44 -112 25 -106 -7 2 -18 25 -26 50 -18 62 -89 139 -153 167 -58 25
-163 30 -227 11 -96 -29 -192 -132 -269 -288 -48 -98 -135 -202 -214 -257
l-40 -28 -36 26 c-99 70 -188 180 -233 287 -29 68 -52 102 -110 163 -68 72
-128 99 -227 105 -72 4 -89 1 -135 -20 -83 -39 -137 -98 -160 -175 -7 -24 -16
-43 -21 -43 -16 0 -8 47 17 95 24 49 25 65 1 65 -7 0 -27 11 -46 25 -21 15
-38 21 -43 16 -12 -12 0 -31 21 -31 15 -1 15 -2 -1 -11 -39 -23 -65 37 -27 64
18 12 16 15 -33 39 -72 35 -181 69 -185 57 -2 -5 -26 -21 -52 -34 -27 -14 -51
-29 -55 -35 -8 -13 1 -13 25 2 15 9 22 10 31 1 12 -12 17 -10 61 31 20 18 22
18 80 0 55 -16 85 -34 58 -34 -7 0 -31 -16 -55 -36 -24 -20 -49 -33 -55 -29
-7 4 -6 -2 2 -14 11 -17 11 -25 0 -42 -20 -32 -10 -31 27 2 19 16 43 30 55 31
65 4 90 -10 102 -58 12 -46 43 -112 57 -118 9 -5 9 -7 0 -12 -18 -8 -16 -34 2
-34 8 0 15 -5 15 -11 0 -26 -37 0 -60 42 -14 25 -40 63 -59 84 -33 38 -33 38
-61 22 -42 -25 -144 -23 -170 3 -11 11 -25 17 -33 15 -22 -9 -67 49 -82 106
-22 80 -19 98 20 134 60 57 166 79 230 47z m2462 -13 c31 -16 54 -37 64 -57
15 -30 16 -39 3 -93 -15 -65 -46 -114 -75 -122 -11 -3 -19 -1 -19 3 0 5 -11
-2 -25 -15 -32 -33 -121 -35 -171 -4 -20 12 -34 16 -34 9 0 -6 -13 -23 -29
-38 -16 -15 -41 -51 -56 -79 -14 -29 -32 -53 -38 -53 -7 0 -17 -13 -23 -28
-11 -28 -11 -28 30 -28 l41 1 0 53 c-1 71 19 62 23 -11 2 -41 7 -57 17 -57 8
0 26 -11 41 -23 44 -38 14 -59 -48 -33 -12 6 -18 0 -23 -26 -9 -44 -32 -78
-51 -78 -13 0 -15 8 -11 43 2 23 8 52 12 65 7 20 4 22 -25 22 -26 0 -31 3 -26
18 3 9 -6 3 -21 -14 -16 -17 -44 -42 -63 -54 -46 -30 -60 -49 -60 -78 0 -17
-5 -23 -17 -20 -13 2 -18 13 -18 36 0 27 -3 32 -20 30 -13 -2 -22 -13 -25 -32
-6 -34 -22 -43 -39 -22 -15 18 3 61 21 50 7 -4 8 -3 4 4 -4 7 -20 12 -36 12
-22 0 -30 -6 -39 -31 -9 -27 -13 -29 -32 -19 -15 9 -20 18 -16 37 3 19 -2 32
-22 49 -26 23 -26 24 -4 30 20 6 20 8 7 40 -16 39 -19 100 -4 109 6 4 10 -8
10 -30 0 -112 116 -196 230 -165 51 14 120 76 145 130 10 22 24 40 32 40 7 0
13 9 13 21 0 11 -4 17 -10 14 -5 -3 -10 -1 -10 4 0 6 6 11 14 11 8 0 20 17 27
38 6 20 14 42 18 47 3 6 6 12 7 15 17 85 87 98 173 33 l36 -28 -18 28 c-14 21
-15 32 -7 47 6 11 16 20 22 20 6 0 8 3 5 6 -4 4 -13 1 -22 -6 -12 -10 -20 -7
-45 18 -17 17 -39 34 -50 37 -32 10 -23 20 35 39 53 16 95 15 95 -4 0 -5 10
-12 23 -16 23 -7 87 -13 87 -8 0 2 -19 13 -42 25 -24 12 -50 27 -58 34 -13 11
-24 10 -70 -5 -30 -11 -62 -19 -71 -20 -9 0 -33 -11 -53 -25 -43 -29 -61 -31
-70 -9 -7 19 28 54 54 54 10 0 35 14 56 31 22 17 53 38 69 45 43 20 124 12
182 -17z m-647 -19 c0 -7 -234 -10 -681 -10 -451 0 -678 3 -674 10 9 14 1355
14 1355 0z m-2247 -31 c27 -7 48 -7 73 1 45 15 84 6 84 -20 0 -16 -7 -20 -38
-20 -21 0 -42 -4 -48 -10 -5 -5 -22 -11 -36 -12 -15 -1 -25 -5 -22 -9 2 -4 -3
-10 -12 -13 -8 -3 -12 -2 -9 3 3 5 2 12 -3 15 -21 13 -6 -27 14 -41 19 -12 30
-13 55 -4 38 13 86 14 93 3 5 -9 -79 -32 -117 -32 -16 0 -18 -3 -9 -12 30 -30
-2 -93 -36 -71 -26 16 -21 38 7 35 20 -2 22 0 11 13 -15 18 -44 20 -58 3 -11
-14 -42 -113 -42 -135 0 -9 8 -11 25 -7 15 4 25 2 25 -5 0 -6 -6 -11 -14 -11
-22 0 -39 -28 -32 -55 5 -20 13 -25 37 -25 21 0 40 -10 61 -30 29 -30 32 -47
17 -98 -2 -8 3 -19 12 -25 14 -8 22 -5 40 16 22 25 27 26 59 17 19 -5 52 -10
72 -10 26 0 41 -6 51 -21 12 -17 19 -19 35 -10 25 13 42 14 42 2 0 -5 -10 -13
-22 -17 l-21 -6 24 -19 c23 -18 23 -19 3 -19 -11 0 -24 3 -28 7 -4 4 -59 7
-124 8 -100 1 -121 -2 -143 -18 -27 -19 -31 -19 -141 -5 -9 1 -16 5 -15 8 1 3
-7 19 -16 37 -29 54 -19 117 23 153 13 11 16 25 13 52 -4 31 -9 37 -32 41
l-26 3 28 12 c20 9 27 18 27 40 0 16 7 52 16 81 8 30 13 64 10 77 -6 23 -38
40 -56 29 -16 -10 -12 -43 7 -54 24 -13 10 -25 -15 -12 -44 23 -23 91 28 91
20 0 60 -32 60 -48 0 -4 16 -8 35 -8 44 0 34 13 -47 63 -62 38 -67 50 -27 70
30 16 53 16 102 2z m3102 -1 c11 0 41 4 67 7 36 6 54 4 73 -9 14 -9 25 -20 25
-24 0 -4 -36 -31 -79 -60 l-80 -52 -65 12 c-35 7 -62 16 -60 20 7 11 68 10
100 -2 20 -8 32 -7 49 4 20 13 33 52 13 40 -5 -3 -5 -10 -2 -16 4 -6 -4 -3
-18 8 -14 10 -25 21 -23 24 2 3 -14 6 -36 8 -21 1 -51 7 -65 12 -23 9 -24 13
-13 26 10 12 23 14 54 9 22 -4 49 -7 60 -7z m-601 -7 c5 -8 -66 -11 -256 -11
-145 0 -566 -3 -935 -7 -505 -5 -673 -3 -673 5 0 9 123 12 468 14 257 2 675 5
928 7 330 2 463 0 468 -8z m800 -90 c21 -23 14 -56 -15 -71 -22 -12 -24 -7 -7
19 15 24 4 51 -22 51 -35 0 -46 -42 -28 -103 9 -29 19 -67 23 -85 4 -18 16
-37 28 -44 l22 -12 -25 -6 c-37 -9 -40 -61 -6 -101 48 -57 29 -151 -38 -183
-47 -22 -86 -20 -126 7 -30 21 -39 23 -79 15 -25 -5 -71 -7 -102 -3 -31 3 -68
1 -84 -5 -34 -13 -45 -5 -20 14 18 13 18 14 -3 25 -33 17 -17 31 19 18 26 -10
32 -9 40 6 6 10 22 17 42 17 18 0 52 5 76 11 42 9 46 8 65 -16 14 -18 27 -24
38 -20 14 5 16 16 11 53 -7 60 16 92 73 101 35 6 39 9 42 39 3 27 -1 35 -17
39 -12 3 -21 10 -21 15 0 5 10 6 21 3 21 -7 22 -5 16 33 -8 66 -38 117 -66
117 -13 0 -26 -5 -28 -11 -2 -7 4 -11 14 -10 29 2 21 -29 -9 -32 -19 -2 -28 2
-33 17 -13 42 31 80 75 66 11 -4 20 -2 20 4 0 19 39 51 63 51 13 0 32 -9 41
-19z m-2274 -40 c28 -11 66 -31 85 -45 29 -23 34 -24 39 -9 11 27 49 -21 86
-107 18 -41 47 -100 65 -130 18 -30 41 -79 51 -107 15 -43 23 -53 42 -53 28 0
40 -27 20 -47 -26 -26 -54 -1 -73 64 -9 32 -29 80 -43 107 -34 62 -132 146
-171 146 -28 0 -51 16 -51 36 0 7 8 10 19 7 31 -8 35 16 4 29 -15 7 -44 25
-65 40 -42 33 -108 58 -149 58 -29 0 -39 14 -16 23 29 12 110 6 157 -12z
m1250 9 c8 -5 13 -10 10 -11 -3 0 -14 -2 -25 -3 -66 -8 -100 -21 -141 -52 -26
-20 -60 -41 -76 -46 -29 -10 -34 -32 -7 -34 30 -2 32 -5 14 -24 -10 -11 -29
-20 -43 -20 -35 0 -128 -73 -163 -128 -34 -54 -38 -79 -6 -40 12 15 38 34 58
42 30 13 36 19 32 39 -3 14 2 29 11 37 19 15 21 14 30 -24 7 -27 6 -28 -11
-15 -17 13 -17 13 0 -8 11 -12 36 -24 63 -28 74 -11 52 -27 -26 -19 -80 8
-120 -4 -146 -43 -20 -31 -22 -86 -5 -107 33 -39 95 -1 71 44 -14 26 -24 25
-50 -2 -19 -21 -20 -21 -20 -2 0 29 19 44 56 44 17 0 37 7 44 15 26 31 90 5
90 -36 0 -26 -17 -32 -23 -9 -13 50 -67 27 -67 -29 0 -35 -28 -61 -65 -61 -46
0 -70 31 -69 89 l1 46 -19 -58 c-22 -65 -51 -89 -76 -64 -20 21 -8 47 21 47
21 0 28 10 47 63 12 34 31 74 42 89 10 15 40 72 65 125 45 97 68 133 85 133 4
0 8 -7 8 -15 0 -12 11 -8 45 15 25 17 62 37 83 45 43 16 140 19 162 5z m768
-94 c33 -32 33 -34 19 -62 -9 -18 -29 -34 -52 -43 -36 -13 -37 -12 -66 21 -34
39 -37 80 -8 109 27 27 63 19 107 -25z m-2840 21 c28 -33 24 -64 -12 -105
l-36 -39 -34 16 c-18 9 -40 29 -49 44 -16 27 -16 29 18 63 26 25 43 34 68 34
19 0 39 -6 45 -13z m93 -131 c-52 -75 -51 -97 4 -153 44 -44 45 -45 11 -5 -47
55 -46 65 1 21 33 -29 34 -30 10 -3 -35 39 -35 55 0 23 l27 -24 -27 33 c-32
40 -36 63 -5 36 l21 -19 -19 30 c-17 26 -17 28 -2 23 13 -5 15 -3 11 9 -5 12
-3 14 7 8 9 -6 11 -4 5 5 -5 8 -2 17 6 24 8 6 14 18 14 26 0 8 9 15 20 15 16
0 20 -6 18 -34 -1 -18 -11 -47 -23 -63 -21 -28 -21 -31 -6 -69 17 -42 22 -133
7 -127 -5 2 -39 31 -75 65 -84 80 -85 109 -7 212 37 48 38 20 2 -33z m2477 35
c6 -16 7 -32 4 -36 -4 -3 2 -3 12 1 13 5 17 4 13 -3 -4 -6 0 -14 9 -17 11 -4
14 -13 11 -27 -3 -12 -3 -18 1 -15 3 4 12 -8 19 -26 13 -30 12 -33 -19 -68
-18 -20 -12 -15 14 11 43 43 47 49 38 77 -4 17 -22 51 -39 76 -33 48 -36 56
-22 56 18 0 83 -111 84 -145 1 -29 -8 -42 -69 -98 -64 -60 -70 -63 -77 -43
-10 25 -1 79 19 117 12 24 11 30 -6 52 -23 28 -35 78 -27 102 10 24 24 18 35
-14z m-2202 -82 c-3 -17 -3 -42 0 -56 6 -20 11 -24 33 -20 14 3 34 1 44 -5 17
-9 17 -8 2 21 -14 28 -14 31 0 31 8 0 15 -6 15 -13 0 -25 70 -95 116 -117 114
-56 254 22 254 141 0 27 5 49 10 49 16 0 16 -101 0 -130 -5 -9 -2 -19 8 -27
16 -12 15 -15 -7 -33 -15 -13 -22 -27 -18 -39 3 -12 -3 -27 -14 -37 -21 -19
-35 -12 -41 21 -2 13 -12 21 -31 23 -26 3 -27 2 -16 -22 6 -13 9 -32 6 -40 -9
-23 -37 -20 -37 3 0 33 -11 51 -32 51 -16 0 -19 -5 -15 -21 8 -29 -2 -49 -24
-49 -14 0 -19 7 -19 30 0 20 -8 35 -26 47 -14 10 -47 36 -72 58 -25 22 -42 34
-38 28 5 -9 -2 -13 -23 -13 -38 0 -46 -14 -27 -42 17 -24 21 -65 8 -86 -14
-21 -62 34 -62 70 0 29 -1 29 -44 23 -28 -5 -46 -3 -51 4 -8 14 30 48 63 57
19 5 22 11 17 31 -7 31 4 93 17 93 6 0 8 -13 4 -31z m634 -23 c0 -27 6 -33 39
-47 48 -20 72 -55 78 -113 5 -38 2 -48 -21 -71 -21 -21 -33 -26 -54 -21 -35 9
-62 41 -62 75 0 14 -4 32 -9 39 -13 21 -46 10 -49 -16 -5 -33 -22 -27 -22 8 0
43 40 61 82 37 16 -9 40 -17 53 -17 25 0 58 -37 48 -53 -3 -5 -14 1 -23 14
-16 20 -20 21 -34 10 -32 -27 -13 -71 31 -71 41 0 54 49 27 106 -25 53 -61 67
-151 58 -83 -7 -98 9 -19 20 24 4 50 14 57 22 10 12 9 13 -5 8 -12 -5 -15 -2
-11 10 3 9 7 23 10 31 8 26 35 5 35 -29z"/>
<path d="M2085 5509 c-107 -88 -186 -212 -207 -327 -13 -70 3 -114 55 -149 66
-45 157 -21 157 42 0 14 -8 29 -20 35 -17 9 -20 8 -20 -13 0 -32 -22 -49 -56
-45 -73 8 -93 132 -39 243 32 65 161 205 189 205 24 0 120 -94 165 -161 67
-101 77 -197 25 -259 -42 -49 -111 -34 -97 21 6 21 -10 25 -24 7 -22 -29 -22
-48 1 -74 43 -51 133 -31 177 39 31 50 21 138 -26 235 -29 59 -58 97 -121 160
-46 45 -89 82 -96 82 -7 0 -36 -18 -63 -41z"/>
<path d="M3074 5230 c-1 -16 -12 -52 -26 -80 -16 -32 -21 -50 -13 -50 7 0 29
-11 49 -25 39 -26 66 -32 66 -15 0 6 -10 15 -22 19 -21 8 -21 10 -5 16 19 8
47 -10 47 -31 0 -8 -9 -22 -19 -31 -19 -16 -18 -17 15 -40 20 -13 56 -28 81
-33 25 -6 58 -17 74 -26 28 -14 31 -13 62 9 17 14 42 28 54 31 11 4 27 13 33
21 15 18 6 19 -21 4 -15 -7 -24 -7 -34 1 -7 6 -15 7 -17 3 -1 -4 -18 -19 -37
-32 l-33 -23 -57 18 c-70 23 -66 20 -47 39 9 9 16 14 16 10 0 -3 15 8 33 24
17 17 36 31 41 31 4 0 5 7 2 16 -4 9 1 27 9 40 21 32 10 30 -32 -6 -18 -16
-44 -31 -56 -31 -39 -2 -62 2 -73 14 -9 10 -39 84 -58 140 -9 28 -31 20 -32
-13z"/>
<path d="M3699 5540 c-21 -17 -22 -21 -9 -30 8 -6 30 -8 48 -5 19 4 32 2 32
-5 0 -5 -7 -10 -15 -10 -23 0 -18 -19 14 -55 16 -18 31 -39 34 -47 10 -25 47
31 47 71 -1 80 -93 130 -151 81z"/>
<path d="M459 5521 c-36 -37 -40 -96 -8 -132 13 -16 22 -20 25 -12 3 6 20 32
39 56 l34 44 -22 12 c-20 10 -18 11 13 7 20 -2 43 2 53 9 17 12 17 14 -5 29
-38 27 -95 21 -129 -13z"/>
<path d="M2001 4739 c-289 -57 -529 -263 -623 -536 -142 -410 58 -849 462
-1013 83 -34 208 -60 291 -60 60 0 71 -8 44 -30 -28 -23 -243 9 -344 52 -82
35 -51 11 39 -30 50 -23 88 -37 85 -32 -7 12 18 14 29 3 4 -4 22 -6 41 -5 41
4 51 -10 29 -43 -12 -18 -15 -39 -12 -75 l5 -50 -45 -25 c-49 -28 -56 -30 -47
-15 10 16 -6 11 -65 -20 -63 -34 -63 -35 4 -15 67 20 79 20 67 -4 -6 -10 -34
-26 -63 -36 -243 -78 -441 -274 -523 -515 -114 -336 7 -706 302 -916 232 -166
543 -195 800 -75 353 166 543 551 454 924 -84 352 -404 612 -763 619 -57 1
-68 4 -66 17 7 34 182 23 307 -20 76 -27 76 -23 -3 17 -43 22 -71 32 -75 25
-4 -6 -12 -7 -21 -1 -8 6 -32 10 -52 10 -42 0 -45 7 -22 52 11 21 14 43 10 73
-7 41 -6 42 37 64 24 12 48 21 53 19 11 -4 147 53 141 59 -2 2 -17 -2 -33 -8
-42 -16 -124 -38 -124 -32 0 19 25 41 52 47 18 3 79 29 136 57 276 137 446
416 444 729 -4 448 -369 805 -820 799 -48 -1 -107 -5 -131 -10z m259 -19 c253
-40 473 -198 585 -420 65 -130 80 -197 79 -365 0 -142 -2 -155 -32 -239 -47
-131 -102 -218 -202 -317 -73 -74 -102 -94 -193 -139 -59 -30 -110 -50 -114
-45 -5 4 -2 10 6 13 8 3 54 24 101 48 181 91 319 252 385 449 28 84 30 99 30
240 -1 138 -3 157 -29 230 -71 207 -200 358 -382 449 -194 96 -400 111 -602
42 -215 -72 -396 -252 -475 -471 -47 -131 -57 -259 -32 -391 30 -156 94 -282
203 -397 130 -136 301 -217 494 -233 45 -4 75 -11 71 -16 -8 -14 -120 -2 -216
23 -268 67 -494 298 -563 574 -25 101 -23 276 5 379 106 394 488 648 881 586z
m-55 -70 c10 -11 15 -23 11 -27 -4 -4 -11 -2 -15 6 -6 10 -10 9 -14 -3 -5 -11
1 -20 18 -28 22 -10 25 -16 19 -47 -13 -81 -16 -92 -37 -106 -54 -38 -97 0
-97 87 0 55 1 58 28 64 46 10 59 16 45 21 -7 3 -13 13 -13 22 0 36 27 41 55
11z m-311 -79 c42 -11 88 -27 101 -35 43 -28 70 -105 32 -91 -7 3 -25 -15 -42
-40 -16 -24 -37 -45 -46 -45 -24 0 -42 26 -41 60 0 23 -7 33 -34 49 -19 11
-39 32 -44 46 -10 26 -14 75 -6 75 2 0 38 -9 80 -19z m594 -7 c5 -38 -17 -74
-54 -90 -32 -14 -35 -17 -29 -45 7 -33 -15 -69 -43 -69 -12 0 -12 2 -1 17 8 9
9 14 3 10 -6 -4 -19 2 -29 13 -10 11 -36 25 -57 31 -34 9 -38 13 -32 32 19 59
79 101 165 116 67 11 73 9 77 -15z m-288 -157 c12 -10 21 -12 28 -5 17 17 65
-14 90 -59 13 -24 26 -67 29 -96 l5 -52 -56 -58 c-31 -31 -63 -57 -71 -57 -21
0 -19 14 5 35 11 10 31 38 44 61 24 43 24 44 8 96 -9 29 -18 55 -19 58 -2 2
-14 -8 -26 -22 -12 -15 -33 -29 -47 -31 -16 -3 -10 -5 16 -6 35 -1 43 -5 48
-25 6 -26 -16 -90 -42 -118 -11 -13 -30 -18 -67 -18 -55 0 -72 11 -80 49 -2
12 -7 26 -10 32 -4 6 -4 26 -1 45 6 30 11 34 39 36 l32 1 -34 4 c-23 3 -35 11
-38 24 -5 17 -9 12 -25 -22 -16 -38 -17 -49 -7 -98 7 -31 18 -63 26 -72 14
-16 8 -29 -12 -29 -7 0 -29 34 -50 76 l-37 76 17 51 c9 29 26 64 37 79 39 56
155 82 198 45z m-77 -356 c13 -13 -9 -74 -41 -111 -22 -25 -27 -40 -28 -97 -5
-141 -11 -176 -36 -195 -40 -31 -51 -17 -22 28 22 32 20 99 -4 155 -18 42 -18
47 -2 116 9 39 25 84 34 98 16 24 23 27 54 22 19 -4 40 -11 45 -16z m174 -38
c21 -70 23 -156 3 -203 -9 -22 -15 -65 -14 -112 1 -71 -6 -93 -20 -69 -3 4
-18 6 -32 3 -20 -3 -25 -2 -19 7 4 7 14 10 22 7 11 -5 13 -2 8 11 -4 10 -6 27
-5 38 3 22 2 48 -2 143 -2 51 -8 68 -32 98 -18 23 -31 52 -34 79 -5 47 -1 50
75 54 31 1 33 -1 50 -56z m-119 -184 c26 -183 25 -243 -8 -482 -11 -78 -20
-143 -20 -146 0 -3 -5 0 -10 5 -6 6 -22 105 -36 220 l-25 209 21 155 c11 85
23 168 26 183 12 61 29 14 52 -144z m23 -778 c57 -58 22 -151 -58 -151 -46 0
-93 45 -93 90 0 43 47 90 90 90 22 0 41 -9 61 -29z m144 -255 c90 -24 231 -98
307 -160 270 -224 355 -613 204 -932 -98 -207 -277 -358 -511 -430 -47 -15
-92 -19 -210 -19 -142 0 -154 2 -235 31 -264 94 -453 295 -522 553 -26 98 -28
276 -4 374 57 239 237 450 464 546 97 41 77 16 -31 -38 -403 -200 -551 -674
-332 -1066 86 -156 257 -295 430 -352 65 -21 105 -27 212 -31 121 -4 139 -2
225 22 211 61 385 199 481 385 104 199 116 450 30 656 -74 178 -236 336 -421
411 -74 30 -188 54 -253 54 -30 0 -49 4 -49 11 0 16 134 6 215 -15z m-174
-172 c31 -251 32 -304 7 -478 -14 -96 -28 -161 -35 -163 -13 -5 -14 0 -43 212
l-20 150 25 200 c14 110 25 206 25 213 0 8 6 12 12 10 8 -3 19 -56 29 -144z
m-142 -291 c7 -16 15 -78 17 -140 3 -103 6 -115 33 -160 17 -27 32 -63 36 -81
6 -34 7 -33 -72 -46 -38 -6 -39 -5 -63 82 -20 73 -19 86 6 177 11 43 14 79 10
128 -5 52 -3 67 7 67 8 0 19 -12 26 -27z m281 12 c0 -2 -9 -19 -20 -37 -26
-43 -25 -100 1 -163 l21 -51 -22 -82 c-12 -44 -28 -86 -35 -92 -8 -6 -31 -10
-52 -8 -38 3 -38 3 -37 46 1 33 8 50 30 73 25 26 29 39 30 92 1 34 5 91 9 128
6 56 11 67 34 81 27 17 41 21 41 13z m-162 -456 c60 -2 63 -3 27 -9 -28 -5
-32 -8 -15 -9 36 -2 64 -46 66 -104 2 -38 -1 -49 -14 -53 -9 -3 -26 -10 -37
-15 -17 -8 -15 -9 7 -4 19 4 33 -1 45 -15 19 -19 19 -19 32 25 10 34 10 56 2
97 -7 29 -17 55 -23 59 -12 8 -4 39 10 39 5 0 26 -34 47 -76 38 -74 38 -77 26
-122 -20 -77 -53 -118 -109 -136 -27 -9 -57 -14 -68 -11 -10 4 -7 -1 8 -10 27
-15 45 -55 39 -83 -1 -8 4 -21 12 -30 27 -33 32 -46 12 -39 -9 4 -23 3 -29 -2
-24 -18 -87 -23 -111 -7 -24 16 -24 15 0 123 3 12 15 25 26 28 21 7 20 8 -6
25 -25 17 -26 18 -9 29 11 6 15 11 10 11 -5 0 -17 -7 -27 -15 -39 -37 -98 9
-124 98 -24 79 -20 95 30 140 25 22 45 46 45 53 0 14 27 24 48 18 8 -2 44 -5
80 -5z m-218 -279 c0 -21 61 -66 83 -62 4 1 7 -3 7 -9 0 -5 5 -7 10 -4 23 14
8 -37 -20 -69 -34 -38 -88 -61 -162 -70 -48 -6 -48 -6 -48 25 0 43 17 69 56
85 29 12 33 17 24 34 -14 27 -13 37 10 60 22 22 40 26 40 10z m446 -15 c9 -14
14 -34 11 -45 -4 -15 2 -24 24 -36 54 -27 94 -124 52 -124 -32 1 -152 37 -177
54 -31 20 -60 72 -46 81 6 3 15 3 20 0 6 -3 10 1 10 9 0 8 11 24 26 35 14 11
25 22 25 25 -2 21 1 26 19 26 11 0 27 -11 36 -25z"/>
<path d="M750 3181 c-30 -10 -71 -26 -90 -36 -53 -27 -174 -112 -201 -141
l-24 -26 30 -25 c58 -47 178 -125 230 -149 30 -14 76 -27 104 -31 96 -11 181
44 181 118 0 56 -82 83 -87 29 -3 -25 -3 -25 7 -2 22 51 71 3 51 -51 -16 -42
-66 -67 -133 -67 -48 0 -71 7 -140 43 -99 51 -198 122 -198 142 0 19 116 105
199 147 77 39 170 49 218 25 53 -28 78 -117 32 -117 -10 0 -23 8 -28 18 -9 14
-10 14 -11 2 0 -37 46 -52 74 -24 54 53 -37 165 -131 163 -15 0 -53 -8 -83
-18z"/>
<path d="M760 3134 c-65 -22 -229 -118 -245 -144 -7 -12 83 -76 171 -121 62
-32 85 -39 133 -39 31 0 65 6 75 13 17 13 17 14 -8 30 -15 10 -26 27 -26 40 0
32 27 67 53 68 15 0 17 2 7 6 -26 9 -60 46 -60 63 0 10 9 29 21 44 l20 26 -26
10 c-27 10 -88 12 -115 4z"/>
<path d="M3384 3186 c-70 -32 -99 -119 -50 -151 19 -13 29 -14 45 -5 22 11 28
35 12 44 -5 3 -8 -2 -7 -12 0 -10 -7 -18 -21 -20 -30 -4 -42 41 -22 77 39 70
143 77 264 17 90 -46 206 -132 199 -148 -10 -24 -125 -107 -201 -145 -124 -61
-217 -50 -263 30 -11 20 -12 31 -4 44 16 26 35 28 41 4 6 -23 23 -29 23 -8 0
16 -31 47 -47 47 -5 0 -17 -8 -26 -18 -46 -50 6 -142 89 -160 50 -11 96 -3
170 28 80 35 254 161 254 185 -1 19 -134 116 -218 158 -95 47 -181 59 -238 33z"/>
<path d="M3410 3139 c-34 -14 -34 -14 -6 -42 34 -34 33 -53 -5 -88 -20 -18
-26 -29 -16 -29 17 0 32 -17 41 -47 5 -17 1 -29 -18 -48 l-26 -26 37 -15 c67
-29 154 -1 279 89 41 28 74 54 74 57 0 12 -98 80 -167 115 -76 40 -149 53
-193 34z"/>
<path d="M1934 951 c-21 -13 -38 -36 -49 -65 -15 -40 -16 -54 -5 -108 6 -35
26 -90 43 -123 38 -73 184 -225 216 -225 33 0 181 153 214 220 14 30 34 85 44
122 16 61 16 72 3 110 -19 55 -67 88 -126 88 -34 0 -47 -5 -63 -26 -25 -32
-26 -42 -4 -66 16 -18 17 -18 27 14 10 29 15 33 46 33 82 0 105 -127 46 -250
-29 -60 -162 -205 -188 -205 -26 0 -158 149 -188 212 -39 81 -41 158 -7 209
37 56 107 50 107 -10 l1 -26 19 24 c25 29 25 46 0 71 -26 26 -94 27 -136 1z"/>
<path d="M445 570 c-19 -36 -19 -63 -1 -99 26 -49 99 -66 145 -34 23 15 23 17
5 30 -12 8 -30 11 -52 7 -25 -5 -33 -3 -28 5 4 6 14 11 22 11 21 0 18 7 -21
53 -19 22 -35 44 -35 49 0 19 -21 6 -35 -22z"/>
<path d="M3800 592 c0 -5 -16 -27 -36 -51 -35 -40 -36 -42 -15 -48 34 -9 25
-26 -11 -19 -18 3 -40 1 -48 -4 -13 -9 -12 -13 9 -30 57 -49 150 1 151 80 0
20 -7 46 -16 58 -15 22 -34 30 -34 14z"/>
</g>
</svg>
