<svg version="1.0" xmlns="http://www.w3.org/2000/svg"
 width="691.000000pt" height="1056.000000pt" viewBox="0 0 691.000000 1056.000000"
 preserveAspectRatio="xMidYMid meet">
<g transform="translate(0.000000,1056.000000) scale(0.100000,-0.100000)"
fill="#000000" stroke="none">
<path d="M745 9730 c-11 -18 5 -64 28 -82 22 -17 22 -21 25 -347 3 -311 2
-332 -16 -375 -31 -68 -102 -97 -182 -73 -57 16 -83 54 -105 150 -18 77 -25
87 -67 87 -28 0 -28 0 -28 -67 1 -149 71 -241 199 -265 130 -24 237 35 277
153 16 49 18 86 15 391 l-3 336 27 18 c20 13 25 24 23 48 l-3 31 -92 3 c-58 2
-94 -1 -98 -8z"/>
<path d="M5223 9523 c-7 -1 -1007 -12 -2808 -29 -357 -4 -794 -9 -970 -13
l-320 -6 -5 -90 c-5 -88 4 -1679 14 -2445 3 -212 6 -704 7 -1095 1 -390 5
-867 10 -1060 4 -192 11 -771 14 -1285 3 -514 7 -987 9 -1050 2 -63 4 -419 5
-791 l2 -677 65 -7 c61 -6 480 -2 954 10 162 4 1934 19 2015 17 66 -2 251 -1
385 3 85 2 387 5 670 6 298 1 523 6 534 12 19 9 19 28 12 706 -7 726 -12 1315
-21 2601 -5 748 -11 1424 -20 2280 -3 234 -7 841 -10 1350 -6 1054 -13 1548
-20 1561 -5 7 -493 9 -522 2z m46 -59 c2 -2 -10 -35 -28 -73 -64 -140 -61
-253 10 -395 27 -53 38 -87 35 -102 -4 -13 -35 -66 -71 -119 -36 -54 -65 -105
-65 -116 0 -10 29 -56 64 -102 96 -126 93 -114 48 -210 -83 -171 -82 -309 2
-462 20 -37 35 -73 32 -81 -3 -7 -29 -17 -58 -23 -130 -27 -215 -93 -289 -227
-25 -43 -52 -80 -61 -82 -20 -4 -252 100 -279 124 -16 14 -18 26 -13 69 5 40
2 62 -15 100 -25 57 -26 74 -6 82 23 8 45 57 45 96 0 19 7 48 15 63 8 16 15
50 15 75 0 54 16 72 76 88 98 26 112 92 47 217 -22 43 -65 135 -94 204 l-53
125 -4 131 -4 131 36 72 c20 40 52 93 70 119 19 26 56 92 84 147 53 106 82
141 127 153 27 8 326 4 334 -4z m271 -9 c78 -40 114 -136 108 -284 -4 -99 -12
-122 -73 -230 -23 -40 -23 -45 -10 -72 9 -16 35 -53 59 -82 90 -111 90 -130
-5 -254 -67 -88 -68 -93 -20 -166 55 -85 75 -167 68 -282 -10 -186 -86 -288
-213 -288 -134 0 -218 128 -216 333 0 112 15 161 72 236 22 29 40 59 40 66 0
7 -34 55 -75 107 -54 68 -75 102 -75 122 0 19 23 64 66 129 37 54 67 110 67
124 0 13 -12 39 -26 58 -69 90 -88 190 -63 319 22 112 59 160 137 179 43 11
124 3 159 -15z m148 13 c9 -9 12 -103 12 -362 l-1 -351 -42 46 c-61 67 -75 95
-57 122 105 166 116 307 38 489 -18 42 -19 51 -7 59 20 12 43 11 57 -3z
m-3326 -28 c49 -14 70 -39 184 -215 53 -82 118 -180 145 -217 27 -36 63 -92
80 -125 17 -32 37 -70 45 -84 13 -23 12 -34 -7 -95 -11 -38 -52 -132 -91 -209
-122 -242 -144 -325 -113 -431 9 -33 24 -71 33 -87 19 -32 6 -64 -24 -59 -119
18 -146 12 -199 -50 -49 -57 -62 -122 -40 -193 14 -43 15 -58 6 -69 -7 -8 -82
-42 -168 -76 -207 -82 -530 -241 -673 -330 -63 -40 -149 -90 -190 -111 -41
-22 -90 -48 -109 -59 -24 -13 -38 -16 -46 -10 -9 8 -14 214 -19 808 -3 438 -9
973 -12 1187 -3 258 -2 395 5 405 9 13 82 16 513 20 277 3 535 7 573 8 39 1
87 -3 107 -8z m2088 -465 c69 -9 128 -21 133 -28 4 -7 5 -43 2 -82 -8 -101 20
-197 115 -393 85 -175 95 -215 59 -247 -20 -19 -21 -19 -55 19 -22 24 -40 36
-52 32 -109 -31 -101 -31 -126 -7 -46 44 -66 -10 -20 -55 26 -27 36 -27 124
-7 24 6 24 5 9 -13 -10 -10 -27 -40 -39 -66 -14 -31 -32 -51 -53 -62 -18 -8
-43 -26 -56 -40 -14 -14 -34 -26 -46 -26 -24 0 -45 -18 -45 -38 0 -10 14 -12
69 -6 68 6 111 -4 111 -27 0 -6 -13 -24 -30 -39 -36 -33 -38 -60 -9 -131 26
-67 22 -106 -13 -132 -24 -18 -49 -22 -190 -28 -152 -7 -572 4 -663 17 -103
14 -133 42 -120 110 14 78 34 111 79 132 59 28 112 90 130 153 20 67 20 98 0
149 -18 44 -49 71 -105 89 -20 6 -44 20 -53 30 -19 21 -16 37 54 296 29 106
33 136 34 260 2 113 5 140 17 143 132 24 537 22 739 -3z m-800 -51 c19 -50 11
-196 -15 -295 -14 -52 -39 -150 -56 -219 -40 -159 -44 -170 -69 -170 -11 0
-20 2 -20 4 0 16 45 213 71 311 28 104 32 140 35 265 2 80 3 146 3 148 3 11
44 -24 51 -44z m-83 -2 c10 -41 -5 -231 -26 -312 -10 -41 -30 -113 -43 -160
-65 -218 -60 -329 19 -408 l45 -45 -38 8 c-106 19 -129 60 -121 215 4 89 13
133 58 285 52 174 54 185 55 310 1 72 3 133 3 137 3 17 42 -7 48 -30z m-95 -4
c24 -45 14 -210 -22 -343 -85 -314 -100 -428 -65 -512 37 -92 125 -132 208
-95 49 22 67 45 67 87 0 22 -3 26 -17 20 -69 -30 -123 -1 -123 64 0 42 7 54
37 70 49 25 126 2 155 -47 60 -103 0 -235 -119 -260 -107 -23 -197 27 -254
144 -31 63 -32 66 -26 167 4 63 16 136 31 192 63 219 77 275 85 346 5 40 6 97
1 124 -4 28 -6 53 -3 58 9 14 33 6 45 -15z m-92 -17 c15 -29 12 -141 -6 -229
-8 -42 -46 -149 -83 -237 -38 -88 -74 -177 -80 -198 -10 -30 -17 -38 -34 -35
-19 3 -21 9 -19 38 2 19 19 73 39 120 95 231 146 430 127 505 -3 14 -4 32 0
40 8 21 43 19 56 -4z m-99 -22 c20 -20 21 -29 15 -92 -9 -99 -28 -164 -93
-329 -31 -79 -69 -190 -84 -246 -32 -120 -46 -143 -66 -116 -33 45 -11 145 74
349 70 164 93 255 93 361 0 79 4 90 33 93 4 1 17 -9 28 -20z m-93 -84 c4 -92
-5 -125 -95 -349 -64 -160 -77 -201 -81 -263 -8 -124 39 -203 121 -203 40 0
56 23 28 42 -73 52 -26 152 57 122 59 -21 83 -105 48 -172 -38 -73 -140 -95
-222 -47 -84 49 -120 158 -94 287 6 35 42 137 80 228 72 174 94 252 106 363 6
62 8 68 28 65 19 -3 21 -10 24 -73z m-94 39 c25 -65 -8 -199 -104 -415 -27
-61 -57 -137 -66 -168 -20 -69 -31 -86 -50 -70 -31 26 -16 78 96 329 46 104
70 197 70 276 0 28 3 54 7 57 12 13 41 7 47 -9z m-104 -24 c20 -12 17 -109 -5
-186 -9 -31 -40 -105 -70 -163 -29 -58 -67 -147 -84 -196 -45 -130 -98 -166
-89 -61 4 36 32 109 98 255 82 181 93 212 98 275 5 80 18 98 52 76z m-80 -85
c0 -44 -29 -123 -87 -240 -103 -205 -130 -293 -114 -367 9 -41 45 -88 66 -88
7 0 15 16 18 36 8 47 23 64 58 64 78 0 94 -107 25 -162 -14 -12 -39 -18 -75
-18 -106 0 -161 67 -161 198 0 96 24 165 115 332 76 140 105 211 105 258 0 16
6 34 12 40 18 18 38 -12 38 -53z m2805 -307 c10 -244 8 -253 -34 -146 -18 48
-44 102 -57 120 -13 17 -24 38 -24 46 0 15 91 151 101 152 4 0 10 -78 14 -172z
m1 -1475 c-12 -12 -176 106 -176 127 0 5 17 14 38 20 20 7 53 28 73 47 33 31
36 39 39 96 4 93 3 135 -3 207 -14 178 -20 220 -33 231 -8 6 -14 16 -14 21 0
5 -9 21 -20 35 -27 35 -25 64 9 118 16 26 42 81 58 123 l28 77 3 -549 c1 -302
0 -551 -2 -553z m-3107 920 c41 -38 48 -72 20 -107 -19 -24 -26 -27 -58 -21
-20 4 -42 12 -49 17 -20 17 -24 3 -12 -41 6 -22 19 -45 30 -51 22 -12 88 -12
148 -1 24 5 45 5 48 0 12 -20 -10 -52 -49 -70 -150 -67 -325 62 -278 204 30
90 138 127 200 70z m561 -37 c0 -15 -12 -34 -30 -49 -23 -20 -33 -41 -46 -97
-15 -65 -15 -73 0 -89 22 -24 20 -44 -6 -69 -103 -95 -318 -16 -318 118 0 37
23 85 45 94 54 20 125 -18 125 -68 0 -27 -33 -56 -62 -56 -24 0 -23 -14 5 -45
32 -37 81 -42 136 -13 51 27 70 55 26 38 -14 -5 -42 -10 -62 -10 l-36 0 71 75
c40 41 74 87 77 102 12 55 34 93 55 93 14 0 20 -7 20 -24z m365 1 c7 -28 -33
-148 -68 -204 -14 -23 -42 -54 -62 -69 -121 -92 -330 23 -270 149 21 45 58 62
97 46 34 -14 45 -50 29 -95 -16 -44 -8 -54 41 -54 36 0 47 6 82 43 28 29 49
64 65 112 13 39 28 76 34 83 16 20 46 14 52 -11z m1870 -92 c30 -38 61 -53 79
-35 8 8 6 15 -8 26 -25 18 -12 32 34 36 42 4 51 -20 25 -69 -15 -27 -24 -33
-51 -33 -18 0 -66 -7 -106 -15 -64 -14 -78 -21 -119 -62 l-46 -46 16 -43 c13
-36 13 -49 2 -94 -13 -51 -13 -53 13 -77 27 -25 35 -63 13 -63 -13 0 -124 62
-247 137 -36 22 -67 47 -68 57 -6 28 46 122 98 179 76 83 187 134 297 136 37
1 45 -3 68 -34z m235 -95 c0 -51 -23 -74 -94 -95 -31 -9 -58 -20 -61 -24 -6
-10 -102 -3 -137 11 -15 5 -29 16 -32 24 -6 15 2 44 13 44 3 1 29 2 56 4 28 2
70 13 95 27 64 34 101 47 133 48 25 1 27 -2 27 -39z m-2030 -56 c60 -11 179
-17 403 -21 182 -3 317 -9 317 -14 0 -18 -31 -83 -43 -91 -20 -13 -1177 -10
-1177 3 0 24 22 49 44 49 13 0 41 -7 62 -16 60 -26 134 -22 187 10 25 14 54
36 64 49 10 13 27 28 38 35 11 6 20 11 20 11 0 1 38 -6 85 -15z m848 -44 c1
-9 -70 -133 -158 -277 -88 -144 -160 -267 -160 -273 0 -15 16 -12 31 7 28 33
70 52 96 42 36 -14 174 -109 180 -124 3 -8 -32 -73 -77 -145 -65 -103 -86
-130 -103 -129 -12 0 -62 28 -112 62 -103 71 -111 88 -70 149 l26 40 29 -59
c16 -32 30 -65 30 -74 0 -14 10 -16 68 -12 76 6 102 25 102 75 0 46 -21 119
-37 125 -7 3 -42 -2 -78 -11 -85 -21 -88 -21 -81 10 6 21 3 25 -10 22 -16 -3
-214 -300 -214 -320 0 -6 -8 -17 -18 -26 -11 -10 -52 -69 -92 -132 -94 -147
-105 -160 -147 -160 l-33 0 21 43 c12 23 54 94 94 157 40 63 132 212 205 330
73 118 146 231 160 250 15 19 80 121 145 225 64 105 124 198 133 208 19 21 65
19 70 -3z m244 -32 c81 -38 89 -44 86 -67 -5 -40 -39 -38 -111 5 -78 47 -137
93 -137 106 0 19 70 0 162 -44z m-2093 8 c9 -10 12 -161 11 -561 0 -301 -2
-551 -6 -556 -10 -18 -44 -9 -60 16 -15 23 -17 84 -22 555 -4 419 -2 533 8
545 16 19 54 20 69 1z m3036 -16 c22 -25 13 -67 -18 -79 -110 -42 -272 -41
-317 1 -25 24 -23 45 7 65 20 14 24 13 46 -11 23 -25 25 -25 41 -7 19 21 44
29 126 40 88 13 96 12 115 -9z m-1019 -66 c54 -36 101 -69 102 -75 8 -20 -156
-277 -181 -285 -26 -8 -217 119 -217 145 0 30 161 281 180 281 9 0 61 -29 116
-66z m259 -20 c14 -15 13 -21 -16 -73 -17 -31 -118 -193 -224 -361 -106 -168
-290 -465 -410 -660 -120 -195 -226 -364 -237 -375 -16 -17 -20 -18 -28 -5
-18 28 -10 87 18 141 26 51 752 1216 814 1307 31 45 56 53 83 26z m-1603 -23
c4 -3 10 -47 13 -97 8 -114 4 -119 -107 -118 -58 0 -82 4 -89 15 -5 8 -9 50
-9 95 0 88 10 108 60 116 31 5 122 -2 132 -11z m520 1 c20 -20 18 -190 -2
-202 -25 -16 -176 -12 -189 4 -8 9 -11 46 -9 102 3 83 5 89 28 102 31 16 154
12 172 -6z m426 4 c15 -15 -111 -222 -128 -211 -6 3 -10 48 -10 100 0 117 9
130 83 121 27 -3 52 -8 55 -10z m-1437 -12 c14 -8 11 -178 -3 -192 -7 -7 -35
-12 -63 -12 -28 0 -56 5 -63 12 -8 8 -12 45 -12 100 0 82 2 89 23 98 21 10
100 6 118 -6z m-830 -14 c18 -10 19 -25 19 -376 l0 -365 -30 16 c-20 10 -31
25 -35 48 -9 48 -2 660 8 675 10 15 13 15 38 2z m3079 -33 c181 -103 472 -299
640 -430 55 -43 61 -51 58 -80 -3 -31 -32 -50 -47 -30 -8 11 -134 111 -201
160 -61 44 -357 233 -365 233 -3 0 -24 15 -48 33 -24 17 -69 46 -100 62 -62
33 -72 47 -57 76 16 28 37 24 120 -24z m339 -12 c13 -27 14 -28 27 -9 29 42
35 45 92 42 l57 -3 3 -47 c3 -44 1 -48 -24 -54 -14 -4 -61 -4 -103 0 -82 6
-111 25 -111 71 0 43 38 43 59 0z m-964 -233 c55 -37 101 -74 103 -83 3 -17
-22 -49 -38 -49 -4 0 -56 31 -114 70 -85 56 -106 74 -106 93 0 56 35 49 155
-31z m-355 17 c0 -11 -5 -29 -10 -40 -10 -18 -29 -19 -695 -19 -376 0 -690 3
-699 6 -20 8 -21 38 0 58 14 14 92 16 710 16 l694 0 0 -21z m830 -43 c115 -62
191 -110 315 -196 17 -12 44 -30 60 -41 94 -59 348 -256 426 -329 54 -50 72
-96 44 -106 -10 -4 -23 -3 -30 2 -7 5 -77 61 -156 125 -239 192 -383 293 -634
444 -148 89 -170 110 -145 140 14 17 24 13 120 -39z m-3600 -98 c0 -11 -7 -89
-16 -172 -34 -317 7 -678 108 -965 62 -175 177 -404 255 -507 12 -17 23 -37
23 -44 0 -7 8 -19 17 -26 10 -7 15 -16 11 -19 -14 -14 -195 165 -221 218 -77
153 -166 392 -207 554 -63 254 -85 569 -56 803 10 74 24 145 32 158 19 29 54
30 54 0z m3643 -58 c12 -18 12 -30 1 -88 -21 -104 -29 -351 -15 -472 23 -196
102 -493 142 -535 19 -19 19 -19 19 8 0 14 -9 41 -20 59 -11 18 -20 49 -20 68
l0 35 19 -29 c11 -16 22 -45 26 -64 4 -20 13 -45 21 -56 18 -26 18 -46 -1 -46
-8 0 -15 -9 -15 -20 0 -55 71 -160 95 -140 7 6 15 3 22 -9 10 -16 9 -18 -8
-14 -27 7 -26 -32 2 -55 11 -9 37 -42 56 -72 42 -66 98 -126 134 -146 25 -12
27 -12 22 6 -3 11 -11 25 -19 31 -8 6 -14 16 -14 22 0 6 35 -24 77 -67 59 -59
74 -79 64 -86 -24 -14 9 -51 119 -130 115 -83 133 -105 111 -139 -21 -33 -273
139 -391 268 -140 153 -308 380 -337 456 -6 17 -27 66 -47 110 -57 130 -115
337 -128 460 -25 236 -8 571 33 647 13 24 34 23 52 -2z m-3217 -124 c18 -13
19 -28 19 -228 1 -192 3 -225 28 -339 60 -281 187 -550 352 -744 108 -125 144
-161 240 -238 176 -141 296 -211 479 -278 105 -39 126 -53 119 -79 -3 -11 -9
-20 -13 -20 -22 0 -226 77 -310 116 -115 55 -290 170 -385 255 -252 224 -437
540 -530 903 -45 176 -59 308 -52 486 7 182 11 196 53 166z m-207 -23 c22 -16
40 -33 41 -40 1 -29 -161 -45 -210 -20 -31 16 -39 56 -14 74 10 7 45 13 81 13
52 0 69 -5 102 -27z m3670 -8 c32 -16 41 -33 41 -76 0 -38 -14 -37 -30 1 -13
32 -31 38 -49 16 -8 -9 -8 -21 -2 -39 12 -30 6 -37 -28 -37 -64 -1 -70 -51 -8
-61 20 -3 39 -8 42 -10 2 -3 -1 -22 -7 -43 -10 -31 -9 -39 3 -47 21 -13 24
-12 42 27 10 19 22 32 27 29 14 -9 12 -109 -2 -123 -35 -35 -96 5 -153 97 -19
32 -42 64 -50 71 -24 20 -18 38 38 116 66 93 87 105 136 79z m-1038 -92 c83
-57 99 -72 99 -94 0 -32 -23 -44 -53 -27 -43 22 -185 119 -197 133 -16 19 4
55 31 55 11 0 65 -30 120 -67z m463 12 c52 -27 81 -35 121 -35 80 0 102 -45
40 -80 l-30 -17 4 -85 c2 -69 -1 -94 -16 -129 -28 -61 -77 -106 -145 -131 -32
-11 -61 -25 -64 -30 -3 -4 0 -33 7 -63 14 -64 4 -85 -42 -85 -25 0 -30 5 -43
51 -23 75 -57 128 -115 177 -54 45 -61 62 -36 82 13 11 28 7 85 -19 114 -53
195 -40 247 39 17 24 23 47 23 89 0 73 -13 95 -85 153 -64 52 -76 76 -50 102
21 21 19 21 99 -19z m-3050 -20 c-9 -22 -92 -74 -131 -81 -65 -12 -125 21
-110 60 5 13 22 16 84 17 43 1 89 5 103 9 41 13 60 12 54 -5z m3756 0 c9 -10
13 -62 15 -163 2 -86 9 -180 19 -228 48 -236 162 -459 330 -642 55 -60 66 -78
66 -107 0 -19 -3 -35 -7 -35 -23 0 -76 46 -139 121 -210 249 -306 485 -344
844 -10 93 -3 186 15 216 9 14 31 11 45 -6z m-1238 -92 c55 -38 103 -74 105
-80 5 -13 -89 -174 -165 -282 l-45 -64 -20 39 c-25 51 -83 111 -129 135 -21
11 -38 27 -38 36 0 9 34 71 75 138 41 68 75 128 75 134 0 26 49 7 142 -56z
m1505 -107 l58 -54 -30 -12 c-16 -7 -65 -15 -107 -18 -61 -3 -83 -1 -103 12
-30 20 -41 56 -25 86 15 27 44 39 102 39 44 1 51 -3 105 -53z m-3468 -20 c29
-30 35 -46 52 -139 58 -322 228 -587 506 -789 79 -58 113 -97 113 -133 0 -23
-21 -18 -86 21 -32 20 -77 47 -99 60 -83 48 -218 200 -323 365 -88 136 -105
171 -141 281 -54 167 -89 368 -63 368 4 0 23 -15 41 -34z m812 -10 c47 -16
101 -59 130 -100 l22 -33 61 27 c152 68 244 53 350 -59 17 -17 33 -31 37 -31
3 0 33 16 65 36 55 33 63 35 117 30 115 -11 195 -70 222 -160 10 -32 15 -94
15 -176 0 -126 0 -127 -25 -138 -39 -18 -63 -14 -71 11 -5 12 -8 81 -9 152 0
147 -8 170 -72 200 -65 31 -154 1 -187 -63 -21 -40 -36 -135 -36 -223 0 -61
-3 -78 -16 -83 -26 -10 -61 -7 -72 7 -5 6 -12 73 -14 147 -6 215 -40 286 -141
297 -50 5 -120 -27 -150 -68 -25 -35 -40 -165 -31 -281 6 -80 4 -87 -14 -97
-30 -16 -68 -13 -87 6 -14 14 -16 30 -9 112 14 188 10 251 -17 306 -46 91
-135 125 -217 83 -85 -44 -87 -49 -90 -298 -3 -216 -3 -218 -25 -224 -37 -9
-65 4 -78 35 -7 19 -12 92 -13 202 -1 142 -4 177 -18 203 -44 80 -121 107
-224 81 -54 -14 -60 -14 -71 1 -41 52 9 93 122 99 83 6 122 -8 190 -67 l48
-41 31 29 c79 75 194 108 277 78z m-1436 -56 c23 -11 52 -32 65 -45 l24 -26
-119 3 -120 3 -9 27 c-7 19 -6 31 4 42 18 23 104 21 155 -4z m4169 -42 c20
-28 20 -62 1 -81 -18 -18 -142 -57 -182 -57 -44 0 -73 25 -73 64 0 43 26 65
92 82 87 21 144 18 162 -8z m-426 -41 c6 -7 14 -32 18 -55 8 -48 -9 -57 -40
-21 -16 19 -19 20 -33 6 -14 -14 -14 -20 4 -56 l20 -41 -34 -21 c-47 -29 -41
-53 17 -59 40 -4 45 -8 48 -32 6 -47 52 -64 52 -18 0 10 4 21 9 24 21 13 65
-90 50 -117 -13 -22 -60 -22 -102 -1 -52 27 -166 117 -173 137 -7 22 30 150
56 192 43 69 83 92 108 62z m-418 -16 c5 -11 10 -28 10 -39 0 -19 -153 -261
-174 -274 -18 -12 -40 -4 -44 15 -4 18 176 317 190 317 4 0 12 -9 18 -19z
m-3277 -12 c37 -10 37 -10 20 -34 -10 -13 -29 -26 -43 -28 -14 -3 -46 -11 -71
-18 -57 -15 -95 -6 -105 23 -12 37 35 68 104 68 31 0 74 -5 95 -11z m4161 -75
c22 -21 31 -61 17 -77 -6 -8 -51 -33 -101 -57 -79 -37 -94 -41 -116 -31 -48
22 -54 98 -9 127 35 23 127 53 162 54 17 0 39 -7 47 -16z m-4117 -11 c6 -17
-62 -88 -101 -107 -47 -22 -89 -20 -112 5 -28 31 -8 52 66 67 34 7 74 21 89
32 28 21 52 22 58 3z m2719 -124 c224 -76 386 -166 642 -353 81 -59 128 -119
170 -218 20 -47 12 -42 -117 77 -217 200 -462 346 -735 437 -67 22 -125 44
-129 48 -5 4 -6 17 -2 29 9 30 35 27 171 -20z m1448 -5 c12 -32 5 -62 -24
-102 -21 -29 -26 -42 -16 -42 47 0 66 -115 26 -158 -33 -35 -76 -28 -99 16
-15 28 -6 59 27 94 33 35 22 46 -23 25 -20 -9 -43 -17 -52 -17 -28 0 -53 31
-53 66 0 38 32 67 120 108 64 30 85 32 94 10z m-1450 -130 c22 -21 20 -50 -8
-109 -23 -49 -89 -125 -109 -125 -6 0 -8 26 -4 68 11 131 72 215 121 166z
m125 -58 c33 -35 21 -75 -35 -125 -38 -34 -116 -71 -146 -71 -5 0 7 19 26 43
20 24 48 70 62 103 38 82 54 91 93 50z m978 -38 c22 -29 56 -98 51 -104 -4 -3
-20 4 -36 16 -17 12 -35 19 -41 16 -21 -14 -10 -45 25 -72 l35 -27 -36 -34
c-30 -28 -35 -36 -25 -48 17 -20 25 -19 62 8 29 21 31 21 42 3 40 -67 72 -73
60 -10 -9 47 12 45 54 -6 21 -25 32 -49 30 -63 -3 -19 -10 -22 -58 -25 -56 -4
-215 23 -237 40 -13 11 -6 272 9 301 10 20 51 23 65 5z m-3669 -55 c3 -17 -2
-23 -15 -23 -10 0 -40 -16 -67 -35 -63 -45 -108 -60 -136 -45 -48 26 -6 81 86
110 79 26 128 23 132 -7z m2940 -25 c18 -18 15 -77 -4 -85 -9 -3 -32 -40 -52
-82 l-35 -76 -13 30 c-16 36 -18 98 -4 144 18 65 76 101 108 69z m-2950 -108
c-29 -48 -93 -100 -124 -100 -14 0 -30 10 -40 26 -22 32 -16 38 97 104 77 45
84 47 87 29 2 -11 -7 -37 -20 -59z m3057 26 c15 -22 15 -27 0 -58 -37 -78 -88
-138 -118 -138 -29 0 -40 26 -27 67 42 129 107 187 145 129z m-842 9 c26 -5
37 -13 41 -30 3 -13 8 -30 12 -38 3 -8 -2 -22 -11 -31 -15 -14 -74 -16 -605
-16 -338 0 -599 4 -613 9 -14 6 -29 23 -36 42 -15 44 -14 57 7 61 31 7 1169 9
1205 3z m244 -80 c232 -77 432 -211 640 -428 278 -292 437 -656 473 -1085 9
-112 0 -365 -13 -379 -4 -3 -17 1 -30 10 -24 16 -24 16 -30 254 -5 249 -17
337 -67 491 -34 103 -111 286 -126 298 -8 6 -14 18 -14 27 0 9 -33 65 -72 124
-79 118 -294 349 -335 359 -12 4 -23 12 -23 19 0 17 -185 137 -285 185 -44 21
-120 52 -170 69 -87 31 -125 57 -125 88 0 20 43 12 177 -32z m697 3 c34 -48 5
-102 -76 -142 -56 -28 -118 -35 -118 -13 0 7 21 33 48 57 26 24 59 61 75 82
31 43 49 47 71 16z m-3504 -146 c141 -95 167 -118 288 -252 235 -263 409 -627
454 -955 16 -114 16 -465 0 -545 -22 -110 -31 -130 -58 -130 -33 0 -38 30 -25
132 59 462 -32 886 -264 1233 -69 104 -172 225 -190 225 -8 0 -15 5 -15 10 0
6 -5 10 -11 10 -8 0 -7 -5 1 -15 7 -9 10 -18 6 -22 -3 -4 -27 13 -52 38 -42
41 -44 44 -22 49 21 5 21 7 -15 47 -36 39 -97 73 -97 53 0 -5 5 -12 10 -15 21
-13 9 -24 -15 -13 -27 12 -33 33 -12 41 17 6 -19 44 -64 68 -66 33 -99 68 -99
103 0 60 -1 61 180 -62z m4345 -10 c34 -24 37 -41 16 -75 -20 -33 -20 -33 -1
-62 20 -31 25 -93 11 -130 -7 -17 -11 -13 -30 29 -37 85 -51 135 -51 185 0 26
3 51 7 54 8 9 35 9 48 -1z m-3772 -19 c26 -7 20 -19 -15 -32 -55 -20 -126 -58
-143 -77 -34 -38 -95 -17 -95 31 0 67 138 110 253 78z m3132 -53 c0 -41 -3
-46 -33 -59 -18 -8 -35 -25 -38 -37 -5 -18 -17 -28 -66 -52 -15 -7 -7 64 11
103 28 61 66 97 99 93 25 -3 27 -6 27 -48z m-3814 -96 c33 -67 49 -176 30
-204 -14 -21 -62 -2 -81 33 -14 27 -14 29 14 52 l29 23 -31 27 c-35 29 -48 75
-37 131 6 35 7 35 26 18 11 -10 33 -46 50 -80z m683 63 c14 -10 15 -17 7 -40
-23 -60 -1 -64 46 -10 17 21 34 35 38 31 14 -13 -16 -123 -46 -170 -32 -50
-61 -65 -99 -53 -20 6 -21 12 -15 51 l6 44 -38 0 c-22 0 -44 5 -51 12 -13 13
-16 67 -4 83 18 24 54 48 84 55 48 11 52 11 72 -3z m3212 -17 c27 -11 28 -16
11 -103 -1 -7 16 -14 43 -17 42 -5 45 -7 48 -36 3 -27 -2 -35 -33 -54 -21 -13
-59 -24 -94 -27 -62 -6 -131 3 -131 15 0 5 20 18 45 30 42 20 66 52 28 38 -24
-10 -103 -20 -103 -13 0 22 43 90 82 130 49 49 60 53 104 37z m373 -370 c97
-200 131 -297 181 -505 53 -225 68 -454 45 -704 -17 -182 -22 -203 -56 -222
-36 -19 -40 1 -23 117 23 153 23 462 0 618 -44 305 -149 589 -319 866 -43 68
-77 130 -77 138 0 7 38 -22 84 -64 83 -77 86 -81 165 -244z m-1299 180 c156
-80 356 -270 457 -435 33 -55 72 -122 86 -150 33 -67 92 -254 105 -335 23
-136 23 -140 1 -140 -24 0 -57 32 -63 62 -31 151 -42 194 -66 258 -36 98 -79
190 -89 190 -4 0 -13 17 -19 38 -18 57 -179 252 -209 252 -7 0 -13 7 -13 15 0
16 -75 78 -157 132 -53 34 -83 75 -83 113 0 25 1 25 50 0z m-1955 -67 c-12
-31 -10 -38 8 -35 9 1 25 3 35 5 9 1 16 -3 15 -9 -21 -119 -9 -148 28 -68 16
33 25 42 33 34 15 -15 14 -148 -2 -187 -15 -35 -59 -58 -91 -48 -22 7 -24 13
-21 58 2 28 1 28 -42 22 -61 -8 -75 4 -62 52 6 21 15 47 19 58 5 13 -5 8 -31
-17 -44 -42 -55 -45 -78 -22 -58 58 46 169 163 173 28 1 32 -2 26 -16z m-310
-113 c201 -190 464 -347 745 -445 113 -40 136 -54 127 -79 -9 -24 -38 -20
-175 26 -208 69 -416 183 -635 346 -73 55 -94 77 -124 132 -19 36 -45 80 -56
99 l-20 34 29 -19 c16 -10 65 -52 109 -94z m-440 70 c54 -11 105 -26 113 -32
12 -10 14 -38 10 -150 -4 -116 -7 -141 -23 -158 -21 -23 -54 -23 -66 0 -22 42
-39 85 -39 98 0 13 3 12 19 -2 22 -20 61 -14 61 9 0 8 -16 27 -35 42 l-35 28
36 36 c36 37 38 59 6 59 -9 0 -26 -7 -36 -15 -30 -23 -52 -18 -66 15 -15 37
-55 44 -47 8 2 -13 8 -31 12 -40 13 -32 -17 -20 -62 24 -47 46 -51 59 -27 82
21 21 62 20 179 -4z m-197 -84 c194 -204 315 -440 357 -699 20 -124 21 -403 1
-410 -36 -14 -44 13 -49 183 -6 165 -19 248 -58 370 -55 172 -172 367 -308
512 -91 97 -103 133 -45 137 7 1 52 -41 102 -93z m2854 72 c23 -18 41 -90 25
-100 -14 -9 -1150 -11 -1196 -2 -17 4 -31 13 -31 20 0 8 -4 14 -10 14 -15 0
-12 67 3 73 6 3 278 6 603 6 458 1 594 -2 606 -11z m1218 -53 c6 -8 10 -22 8
-32 -3 -18 -103 -91 -126 -92 -7 -1 -20 -10 -29 -21 -19 -22 -43 -27 -43 -8 0
27 44 99 81 132 42 39 87 47 109 21z m50 -120 c39 -48 -61 -119 -160 -113 -30
2 -55 8 -57 13 -7 21 82 97 124 106 49 11 80 9 93 -6z m-2756 -47 c-15 -12
-40 -51 -57 -87 -29 -65 -41 -81 -64 -81 -21 0 -43 31 -43 62 0 55 60 113 149
144 30 10 37 10 39 -2 2 -8 -9 -25 -24 -36z m95 -2 c23 -27 -22 -158 -67 -199
-26 -24 -60 -14 -68 18 -8 31 7 74 46 131 16 25 30 49 30 55 0 14 46 11 59 -5z
m82 -83 c23 -82 -7 -173 -57 -173 -36 0 -39 22 -15 103 11 40 21 92 21 117 l0
45 20 -25 c10 -14 24 -44 31 -67z m-1557 64 c35 -26 16 -108 -32 -144 -48 -36
-71 -38 -82 -8 -14 36 -12 107 3 126 29 37 79 49 111 26z m1806 -198 c6 -194
11 -211 73 -250 40 -25 116 -21 155 8 55 41 67 83 69 252 0 84 5 157 11 163 5
5 27 8 48 6 l39 -3 5 -195 c5 -190 6 -196 32 -241 16 -27 39 -51 55 -57 91
-34 157 -21 199 40 l29 41 5 198 c3 127 9 202 16 209 6 6 27 10 45 8 l34 -3 6
-215 c4 -120 12 -232 18 -253 27 -85 119 -148 192 -132 41 9 89 52 110 100 16
35 19 68 19 261 0 186 2 224 15 234 19 15 43 -3 78 -59 21 -34 22 -48 22 -211
0 -161 2 -178 22 -216 43 -80 149 -113 230 -70 18 9 39 16 48 16 15 0 35 -37
35 -65 0 -25 -80 -58 -153 -63 -87 -6 -146 15 -189 69 l-31 39 -40 -36 c-128
-116 -297 -110 -395 15 l-37 46 -62 -33 c-125 -66 -217 -55 -318 39 l-64 61
-28 -20 c-42 -29 -90 -42 -154 -42 -46 0 -71 7 -125 35 -37 19 -68 35 -70 35
-2 0 -4 -9 -4 -20 0 -14 16 -30 48 -50 94 -57 89 -50 59 -105 -15 -26 -27 -54
-27 -62 0 -25 33 -9 57 27 50 78 64 91 97 88 17 -2 30 -7 29 -13 -6 -25 -409
-666 -449 -713 -33 -40 -44 -61 -44 -87 0 -24 5 -35 15 -35 20 0 30 -42 29
-121 -1 -97 -2 -99 -79 -99 -78 0 -80 5 -30 94 19 35 35 70 35 79 0 10 5 17
10 17 6 0 10 5 10 12 0 20 -80 -63 -107 -112 -105 -184 -136 -232 -161 -241
-30 -12 -52 -5 -52 16 0 8 18 44 39 79 44 71 52 97 34 103 -7 3 -26 -17 -42
-44 -48 -79 -72 -105 -91 -100 -24 6 -210 127 -210 136 0 31 81 161 100 161 4
0 9 -31 12 -68 3 -37 11 -78 18 -91 11 -21 17 -23 57 -17 101 14 140 55 113
120 -7 17 -15 43 -17 59 -6 33 -19 43 -38 27 -9 -8 -29 -9 -55 -5 -26 4 -46 3
-54 -5 -26 -21 -25 5 2 55 18 33 34 51 49 53 20 3 198 -106 215 -131 8 -13 1
-33 -30 -79 -15 -23 -22 -44 -18 -55 6 -14 9 -15 21 -2 35 36 503 791 498 805
-3 9 2 14 16 14 16 0 21 6 21 25 0 29 -28 35 -36 8 -3 -10 -10 -25 -15 -33
-51 -82 -66 -101 -82 -106 -24 -8 -211 125 -215 153 -3 22 66 144 86 151 9 3
12 -15 12 -61 0 -35 5 -79 11 -97 11 -31 13 -32 55 -26 62 8 122 41 130 70 3
14 -1 37 -11 56 -10 20 -14 42 -10 61 8 38 -16 49 -56 25 -22 -13 -40 -16 -75
-10 -53 8 -53 10 9 101 45 68 46 68 83 7 17 -29 25 -12 13 27 -12 38 -25 389
-15 414 4 12 17 15 48 13 l43 -3 5 -176z m-1706 49 c21 -29 20 -61 -1 -87 -20
-23 -158 -101 -179 -101 -23 0 -47 46 -37 73 9 29 68 97 82 97 6 0 14 6 18 14
18 31 97 34 117 4z m387 -70 c62 -43 95 -72 97 -86 11 -72 -72 -245 -124 -258
-36 -9 -51 11 -60 74 -9 71 8 70 52 -6 0 -1 9 0 18 4 20 8 21 34 1 60 -23 30
-18 52 16 69 46 24 35 50 -21 50 -45 0 -45 0 -50 40 -4 32 -9 40 -25 40 -16 0
-21 -8 -25 -40 l-5 -40 -17 25 c-23 35 -42 105 -34 126 12 32 76 11 177 -58z
m1197 -44 c3 -49 0 -55 -183 -349 -402 -648 -680 -1085 -693 -1090 -7 -3 -22
0 -33 5 -23 13 -26 62 -3 81 9 7 23 27 32 45 25 48 69 121 117 194 23 36 170
270 326 520 372 597 407 652 422 647 7 -2 13 -25 15 -53z m-640 20 c2 -14 -30
-74 -84 -158 -71 -112 -91 -136 -108 -134 -11 2 -22 11 -24 21 -3 17 96 185
155 265 27 37 56 39 61 6z m-863 -67 c23 -33 18 -66 -14 -97 -32 -29 -125 -60
-182 -60 -31 0 -37 4 -47 33 -18 49 -15 66 13 77 14 5 38 19 54 31 34 25 116
48 143 41 10 -2 25 -14 33 -25z m1019 1 c7 -13 17 -39 20 -59 8 -48 53 -109
111 -150 37 -26 45 -38 43 -59 -4 -36 -35 -36 -105 -1 -141 72 -263 5 -263
-143 0 -62 22 -97 98 -156 55 -43 58 -49 42 -81 -14 -25 -24 -24 -98 11 -35
17 -89 33 -120 36 -32 4 -62 13 -68 21 -18 22 -5 51 28 62 l30 11 -7 78 c-5
55 -3 92 6 123 19 62 79 119 157 147 l63 23 -7 69 c-3 37 -3 73 0 79 12 19 55
12 70 -11z m3070 -11 c11 -8 17 -23 14 -38 -2 -20 -15 -28 -83 -50 -44 -15
-95 -30 -114 -34 l-33 -7 18 32 c46 79 152 131 198 97z m32 -144 c6 -21 2 -31
-17 -46 -21 -16 -36 -19 -109 -15 -100 5 -122 13 -90 35 35 25 122 52 167 53
38 0 43 -3 49 -27z m-4085 -4 c32 -16 43 -57 23 -86 -21 -34 -67 -51 -155 -59
-86 -7 -97 0 -106 64 l-5 38 83 26 c92 29 130 33 160 17z m4095 -113 c18 -26
18 -41 -3 -61 -43 -43 -246 29 -217 77 4 6 46 8 106 6 85 -2 102 -6 114 -22z
m-4369 -78 c21 -18 40 -36 43 -39 8 -9 244 -197 336 -266 121 -92 289 -203
421 -278 123 -71 153 -95 153 -125 0 -29 -37 -30 -88 -3 -80 44 -172 100 -245
150 -18 12 -53 33 -78 47 -25 13 -64 41 -88 60 -24 20 -47 36 -52 36 -5 0 -26
15 -46 34 -21 18 -52 40 -68 49 -17 8 -58 39 -93 69 -34 29 -86 73 -114 97
-83 69 -138 138 -138 172 0 37 11 37 57 -3z m317 1 c53 -42 21 -110 -61 -125
-41 -8 -70 4 -129 53 -58 47 -61 80 -6 86 109 11 169 7 196 -14z m254 -4 c25
-18 142 -182 142 -200 0 -6 -18 -38 -41 -69 -38 -53 -41 -61 -34 -103 4 -31 3
-43 -4 -38 -6 3 -11 15 -11 26 0 16 -7 19 -54 19 -60 0 -74 10 -83 63 -7 46
12 56 32 17 24 -46 45 -39 45 15 0 43 1 45 28 45 16 0 37 6 47 14 16 12 17 16
6 29 -7 9 -27 17 -44 19 -31 3 -32 4 -29 49 4 59 -20 74 -44 28 -8 -17 -21
-29 -27 -26 -16 5 -21 95 -6 113 15 18 49 18 77 -1z m2570 -5 l32 -20 0 -549
c0 -480 -2 -550 -15 -561 -12 -10 -22 -10 -39 -2 -18 8 -25 21 -30 58 -3 26
-6 282 -6 570 0 413 3 524 13 524 6 0 27 -9 45 -20z m-1524 -207 c59 -38 105
-75 105 -84 1 -9 -8 -24 -19 -34 -18 -17 -21 -16 -67 10 -90 52 -172 119 -173
141 0 52 31 46 154 -33z m2760 17 c15 -14 16 -21 7 -39 -10 -18 -21 -21 -79
-21 -37 0 -92 -3 -122 -6 l-55 -5 39 36 c68 61 165 78 210 35z m-604 -50 c20
-20 20 -31 18 -377 -3 -335 -4 -358 -21 -361 -46 -9 -47 -3 -47 389 0 321 2
369 15 369 8 0 24 -9 35 -20z m-2225 -68 c55 -37 101 -74 103 -82 1 -8 -33
-71 -76 -140 -63 -101 -83 -126 -103 -128 -18 -2 -53 16 -114 58 -49 33 -93
67 -98 76 -9 16 -7 20 87 168 66 105 75 116 90 115 6 0 56 -30 111 -67z m2800
18 c30 -11 39 -31 31 -65 -9 -34 -42 -40 -124 -24 -65 13 -101 36 -102 66 0
24 145 42 195 23z m-4333 -116 c21 -15 38 -30 38 -33 0 -4 15 -15 32 -26 18
-10 63 -42 100 -70 90 -67 145 -106 182 -129 61 -38 181 -116 205 -133 14 -10
34 -22 45 -28 59 -28 168 -98 173 -111 7 -19 -14 -44 -37 -44 -33 0 -439 253
-604 376 -172 129 -206 162 -206 200 0 32 24 31 72 -2z m4192 11 c10 -8 44
-19 75 -25 86 -17 91 -20 91 -44 0 -45 -31 -55 -104 -35 -37 10 -126 87 -126
109 0 15 42 12 64 -5z m-4189 -162 c60 -40 135 -104 135 -114 0 -6 -17 -17
-37 -26 -21 -8 -42 -21 -46 -29 -4 -8 -14 -14 -22 -14 -8 0 -19 -9 -25 -20
-14 -26 -14 -344 0 -369 5 -10 9 -44 9 -76 -1 -32 4 -61 10 -64 6 -4 22 -22
36 -41 26 -36 33 -87 15 -121 -14 -26 -1 -24 51 6 96 54 189 36 251 -49 56
-78 62 -100 62 -246 1 -147 -7 -174 -75 -261 -16 -20 -29 -44 -29 -52 0 -8 32
-55 71 -103 106 -134 105 -116 16 -247 -42 -62 -77 -120 -77 -128 0 -8 20 -45
44 -82 66 -100 81 -195 51 -312 -21 -78 -57 -129 -109 -155 -50 -24 -124 -26
-181 -4 -69 26 -75 27 -94 10 -12 -11 -31 -16 -53 -14 l-33 3 -2 365 -3 365
25 -30 c14 -16 39 -44 55 -61 41 -43 39 -76 -12 -174 l-43 -82 0 -111 c1 -119
13 -180 44 -219 31 -38 35 -14 11 74 -39 145 -21 262 61 390 34 52 31 73 -15
98 -14 7 -26 22 -26 33 0 10 -16 37 -35 60 -29 34 -35 48 -35 88 0 39 6 56 35
93 19 26 35 54 35 64 0 10 14 26 30 35 41 25 39 54 -10 113 -90 109 -104 285
-34 442 20 46 21 54 8 59 -22 8 -32 -6 -58 -83 -51 -149 -41 -270 33 -410 23
-43 41 -85 41 -95 0 -9 -16 -37 -35 -61 -19 -23 -43 -54 -53 -68 l-19 -24 -7
94 c-4 52 -11 358 -15 680 -8 566 -5 900 8 900 4 0 24 -12 46 -27z m1324 -79
c96 -63 102 -69 99 -98 -2 -22 -9 -32 -23 -34 -26 -4 -219 127 -223 152 -4 20
15 46 33 46 7 0 58 -30 114 -66z m3152 -149 c4 -88 9 -622 13 -1186 6 -948 5
-1027 -10 -1040 -14 -11 -124 -15 -588 -20 -314 -3 -581 -2 -593 3 -15 5 -81
95 -184 250 -88 134 -171 253 -185 265 -13 12 -24 27 -24 33 0 6 -10 28 -22
49 -20 36 -21 41 -8 102 9 40 42 120 91 214 98 193 124 268 124 365 0 61 -6
86 -29 137 -38 84 -32 97 43 88 154 -18 250 89 207 230 -9 28 -16 58 -16 68 0
20 -11 15 275 132 105 43 206 89 225 102 19 13 42 23 51 23 9 0 22 7 29 15 7
8 20 15 28 15 26 0 284 148 416 237 67 46 128 82 136 80 12 -2 16 -31 21 -162z
m-1440 115 c24 -13 24 -25 -1 -50 -20 -20 -33 -20 -710 -20 -755 0 -718 -3
-692 56 l12 24 685 0 c454 0 693 -4 706 -10z m-2832 -46 c40 -8 83 -48 75 -69
-11 -29 -57 -42 -151 -44 -91 -2 -93 -2 -93 21 0 47 11 66 43 74 18 4 43 11
57 15 36 10 34 10 69 3z m2821 -79 c6 -3 10 -47 10 -101 0 -92 -1 -95 -26
-104 -35 -14 -77 -12 -97 3 -24 17 -34 141 -15 177 24 45 79 55 128 25z m-970
0 c17 -9 33 -28 40 -50 14 -41 4 -139 -15 -155 -8 -6 -50 -10 -106 -8 l-94 3
-3 100 c-2 85 0 102 15 112 23 18 128 16 163 -2z m523 0 c30 -30 33 -168 5
-202 -14 -17 -159 -18 -176 -1 -16 16 -16 190 0 206 18 18 153 16 171 -3z
m-2254 -82 c29 -15 36 -23 36 -48 0 -23 -5 -31 -22 -33 -17 -3 -24 3 -29 23
l-7 26 -28 -27 c-25 -24 -37 -27 -123 -32 -101 -5 -126 3 -126 39 0 21 26 49
45 49 7 0 18 -14 24 -31 13 -38 31 -29 31 16 0 23 5 35 18 39 32 9 144 -3 181
-21z m209 -42 c53 -32 116 -68 139 -79 70 -36 97 -102 53 -130 -11 -7 -20 -19
-20 -28 0 -9 -11 -25 -24 -35 -14 -11 -32 -39 -41 -63 l-17 -44 -127 -36
c-164 -47 -178 -46 -224 4 -38 42 -44 45 -67 30 -12 -7 -12 -12 4 -29 18 -20
18 -21 -8 -31 -37 -14 -51 -13 -66 5 -36 43 51 101 166 112 65 6 72 9 115 52
42 43 45 48 37 81 -4 19 -5 64 -2 100 5 58 4 67 -15 84 -21 19 -27 46 -14 59
9 10 6 12 111 -52z m-173 -95 c28 -19 33 -57 10 -76 -15 -12 -26 -10 -56 12
-13 9 -24 8 -51 -5 -73 -35 -202 -49 -226 -25 -30 30 -2 88 44 88 20 0 24 -5
24 -30 0 -16 5 -30 10 -30 6 0 10 16 10 35 0 27 5 38 23 45 34 15 183 5 212
-14z m2230 -46 c10 -16 -14 -49 -41 -56 -15 -4 -43 2 -74 15 -90 39 -158 23
-241 -54 -56 -52 -57 -52 -234 -29 -76 11 -214 18 -378 19 -143 2 -261 5 -263
8 -11 10 25 83 47 94 30 16 1174 19 1184 3z m-1721 -39 c17 -11 62 -31 99 -46
37 -15 82 -41 98 -58 27 -26 30 -36 28 -86 -1 -31 5 -71 12 -88 10 -26 11 -39
2 -60 -6 -16 -24 -57 -39 -93 -21 -50 -27 -82 -28 -140 -1 -83 4 -77 -101
-117 -64 -24 -83 -57 -65 -116 6 -22 45 -110 85 -196 95 -201 106 -242 104
-372 -1 -88 -5 -110 -24 -144 -12 -22 -26 -51 -30 -65 -4 -14 -24 -52 -45 -85
-20 -33 -61 -106 -90 -163 -37 -74 -60 -107 -81 -117 -21 -12 -68 -15 -198
-15 -93 0 -172 4 -175 9 -3 5 5 33 19 63 58 128 55 239 -10 375 -49 105 -47
121 30 228 43 60 65 99 65 119 0 21 -21 56 -75 127 -41 53 -75 100 -75 104 0
4 21 50 48 102 l47 96 0 117 0 117 -49 98 c-38 76 -45 99 -35 106 8 4 47 15
89 25 41 9 86 22 100 29 31 16 120 109 120 126 0 18 68 117 88 128 26 16 51
13 86 -8z m1944 -6 c100 -42 141 -139 86 -204 -21 -25 -33 -31 -67 -31 -51 0
-77 22 -77 66 0 27 6 36 30 49 16 8 36 15 45 15 29 0 11 24 -35 48 -50 26 -85
24 -158 -8 -37 -17 -44 -17 -49 -5 -24 65 125 111 225 70z m-2454 -44 l20 -21
-22 -22 -23 -23 -20 25 c-19 22 -22 23 -30 7 -13 -22 -62 -47 -94 -47 -14 0
-34 -9 -44 -19 -31 -31 -54 -39 -78 -30 -29 11 -31 66 -5 99 44 55 250 76 296
31z m2143 -7 c33 -21 63 -73 63 -109 0 -16 -9 -45 -20 -62 -16 -27 -26 -33
-52 -33 -39 0 -51 7 -67 37 -8 15 -8 30 -1 48 15 39 12 53 -10 65 -30 16 -82
-4 -118 -44 -16 -19 -42 -67 -57 -107 -33 -87 -45 -102 -69 -93 -15 6 -17 15
-12 56 13 93 73 206 131 244 53 35 158 34 212 -2z m683 -45 c75 -40 100 -75
100 -144 0 -56 -24 -104 -65 -131 -36 -23 -117 -15 -150 16 -53 50 -18 139 48
125 18 -4 36 -11 42 -16 22 -21 34 -9 24 24 -19 70 -87 95 -166 62 -45 -19
-63 -13 -63 19 0 28 32 52 87 65 47 11 97 4 143 -20z m-1400 -9 c135 -5 262
-14 282 -20 53 -15 81 -55 74 -103 -11 -67 -42 -114 -88 -135 -81 -37 -131
-109 -143 -208 -5 -40 -2 -58 17 -94 19 -38 35 -51 93 -81 39 -19 71 -42 73
-50 1 -8 -11 -68 -29 -134 -17 -66 -40 -154 -51 -195 -20 -80 -29 -239 -15
-301 9 -45 8 -46 -127 -60 -119 -13 -576 -6 -681 10 -90 15 -98 25 -90 116 5
59 2 83 -20 152 -39 123 -91 248 -135 322 -49 83 -55 141 -15 167 28 18 42 12
55 -22 14 -35 35 -39 95 -20 58 18 80 14 96 -16 16 -29 33 -7 24 30 -10 48
-27 56 -102 48 -64 -7 -66 -6 -51 11 9 10 25 37 37 60 12 24 34 51 49 60 15
10 37 28 49 40 13 13 34 23 51 23 37 0 65 21 57 42 -6 14 -18 16 -84 11 -63
-4 -79 -2 -91 11 -11 15 -9 21 18 49 37 38 38 51 12 135 -25 80 -25 85 4 119
22 25 31 28 117 34 147 9 255 9 519 -1z m590 -60 c0 -6 -7 -27 -15 -47 -21
-49 -19 -53 17 -46 l31 6 -7 -44 c-9 -58 -37 -149 -46 -149 -4 0 -13 7 -20 15
-12 15 -12 27 7 125 5 31 4 33 -9 22 -9 -7 -19 -28 -22 -46 -4 -19 -14 -40
-22 -47 -14 -11 -18 -10 -31 6 -26 36 -1 113 58 180 30 34 59 46 59 25z m680
-28 c0 -4 -18 -29 -40 -56 -46 -56 -49 -73 -15 -86 28 -11 32 -36 11 -66 -23
-30 -52 -7 -48 37 l3 34 -30 -35 c-25 -29 -31 -32 -45 -21 -23 20 -20 35 20
96 37 56 68 82 113 95 14 5 27 9 29 9 1 1 2 -2 2 -7z m-822 -226 c49 -25 92
-66 115 -110 19 -36 22 -56 22 -166 0 -117 -3 -134 -42 -270 -57 -197 -66
-248 -66 -368 0 -56 -4 -105 -9 -108 -38 -23 -58 110 -39 246 7 45 33 152 57
238 54 188 66 301 40 379 -26 78 -83 123 -156 123 -60 0 -97 -23 -109 -68 -15
-53 -16 -52 37 -45 44 5 51 3 70 -22 28 -35 28 -65 1 -99 -18 -22 -28 -26 -74
-26 -46 0 -58 4 -83 30 -34 34 -47 88 -37 151 8 47 75 124 116 132 40 9 125 0
157 -17z m420 -9 c60 -39 95 -118 95 -211 0 -78 -4 -90 -106 -336 -76 -184
-88 -232 -85 -325 3 -69 3 -70 -22 -70 -24 0 -25 2 -28 83 -4 104 13 169 79
319 97 219 115 301 85 391 -27 80 -96 124 -146 92 -12 -8 -10 -14 13 -38 67
-69 4 -152 -82 -108 -76 40 -64 163 21 217 45 28 122 22 176 -14z m322 -39
c53 -36 75 -90 74 -178 -1 -92 -16 -138 -101 -305 -37 -71 -81 -170 -98 -220
-37 -107 -60 -121 -59 -35 0 47 12 79 78 220 43 91 87 189 97 219 34 96 20
198 -32 235 -21 14 -24 14 -32 1 -5 -9 -6 -21 -4 -28 7 -19 -22 -67 -41 -68
-33 -2 -47 2 -64 23 -20 22 -24 79 -8 108 28 52 133 67 190 28z m-748 -55 c46
-22 62 -66 62 -168 0 -77 -7 -114 -47 -255 -58 -207 -71 -290 -64 -407 7 -97
-1 -116 -38 -89 -16 11 -17 27 -12 147 3 91 12 158 26 209 63 227 73 272 78
347 7 100 -11 157 -63 202 -19 17 -34 33 -34 35 0 9 63 -6 92 -21z m418 -89
c18 -54 7 -104 -61 -280 -34 -87 -73 -188 -87 -224 -20 -51 -25 -85 -27 -161
-2 -103 -6 -119 -35 -119 -33 0 -43 36 -35 122 8 101 34 191 94 336 27 64 57
144 66 177 43 151 58 194 65 190 5 -3 14 -22 20 -41z m306 -59 c9 -37 1 -62
-87 -252 -103 -225 -100 -216 -108 -302 -7 -82 -25 -107 -56 -81 -15 12 -16
26 -11 80 7 85 14 105 96 280 38 80 76 172 85 205 26 89 67 125 81 70z m-126
-19 c17 -22 -10 -119 -70 -246 -71 -151 -91 -214 -97 -310 -6 -97 -15 -115
-45 -99 -19 10 -20 18 -15 88 8 95 35 187 97 321 27 58 57 135 66 170 24 89
38 106 64 76z m-294 -30 c3 -15 -9 -62 -37 -132 -109 -284 -122 -331 -125
-446 -1 -59 -5 -112 -9 -117 -3 -6 -17 -11 -31 -11 -24 0 -24 1 -24 99 0 126
20 220 72 340 22 53 54 130 70 171 46 117 71 146 84 96z m-340 -41 c4 -15 -15
-108 -47 -237 -46 -188 -52 -224 -51 -308 1 -52 3 -108 4 -125 3 -26 -1 -30
-24 -33 -22 -3 -27 1 -34 30 -22 101 -2 264 61 472 13 45 29 108 35 141 17 83
43 112 56 60z"/>
<path d="M5404 9390 c-79 -32 -108 -211 -53 -327 27 -55 75 -79 125 -63 30 10
41 22 61 67 22 47 24 65 21 141 -4 104 -25 153 -73 176 -37 18 -50 19 -81 6z"/>
<path d="M5424 8842 c-19 -13 -95 -122 -105 -152 -12 -34 -1 -59 66 -142 57
-72 75 -74 115 -11 17 26 30 52 30 59 0 6 11 19 25 28 14 9 25 24 25 34 0 23
-48 98 -95 151 -39 43 -43 45 -61 33z"/>
<path d="M5402 8323 c-7 -3 -24 -28 -39 -56 -37 -74 -43 -172 -13 -251 36 -94
81 -123 146 -93 94 45 114 279 32 373 -26 29 -36 34 -72 33 -22 0 -47 -3 -54
-6z"/>
<path d="M1865 9137 c-239 -312 -447 -597 -466 -635 -31 -65 -37 -179 -14
-258 35 -123 105 -183 224 -192 54 -3 75 -1 107 16 44 23 96 75 134 137 l25
40 3 -70 c3 -72 -15 -175 -49 -272 l-19 -55 23 6 c12 3 68 6 124 6 l102 0 -29
78 c-34 92 -60 214 -60 274 l1 43 27 -33 c71 -86 119 -135 143 -148 84 -43
197 -20 270 55 36 38 50 61 64 114 25 95 17 199 -24 281 -39 79 -506 666 -529
665 -9 0 -35 -24 -57 -52z"/>
<path d="M4185 8920 c-82 -26 -189 -92 -193 -119 -4 -25 8 -26 48 -6 93 48
206 61 366 41 68 -8 72 -8 84 13 19 37 9 65 -30 78 -55 19 -205 15 -275 -7z"/>
<path d="M4187 8791 c-74 -24 -108 -47 -101 -66 8 -20 27 -19 71 5 39 20 87
27 81 11 -1 -5 -46 -37 -98 -72 -80 -54 -91 -64 -70 -67 73 -8 244 -48 256
-60 8 -7 14 -22 14 -33 0 -30 22 -22 57 20 30 35 31 41 20 70 -14 39 4 119 34
141 35 27 15 47 -54 53 -34 4 -82 8 -107 11 -29 3 -66 -1 -103 -13z"/>
<path d="M4450 8151 c-19 -10 -60 -36 -90 -56 -47 -32 -61 -36 -102 -33 -54 3
-57 0 -27 -28 32 -29 94 -23 185 19 44 19 90 38 104 41 14 3 34 12 45 20 16
12 18 18 9 33 -16 25 -80 27 -124 4z"/>
<path d="M4498 7376 c-67 -24 -88 -43 -88 -79 0 -38 10 -53 62 -91 28 -21 46
-27 75 -24 49 4 65 33 60 111 -5 82 -39 108 -109 83z"/>
<path d="M3966 6504 c-81 -20 -99 -37 -91 -89 3 -22 7 -57 8 -77 3 -51 20 -67
46 -44 15 14 29 16 59 11 55 -9 72 10 72 82 0 55 -17 134 -29 132 -3 0 -33 -7
-65 -15z"/>
<path d="M2699 3741 c-71 -8 -89 -22 -89 -73 0 -55 19 -126 36 -132 22 -8 105
12 142 34 37 23 41 50 13 96 -11 19 -17 41 -14 57 6 30 11 29 -88 18z"/>
<path d="M1437 2550 c-44 -35 -60 -96 -55 -208 4 -106 16 -137 64 -169 65 -42
130 -9 161 81 34 103 8 260 -51 301 -30 21 -89 19 -119 -5z"/>
<path d="M1483 1981 c-16 -16 -49 -59 -73 -96 -50 -76 -52 -66 33 -175 60 -76
73 -82 104 -44 106 127 109 155 27 268 -30 42 -57 76 -59 76 -2 0 -16 -13 -32
-29z"/>
<path d="M1447 1470 c-76 -60 -76 -300 0 -360 51 -40 128 -17 159 47 22 46 25
187 5 245 -26 77 -108 112 -164 68z"/>
<path d="M4950 2533 c0 -22 11 -57 25 -81 14 -24 27 -58 29 -75 2 -18 10 -58
17 -90 8 -38 9 -65 2 -79 -10 -24 -2 -32 -89 87 -51 71 -165 103 -250 70 -58
-22 -119 -76 -146 -129 -46 -89 -31 -267 31 -367 47 -76 501 -640 510 -634 5
3 25 29 44 57 19 29 62 85 94 124 71 85 298 380 341 444 46 69 63 133 63 232
0 67 -4 98 -21 135 -62 140 -205 195 -330 127 -31 -17 -65 -46 -81 -69 -15
-22 -38 -53 -50 -69 -21 -26 -23 -27 -29 -10 -14 37 25 241 66 348 5 14 -6 16
-110 16 l-116 0 0 -37z"/>
<path d="M2550 2435 c-41 -19 -81 -35 -88 -35 -7 0 -27 -7 -43 -16 -38 -19
-37 -54 4 -68 30 -11 80 11 181 77 38 25 60 32 98 32 53 0 59 6 26 29 -36 26
-96 19 -178 -19z"/>
<path d="M2576 1970 c-38 -40 -45 -53 -37 -68 5 -10 9 -41 8 -68 -2 -39 -8
-58 -30 -83 -45 -53 -41 -56 98 -65 60 -5 97 -1 148 12 81 22 128 53 110 73
-10 10 -21 9 -56 -9 -25 -12 -55 -22 -68 -22 -22 0 -22 1 12 36 18 19 58 47
87 62 78 38 83 49 25 57 -229 32 -247 39 -245 94 0 17 -1 31 -2 31 -2 0 -24
-22 -50 -50z"/>
<path d="M2921 1690 c-106 -49 -233 -63 -351 -40 -30 6 -67 8 -82 4 -24 -5
-28 -11 -28 -40 0 -31 4 -37 43 -54 53 -25 171 -26 248 -4 77 23 160 69 205
115 42 44 32 49 -35 19z"/>
<path d="M561 8463 c-132 -172 -181 -256 -181 -312 0 -55 38 -112 91 -140 42
-23 50 -24 87 -13 29 9 47 23 62 48 12 19 27 33 33 31 13 -4 10 -71 -3 -97 -4
-8 -10 -31 -14 -52 -6 -36 -6 -36 32 -43 40 -6 105 11 86 23 -6 4 -18 36 -27
71 -23 90 -12 102 46 51 30 -26 43 -30 88 -30 63 1 79 10 108 67 23 46 27 97
11 153 -7 25 -249 352 -293 397 -2 2 -59 -68 -126 -154z"/>
<path d="M6242 2532 c-10 -7 -10 -16 1 -48 21 -60 27 -99 16 -114 -8 -13 -12
-12 -27 5 -49 58 -135 74 -184 35 -60 -46 -76 -153 -35 -228 24 -46 268 -361
279 -362 8 0 207 254 257 329 66 100 51 235 -33 275 -18 9 -44 16 -56 16 -33
0 -87 -29 -105 -56 -28 -43 -38 -30 -31 39 14 119 16 112 -29 115 -22 1 -46
-2 -53 -6z"/>
<path d="M6220 1654 c-53 -23 -98 -72 -120 -131 -19 -50 -20 -78 -20 -398 0
-235 -3 -345 -11 -345 -5 0 -17 -16 -25 -36 -13 -31 -13 -39 -2 -50 15 -16
165 -24 186 -10 19 12 5 67 -24 91 l-24 21 -1 336 c-1 310 0 339 17 375 22 45
71 73 129 73 92 0 155 -71 155 -177 0 -57 14 -73 64 -73 21 0 26 6 31 33 9 47
-10 143 -39 191 -50 85 -108 116 -213 116 -38 -1 -84 -8 -103 -16z"/>
</g>
</svg>
