<svg version="1.0" xmlns="http://www.w3.org/2000/svg"
 width="691.000000pt" height="1056.000000pt" viewBox="0 0 691.000000 1056.000000"
 preserveAspectRatio="xMidYMid meet">
<g transform="translate(0.000000,1056.000000) scale(0.100000,-0.100000)"
fill="#000000" stroke="none">
<path d="M795 9886 c-17 -12 -18 -17 -7 -40 25 -55 15 -84 -80 -238 -50 -82
-103 -158 -117 -170 l-26 -20 -3 164 c-1 89 0 173 3 186 4 14 19 29 41 38 31
13 35 18 32 47 l-3 32 -120 0 -120 0 0 -34 c0 -30 4 -36 29 -42 16 -5 33 -14
37 -21 5 -7 9 -185 9 -395 l0 -382 -22 -15 c-12 -9 -30 -16 -40 -16 -14 0 -18
-8 -18 -39 0 -47 9 -51 136 -51 98 0 114 7 114 51 0 22 -8 31 -38 46 l-37 18
0 90 c0 78 4 97 27 145 36 72 108 157 118 138 4 -7 36 -93 70 -191 50 -144 60
-180 50 -192 -7 -8 -19 -15 -26 -15 -10 0 -14 -13 -14 -39 0 -51 12 -55 146
-46 l105 7 -3 36 c-3 32 -7 37 -37 43 -18 4 -39 13 -47 20 -15 15 -184 483
-184 508 0 19 10 38 90 169 68 113 89 132 137 132 27 0 34 5 39 27 13 50 -3
58 -117 61 -78 2 -109 -1 -124 -12z"/>
<path d="M1153 9563 c-7 -2 -15 -19 -18 -36 -2 -18 -9 -1881 -15 -4142 -5
-2261 -13 -4155 -16 -4210 -3 -55 -1 -106 4 -113 7 -11 75 -15 328 -17 566 -6
4271 -6 4287 0 20 8 25 855 32 5162 4 3008 3 3333 -11 3347 -14 14 -243 16
-2297 15 -1255 0 -2287 -3 -2294 -6z m1318 -62 c9 -9 74 -131 145 -271 70
-140 135 -264 144 -275 10 -11 25 -40 34 -65 16 -44 16 -47 -10 -135 -14 -49
-31 -110 -36 -134 l-10 -43 -37 7 c-20 5 -53 8 -73 9 -73 0 -128 -87 -112
-177 9 -57 55 -101 127 -122 63 -18 79 -43 60 -94 -8 -24 -12 -26 -65 -23 -77
4 -114 -16 -140 -76 -18 -41 -20 -52 -9 -91 6 -24 20 -56 31 -70 26 -37 104
-78 186 -97 92 -21 97 -26 92 -91 -6 -75 -16 -81 -71 -42 -145 102 -299 -14
-252 -191 8 -30 11 -57 7 -61 -4 -3 -54 -18 -111 -33 -275 -73 -502 -176 -741
-339 -25 -17 -72 -49 -105 -71 -33 -22 -120 -88 -194 -148 -74 -59 -140 -108
-148 -108 -16 0 -16 208 -6 1738 l6 1014 21 9 c12 5 280 6 636 3 553 -5 617
-8 631 -23z m2522 12 c25 -15 -23 -118 -71 -152 -32 -22 -171 -71 -204 -71
-13 0 -42 -9 -65 -19 -32 -15 -48 -31 -67 -68 -13 -26 -31 -57 -40 -68 -15
-20 -15 -19 -16 6 0 51 -57 143 -135 218 l-74 72 -33 -24 c-18 -14 -64 -39
-103 -56 -85 -39 -111 -62 -140 -124 -25 -54 -30 -52 -55 23 -13 39 -24 50
-81 85 -37 22 -83 55 -103 73 -20 17 -43 32 -51 32 -7 0 -35 -18 -60 -40 -25
-22 -52 -40 -59 -40 -28 0 -95 -71 -114 -122 -20 -54 -23 -54 -41 3 -16 49
-50 78 -167 139 -102 54 -134 59 -134 22 0 -15 9 -21 41 -25 48 -6 155 -57
199 -93 42 -36 42 -84 0 -126 -26 -25 -36 -29 -63 -24 -38 8 -52 20 -44 40 5
11 14 14 36 10 23 -5 32 -2 37 10 14 38 -51 62 -88 34 -9 -7 -21 -32 -27 -55
-18 -68 -73 -67 -90 2 -13 50 -53 75 -90 55 -39 -20 -22 -53 28 -54 34 -1 37
-21 7 -41 -24 -16 -28 -16 -63 2 -80 39 -64 114 39 184 67 46 80 61 40 50 -82
-24 -145 -84 -163 -156 -6 -25 -13 -45 -16 -45 -18 0 -46 27 -63 59 -27 53
-71 88 -138 107 -89 26 -177 69 -200 99 -24 30 -29 80 -9 89 14 6 2428 -4
2440 -11z m705 -5 c9 -9 12 -289 12 -1199 0 -652 -3 -1201 -6 -1218 -9 -42
-32 -40 -72 5 l-32 36 0 922 0 923 -28 41 c-47 70 -152 182 -172 182 -10 0
-46 -32 -81 -72 -35 -40 -75 -83 -88 -94 l-25 -22 -8 -623 c-11 -944 -12
-1007 -21 -1015 -4 -5 -21 -3 -38 3 -46 18 -149 87 -146 98 2 5 30 23 63 40
49 25 61 36 71 68 35 106 -38 196 -157 197 -48 0 -99 21 -124 51 -42 50 -58
134 -76 389 -13 180 -37 316 -75 415 -49 130 -50 133 -36 173 7 20 35 71 61
112 26 41 77 127 113 190 139 246 218 376 238 393 19 15 50 17 318 17 218 0
300 -3 309 -12z m-1868 -162 c100 -58 127 -87 136 -143 11 -75 -33 -88 -56
-16 -17 51 -44 80 -110 113 -52 26 -57 27 -85 13 -44 -23 -103 -82 -110 -112
-8 -31 -33 -61 -52 -61 -16 0 -17 22 -2 75 16 57 46 95 93 116 23 10 55 28 71
39 17 11 32 20 35 20 3 0 39 -20 80 -44z m584 -56 c61 -64 76 -86 76 -111 0
-67 -41 -99 -95 -73 -48 22 -47 47 0 38 31 -5 35 -4 35 15 0 11 -11 28 -24 36
-32 21 -60 7 -84 -43 -14 -31 -22 -37 -47 -37 -28 0 -30 3 -30 37 -1 64 -60
101 -99 62 -18 -18 -18 -17 -10 -38 5 -13 14 -15 41 -10 33 6 34 5 24 -14 -6
-11 -20 -24 -31 -27 -29 -9 -88 13 -95 36 -9 26 4 80 24 103 20 23 188 105
217 106 14 0 48 -28 98 -80z m-1687 25 c27 -8 69 -29 92 -45 44 -33 101 -112
101 -142 0 -35 -37 -19 -73 31 -45 62 -93 99 -154 117 -43 13 -62 27 -63 47 0
11 42 8 97 -8z m2146 -44 c-8 -31 -34 -48 -93 -60 -78 -16 -115 -42 -145 -101
-18 -36 -31 -50 -43 -48 -43 9 9 141 71 179 18 10 43 19 57 19 14 0 48 7 75
14 72 20 84 20 78 -3z m511 -226 c-1 -39 -5 -102 -9 -142 -6 -52 -3 -94 10
-157 18 -92 16 -121 -16 -245 -24 -95 -24 -165 1 -266 26 -106 25 -156 -6
-272 -29 -112 -28 -175 6 -281 27 -84 25 -132 -6 -233 -35 -110 -37 -234 -6
-329 28 -85 27 -138 -3 -240 -31 -104 -33 -198 -4 -300 30 -108 34 -183 14
-265 -9 -38 -20 -101 -25 -140 -8 -62 -13 -73 -41 -97 -18 -16 -37 -28 -42
-28 -4 0 -17 20 -27 44 -27 60 -28 116 -11 1576 5 520 12 961 15 980 3 19 1
88 -4 153 -11 134 -2 191 36 232 13 14 24 28 24 31 0 17 59 55 80 51 12 -2 15
-17 14 -72z m-1408 -202 c25 -14 60 -114 74 -211 13 -90 11 -256 -4 -429 -11
-123 -15 -146 -34 -166 -12 -13 -26 -44 -31 -69 -4 -26 -20 -61 -35 -78 -20
-25 -26 -42 -26 -80 l0 -49 -61 -32 c-33 -18 -71 -46 -85 -62 -30 -36 -28 -67
11 -134 32 -54 62 -63 106 -32 l32 22 18 -22 c11 -13 19 -29 19 -36 0 -19 -45
-52 -80 -60 -52 -11 -79 12 -134 115 -47 88 -51 93 -54 63 -2 -18 8 -60 22
-95 14 -34 24 -64 21 -66 -10 -10 -29 16 -71 96 l-45 87 6 -68 c7 -79 -6 -86
-40 -24 -27 50 -39 47 -31 -8 8 -53 -4 -58 -36 -15 -27 37 -38 38 -38 5 0 -30
-15 -32 -32 -5 -20 31 -97 28 -132 -5 -38 -35 -106 -33 -106 4 0 28 -21 41
-66 41 -53 0 -105 18 -125 43 -16 19 -17 18 -40 -24 -13 -24 -32 -45 -41 -47
-15 -3 -15 1 -2 39 8 23 14 51 12 63 -2 15 -11 6 -38 -39 -19 -32 -45 -65 -58
-73 -20 -13 -19 -9 13 59 38 82 60 191 30 154 -9 -11 -23 -43 -31 -72 -8 -28
-33 -74 -55 -101 -21 -28 -39 -55 -39 -61 0 -36 -138 -48 -198 -17 -52 27 -80
100 -62 165 14 52 49 82 104 88 42 5 48 3 81 -30 38 -38 43 -63 20 -107 -13
-24 -22 -30 -49 -30 -41 0 -64 23 -46 45 7 8 19 15 26 15 19 0 18 29 -1 36
-27 11 -65 -23 -65 -58 0 -72 69 -90 150 -38 88 57 120 164 101 340 -20 188
-6 443 26 476 17 16 49 19 58 4 3 -5 17 -10 31 -10 14 0 22 4 19 10 -3 6 -15
10 -26 10 -10 0 -19 6 -19 14 0 9 17 15 58 18 37 2 80 14 115 32 31 15 62 24
68 20 16 -10 5 -87 -26 -180 -36 -108 -36 -137 1 -174 16 -17 39 -32 51 -34
12 -3 33 -12 47 -21 25 -17 26 -16 26 2 0 29 -27 61 -59 68 -16 3 -37 15 -47
26 -17 19 -17 22 4 82 12 34 28 94 37 132 8 39 25 99 36 133 25 75 21 123 -14
161 -13 14 -29 39 -35 54 -12 27 -15 28 -53 22 -27 -5 -64 -1 -109 11 -56 14
-78 16 -115 7 -26 -6 -48 -7 -51 -1 -12 19 8 69 31 78 12 5 108 15 211 24 230
18 846 17 880 -1z m206 -40 c55 -64 69 -188 67 -589 -1 -181 2 -372 5 -424 7
-99 -2 -142 -24 -110 -28 42 -32 98 -24 320 15 401 11 574 -17 685 -20 85 -38
119 -55 103 -2 -3 6 -45 18 -94 24 -97 27 -240 18 -744 -4 -205 -3 -242 13
-292 34 -110 116 -168 189 -134 46 22 63 58 46 94 -19 39 -44 35 -40 -6 2 -26
-3 -35 -23 -44 -58 -26 -90 68 -40 117 56 57 167 12 188 -77 18 -71 -38 -154
-112 -168 -93 -17 -186 31 -235 120 -58 106 -68 257 -36 516 38 304 36 505 -5
642 -17 55 -13 75 18 90 30 15 32 14 49 -5z m170 -58 c38 -130 50 -237 58
-545 5 -168 14 -326 19 -352 15 -72 -3 -102 -33 -55 -30 47 -37 131 -34 447 2
311 1 317 -25 430 -30 130 -32 143 -15 138 7 -3 20 -31 30 -63z m157 -63 c21
-41 30 -108 61 -457 12 -126 27 -273 34 -325 8 -52 12 -97 10 -99 -12 -13 -35
17 -53 71 -29 86 -39 182 -51 463 -6 140 -16 264 -24 298 -13 51 -13 87 0 87
2 0 12 -17 23 -38z m71 -2 c32 -63 48 -151 64 -365 22 -277 34 -379 53 -452
18 -68 13 -88 -16 -57 -38 39 -63 198 -81 509 -10 160 -31 338 -46 388 -10 31
5 18 26 -23z m-124 -88 c9 -42 18 -170 24 -342 5 -151 11 -284 14 -295 26 -98
37 -158 32 -172 -6 -14 -8 -14 -25 1 -37 33 -50 142 -55 461 -4 207 -10 325
-20 380 -19 97 -19 97 0 62 8 -16 22 -58 30 -95z m-1350 70 c89 -46 125 -97
92 -130 -19 -19 -40 -15 -112 23 -44 23 -81 35 -107 35 -40 0 -52 13 -23 24 9
3 24 6 35 6 10 0 19 7 19 15 0 25 -81 19 -123 -9 -28 -20 -37 -22 -41 -10 -7
18 9 60 26 68 7 3 54 4 103 3 68 -3 100 -8 131 -25z m1206 -68 c6 -38 12 -220
13 -404 2 -184 8 -355 13 -380 11 -50 10 -55 -13 -46 -37 14 -40 50 -41 471 0
226 -4 421 -8 435 -8 23 -7 24 8 9 10 -9 22 -46 28 -85z m-1508 -36 c22 -84
-14 -181 -78 -212 -42 -20 -57 -20 -101 -2 -41 17 -75 68 -75 113 0 37 40 90
73 95 60 10 111 -39 89 -87 -12 -25 -45 -34 -57 -15 -12 19 -35 10 -35 -13 0
-55 72 -66 113 -17 22 26 47 103 47 145 0 23 17 17 24 -7z m1911 -178 c8 -58
21 -186 30 -285 8 -99 19 -193 24 -210 28 -92 19 -110 -18 -36 -34 66 -52 179
-61 386 -4 110 -11 229 -14 265 l-6 65 15 -40 c9 -22 22 -87 30 -145z m848
-865 c-6 -226 -6 -377 -1 -388 11 -21 2 -36 -11 -21 -5 5 -6 153 -1 344 6 285
5 339 -7 364 -13 25 -13 52 -4 185 6 86 12 206 13 266 1 73 5 27 11 -135 6
-157 6 -378 0 -615z m-2770 748 c-20 -227 -40 -284 -111 -315 -57 -26 -102
-18 -136 23 -31 37 -34 82 -6 126 44 73 159 45 130 -31 -12 -31 -46 -35 -55
-6 -3 11 -11 20 -16 20 -16 0 -22 -30 -11 -56 9 -18 19 -24 45 -24 54 0 75 32
98 146 20 102 42 164 58 164 5 0 7 -21 4 -47z m2087 -827 c0 -7 -47 -85 -104
-172 -266 -407 -415 -735 -516 -1135 -68 -270 -98 -576 -87 -906 6 -164 5
-173 -14 -183 -29 -16 -55 3 -64 47 -12 60 -13 76 -15 288 -4 277 25 516 95
796 95 380 254 746 483 1112 65 105 135 167 188 167 22 0 34 -5 34 -14z m-206
-17 c21 -6 34 -14 30 -19 -5 -4 -106 -60 -224 -125 -118 -65 -301 -167 -407
-226 -105 -60 -205 -112 -221 -115 -25 -5 -70 12 -239 91 -114 53 -291 133
-393 177 -136 59 -194 89 -217 114 -18 19 -35 29 -38 24 -3 -6 -1 -10 4 -10 6
0 11 -6 11 -14 0 -7 25 -65 56 -127 87 -176 125 -260 138 -309 7 -25 32 -106
55 -180 73 -239 119 -496 142 -799 11 -146 10 -154 -8 -172 -11 -11 -32 -21
-49 -22 l-29 -2 -12 160 c-16 219 -29 325 -64 498 -51 257 -178 603 -325 886
-35 68 -64 132 -64 142 0 40 58 37 109 -6 30 -26 30 -26 41 -5 6 11 15 20 21
20 5 0 104 -43 219 -95 452 -205 602 -267 630 -261 15 3 168 84 339 180 172
97 331 182 354 190 51 18 89 19 141 5z m-2669 -257 c245 -76 469 -224 700
-464 244 -252 389 -507 471 -826 40 -155 43 -206 15 -222 -33 -17 -60 -12 -66
13 -3 12 -14 66 -25 119 -20 91 -38 152 -90 291 -26 70 -100 216 -138 273 -56
85 -68 100 -119 157 -29 32 -53 64 -53 72 0 14 -112 130 -205 213 -171 150
-402 272 -637 337 -32 8 -58 19 -58 23 0 4 17 17 38 28 41 24 49 23 167 -14z
m3176 -184 c18 -33 4 -116 -24 -147 -160 -172 -353 -685 -417 -1110 -29 -186
-38 -215 -72 -219 -19 -2 -31 3 -43 21 -13 21 -14 37 -5 118 62 552 243 1042
480 1302 29 31 56 57 61 57 4 0 13 -10 20 -22z m-3598 -338 c7 -291 3 -937 -6
-946 -1 -2 -32 2 -68 8 -58 10 -70 9 -105 -8 -53 -26 -74 -70 -74 -159 0 -38
-4 -75 -8 -81 -4 -6 -26 -23 -48 -37 -50 -31 -81 -72 -93 -123 -6 -25 -9 220
-10 663 l-1 702 30 35 c69 78 335 288 360 283 13 -2 16 -51 23 -337z m2807
231 c-17 -66 -52 -95 -228 -192 -92 -50 -171 -98 -175 -105 -4 -8 -16 -14 -25
-14 -9 0 -26 -7 -36 -15 -43 -32 -107 -19 -264 54 -81 38 -202 92 -269 121
-137 58 -183 97 -183 151 0 29 2 31 28 24 15 -3 83 -31 152 -62 69 -30 176
-77 237 -104 62 -27 132 -58 155 -70 62 -32 105 -23 218 46 104 63 392 216
398 210 2 -1 -2 -21 -8 -44z m-2177 -130 c50 -55 54 -91 23 -190 -14 -45 -29
-120 -32 -166 -10 -123 -28 -128 -41 -11 -6 52 -25 135 -43 186 -18 53 -29
102 -26 115 6 23 65 104 77 104 4 1 23 -17 42 -38z m1153 -46 c58 -27 67 -36
59 -58 -8 -20 -82 -59 -106 -55 -29 4 -64 90 -49 119 14 25 32 24 96 -6z m309
-140 c66 -30 126 -63 133 -72 15 -21 16 -156 2 -184 -6 -10 -20 -19 -30 -19
-27 0 -246 98 -262 118 -14 16 -18 164 -6 195 11 26 34 21 163 -38z m543 28
c35 -22 37 -41 8 -68 -30 -28 -29 -23 -15 -64 8 -24 8 -35 -1 -46 -17 -21 -47
-19 -60 4 -11 22 -13 121 -4 170 6 26 10 30 28 25 11 -3 31 -13 44 -21z m-740
-39 c22 -87 -3 -155 -70 -190 -16 -8 -36 -13 -43 -10 -21 8 -50 152 -36 182
11 25 105 77 126 71 6 -2 16 -26 23 -53z m630 -4 c4 -53 -13 -128 -35 -153 -9
-9 -14 -18 -12 -20 2 -1 13 -7 23 -13 26 -14 38 -59 30 -113 -7 -57 -20 -84
-47 -101 -73 -46 -174 -100 -189 -100 -11 0 -21 13 -27 38 -25 87 -2 139 83
193 140 87 152 115 21 49 -46 -24 -88 -40 -92 -36 -13 13 -16 162 -4 185 7 11
33 33 59 47 26 14 65 36 87 49 22 13 53 23 70 22 28 -2 30 -5 33 -47z m-1699
-24 c43 -23 62 -61 73 -144 5 -41 13 -83 19 -94 11 -21 -4 -58 -25 -58 -20 0
-38 26 -66 94 -24 58 -27 61 -63 64 -44 4 -64 -10 -83 -53 l-12 -30 -12 29
c-14 37 -5 80 28 132 42 69 87 87 141 60z m-359 -22 c40 -34 70 -94 70 -139 0
-19 -3 -35 -6 -35 -4 0 -22 14 -41 31 -56 48 -79 39 -128 -50 -44 -79 -76
-104 -103 -78 -12 12 -11 21 6 58 11 24 22 70 26 102 7 65 27 111 53 126 34
20 90 13 123 -15z m1637 -214 c126 -60 138 -76 129 -165 -10 -98 -8 -96 -74
-74 -31 11 -95 38 -142 62 l-85 42 -3 83 c-5 132 3 134 175 52z m-213 19 c20
-103 -8 -183 -63 -177 -26 3 -26 3 -26 93 0 85 1 90 25 102 41 21 57 16 64
-18z m-1230 -80 c21 -16 26 -28 24 -53 l-3 -31 -76 -3 c-85 -3 -106 9 -95 53
13 51 102 72 150 34z m1864 -167 c-5 -101 -28 -130 -143 -189 -110 -56 -119
-53 -119 32 0 39 5 62 20 82 20 27 205 140 233 142 10 1 12 -14 9 -67z m1056
56 c31 -13 41 -40 26 -68 -11 -21 -35 -27 -45 -10 -10 16 -25 11 -25 -9 0 -10
7 -25 16 -32 29 -24 76 -15 145 29 74 47 121 54 160 23 62 -47 119 -62 160
-41 24 14 25 30 0 30 -36 0 -51 12 -51 39 0 36 17 51 57 51 42 0 68 -26 78
-76 7 -37 5 -41 -40 -81 -41 -37 -53 -43 -92 -43 -28 0 -69 10 -105 27 -54 24
-63 25 -92 14 -131 -55 -184 -62 -242 -35 -65 31 -86 123 -39 169 27 27 51 31
89 13z m-1432 -94 c61 -31 68 -37 74 -71 13 -64 10 -112 -8 -130 -16 -16 -24
-14 -136 31 -66 25 -127 52 -136 59 -14 10 -18 29 -19 93 0 44 3 86 7 92 8 14
116 -23 218 -74z m-1640 51 c-9 -72 -4 -105 21 -138 l26 -34 -26 -38 c-35 -51
-34 -91 1 -122 78 -67 188 23 129 107 l-17 24 -6 -24 c-7 -31 -44 -38 -71 -14
-28 25 -24 33 24 36 29 2 42 8 43 18 1 8 11 37 23 63 16 34 22 62 19 95 -3 44
-2 47 22 47 l25 0 6 -180 c3 -99 6 -181 7 -182 11 -10 85 -22 162 -27 118 -8
167 -20 175 -46 8 -24 -2 -43 -19 -37 -6 3 -28 12 -48 21 -36 15 -38 15 -67
-9 -21 -19 -36 -24 -54 -20 -22 6 -26 3 -32 -25 -7 -32 -7 -32 -22 -10 -12 17
-23 21 -50 18 -29 -4 -34 -1 -31 16 3 18 10 21 56 20 28 -1 52 1 52 5 0 18
-28 31 -66 31 -31 0 -48 -6 -65 -24 l-23 -24 -38 34 c-45 40 -92 45 -126 14
-24 -23 -28 -56 -12 -109 12 -42 24 -51 71 -51 25 0 42 7 59 25 31 32 41 32
69 -6 21 -28 27 -30 60 -25 107 19 107 19 137 -9 25 -23 35 -26 72 -21 38 5
43 3 40 -12 -3 -15 -13 -16 -88 -12 -47 3 -179 5 -295 5 -115 0 -250 -2 -300
-5 l-90 -5 3 25 c1 14 9 32 17 40 13 12 21 12 68 -4 65 -22 84 -19 110 16 42
56 14 124 -61 149 l-36 12 37 18 c20 11 41 27 46 37 5 9 12 95 16 190 7 169 8
173 29 170 14 -2 20 -9 18 -23z m-90 -17 c3 -7 2 -78 -1 -158 -7 -170 4 -157
-159 -188 -138 -25 -175 -17 -139 31 8 12 41 21 111 31 133 18 136 21 136 170
0 62 3 116 7 119 11 12 41 8 45 -5z m386 0 c8 -8 12 -48 12 -115 0 -132 4
-138 124 -148 81 -6 116 -20 116 -46 0 -18 -55 -22 -147 -10 -52 6 -104 16
-114 21 -29 16 -35 64 -31 228 2 83 11 99 40 70z m1692 -206 c0 -16 -12 -39
-32 -59 -30 -31 -31 -33 -14 -52 27 -29 16 -51 -43 -93 -57 -40 -109 -50 -130
-24 -17 20 -25 100 -12 124 19 36 203 148 223 136 4 -3 8 -17 8 -32z m1183 27
c58 -16 69 -42 71 -169 1 -125 -6 -143 -50 -119 -35 18 -63 81 -64 139 -1 79
-14 73 -51 -24 l-35 -92 28 4 c37 6 44 -14 30 -84 -10 -49 -10 -56 8 -74 19
-19 25 -42 34 -138 3 -29 14 -68 26 -86 17 -29 18 -35 6 -45 -18 -15 -79 0
-127 31 -71 48 -114 196 -106 363 9 166 45 251 121 286 48 22 58 22 109 8z
m319 -26 c22 -20 23 -56 2 -74 -9 -8 -51 -15 -103 -17 -70 -3 -89 -1 -100 11
-16 20 -11 47 12 61 15 9 22 6 43 -19 16 -21 24 -25 24 -14 0 9 9 28 21 43 24
31 72 35 101 9z m-1907 -34 c104 -42 145 -82 145 -139 0 -49 -14 -80 -38 -80
-9 0 -72 27 -138 59 -127 61 -136 71 -129 131 1 14 3 36 4 49 1 21 4 23 39 19
20 -3 73 -20 117 -39z m1966 -99 c21 -12 26 -40 7 -40 -7 0 -21 -11 -33 -26
-38 -48 -139 -52 -156 -6 l-10 25 -24 -23 c-20 -19 -27 -21 -40 -10 -51 42 34
87 168 89 38 1 77 -4 88 -9z m-3701 -51 c0 -27 -36 -59 -64 -59 -12 0 -30 7
-40 15 -28 21 -69 19 -99 -5 -14 -11 -37 -20 -51 -20 -21 0 -26 5 -26 25 0 14
1 25 3 26 123 24 201 37 235 38 37 1 42 -2 42 -20z m-402 0 c58 -20 80 -95 47
-159 -22 -43 -53 -60 -107 -60 -41 0 -54 5 -84 33 -30 27 -37 40 -38 75 -2 91
85 145 182 111z m1968 -8 c34 -21 65 -88 79 -168 l7 -43 69 6 c114 11 182 -28
193 -110 2 -11 6 -28 10 -37 4 -9 -1 -40 -11 -70 -16 -47 -24 -57 -63 -77 -45
-23 -99 -25 -181 -6 -26 6 -26 5 -31 -63 -9 -122 -50 -167 -155 -168 -47 0
-68 5 -89 21 -38 28 -64 83 -71 149 l-6 57 -31 -6 c-104 -20 -102 -20 -170 18
-51 29 -67 43 -76 71 -13 38 -9 57 22 127 17 39 31 52 72 73 57 29 84 31 149
11 l47 -14 -3 78 c-2 66 1 83 19 107 45 61 155 83 220 44z m2159 -92 c16 -15
-11 -35 -28 -20 -12 9 -17 6 -25 -18 -9 -25 -17 -31 -55 -36 -58 -9 -77 -5
-91 20 -6 11 -12 22 -14 25 -2 3 -12 -6 -22 -20 -15 -20 -20 -22 -34 -11 -19
16 -21 45 -3 59 25 21 249 22 272 1z m-2681 5 c40 -6 46 -10 46 -30 0 -36 -36
-54 -111 -54 -53 0 -69 4 -84 20 -17 18 -17 21 -1 45 18 27 54 32 150 19z
m-208 -29 c28 -43 40 -298 25 -533 -28 -437 -97 -701 -325 -1246 -46 -111
-102 -212 -233 -416 -56 -89 -84 -122 -122 -148 -50 -34 -101 -46 -108 -26 -2
6 41 78 95 160 220 332 349 590 457 919 119 359 160 660 148 1081 -3 111 -3
209 0 218 10 24 44 19 63 -9z m1262 -12 c4 -42 -13 -50 -112 -54 l-78 -4 -18
34 c-31 56 -22 62 99 59 l106 -3 3 -32z m1615 -83 c13 -11 -21 -59 -54 -76
-36 -18 -100 -18 -145 1 -19 8 -41 12 -49 9 -10 -4 -12 0 -8 18 10 39 23 48
72 49 25 0 66 4 91 8 46 8 78 5 93 -9z m-3958 -36 c57 -27 101 -76 123 -135
31 -85 44 -200 32 -291 -28 -224 -60 -266 -196 -253 -41 4 -78 12 -84 20 -34
40 -36 269 -4 282 19 7 63 -33 80 -74 8 -18 14 -57 14 -88 0 -30 4 -55 8 -55
11 0 27 36 42 92 7 23 19 51 28 61 18 21 9 35 -13 17 -8 -7 -22 -9 -31 -6 -13
5 -15 17 -9 81 6 63 4 79 -10 102 -11 16 -21 59 -26 105 -5 50 -15 92 -28 114
-12 19 -21 37 -21 40 0 10 65 3 95 -12z m737 5 c109 -12 148 -22 148 -38 0
-23 -37 -29 -115 -20 -114 14 -347 13 -508 -1 -75 -7 -141 -10 -144 -6 -14 14
15 41 53 48 130 25 414 33 566 17z m-994 -180 c56 -15 62 -25 35 -57 -15 -17
-35 -22 -128 -27 -96 -6 -113 -5 -124 9 -12 14 -11 20 10 43 50 54 96 61 207
32z m3084 10 c116 -8 199 -8 341 1 142 10 191 10 200 1 39 -39 -116 -64 -403
-65 -176 0 -324 14 -344 34 -15 15 2 40 28 40 13 0 93 -5 178 -11z m1178 -641
c-1 -585 -2 -646 -18 -678 -17 -34 -200 -193 -307 -266 l-50 -34 -6 29 c-3 16
-8 300 -10 632 l-4 603 61 -3 c126 -5 188 47 190 159 1 36 2 72 3 81 1 17 130
133 138 125 3 -2 4 -294 3 -648z m-1195 551 c112 -11 231 -8 478 13 105 9 140
9 149 0 9 -9 2 -12 -30 -12 -32 0 -49 -7 -78 -32 l-36 -32 -44 17 c-54 20 -81
12 -117 -34 l-26 -33 -23 21 c-43 39 -64 45 -103 29 -89 -38 -55 -186 38 -162
15 3 42 20 62 37 l35 31 31 -26 c41 -35 87 -34 129 0 30 26 32 26 92 14 l62
-13 31 36 c18 20 35 37 39 37 4 0 6 -21 4 -47 l-3 -48 -165 -22 c-125 -17
-168 -27 -177 -40 -9 -11 -13 -59 -13 -147 0 -72 -3 -155 -6 -183 -6 -50 -8
-53 -35 -53 -39 0 -43 12 -19 58 23 45 20 80 -11 108 -24 22 -24 36 0 58 42
38 35 121 -12 144 -45 23 -81 18 -112 -13 -31 -30 -31 -54 -1 -115 l24 -48
-24 -33 c-27 -37 -30 -82 -9 -119 20 -35 19 -40 -13 -40 -49 0 -52 11 -52 192
0 204 9 193 -170 208 -105 10 -128 15 -142 32 -10 11 -18 29 -18 39 0 18 2 19
30 4 35 -18 72 -19 116 -3 29 10 35 9 64 -15 36 -31 58 -34 86 -12 18 14 17
14 -16 15 -41 0 -53 7 -69 38 -11 21 -10 22 23 22 19 0 38 -4 41 -10 12 -20
25 -10 25 19 0 17 4 32 10 36 12 8 2 32 -17 39 -8 3 -37 -2 -64 -11 l-48 -17
-28 25 c-38 35 -56 40 -89 23 -24 -13 -29 -13 -42 0 -13 13 -13 17 -1 32 11
13 24 15 74 10 33 -4 110 -11 170 -17z m981 -23 c30 -30 34 -40 34 -85 0 -42
-5 -56 -29 -83 -28 -31 -33 -33 -95 -33 -84 0 -96 12 -103 99 -6 64 -5 66 30
101 30 30 42 35 82 35 40 0 52 -5 81 -34z m-1428 -20 c18 -18 -1 -64 -30 -71
-13 -3 -61 -5 -108 -3 -74 3 -85 5 -88 22 -8 38 18 65 67 69 66 6 144 -2 159
-17z m-2639 -30 l14 -29 14 26 c15 30 38 35 47 11 8 -20 -2 -54 -15 -54 -5 0
-51 -5 -102 -10 -101 -11 -150 -3 -155 24 -3 12 0 16 8 11 7 -4 24 5 41 24 26
29 33 32 81 29 47 -3 54 -6 67 -32z m844 -10 c13 -20 -16 -273 -55 -461 -29
-144 -82 -323 -134 -455 -55 -138 -162 -350 -186 -368 -10 -7 -18 -19 -18 -26
0 -16 -133 -156 -147 -156 -16 0 -23 25 -23 80 0 40 5 54 35 86 59 67 167 275
242 469 70 182 148 494 199 800 4 22 9 44 11 48 6 11 66 -2 76 -17z m775 -141
c2 -38 -2 -64 -12 -80 -19 -28 -171 -117 -194 -113 -32 6 -26 48 10 78 l33 28
-23 31 -23 32 29 27 c16 15 53 39 82 54 47 25 56 26 74 14 16 -10 22 -26 24
-71z m-1612 17 l23 -43 -34 -15 c-35 -14 -106 -17 -160 -5 -21 4 -31 13 -33
29 -3 20 0 23 16 18 15 -5 21 -1 26 18 7 29 49 46 105 43 30 -2 38 -8 57 -45z
m1694 18 c11 -6 21 -26 25 -50 4 -22 9 -40 11 -40 3 0 19 7 35 16 17 8 45 14
62 12 29 -3 32 -7 37 -43 l5 -40 21 29 c28 38 50 29 59 -23 14 -87 -10 -98
-116 -55 -176 72 -199 93 -185 169 7 37 15 41 46 25z m634 -18 c2 -4 16 -61
31 -126 15 -66 40 -158 57 -205 57 -161 189 -401 268 -486 15 -16 31 -40 34
-51 7 -23 164 -179 262 -260 151 -125 357 -238 565 -309 100 -34 106 -38 101
-61 -2 -13 0 -24 4 -24 15 0 156 80 194 109 19 15 62 45 94 65 33 21 117 84
186 141 95 77 130 101 139 92 16 -16 16 -2708 -1 -2725 -9 -9 -162 -12 -628
-12 -545 0 -618 2 -638 16 -13 9 -82 133 -165 295 -78 154 -152 299 -165 322
l-22 43 19 38 c11 21 29 80 41 133 19 80 25 93 38 87 35 -14 112 -16 142 -4
17 7 38 27 47 44 32 59 15 167 -31 206 -9 7 -44 23 -79 35 -67 25 -79 43 -58
98 10 25 14 27 70 25 94 -2 143 42 143 131 0 63 -23 103 -87 146 -49 33 -92
48 -166 60 -21 3 -42 12 -49 20 -14 17 -9 120 6 135 5 5 26 -3 53 -20 60 -41
106 -52 155 -39 88 24 129 108 103 213 -8 34 -12 64 -9 68 4 4 54 19 112 33
184 47 470 166 514 214 l19 21 -39 0 c-96 0 -244 60 -429 172 -234 143 -350
236 -441 353 -32 43 -88 111 -123 153 -86 104 -130 170 -186 282 -80 160 -177
491 -161 553 5 23 12 27 41 27 18 0 36 -3 39 -8z m1439 -46 c11 -27 -19 -44
-108 -60 -49 -9 -99 -19 -111 -21 -33 -7 -44 -48 -44 -166 0 -109 0 -110 -22
-107 -22 3 -23 6 -26 147 -3 174 -2 176 96 186 37 4 94 13 127 20 79 17 82 17
88 1z m-1592 -36 c4 -14 7 -63 8 -110 1 -105 25 -309 52 -454 59 -315 155
-588 325 -927 41 -82 74 -153 74 -159 0 -6 -12 -16 -26 -22 -24 -11 -29 -9
-70 35 -24 26 -44 54 -44 61 0 7 -9 21 -20 31 -51 46 -169 333 -245 594 -89
311 -130 539 -142 793 -5 119 -4 140 11 163 23 35 67 32 77 -5z m826 -1 c43
-6 83 -15 89 -20 15 -13 28 -182 19 -253 -7 -51 -10 -57 -29 -54 -20 3 -21 10
-26 125 -3 67 -9 127 -15 132 -5 5 -54 17 -109 26 -109 17 -116 20 -116 41 0
18 73 19 187 3z m-2922 -55 c0 -40 -37 -46 -61 -9 l-17 26 -18 -40 c-21 -48
-58 -62 -98 -40 -30 17 -41 69 -19 87 15 12 161 21 193 11 14 -4 20 -15 20
-35z m1684 -38 c118 -46 168 -72 181 -95 5 -11 10 -49 10 -86 0 -52 -3 -67
-17 -72 -21 -8 -130 29 -218 75 l-70 37 -3 55 c-4 65 5 120 19 120 5 0 49 -15
98 -34z m-153 -43 c9 -76 -2 -101 -66 -145 -74 -51 -86 -61 -72 -66 6 -2 32 8
59 22 26 14 53 26 59 26 23 0 27 -83 9 -176 -3 -12 -29 -35 -69 -58 -66 -39
-93 -62 -84 -72 3 -3 33 9 66 27 34 17 67 29 75 26 18 -7 32 -111 22 -157 -5
-21 -19 -39 -44 -54 -57 -36 -179 -96 -195 -96 -20 0 -31 94 -17 146 6 22 25
53 42 69 l31 30 -34 5 c-32 5 -33 7 -42 67 -11 81 2 115 60 149 47 28 60 51
22 39 -64 -20 -77 -18 -84 10 -4 15 -1 51 5 81 14 62 44 92 150 148 92 49 98
48 107 -21z m-1584 -81 l48 -24 35 21 c47 27 141 46 190 37 89 -17 136 -116
80 -171 -43 -44 -115 -23 -115 32 0 27 26 41 43 24 6 -6 17 -11 24 -11 20 0
16 35 -7 55 -32 29 -98 15 -176 -36 l-66 -43 -32 18 c-123 72 -165 82 -207 46
-23 -18 -23 -19 -4 -20 34 0 65 -28 65 -59 0 -32 -14 -41 -64 -41 -39 0 -60
21 -74 71 -7 27 -6 40 4 54 8 10 14 27 14 37 0 19 13 24 95 37 61 10 86 5 147
-27z m1739 -113 c199 -71 201 -73 190 -194 l-6 -70 -30 1 c-34 2 -255 99 -267
117 -7 11 -12 187 -5 187 2 0 55 -18 118 -41z m-1538 -36 c26 -56 26 -84 14
-1138 -4 -346 -9 -876 -10 -1177 l-3 -547 -37 -53 c-20 -29 -54 -70 -76 -92
l-40 -39 -7 38 c-6 35 -2 97 14 210 4 28 4 70 -1 95 -20 115 -19 213 2 294 27
101 27 195 0 298 -24 91 -22 160 6 238 9 25 19 79 22 120 5 63 1 88 -21 158
-33 104 -33 147 1 253 35 112 37 245 5 333 -28 77 -28 134 3 236 18 59 25 107
25 165 0 58 -7 106 -25 165 -30 101 -31 153 -5 247 11 40 19 98 19 130 -2 53
1 59 32 85 18 15 39 28 47 28 7 0 23 -21 35 -47z m-233 -333 c0 -323 0 -330
-20 -330 -19 0 -20 -7 -22 -167 l-1 -168 -8 130 c-9 168 -9 631 1 760 l7 100
3 -100 c1 -55 6 -134 10 -175 6 -69 7 -65 8 56 2 123 10 224 18 224 2 0 4
-148 4 -330z m2076 308 c4 -6 8 -47 10 -90 l2 -79 -36 -23 -37 -24 -12 27 c-7
14 -12 56 -13 93 0 60 2 68 26 87 30 24 49 27 60 9z m1292 -34 c2 -11 -6 -31
-16 -44 -15 -19 -31 -24 -78 -28 -57 -4 -60 -3 -72 22 -7 15 -12 38 -12 52 0
25 0 25 88 22 79 -3 87 -5 90 -24z m-350 -78 c5 -6 16 -32 26 -57 9 -25 28
-57 41 -69 21 -20 30 -22 52 -14 15 5 37 24 50 43 l22 33 7 -27 c4 -15 -1 -51
-10 -83 -20 -74 -60 -112 -117 -112 -57 0 -93 38 -107 111 -5 30 -15 83 -22
118 -9 49 -9 66 0 71 15 9 46 2 58 -14z m598 9 c4 -9 1 -28 -5 -43 -6 -15 -17
-65 -26 -112 -12 -74 -18 -89 -46 -114 -26 -23 -38 -27 -68 -23 -62 9 -89 25
-109 64 -23 46 -35 132 -22 153 5 8 10 10 10 5 0 -6 13 -25 29 -43 53 -57 113
-36 140 50 19 58 83 100 97 63z m-1789 -100 c64 -31 121 -61 125 -68 4 -7 8
-51 8 -98 0 -114 -8 -121 -93 -86 -148 61 -180 76 -195 91 -18 18 -30 144 -18
191 10 38 40 32 173 -30z m1473 -52 c0 -42 34 -187 55 -236 15 -38 15 -40 -10
-83 -36 -62 -54 -69 -98 -37 -55 39 -61 69 -36 177 11 50 27 106 35 124 8 18
14 50 14 72 0 21 3 46 7 56 6 16 9 14 19 -11 7 -17 13 -44 14 -62z m-1182 -1
c3 -39 1 -43 -16 -38 -12 4 -24 0 -32 -9 -11 -13 -10 -19 4 -33 16 -16 18 -16
36 8 l18 25 7 -27 c12 -49 2 -72 -49 -105 -80 -54 -96 -43 -96 67 0 106 36
164 100 157 22 -2 25 -7 28 -45z m-314 -211 c83 -38 198 -88 256 -111 124 -49
166 -78 191 -134 24 -54 24 -66 -4 -66 -12 0 -148 57 -302 127 -353 160 -329
158 -510 50 -146 -87 -364 -201 -372 -194 -2 3 1 24 7 47 17 62 69 112 173
166 51 26 133 70 182 97 145 81 157 87 193 87 21 0 93 -27 186 -69z m379 -25
c38 -81 8 -111 -75 -73 -80 37 -85 53 -25 94 47 33 78 26 100 -21z m-167 -487
c198 -89 375 -167 395 -174 71 -25 114 -96 63 -103 -18 -3 -239 90 -658 275
-82 36 -162 66 -177 65 -18 0 -151 -69 -345 -178 -174 -97 -337 -183 -362
-190 -49 -15 -115 -17 -146 -5 -23 9 43 49 504 306 242 134 321 174 341 171
15 -3 188 -78 385 -167z m-2193 21 l37 -25 1 -155 c1 -85 1 -503 -1 -927 -2
-731 -2 -774 15 -800 41 -63 169 -203 185 -203 21 0 150 133 176 180 17 32 19
74 26 500 13 859 20 1127 28 1141 7 10 17 9 51 -6 68 -31 129 -73 129 -90 0
-9 -22 -25 -54 -39 -68 -30 -86 -56 -86 -122 0 -86 40 -120 170 -144 35 -6 77
-18 92 -26 52 -27 78 -111 93 -299 27 -330 56 -482 117 -617 l30 -67 -26 -43
c-14 -24 -35 -54 -45 -68 -16 -22 -242 -412 -312 -538 -39 -72 -39 -72 -382
-72 -222 0 -306 3 -315 12 -17 17 -17 2419 0 2436 6 6 16 8 22 4 6 -4 28 -18
49 -32z m205 -507 c-1 -285 -4 -472 -5 -415 -2 56 -8 102 -13 102 -6 0 -11
-46 -11 -107 -1 -60 -5 -160 -9 -223 -5 -89 -7 -50 -8 178 -1 166 2 291 7 288
16 -10 21 52 27 374 4 176 9 320 11 320 1 0 2 -233 1 -517z m1615 161 c54 -27
75 -54 97 -120 22 -64 40 -83 40 -41 0 12 5 29 10 37 9 13 12 12 25 -4 8 -10
16 -23 18 -29 6 -19 27 3 27 28 0 22 3 24 30 19 27 -6 30 -4 30 19 0 36 20 45
41 19 21 -27 29 -28 29 -3 0 31 15 33 40 6 17 -19 27 -22 36 -14 7 6 26 8 42
5 23 -6 33 -1 55 24 35 39 49 38 89 -6 31 -34 36 -36 85 -32 45 4 54 2 59 -14
7 -22 20 -23 28 -3 9 26 26 17 26 -14 0 -46 14 -44 38 4 31 63 46 59 37 -10
-4 -38 -3 -55 5 -55 6 0 13 7 16 15 13 34 24 11 25 -52 l0 -68 18 50 c29 82
60 135 108 186 37 39 53 49 90 55 98 14 171 -45 181 -146 3 -39 0 -51 -23 -78
-66 -79 -195 -53 -195 40 0 59 54 100 88 66 18 -18 15 -27 -13 -38 -30 -12
-32 -26 -4 -40 43 -24 95 42 69 90 -29 54 -120 44 -181 -20 -55 -58 -74 -124
-69 -240 9 -183 4 -444 -9 -503 -15 -67 -29 -77 -78 -53 -44 21 -61 11 -33
-19 l21 -22 -58 -7 c-32 -3 -82 -17 -110 -31 -51 -23 -53 -23 -63 -5 -12 23
-6 59 33 184 37 119 33 133 -57 183 -69 39 -76 40 -76 9 0 -26 -30 -39 -68
-29 -26 6 -28 25 -6 63 23 38 13 56 -34 64 -22 3 -75 23 -118 43 -166 79 -307
41 -291 -78 11 -80 82 -115 141 -68 61 48 3 141 -62 100 -22 -13 -11 -56 16
-59 37 -6 25 -23 -14 -20 -71 6 -72 77 -1 111 51 25 80 17 169 -51 42 -31 83
-61 92 -67 15 -9 15 -13 -8 -44 -41 -55 -30 -104 27 -124 21 -8 22 11 2 40
-31 44 5 72 62 48 49 -21 83 -19 110 7 23 22 24 22 58 4 45 -25 50 -43 25 -98
-11 -25 -29 -88 -39 -140 -11 -52 -27 -114 -35 -139 -23 -66 -20 -101 13 -143
16 -20 33 -50 36 -67 5 -22 11 -28 23 -25 53 16 76 16 136 1 37 -9 90 -15 119
-13 l52 3 -2 -30 c-1 -16 -9 -35 -17 -41 -33 -24 -760 -53 -988 -39 l-127 7
-20 53 c-33 89 -51 209 -51 344 1 143 22 344 38 364 6 7 19 42 28 78 9 35 27
78 40 96 13 17 24 41 24 53 0 12 7 37 16 56 15 31 36 53 122 126 39 32 43 78
12 138 -29 56 -55 68 -91 41 -15 -12 -37 -21 -48 -21 -23 0 -45 34 -35 53 29
50 69 60 127 31z m-437 -23 c52 -24 109 -90 134 -158 26 -69 27 -281 3 -475
-19 -155 -23 -502 -6 -593 13 -70 10 -80 -10 -34 -37 90 -40 132 -31 473 15
563 12 598 -59 681 -28 32 -40 38 -82 42 -41 4 -55 1 -78 -17 -23 -18 -28 -29
-25 -59 2 -28 8 -37 25 -39 20 -3 21 0 16 32 -5 32 -3 36 22 42 63 16 94 -77
41 -123 -37 -31 -90 -31 -138 2 -43 29 -64 84 -54 139 8 40 55 92 89 99 52 10
115 5 153 -12z m46 -243 c13 -24 14 -101 7 -663 -3 -256 -3 -261 24 -359 15
-55 24 -102 22 -105 -12 -11 -34 28 -56 94 -21 67 -23 89 -29 555 -4 267 -5
488 -3 493 8 13 22 7 35 -15z m-93 -79 c27 -29 32 -115 30 -504 -2 -271 1
-345 14 -415 19 -100 20 -110 7 -110 -5 0 -14 19 -21 43 -32 119 -41 225 -49
582 -5 204 -12 382 -16 398 -8 33 7 36 35 6z m-196 -1 c47 -36 65 -187 69
-585 l3 -262 -19 37 c-17 32 -20 70 -27 307 -7 223 -12 291 -32 393 -13 67
-21 122 -17 122 3 0 14 -6 23 -12z m104 0 c31 -40 38 -116 39 -443 1 -337 4
-371 51 -562 8 -36 -16 -27 -32 10 -8 19 -24 78 -35 133 -18 83 -23 152 -30
424 -5 180 -14 346 -20 373 -16 64 0 100 27 65z m-260 -59 c18 -37 41 -212 58
-448 9 -118 23 -250 31 -295 8 -45 17 -97 20 -116 5 -33 5 -34 -10 -16 -48 59
-79 228 -96 526 -9 152 -31 304 -55 381 -7 22 -7 23 16 8 13 -9 29 -27 36 -40z
m-104 26 c30 -30 59 -193 73 -415 7 -118 15 -246 18 -285 6 -70 6 -70 -10 -36
-15 34 -42 230 -63 471 -7 70 -20 161 -30 203 -18 77 -16 90 12 62z m191 -13
c37 -72 47 -146 56 -402 9 -264 19 -362 49 -481 19 -77 12 -89 -18 -30 -44 86
-61 180 -81 456 -11 149 -27 311 -35 360 -8 50 -15 98 -15 108 0 27 28 20 44
-11z m2029 -142 c29 -33 37 -92 14 -120 -35 -45 -99 -64 -125 -38 -19 19 -15
76 6 87 21 11 42 -3 42 -27 0 -24 25 -7 28 20 6 50 -60 68 -102 29 -27 -25
-38 -61 -61 -186 -16 -86 -28 -115 -46 -115 -4 0 -6 30 -3 68 13 175 50 302
88 302 11 0 28 5 36 11 28 19 93 3 123 -31z m-77 -379 c53 -24 74 -55 74 -109
0 -32 -6 -49 -25 -67 -31 -32 -91 -34 -123 -5 -24 23 -27 41 -12 71 12 22 32
24 60 7 24 -16 34 -6 26 26 -12 49 -87 44 -121 -8 -9 -13 -23 -64 -32 -112
-14 -75 -18 -84 -26 -63 -5 13 -10 52 -10 85 -1 80 33 151 83 176 44 22 55 22
106 -1z m-456 -207 c30 -19 72 -37 92 -41 39 -6 43 -25 5 -22 -60 5 -75 -9
-32 -29 40 -18 74 -14 122 13 l43 26 0 -24 c0 -77 -140 -87 -273 -20 -60 30
-87 57 -87 86 0 57 52 61 130 11z m-1487 -538 c-3 -40 -46 -101 -91 -131 -40
-26 -159 -65 -199 -65 -16 0 -23 6 -23 18 0 30 33 52 95 62 69 11 111 35 133
75 39 71 43 76 65 73 17 -2 22 -9 20 -32z m202 -22 c22 -23 2 -48 -27 -33 -15
8 -23 8 -31 0 -29 -29 46 -68 78 -41 8 6 17 25 20 41 8 34 32 50 61 39 15 -6
23 -20 27 -51 8 -62 49 -87 92 -55 28 20 12 50 -23 43 -40 -8 -57 5 -35 25 19
17 34 21 70 19 34 -2 53 -28 53 -75 0 -51 -17 -70 -112 -120 -105 -56 -137
-53 -213 15 -84 77 -105 135 -69 187 19 27 84 31 109 6z m1514 -29 c17 -20 31
-40 31 -45 0 -6 7 -10 15 -10 9 0 19 -10 24 -23 6 -16 25 -28 65 -40 30 -10
63 -26 73 -35 16 -16 15 -17 -23 -20 -49 -4 -110 13 -150 43 -32 25 -87 103
-99 143 -10 36 28 28 64 -13z m-481 -1 c35 -24 29 -46 -12 -39 -37 7 -51 -4
-41 -34 8 -25 35 -31 71 -16 21 8 33 24 44 56 14 39 19 44 45 44 25 0 33 -7
52 -46 24 -52 42 -63 78 -49 18 7 25 17 25 35 0 24 -2 25 -35 19 -31 -5 -35
-4 -35 14 0 22 18 32 59 32 48 0 76 -47 60 -104 -8 -28 -26 -48 -85 -92 -42
-30 -74 -58 -71 -61 10 -9 102 38 135 70 36 34 72 96 72 122 0 33 39 14 70
-35 36 -56 92 -94 167 -115 79 -21 158 -60 175 -87 26 -40 31 -73 14 -87 -19
-16 -2429 -4 -2451 13 -12 9 -12 17 6 56 40 89 94 122 255 155 100 20 119 33
151 100 14 30 28 55 32 55 3 0 15 -23 25 -52 14 -39 40 -73 110 -146 l92 -95
43 31 c23 17 59 36 79 43 98 30 162 96 162 164 0 38 15 30 54 -27 55 -83 228
-239 241 -217 4 6 42 33 84 60 42 26 85 55 96 63 11 7 28 38 38 69 26 81 43
90 50 26 8 -67 25 -84 158 -159 107 -60 129 -66 129 -32 0 12 -20 25 -62 41
-120 46 -169 73 -183 102 -28 53 -16 102 30 127 28 16 47 15 73 -4z m-574 -47
c28 -60 41 -73 112 -112 l52 -29 50 33 c61 39 73 52 92 105 11 30 22 42 39 44
22 4 23 2 16 -34 -14 -79 -60 -133 -143 -172 -46 -21 -59 -23 -93 -14 -78 20
-180 124 -195 200 -6 29 -4 32 19 32 21 0 30 -9 51 -53z"/>
<path d="M1755 9336 c-125 -39 -184 -117 -193 -252 -4 -62 -1 -79 22 -129 14
-32 42 -76 62 -99 53 -62 56 -66 45 -66 -5 0 -40 7 -78 16 -153 36 -281 -29
-327 -164 -25 -71 -21 -186 8 -248 48 -104 144 -168 251 -168 96 0 166 48 231
160 14 24 33 44 41 44 29 0 0 -126 -75 -327 l-31 -83 102 6 c56 4 126 2 155
-3 28 -6 52 -9 52 -8 0 1 -16 42 -35 90 -56 144 -88 262 -80 301 7 41 18 37
46 -17 28 -56 86 -117 133 -141 87 -45 212 -21 288 57 60 61 82 117 86 215 3
80 1 89 -30 150 -40 79 -95 123 -173 141 -54 12 -111 7 -194 -17 l-23 -7 18
29 c10 16 28 40 40 54 46 52 69 111 73 193 3 68 0 84 -24 132 -32 67 -93 121
-159 140 -60 18 -176 18 -231 1z"/>
<path d="M3575 8745 c-108 -27 -142 -29 -171 -11 -34 23 -56 14 -52 -21 2 -23
11 -31 45 -42 38 -14 52 -13 177 13 146 29 136 29 275 -10 44 -13 18 20 -39
48 -69 34 -154 42 -235 23z"/>
<path d="M3501 8609 c-51 -34 -61 -45 -61 -69 0 -16 -5 -41 -10 -55 -8 -22 -6
-35 12 -69 26 -46 96 -90 119 -75 11 7 9 9 -6 9 -26 0 -45 18 -45 42 0 15 5
17 28 11 53 -15 124 -5 226 32 l104 37 -115 59 c-75 39 -127 59 -150 59 -20 0
-32 4 -28 10 10 17 102 11 155 -10 62 -25 77 -25 59 -3 -27 31 -111 63 -170
63 -50 0 -64 -5 -118 -41z"/>
<path d="M2860 8058 c-25 -41 -25 -50 0 -73 20 -18 20 -17 20 19 0 24 5 39 15
43 28 10 29 -6 5 -53 -27 -52 -21 -73 26 -86 47 -13 131 1 137 22 3 12 21 23
48 30 51 13 69 32 69 72 0 47 -60 30 -145 -41 -33 -27 -59 -41 -79 -41 l-29 0
22 24 c28 30 31 84 6 102 -34 25 -73 17 -95 -18z"/>
<path d="M3660 8083 c-31 -12 -50 -37 -50 -68 0 -29 5 -35 41 -49 23 -9 43
-16 44 -14 1 2 8 13 14 26 14 26 8 40 -23 52 -19 7 -19 9 -3 15 25 10 45 0 59
-30 15 -34 4 -52 -46 -78 -33 -17 -43 -18 -77 -8 -22 7 -63 31 -92 55 -30 24
-63 49 -75 55 -33 18 -97 14 -115 -7 -33 -36 -14 -72 37 -72 16 0 70 -19 119
-41 141 -65 237 -54 280 34 16 31 17 42 7 73 -16 47 -73 74 -120 57z"/>
<path d="M3137 7903 c-74 -4 -78 -5 -75 -26 3 -21 8 -22 173 -29 94 -3 192
-11 220 -16 27 -6 51 -9 53 -7 9 8 -25 56 -42 60 -81 17 -209 24 -329 18z"/>
<path d="M1336 6265 c-10 -129 -33 -231 -67 -304 -16 -35 -29 -64 -29 -65 0 0
12 -2 27 -3 16 -1 34 -11 43 -24 44 -67 45 -67 74 -21 15 24 39 48 54 54 15 7
29 13 30 14 2 1 -8 20 -22 41 -37 52 -74 179 -89 298 l-13 100 -8 -90z"/>
<path d="M3355 5420 c-27 -11 -61 -49 -74 -83 -42 -110 49 -231 160 -212 53 9
115 64 130 115 21 70 -9 143 -71 175 -31 16 -112 19 -145 5z"/>
<path d="M5505 4760 c-9 -29 -54 -60 -86 -60 -16 0 -29 -3 -29 -6 0 -3 14 -25
30 -50 47 -68 80 -167 99 -299 l17 -120 12 125 c14 149 33 227 72 296 26 47
27 51 9 47 -14 -4 -31 7 -62 41 -24 25 -46 46 -49 46 -4 0 -9 -9 -13 -20z"/>
<path d="M5012 2573 c-127 -3 -132 -4 -122 -23 5 -10 21 -58 34 -107 14 -48
36 -119 50 -158 22 -63 26 -125 7 -125 -3 0 -27 34 -53 75 -33 53 -61 84 -95
106 -45 28 -53 30 -123 27 -86 -4 -131 -23 -186 -76 -89 -86 -116 -238 -63
-352 28 -60 74 -112 122 -137 46 -23 142 -28 212 -9 32 8 60 14 62 12 2 -1
-20 -31 -47 -67 -27 -35 -57 -84 -65 -108 -19 -56 -19 -171 -1 -215 21 -50 74
-104 130 -134 46 -24 61 -27 156 -27 95 0 110 3 156 27 61 32 117 92 135 144
7 22 13 71 13 109 0 80 -21 130 -85 207 -45 53 -50 74 -16 63 178 -54 294 -16
365 119 23 44 27 63 27 141 0 73 -5 100 -23 140 -49 106 -138 165 -247 165
-102 0 -167 -43 -232 -154 -42 -73 -57 -73 -49 0 7 65 27 135 75 262 36 97 37
103 14 100 -10 -1 -78 -4 -151 -5z"/>
<path d="M3390 2756 c0 -29 18 -46 50 -46 14 0 50 -7 80 -15 46 -13 74 -13
175 -3 124 12 153 21 135 43 -7 8 -65 14 -188 18 -97 3 -194 10 -214 15 -35 9
-38 8 -38 -12z"/>
<path d="M3803 2655 c-85 -43 -93 -49 -93 -75 0 -16 5 -32 10 -35 21 -13 72 8
123 51 60 52 82 60 122 43 l30 -12 -39 -7 c-59 -11 -74 -50 -33 -88 29 -27 78
-29 100 -4 11 12 17 36 17 63 0 60 -38 99 -102 106 -36 3 -58 -3 -135 -42z"/>
<path d="M3315 2250 c3 -5 12 -10 19 -10 7 0 20 -8 29 -18 16 -18 13 -19 -85
-30 -98 -11 -184 -33 -243 -65 l-28 -14 48 -12 c27 -7 65 -25 85 -41 20 -16
48 -32 63 -35 33 -9 44 -23 24 -31 -8 -3 -33 4 -56 15 -22 12 -52 21 -67 21
-23 0 -25 -2 -13 -16 26 -32 112 -66 184 -73 l70 -7 -35 -18 c-35 -19 -49 -20
-237 -12 -19 0 -33 6 -33 14 0 6 -7 12 -15 12 -24 0 -17 -13 19 -38 81 -55
190 -65 319 -31 l79 22 43 -21 c31 -15 45 -18 54 -9 16 16 14 34 -9 57 -17 17
-33 20 -100 20 -99 0 -104 14 -25 67 51 33 55 39 49 65 -4 21 -1 35 11 48 15
17 16 24 6 49 -7 16 -22 38 -34 50 -37 34 -139 69 -122 41z"/>
<path d="M635 8729 c-39 -11 -74 -43 -91 -85 -20 -47 -17 -71 11 -132 14 -30
25 -56 25 -58 0 -2 -24 -4 -52 -4 -96 0 -148 -53 -148 -150 0 -97 51 -160 129
-160 56 0 115 31 131 69 7 17 19 31 28 31 20 0 11 -52 -22 -123 -37 -76 -30
-87 55 -87 38 0 69 4 69 10 0 5 -9 31 -19 58 -24 61 -30 114 -13 119 6 3 12
-1 12 -9 0 -17 57 -56 99 -68 113 -32 209 116 152 233 -26 55 -68 77 -141 77
-28 0 -50 3 -48 8 70 135 59 220 -35 262 -45 21 -93 24 -142 9z"/>
<path d="M6120 2523 c0 -9 10 -47 22 -85 12 -37 19 -70 16 -74 -4 -3 -28 10
-54 30 -39 30 -55 36 -95 36 -83 0 -139 -66 -139 -162 0 -93 49 -143 150 -155
l49 -6 -20 -38 c-57 -113 -15 -214 100 -240 60 -13 117 4 163 51 34 33 38 43
38 86 0 27 -9 69 -20 93 -11 24 -20 47 -20 52 0 5 20 9 45 9 68 0 110 22 134
69 27 51 27 111 1 162 -27 52 -72 79 -133 79 -42 0 -53 -5 -92 -41 -25 -23
-48 -39 -52 -36 -3 4 4 36 16 72 11 36 21 77 21 90 0 24 -2 25 -65 25 -54 0
-65 -3 -65 -17z"/>
<path d="M5844 1645 c-10 -38 1 -52 45 -59 48 -7 54 -16 101 -161 18 -55 53
-152 77 -215 52 -133 53 -171 7 -245 -16 -26 -46 -75 -66 -109 -45 -75 -70
-96 -114 -96 -28 0 -35 -4 -40 -27 -13 -48 4 -58 107 -61 121 -4 139 1 139 35
0 15 -5 40 -11 57 -10 29 -5 40 98 208 59 97 114 177 121 178 9 0 12 -43 12
-184 0 -192 -2 -200 -45 -208 -24 -4 -34 -66 -13 -79 7 -5 56 -9 108 -9 52 0
101 4 108 9 8 5 12 22 10 42 -2 26 -8 35 -25 37 -52 7 -53 18 -53 409 0 211 4
372 10 387 6 18 17 26 34 26 31 0 48 22 44 57 l-3 28 -120 0 -120 0 -3 -37
c-3 -34 -1 -38 29 -46 26 -6 35 -15 42 -43 23 -89 -24 -239 -106 -334 l-34
-39 -20 54 c-11 30 -42 119 -69 198 l-49 143 28 20 c27 20 33 42 21 73 -5 13
-26 16 -125 16 -118 0 -119 0 -125 -25z"/>
</g>
</svg>
