<svg version="1.0" xmlns="http://www.w3.org/2000/svg"
 width="691.000000pt" height="1056.000000pt" viewBox="0 0 691.000000 1056.000000"
 preserveAspectRatio="xMidYMid meet">
<g transform="translate(0.000000,1056.000000) scale(0.100000,-0.100000)"
fill="#000000" stroke="none">
<path d="M459 9873 l-107 -4 -6 -32 c-7 -34 11 -57 46 -57 9 0 22 -9 28 -20
12 -22 10 -773 -2 -785 -4 -4 -22 -10 -40 -14 -35 -7 -44 -25 -34 -67 7 -25 7
-25 124 -22 l117 3 0 40 c0 33 -4 40 -25 45 -63 15 -66 143 -7 263 43 86 102
160 111 137 42 -112 126 -358 126 -370 0 -8 -12 -24 -26 -35 -22 -18 -25 -26
-19 -53 l7 -33 115 3 c127 3 142 10 129 61 -5 23 -12 27 -40 27 -19 0 -39 7
-48 18 -8 9 -54 128 -102 265 l-88 247 47 83 c26 45 67 110 92 145 43 60 45
62 89 62 l44 0 0 45 0 45 -126 0 -127 0 8 -37 c4 -21 9 -49 12 -63 3 -19 -17
-59 -80 -160 -145 -233 -138 -224 -148 -209 -5 8 -9 94 -9 191 l0 176 35 12
c29 10 35 16 35 40 0 33 -9 61 -19 58 -3 -1 -54 -4 -112 -5z"/>
<path d="M1143 9548 c-4 -7 -8 -89 -8 -183 -4 -2098 -4 -8320 0 -8323 7 -7
1109 -2 1485 7 309 7 304 8 -237 9 -435 2 -553 5 -553 15 1 26 39 96 62 111
35 23 177 72 230 80 67 10 93 36 144 142 41 86 48 94 74 94 33 0 44 -26 24
-61 -7 -13 -13 -43 -14 -66 0 -34 5 -45 26 -60 15 -10 44 -35 65 -56 22 -21
59 -47 83 -57 24 -11 47 -30 54 -45 14 -31 31 -32 67 -3 16 13 65 41 109 64
108 54 130 85 121 172 -7 69 1 77 40 38 15 -15 26 -41 31 -72 11 -79 19 -90
101 -145 43 -28 93 -65 110 -82 28 -26 36 -29 55 -20 34 17 187 142 198 163 5
10 12 53 14 95 4 79 12 95 49 95 13 0 17 -9 17 -42 1 -51 21 -111 47 -140 10
-11 40 -31 67 -45 27 -14 72 -40 99 -59 27 -19 54 -34 61 -34 6 0 54 42 107
93 75 74 100 105 118 150 13 31 27 57 30 57 14 0 49 -45 74 -95 34 -67 57 -86
119 -96 29 -5 86 -20 127 -35 112 -41 186 -124 135 -152 -14 -8 -12 -11 12
-17 47 -12 1216 -6 1231 7 11 9 13 762 13 4249 0 4180 0 4238 -19 4249 -31 16
-4557 14 -4568 -2z m3862 -48 l25 -10 -24 -49 c-14 -26 -38 -60 -55 -73 -26
-22 -146 -66 -226 -82 -61 -13 -91 -41 -136 -129 -34 -66 -51 -89 -77 -101
-30 -15 -33 -15 -39 0 -3 10 0 31 7 48 36 89 23 123 -72 187 -35 23 -84 62
-110 86 -26 23 -52 43 -57 43 -6 0 -25 -13 -43 -28 -18 -15 -68 -45 -111 -66
-102 -49 -120 -76 -113 -163 5 -58 4 -63 -14 -63 -33 0 -60 36 -60 79 0 65
-18 98 -83 150 -34 27 -82 70 -107 95 -24 25 -51 46 -59 46 -8 0 -61 -46 -117
-102 l-103 -102 -7 -78 c-5 -63 -11 -81 -26 -89 -27 -14 -38 -3 -38 39 0 43
-29 110 -56 133 -55 46 -173 120 -201 125 -30 6 -38 0 -122 -83 -92 -91 -130
-152 -131 -207 l0 -29 -26 24 c-14 13 -39 49 -54 79 -40 78 -66 99 -139 111
-117 18 -212 66 -255 127 -29 42 -34 77 -12 89 21 12 2610 5 2641 -7z m-2716
-24 c16 -16 47 -61 67 -100 20 -39 52 -92 70 -118 44 -63 206 -350 261 -465
42 -86 44 -92 29 -115 -50 -77 -103 -278 -150 -574 -20 -120 -40 -236 -46
-257 l-11 -38 -46 40 c-73 65 -134 67 -202 6 -60 -55 -85 -122 -84 -226 l1
-86 -152 -37 c-83 -20 -185 -43 -226 -51 -101 -21 -277 -74 -435 -130 -71 -26
-141 -48 -155 -49 l-25 -1 0 1101 c0 927 2 1104 14 1118 13 15 57 16 537 14
l523 -3 30 -29z m3385 18 c14 -14 16 -140 16 -1235 0 -1076 -2 -1219 -15
-1219 -24 0 -93 69 -104 103 -6 19 -12 388 -16 917 -6 723 -10 891 -21 919
-19 45 -150 190 -179 197 -33 8 -58 -9 -115 -79 -28 -34 -69 -81 -90 -104
l-40 -42 0 -768 c0 -432 -4 -774 -9 -782 -8 -12 -17 -12 -58 -1 -26 7 -74 24
-105 38 -60 27 -71 42 -84 115 -6 36 -4 40 46 85 65 58 83 93 83 157 1 74 -39
145 -133 235 -43 41 -83 85 -89 97 -11 21 -8 24 37 47 36 18 53 35 72 73 54
106 19 212 -130 387 -87 102 -81 83 -53 183 19 65 37 103 69 144 24 31 65 103
93 160 27 57 65 120 84 140 20 20 51 67 70 105 34 66 70 109 112 132 13 8 110
11 282 12 225 0 264 -2 277 -16z m-1969 -114 c22 -23 63 -57 92 -77 57 -39 69
-61 79 -146 6 -57 6 -59 -17 -55 -24 3 -34 18 -68 100 -15 37 -28 52 -58 65
-21 10 -44 26 -51 36 -19 24 -33 22 -84 -17 -48 -37 -78 -87 -78 -129 0 -36
-40 -80 -64 -71 -16 6 -18 14 -12 62 4 30 14 71 23 91 21 44 159 181 182 181
9 0 35 -18 56 -40z m591 -40 c21 -16 62 -45 91 -64 70 -47 89 -84 73 -143 -18
-61 -63 -80 -125 -51 -29 13 -35 57 -10 78 12 10 16 8 24 -13 14 -36 26 -40
52 -18 23 19 23 21 9 48 -16 29 -45 39 -87 28 -26 -6 -53 -56 -53 -100 0 -22
-4 -25 -34 -25 -60 0 -67 7 -60 59 5 40 3 49 -19 69 -36 34 -72 27 -72 -13 0
-24 4 -29 20 -27 11 2 27 4 35 5 22 3 23 -27 2 -53 -24 -29 -73 -31 -110 -3
-20 15 -28 30 -30 60 -4 52 31 95 102 128 28 13 62 33 76 44 35 29 71 26 116
-9z m-1106 -30 c114 -67 130 -87 130 -155 0 -50 -2 -56 -30 -70 -53 -27 -105
-14 -112 30 -3 21 6 23 49 10 16 -5 24 -1 33 15 26 49 -65 84 -104 41 -20 -22
-24 -52 -13 -92 5 -20 3 -29 -9 -33 -26 -10 -60 19 -68 55 -3 18 -14 41 -23
51 -20 23 -70 23 -95 1 -33 -29 -17 -83 24 -83 19 0 41 33 30 46 -4 5 1 2 11
-5 23 -18 21 -37 -8 -66 -62 -63 -138 -1 -118 96 8 42 165 209 197 209 12 0
59 -23 106 -50z m-513 -61 c25 -8 39 -25 72 -87 23 -42 51 -89 62 -103 17 -21
19 -31 10 -47 -21 -40 -86 8 -118 88 -28 67 -61 89 -156 105 -42 7 -87 49 -87
82 l0 22 93 -25 c50 -13 106 -29 124 -35z m2211 16 c2 -17 -8 -23 -60 -40 -87
-28 -119 -52 -154 -119 -33 -64 -61 -90 -88 -80 -23 9 -20 45 11 100 48 89 80
114 188 145 73 22 99 20 103 -6z m438 -190 c3 -14 0 -54 -7 -90 -10 -53 -10
-88 -1 -178 10 -93 9 -126 -3 -192 -19 -105 -19 -198 1 -282 20 -85 13 -159
-23 -250 -23 -59 -27 -83 -27 -178 -1 -79 4 -124 16 -160 32 -92 32 -125 3
-224 -48 -164 -49 -321 -4 -464 34 -106 32 -206 -6 -327 -27 -85 -30 -109 -30
-225 0 -121 2 -137 34 -230 41 -124 46 -230 13 -340 -11 -38 -23 -82 -26 -97
-7 -31 -30 -36 -84 -17 l-31 11 -3 256 c-2 142 -1 846 2 1565 l5 1309 72 69
c40 38 77 69 83 69 5 0 12 -11 16 -25z m121 -2447 c-1 -442 -2 -83 -2 797 0
880 1 1241 2 803 2 -438 2 -1158 0 -1600z m-1172 2148 c72 -8 172 -22 224 -31
92 -17 93 -18 109 -54 19 -46 20 -174 0 -221 l-15 -35 -16 31 c-20 39 -60 54
-144 54 -40 0 -62 4 -58 10 3 6 24 10 45 10 44 0 61 15 27 24 -41 11 -74 6
-101 -15 -31 -24 -35 -45 -6 -29 40 21 21 -17 -32 -65 -48 -43 -53 -45 -65
-29 -15 21 -17 97 -3 123 5 10 26 22 47 26 20 4 51 16 67 28 45 32 124 35 175
6 22 -12 44 -20 47 -16 11 10 -24 56 -59 77 -45 28 -88 25 -167 -10 -71 -31
-127 -38 -162 -19 -18 10 -19 8 -12 -13 17 -55 24 -97 24 -164 0 -96 24 -230
60 -335 51 -147 39 -180 -57 -160 -31 6 -84 11 -118 11 -68 0 -91 14 -80 49 4
14 23 26 53 35 l47 15 -52 0 c-76 1 -89 -14 -117 -141 -4 -19 -34 -47 -111
-101 -121 -87 -178 -112 -229 -103 -57 11 -86 41 -86 88 0 25 7 49 17 60 33
37 112 10 86 -30 -6 -11 -20 -16 -37 -14 -21 3 -26 -1 -26 -17 0 -33 43 -48
74 -27 54 35 44 109 -18 140 -36 18 -40 18 -73 2 -62 -30 -80 -124 -35 -186
51 -69 151 -79 252 -25 128 69 189 96 226 101 79 11 85 13 82 37 -2 13 -16 29
-37 39 -51 25 -60 38 -28 38 40 0 85 -26 107 -62 l18 -31 12 43 11 42 68 -7
c56 -6 70 -4 89 12 39 31 38 79 -2 195 -42 123 -49 208 -17 208 11 0 53 -13
94 -30 105 -42 130 -40 179 13 37 40 40 41 53 24 45 -61 25 -385 -37 -585 -22
-71 -21 -142 2 -249 11 -50 42 -104 53 -93 3 3 -3 51 -14 107 -19 96 -19 104
-4 137 32 67 110 66 167 -2 38 -45 51 -95 52 -192 1 -112 -20 -165 -73 -180
-120 -33 -177 21 -221 207 -23 98 -51 144 -49 82 0 -36 13 -109 24 -146 4 -14
3 -23 -3 -23 -10 0 -42 86 -42 114 0 24 -17 28 -55 15 -29 -11 -35 -18 -35
-41 0 -34 -15 -36 -31 -6 l-12 22 -8 -23 c-8 -19 -14 -22 -39 -16 -17 4 -30 2
-30 -3 0 -5 -8 -12 -18 -14 -11 -3 -23 -22 -30 -46 -10 -33 -19 -43 -48 -52
-49 -17 -81 -5 -106 36 -16 26 -26 34 -40 30 -11 -2 -31 0 -45 7 -21 9 -27 8
-34 -6 -6 -9 -20 -17 -33 -17 -15 0 -26 -7 -29 -20 -7 -26 -27 -26 -27 -1 0
33 -20 34 -31 2 -16 -45 -26 -38 -34 24 -3 30 -10 55 -14 55 -5 0 -11 -25 -13
-56 -3 -33 -11 -62 -21 -72 -16 -15 -17 -11 -17 66 0 48 -4 82 -10 82 -5 0
-10 -1 -10 -3 0 -2 -5 -30 -10 -63 -25 -138 -59 -151 -39 -15 8 56 8 86 1 93
-11 11 -26 -30 -37 -102 -9 -54 -37 -114 -43 -88 -2 9 4 50 12 92 9 41 16 90
15 108 l-1 33 -14 -33 c-8 -18 -21 -64 -29 -102 -14 -65 -32 -110 -45 -110 -3
0 2 46 12 103 9 56 17 116 17 132 l0 30 -15 -28 c-8 -15 -22 -63 -30 -105 -27
-143 -85 -213 -159 -194 -106 29 -94 232 14 232 39 0 66 -80 45 -134 -8 -21
-38 -20 -59 1 -16 16 -16 17 0 29 11 8 15 20 11 30 -8 21 -31 4 -44 -34 -18
-53 18 -92 74 -78 34 9 62 70 84 188 11 56 22 109 26 120 8 28 -20 22 -36 -7
-16 -30 -30 -32 -30 -5 0 26 -22 26 -40 -2 -22 -32 -49 -58 -60 -58 -15 0 -12
26 6 41 19 16 44 63 44 84 0 22 -33 3 -72 -41 -25 -28 -58 -45 -58 -30 0 14
32 75 44 86 17 13 22 40 7 40 -5 0 -16 -12 -26 -26 -22 -34 -53 -64 -65 -64
-20 0 -9 43 20 77 32 36 38 53 17 53 -16 0 -51 -37 -60 -62 -4 -10 -11 -18
-17 -18 -19 0 -10 23 20 52 17 15 30 33 30 39 0 6 15 50 34 98 46 115 68 207
110 451 34 199 64 324 104 425 19 50 20 50 73 56 113 12 624 9 754 -5z m-868
-35 c-3 -14 -15 -57 -27 -96 -11 -38 -38 -173 -60 -300 -21 -126 -48 -265 -59
-307 -21 -80 -60 -167 -61 -135 0 33 60 420 85 542 29 140 82 317 98 327 18
11 29 -3 24 -31z m-204 -83 c-54 -231 -73 -333 -98 -547 -14 -122 -37 -265
-50 -317 -23 -91 -79 -214 -96 -214 -12 0 -11 8 6 57 25 72 53 232 75 423 26
235 61 420 106 563 20 62 38 118 40 125 2 6 12 12 23 12 18 0 18 -3 -6 -102z
m111 94 c2 -4 -9 -59 -25 -122 -17 -63 -54 -257 -84 -430 -62 -363 -70 -401
-91 -443 -23 -43 -35 -16 -23 48 5 28 30 190 55 360 46 314 56 365 100 513 20
65 28 82 44 82 10 0 21 -3 24 -8z m-164 -4 c0 -2 -14 -45 -30 -97 -38 -122
-74 -297 -100 -491 -11 -85 -27 -206 -35 -268 -22 -164 -83 -338 -127 -366
-32 -20 -30 3 5 91 56 142 65 186 108 538 33 270 99 553 137 583 14 10 42 17
42 10z m-90 -21 c0 -7 -13 -56 -30 -108 -50 -160 -69 -258 -95 -485 -28 -235
-45 -336 -76 -428 -30 -88 -87 -196 -104 -196 -20 0 -20 -5 20 111 41 119 69
260 90 464 18 171 45 318 82 455 28 107 29 109 43 130 5 8 14 27 20 43 10 28
50 39 50 14z m-95 -39 c-4 -18 -13 -47 -21 -64 -27 -61 -63 -220 -84 -369 -47
-343 -62 -425 -91 -532 -30 -109 -77 -203 -100 -203 -7 0 -8 7 -4 18 25 62 68
270 95 462 36 255 62 402 91 508 24 92 84 212 105 212 12 0 14 -7 9 -32z m-95
-12 c0 -13 -11 -52 -24 -87 -31 -84 -58 -217 -96 -479 -17 -118 -38 -249 -46
-290 -24 -121 -73 -258 -105 -295 -16 -18 -29 -38 -29 -44 0 -6 -2 -11 -4 -11
-2 0 -11 -3 -20 -6 -12 -4 -16 0 -16 15 0 12 7 24 15 27 15 6 48 85 71 173 8
30 25 148 39 261 53 422 144 760 205 760 6 0 10 -11 10 -24z m-83 -13 c-3 -10
-22 -63 -41 -118 -45 -127 -78 -296 -110 -553 -29 -226 -44 -304 -82 -409 -17
-48 -32 -74 -45 -78 -10 -4 -19 -12 -19 -20 0 -20 -85 -49 -136 -46 -34 2
-111 69 -128 112 -20 50 -21 149 -1 197 51 121 179 150 230 52 30 -57 13 -173
-32 -222 -25 -28 -79 -23 -108 8 -33 35 -35 109 -4 148 41 52 73 19 64 -66
l-6 -53 20 24 c26 29 29 106 5 139 -51 73 -159 -45 -135 -148 17 -76 52 -110
113 -110 27 0 47 8 72 30 67 59 92 143 136 444 37 256 62 381 101 503 47 147
65 183 90 183 16 0 20 -5 16 -17z m2740 -1573 c0 -298 -3 -515 -8 -490 -4 25
-7 412 -6 860 1 625 2 739 8 490 3 -179 6 -566 6 -860z m-215 793 c3 -16 17
-72 32 -127 32 -119 32 -159 5 -279 -33 -143 -30 -256 11 -397 28 -99 32 -126
27 -195 -2 -44 -16 -118 -29 -165 -49 -163 -46 -269 13 -455 48 -154 44 -270
-13 -423 -17 -45 -22 -51 -35 -41 -17 15 -14 56 12 169 24 106 16 205 -30 350
-34 107 -36 121 -32 205 4 61 15 116 33 170 25 71 28 94 28 210 0 114 -3 140
-27 210 -36 108 -36 195 0 324 35 126 37 251 5 362 -23 79 -28 124 -13 115 5
-3 11 -18 13 -33z m-2286 -553 c157 -376 262 -754 279 -1012 3 -46 8 -100 11
-120 2 -21 0 -38 -5 -38 -24 0 -39 34 -45 107 -24 269 -120 622 -272 1004 -71
179 -81 224 -47 217 8 -2 43 -71 79 -158z m-1062 40 c194 -236 427 -751 531
-1173 97 -393 147 -923 116 -1232 -40 -400 -213 -940 -421 -1315 -120 -217
-303 -470 -341 -470 -29 0 -79 28 -79 44 0 8 39 68 87 133 199 272 317 482
426 758 75 191 173 512 182 600 2 17 10 75 19 130 12 76 16 177 16 418 0 286
-3 336 -25 500 -63 449 -138 710 -309 1062 -92 190 -175 333 -277 477 -38 53
-69 101 -69 107 0 15 31 30 61 31 19 0 38 -16 83 -70z m558 -90 c108 -237 188
-455 253 -690 51 -183 112 -488 125 -625 6 -66 15 -147 21 -180 8 -48 19 -474
19 -751 0 -33 5 -54 13 -57 7 -3 44 -1 82 4 234 30 248 30 302 13 45 -15 59
-16 120 -5 52 10 86 10 146 2 43 -6 101 -11 128 -11 74 0 141 -19 137 -39 -4
-18 -2 -18 -128 4 -132 23 -345 29 -560 16 -130 -9 -204 -9 -221 -3 l-25 10
-38 -236 c-78 -492 -242 -1001 -439 -1360 -56 -102 -80 -123 -122 -104 -34 16
-32 32 14 110 247 425 454 1103 502 1642 15 168 7 555 -15 735 -68 551 -215
1084 -420 1517 -25 53 -46 103 -46 111 0 18 22 26 65 24 28 -2 33 -9 87 -127z
m1491 76 c3 -8 -21 -82 -54 -165 -128 -328 -162 -445 -228 -781 -38 -191 -50
-235 -64 -238 -13 -3 -17 4 -17 31 0 60 38 264 85 454 47 192 190 622 226 679
22 36 43 44 52 20z m1055 -20 c15 -14 13 -18 -167 -266 -99 -138 -169 -256
-185 -315 -5 -18 1 -22 55 -32 43 -8 74 -22 112 -51 29 -22 73 -47 99 -57 26
-10 45 -21 42 -26 -9 -15 -62 -10 -122 12 -31 11 -84 30 -116 42 -46 16 -62
27 -70 49 -6 15 -14 28 -19 28 -9 0 -39 -66 -107 -236 -104 -260 -186 -525
-200 -644 -5 -41 -19 -120 -32 -175 -21 -92 -22 -122 -21 -370 1 -254 4 -284
38 -515 20 -135 47 -301 61 -370 30 -145 101 -367 168 -524 75 -174 204 -425
226 -438 11 -7 20 -23 20 -35 0 -13 11 -29 24 -38 13 -9 27 -28 31 -43 4 -15
33 -62 66 -105 65 -87 74 -121 34 -131 -49 -13 -90 19 -163 128 -295 434 -469
893 -546 1436 -44 311 -51 405 -51 705 0 320 3 345 67 600 125 501 297 882
548 1221 109 147 139 176 169 169 14 -3 32 -12 39 -19z m-3512 -9 c2 -7 -2
-46 -11 -87 -57 -271 -39 -562 52 -830 45 -135 117 -281 194 -399 72 -110 232
-279 343 -364 76 -58 251 -167 268 -167 5 0 20 -8 34 -17 24 -15 25 -18 9 -29
-15 -11 -29 -7 -95 26 -150 75 -288 177 -415 304 -185 185 -298 372 -384 631
-68 204 -76 261 -76 510 0 214 13 325 46 412 9 25 27 30 35 10z m1658 -47 c33
-12 42 -49 22 -89 l-17 -31 49 0 c26 0 53 -5 60 -12 21 -21 13 -55 -19 -82
-24 -20 -41 -26 -80 -26 -27 0 -49 5 -49 10 0 6 10 10 23 10 29 0 67 26 67 47
0 16 -34 15 -87 -2 -17 -5 -23 -3 -23 8 0 8 10 22 23 30 l22 16 -23 0 c-35 1
-59 18 -66 47 -10 37 1 61 32 73 36 13 37 13 66 1z m1338 -18 c3 -4 -34 -81
-83 -172 -121 -223 -169 -336 -255 -596 -110 -333 -182 -647 -214 -929 -29
-261 0 -760 66 -1140 66 -376 230 -896 374 -1187 41 -82 40 -99 -7 -113 -30
-9 -64 26 -88 90 -10 28 -40 102 -66 165 -109 262 -243 701 -299 980 -6 29
-17 117 -25 195 -8 77 -25 208 -36 290 -19 133 -21 180 -16 405 8 413 58 701
213 1246 56 197 136 397 246 618 73 147 95 171 146 161 20 -4 40 -10 44 -13z
m-2746 -36 c28 -28 34 -42 34 -75 0 -45 -24 -91 -47 -91 -7 0 -24 -7 -37 -15
-27 -18 -68 -12 -88 12 -11 13 -5 14 43 8 52 -6 57 -5 72 19 21 31 22 76 3 76
-7 0 -25 -9 -39 -20 l-25 -20 -21 27 c-11 16 -27 35 -36 44 -14 14 -13 17 2
31 56 48 94 49 139 4z m1781 -73 c-5 -75 -67 -307 -88 -327 -17 -18 -26 6 -69
182 -44 180 -45 206 -1 183 15 -8 21 -21 21 -45 0 -38 16 -90 38 -124 15 -24
16 -24 28 25 7 26 13 58 14 71 0 12 4 30 9 40 5 9 14 29 22 45 23 49 32 31 26
-50z m-1648 -4 c4 -12 3 -47 -2 -78 -16 -102 -3 -334 26 -444 38 -145 147
-360 228 -452 42 -47 118 -123 163 -163 26 -24 46 -46 43 -49 -12 -12 -105 54
-173 123 -154 155 -269 379 -315 609 -15 77 -19 350 -6 428 9 50 23 60 36 26z
m1831 -15 c49 -20 64 -43 49 -77 -33 -73 -169 -41 -169 40 0 50 48 65 120 37z
m1153 -236 c84 -69 177 -166 177 -184 0 -16 -11 -16 -54 2 -17 6 -18 4 -12
-22 4 -16 8 -33 9 -39 3 -15 -51 -7 -100 15 -42 18 -133 100 -133 120 0 19 46
10 119 -25 81 -39 93 -42 85 -20 -4 8 -37 31 -74 51 -48 25 -72 44 -80 65 -11
26 -7 79 6 79 3 0 29 -19 57 -42z m-3152 -28 c46 -25 63 -109 32 -161 -21 -36
-60 -50 -108 -39 -56 13 -85 45 -84 94 l0 41 14 -46 c20 -65 41 -81 88 -68 42
11 67 42 67 81 0 33 -19 37 -45 8 -25 -28 -40 -25 -65 11 -13 17 -28 28 -36
25 -24 -9 -15 11 17 38 33 28 85 34 120 16z m1623 -6 c9 -8 16 -29 16 -44 0
-37 -29 -58 -93 -66 -44 -6 -47 -5 -57 20 -15 40 -12 64 10 86 25 25 101 28
124 4z m-2137 -67 c66 -82 107 -152 197 -335 90 -185 151 -347 207 -553 90
-332 90 -334 27 -326 -22 3 -42 8 -45 10 -2 3 3 29 11 58 28 93 15 149 -50
217 -40 41 -44 49 -35 70 17 36 13 49 -14 56 -15 4 -25 14 -25 24 0 30 -37
135 -64 183 -17 30 -25 59 -24 80 3 29 0 34 -18 33 -18 0 -21 5 -18 35 3 42
-9 67 -36 76 -15 5 -20 17 -22 63 l-3 57 -32 -2 c-30 -3 -33 0 -43 39 -10 37
-33 65 -84 106 -28 22 -20 187 9 176 7 -3 35 -33 62 -67z m860 47 c2 -6 -6
-14 -17 -17 -37 -10 -21 -42 20 -42 26 0 34 -4 32 -15 -3 -14 -16 -26 -36 -33
-20 -7 6 -27 35 -27 41 0 36 -15 -12 -34 -32 -13 -40 -21 -37 -39 3 -24 27
-28 81 -14 20 5 27 4 27 -7 0 -21 -25 -37 -68 -43 -33 -4 -42 -2 -56 18 -22
32 -20 68 5 95 26 28 19 41 -26 50 -32 6 -35 9 -35 40 0 49 26 86 58 82 14 -2
27 -8 29 -14z m-890 -288 c12 -23 12 -33 2 -58 -12 -28 -11 -33 13 -52 14 -12
33 -26 42 -31 16 -9 16 -14 5 -39 -12 -26 -12 -30 5 -40 10 -6 28 -19 40 -28
21 -17 21 -17 1 -32 -20 -16 -19 -17 19 -50 35 -30 38 -36 32 -69 -6 -33 -4
-37 24 -52 34 -17 37 -29 15 -51 -22 -22 -19 -33 17 -52 73 -40 91 -82 34 -82
-51 0 -71 24 -117 145 -23 61 -73 175 -112 255 -64 134 -70 151 -75 225 l-5
80 23 -20 c12 -11 29 -33 37 -49z m3604 -93 c43 -27 71 -54 79 -73 7 -17 10
-33 8 -36 -3 -3 -41 13 -84 34 -44 22 -94 43 -111 47 -55 11 -93 81 -61 113
12 12 49 -6 169 -85z m278 -2 c1 -46 -7 -69 -53 -160 -29 -58 -70 -149 -89
-201 -36 -96 -90 -305 -102 -392 -3 -26 -10 -50 -15 -53 -5 -3 -23 1 -40 10
-23 12 -29 21 -26 38 3 12 10 49 16 82 37 201 159 531 263 714 26 46 32 52 38
35 4 -10 8 -43 8 -73z m-3255 44 c40 -19 66 -62 66 -110 0 -54 -53 -105 -109
-105 -53 0 -89 17 -107 51 -22 44 -18 93 13 129 42 51 82 61 137 35z m2919
-119 c37 -16 104 -82 94 -93 -4 -4 -26 -10 -50 -13 l-42 -6 38 -17 c95 -41 0
-50 -137 -13 -100 28 -115 38 -96 61 17 21 63 19 110 -5 22 -11 46 -20 55 -20
31 0 14 20 -39 45 -65 31 -87 52 -65 66 21 13 95 11 132 -5z m-2701 -235 c29
-26 33 -35 33 -81 0 -46 -4 -55 -33 -81 -45 -41 -108 -41 -154 0 -28 25 -32
34 -32 81 0 47 4 56 32 81 46 41 109 41 154 0z m2573 -72 c59 -26 105 -53 120
-71 29 -35 32 -53 8 -43 -10 4 -58 20 -108 37 -49 17 -102 36 -117 44 -40 21
-50 74 -13 74 7 0 57 -19 110 -41z m-1615 -53 c52 -13 140 -30 194 -36 132
-17 453 -7 601 18 61 11 118 16 128 13 16 -6 16 -9 -7 -30 -68 -64 -494 -103
-731 -67 -145 22 -252 54 -275 83 -21 27 -25 43 -12 43 4 0 50 -11 102 -24z
m1634 -48 c28 -14 76 -59 76 -71 0 -6 -33 -8 -80 -5 -69 4 -87 9 -122 34 -23
16 -43 34 -45 41 -8 23 126 25 171 1z m-1493 -82 c204 -35 410 -30 638 15 120
24 121 24 121 -58 0 -87 -30 -123 -100 -123 -39 0 -30 23 13 36 26 7 33 15 35
40 5 50 -16 60 -101 46 -40 -7 -79 -19 -87 -27 -8 -9 -17 -39 -20 -68 l-5 -52
-52 -3 c-60 -3 -68 8 -20 29 38 17 47 49 19 77 -17 17 -29 19 -88 15 -38 -3
-75 -10 -81 -15 -7 -6 -15 -26 -19 -47 -10 -55 -22 -71 -52 -71 -69 0 -96 30
-36 40 24 4 30 11 32 36 4 44 -17 60 -88 68 -70 8 -93 -4 -103 -53 -12 -58
-51 -69 -114 -32 -16 9 -14 10 13 11 35 0 54 16 54 45 0 35 -15 46 -89 65 -72
18 -111 41 -111 65 0 9 20 8 75 -6 41 -9 116 -24 166 -33z m-826 -21 c29 -29
35 -43 35 -76 0 -68 -79 -131 -143 -115 -35 8 -76 54 -83 91 -8 44 3 74 38
107 23 22 40 28 74 28 36 0 49 -6 79 -35z m-787 -15 c127 -78 75 -293 -71
-293 -90 0 -157 67 -157 157 0 92 62 156 150 156 27 0 58 -8 78 -20z m1474
-22 c45 -13 45 -32 0 -36 -25 -3 -33 -9 -38 -29 -4 -14 -2 -33 3 -42 13 -21
77 -42 137 -44 54 -2 61 5 83 78 8 27 13 30 47 29 44 -2 70 -20 40 -29 -41
-13 -49 -23 -49 -56 0 -30 4 -34 40 -45 53 -16 128 -17 143 -2 7 7 12 31 12
54 0 53 20 74 70 74 49 0 59 -15 23 -32 -35 -17 -46 -80 -16 -96 19 -10 151
-1 172 12 6 4 11 33 11 65 0 31 5 62 12 69 7 7 36 12 66 12 47 0 53 -2 42 -15
-7 -8 -17 -15 -23 -15 -18 0 -47 -32 -47 -52 0 -32 37 -59 73 -53 37 6 62 -7
54 -28 -16 -42 -528 -57 -762 -23 -165 24 -168 26 -177 106 -11 112 -1 124 84
98z m2186 -64 c89 -24 106 -26 207 -19 193 13 265 12 275 -5 12 -19 13 -81 1
-99 -5 -8 -33 -18 -63 -22 -29 -3 -88 -12 -130 -20 -106 -17 -203 -2 -318 51
-97 44 -106 46 -155 26 -46 -20 -60 -48 -41 -83 14 -26 15 -27 16 -6 0 13 11
30 25 39 23 15 27 15 49 0 29 -18 42 -66 26 -96 -13 -23 -67 -60 -89 -60 -30
0 -90 52 -106 92 -34 86 12 181 102 214 55 19 94 17 201 -12z m-14 -169 c18
-9 54 -40 80 -70 l46 -54 43 30 c55 38 143 51 182 25 45 -29 25 -104 -31 -120
-25 -8 -54 16 -54 43 0 24 -9 31 -29 21 -9 -4 -28 -13 -43 -19 -18 -7 -28 -18
-28 -31 0 -27 -12 -25 -40 5 -25 27 -40 25 -40 -7 0 -18 -4 -20 -32 -14 -18 4
-46 20 -63 36 -26 26 -30 38 -33 100 -2 38 -1 70 3 70 4 0 22 -7 39 -15z
m-1324 -18 c0 -8 -10 -19 -22 -25 -34 -18 -237 -43 -285 -36 -39 6 -43 4 -43
-15 0 -11 5 -21 10 -21 21 0 9 -49 -19 -79 -33 -35 -65 -40 -80 -12 -8 14 -5
23 14 41 14 13 25 27 25 32 0 4 -36 8 -80 8 -65 0 -80 -3 -80 -15 0 -9 11 -20
24 -25 32 -12 41 -28 26 -45 -17 -21 -43 -19 -74 6 -30 23 -33 56 -11 99 21
40 103 59 182 42 52 -11 56 -10 73 11 15 19 34 23 131 33 165 16 209 17 209 1z
m-2120 -79 c60 -60 90 -163 90 -320 0 -65 -3 -77 -17 -81 -111 -29 -113 -30
-128 -17 -19 16 -19 34 2 88 14 38 15 53 4 122 -6 43 -9 90 -5 104 4 18 -2 39
-20 72 -14 25 -23 50 -20 55 12 20 61 8 94 -23z m-417 -18 c6 -16 14 -30 17
-30 4 0 16 14 28 30 19 25 30 30 63 30 56 0 79 -15 79 -49 0 -16 -6 -33 -12
-39 -7 -5 -68 -12 -136 -14 -132 -6 -152 0 -152 44 0 33 29 58 67 58 29 0 37
-5 46 -30z m3785 -52 c21 -21 15 -116 -9 -150 -12 -16 -21 -39 -21 -51 -1 -43
41 -162 62 -179 34 -27 19 -48 -33 -48 -42 0 -45 2 -69 48 -43 80 -61 150 -61
237 0 114 8 143 41 148 54 8 78 7 90 -5z m-1893 -42 c39 -17 46 -43 18 -68
-37 -32 -61 -31 -93 4 l-30 32 0 -67 0 -68 29 20 c53 38 111 19 111 -35 0 -19
-8 -28 -35 -40 -81 -33 -166 -3 -194 69 -12 33 -12 42 4 83 14 37 25 50 59 65
50 22 85 24 131 5z m-1723 -38 c4 -7 7 -29 6 -48 -3 -33 -5 -35 -48 -42 -89
-13 -207 -9 -224 8 -35 34 -6 94 44 94 31 0 43 -12 57 -55 l10 -30 16 32 c24
46 55 65 96 59 19 -3 38 -11 43 -18z m2226 -10 c32 -54 34 -80 9 -129 -12 -24
-29 -44 -37 -44 -8 -1 -25 -6 -37 -13 -44 -24 -118 -5 -127 33 -8 33 1 52 32
62 41 14 60 5 72 -33 20 -59 36 -42 32 34 -4 66 9 122 27 122 5 0 18 -15 29
-32z m1836 16 c37 -36 6 -94 -50 -94 -27 0 -36 6 -50 31 l-16 31 -19 -31 c-45
-74 -159 -73 -159 1 0 33 -7 30 125 56 126 25 150 26 169 6z m-3 -154 c10 -6
19 -19 19 -30 0 -49 -85 -70 -114 -28 l-16 22 -23 -22 c-26 -24 -93 -30 -128
-12 -22 12 -27 65 -6 73 23 10 248 7 268 -3z m-2210 -40 c29 -16 23 -47 -13
-67 l-33 -17 45 -7 c65 -11 140 -10 140 0 0 5 -16 15 -35 21 -27 9 -35 17 -35
35 0 12 7 28 16 36 13 11 21 10 50 -6 30 -16 34 -23 34 -60 0 -38 -3 -43 -39
-63 -44 -25 -72 -27 -137 -11 -33 9 -49 19 -59 40 -37 71 4 132 66 99z m1197
-120 c154 -88 223 -142 343 -268 262 -273 407 -568 465 -947 35 -231 -8 -621
-72 -642 -5 -2 0 56 13 129 43 256 41 405 -9 637 -39 183 -123 387 -226 546
-146 227 -401 456 -620 558 -56 26 -69 36 -60 45 20 20 49 10 166 -58z m998
42 c6 -4 16 -17 22 -29 25 -45 -51 -75 -80 -31 l-15 22 -28 -22 c-19 -15 -42
-22 -70 -22 -51 0 -70 18 -61 56 l7 27 88 -6 c48 -3 94 -1 102 4 17 11 21 11
35 1z m-4024 -19 c15 -13 23 -14 44 -5 38 18 50 15 90 -20 33 -30 36 -35 31
-75 -6 -54 -9 -57 -43 -49 -26 7 -174 141 -174 158 0 14 33 9 52 -9z m-194
-23 c20 -36 30 -38 34 -7 5 34 50 35 77 1 28 -36 23 -47 -30 -61 -66 -17 -135
-16 -154 3 -23 23 -15 66 15 81 35 18 39 17 58 -17z m562 -28 c44 -44 57 -90
41 -149 -32 -117 -141 -155 -293 -101 -70 24 -206 29 -370 14 -103 -10 -118
-3 -118 55 0 41 19 66 53 73 114 23 246 37 288 31 27 -4 86 -25 131 -46 90
-44 149 -56 191 -40 35 14 50 51 36 89 l-11 27 -11 -35 c-23 -68 -97 -43 -97
32 0 52 35 88 86 88 29 0 44 -8 74 -38z m3566 -92 c62 -61 68 -147 13 -213
-34 -41 -86 -62 -135 -53 -42 8 -45 26 -4 26 42 0 96 24 109 48 12 23 15 75 5
85 -4 4 -20 -5 -36 -18 -35 -30 -64 -31 -98 -5 -44 35 -70 22 -70 -35 0 -13 5
-25 12 -27 6 -2 9 -11 6 -18 -10 -27 -61 98 -54 132 15 76 80 121 164 115 44
-3 59 -9 88 -37z m-294 19 c18 -10 19 -17 13 -88 -8 -87 4 -129 55 -192 27
-34 28 -39 17 -69 -11 -28 -10 -33 7 -45 10 -8 24 -16 29 -18 6 -2 10 -22 9
-45 -2 -32 1 -43 18 -52 17 -9 19 -17 14 -50 -6 -35 -4 -40 13 -40 34 0 43
-21 31 -70 -11 -41 -10 -44 15 -65 15 -11 27 -29 27 -38 0 -10 10 -37 22 -60
12 -23 24 -60 28 -82 5 -40 16 -46 58 -34 8 3 19 -14 30 -46 12 -35 27 -56 52
-73 19 -13 36 -19 38 -14 1 5 -11 45 -28 88 -19 47 -30 90 -27 107 3 25 -2 32
-36 54 -34 21 -38 27 -24 35 28 15 20 45 -19 68 -28 16 -34 24 -25 33 19 19
12 45 -19 68 -23 18 -27 26 -20 40 18 32 11 48 -32 75 l-42 27 22 17 c31 25
28 36 -18 65 -73 46 -76 94 -6 81 43 -8 73 -45 106 -131 35 -87 156 -351 191
-413 l29 -52 -2 -188 c-3 -179 -4 -187 -23 -190 -19 -3 -67 52 -142 163 -87
128 -217 407 -294 633 -56 163 -139 479 -132 499 6 16 37 17 65 2z m-1416 -41
c85 -16 121 -38 140 -83 38 -92 0 -146 -80 -115 -35 13 -33 30 4 30 23 0 31 5
36 24 3 14 4 33 2 43 -5 29 -66 53 -134 53 l-61 0 -19 -52 c-20 -56 -38 -67
-90 -54 -30 8 -31 26 -1 26 29 0 43 10 51 37 13 43 -7 60 -88 72 -103 15 -105
14 -121 -69 -10 -49 -22 -60 -66 -60 -46 0 -50 13 -11 32 30 15 39 46 22 79
-11 20 -17 21 -95 17 -46 -3 -88 -9 -94 -12 -6 -4 -11 -30 -11 -57 0 -75 -11
-89 -70 -89 -58 0 -64 10 -17 31 23 10 33 22 35 42 5 41 -13 57 -67 57 -77 0
-89 24 -21 45 85 27 621 28 756 3z m-1718 -24 c19 -5 22 -13 22 -54 0 -59 -44
-233 -100 -394 -36 -103 -178 -427 -195 -444 -25 -26 -35 130 -10 158 21 23
127 277 163 392 17 52 40 142 52 199 33 169 26 154 68 143z m1481 -35 c36 -13
41 -29 8 -29 -31 0 -47 -18 -47 -52 0 -36 24 -48 107 -51 l68 -2 15 48 c8 26
22 52 29 57 14 8 96 -11 109 -26 4 -3 -3 -3 -15 0 -44 14 -82 -29 -68 -74 4
-14 27 -26 77 -41 38 -12 82 -32 96 -45 34 -30 24 -30 -99 -5 -240 49 -535 54
-729 12 -52 -11 -108 -21 -124 -21 l-29 0 6 70 c8 101 22 124 76 128 47 4 54
-13 12 -34 -13 -7 -27 -16 -33 -22 -13 -13 -1 -69 18 -76 21 -8 166 22 176 36
4 7 8 30 8 51 0 54 15 77 50 77 34 0 60 -9 60 -21 0 -5 -8 -9 -18 -9 -10 0
-23 -5 -30 -12 -17 -17 -15 -63 3 -78 18 -15 149 -10 166 7 6 6 15 30 20 54
16 70 29 78 88 58z m1128 -9 c40 -24 57 -78 42 -133 -24 -89 -140 -100 -198
-18 -26 37 -26 65 0 107 40 66 95 81 156 44z m-3109 -123 c2 -15 -4 -58 -14
-95 -10 -42 -17 -105 -17 -168 0 -85 6 -119 34 -215 45 -153 46 -255 4 -379
-27 -77 -29 -97 -29 -215 1 -112 4 -142 27 -214 36 -112 35 -184 -3 -336 -36
-142 -38 -227 -10 -317 20 -63 28 -171 11 -152 -15 17 -61 252 -61 316 0 35
10 100 22 144 33 120 30 252 -7 374 -39 130 -38 222 4 389 38 152 41 249 10
337 -34 98 -59 216 -59 277 0 48 13 121 45 265 8 33 39 25 43 -11z m118 12
l44 -11 1 -282 c1 -154 1 -284 1 -287 -1 -3 -4 -574 -8 -1270 -5 -1001 -9
-1269 -20 -1289 -7 -14 -40 -52 -73 -85 -57 -56 -62 -58 -78 -42 -16 15 -16
22 -3 79 8 35 12 88 9 118 -7 94 -3 230 10 345 11 96 11 119 -3 178 -25 107
-21 179 16 282 40 115 44 230 10 346 -28 97 -28 122 8 254 41 149 42 274 4
396 -39 125 -37 216 10 392 20 76 36 159 36 185 0 61 -21 158 -55 252 -19 55
-26 95 -26 150 -1 97 45 300 67 300 3 0 25 -5 50 -11z m1956 -104 c145 -19
267 -53 295 -81 26 -26 31 -74 8 -74 -8 0 -48 9 -88 20 -184 52 -474 66 -702
35 -195 -27 -199 -27 -218 -13 -21 15 -15 38 13 56 23 14 195 49 300 61 119
13 276 12 392 -4z m-1437 -72 c138 -51 159 -64 163 -96 3 -24 0 -28 -15 -23
-10 3 -31 8 -48 12 -71 16 -193 93 -216 136 -10 19 -9 20 7 13 11 -4 60 -23
109 -42z m2343 2 c281 -211 455 -607 439 -995 -7 -142 -16 -183 -42 -189 -15
-3 -17 2 -11 30 14 71 18 267 7 354 -20 160 -87 366 -147 448 -13 17 -32 50
-43 73 -10 22 -33 53 -51 68 -18 15 -40 42 -49 59 -9 18 -33 41 -53 52 -21 11
-38 24 -38 30 0 5 -20 28 -45 51 -42 38 -57 64 -36 64 5 0 36 -20 69 -45z
m415 -1 c45 -45 47 -106 6 -158 -17 -22 -29 -26 -70 -26 -27 0 -49 5 -49 10 0
6 7 10 16 10 12 0 15 6 9 23 -20 63 -18 74 14 85 36 13 39 27 10 43 -27 14
-85 3 -93 -17 -11 -29 -6 -89 10 -112 22 -31 0 -28 -25 4 -25 32 -26 55 -5
100 32 67 128 87 177 38z m-1739 -289 c-19 -128 -48 -270 -86 -415 -39 -152
-152 -490 -189 -564 -16 -33 -29 -67 -29 -77 0 -10 -7 -25 -16 -34 -15 -15
-18 -14 -31 5 -13 19 -8 37 61 213 121 311 160 446 226 771 36 182 52 228 72
208 4 -4 0 -52 -8 -107z m396 -36 c46 -331 130 -626 290 -1018 53 -132 56
-146 39 -157 -19 -11 -35 17 -93 155 -114 271 -207 583 -260 871 -35 190 -42
280 -25 291 8 4 17 5 22 0 4 -4 16 -68 27 -142z m-1390 67 c77 -25 94 -42 65
-66 -14 -11 -25 -11 -62 -2 -25 7 -48 11 -50 8 -2 -2 12 -16 31 -31 53 -40 47
-55 -20 -55 -63 0 -105 16 -152 60 -47 42 -42 54 21 47 28 -3 66 -9 82 -13 56
-13 8 25 -54 42 -70 20 -76 24 -60 36 20 13 113 1 199 -26z m2888 -57 c41 -14
62 -49 62 -103 0 -33 -7 -52 -26 -75 -22 -27 -32 -31 -76 -31 -41 0 -54 5 -79
29 -25 25 -29 37 -29 83 0 30 6 61 13 70 29 37 78 47 135 27z m-3084 -73 c32
-19 80 -40 108 -47 55 -14 88 -47 88 -86 0 -13 -7 -26 -15 -29 -16 -6 -147 65
-199 108 -32 26 -65 88 -47 88 5 0 34 -15 65 -34z m23 -247 c60 -22 110 -42
112 -44 2 -2 -8 -15 -22 -29 -20 -19 -36 -26 -67 -26 -42 0 -48 -8 -28 -40 19
-29 5 -33 -55 -16 -58 17 -133 69 -161 112 l-18 27 51 -5 c38 -4 66 -15 104
-41 50 -35 77 -36 64 -4 -5 13 -89 58 -177 95 -22 9 -17 11 32 11 44 1 83 -8
165 -40z m3182 -65 c55 -46 51 -132 -9 -174 -45 -32 -86 -26 -131 19 -61 60
-50 124 26 164 44 23 79 20 114 -9z m-3344 -72 c118 -73 125 -79 125 -118 0
-47 -15 -50 -59 -12 -21 18 -61 52 -90 76 -47 39 -112 135 -79 117 7 -4 54
-33 103 -63z m1535 -159 c43 -140 62 -279 38 -271 -18 6 -47 68 -48 100 0 29
-19 78 -30 78 -11 0 -30 -49 -30 -80 0 -16 -4 -32 -10 -35 -5 -3 -10 -15 -10
-26 0 -11 -7 -31 -16 -44 -58 -88 -42 74 28 284 28 86 32 93 45 75 7 -10 22
-47 33 -81z m230 12 c0 -2 -18 -9 -40 -15 -21 -6 -46 -18 -55 -27 -16 -15 -16
-17 0 -26 11 -6 33 -5 62 2 56 14 64 9 33 -24 l-23 -25 25 0 c44 0 40 -13 -14
-39 -84 -42 -70 -73 19 -46 61 19 60 19 37 -6 -21 -24 -73 -49 -103 -49 -10 0
-29 8 -41 18 -34 28 -21 66 33 94 l42 22 -50 7 c-54 9 -79 31 -69 63 10 37 43
56 95 56 27 0 49 -2 49 -5z m-2413 -147 c18 -13 42 -41 53 -64 19 -39 20 -63
20 -932 0 -743 2 -898 14 -926 15 -37 178 -206 198 -206 17 0 206 198 219 230
7 16 12 282 16 770 2 410 6 755 9 768 6 30 26 28 121 -13 45 -19 88 -35 96
-35 15 0 19 -11 33 -91 6 -39 4 -43 -55 -82 -53 -34 -75 -79 -74 -152 1 -100
60 -205 133 -235 33 -14 94 -95 86 -115 -3 -8 -21 -23 -41 -32 -21 -10 -35
-24 -35 -35 0 -10 -7 -18 -15 -18 -31 0 -48 -47 -42 -118 7 -92 36 -152 112
-231 36 -37 65 -72 65 -78 0 -5 13 -30 29 -53 l29 -44 -20 -50 c-39 -100 -218
-417 -263 -466 -12 -14 -41 -58 -64 -97 -26 -45 -53 -79 -71 -88 -24 -12 -79
-15 -303 -15 -199 0 -276 3 -285 12 -9 9 -12 293 -12 1215 0 662 3 1203 7
1203 4 0 22 -10 40 -22z m3990 -27 c41 -60 22 -132 -42 -167 -39 -21 -74 -14
-116 24 l-31 28 46 38 c25 20 50 34 56 31 6 -3 17 -20 25 -36 20 -38 35 -29
35 21 0 49 -18 67 -78 76 -37 6 -43 9 -27 15 11 4 40 7 65 6 38 -2 47 -7 67
-36z m-1659 -167 c45 -32 65 -108 43 -167 -33 -86 -120 -71 -136 24 -8 48 7
71 44 67 26 -3 31 -18 20 -57 -8 -30 28 -22 41 8 26 63 -14 114 -71 90 -40
-16 -55 -49 -84 -177 -13 -59 -28 -119 -34 -135 -10 -25 -9 -27 9 -17 10 5 27
23 36 40 18 30 44 47 44 30 0 -16 32 -12 51 6 34 31 40 5 11 -49 -15 -29 -29
-56 -31 -62 -2 -5 18 10 45 34 66 58 84 67 84 42 0 -10 -7 -31 -15 -47 -20
-39 -10 -43 25 -9 22 21 33 26 41 18 9 -9 6 -21 -9 -47 -27 -45 -10 -58 24
-19 37 43 29 10 -16 -64 -80 -134 -116 -252 -175 -588 -35 -201 -74 -354 -101
-408 -31 -60 -49 -62 -469 -61 -264 1 -395 5 -430 13 -46 12 -106 22 -223 37
l-42 6 2 156 c3 140 5 157 21 160 13 3 17 -3 17 -26 0 -44 21 -55 115 -60 l85
-4 52 51 c68 67 82 64 86 -15 3 -69 -11 -94 -55 -94 -14 0 -50 -14 -80 -31
-62 -35 -106 -35 -155 1 -32 24 -48 26 -48 6 0 -30 14 -47 51 -66 56 -29 115
-26 193 11 65 30 103 34 147 15 15 -6 15 -2 3 46 -8 29 -14 87 -14 129 0 101
-24 232 -61 341 -17 49 -29 101 -27 120 l3 33 55 -2 c30 -1 91 -3 134 -5 71
-3 80 -5 89 -25 12 -28 -3 -49 -44 -58 -35 -8 -29 -25 10 -25 54 0 101 65 101
138 0 14 18 36 51 62 94 74 218 151 252 157 48 7 101 -20 122 -62 14 -30 14
-38 1 -69 -15 -36 -43 -51 -75 -41 -42 13 -30 69 13 63 33 -5 35 39 2 48 -65
16 -100 -27 -76 -92 18 -47 40 -64 81 -64 60 0 107 67 95 135 -14 70 -73 115
-154 115 -64 0 -114 -18 -221 -80 -66 -38 -102 -52 -147 -58 -51 -6 -59 -10
-62 -30 -3 -19 4 -26 37 -39 51 -20 57 -48 9 -38 -45 10 -64 24 -85 62 l-18
33 -10 -37 -11 -38 -77 0 c-89 -1 -106 -11 -114 -71 -3 -28 4 -66 27 -134 17
-52 34 -121 37 -152 5 -52 4 -58 -13 -58 -37 0 -94 21 -123 45 -16 14 -42 25
-57 25 -36 0 -87 -31 -110 -65 -9 -14 -22 -25 -29 -25 -18 0 -25 24 -35 123
-12 124 7 282 55 457 29 106 8 319 -36 366 -26 28 -70 47 -100 42 -71 -10 -70
-220 1 -258 37 -20 60 -4 60 42 0 39 -1 40 -18 25 -27 -24 -39 -21 -51 14 -14
40 -14 68 0 108 10 28 15 32 43 29 42 -4 68 -57 74 -152 8 -133 -37 -183 -123
-137 -49 26 -77 70 -100 160 -32 126 22 261 104 261 14 0 48 -8 75 -17 41 -15
52 -25 74 -68 14 -27 35 -99 47 -160 21 -103 23 -108 35 -83 11 23 9 44 -19
154 -17 70 -30 129 -27 131 13 13 28 -18 61 -122 l36 -114 34 16 c19 9 37 25
40 34 5 14 13 17 35 13 20 -5 38 0 58 15 17 11 37 21 45 21 17 0 29 24 21 44
-7 18 62 66 94 66 24 0 67 -39 77 -71 5 -16 13 -18 46 -13 28 5 39 3 39 -6 0
-9 5 -8 18 3 24 22 32 21 32 -3 0 -30 17 -24 29 10 12 37 31 39 31 4 0 -35 22
-26 32 14 12 44 28 40 29 -5 0 -33 15 -87 19 -73 1 3 7 30 13 60 16 72 33 66
29 -10 -2 -49 0 -60 13 -60 9 0 18 7 21 15 10 25 34 17 34 -10 0 -14 4 -25 9
-25 11 0 14 10 36 103 8 38 22 80 30 95 l16 27 -6 -40 c-23 -181 -13 -231 20
-96 9 39 24 76 32 82 16 14 16 7 -13 -145 -8 -43 -13 -80 -10 -83 13 -13 26
14 41 85 31 146 44 180 81 217 38 39 75 45 112 19z m2140 -1117 c-3 -1051 -3
-1069 -23 -1083 -16 -12 -102 -14 -562 -12 l-543 3 -29 30 c-16 17 -99 153
-185 303 -85 151 -162 279 -171 285 -8 7 -26 39 -39 71 l-25 60 20 28 c27 37
83 207 108 321 11 51 34 182 51 292 33 205 43 245 58 245 5 0 26 -13 47 -30
136 -108 277 -3 277 207 -1 40 5 78 11 86 7 9 66 26 142 42 71 14 145 33 165
41 19 8 80 26 135 39 124 29 370 105 467 144 67 27 74 28 86 13 10 -13 12
-236 10 -1085z m-1159 908 c50 -26 111 -103 112 -144 5 -107 -9 -155 -61 -214
-82 -94 -200 -37 -200 96 0 122 74 193 147 142 59 -42 41 -175 -23 -175 -29 0
-39 33 -29 87 l7 38 -21 -19 c-40 -36 -21 -141 26 -153 64 -15 108 51 101 154
-3 55 -8 68 -35 94 -54 55 -127 38 -181 -41 -39 -58 -70 -182 -107 -430 -49
-330 -117 -592 -166 -636 -34 -30 -34 -5 -1 89 61 178 90 323 122 617 11 102
27 212 35 245 19 75 76 193 107 221 45 42 119 55 167 29z m-229 -37 c0 -6 -11
-34 -25 -62 -38 -77 -62 -187 -85 -383 -36 -313 -76 -503 -143 -680 -23 -61
-36 -83 -49 -83 -24 0 -23 3 12 123 38 125 70 300 105 557 31 233 54 336 95
427 38 84 90 142 90 101z m-214 -97 c-42 -108 -65 -213 -97 -450 -16 -123 -37
-261 -45 -305 -39 -207 -101 -390 -134 -399 -28 -7 -26 17 10 125 42 124 75
300 100 518 31 285 67 429 136 549 53 90 71 67 30 -38z m114 87 c0 -7 -9 -37
-21 -67 -11 -30 -31 -100 -44 -155 -23 -96 -35 -169 -70 -426 -33 -241 -117
-550 -155 -570 -17 -9 -20 -7 -20 12 0 13 11 59 25 103 37 120 71 294 105 550
17 127 37 257 45 291 19 83 61 191 91 237 24 37 44 48 44 25z m-197 -77 c-55
-129 -86 -264 -113 -496 -34 -297 -71 -466 -131 -610 -51 -123 -69 -86 -24 50
37 115 71 290 95 490 42 356 86 534 147 597 34 35 48 19 26 -31z m-109 -30
c-24 -49 -53 -200 -84 -448 -17 -131 -35 -265 -41 -298 -31 -175 -110 -415
-136 -415 -17 0 -19 -16 27 172 27 108 54 261 80 453 47 353 80 496 123 542
36 38 51 35 31 -6z m-135 -186 c-5 -28 -28 -176 -50 -330 -58 -410 -117 -644
-162 -653 -24 -5 -22 9 18 172 19 77 57 274 85 436 51 298 67 367 96 409 22
30 24 25 13 -34z m-123 -265 c-9 -47 -27 -150 -41 -230 -57 -325 -128 -543
-159 -492 -2 4 6 45 20 90 13 45 35 144 49 220 14 75 39 209 56 297 33 176 41
207 67 245 l17 25 3 -35 c2 -19 -3 -73 -12 -120z m467 -972 c14 -18 37 -57 51
-85 29 -59 57 -77 131 -89 52 -7 105 -47 105 -78 0 -20 -1 -20 -107 4 -136 31
-137 32 -184 123 -23 45 -51 94 -61 109 -38 55 25 70 65 16z m-1843 -20 c-1
-59 -46 -136 -103 -172 -26 -17 -174 -66 -199 -66 -42 0 -14 37 66 88 53 34
102 76 137 117 63 76 99 87 99 33z m1690 -4 c25 -25 18 -102 -14 -151 -44 -65
-131 -133 -172 -133 -35 0 -138 46 -184 82 -64 51 -81 130 -34 167 36 29 97
28 124 -1 11 -12 20 -28 20 -35 0 -19 -29 -28 -43 -14 -16 16 -44 14 -51 -4
-8 -21 21 -45 54 -45 34 0 39 7 54 74 11 49 13 51 49 54 35 3 37 2 37 -27 0
-71 47 -109 99 -80 29 16 39 53 21 75 -18 20 -48 17 -55 -6 -7 -22 -35 -28
-35 -7 0 6 -3 22 -6 33 -5 17 0 24 23 32 34 13 93 6 113 -14z m-1431 -28 c23
-21 26 -34 11 -56 -9 -13 -13 -11 -28 9 -36 45 -90 4 -62 -47 33 -58 100 -33
122 45 14 48 14 48 61 51 l47 3 0 -60 c0 -62 11 -84 50 -96 28 -9 60 12 60 39
0 34 -25 52 -54 38 -47 -21 -51 30 -5 53 34 18 80 13 104 -12 21 -20 19 -96
-2 -122 -23 -27 -198 -121 -225 -121 -12 0 -33 14 -47 30 -14 17 -51 43 -81
58 -74 36 -98 82 -80 149 14 47 33 61 82 59 14 -1 36 -10 47 -20z m502 -36 c4
-8 15 -37 24 -63 13 -37 29 -57 68 -86 29 -21 60 -41 69 -44 23 -8 127 80 134
113 21 92 25 100 47 100 39 0 45 -15 29 -78 -27 -106 -111 -191 -213 -216 -23
-5 -28 -2 -33 19 -4 14 -19 32 -34 41 -110 68 -126 88 -137 177 -6 57 -6 58
16 55 12 -2 25 -10 30 -18z"/>
<path d="M1653 8963 c-109 -142 -220 -286 -246 -320 -27 -35 -60 -89 -75 -120
-23 -50 -26 -71 -26 -153 0 -76 5 -105 23 -145 41 -92 106 -139 205 -151 82
-10 151 26 211 111 25 34 52 68 60 75 13 11 15 7 15 -26 0 -63 -18 -155 -50
-259 -17 -54 -30 -98 -30 -100 0 -1 21 2 48 6 26 4 78 4 116 1 65 -5 69 -4 64
14 -3 10 -18 60 -32 109 -25 82 -39 236 -23 251 2 3 19 -18 36 -45 89 -138
204 -174 332 -104 58 31 102 92 119 165 18 72 8 191 -21 258 -24 56 -501 688
-521 689 -4 1 -96 -115 -205 -256z"/>
<path d="M3685 8676 c-67 -17 -155 -63 -155 -81 0 -20 2 -19 63 12 73 37 174
43 242 15 100 -41 142 -36 170 17 8 17 15 31 15 33 0 2 -35 3 -77 3 -43 0
-107 3 -143 7 -42 4 -83 2 -115 -6z"/>
<path d="M3665 8547 c-102 -50 -119 -82 -21 -40 40 16 62 21 69 14 17 -17 -49
-69 -111 -88 -31 -9 -59 -18 -60 -19 -6 -4 54 -88 79 -110 25 -22 91 -42 70
-21 -6 6 -11 17 -11 24 0 11 20 13 88 11 l87 -3 -3 -27 c-7 -64 84 -5 129 84
l21 42 -21 17 c-11 9 -27 34 -33 56 -17 50 -66 75 -162 80 -60 3 -79 0 -121
-20z"/>
<path d="M4433 7896 c-34 -29 -25 -43 17 -26 34 14 60 1 60 -29 0 -28 -21 -41
-66 -41 -32 0 -55 9 -100 39 -70 47 -100 56 -138 42 -20 -8 -27 -17 -24 -32 2
-17 16 -25 73 -39 39 -10 94 -27 123 -39 73 -29 107 -27 143 8 37 38 39 82 4
116 -31 31 -56 32 -92 1z"/>
<path d="M4021 7753 c-36 -13 -51 -14 -75 -4 -27 10 -33 9 -48 -10 -21 -25
-23 -52 -5 -67 8 -7 32 -3 82 13 61 21 82 23 175 18 70 -4 119 -12 149 -24 58
-25 61 -24 61 15 0 43 -12 52 -80 60 -132 16 -215 16 -259 -1z"/>
<path d="M4650 7609 c-7 -11 -9 -33 -5 -47 l7 -27 15 23 c9 12 21 22 28 22 31
0 46 -102 22 -150 -9 -18 -21 -25 -42 -25 -36 -1 -37 -15 -3 -34 61 -35 111
54 90 158 -16 73 -35 101 -72 101 -19 0 -33 -7 -40 -21z"/>
<path d="M1396 5819 c-20 -16 -26 -29 -26 -60 0 -44 10 -48 47 -19 34 26 56
25 101 -5 27 -18 38 -21 44 -12 16 24 7 59 -21 88 -37 37 -104 41 -145 8z"/>
<path d="M2493 2875 c-2 -8 -3 -24 -1 -36 4 -27 62 -45 195 -60 85 -9 95 -9
142 12 48 20 52 21 77 4 24 -16 27 -16 45 1 13 12 19 28 17 48 -4 36 -15 37
-118 11 -78 -20 -180 -15 -283 14 -55 15 -70 16 -74 6z"/>
<path d="M2334 2766 c-34 -29 -38 -84 -9 -116 27 -30 85 -24 102 10 15 31 9
37 -23 20 -43 -23 -83 20 -53 57 22 26 90 11 162 -36 44 -28 74 -41 99 -41 62
0 79 53 21 66 -15 3 -65 19 -111 35 -103 36 -151 37 -188 5z"/>
<path d="M2927 2250 c-24 -21 -51 -54 -61 -72 -17 -33 -16 -34 16 -98 22 -43
43 -69 61 -78 43 -21 32 -46 -23 -52 -56 -7 -87 -24 -95 -51 -11 -33 7 -42 54
-28 33 10 55 10 110 -1 98 -18 186 -9 265 28 40 19 66 37 66 46 0 20 4 21 -86
-10 -103 -34 -163 -34 -216 1 -36 24 -39 29 -24 37 10 6 41 7 72 3 49 -6 60
-3 141 36 l88 43 -45 5 c-65 8 -59 31 12 55 68 21 67 23 -15 110 -58 62 -85
69 -127 36 -34 -26 -59 -25 -100 5 -19 14 -38 25 -42 25 -5 0 -28 -18 -51 -40z"/>
<path d="M4815 2663 c3 -10 20 -66 36 -124 23 -83 29 -123 27 -179 l-3 -73
-45 69 c-64 97 -112 128 -203 132 -61 3 -79 0 -117 -21 -137 -73 -182 -280
-96 -451 35 -69 471 -641 503 -660 8 -4 18 -4 22 0 27 31 349 454 422 554 105
144 124 194 117 307 -7 98 -53 193 -116 238 -40 28 -50 30 -127 30 -77 0 -87
-2 -127 -30 -23 -17 -64 -61 -89 -98 -46 -66 -47 -67 -51 -37 -9 63 23 227 69
347 4 10 -19 13 -112 13 -107 0 -117 -1 -110 -17z"/>
<path d="M552 8592 c-52 -59 -112 -137 -134 -174 -75 -126 -74 -255 1 -305 54
-36 99 -31 151 17 24 22 47 40 52 40 13 0 9 -41 -11 -112 l-19 -67 28 -6 c16
-3 45 -3 64 1 30 5 34 9 25 20 -15 18 -29 146 -18 158 5 6 24 -7 47 -32 36
-39 43 -42 91 -42 44 0 57 4 81 28 61 62 64 170 5 280 -56 106 -220 302 -253
302 -9 0 -59 -48 -110 -108z"/>
<path d="M6128 2584 c-22 -7 -22 -8 2 -79 36 -104 21 -128 -38 -66 -36 38 -43
41 -91 41 -44 0 -57 -4 -81 -28 -57 -57 -63 -166 -16 -260 50 -98 234 -322
265 -322 20 0 148 145 221 250 53 78 80 149 80 212 0 88 -55 148 -137 148 -35
0 -50 -7 -82 -35 -21 -19 -41 -35 -45 -35 -11 0 -6 51 10 107 9 30 14 57 11
60 -8 7 -80 12 -99 7z"/>
<path d="M5834 1676 c-9 -36 11 -66 45 -66 15 0 35 -8 44 -17 25 -28 188 -504
181 -527 -9 -30 -142 -241 -164 -261 -10 -9 -33 -17 -51 -18 -38 -2 -54 -24
-45 -61 l7 -27 117 3 117 3 -2 30 c-1 17 -4 44 -8 60 -5 26 10 55 99 199 58
93 112 173 121 178 14 8 15 -9 13 -179 l-3 -188 -28 -13 c-33 -16 -41 -33 -33
-67 6 -25 8 -25 115 -25 82 0 111 3 121 14 16 20 9 57 -12 67 -10 5 -26 13
-35 17 -9 5 -19 19 -22 33 -4 13 -4 193 -1 399 l5 375 27 3 c35 4 50 24 46 59
l-3 28 -120 0 -120 0 0 -40 c0 -33 4 -41 22 -43 36 -5 46 -28 47 -111 1 -72
-2 -83 -41 -162 -24 -46 -55 -99 -71 -117 l-28 -33 -67 190 c-37 104 -67 196
-67 204 0 8 12 22 26 31 20 14 25 24 22 49 l-3 32 -122 3 c-122 3 -122 3 -129
-22z"/>
</g>
</svg>
