<svg version="1.0" xmlns="http://www.w3.org/2000/svg"
 width="691.000000pt" height="1056.000000pt" viewBox="0 0 691.000000 1056.000000"
 preserveAspectRatio="xMidYMid meet">
<g transform="translate(0.000000,1056.000000) scale(0.100000,-0.100000)"
fill="#000000" stroke="none">
<path d="M544 9878 c-77 -24 -140 -75 -154 -126 -5 -21 -10 -152 -10 -302 0
-152 -5 -281 -10 -302 -7 -23 -24 -48 -45 -64 -41 -31 -43 -43 -11 -73 19 -17
32 -22 51 -17 21 5 27 2 35 -18 11 -29 61 -69 114 -91 53 -22 164 -31 209 -16
36 12 37 12 87 -38 59 -59 96 -73 117 -46 23 32 15 59 -31 104 l-44 43 21 47
c20 43 22 65 25 392 4 333 3 348 -17 386 -57 112 -200 163 -337 121z m172 -97
c22 -10 50 -31 62 -46 22 -27 22 -34 22 -351 0 -212 -4 -325 -10 -329 -6 -4
-29 10 -52 30 -55 50 -111 73 -187 78 -40 2 -66 9 -72 18 -12 19 -11 475 1
520 12 43 36 66 87 85 53 18 101 17 149 -5z"/>
<path d="M1111 9561 c-6 -4 -12 -635 -16 -1861 -3 -1020 -8 -1875 -10 -1900
-10 -101 -16 -4725 -6 -4740 9 -13 133 -15 1003 -17 1714 -3 3616 -13 3631
-19 8 -3 22 2 31 11 14 15 16 79 16 653 1 350 3 941 5 1312 2 371 6 1334 10
2140 3 806 8 1762 11 2125 7 843 7 2276 0 2283 -10 9 -4659 22 -4675 13z
m4021 -55 c11 -16 10 -85 -1 -124 -8 -25 -7 -32 4 -32 20 0 26 13 35 82 13 91
18 93 166 91 70 -1 132 -7 139 -13 7 -6 15 -54 19 -128 4 -64 11 -148 17 -186
16 -114 6 -116 -181 -29 -162 75 -208 71 -285 -22 -22 -28 -41 -43 -47 -37
-14 14 5 51 61 126 49 64 67 111 38 100 -7 -2 -35 -36 -63 -74 -51 -73 -72
-89 -85 -68 -12 18 -2 47 32 93 58 79 80 124 91 184 10 55 14 61 32 55 12 -4
24 -12 28 -18z m-2036 4 l27 -11 -6 -88 c-4 -49 -22 -149 -41 -222 -90 -351
-212 -603 -416 -859 -153 -193 -299 -457 -342 -620 -28 -107 -30 -273 -4 -369
20 -76 55 -153 73 -164 7 -4 19 -23 28 -41 18 -38 9 -75 -28 -111 -12 -11 -35
-38 -52 -58 -57 -72 -224 -237 -239 -237 -9 0 -30 21 -48 46 -18 25 -48 63
-65 84 -18 20 -33 40 -33 44 0 3 17 16 38 30 48 30 123 104 140 136 7 14 20
37 30 52 28 46 11 51 -129 38 -197 -19 -278 -45 -366 -117 l-43 -34 0 30 c0
36 31 111 54 130 13 11 25 11 60 2 69 -17 98 -14 159 19 59 31 91 36 143 21
44 -12 54 -2 57 59 2 46 6 56 25 66 37 18 93 76 108 111 24 55 17 105 -22 180
-33 63 -35 72 -26 115 11 59 1 70 -59 62 -41 -6 -47 -3 -89 34 -93 81 -151 91
-245 42 -64 -34 -90 -37 -142 -15 -47 20 -63 7 -63 -52 0 -41 -4 -49 -59 -101
-44 -43 -61 -67 -66 -95 -12 -62 1 -115 41 -174 l37 -54 -18 -40 c-20 -43 -13
-58 28 -59 10 0 33 -7 52 -14 30 -13 35 -20 35 -48 0 -18 -11 -55 -23 -83
l-23 -50 -38 60 c-21 33 -69 92 -106 130 -37 39 -79 92 -93 120 l-25 49 -21
-34 c-20 -32 -22 -46 -18 -155 3 -94 8 -133 26 -180 37 -98 37 -112 -7 -242
-24 -71 -43 -148 -47 -193 -7 -74 -7 -74 12 -51 l19 24 65 -26 c35 -14 93 -33
129 -43 83 -22 93 -31 77 -64 -10 -20 -21 -26 -54 -28 -38 -3 -43 -1 -49 22
-8 31 -11 32 -40 5 -17 -16 -30 -19 -51 -15 -45 10 -92 43 -105 74 -10 25 -12
22 -25 -48 -7 -41 -11 -85 -8 -98 3 -14 26 -36 55 -54 56 -35 65 -52 56 -113
-5 -30 -2 -53 10 -77 10 -23 13 -41 8 -51 -5 -8 -54 -51 -109 -95 l-100 -80
-7 31 c-3 17 -3 818 1 1779 6 1397 10 1750 21 1763 11 13 118 15 961 15 627 0
957 -3 975 -10z m676 -14 c24 -12 42 -32 60 -69 14 -28 65 -103 113 -165 67
-86 95 -115 117 -119 16 -3 33 -14 39 -24 5 -11 18 -19 29 -19 10 0 21 -8 24
-18 3 -10 31 -30 61 -45 41 -20 55 -32 55 -48 0 -27 106 -349 176 -537 30 -79
54 -150 54 -158 0 -8 -12 -20 -26 -26 -18 -8 -40 -39 -70 -100 -24 -48 -44
-94 -44 -103 0 -8 -4 -15 -9 -15 -5 0 -30 -19 -56 -43 -67 -63 -144 -106 -253
-143 -54 -18 -123 -48 -155 -67 -72 -44 -142 -61 -217 -54 -65 6 -105 24 -148
66 -37 37 -201 305 -241 392 -56 123 -101 337 -101 474 0 67 10 81 41 64 13
-8 53 -16 89 -20 58 -5 62 -6 33 -14 -33 -8 -41 -19 -23 -30 11 -7 120 23 135
36 5 5 9 21 10 36 0 14 6 28 13 31 20 6 14 -84 -13 -183 -41 -146 -33 -184 42
-216 25 -10 57 -28 71 -39 22 -18 27 -19 34 -6 11 20 -21 86 -42 86 -31 0 -80
22 -90 40 -7 13 0 60 27 167 61 249 51 372 -37 446 -38 33 -82 41 -165 32 -51
-5 -65 -4 -65 7 0 7 47 62 104 121 80 83 114 126 144 185 32 64 44 79 73 90
44 16 166 9 211 -12z m-362 -5 c0 -37 -44 -101 -130 -191 -47 -49 -92 -90 -98
-90 -17 0 -15 25 3 40 8 7 15 18 15 24 0 6 13 18 29 27 16 9 41 39 57 65 15
27 37 60 49 74 13 14 28 35 34 48 14 27 41 29 41 3z m2314 9 l26 -10 -1 -387
c-1 -214 -4 -401 -8 -418 l-7 -30 -17 26 c-10 14 -33 64 -51 110 -77 191 -122
385 -133 576 -6 106 -5 117 12 129 22 16 141 19 179 4z m-2244 -12 c-1 -27
-42 -103 -88 -161 -76 -96 -113 -137 -126 -137 -7 0 -26 -13 -42 -30 -30 -31
-49 -37 -59 -20 -3 5 7 18 23 28 42 25 166 164 187 209 20 44 82 123 96 123 5
0 9 -6 9 -12z m398 -17 c17 -41 89 -140 105 -144 9 -3 17 -13 17 -23 0 -19 47
-67 102 -104 21 -14 38 -28 38 -31 0 -3 20 -19 45 -35 25 -15 45 -34 45 -41 0
-16 0 -16 -44 2 -20 9 -39 22 -43 30 -3 8 -12 15 -20 15 -15 0 -81 65 -163
159 -47 55 -123 185 -113 195 8 8 23 -3 31 -23z m96 -23 c17 -26 36 -47 42
-47 7 -1 14 -11 18 -23 3 -13 18 -37 35 -55 16 -17 26 -34 23 -37 -3 -3 3 -6
14 -6 29 0 128 -94 121 -114 -8 -20 -33 -21 -41 -1 -3 8 -13 15 -21 15 -20 0
-43 22 -70 66 -11 18 -35 44 -53 58 -34 24 -104 123 -122 172 -17 44 19 25 54
-28z m397 -25 c31 -31 31 -31 10 -45 -27 -17 -26 -26 4 -54 30 -28 34 -64 6
-64 -10 0 -30 11 -45 25 -15 14 -31 25 -37 25 -5 0 -9 6 -9 14 0 7 -9 25 -21
40 -27 34 -16 53 18 31 36 -24 40 -11 9 33 -14 21 -26 44 -26 51 0 17 51 -14
91 -56z m978 -293 c141 -71 137 -65 127 -211 -8 -122 -29 -194 -67 -231 -25
-26 -34 -29 -81 -26 -47 3 -55 7 -75 37 -28 41 -31 106 -6 133 19 21 56 24 72
4 9 -11 6 -18 -16 -34 -23 -17 -26 -24 -17 -39 14 -22 50 -29 70 -13 23 20 18
95 -8 120 -34 32 -93 27 -128 -10 -35 -38 -51 -38 -78 0 -34 45 -29 66 16 74
53 8 77 37 77 93 0 35 -5 49 -24 64 -43 35 -91 19 -91 -29 0 -22 3 -24 34 -19
25 4 36 1 40 -10 11 -27 6 -34 -29 -49 -55 -23 -72 -18 -95 26 -31 60 -26 93
18 140 36 36 43 40 90 40 42 0 71 -10 171 -60z m-1948 -81 c21 -7 52 -26 69
-44 52 -53 61 -145 15 -145 -7 0 -39 16 -70 35 -66 39 -108 50 -166 42 -37 -5
-51 4 -29 18 19 12 11 35 -11 32 -36 -4 -32 20 8 47 42 29 116 35 184 15z
m2209 -217 c44 -127 60 -186 52 -194 -5 -5 -59 -16 -119 -24 -59 -7 -130 -17
-157 -23 -32 -6 -59 -6 -75 1 -25 9 -25 10 -7 24 11 8 26 14 33 14 22 0 86 36
109 62 33 36 44 83 44 185 0 108 20 178 44 152 8 -8 42 -96 76 -197z m-1242
168 c7 -11 21 -20 31 -20 10 0 22 -7 25 -15 3 -9 21 -22 39 -30 31 -13 34 -20
51 -92 18 -75 70 -231 114 -340 25 -60 19 -65 -46 -37 -43 18 -88 58 -108 96
-18 34 -18 38 1 38 26 0 17 21 -30 71 -51 55 -58 79 -20 71 14 -2 25 -1 25 2
0 4 -22 35 -50 69 -27 34 -50 67 -50 74 0 6 12 13 26 15 l26 3 -36 45 c-20 25
-36 51 -36 58 0 19 24 14 38 -8z m-1231 -179 c5 -97 2 -135 -16 -221 -100
-472 -283 -941 -488 -1249 -46 -68 -83 -125 -83 -126 0 -4 -65 -69 -82 -83
-15 -12 -21 -10 -43 15 -17 19 -23 35 -20 51 3 13 41 70 84 125 273 353 471
855 602 1525 27 140 39 130 46 -37z m2554 -231 c22 -13 77 -127 85 -180 10
-64 -30 -64 -68 -2 -12 21 -28 43 -35 50 -7 7 -13 19 -13 26 0 32 -24 36 -151
21 -68 -8 -132 -12 -141 -9 -23 7 -35 53 -17 64 7 5 47 12 89 15 41 4 100 11
130 15 81 11 99 11 121 0z m-2521 -120 c0 -51 -64 -314 -109 -450 -40 -118
-111 -273 -132 -285 -6 -4 -16 -2 -22 4 -12 12 -15 0 72 251 42 123 107 340
151 509 10 40 12 42 25 25 8 -11 14 -35 15 -54z m2562 -164 c5 -6 7 -159 5
-341 -2 -276 -4 -330 -16 -330 -12 0 -274 428 -348 568 l-26 49 26 25 c14 14
46 31 72 37 57 15 277 9 287 -8z m-1208 -114 c-1 -22 -14 -45 -38 -72 -57 -64
-40 -76 32 -23 57 42 46 19 -27 -63 -75 -83 -92 -114 -40 -70 17 14 36 26 42
26 7 0 18 9 24 20 7 10 22 24 33 30 32 17 25 -13 -10 -47 -16 -15 -30 -34 -30
-40 0 -7 -6 -13 -14 -13 -8 0 -16 -7 -20 -15 -10 -26 15 -16 48 18 32 34 82
57 73 34 -21 -57 -21 -59 13 -52 29 6 31 5 26 -13 -5 -14 0 -25 14 -35 18 -13
19 -18 9 -41 -14 -30 -6 -44 15 -27 17 14 36 7 36 -13 0 -7 9 -21 20 -31 11
-10 20 -22 20 -27 0 -4 -193 -8 -430 -8 -257 0 -430 4 -430 9 0 23 77 70 148
90 134 40 278 127 306 186 9 18 23 35 31 39 9 3 31 39 51 81 35 74 56 97 84
92 10 -2 15 -13 14 -35z m206 -143 c8 -9 95 -49 107 -49 6 0 28 -36 49 -80 20
-44 45 -87 55 -96 10 -9 16 -21 13 -25 -7 -12 -64 -11 -64 1 0 6 -7 10 -16 10
-31 0 -134 83 -134 108 0 10 7 12 23 8 12 -4 27 -8 34 -10 7 -1 16 -5 19 -9 4
-4 13 -7 21 -7 25 0 13 15 -24 32 -41 18 -143 103 -143 119 0 11 51 9 60 -2z
m-2763 -202 c33 -17 59 -64 68 -119 7 -48 24 -64 73 -72 62 -10 92 -51 92
-129 0 -113 -59 -165 -172 -153 l-58 6 -15 -54 c-31 -108 -141 -158 -235 -107
-53 28 -74 70 -62 125 12 57 1 74 -50 83 -27 4 -55 18 -77 38 -32 30 -35 38
-39 97 -4 60 -2 68 24 97 30 33 79 50 146 51 39 0 58 18 73 70 18 60 74 93
151 86 29 -2 65 -11 81 -19z m2698 -166 l160 -6 3 -27 c2 -18 -2 -29 -10 -29
-57 -7 -1965 5 -1972 11 -5 5 -2 20 8 34 l16 26 818 -1 c449 -1 889 -4 977 -8z
m-654 -107 c56 -16 145 -69 154 -91 7 -21 -39 -15 -110 13 -83 33 -108 25 -33
-11 78 -37 89 -52 46 -60 -40 -7 -81 7 -171 60 -58 34 -67 43 -65 64 5 41 85
52 179 25z m-1015 -10 c73 -24 89 -43 77 -91 l-9 -38 -57 2 c-61 2 -138 31
-174 65 -22 21 -30 57 -16 71 12 13 130 7 179 -9z m364 -11 c30 -11 62 -23 72
-27 11 -5 18 -1 23 14 4 12 18 25 32 31 42 16 163 10 218 -10 111 -42 126 -48
137 -59 6 -6 8 -18 5 -26 -5 -12 -12 -14 -32 -6 -19 7 -38 5 -76 -10 -68 -27
-99 -25 -170 11 -33 16 -72 34 -86 40 -22 8 -24 7 -18 -11 8 -25 -34 -66 -83
-80 -41 -11 -104 1 -162 30 -39 20 -110 86 -110 102 0 33 160 33 250 1z m1047
2 c85 -27 113 -31 113 -14 0 18 68 39 128 39 118 0 256 -46 290 -97 14 -22 14
-23 -22 -23 -20 0 -65 10 -99 21 -69 24 -127 39 -127 33 0 -2 33 -20 73 -40
l72 -37 -30 -10 c-52 -18 -229 34 -265 78 -7 8 -17 15 -23 15 -6 0 -1 -10 11
-23 41 -43 -7 -51 -73 -13 -45 27 -153 48 -141 27 4 -6 15 -11 24 -11 27 0
101 -34 107 -49 3 -8 0 -18 -7 -23 -20 -13 -118 1 -163 24 -41 21 -105 76
-105 90 0 16 64 37 112 38 26 0 82 -11 125 -25z m-1484 -155 c63 -35 89 -37
148 -10 48 21 153 27 164 10 11 -17 -14 -39 -59 -52 -38 -11 -39 -12 -13 -16
15 -2 55 6 89 18 64 22 88 21 88 -5 0 -22 9 -19 67 20 55 37 123 59 169 53 51
-6 35 -30 -45 -68 -8 -3 -16 -11 -18 -17 -5 -13 35 -6 57 11 52 39 125 50 136
21 9 -21 24 -19 96 15 45 21 78 30 115 30 63 0 72 -11 36 -41 l-28 -22 77 6
c42 4 96 14 120 23 69 26 132 38 161 30 34 -8 35 -24 2 -32 -13 -3 -30 -13
-37 -21 -11 -14 -8 -15 22 -9 19 4 43 10 54 13 30 8 14 -18 -32 -54 -73 -55
-178 -64 -250 -21 -35 21 -48 20 -122 -7 -33 -13 -66 -16 -128 -13 -94 5 -111
15 -94 53 15 32 8 31 -64 -4 -74 -37 -163 -55 -226 -47 -65 9 -78 15 -78 36 0
17 -5 17 -62 -7 -46 -19 -86 -27 -148 -30 -95 -4 -127 6 -148 49 l-12 27 -68
-32 c-78 -37 -193 -49 -225 -25 -18 13 -17 16 15 58 38 50 106 90 155 90 19 0
57 -13 86 -30z m1715 14 c31 -9 27 -33 -8 -45 -49 -18 -34 -27 27 -16 48 8 58
7 68 -7 16 -21 27 -20 83 8 60 30 105 40 149 31 33 -6 34 -7 19 -24 -9 -10
-35 -24 -59 -31 -58 -19 -20 -26 51 -10 57 12 80 5 69 -23 -9 -25 -96 -42
-201 -40 -90 1 -101 3 -116 23 l-17 22 -79 -22 c-61 -18 -94 -21 -147 -17 -76
7 -97 18 -97 53 0 54 173 120 258 98z m-3114 -284 c30 -55 48 -165 25 -158 -8
2 -24 20 -37 39 -34 50 -43 47 -26 -10 23 -79 4 -92 -58 -41 -21 18 -51 59
-70 97 -28 57 -33 79 -36 159 -6 141 -5 142 93 44 46 -46 95 -104 109 -130z
m3678 55 c81 -58 72 -60 -212 -58 -140 1 -748 4 -1350 6 -832 3 -1095 6 -1094
15 1 7 2 23 3 36 0 14 9 27 19 29 9 3 596 5 1304 4 l1286 -2 44 -30z m-3107
-75 c4 -6 -3 -27 -14 -46 -12 -19 -21 -42 -21 -50 0 -8 -9 -14 -21 -14 -11 0
-34 -10 -51 -21 -16 -12 -48 -27 -71 -34 -44 -13 -147 -9 -147 6 0 15 43 36
113 58 93 28 117 44 55 36 -39 -5 -192 -52 -260 -80 -51 -21 13 63 76 100 23
13 66 31 96 39 64 17 236 21 245 6z m502 -74 c74 -81 127 -170 160 -271 22
-68 26 -98 26 -200 1 -166 -21 -239 -117 -398 -29 -48 -114 -135 -139 -143
-19 -6 -57 20 -57 39 0 5 26 37 58 71 111 120 166 259 166 426 0 169 -53 302
-171 427 -57 60 -59 64 -43 94 20 36 55 23 117 -45z m782 -83 c24 -6 24 -7 18
-112 -9 -158 -59 -336 -186 -654 -17 -43 -31 -94 -31 -113 l0 -36 38 7 c79 14
192 17 192 4 0 -6 -8 -18 -17 -25 -15 -11 -16 -16 -5 -34 11 -18 10 -21 -14
-30 -26 -10 -143 -4 -162 9 -5 3 -16 20 -25 36 l-16 30 -16 -38 c-9 -22 -21
-91 -27 -155 -6 -65 -15 -123 -21 -129 -5 -7 -20 -13 -32 -13 -21 0 -23 6 -29
73 -13 136 19 281 123 567 38 102 78 224 90 271 23 95 51 250 51 286 0 31 17
63 33 63 7 0 23 -3 36 -7z m539 1 c27 -8 29 -42 6 -152 -23 -112 -63 -207
-159 -382 -172 -310 -254 -501 -271 -630 -9 -66 -31 -95 -67 -86 -34 8 -35 30
-6 169 27 136 66 230 206 507 130 256 172 366 180 474 8 98 33 121 111 100z
m550 -6 c20 -20 14 -65 -24 -177 -54 -164 -93 -229 -375 -635 -89 -130 -172
-285 -204 -383 -16 -52 -18 -53 -55 -53 -62 0 -67 16 -35 117 41 132 103 243
232 414 64 85 138 187 166 227 71 106 143 263 174 381 21 80 31 105 47 111 31
13 60 12 74 -2z m-2712 -43 c115 -20 214 -53 214 -70 0 -8 8 -19 18 -24 9 -5
26 -36 36 -70 16 -51 17 -63 6 -76 -14 -17 -254 -215 -279 -230 -9 -5 -19 -2
-27 10 -12 16 -11 23 7 51 11 18 26 70 33 116 8 46 17 92 21 104 6 19 1 23
-42 33 -39 10 -79 25 -124 47 -3 2 -25 -10 -50 -27 -49 -32 -99 -38 -123 -13
-9 8 -16 18 -16 21 0 14 36 63 47 63 7 0 17 9 23 21 18 33 71 59 121 59 26 0
86 -7 135 -15z m1962 -74 c20 -12 -1 -18 -97 -27 -45 -3 -79 -10 -74 -15 4 -4
40 -11 78 -15 102 -10 110 -20 25 -34 -77 -13 -174 -7 -197 12 -21 17 -11 61
17 75 28 14 227 18 248 4z m562 -6 c17 -21 9 -45 -23 -69 -25 -18 -42 -21
-138 -21 -71 1 -113 5 -121 13 -7 7 -8 12 -2 12 20 0 140 21 159 28 12 4 -21
9 -77 13 -100 6 -115 10 -103 28 4 7 59 11 149 11 113 0 146 -3 156 -15z
m-2858 -100 c52 -39 82 -55 104 -55 39 0 56 -20 52 -57 -3 -27 -5 -28 -58 -27
-73 1 -153 29 -196 66 -28 24 -34 37 -34 69 0 37 17 58 47 59 6 0 45 -25 85
-55z m2278 -29 c0 -5 -63 -18 -150 -32 -44 -7 -44 -8 -15 -15 17 -3 53 -7 82
-8 28 0 54 -5 58 -10 15 -26 -219 -37 -248 -12 -24 19 -21 47 5 65 17 12 50
16 145 16 68 0 123 -2 123 -4z m534 -18 c8 -13 5 -22 -14 -43 -23 -24 -28 -25
-147 -25 -125 0 -158 13 -65 25 26 4 54 9 62 12 22 8 -16 21 -62 22 -20 1 -39
5 -43 10 -8 14 35 18 154 17 86 -1 106 -4 115 -18z m-1760 -74 c3 -9 5 -18 4
-19 -2 -1 -102 -4 -222 -6 -169 -3 -220 -1 -223 9 -8 22 33 27 235 30 181 3
200 2 206 -14z m1666 -37 c37 -19 37 -43 -2 -67 -26 -16 -50 -20 -120 -20
-101 0 -124 -6 -107 -26 8 -9 33 -14 74 -14 76 0 95 -6 95 -30 0 -28 -47 -59
-101 -66 l-49 -7 21 -33 c27 -44 18 -71 -29 -84 -41 -11 -141 -11 -187 -1
l-30 8 28 13 c21 10 27 19 25 39 -3 21 2 26 22 29 82 8 110 14 105 23 -4 5
-24 9 -45 9 -41 0 -62 16 -39 31 8 5 24 9 37 9 28 0 28 16 0 31 l-22 12 22 17
c12 10 22 25 22 34 0 22 9 25 102 37 112 15 132 28 43 29 -91 0 -119 8 -104
26 15 18 203 19 239 1z m-513 -11 c-9 -7 -43 -16 -75 -20 -88 -10 -93 -22 -10
-30 79 -7 107 -21 61 -29 -75 -14 -102 -16 -156 -8 -70 9 -94 29 -77 60 17 33
45 40 165 40 94 0 107 -2 92 -13z m-1595 -53 c82 -85 219 -246 260 -306 22
-32 66 -85 99 -118 70 -72 75 -97 27 -139 -37 -31 -435 -361 -484 -400 -184
-147 -293 -238 -368 -310 -101 -96 -356 -306 -395 -326 -20 -10 -27 -11 -33
-1 -11 17 -10 65 2 87 11 20 660 572 962 819 104 84 194 162 202 173 13 18 13
25 1 47 -18 35 -312 371 -331 378 -8 3 -25 1 -37 -5 -12 -5 -185 -145 -384
-311 -200 -165 -372 -305 -384 -312 -24 -12 -39 0 -39 33 0 52 -9 44 658 595
95 79 178 143 185 143 7 0 33 -21 59 -47z m438 -52 l0 -27 -150 0 c-126 1
-152 4 -166 18 -16 16 -16 17 7 22 38 9 95 12 207 14 l102 1 0 -28z m2935 -7
c106 -18 263 -68 308 -98 27 -18 32 -28 32 -61 0 -49 -5 -49 -121 1 -316 134
-669 117 -969 -45 -214 -115 -390 -307 -486 -532 -147 -340 -120 -682 82
-1032 l52 -90 -27 -24 c-15 -12 -31 -23 -36 -23 -22 0 -133 191 -181 311 -63
160 -86 501 -45 674 10 44 18 91 18 105 0 35 83 197 159 310 169 252 453 443
734 491 239 41 303 42 480 13z m-1819 -20 c-16 -9 -56 -19 -88 -22 -67 -6 -66
-19 2 -24 25 -2 44 -7 43 -13 -3 -17 -86 -28 -156 -21 -62 7 -67 9 -67 31 0
14 10 33 22 45 20 18 34 20 147 20 120 -1 125 -2 97 -16z m1769 -92 c30 -6 43
-14 53 -34 12 -25 16 -27 57 -21 61 8 75 -6 75 -74 0 -52 3 -58 40 -92 46 -42
52 -79 20 -111 -16 -16 -28 -19 -55 -14 -30 5 -40 2 -71 -25 -27 -24 -44 -31
-67 -29 -32 3 -42 16 -67 83 -6 17 -26 40 -45 53 -65 42 -39 109 47 119 42 5
68 24 68 50 0 11 -6 10 -30 -2 -16 -8 -37 -15 -47 -15 -10 0 -36 -9 -58 -20
l-39 -20 -36 25 c-19 13 -49 29 -67 35 -19 7 -36 22 -43 40 -23 55 -13 60 112
59 62 0 131 -3 153 -7z m-312 -45 c12 -13 30 -38 39 -55 14 -26 23 -32 49 -32
43 0 69 -25 69 -66 0 -35 -28 -64 -63 -64 -16 0 -18 -5 -13 -35 5 -27 2 -39
-14 -55 -40 -40 -120 -16 -120 36 0 21 -3 22 -26 14 -70 -27 -118 1 -112 66 3
34 8 42 43 60 36 19 40 24 38 55 -4 51 4 75 29 87 36 17 57 14 81 -11z m-153
-16 c18 -35 11 -59 -37 -108 -45 -45 -50 -48 -103 -49 -30 -1 -70 -5 -88 -9
-35 -8 -72 14 -72 42 0 18 95 77 182 113 86 35 104 36 118 11z m778 -37 c83
-41 108 -90 83 -157 -18 -47 -48 -44 -103 9 -64 63 -82 97 -73 140 7 42 23 43
93 8z m-2254 -50 c62 -9 45 -30 -31 -40 -57 -7 -56 -23 2 -24 34 0 63 -15 52
-26 -9 -10 -155 -11 -189 -1 -32 8 -36 31 -13 64 11 16 28 23 63 26 26 2 52 4
58 5 6 1 32 -1 58 -4z m1199 -114 l34 -30 25 19 c45 36 74 37 108 3 39 -39 38
-60 -5 -102 -33 -32 -34 -35 -20 -57 24 -36 19 -78 -11 -102 -36 -29 -70 -26
-102 7 l-27 27 -27 -27 c-35 -37 -80 -37 -113 -2 -34 37 -32 71 7 112 l33 33
-23 39 c-27 48 -27 51 -1 84 29 37 77 36 122 -4z m-1886 -47 c64 -87 94 -140
131 -233 84 -213 105 -586 40 -730 -11 -25 -21 -64 -23 -87 -2 -23 -23 -84
-48 -136 -152 -321 -411 -540 -762 -642 -239 -70 -573 -47 -822 57 -86 35
-113 57 -113 92 0 46 22 50 97 15 181 -83 336 -119 515 -119 175 0 310 31 474
110 305 147 514 400 601 728 22 82 26 120 27 247 0 88 -5 175 -12 210 -33 154
-98 309 -181 430 -23 33 -41 65 -41 72 0 10 48 52 61 53 3 0 28 -30 56 -67z
m1064 27 c25 -14 24 -42 -2 -66 -27 -24 -204 -36 -197 -13 2 8 14 18 26 24 15
6 20 16 16 27 -3 10 -2 22 1 28 8 13 131 13 156 0z m662 -61 c7 -12 3 -39 -17
-101 -26 -83 -28 -86 -76 -112 -28 -15 -50 -32 -50 -38 0 -10 -66 -5 -77 6
-15 14 115 213 166 254 19 16 41 12 54 -9z m1261 15 c14 -5 16 -27 16 -141 l0
-135 -22 14 c-39 26 -44 43 -23 82 l19 36 -32 33 c-38 39 -42 79 -10 101 25
18 30 19 52 10z m-743 -36 c19 -30 9 -48 -41 -69 -63 -27 -65 -43 -2 -23 214
67 348 69 511 8 35 -13 65 -24 67 -24 1 0 0 16 -3 35 -5 31 -3 36 22 45 53 20
124 -40 113 -97 -5 -26 -50 -29 -73 -3 -19 21 -45 27 -45 10 0 -6 12 -16 28
-22 36 -16 130 -106 138 -132 4 -12 23 -35 43 -52 32 -29 34 -33 24 -57 -14
-30 -156 -153 -668 -576 -437 -362 -467 -388 -478 -407 -12 -21 3 -40 176
-246 103 -123 156 -178 170 -178 21 0 193 135 490 385 304 255 271 231 296
216 22 -14 15 -70 -11 -98 -54 -58 -771 -643 -788 -643 -12 0 -72 63 -167 177
-81 97 -175 207 -208 245 -109 127 -109 127 -99 153 5 12 131 121 279 241 329
265 585 481 635 534 3 3 43 35 90 72 103 80 210 179 210 195 0 6 -8 14 -19 18
-10 3 -45 26 -77 52 -69 53 -155 96 -239 118 -75 19 -221 19 -304 0 -160 -38
-305 -155 -378 -306 -51 -105 -67 -171 -66 -279 0 -103 20 -178 76 -283 38
-72 40 -78 24 -94 -15 -16 -18 -15 -36 1 -28 25 -87 150 -108 226 -24 88 -23
254 1 335 41 139 137 277 251 360 l69 50 -37 3 c-29 3 -38 8 -43 27 -7 27 9
62 40 88 16 14 33 17 75 13 30 -3 58 -11 62 -18z m-2366 -28 c20 -38 19 -42
-10 -74 -29 -31 -30 -41 -10 -76 21 -36 18 -58 -10 -85 -18 -19 -35 -25 -70
-25 -25 0 -45 5 -45 10 0 6 -7 10 -16 10 -8 0 -13 4 -10 8 2 4 1 14 -3 21 -6
10 -17 10 -45 2 -87 -24 -133 54 -55 92 29 13 33 13 50 -4 27 -27 71 -24 99 6
22 24 23 28 11 62 -13 35 -13 38 15 60 41 33 80 30 99 -7z m1131 -31 c21 -18
13 -51 -16 -66 -34 -17 -173 -18 -168 0 3 6 21 14 42 17 43 6 53 24 14 28 -32
4 -58 29 -37 36 46 15 139 7 165 -15z m-1044 -92 c33 -52 83 -200 75 -221 -4
-9 -18 -16 -31 -16 -25 0 -33 6 -61 45 -14 19 -14 19 -15 -8 0 -37 40 -77 78
-77 35 0 51 -17 58 -62 7 -39 -25 -88 -57 -88 -42 0 -59 -18 -59 -64 0 -56
-15 -68 -84 -65 -31 1 -58 1 -60 -2 -2 -2 -13 -23 -25 -46 -23 -46 -49 -60
-81 -43 -17 9 -20 21 -20 69 0 32 3 73 6 90 6 29 10 32 38 29 26 -2 35 -11 52
-47 19 -40 21 -42 27 -20 16 57 9 75 -34 94 -50 23 -69 49 -69 94 0 26 -7 41
-26 56 -32 26 -69 132 -53 151 20 24 72 16 112 -17 46 -38 48 -66 5 -115 l-33
-37 34 6 c18 4 40 7 47 7 9 0 14 12 14 36 0 54 14 71 66 79 38 5 44 9 38 23
-10 21 -18 158 -10 178 10 27 41 14 68 -29z m2596 -11 c15 -8 41 -29 57 -46
42 -45 58 -51 93 -39 43 15 104 -4 136 -42 34 -40 33 -63 -3 -88 -35 -25 -51
-27 -51 -4 0 18 -37 63 -52 63 -22 0 -98 -75 -98 -97 0 -25 -19 -30 -51 -13
-16 9 -19 22 -19 90 0 70 -2 81 -21 90 -50 27 -86 -8 -96 -94 -11 -79 -50 -91
-84 -23 -31 60 -58 87 -91 87 -42 0 -64 -39 -50 -89 7 -21 21 -46 32 -56 24
-22 25 -38 4 -56 -13 -11 -25 -8 -74 19 -65 36 -95 40 -122 15 -39 -35 -15
-89 58 -126 82 -41 62 -81 -35 -71 -67 7 -103 -14 -103 -60 0 -47 22 -60 100
-58 49 2 73 -2 81 -12 14 -17 4 -26 -67 -56 -56 -24 -72 -43 -72 -85 0 -19 8
-29 34 -42 29 -13 33 -19 26 -34 -22 -40 -85 -31 -117 17 -12 19 -16 43 -15
81 2 41 -5 70 -28 123 -34 78 -32 98 20 157 28 31 30 39 30 114 0 71 3 83 24
104 13 13 49 31 79 40 54 15 56 18 72 65 18 54 63 100 99 100 12 0 46 -7 74
-15 48 -15 54 -14 83 2 104 60 105 61 147 39z m-1938 -16 c0 -5 -1 -10 -2 -10
-2 0 -21 -7 -43 -14 -33 -12 -37 -16 -20 -21 65 -21 63 -39 -5 -43 -53 -3
-140 20 -140 38 0 4 14 20 31 34 27 23 39 26 105 26 43 0 74 -4 74 -10z m1095
-35 c42 -17 56 -47 43 -94 -9 -30 -7 -36 21 -62 70 -63 13 -153 -69 -109 -16
9 -22 5 -36 -22 -26 -52 -45 -68 -79 -68 -21 0 -39 8 -55 25 -19 20 -22 32
-17 71 5 44 3 47 -28 65 -40 24 -48 51 -30 95 16 39 50 51 96 35 18 -6 34 -11
35 -11 2 0 10 16 18 35 12 28 35 48 64 54 1 1 18 -6 37 -14z m203 -1 c12 -8
22 -20 22 -25 0 -16 -80 -129 -91 -129 -33 0 -49 22 -49 68 0 50 11 72 45 90
28 16 47 15 73 -4z m-2346 -94 c53 -90 78 -171 85 -270 7 -99 -14 -219 -53
-312 -13 -31 -24 -60 -24 -63 0 -3 13 -5 29 -5 38 0 52 -20 54 -76 2 -44 -1
-50 -32 -71 -40 -27 -68 -29 -93 -6 -24 22 -23 33 12 84 16 24 30 48 30 53 0
13 -40 -25 -41 -38 0 -6 -37 -43 -80 -83 -87 -77 -203 -141 -299 -164 -111
-26 -333 -12 -427 28 -18 7 -33 10 -33 6 0 -4 -9 3 -20 15 -22 23 -50 29 -50
11 0 -6 13 -16 30 -22 51 -19 36 -58 -27 -72 -29 -6 -37 -2 -73 35 -35 35 -39
44 -29 62 9 17 18 19 50 15 21 -3 39 -2 39 3 0 4 -18 19 -40 34 -33 22 -60 58
-60 82 0 16 58 -2 99 -31 27 -19 79 -49 117 -66 340 -154 720 12 835 366 48
145 22 342 -62 479 -33 53 -32 79 3 74 16 -2 34 -23 60 -68z m-96 -37 c11 -18
19 -49 20 -83 1 -34 11 -79 28 -117 35 -84 34 -112 -9 -163 -33 -40 -35 -45
-35 -120 0 -74 -2 -80 -30 -109 -18 -17 -46 -33 -68 -37 -56 -10 -67 -19 -80
-62 -7 -22 -24 -52 -39 -67 -26 -25 -32 -27 -83 -21 -30 3 -71 8 -90 12 -29 5
-42 0 -74 -25 -61 -48 -102 -44 -172 20 l-56 51 -59 -7 c-50 -6 -64 -4 -94 15
-40 25 -45 50 -15 80 25 25 31 25 64 -1 26 -21 56 -20 56 2 0 6 -9 13 -20 16
-41 11 -22 62 38 101 23 15 25 15 37 -1 7 -9 20 -17 29 -17 9 0 28 -11 42 -25
22 -22 24 -31 18 -70 -8 -57 1 -91 26 -105 45 -24 90 24 90 95 0 76 65 93 89
23 15 -42 59 -88 85 -88 30 0 56 30 56 63 0 17 -12 50 -26 74 -44 76 -18 92
69 43 64 -36 100 -38 121 -8 33 47 18 74 -71 131 -69 44 -56 59 49 61 60 1 72
4 89 25 24 29 24 43 0 72 -17 22 -26 24 -89 21 -48 -2 -72 2 -80 11 -16 18 -4
31 53 56 91 40 104 67 59 121 -26 30 -26 31 -8 45 30 23 60 18 80 -12z m963
-87 c17 -20 11 -450 -6 -467 -7 -7 -47 -12 -97 -13 -116 -1 -122 5 -106 110 7
44 11 141 9 219 -2 77 0 146 4 153 12 18 181 17 196 -2z m801 -1 c9 -11 10
-33 1 -96 -6 -45 -11 -144 -11 -219 0 -98 -4 -140 -12 -147 -7 -6 -37 -13 -67
-17 -40 -5 -59 -3 -77 9 l-24 15 0 213 c0 262 -2 257 104 257 53 0 77 -4 86
-15z m227 3 c9 -15 32 -105 39 -159 l6 -35 52 4 c62 5 86 -12 86 -62 0 -35 15
-56 41 -56 32 0 69 -39 69 -74 0 -41 -17 -64 -55 -74 -26 -7 -31 -14 -36 -52
-6 -47 -28 -70 -67 -70 -37 0 -58 16 -76 60 -14 36 -19 40 -51 40 -48 0 -75
29 -75 79 0 31 6 44 26 60 15 12 36 21 48 21 35 0 43 13 38 58 -4 44 -17 55
-27 23 -8 -25 -35 -48 -66 -56 -25 -6 -27 -4 -34 33 -7 42 8 170 27 234 11 39
38 51 55 26z m-693 -47 c23 -43 42 -45 102 -10 70 39 99 37 100 -10 0 -26 5
-36 23 -42 18 -7 22 -15 19 -41 -4 -45 -32 -45 -36 -1 -3 32 -4 32 -27 17 -36
-24 -37 -41 -5 -74 17 -17 30 -35 30 -41 0 -6 -14 -23 -31 -38 -24 -22 -29
-34 -24 -50 11 -35 40 -22 40 17 0 37 2 38 33 16 16 -11 22 -25 22 -55 0 -44
-8 -48 -35 -19 -24 26 -35 17 -28 -24 3 -19 1 -36 -6 -40 -5 -4 -39 4 -75 16
l-65 23 -37 -35 c-34 -33 -37 -34 -48 -16 -37 62 -37 61 -99 26 -37 -21 -63
-29 -77 -25 -24 8 -25 23 -5 72 20 48 19 76 -5 98 -24 21 -25 43 -5 69 20 27
18 62 -5 114 -34 75 -11 89 78 47 68 -32 75 -31 104 4 29 38 44 38 62 2z
m1803 1 c48 -25 67 -47 59 -67 -8 -21 -33 -19 -69 7 -44 32 -130 36 -190 10
-88 -39 -130 -150 -92 -247 9 -25 14 -52 11 -61 -5 -13 -8 -13 -29 1 -34 22
-47 57 -47 128 0 189 193 312 357 229z m-3350 -60 c45 -68 2 -224 -79 -282
-80 -58 -200 -62 -287 -9 -27 16 -31 22 -21 34 16 20 26 19 59 -6 61 -45 185
-18 247 54 39 43 50 99 34 167 -19 80 6 103 47 42z m2543 0 c21 -17 21 -19 8
-96 -7 -45 -19 -81 -26 -84 -7 -2 -28 12 -47 31 -46 46 -48 95 -6 138 34 34
41 35 71 11z m-1690 -135 c0 -73 -29 -225 -47 -242 -30 -31 -36 -21 -64 105
l-19 85 26 53 c27 56 57 76 87 60 13 -6 17 -21 17 -61z m-177 -99 c39 -20 47
-40 41 -91 -6 -46 -5 -48 24 -58 36 -12 48 -47 32 -94 -14 -41 -30 -48 -97
-39 -45 5 -53 4 -53 -10 0 -25 -46 -66 -73 -66 -13 0 -37 10 -52 22 -26 20
-27 25 -21 74 6 50 4 55 -19 70 -39 25 -49 50 -35 85 15 34 47 45 90 31 29
-11 31 -9 45 26 25 60 67 78 118 50z m1921 -183 c28 -71 26 -92 -10 -101 -35
-9 -67 2 -97 32 -37 36 -34 66 8 103 54 47 69 42 99 -34z m-303 -37 c41 -48
44 -56 51 -132 6 -67 4 -83 -8 -93 -9 -6 -22 -9 -29 -7 -13 5 -84 151 -105
218 -11 35 -11 41 6 53 29 21 40 16 85 -39z m214 -78 c42 -33 52 -35 89 -19
20 10 30 9 51 -5 33 -21 30 -52 -6 -79 -25 -18 -31 -18 -77 -6 -66 16 -82 5
-82 -61 0 -42 -4 -52 -31 -74 -37 -32 -52 -32 -79 -4 -27 29 -25 60 6 97 25
30 25 33 10 56 -27 41 -21 82 17 105 43 27 58 25 102 -10z m-1302 -10 c16 -15
-23 -135 -84 -258 -34 -67 -60 -124 -58 -126 2 -3 38 1 79 6 75 11 150 5 150
-12 0 -5 -20 -12 -45 -16 -45 -6 -53 -24 -12 -24 12 0 29 -5 37 -10 24 -16 -6
-30 -62 -30 -67 0 -63 -24 6 -40 l31 -7 -32 -13 c-36 -13 -39 -20 -21 -38 22
-22 -10 -32 -98 -32 -91 0 -118 12 -112 51 3 24 33 38 112 54 l29 6 -22 20
c-12 12 -27 32 -32 47 l-10 25 -30 -29 c-82 -78 -249 -311 -249 -346 0 -10
-11 -25 -26 -34 -29 -19 -54 -63 -54 -95 0 -17 4 -20 23 -14 87 26 160 31 242
17 58 -11 30 -22 -71 -29 -96 -7 -93 -17 9 -26 37 -4 75 -11 85 -17 12 -7 -27
-9 -133 -7 -146 2 -149 2 -155 25 -10 43 -38 2 -76 -108 -69 -205 -62 -192
-98 -184 -65 14 -67 24 -31 150 48 165 111 274 375 644 88 123 207 338 231
418 6 23 19 43 28 46 20 5 63 -3 74 -14z m354 -7 c11 -27 -15 -176 -48 -275
-16 -51 -87 -203 -158 -342 -140 -273 -183 -380 -207 -520 -9 -50 -18 -94 -21
-98 -6 -11 -101 -10 -107 1 -11 17 15 171 41 248 29 88 96 225 188 388 34 61
81 148 104 194 42 83 121 300 121 334 0 10 7 33 14 52 12 27 21 35 41 35 15 0
28 -7 32 -17z m224 7 c22 -12 25 -52 5 -69 -18 -15 -115 -26 -151 -17 -22 6
-25 9 -15 21 7 8 19 15 26 15 21 0 17 18 -6 30 -11 6 -18 15 -15 21 8 12 131
12 156 -1z m133 -6 c13 -33 5 -180 -14 -273 -20 -100 -58 -218 -128 -401 -59
-153 -90 -268 -114 -415 -23 -139 -31 -155 -81 -155 l-30 0 6 103 c10 156 43
274 171 608 62 162 99 302 116 429 6 47 13 93 16 103 7 21 50 23 58 1z m-1204
-19 c20 -24 -41 -137 -116 -214 -54 -55 -65 -62 -79 -51 -21 17 -19 63 5 110
11 22 20 50 21 62 0 17 18 35 62 65 68 45 88 51 107 28z m-1440 -20 c11 -13 9
-22 -6 -52 -14 -27 -16 -37 -6 -40 40 -14 59 -96 29 -122 -29 -23 -74 -24 -96
-2 -18 18 -21 33 -21 97 0 70 2 78 29 105 33 32 52 36 71 14z m1043 -35 c14
-11 28 -20 32 -20 4 0 18 9 32 20 33 26 71 25 100 -2 31 -29 29 -68 -7 -113
l-30 -38 20 -32 c26 -42 25 -69 -2 -95 -31 -29 -74 -26 -114 10 l-34 29 -36
-24 c-46 -31 -68 -31 -99 0 -36 35 -33 77 7 109 l32 25 -17 36 c-23 48 -22 61
8 90 30 31 73 32 108 5z m1050 -36 c22 -4 37 -12 37 -20 0 -8 -5 -14 -11 -14
-6 0 -9 -10 -8 -22 6 -39 -8 -48 -75 -48 -144 0 -136 93 9 109 6 0 27 -2 48
-5z m-1210 -45 c26 -42 -33 -109 -96 -109 -35 0 -83 24 -91 46 -8 21 -12 19
70 53 75 32 102 35 117 10z m-575 -64 c11 -14 23 -39 26 -57 4 -22 16 -39 36
-50 30 -17 44 -39 54 -88 6 -27 83 -84 128 -94 19 -4 30 -16 38 -42 7 -19 9
-38 5 -42 -14 -14 -229 -13 -275 1 -39 12 -45 17 -42 38 4 33 36 63 69 65 16
1 33 3 40 3 7 1 17 9 22 19 9 17 5 19 -52 16 -64 -2 -62 -1 -110 -69 -22 -31
-68 -34 -97 -5 -14 14 -20 33 -20 68 0 42 -5 53 -35 82 -59 57 -39 120 38 120
30 0 48 7 74 30 41 37 75 38 101 5z m378 -40 c26 -29 39 -35 72 -35 49 0 82
-29 82 -71 0 -30 -8 -40 -57 -69 -29 -17 -32 -24 -35 -72 -3 -47 -6 -54 -31
-66 -51 -24 -88 2 -117 81 -8 22 -16 27 -43 27 -43 0 -77 25 -77 56 0 39 16
61 50 67 27 6 30 10 30 46 0 78 69 98 126 36z m1797 3 c32 -17 13 -60 -34 -77
-37 -13 -189 -15 -189 -3 0 15 50 32 95 32 24 0 47 5 50 10 4 6 -7 10 -27 10
-18 1 -46 7 -63 14 l-30 13 25 6 c14 4 34 8 45 11 26 5 105 -4 128 -16z m-395
3 c10 -6 5 -11 -19 -20 -17 -6 -41 -11 -52 -11 -28 0 -9 -17 23 -22 50 -6 23
-23 -48 -31 -60 -7 -78 -5 -98 8 -31 20 -30 30 2 60 24 22 36 25 103 25 42 0
82 -4 89 -9z m2399 -48 c9 -20 -2 -3465 -11 -3489 -5 -13 -130 -14 -963 -12
-527 2 -963 6 -970 11 -8 5 -9 17 -3 40 5 17 16 81 25 141 9 60 31 157 50 215
18 58 45 144 60 191 51 167 136 314 335 581 298 397 394 635 369 904 -9 90
-44 204 -70 227 -10 9 -19 23 -19 32 0 9 -4 16 -8 16 -4 0 -14 16 -21 36 -13
35 -12 37 27 78 21 22 53 61 70 86 31 46 112 127 191 193 51 43 59 40 96 -34
14 -26 41 -61 62 -78 36 -30 36 -31 18 -51 -10 -11 -24 -20 -31 -20 -8 0 -19
-9 -26 -20 -7 -11 -16 -20 -20 -20 -11 0 -68 -61 -68 -73 0 -7 -10 -17 -22
-22 -18 -8 -55 -82 -45 -91 1 -1 54 2 117 7 229 18 305 41 372 110 21 22 43
37 48 34 17 -10 11 -73 -10 -107 -11 -18 -20 -40 -20 -48 1 -23 50 37 50 61 0
10 3 19 7 19 12 0 43 -33 43 -46 0 -7 10 -20 22 -28 12 -9 19 -16 15 -16 -17
0 31 -64 85 -115 31 -30 69 -77 83 -104 48 -96 68 -52 63 139 -4 118 -8 143
-31 201 -34 82 -34 92 2 165 44 90 61 149 61 207 0 29 5 58 11 64 6 6 14 48
18 94 5 46 10 89 11 94 7 29 -5 48 -55 82 -61 42 -72 65 -57 123 7 30 7 44 -4
57 -29 39 -17 68 52 127 36 31 70 56 74 56 5 0 13 -8 17 -17z m-4516 -15 c75
-25 113 -69 124 -144 8 -57 -3 -69 -51 -54 -60 19 -131 68 -144 99 -8 21 -9
39 0 70 12 44 19 47 71 29z m3239 -19 c12 -22 8 -29 -79 -134 -53 -65 -105
-165 -125 -241 -20 -78 -21 -222 -1 -297 27 -103 116 -253 175 -294 52 -36 44
-83 -13 -83 -23 0 -40 11 -70 43 -101 107 -176 264 -196 410 -26 188 49 416
184 555 66 68 104 80 125 41z m-792 -40 c56 -19 52 -58 -9 -90 -34 -17 -38
-22 -29 -39 16 -30 12 -68 -9 -80 -11 -5 -64 -10 -118 -10 -88 1 -96 2 -79 15
11 8 40 15 65 15 25 0 52 4 60 9 14 9 -6 15 -79 24 -26 4 -23 38 6 68 16 17
28 41 29 57 0 22 6 28 30 33 48 11 100 10 133 -2z m-1348 -14 c17 -9 30 -21
30 -28 0 -19 -92 -76 -182 -113 -99 -40 -115 -41 -129 -10 -17 36 -3 66 48
111 41 36 50 40 94 38 27 -1 59 2 72 7 31 12 34 12 67 -5z m775 -243 c52 -10
32 -22 -46 -29 -65 -6 -63 -23 2 -23 35 0 66 -20 52 -33 -3 -4 -22 -7 -42 -7
-20 0 -42 -4 -50 -9 -21 -13 -4 -31 30 -31 44 0 26 -18 -26 -26 -60 -8 -65
-21 -15 -34 22 -6 40 -14 40 -19 0 -24 -250 -20 -271 5 -6 7 -9 23 -7 35 3 22
6 24 91 43 29 7 37 33 12 42 -32 13 -2 70 45 87 22 8 138 7 185 -1z m503 -4
c20 -20 14 -56 -12 -73 -19 -12 -48 -15 -142 -13 l-119 3 37 18 c21 9 53 17
72 17 19 0 38 5 41 10 3 6 -5 10 -19 10 -33 0 -76 17 -76 30 0 15 203 13 218
-2z m1581 -232 c-16 -77 -29 -144 -29 -150 0 -10 87 -44 157 -62 13 -4 35 3
59 20 64 43 146 29 130 -21 -9 -28 -93 -109 -133 -128 -25 -12 -49 -15 -77
-11 -23 3 -85 12 -139 20 -73 10 -107 20 -138 40 -44 30 -119 137 -119 171 0
15 25 43 81 89 86 72 230 178 235 173 1 -1 -10 -65 -27 -141z m-1654 105 c23
-5 31 -12 33 -32 2 -15 -4 -31 -13 -39 -30 -25 -256 -26 -240 -1 2 5 44 12 92
16 96 8 94 19 -7 29 -35 4 -69 10 -75 14 -26 16 144 27 210 13z m2022 -9 c94
-9 123 -34 123 -102 l0 -47 -105 38 c-58 22 -116 39 -131 39 -38 0 -64 18 -64
43 0 36 20 49 65 42 22 -3 72 -9 112 -13z m-59 -117 c71 -18 137 -58 151 -93
14 -33 1 -79 -24 -89 -20 -7 -72 20 -132 70 -31 25 -55 37 -77 37 -18 0 -37 5
-44 12 -18 18 -15 66 6 77 17 10 27 9 120 -14z m-2001 -6 c50 -19 51 -49 2
-74 -20 -11 -62 -15 -146 -15 -121 1 -136 12 -33 24 84 11 110 17 110 27 0 5
-30 9 -67 10 -38 0 -77 4 -88 9 -21 8 -21 8 50 23 41 9 145 7 172 -4z m-547
-128 c0 -13 -31 -22 -115 -36 l-70 -11 70 -7 c107 -12 129 -17 116 -30 -7 -7
-61 -11 -141 -11 -108 -1 -132 2 -146 16 -24 23 -11 64 23 76 36 13 263 15
263 3z m533 -10 c22 -17 22 -55 0 -72 -22 -19 -304 -27 -286 -9 6 7 57 18 112
24 56 7 104 15 107 18 6 7 -68 17 -151 21 -39 1 -51 6 -53 21 -4 17 4 18 126
15 90 -3 134 -8 145 -18z m2105 -83 c7 -7 12 -33 12 -59 l0 -48 -51 -3 -51 -3
26 -35 c81 -111 114 -242 87 -339 -7 -26 4 -34 -179 134 -18 17 -55 153 -48
181 9 34 29 21 61 -39 31 -57 75 -125 75 -116 0 4 -16 40 -35 82 -43 93 -46
132 -10 141 26 7 32 20 15 31 -16 10 -11 31 15 59 25 28 63 34 83 14z m-2709
-49 c47 -1 51 -3 26 -9 -16 -4 -46 -8 -65 -9 -19 -1 -53 -6 -74 -12 -57 -16
-28 -29 64 -29 41 0 82 -5 90 -10 22 -14 -243 -13 -274 1 -29 13 -41 38 -27
52 16 16 82 26 145 21 32 -2 84 -5 115 -5z m594 -4 c12 -5 17 -16 15 -34 -4
-36 -51 -46 -154 -35 l-79 9 70 5 c77 6 66 14 -30 25 -73 8 -95 14 -95 25 0
18 230 22 273 5z m1697 -70 c7 -9 11 -17 9 -19 -2 -1 -48 -18 -101 -36 -53
-19 -95 -36 -93 -38 6 -7 155 28 210 49 60 23 84 24 91 4 8 -20 -16 -41 -71
-65 -126 -54 -345 -84 -367 -50 -11 18 28 89 49 90 7 0 16 6 20 13 4 8 24 20
43 27 19 7 51 18 70 26 49 18 124 18 140 -1z m-2820 -195 c201 -5 739 -10
1196 -10 l832 0 6 -26 c4 -15 4 -29 1 -33 -16 -15 -2513 9 -2602 25 -17 3 -42
15 -54 27 l-23 21 25 8 c13 4 76 5 139 2 63 -3 279 -9 480 -14z m2178 -27 c6
-15 12 -32 12 -38 0 -6 -32 -52 -72 -101 -278 -346 -477 -826 -618 -1495 -17
-79 -33 -150 -36 -158 -12 -35 -24 13 -30 124 l-6 120 56 220 c125 497 292
900 476 1150 20 28 44 64 53 82 10 18 36 52 60 77 50 54 85 60 105 19z m-2317
-92 c19 -24 19 -24 77 -7 57 16 205 22 236 10 24 -9 20 -57 -7 -82 -38 -36
-91 -52 -172 -52 -46 0 -75 4 -75 11 0 15 76 46 133 54 34 5 45 11 38 18 -7 7
-42 4 -114 -11 -57 -12 -107 -22 -112 -22 -4 0 -4 11 -1 25 8 32 -4 32 -53 -1
-22 -14 -60 -32 -87 -40 -53 -16 -124 -19 -124 -5 0 17 49 49 85 55 37 7 58
26 28 26 -10 0 -49 -7 -88 -15 -73 -15 -99 -9 -75 20 23 28 100 45 198 42 85
-2 96 -4 113 -26z m695 -14 l22 -26 68 24 c50 18 90 25 147 25 70 0 80 -3 103
-25 30 -30 39 -31 102 -6 27 11 85 22 129 26 76 7 81 6 96 -15 20 -29 10 -51
-44 -90 -45 -32 -123 -53 -169 -44 -34 7 -38 21 -12 40 16 12 15 13 -5 14 -12
0 -25 -4 -28 -10 -3 -5 -22 -10 -41 -10 -38 0 -47 23 -16 46 16 13 16 13 0 14
-10 0 -18 -4 -18 -10 0 -5 -6 -10 -14 -10 -7 0 -33 -11 -58 -25 -24 -13 -75
-31 -113 -40 l-69 -16 -33 38 c-18 21 -32 44 -33 51 0 19 -18 14 -55 -14 -44
-33 -114 -54 -182 -54 -81 0 -72 15 32 55 37 14 -3 17 -56 5 -27 -7 -53 -9
-57 -5 -12 12 60 65 108 80 28 9 70 13 110 11 54 -3 68 -8 86 -29z m1013 13
c19 -5 38 -15 43 -22 18 -29 6 -46 -54 -79 -98 -52 -213 -61 -206 -16 2 15 16
23 51 32 68 17 88 40 27 31 -25 -4 -54 -13 -65 -20 -11 -7 -41 -16 -67 -20
-38 -6 -48 -4 -48 7 0 60 213 118 319 87z m355 -16 c22 -21 20 -28 -14 -68
-48 -54 -106 -78 -182 -74 l-63 3 24 22 c13 13 40 28 60 34 20 6 41 16 46 21
13 12 -32 3 -113 -25 -45 -15 -65 -18 -73 -10 -17 17 -5 28 65 62 106 51 219
67 250 35z m-1950 -168 c30 -15 62 -38 71 -52 16 -24 16 -28 1 -42 -27 -27
-151 -29 -234 -3 -69 21 -162 75 -170 99 -6 18 17 15 108 -14 94 -29 124 -27
61 5 -34 18 -41 25 -30 32 25 18 136 3 193 -25z m333 9 c49 -25 114 -97 99
-112 -12 -12 -161 -15 -203 -4 -44 12 -134 69 -141 89 -5 16 23 10 126 -25 97
-32 142 -27 52 6 -88 32 -117 50 -99 62 29 18 114 10 166 -16z m303 0 c47 -20
76 -25 142 -25 60 0 90 -4 106 -16 32 -22 77 -33 93 -23 14 8 -10 21 -67 35
-64 16 -31 47 41 38 61 -8 108 -26 152 -60 101 -77 -55 -112 -234 -52 l-70 23
-25 -27 c-23 -25 -32 -28 -89 -28 -72 1 -152 29 -212 74 -52 40 -47 50 20 41
57 -7 58 -7 40 12 -9 11 -17 23 -17 26 0 15 64 5 120 -18z m728 10 c51 -16
113 -60 132 -96 7 -13 5 -22 -7 -35 -14 -14 -31 -16 -103 -11 -85 5 -143 22
-209 61 -31 18 -32 20 -15 33 10 7 26 11 35 8 23 -8 33 10 14 25 -8 7 -12 16
-9 21 8 14 106 10 162 -6z m347 -25 c52 -22 108 -75 103 -97 -3 -15 -16 -19
-73 -21 -77 -4 -135 10 -178 40 -32 23 -27 38 11 38 l27 0 -33 26 c-26 21 -31
29 -20 35 18 13 115 0 163 -21z m-2838 -108 c35 -53 44 -67 58 -99 8 -17 19
-34 25 -38 5 -3 19 -25 30 -48 26 -53 52 -98 83 -145 14 -20 31 -49 38 -63 47
-89 69 -127 83 -138 9 -8 16 -20 16 -28 0 -8 9 -26 20 -40 32 -41 26 -77 -17
-110 l-37 -28 -150 3 c-110 3 -157 7 -173 18 l-23 14 0 359 c0 197 3 361 7
364 12 12 21 7 40 -21z m2203 -51 c750 -6 724 -4 686 -56 -14 -19 -27 -20
-313 -20 -429 0 -1560 15 -1611 21 -30 4 -47 12 -58 29 -30 46 -22 47 300 40
165 -4 614 -10 996 -14z m-391 -118 l34 -8 -25 -24 c-14 -13 -69 -38 -127 -57
-57 -19 -129 -46 -162 -62 -57 -27 -76 -28 -44 -2 17 14 20 30 5 30 -5 0 -73
-56 -150 -125 -78 -69 -145 -125 -151 -125 -25 0 -1 33 83 112 50 48 89 90 85
94 -8 9 -75 -34 -87 -56 -12 -23 -99 -82 -113 -77 -6 2 7 22 28 45 21 24 35
45 32 49 -8 7 -57 -24 -57 -37 0 -6 -9 -10 -20 -10 -11 0 -20 4 -20 8 0 13 61
92 71 92 5 0 9 6 9 14 0 8 9 18 20 21 11 3 25 15 31 26 9 18 8 19 -8 11 -10
-6 -29 -22 -43 -37 -31 -34 -98 -77 -112 -73 -6 2 10 30 36 61 48 59 52 67 37
67 -6 0 -18 -13 -27 -29 -25 -43 -52 -46 -72 -10 -10 16 -20 29 -24 29 -5 0
-8 9 -8 20 0 11 -9 25 -20 32 -31 19 -24 26 28 31 77 8 734 -1 771 -10z m337
-18 c40 -12 56 -24 87 -65 21 -28 41 -58 44 -68 9 -24 85 -136 98 -144 22 -14
95 -188 124 -298 43 -161 63 -331 45 -396 -5 -21 -7 -21 -57 -6 -29 8 -63 23
-76 33 -31 24 -62 24 -111 -1 -22 -11 -42 -20 -45 -20 -11 0 -4 74 15 142 36
130 22 191 -46 204 -19 4 -49 18 -65 31 -33 28 -40 21 -36 -37 2 -39 4 -39
-128 -25 -53 6 -62 5 -79 -14 -35 -39 -4 -111 48 -111 25 0 19 26 -9 38 -29
13 -31 24 -9 46 20 21 26 20 88 -9 56 -27 81 -25 91 5 11 34 28 40 70 26 69
-24 72 -43 35 -181 -24 -87 -34 -149 -38 -228 -6 -132 7 -185 55 -227 42 -37
70 -45 161 -45 39 0 72 -4 72 -8 0 -5 -27 -39 -60 -75 -33 -37 -60 -71 -60
-76 0 -4 -18 -26 -40 -47 -22 -22 -40 -46 -40 -54 0 -8 -4 -15 -10 -15 -5 0
-21 -22 -35 -50 -35 -69 -60 -83 -159 -87 -109 -6 -138 10 -184 97 -55 105
-212 296 -257 313 -8 4 -15 11 -15 17 0 13 25 13 48 0 33 -19 142 -50 174 -50
68 1 148 56 148 102 0 10 -1 18 -2 18 -2 0 -34 -11 -73 -25 -88 -31 -103 -31
-209 0 -47 14 -92 25 -100 25 -8 0 -21 11 -29 24 -14 21 -57 43 -57 28 0 -11
33 -42 45 -42 16 0 57 -58 49 -71 -4 -7 -12 -6 -22 3 -10 8 -39 25 -65 39 -59
30 -69 45 -92 139 -21 88 -89 296 -151 463 -24 65 -44 129 -44 141 0 17 11 30
35 45 19 11 35 28 35 37 0 36 68 151 120 205 58 59 146 110 234 136 28 8 101
39 161 68 61 29 117 55 125 58 31 11 148 6 196 -8z m684 0 c10 -12 8 -26 -13
-73 -37 -82 -116 -320 -172 -517 -52 -181 -64 -210 -76 -178 -15 36 -8 90 26
233 55 224 68 265 111 367 8 17 14 36 14 43 0 14 47 99 68 123 19 21 26 21 42
2z m-2838 -602 c9 -10 26 -40 39 -67 33 -72 61 -81 195 -61 112 17 134 13 155
-26 6 -11 9 -22 7 -24 -2 -3 -80 -13 -173 -24 -126 -15 -172 -18 -182 -9 -16
13 -78 123 -88 156 -9 31 2 72 19 72 7 0 20 -8 28 -17z m36 -354 c65 -163 116
-344 137 -483 18 -126 20 -287 3 -304 -19 -19 -193 -16 -212 4 -14 13 -16 49
-16 237 0 360 12 688 24 684 6 -2 35 -64 64 -138z m387 131 c11 -18 -13 -37
-54 -44 -52 -8 -96 -46 -115 -99 -8 -23 -17 -88 -20 -144 -5 -104 -17 -147
-39 -141 -7 2 -41 89 -75 192 -53 157 -62 191 -50 201 8 8 70 17 163 25 82 6
152 13 154 16 8 8 30 4 36 -6z m26 -73 c19 -12 43 -39 54 -59 19 -35 19 -38 2
-72 -9 -20 -28 -42 -42 -48 -22 -10 -29 -9 -47 10 l-21 21 27 12 c35 16 34 62
-2 67 -35 5 -62 -25 -62 -69 0 -29 6 -43 31 -63 43 -37 72 -33 124 15 25 23
47 40 48 38 2 -2 16 -25 31 -52 l27 -47 -26 -10 c-15 -6 -32 -10 -40 -10 -44
0 -71 -102 -39 -148 23 -33 81 -31 94 4 14 36 4 47 -36 39 -19 -3 -34 -4 -34
-1 0 2 -3 11 -6 19 -9 25 24 47 71 47 40 0 46 -3 60 -31 32 -60 20 -106 -37
-154 -29 -25 -38 -27 -90 -22 -39 3 -80 17 -130 43 -40 21 -90 47 -111 57 -21
11 -41 27 -44 35 -9 22 17 273 32 307 20 48 71 86 126 94 3 1 21 -9 40 -22z
m1893 -247 c56 -29 89 -40 121 -40 36 0 47 -4 56 -22 7 -13 17 -26 23 -31 16
-11 -27 -44 -76 -59 -30 -9 -53 -9 -94 0 -103 21 -151 79 -145 175 2 26 30 21
115 -23z m-954 -146 c48 -55 63 -97 51 -141 -7 -24 -7 -42 0 -54 21 -41 -45
-10 -108 49 -52 49 -40 102 15 64 15 -11 38 -25 51 -32 19 -10 22 -10 16 2
-15 25 -48 58 -60 58 -15 0 -73 61 -75 80 -7 48 -2 52 38 31 22 -11 54 -37 72
-57z m-1009 -95 c121 -59 185 -71 252 -45 23 8 47 25 52 37 11 24 28 27 33 7
2 -12 -21 -47 -122 -179 -23 -31 -31 -53 -35 -106 -8 -88 -17 -93 -173 -93
-105 0 -120 2 -138 20 -23 23 -24 28 -21 125 2 39 -2 108 -9 154 -6 46 -9 95
-6 108 10 36 50 29 167 -28z m2162 -33 c-10 -14 -23 -26 -29 -26 -15 0 -73
-64 -104 -115 -13 -22 -39 -54 -57 -71 -18 -17 -33 -40 -33 -50 0 -10 -12 -31
-27 -46 -50 -52 -57 -30 -18 55 14 30 32 61 40 67 8 7 15 18 15 24 0 13 185
188 209 197 23 9 25 -7 4 -35z m-945 -18 c13 -15 29 -28 36 -28 6 0 16 -8 21
-19 23 -43 88 -121 101 -121 8 0 14 -9 14 -20 0 -11 7 -23 15 -26 20 -8 49
-70 41 -89 -9 -24 -23 -18 -46 20 -12 19 -26 35 -31 35 -5 0 -9 9 -9 19 0 20
-71 101 -88 101 -5 0 -14 11 -20 25 -7 14 -20 28 -29 32 -10 4 -28 16 -40 27
-12 12 -32 29 -43 39 -17 15 -19 21 -10 33 17 20 59 7 88 -28z m-813 12 c9
-28 -2 -56 -42 -108 -46 -61 -74 -117 -88 -176 -6 -28 -16 -51 -23 -54 -17 -5
-42 53 -42 102 0 39 7 53 66 128 37 45 71 93 77 106 13 27 43 29 52 2z m1780
-40 c3 -5 -18 -36 -47 -69 -29 -32 -64 -75 -78 -95 -56 -82 -93 -126 -106
-126 -16 0 -19 36 -4 45 6 4 24 30 40 58 31 55 157 193 177 196 6 0 15 -3 18
-9z"/>
<path d="M1835 9347 c-68 -18 -103 -38 -146 -84 -60 -62 -72 -95 -67 -183 4
-68 10 -86 56 -175 29 -54 50 -100 48 -102 -2 -3 -21 0 -43 6 -60 17 -162 13
-208 -8 -56 -25 -104 -76 -134 -141 -34 -74 -36 -192 -5 -261 48 -104 135
-168 239 -177 111 -8 197 44 262 157 34 59 32 56 44 44 17 -17 -8 -125 -62
-267 -27 -71 -49 -132 -49 -135 0 -3 70 -6 155 -6 85 0 155 3 155 6 0 4 -16
49 -36 100 -48 121 -74 221 -74 278 l0 45 53 -79 c72 -109 130 -145 232 -145
116 1 194 49 247 154 23 45 32 79 36 131 5 89 -8 138 -58 207 -67 95 -175 130
-294 97 -60 -17 -65 0 -17 63 58 77 71 115 71 205 0 57 -5 88 -21 120 -27 55
-97 117 -157 138 -64 22 -166 27 -227 12z"/>
<path d="M3825 9130 c-27 -11 -56 -28 -62 -37 -12 -15 -19 -73 -9 -73 2 0 25
12 52 28 41 22 61 27 119 27 61 0 81 -5 155 -40 47 -22 91 -45 98 -52 18 -17
32 -16 32 2 0 8 -5 15 -11 15 -6 0 -28 15 -49 33 -47 39 -127 80 -199 101 -65
20 -64 20 -126 -4z"/>
<path d="M3863 8988 c-36 -21 -93 -94 -93 -120 0 -13 -7 -33 -15 -45 -13 -18
-12 -22 6 -39 12 -11 32 -38 46 -61 27 -46 39 -51 81 -29 15 7 51 16 81 19 36
4 74 18 110 40 31 18 70 39 86 46 l30 14 -52 12 c-50 11 -123 52 -123 67 0 12
-109 40 -131 35 -24 -6 -24 2 -1 19 25 20 46 17 148 -18 66 -24 96 -30 104
-22 7 7 -14 21 -76 48 -95 41 -167 53 -201 34z"/>
<path d="M3550 8223 c-77 -18 -95 -26 -95 -43 0 -9 35 -13 140 -15 77 -1 157
-6 177 -10 56 -11 88 0 88 30 0 26 -4 28 -62 25 -21 -1 -48 6 -60 14 -28 20
-99 19 -188 -1z"/>
<path d="M1860 7692 c-27 -51 -75 -84 -147 -103 -24 -6 -43 -15 -43 -19 0 -4
18 -20 40 -35 47 -33 65 -58 80 -116 7 -24 17 -52 22 -63 9 -16 12 -14 28 21
24 53 81 98 158 124 l64 21 -38 18 c-55 25 -92 69 -118 138 l-22 61 -24 -47z"/>
<path d="M3433 5424 c-19 -8 -73 -93 -80 -124 -7 -37 23 -97 58 -115 15 -8 49
-15 75 -15 41 0 51 5 85 39 33 33 39 45 39 82 0 47 -27 101 -57 117 -23 12
-104 22 -120 16z"/>
<path d="M5060 3421 c-14 -5 -41 -18 -60 -29 -38 -24 -74 -27 -116 -12 -46 18
-64 5 -64 -47 0 -38 -5 -50 -33 -76 -19 -18 -46 -40 -62 -51 -32 -22 -64 -88
-65 -132 0 -16 16 -61 35 -100 30 -57 35 -78 33 -124 l-2 -55 57 -5 c50 -5 61
-10 99 -47 50 -48 83 -63 141 -63 62 1 126 33 178 91 41 46 48 50 68 40 24
-13 28 -49 6 -57 -22 -9 -18 -31 5 -37 33 -9 53 20 47 68 -6 39 -4 43 44 84
59 51 81 89 81 145 0 49 -14 86 -47 130 -14 19 -25 46 -25 64 0 35 -10 41 -30
17 -15 -18 -40 -3 -40 23 0 11 8 13 39 8 27 -4 40 -2 43 7 10 26 -4 37 -47 37
-35 0 -48 5 -64 26 -12 15 -21 37 -21 50 0 26 -8 29 -100 44 -73 11 -66 11
-100 1z m125 -47 c52 -24 67 -56 63 -127 -3 -57 -1 -62 22 -74 14 -6 37 -15
53 -18 15 -3 41 -18 59 -34 26 -23 32 -36 35 -82 8 -100 -48 -159 -152 -159
-27 0 -55 -4 -62 -8 -6 -4 -22 -32 -36 -63 -28 -64 -67 -89 -137 -89 -88 0
-144 51 -156 143 -7 54 -31 77 -77 77 -85 0 -127 146 -66 224 34 44 74 58 147
54 l65 -3 12 43 c17 57 39 89 78 112 39 24 107 26 152 4z"/>
<path d="M5065 3206 c-24 -51 -72 -84 -157 -110 l-72 -22 62 -34 c68 -36 80
-52 107 -145 l17 -60 23 50 c30 69 69 99 146 115 64 12 64 12 39 29 -64 42
-90 74 -106 130 -9 31 -22 62 -29 70 -11 11 -16 7 -30 -23z"/>
<path d="M4810 2559 c0 -4 20 -62 45 -128 43 -114 72 -251 59 -272 -3 -6 -28
23 -54 63 -64 95 -141 146 -226 148 -98 1 -211 -75 -255 -172 -35 -78 -34
-213 1 -282 34 -66 100 -123 168 -142 54 -16 91 -14 195 12 38 9 35 -10 -9
-59 -57 -63 -89 -140 -88 -217 0 -54 6 -76 34 -128 42 -79 85 -115 164 -137
191 -55 335 8 412 180 23 54 25 64 15 116 -12 72 -47 140 -101 202 -23 26 -40
51 -36 54 3 3 11 1 18 -5 21 -17 136 -34 186 -26 65 9 114 36 156 85 103 121
100 307 -9 427 -53 59 -107 82 -191 82 -108 -1 -192 -49 -232 -132 -11 -24
-29 -52 -41 -62 -21 -19 -21 -19 -21 16 0 65 55 242 116 373 3 7 -46 11 -151
11 -85 0 -155 -3 -155 -7z"/>
<path d="M3045 2441 c-3 -6 -3 -21 0 -32 6 -18 12 -20 41 -15 22 5 44 1 63 -9
39 -20 155 -20 212 0 24 9 52 14 64 13 14 -2 21 3 23 18 3 20 -1 21 -105 20
-59 0 -149 3 -199 8 -63 5 -94 4 -99 -3z"/>
<path d="M3011 1916 c-6 -7 -33 -16 -59 -19 -27 -3 -91 -27 -148 -55 l-101
-49 41 -11 c23 -6 61 -24 86 -40 25 -16 75 -40 113 -53 37 -13 67 -27 67 -31
0 -16 -82 -7 -120 12 -22 11 -61 23 -87 26 -45 5 -47 4 -29 -10 33 -27 173
-76 216 -76 35 0 48 7 90 46 30 28 50 55 50 68 0 12 7 31 15 43 14 20 13 25
-13 65 -16 24 -37 55 -46 71 -18 30 -56 37 -75 13z"/>
<path d="M610 8718 c-50 -14 -85 -42 -105 -84 -20 -42 -16 -105 8 -132 8 -9
17 -26 19 -37 3 -18 -3 -20 -50 -23 -47 -3 -58 -8 -96 -45 -70 -68 -71 -159
-3 -234 56 -61 157 -57 212 8 13 16 28 29 34 29 13 0 4 -51 -21 -108 -32 -77
-29 -82 57 -82 41 0 75 4 75 10 0 5 -8 31 -19 57 -29 75 -35 113 -18 113 7 0
22 -9 33 -21 50 -56 142 -67 194 -23 42 36 60 74 60 131 -1 107 -61 168 -160
161 l-49 -3 26 47 c21 39 25 56 21 107 -5 69 -22 94 -83 122 -44 20 -82 22
-135 7z"/>
<path d="M6166 2540 c3 -14 13 -40 21 -59 8 -19 18 -52 20 -75 l5 -41 -50 49
c-50 49 -51 49 -103 43 -69 -8 -96 -28 -126 -93 -19 -42 -23 -64 -18 -92 17
-89 66 -132 153 -132 58 0 65 -10 30 -48 -32 -33 -33 -148 -3 -182 56 -62 181
-81 245 -37 70 47 88 130 45 206 -14 23 -25 47 -25 52 0 5 23 9 51 9 94 0 143
44 156 140 7 51 -26 124 -69 150 -71 43 -125 34 -195 -33 -29 -27 -33 -28 -33
-11 0 10 12 51 25 89 14 39 25 75 25 80 0 6 -33 10 -80 10 l-79 1 5 -26z"/>
<path d="M5962 1788 c-22 -22 -13 -58 28 -102 45 -48 47 -58 24 -111 -12 -30
-16 -94 -18 -349 -2 -171 0 -334 4 -363 12 -97 77 -156 199 -182 95 -20 185 5
250 70 62 61 62 62 64 390 l2 301 43 36 42 37 -20 33 c-18 28 -25 33 -48 27
-23 -5 -33 1 -64 39 -67 79 -173 109 -301 83 -37 -8 -41 -6 -78 34 -57 62
-102 82 -127 57z m194 -309 c62 -49 110 -69 180 -76 35 -3 68 -11 71 -17 4 -6
6 -128 4 -271 -3 -294 -3 -294 -78 -327 -77 -34 -173 -14 -217 45 -20 27 -21
42 -24 330 -3 295 0 347 17 347 4 0 26 -14 47 -31z"/>
</g>
</svg>
