<svg version="1.0" xmlns="http://www.w3.org/2000/svg"
 width="691.000000pt" height="1056.000000pt" viewBox="0 0 691.000000 1056.000000"
 preserveAspectRatio="xMidYMid meet">
<g transform="translate(0.000000,1056.000000) scale(0.100000,-0.100000)"
fill="#000000" stroke="none">
<path d="M630 9911 c-71 -23 -123 -67 -155 -130 -14 -29 -17 -71 -19 -290 -3
-282 -10 -327 -56 -368 -49 -43 -38 -93 20 -93 10 0 43 -22 73 -50 80 -73 123
-90 235 -90 107 0 143 -12 192 -64 38 -40 64 -46 80 -17 17 33 11 52 -31 98
-44 48 -44 52 -15 129 12 33 15 106 17 380 2 321 1 341 -18 384 -17 38 -30 51
-84 80 -53 28 -76 34 -139 37 -41 1 -86 -1 -100 -6z m180 -109 c55 -29 70 -69
70 -193 0 -189 -13 -529 -20 -529 -4 0 -25 14 -46 31 -61 48 -112 71 -182 79
-36 5 -69 14 -73 22 -5 7 -9 122 -9 256 0 301 2 307 105 349 37 16 108 8 155
-15z"/>
<path d="M1176 9467 c-9 -195 -73 -3918 -80 -4677 -2 -228 -9 -653 -15 -945
-21 -1044 -32 -1659 -38 -2202 l-6 -552 34 -5 c41 -7 429 -15 959 -22 530 -7
848 -12 1455 -25 281 -6 672 -12 870 -15 198 -2 502 -8 675 -14 173 -5 399
-10 501 -10 l187 0 6 123 c3 67 12 527 21 1022 21 1229 70 3929 104 5794 16
849 27 1550 24 1558 -3 7 -15 15 -27 18 -11 2 -329 9 -706 15 -1021 16 -2341
39 -2630 45 -140 3 -394 8 -565 10 -170 3 -412 7 -536 10 l-227 5 -6 -133z
m1309 62 c413 -5 765 -12 783 -15 19 -3 32 -11 32 -19 0 -8 -35 -60 -79 -117
-98 -128 -271 -391 -271 -411 0 -8 -7 -20 -15 -27 -8 -6 -43 -71 -78 -143
-197 -405 -288 -757 -305 -1190 -9 -207 -13 -217 -136 -309 -44 -34 -108 -85
-141 -113 -114 -97 -134 -109 -162 -99 -15 5 -40 29 -58 54 -17 25 -40 49 -51
54 -10 5 -34 27 -53 48 -48 54 -34 65 59 49 38 -7 89 -10 112 -6 46 7 307 124
308 139 1 20 -70 74 -121 94 -154 57 -317 29 -444 -77 -27 -22 -65 -46 -84
-52 l-35 -12 37 -32 c21 -18 58 -43 84 -56 65 -34 106 -81 172 -201 29 -51 26
-73 -9 -95 -17 -11 -54 -39 -83 -62 -29 -23 -83 -62 -121 -87 -65 -42 -70 -43
-88 -28 -24 22 -23 48 4 84 19 26 22 43 23 147 0 87 -3 124 -14 141 -16 26
-175 140 -233 168 -21 10 -38 21 -38 25 0 13 80 39 120 39 22 0 60 -10 85 -22
l45 -22 37 44 c49 56 62 79 63 111 0 28 16 39 56 39 32 0 94 66 94 99 0 23
-11 66 -31 118 -6 16 -22 26 -53 34 -51 13 -58 19 -89 81 -27 54 -83 78 -144
62 -39 -9 -54 -29 -83 -111 -9 -23 -24 -38 -56 -52 -61 -29 -78 -58 -72 -128
4 -46 10 -61 32 -80 15 -13 37 -23 50 -23 32 0 53 -20 61 -57 6 -32 6 -33 -30
-33 -47 0 -90 23 -112 60 -9 16 -21 30 -26 30 -5 0 -25 13 -43 30 -42 36 -77
46 -111 31 -28 -13 -28 -7 13 -118 15 -40 33 -73 40 -73 22 0 28 -65 10 -116
-9 -26 -16 -48 -16 -49 0 -1 30 -5 66 -8 77 -6 114 -32 114 -79 l0 -29 26 20
c40 31 69 27 92 -13 12 -21 34 -39 56 -47 39 -14 52 -34 35 -55 -16 -19 -36
-17 -66 6 -14 11 -39 20 -56 20 -16 0 -44 9 -61 19 -17 11 -51 25 -76 31 -75
20 -119 47 -126 78 -10 47 -11 48 -27 12 -8 -19 -17 -73 -21 -120 -4 -47 -12
-111 -19 -144 l-12 -59 42 -36 c22 -20 47 -49 56 -66 22 -44 32 -206 17 -261
-22 -78 -151 -197 -181 -167 -16 16 37 3141 54 3162 10 12 51 13 257 8 135 -4
583 -12 995 -18z m1166 -108 c-38 -101 -228 -291 -291 -291 -26 0 -7 38 30 59
22 12 43 29 48 37 5 9 12 15 15 15 4 -1 11 -1 15 -1 12 0 92 77 92 89 0 5 10
21 23 34 20 21 42 55 72 109 18 34 16 1 -4 -51z m328 -143 c34 -32 69 -58 77
-58 8 0 34 -18 57 -40 27 -24 72 -50 121 -69 83 -32 116 -54 116 -79 0 -11 -8
-13 -31 -8 -47 9 -143 50 -206 87 -82 49 -232 201 -270 274 -53 103 -48 113
14 30 33 -44 88 -106 122 -137z m664 203 c16 -6 67 -69 137 -170 62 -89 119
-161 127 -161 8 0 13 -6 10 -12 -6 -19 -2 -26 216 -336 110 -158 217 -310 236
-339 34 -49 65 -67 73 -42 8 24 161 39 212 19 28 -10 137 -95 149 -117 19 -32
-31 -45 -67 -18 -30 22 -38 18 -31 -15 6 -28 4 -32 -31 -46 -27 -11 -53 -14
-85 -10 -45 6 -48 5 -61 -21 -7 -16 -32 -38 -58 -51 l-45 -22 -5 72 -5 73 -40
7 c-22 4 -57 10 -77 13 -62 10 -70 24 -62 124 8 102 7 104 -85 125 -92 22 -94
24 -86 128 5 63 4 93 -5 103 -6 7 -37 19 -68 25 -108 21 -106 18 -98 118 8
107 -4 132 -63 132 -46 0 -100 18 -103 33 -1 7 -2 48 -2 92 l-1 80 -40 12
c-22 7 -59 17 -82 23 -38 9 -43 14 -43 39 0 25 26 125 37 144 6 9 17 9 46 -2z
m265 -11 l19 -21 35 21 c32 18 68 19 68 1 0 -4 -20 -46 -45 -93 -25 -48 -45
-97 -45 -110 1 -23 1 -23 16 -3 8 11 36 57 62 103 25 45 57 90 71 99 22 14 59
15 365 9 199 -4 347 -11 359 -17 18 -10 19 -22 12 -387 -5 -208 -11 -442 -14
-522 -5 -131 -8 -145 -25 -148 -11 -2 -33 10 -55 31 -52 52 -79 59 -192 51
-107 -7 -154 3 -164 37 -9 27 0 36 46 43 54 9 103 57 119 117 7 24 14 108 16
187 2 78 11 172 19 208 8 36 15 69 15 73 0 5 -28 12 -62 15 -62 7 -141 31
-273 81 -53 20 -82 26 -122 23 -70 -6 -144 -51 -157 -96 -9 -33 -20 -38 -45
-23 -11 7 -11 15 -2 41 16 47 15 49 -24 43 -30 -5 -36 -2 -46 21 -11 23 -8 34
19 87 32 62 41 96 22 84 -6 -4 -19 -24 -31 -46 -11 -22 -27 -43 -35 -46 -19
-7 -59 29 -91 85 -37 63 -29 72 66 72 68 0 83 -3 99 -20z m-1127 -72 c92 -182
310 -356 531 -423 60 -18 96 -35 113 -53 38 -41 266 -372 282 -411 16 -37 10
-97 -12 -127 -13 -18 -14 -18 -33 -1 -20 18 -21 18 -31 -2 -16 -28 -14 -86 4
-101 33 -28 73 15 104 113 17 51 34 36 29 -24 -3 -32 -17 -69 -40 -106 -20
-32 -41 -75 -48 -96 -11 -35 -15 -38 -39 -33 -14 4 -32 8 -40 9 -9 1 -33 -31
-60 -80 -118 -212 -201 -281 -387 -322 -85 -18 -158 -46 -234 -91 -24 -14 -53
-20 -91 -20 -83 0 -229 28 -269 51 -31 19 -35 19 -46 5 -14 -20 -35 -20 -173
4 -131 22 -208 43 -236 64 -20 14 -20 15 3 39 32 34 114 45 140 19 11 -11 52
-25 102 -35 46 -9 102 -28 126 -42 l43 -25 -13 38 c-18 51 -47 107 -111 217
-29 50 -64 124 -77 165 -20 67 -23 92 -21 234 2 206 2 206 57 206 33 0 53 7
87 33 49 38 83 57 98 57 16 0 13 -51 -4 -101 -32 -89 -63 -226 -58 -253 4 -19
24 -41 66 -72 65 -47 81 -47 69 1 -6 21 -16 31 -40 37 -33 9 -62 41 -62 69 0
9 25 106 56 215 49 172 56 207 51 258 -11 116 -96 188 -225 190 -65 1 -67 2
-70 28 -3 24 4 30 70 64 90 47 218 172 268 262 58 103 69 122 75 122 3 0 23
-37 46 -82z m-425 -11 c-6 -29 -53 -104 -80 -126 -9 -8 -16 -20 -16 -27 0 -8
-6 -14 -14 -14 -15 0 -127 -150 -195 -263 -109 -179 -234 -471 -251 -587 -4
-30 -20 -86 -34 -124 -44 -113 -97 -425 -103 -605 -5 -134 -8 -156 -25 -173
-23 -23 -41 -19 -48 11 -9 39 7 363 25 476 22 146 83 383 135 525 23 63 78
189 121 280 43 91 79 170 79 176 0 7 7 17 15 24 8 7 52 67 97 134 101 150 190
269 237 319 33 35 37 36 49 20 8 -10 11 -30 8 -46z m1964 -200 c47 -20 108
-41 135 -48 76 -18 80 -21 78 -70 -12 -280 -20 -377 -38 -406 -25 -42 -65 -63
-120 -63 -40 0 -52 5 -81 34 -38 38 -43 70 -19 116 20 39 48 46 88 21 32 -20
29 -25 -18 -33 -15 -2 -20 -11 -20 -33 0 -25 4 -31 27 -33 58 -7 89 69 48 120
-27 35 -66 40 -112 17 -20 -10 -41 -19 -47 -19 -21 0 14 82 60 139 27 34 47
61 45 61 -2 0 -34 -11 -70 -25 -68 -25 -150 -33 -161 -15 -3 6 -2 10 3 10 6 0
24 13 41 29 40 38 43 90 6 126 -50 51 -146 13 -115 -46 13 -23 43 -25 60 -4
20 24 40 18 40 -13 0 -37 -17 -52 -58 -52 -116 0 -132 139 -25 212 43 30 146
19 253 -25z m-1857 -229 c83 -25 136 -111 121 -196 -10 -55 -12 -56 -56 -16
-51 46 -95 64 -154 64 l-47 0 19 21 c17 19 27 21 84 16 36 -3 74 -9 85 -13 16
-5 15 -1 -8 22 -25 27 -34 29 -112 33 -47 1 -85 6 -85 10 1 11 24 36 50 54 29
20 49 21 103 5z m-174 -259 c5 -39 -19 -128 -64 -234 -91 -214 -155 -433 -176
-598 -12 -101 -24 -127 -60 -127 -16 0 -19 7 -19 49 0 69 35 265 71 401 58
219 201 548 233 537 6 -2 13 -14 15 -28z m2506 -490 c9 -13 7 -441 -2 -607 -4
-82 -10 -122 -17 -119 -18 5 -397 550 -394 566 2 8 21 24 43 35 23 12 56 33
75 47 52 40 74 49 163 69 97 22 124 24 132 9z m-807 -127 c2 -24 -4 -54 -13
-73 -9 -17 -21 -75 -27 -128 -5 -53 -13 -109 -17 -126 -7 -29 -8 -28 -19 23
-17 74 -15 179 4 243 34 113 66 141 72 61z m60 -59 c12 -25 8 -64 -11 -105
-11 -23 -19 -74 -22 -149 -4 -63 -9 -125 -11 -139 -5 -23 -6 -24 -16 -5 -18
31 -15 280 4 347 9 31 13 59 10 62 -3 3 4 6 16 6 12 0 25 -8 30 -17z m67 -87
c18 -13 18 -15 -3 -87 -29 -98 -42 -187 -42 -281 0 -73 -10 -99 -24 -62 -11
28 -6 279 6 335 6 30 11 66 11 82 0 30 21 36 52 13z m73 -130 c2 -26 -2 -44
-15 -58 -16 -18 -18 -42 -20 -190 -1 -94 -4 -173 -7 -176 -10 -9 -26 48 -37
137 -13 100 -2 219 27 290 21 54 48 53 52 -3z m-350 -28 c7 -7 12 -22 12 -35
0 -24 -12 -29 -150 -58 -183 -39 -332 -56 -525 -62 l-200 -6 18 21 c35 39 106
60 242 71 132 11 322 39 450 65 89 18 138 19 153 4z m-1748 -68 c15 -28 -29
-125 -61 -133 -47 -13 -109 18 -109 54 0 16 49 61 95 87 31 17 63 14 75 -8z
m2235 -70 c3 -10 -4 -53 -16 -96 -15 -54 -22 -110 -23 -176 -1 -53 -4 -94 -8
-90 -4 4 -14 34 -22 67 -36 137 -1 366 50 324 7 -6 16 -19 19 -29z m-1944 9
c18 -18 20 -29 15 -65 -7 -51 -31 -94 -55 -95 -37 -2 -77 4 -88 13 -29 24 -2
119 45 156 24 18 59 15 83 -9z m1308 -35 c29 -37 30 -129 2 -144 -23 -12 -81
-13 -97 -2 -35 23 -47 127 -18 156 9 9 32 16 54 16 30 0 43 -6 59 -26z m-995
-10 c32 -12 12 -145 -25 -164 -24 -13 -84 -3 -100 16 -15 18 -5 99 16 131 12
17 25 23 54 23 22 0 46 -3 55 -6z m650 -20 c19 -19 22 -134 4 -152 -7 -7 -33
-12 -60 -12 -53 0 -65 12 -68 70 -4 74 -1 90 23 100 35 14 84 11 101 -6z
m-340 -16 c10 -14 16 -44 16 -80 0 -47 -4 -59 -22 -72 -28 -20 -58 -20 -83 -2
-27 20 -34 135 -10 159 24 25 80 22 99 -5z m-1154 -12 c0 -21 8 -27 53 -40 28
-8 61 -22 72 -30 20 -15 20 -15 -2 -16 -12 0 -28 -3 -37 -6 -13 -5 -12 -9 7
-26 l22 -19 -44 5 c-44 4 -92 35 -61 37 8 1 23 1 33 0 26 -3 21 15 -12 38 -16
12 -31 21 -34 21 -3 0 -18 -20 -34 -45 -34 -55 -66 -67 -96 -36 l-21 21 44 45
c24 25 50 45 57 45 8 0 16 7 19 15 10 24 34 18 34 -9z m-541 -71 c28 -16 51
-34 51 -41 0 -17 -65 -69 -116 -94 -59 -27 -148 -40 -214 -29 -61 10 -110 27
-110 39 0 13 98 56 160 71 31 7 47 15 37 17 -11 2 -61 -6 -113 -18 -97 -23
-116 -22 -94 5 69 83 288 110 399 50z m845 14 c31 -25 32 -42 6 -113 -28 -75
-40 -83 -98 -67 -73 19 -79 29 -56 97 34 100 88 130 148 83z m1729 -18 c19 -8
28 -23 42 -74 27 -99 16 -121 -70 -143 -35 -9 -59 23 -75 94 -11 55 -11 64 4
87 15 23 45 42 68 44 4 1 18 -3 31 -8z m564 -22 c12 -12 6 -329 -7 -343 -26
-27 -52 251 -31 317 13 39 20 44 38 26z m-1952 -39 c17 -19 18 -27 8 -73 -22
-101 -26 -107 -82 -107 -27 0 -56 3 -65 6 -31 12 -13 137 25 175 26 26 90 26
114 -1z m1053 -23 c7 -7 16 -36 22 -64 9 -43 9 -57 -4 -82 -27 -52 -84 -67
-125 -33 -31 24 -42 149 -17 175 21 21 108 23 124 4z m-718 -17 c12 -7 14 -26
12 -81 -4 -98 -11 -109 -72 -109 -70 0 -84 17 -76 94 9 83 26 106 79 106 23 0
49 -5 57 -10z m355 -10 c19 -16 21 -160 3 -178 -7 -7 -34 -12 -62 -12 -71 0
-86 17 -86 99 0 71 4 81 35 100 23 13 89 8 110 -9z m-1295 -29 c44 -32 35
-112 -16 -146 -45 -29 -144 10 -144 56 0 29 26 74 57 99 30 24 61 21 103 -9z
m2248 -47 c29 -20 52 -66 52 -104 0 -63 -118 -96 -159 -44 -24 30 -36 83 -26
113 14 44 91 65 133 35z m-1900 -45 c37 -13 46 -34 36 -86 -11 -66 -28 -83
-83 -83 -32 0 -56 6 -71 18 -19 16 -21 24 -15 60 8 51 48 102 79 102 13 0 37
-5 54 -11z m-544 -49 c181 -66 475 -155 594 -180 54 -10 180 -29 282 -41 241
-29 649 -31 872 -6 296 35 555 85 711 139 97 33 153 34 188 2 19 -17 19 -18 2
-35 -37 -36 -432 -141 -687 -184 -216 -35 -331 -45 -581 -51 -193 -4 -222 -7
-238 -23 -10 -9 -86 -190 -169 -402 -83 -211 -155 -390 -161 -397 -17 -22 -37
13 -27 46 4 15 69 185 144 379 75 193 136 360 136 371 0 33 -24 42 -145 53
-109 10 -119 10 -136 -8 -10 -10 -84 -189 -164 -398 -107 -279 -153 -386 -172
-403 -36 -33 -51 -15 -31 35 122 303 298 759 298 773 0 10 -4 21 -8 24 -4 2
-89 23 -188 45 -213 49 -322 79 -464 131 -58 21 -116 41 -130 44 -15 4 -36 23
-52 48 -15 24 -35 53 -44 66 -16 21 -16 22 9 22 14 0 86 -22 161 -50z m2100
-12 c7 -18 16 -50 19 -71 8 -52 -14 -72 -88 -82 -74 -9 -85 2 -92 88 -5 64 -5
65 23 81 16 8 51 15 77 16 45 0 49 -2 61 -32z m-1168 -19 c22 -18 15 -122 -9
-146 -22 -22 -90 -20 -124 3 -23 14 -25 21 -20 67 6 68 42 102 99 94 21 -3 46
-11 54 -18z m764 -17 c33 -26 40 -112 13 -139 -25 -25 -82 -37 -117 -23 -31
12 -46 45 -46 105 0 34 5 47 22 59 31 22 100 20 128 -2z m-382 -20 c15 -20 16
-124 0 -140 -14 -14 -116 -16 -138 -2 -19 12 -20 121 -1 143 24 30 115 29 139
-1z m-2617 -3 c46 -16 69 -38 69 -66 l0 -24 26 20 c36 28 55 26 87 -7 30 -31
33 -50 14 -76 -13 -18 -17 -18 -98 9 -109 36 -172 63 -181 78 -12 18 -9 52 4
65 15 15 36 15 79 1z m-8 -141 c28 -9 43 -20 50 -39 9 -24 13 -25 38 -16 20 8
42 7 80 -1 60 -14 79 -27 79 -53 0 -27 -19 -33 -40 -14 -16 15 -24 16 -48 6
-23 -10 -44 -8 -112 9 -50 11 -99 17 -117 14 -33 -6 -33 -6 -33 32 0 39 22 74
48 74 8 0 33 -5 55 -12z m687 -327 c82 -102 155 -193 163 -201 7 -9 23 -32 35
-52 13 -20 39 -51 58 -68 33 -29 73 -99 74 -129 0 -7 -64 -77 -143 -155 -157
-154 -284 -306 -293 -348 -4 -16 -13 -28 -20 -28 -7 0 -18 -9 -24 -19 -14 -27
10 -42 24 -16 6 10 26 36 45 57 56 64 108 63 141 -2 36 -71 18 -135 -47 -165
-21 -9 -45 -26 -54 -37 -8 -11 -27 -21 -42 -21 -15 -1 -29 -8 -32 -14 -2 -7
-11 -13 -19 -13 -9 0 -30 -9 -48 -20 -65 -40 -77 -14 -28 63 17 26 30 53 30
60 0 7 7 21 15 31 19 25 19 36 1 36 -8 0 -41 -49 -74 -108 -179 -320 -262
-611 -287 -1004 -4 -60 -11 -108 -16 -108 -17 0 -89 80 -95 106 -8 33 20 252
53 409 72 348 235 688 464 972 34 43 127 142 206 220 l144 142 -15 28 c-20 37
-324 427 -336 431 -6 2 -10 -16 -10 -41 0 -33 -14 -74 -56 -161 -30 -64 -61
-119 -69 -122 -21 -8 -55 14 -55 36 0 10 14 56 30 102 41 113 90 185 138 204
1 1 0 9 -4 18 -12 30 -49 16 -139 -55 -173 -137 -565 -439 -585 -451 -16 -10
-23 -10 -36 4 -11 10 -13 21 -8 31 16 28 737 585 751 580 7 -3 80 -89 163
-192z m-377 148 c47 -26 -7 -89 -76 -89 -83 0 -171 71 -126 101 16 11 176 1
202 -12z m3102 -19 c18 -20 17 -22 -94 -133 -100 -100 -215 -245 -240 -303 -5
-11 -21 -38 -36 -59 -68 -101 -158 -331 -194 -496 -60 -282 -48 -589 34 -874
26 -89 141 -336 210 -451 38 -63 43 -84 20 -84 -28 0 -61 22 -88 61 -72 103
-142 227 -148 264 -4 22 -26 92 -48 155 -76 220 -108 472 -91 717 10 143 11
149 54 300 54 190 123 348 221 506 25 39 45 75 45 79 0 4 20 27 44 51 24 24
59 66 77 94 35 51 185 193 205 193 6 0 19 -9 29 -20z m145 -136 c62 -72 62
-78 -7 -142 -58 -54 -101 -108 -92 -117 3 -2 42 30 87 72 80 73 112 86 112 48
0 -9 -41 -62 -91 -118 -200 -224 -324 -464 -376 -725 -25 -129 -23 -346 6
-482 28 -134 68 -252 126 -376 42 -91 58 -164 35 -164 -14 0 -69 76 -90 125
-20 46 -45 71 -55 55 -16 -26 -187 4 -199 36 -3 8 1 29 10 45 21 41 83 109
100 109 16 0 35 -34 59 -110 31 -95 28 -37 -4 67 -53 174 -65 253 -66 438 0
94 4 203 8 243 l8 72 -26 -12 c-26 -11 -30 -9 -77 40 -65 68 -64 97 4 130 55
28 128 41 128 23 0 -27 19 -7 34 35 16 48 14 64 -9 64 -29 0 -114 137 -99 161
6 11 94 35 157 44 43 6 49 4 54 -14 7 -28 14 -26 40 12 36 52 38 65 11 69 -41
6 -101 163 -69 182 6 4 55 13 108 20 113 14 116 17 97 115 -8 36 -13 81 -14
99 l0 33 29 -20 c16 -11 43 -37 61 -57z m-122 -29 c18 -86 13 -91 -99 -101
-66 -7 -69 -6 -69 15 0 29 108 141 136 141 18 0 23 -9 32 -55z m-2735 -177
c17 -23 19 -33 11 -55 -14 -39 -57 -58 -95 -43 -51 22 -64 70 -28 109 29 31
85 26 112 -11z m2524 -40 c30 -61 38 -118 21 -141 -26 -35 -188 -53 -188 -22
0 20 27 73 50 100 9 11 29 42 44 68 15 27 33 47 39 45 7 -2 22 -25 34 -50z
m569 -35 c31 -37 67 -75 80 -85 12 -10 32 -33 43 -52 29 -46 29 -157 1 -203
-11 -18 -23 -33 -27 -33 -22 0 -71 50 -92 93 -13 27 -31 57 -40 66 -22 22 -91
175 -91 202 0 26 37 79 55 79 8 0 39 -30 71 -67z m-3606 14 c8 -7 28 -29 43
-50 l28 -38 28 30 c58 62 116 50 149 -30 16 -38 28 -51 58 -64 46 -19 54 -30
54 -72 0 -37 -26 -69 -65 -79 -14 -3 -25 -9 -25 -12 0 -3 20 -24 45 -46 59
-54 67 -87 27 -123 -16 -16 -41 -36 -56 -46 -15 -10 -34 -36 -42 -57 -18 -45
-38 -54 -96 -45 -40 7 -41 7 -34 -19 14 -56 -110 -246 -217 -334 -60 -49 -158
-102 -236 -127 -52 -17 -55 -17 -68 1 -28 39 -8 66 70 93 125 43 222 132 334
304 45 69 69 97 83 97 25 0 25 16 0 58 -23 38 -35 40 -51 10 -23 -44 -52 -68
-83 -68 -43 0 -54 10 -75 66 -15 40 -26 53 -61 70 -23 12 -47 29 -52 38 -15
27 0 66 40 103 l36 33 -20 21 c-11 11 -30 21 -42 22 -17 1 -23 10 -28 46 -10
64 4 92 55 117 24 12 63 42 86 67 45 49 83 60 115 34z m679 -111 c18 -21 5
-40 -52 -74 -60 -36 -174 -68 -211 -58 -29 7 -36 45 -12 65 14 12 220 79 247
80 9 1 22 -5 28 -13z m2808 -53 c35 -38 63 -73 63 -79 0 -16 50 -104 59 -104
9 0 31 -45 31 -64 0 -23 -48 -66 -74 -66 -15 0 -56 21 -96 50 -39 28 -72 50
-75 50 -2 0 -27 22 -55 49 -44 43 -50 53 -50 89 0 52 11 80 45 115 47 47 79
38 152 -40z m-2578 -105 c17 -24 40 -55 51 -71 32 -40 127 -265 166 -390 63
-202 77 -298 80 -537 1 -168 -1 -221 -12 -242 -8 -15 -14 -46 -14 -70 -1 -62
-52 -253 -87 -323 -17 -33 -41 -88 -53 -122 -12 -35 -27 -63 -31 -63 -5 0 -9
-9 -9 -20 0 -11 -4 -20 -10 -20 -5 0 -19 -19 -31 -42 -61 -122 -320 -426 -398
-467 -19 -11 -26 -10 -42 5 -11 10 -18 21 -17 25 2 5 45 51 96 103 50 52 92
99 92 105 0 5 12 16 27 23 15 7 32 25 36 39 8 21 5 30 -21 55 -28 29 -42 63
-58 142 -8 37 4 44 110 63 52 10 68 10 81 -1 22 -18 19 -32 -15 -75 -16 -21
-30 -45 -30 -55 0 -9 -11 -22 -25 -28 -17 -8 -25 -20 -25 -37 0 -34 17 -31 38
6 9 17 27 44 40 59 12 15 22 35 22 44 0 9 5 16 10 16 6 0 10 7 10 15 0 8 5 15
10 15 16 0 96 178 141 311 116 345 125 677 27 1014 -30 105 -94 265 -126 316
-16 24 -32 56 -35 71 -4 15 -18 40 -32 56 -36 43 -51 88 -35 107 20 25 38 17
69 -27z m2932 4 c21 -21 41 -51 45 -67 9 -35 -17 -246 -52 -416 -68 -339 -247
-717 -474 -1004 -35 -44 -119 -134 -187 -201 -80 -78 -123 -128 -123 -141 0
-12 72 -114 166 -235 184 -235 212 -268 230 -268 7 0 165 122 350 270 186 149
342 269 348 267 5 -2 14 -11 20 -20 13 -20 -9 -45 -116 -129 -43 -34 -78 -68
-78 -75 0 -7 -7 -13 -16 -13 -18 0 -164 -106 -164 -119 0 -5 -39 -36 -87 -69
-49 -33 -126 -92 -173 -131 -47 -39 -91 -71 -98 -71 -17 0 -11 -7 -242 285
-105 132 -206 260 -225 284 -40 50 -48 108 -17 117 42 13 67 31 70 52 2 14 14
27 30 33 38 14 210 194 252 263 19 32 47 72 63 88 15 17 27 36 27 43 0 6 11
22 24 34 27 25 52 78 42 88 -7 7 -75 -67 -76 -83 0 -6 -9 -19 -20 -29 -11 -10
-20 -24 -20 -31 0 -18 -40 -44 -68 -44 -35 0 -92 61 -92 97 0 28 54 123 69
123 4 0 21 13 37 30 16 16 35 30 42 30 7 0 42 14 79 30 95 43 109 40 77 -21
-8 -17 -14 -42 -12 -57 3 -25 5 -24 39 28 40 62 134 283 173 408 54 174 96
437 96 607 0 56 4 85 11 85 6 0 29 -17 50 -38z m-968 -24 c69 -86 71 -111 7
-147 -60 -33 -150 -62 -150 -48 1 56 74 237 96 237 7 0 28 -19 47 -42z m-1733
-1 c58 -14 137 -30 175 -37 39 -6 108 -17 155 -25 206 -35 355 -45 723 -51
l378 -6 -3 -37 -3 -36 -60 -8 c-107 -14 -503 -10 -700 7 -273 24 -434 49 -650
102 -147 36 -159 41 -178 73 -36 61 -21 63 163 18z m2202 -77 c50 -22 188
-145 188 -167 0 -9 -9 -25 -20 -37 -10 -11 -28 -32 -38 -45 l-19 -25 -74 18
c-183 43 -254 119 -204 216 32 62 88 75 167 40z m-2526 -45 c18 -14 18 -16
-21 -91 -51 -98 -68 -110 -101 -69 -36 44 -30 15 20 -111 103 -256 151 -517
125 -679 -7 -44 -13 -104 -14 -132 -1 -29 -4 -56 -8 -59 -4 -4 -7 -17 -6 -28
0 -17 2 -16 11 7 5 15 16 27 23 27 35 0 131 -114 120 -142 -8 -19 -116 -68
-150 -68 -18 0 -26 7 -31 25 -12 49 -26 30 -39 -51 -5 -31 -2 -44 11 -55 9 -8
35 -38 56 -66 21 -29 43 -53 48 -53 17 0 10 34 -15 75 -14 22 -25 47 -25 56 0
14 47 38 188 96 7 3 12 -3 12 -17 0 -35 -49 -172 -76 -213 -25 -38 -26 -38
-46 -21 -19 18 -20 18 -34 -1 -27 -39 -34 -43 -101 -55 -91 -16 -107 -12 -113
28 l-5 32 -22 -33 c-12 -17 -29 -49 -38 -70 -16 -38 -15 -38 4 -32 16 5 24 -2
40 -34 29 -56 44 -130 31 -146 -6 -8 -45 -17 -88 -21 -108 -9 -122 -16 -122
-57 0 -18 5 -60 11 -92 9 -47 8 -60 -4 -72 -12 -12 -21 -7 -68 42 -67 71 -74
82 -58 101 7 8 8 14 3 13 -21 -4 -35 2 -55 22 l-21 21 90 86 c157 152 270 331
345 547 59 170 72 248 72 445 0 250 -34 395 -146 629 -32 68 -59 125 -59 127
0 2 14 7 32 12 25 6 34 15 39 38 3 17 9 36 13 42 11 18 148 16 172 -3z m103
-67 c5 -18 21 -60 35 -93 35 -83 34 -87 -16 -79 -44 7 -148 42 -148 50 0 18
64 126 82 138 31 22 36 20 47 -16z m1876 -158 c30 -36 55 -68 55 -73 0 -8
-113 -93 -152 -113 l-28 -15 0 74 c0 63 20 172 36 198 9 15 30 -3 89 -71z
m551 -12 c75 -28 90 -37 92 -57 2 -13 -1 -33 -7 -45 -5 -12 -11 -32 -13 -46
l-3 -25 -135 0 c-158 0 -182 9 -200 75 -11 42 1 80 39 124 23 26 115 16 227
-26z m-3611 -23 c50 -50 17 -135 -52 -135 -30 0 -83 51 -83 80 0 30 53 80 85
80 14 0 37 -11 50 -25z m1120 4 c21 -6 54 -26 72 -44 20 -20 40 -31 51 -29 34
9 53 -19 73 -111 29 -130 24 -135 -89 -80 -79 38 -87 53 -52 98 11 14 20 30
20 36 0 5 8 14 18 20 13 7 14 13 5 22 -14 14 -36 2 -29 -17 3 -8 -1 -14 -9
-14 -8 0 -26 -16 -41 -35 -48 -63 -73 -44 -112 87 -11 37 -17 69 -14 72 9 10
64 7 107 -5z m500 -23 c270 -51 400 -61 803 -60 l374 1 -6 -31 c-13 -63 -2
-61 -389 -61 -363 1 -502 10 -726 46 -147 25 -230 48 -244 70 -5 9 -7 28 -3
44 6 23 11 26 34 21 15 -3 86 -17 157 -30z m1545 -189 c-8 -65 -17 -100 -26
-104 -15 -6 -93 41 -137 83 -28 26 -28 27 -10 45 10 10 52 40 93 67 72 48 75
49 83 28 5 -12 4 -62 -3 -119z m1130 43 c12 -12 20 -33 20 -55 0 -46 -29 -75
-75 -75 -43 0 -85 37 -85 75 0 63 95 100 140 55z m-660 -34 c35 -13 35 -14 36
-74 l1 -61 -46 -19 c-71 -31 -121 -42 -184 -42 -71 0 -92 10 -106 51 -25 71 0
130 62 148 47 13 196 11 237 -3z m-2733 -38 c34 -32 43 -68 27 -114 -23 -68
-80 -99 -232 -127 l-74 -14 -25 40 c-14 22 -27 56 -30 76 -4 30 -1 38 19 47
13 7 59 31 103 55 137 73 166 79 212 37z m2115 -60 c37 -29 68 -58 68 -66 0
-17 -75 -106 -108 -128 -31 -21 -37 -12 -52 78 -13 73 -5 168 13 168 5 0 41
-23 79 -52z m-1799 0 c37 -17 67 -37 67 -44 0 -18 -97 -122 -122 -130 -32 -10
-46 14 -58 104 -6 46 -14 90 -17 99 -8 22 42 10 130 -29z m136 -115 c12 -43
15 -233 4 -233 -20 1 -163 107 -163 120 0 5 14 20 30 33 17 14 30 30 30 36 0
12 69 81 81 81 4 0 13 -17 18 -37z m1820 -50 c6 -49 14 -103 18 -122 l6 -34
-43 6 c-59 8 -134 48 -138 74 -2 15 17 43 64 92 36 39 70 71 74 71 4 0 12 -39
19 -87z m508 60 c3 -10 14 -37 25 -60 25 -55 17 -77 -40 -109 -26 -15 -59 -35
-73 -45 -29 -20 -138 -59 -165 -59 -9 0 -29 14 -45 31 -23 25 -29 40 -29 76 0
88 43 124 194 163 92 24 125 25 133 3z m763 -48 c0 -31 -4 -37 -37 -52 -118
-51 -166 -78 -212 -119 -59 -53 -126 -140 -182 -235 -21 -37 -48 -71 -59 -74
-26 -8 -26 -36 0 -66 l20 -24 20 25 c47 58 63 70 90 70 36 0 57 -21 70 -70 8
-31 19 -44 49 -60 85 -43 92 -79 29 -139 -34 -34 -39 -43 -29 -55 7 -8 21 -18
32 -21 24 -8 49 -55 49 -92 0 -38 -22 -67 -62 -83 -18 -7 -54 -35 -79 -61 -65
-69 -93 -66 -153 14 l-28 37 -40 -36 c-31 -27 -46 -34 -71 -32 -27 3 -36 11
-61 56 -20 38 -42 62 -72 80 -25 15 -47 37 -50 50 -8 28 17 67 56 87 17 9 30
19 30 24 0 4 -18 22 -39 39 -68 55 -67 103 4 152 30 20 51 46 65 77 l20 46 58
-6 57 -6 -3 47 c-3 43 2 55 56 137 116 175 314 323 435 324 36 1 37 0 37 -34z
m-3531 -50 c33 -16 64 -75 55 -102 -12 -33 -57 -73 -94 -83 -39 -10 -153 -12
-217 -4 l-43 6 0 73 0 72 43 13 c140 44 208 51 256 25z m327 -119 c41 -30 64
-54 62 -64 -4 -19 -151 -122 -175 -122 -14 0 -15 12 -9 101 8 134 13 150 38
140 10 -4 48 -29 84 -55z m-1146 34 c43 -23 40 -116 -5 -134 -85 -32 -163 59
-105 122 22 24 77 30 110 12z m2979 -45 c40 -19 71 -40 69 -45 -9 -28 -114
-158 -121 -151 -19 19 -57 144 -57 186 0 56 10 57 109 10z m-2227 -102 c80
-12 114 -77 79 -149 -29 -62 -90 -82 -149 -50 -15 8 -56 21 -91 28 -36 7 -74
20 -85 29 -18 15 -18 20 -8 74 18 87 21 89 127 81 49 -4 107 -9 127 -13z m506
-38 c5 -38 -26 -189 -43 -212 -12 -16 -18 -13 -69 38 -80 80 -74 107 39 183
49 32 69 30 73 -9z m3039 13 c28 -26 31 -82 6 -110 -23 -25 -87 -24 -113 2
-43 43 -8 130 53 130 18 0 40 -9 54 -22z m-2257 -8 c102 -6 238 -18 302 -25
64 -8 144 -15 179 -15 61 0 62 0 44 20 -18 20 -17 20 13 20 44 0 131 -20 138
-32 4 -6 -9 -9 -32 -8 -22 1 -52 1 -69 0 l-30 -2 30 -13 c17 -8 45 -14 63 -15
63 0 122 -48 122 -97 0 -28 -6 -28 -112 -3 -228 54 -641 85 -1014 77 -194 -5
-263 -4 -272 5 -20 20 -14 56 11 70 49 27 328 35 627 18z m995 -150 c65 -22
95 -44 95 -70 0 -18 -52 -104 -70 -115 -18 -11 -44 23 -74 98 -26 68 -33 107
-18 107 5 0 35 -9 67 -20z m-2384 -46 c69 -32 84 -44 96 -73 20 -47 9 -116
-24 -149 -22 -22 -30 -24 -81 -18 -31 4 -63 13 -72 21 -9 8 -22 15 -28 15 -18
0 -14 -20 5 -27 44 -17 99 -109 89 -147 -3 -12 -23 -41 -44 -65 -37 -42 -40
-43 -81 -36 -31 5 -45 13 -53 31 -6 13 -15 24 -19 24 -13 0 -89 121 -89 142 0
10 -11 31 -25 46 -36 38 -41 66 -18 104 20 34 37 38 81 24 25 -8 25 -3 5 50
-2 6 7 25 21 42 15 16 26 38 26 47 0 32 114 15 211 -31z m2613 -57 c51 -81 53
-92 29 -119 -22 -24 -143 -26 -167 -2 -23 22 -20 41 16 98 17 28 37 61 45 74
7 12 18 22 23 22 5 0 29 -33 54 -73z m-962 -91 c188 -21 309 -41 468 -78 74
-17 150 -32 168 -32 30 -1 32 -3 32 -38 0 -47 -6 -47 -150 -12 -58 14 -141 30
-185 35 -44 5 -118 19 -165 30 -120 29 -382 43 -797 42 -328 -1 -353 1 -353
17 0 31 33 49 100 53 147 10 748 -2 882 -17z m-2017 -101 c76 -118 132 -233
139 -283 6 -45 4 -53 -19 -79 l-25 -28 -26 30 c-14 17 -62 70 -106 118 l-80
88 4 90 c2 76 6 93 22 105 35 25 55 16 91 -41z m1745 -10 c0 -28 -82 -242
-180 -465 -59 -136 -120 -308 -120 -339 0 -4 63 -13 141 -21 134 -12 141 -12
159 6 18 19 124 283 247 614 64 173 83 210 110 210 21 0 15 -42 -16 -122 -64
-161 -261 -679 -266 -700 -3 -13 -2 -29 3 -35 4 -7 89 -31 188 -53 209 -47
321 -78 457 -125 53 -19 111 -36 127 -37 33 -2 51 -19 93 -85 l27 -43 -24 0
c-14 0 -98 24 -188 54 -328 110 -568 169 -823 203 -181 24 -666 24 -890 0
-298 -32 -623 -97 -740 -147 -56 -24 -122 -26 -153 -4 -46 32 -26 47 123 94
385 123 709 176 1134 189 l224 6 44 105 c24 58 95 240 159 405 64 165 120 305
126 312 14 18 38 4 38 -22z m1508 -118 c4 -32 -2 -35 -159 -88 -82 -28 -99
-31 -113 -20 -9 7 -16 20 -16 27 0 35 181 116 250 111 30 -2 35 -6 38 -30z
m-3 -192 c47 -46 21 -105 -46 -105 -70 0 -102 59 -57 107 29 31 72 30 103 -2z
m792 -367 c-4 -211 -13 -781 -21 -1268 -22 -1292 -26 -1467 -41 -1487 -11 -15
-56 -16 -671 -4 -1232 22 -1294 24 -1310 35 -13 10 -2 30 71 131 316 438 498
864 574 1345 21 130 41 359 41 470 0 83 20 122 90 178 30 24 82 66 115 93 33
27 88 71 123 97 35 26 75 56 89 67 20 16 27 17 31 6 2 -7 38 -57 78 -111 41
-53 74 -99 74 -101 0 -3 -34 -3 -75 -1 -42 3 -97 -1 -123 -7 -52 -13 -282
-120 -282 -132 0 -20 55 -69 101 -88 156 -68 309 -42 469 78 79 59 123 52 63
-11 -17 -17 -29 -44 -32 -70 -6 -40 -7 -42 -56 -54 -66 -17 -95 -51 -95 -109
0 -77 40 -145 86 -145 39 0 54 -11 80 -61 27 -54 64 -79 118 -79 70 0 98 26
114 105 7 35 14 43 54 62 58 27 78 56 78 109 0 53 -33 96 -88 112 -39 12 -62
42 -62 82 0 15 7 20 25 20 44 0 89 -25 126 -71 46 -56 121 -96 158 -83 34 12
37 35 12 87 -12 24 -21 53 -21 64 0 11 -13 37 -30 58 -16 21 -30 45 -30 53 0
13 24 72 52 126 5 10 16 77 24 150 7 72 17 143 20 157 3 15 1 30 -5 33 -6 4
-11 16 -11 26 0 12 -16 30 -40 45 -21 13 -44 33 -50 44 -5 11 -10 83 -10 163
l0 144 87 62 c47 34 91 62 96 62 7 0 8 -134 4 -382z m-592 339 c13 -21 13 -29
-1 -78 -19 -65 -90 -213 -110 -230 -12 -10 -19 -7 -39 11 -14 13 -25 30 -25
38 0 16 92 223 116 260 19 28 40 28 59 -1z m-2888 -134 c4 -9 1 -19 -5 -21 -7
-2 -12 -9 -12 -15 0 -15 -41 -57 -56 -57 -7 0 -14 10 -16 22 -4 28 -33 35 -42
11 -5 -12 0 -23 13 -34 20 -16 20 -16 -3 -38 -30 -29 -42 -27 -55 10 -16 45
-14 94 4 109 37 31 162 40 172 13z m3118 -208 c53 -21 60 -27 60 -52 l0 -28
-100 4 c-55 2 -106 8 -112 13 -19 15 -16 39 9 65 28 30 67 30 143 -2z m-181
-98 c9 -33 7 -40 -17 -65 -15 -16 -25 -31 -21 -35 3 -3 5 -54 5 -113 l-1 -108
77 -76 c65 -64 87 -79 129 -90 61 -16 87 -46 58 -67 -63 -46 -141 -33 -264 42
-139 86 -253 196 -291 279 -11 24 -9 30 22 62 48 51 269 216 283 211 6 -2 15
-20 20 -40z m138 -24 c16 -14 23 -15 38 -5 16 9 38 9 107 -3 49 -8 104 -16
123 -17 29 -3 35 -7 38 -29 3 -28 -31 -79 -54 -79 -8 0 -40 14 -71 30 -31 17
-70 30 -87 30 -40 0 -92 15 -122 35 -20 13 -22 19 -14 35 13 24 18 25 42 3z
m0 -88 c94 -20 248 -73 271 -93 21 -19 22 -55 2 -75 -12 -13 -22 -13 -62 -3
-27 7 -66 23 -88 35 -22 11 -56 21 -76 21 -38 0 -49 14 -49 68 l0 23 -29 -22
c-29 -21 -31 -21 -55 -5 -28 18 -33 35 -14 54 15 15 12 15 100 -3z m-2669 -74
c6 -6 13 -40 15 -75 4 -60 3 -65 -22 -81 -34 -22 -114 -16 -133 11 -17 23 -17
128 0 142 28 23 118 25 140 3z m395 7 c7 -7 12 -38 12 -69 0 -74 -14 -89 -83
-89 -75 0 -82 8 -82 85 0 48 4 68 15 75 22 14 124 12 138 -2z m373 -18 c15 -9
19 -22 19 -64 0 -74 -26 -106 -84 -106 -65 0 -81 17 -80 86 0 47 4 60 23 75
26 21 90 25 122 9z m1843 -25 c11 -8 30 -15 42 -15 13 0 43 -11 67 -24 25 -13
58 -26 73 -30 76 -18 132 -48 144 -77 10 -23 10 -32 0 -44 -18 -21 -76 -19
-126 6 -46 22 -60 45 -49 86 l6 26 -36 -31 c-20 -18 -40 -32 -45 -32 -6 0 -24
19 -40 42 -22 30 -38 42 -57 43 -29 0 -49 24 -40 49 8 20 36 20 61 1z m-2991
-37 c22 -46 16 -86 -20 -128 -24 -29 -24 -30 -4 -30 31 0 35 -19 6 -30 -34
-13 -75 -13 -75 0 0 6 8 14 18 18 13 5 9 8 -17 12 -49 7 -73 45 -75 116 l-1
58 40 12 c22 7 56 12 75 11 30 -2 38 -8 53 -39z m1525 -10 c16 -14 15 -71 -2
-113 -21 -48 -52 -61 -108 -44 l-43 14 0 57 c0 46 5 62 25 83 21 23 29 25 70
19 25 -4 51 -11 58 -16z m-1912 -65 c12 -18 25 -49 29 -70 6 -34 4 -40 -24
-65 -34 -30 -84 -37 -112 -15 -24 18 -59 79 -59 103 0 23 19 43 65 68 44 23
76 16 101 -21z m958 -34 c19 -9 27 -22 32 -56 7 -48 0 -99 -17 -120 -7 -8 -33
-13 -70 -13 -55 0 -60 2 -69 26 -6 14 -10 46 -10 70 0 79 66 124 134 93z
m1306 -9 c42 -22 50 -43 29 -83 -21 -40 -62 -77 -86 -77 -28 0 -74 22 -92 44
-17 21 -6 69 26 106 30 36 66 39 123 10z m-949 0 c33 -18 23 -169 -14 -192
-17 -11 -75 -10 -98 2 -16 9 -19 22 -19 83 0 93 15 117 71 117 22 0 49 -5 60
-10z m-721 -30 c14 -14 20 -33 20 -62 0 -24 3 -53 6 -65 9 -34 -27 -63 -81
-63 -55 0 -76 27 -83 105 -4 47 -1 57 21 79 33 33 88 35 117 6z m1064 -12 c34
-15 40 -39 26 -101 -18 -78 -33 -97 -78 -97 -52 0 -82 23 -82 63 0 44 19 108
38 130 17 20 60 22 96 5z m-1435 -51 c6 -8 18 -46 27 -86 20 -88 12 -101 -65
-109 l-51 -5 -16 39 c-26 61 -30 131 -9 154 21 24 96 28 114 7z m-458 -33 c22
-59 30 -173 19 -252 -14 -93 -23 -112 -49 -105 -29 7 -33 54 -10 140 11 43 21
115 22 160 1 46 3 83 5 83 1 0 7 -12 13 -26z m3312 6 c15 -7 27 -17 27 -21 0
-15 -86 -59 -145 -73 -46 -11 -53 -15 -28 -15 17 -1 69 8 114 19 46 11 85 17
88 15 2 -3 -8 -19 -24 -35 -38 -40 -138 -71 -230 -72 -102 -2 -215 39 -215 77
0 16 126 93 182 111 52 17 190 13 231 -6z m-1063 -15 c11 -10 20 -29 20 -41 0
-34 -51 -133 -72 -140 -31 -9 -78 6 -95 32 -14 21 -14 33 -4 78 18 82 35 99
88 93 24 -2 53 -13 63 -22z m-2109 -91 c38 -86 21 -367 -26 -430 -13 -18 -14
-18 -27 0 -12 15 -11 26 6 75 16 48 19 81 18 229 0 94 2 172 4 172 3 0 14 -21
25 -46z m1220 6 c15 -9 19 -22 19 -65 0 -30 -5 -65 -11 -79 -24 -51 -105 -38
-121 19 -10 40 1 107 20 123 19 15 66 16 93 2z m-327 -22 c19 -27 22 -128 4
-146 -16 -16 -103 -15 -116 1 -15 18 -26 91 -18 122 12 47 103 63 130 23z
m664 -15 c17 -23 8 -99 -17 -133 -22 -31 -80 -39 -105 -15 -28 29 -16 145 17
168 20 13 90 0 105 -20z m986 -27 c8 -43 -10 -330 -29 -460 -60 -397 -210
-797 -426 -1133 -77 -120 -192 -281 -234 -330 -39 -45 -65 -41 -65 10 0 38 22
75 104 171 30 36 62 78 70 94 8 16 22 35 31 42 41 34 168 257 234 412 53 124
117 316 150 448 58 237 72 324 82 540 9 176 14 217 27 228 29 22 49 14 56 -22z
m-3180 7 c9 -24 30 -59 48 -80 9 -10 24 -35 34 -55 11 -20 40 -59 66 -86 25
-27 53 -65 61 -84 8 -19 26 -43 39 -54 14 -11 28 -32 32 -47 4 -16 17 -38 30
-50 13 -12 26 -32 30 -44 4 -11 13 -27 21 -33 8 -7 15 -25 15 -41 0 -24 -11
-36 -77 -79 -74 -49 -140 -74 -270 -104 -54 -12 -64 -12 -74 0 -9 11 -11 100
-5 372 3 196 9 367 12 380 7 26 29 29 38 5z m1166 -3 c38 -20 52 -114 23 -148
-56 -63 -143 -4 -143 97 0 50 68 79 120 51z m1348 -27 c17 -23 16 -30 -16 -93
-22 -45 -33 -56 -56 -58 -50 -6 -76 6 -76 34 0 55 22 115 49 129 31 18 81 12
99 -12z m-1799 -67 c23 -91 10 -269 -26 -358 -12 -31 -18 -36 -29 -27 -19 15
-18 42 5 132 12 47 21 119 23 190 2 63 6 113 9 111 4 -2 12 -24 18 -48z m2086
-2 c8 -4 22 -19 30 -35 15 -27 14 -29 -23 -55 -68 -50 -77 -71 -34 -76 27 -3
27 -3 24 -73 -4 -80 -58 -335 -103 -488 -47 -158 -155 -411 -183 -429 -24 -16
-28 -5 -23 60 4 47 19 101 51 181 92 229 161 474 176 631 5 47 10 94 12 105 2
14 -3 21 -19 23 -37 5 -48 27 -35 70 21 70 74 106 127 86z m-1046 -58 c10 -12
8 -18 -11 -30 -47 -31 -116 -47 -238 -56 -118 -9 -276 -33 -432 -65 -120 -26
-158 -18 -158 32 0 27 13 31 225 72 257 51 590 76 614 47z m-962 -141 c5 -85
-1 -137 -28 -237 -7 -27 -15 -38 -29 -38 -31 0 -32 16 -11 103 11 45 22 111
26 147 3 36 8 88 12 115 5 45 7 48 15 25 5 -14 12 -66 15 -115z m1367 105 c47
-15 70 -27 73 -40 3 -10 11 -21 19 -24 8 -3 14 -11 14 -18 0 -21 55 -132 94
-190 20 -29 36 -65 36 -79 0 -15 11 -51 25 -80 13 -30 31 -86 38 -124 16 -75
22 -254 11 -310 -6 -34 -8 -35 -50 -35 -23 0 -46 -5 -49 -11 -4 -6 -38 -30
-76 -55 -76 -48 -83 -66 -46 -106 36 -39 67 -55 130 -68 48 -10 56 -14 46 -26
-13 -16 -69 -18 -118 -4 -38 11 -53 6 -45 -15 9 -22 81 -38 141 -32 40 4 53 2
57 -10 10 -25 -13 -52 -55 -63 -109 -30 -219 60 -219 177 0 23 25 128 55 234
56 198 63 243 42 269 -16 21 -114 90 -127 90 -23 0 4 -67 31 -75 36 -12 69
-46 69 -73 0 -14 -22 -112 -50 -218 -27 -106 -50 -212 -50 -236 0 -24 11 -65
24 -94 36 -78 102 -116 208 -118 60 -1 63 -2 66 -28 3 -23 -4 -30 -56 -58 -64
-34 -132 -86 -132 -101 0 -17 26 -9 80 26 57 36 90 44 90 23 0 -13 -62 -68
-76 -68 -4 0 -17 -11 -29 -24 -12 -13 -32 -27 -43 -31 -12 -3 -22 -14 -22 -24
0 -10 -15 -26 -34 -36 -19 -11 -37 -28 -40 -39 -7 -25 -44 -71 -52 -63 -8 8
21 70 39 86 10 7 17 19 17 26 0 8 11 27 25 43 25 30 32 52 17 52 -12 0 -101
-110 -122 -150 -24 -47 -57 -80 -73 -74 -6 2 -34 39 -61 81 -101 156 -239 274
-388 333 -40 15 -98 38 -128 49 -83 33 -144 83 -202 167 -29 42 -85 121 -125
176 -80 110 -93 151 -73 224 15 52 29 65 37 35 8 -32 36 -22 47 17 8 29 6 36
-17 60 l-26 26 -24 -22 c-12 -12 -31 -44 -41 -72 -24 -65 -36 -72 -36 -18 0
29 13 74 39 132 49 111 61 124 100 109 16 -6 33 -8 38 -4 5 3 31 46 57 96 106
201 192 269 389 311 78 16 163 51 205 85 25 20 35 21 142 16 78 -3 137 -12
184 -27z m326 -30 c96 -20 193 -57 187 -73 -2 -6 -15 -19 -29 -30 -26 -19 -27
-19 -164 12 -193 43 -214 50 -214 67 0 8 -7 17 -15 20 -12 5 -13 9 -3 21 14
17 100 11 238 -17z m-1621 -205 c2 -109 -40 -243 -72 -232 -16 5 -14 45 10
162 12 55 25 132 29 170 l7 70 13 -50 c7 -27 13 -82 13 -120z m-505 -424 c8
-6 44 -15 81 -20 91 -11 98 -21 90 -132 -8 -100 -8 -101 85 -119 36 -6 71 -17
78 -22 8 -7 12 -44 12 -118 l0 -107 65 -6 c36 -4 74 -11 84 -17 25 -13 35 -58
27 -134 -4 -33 -2 -67 3 -74 4 -8 39 -20 77 -28 88 -18 97 -30 89 -115 -8 -81
1 -93 86 -110 78 -15 91 -28 76 -74 -9 -31 -14 -35 -45 -35 -57 0 -107 36
-164 119 -28 42 -109 155 -180 253 -70 97 -128 182 -128 189 0 7 -11 22 -25
34 -39 32 -425 587 -425 611 0 15 15 31 48 53 l47 30 3 -83 c2 -55 7 -88 16
-95z m-145 60 c11 -11 27 -33 35 -50 15 -28 15 -31 -6 -45 -30 -21 -64 -20
-116 4 l-43 19 22 -31 c22 -30 23 -30 87 -25 72 6 117 -6 132 -33 13 -24 3
-27 -128 -39 -57 -5 -106 -12 -109 -15 -3 -2 -2 -10 2 -17 6 -8 40 -10 132 -4
105 6 128 4 149 -9 41 -27 27 -66 -24 -66 -27 0 -80 -43 -104 -85 -20 -36 -23
-58 -29 -235 -4 -107 -12 -211 -18 -230 -6 -19 -11 -38 -11 -41 0 -3 33 -9 73
-12 44 -3 105 -18 157 -37 239 -88 252 -88 346 1 33 33 64 59 67 59 11 0 8
-64 -4 -101 -7 -19 -30 -63 -53 -98 l-41 -64 -388 6 c-301 4 -391 8 -403 18
-15 12 -16 44 -10 294 14 647 17 695 36 695 9 0 25 -9 36 -21 23 -25 69 -51
77 -42 13 12 -16 44 -74 84 -68 46 -79 63 -55 87 16 17 19 16 88 -13 13 -5 17
0 20 21 3 32 25 41 96 43 29 1 48 -5 61 -18z m213 -351 c49 -14 78 -52 78
-103 0 -48 -22 -77 -60 -77 -30 0 -69 24 -57 36 4 5 20 8 35 9 22 0 28 5 30
27 3 22 -2 30 -24 40 -24 11 -29 10 -50 -15 -29 -34 -30 -66 -4 -100 34 -42
69 -42 153 1 4 2 7 -9 7 -25 0 -26 -23 -68 -76 -140 -20 -28 -13 -28 61 -3 70
24 125 26 125 6 0 -8 -8 -21 -18 -28 -11 -7 -24 -24 -31 -36 -26 -49 18 -122
72 -122 54 0 87 51 51 81 -13 10 -20 10 -45 -5 -31 -18 -49 -14 -49 11 0 54
80 71 124 27 52 -53 24 -157 -54 -197 -46 -24 -89 -18 -220 32 -58 21 -131 44
-162 51 -77 15 -82 23 -69 109 6 38 11 127 11 196 0 153 12 188 74 216 48 22
50 22 98 9z m1155 -449 c90 -43 179 -106 253 -181 61 -62 129 -165 116 -177
-6 -6 -65 38 -65 50 -1 4 -38 45 -83 90 -84 84 -154 128 -278 177 -55 21 -100
55 -100 73 0 17 92 -2 157 -32z m-669 -183 c7 -7 12 -26 12 -44 0 -27 4 -32
29 -37 19 -4 36 -18 51 -42 31 -50 22 -65 -40 -65 -58 0 -68 12 -51 61 17 49
5 47 -26 -5 -25 -42 -31 -46 -65 -46 -21 0 -38 3 -38 7 0 4 19 47 42 95 41 88
59 103 86 76z"/>
<path d="M1705 9029 c-165 -192 -305 -359 -312 -371 -9 -16 -9 -27 -1 -42 16
-31 578 -736 587 -736 13 0 76 71 350 394 183 215 271 327 271 342 0 15 -82
127 -232 316 -127 161 -259 328 -292 370 -34 42 -63 77 -66 77 -3 0 -140 -157
-305 -350z"/>
<path d="M3880 8947 c-52 -27 -70 -51 -53 -68 9 -9 26 -6 74 16 87 39 141 33
286 -34 106 -48 142 -59 155 -45 7 7 -183 106 -257 133 -75 28 -150 27 -205
-2z"/>
<path d="M3989 8826 c-70 -25 -134 -83 -148 -134 -8 -28 -6 -34 16 -52 14 -11
35 -20 45 -20 11 0 31 -9 45 -20 34 -26 81 -34 131 -20 45 12 55 27 22 32 -20
3 -19 5 9 38 28 33 30 34 47 18 17 -17 17 -19 -4 -41 -24 -25 -20 -37 12 -37
20 0 20 0 0 -14 -41 -29 -103 -38 -172 -26 -76 13 -91 7 -36 -16 109 -46 223
-21 309 66 56 57 56 58 -30 86 -55 19 -155 79 -155 94 0 15 23 12 50 -7 32
-23 88 -43 120 -43 19 0 5 13 -60 55 -92 59 -130 67 -201 41z"/>
<path d="M3545 8100 c-97 -17 -100 -19 -82 -37 13 -13 46 -19 140 -24 68 -4
141 -12 163 -19 58 -17 118 -10 122 15 4 37 -13 51 -48 38 -26 -10 -38 -8 -75
8 -52 23 -150 32 -220 19z"/>
<path d="M1602 6199 c-38 -8 -68 -32 -88 -71 -61 -118 100 -235 197 -142 90
86 12 239 -109 213z"/>
<path d="M5198 4580 c-60 -47 -58 -133 3 -184 57 -48 105 -47 164 5 31 28 35
36 35 81 0 45 -4 54 -37 84 -32 29 -44 34 -89 34 -36 0 -59 -6 -76 -20z"/>
<path d="M4874 2675 c-63 -65 -579 -678 -586 -697 -5 -11 -3 -29 5 -42 24 -45
571 -726 582 -726 16 0 44 31 344 388 179 213 271 330 271 345 0 20 -413 561
-544 712 l-43 50 -29 -30z"/>
<path d="M3030 2503 c0 -10 6 -27 13 -37 12 -16 18 -17 48 -6 29 10 41 9 87
-9 106 -42 351 -11 280 36 -7 4 -67 11 -133 15 -66 4 -159 10 -207 14 -83 6
-88 5 -88 -13z"/>
<path d="M2768 2005 c-20 -7 -48 -21 -64 -31 -31 -21 -86 -93 -79 -104 3 -4
26 -13 52 -19 27 -7 72 -28 100 -47 29 -18 58 -34 64 -34 6 0 9 -5 7 -11 -5
-14 -7 -13 -80 21 -35 17 -76 30 -93 30 l-30 0 45 -31 c124 -84 201 -99 287
-58 43 21 80 70 68 89 -3 6 1 10 9 10 14 0 36 28 36 47 0 4 -25 26 -55 48 -30
22 -55 43 -55 47 0 3 10 8 23 11 19 3 15 7 -23 25 -53 25 -153 29 -212 7z"/>
<path d="M2604 1713 c2 -5 65 -39 139 -77 126 -65 140 -70 199 -70 45 1 75 7
105 22 48 25 71 58 54 75 -9 9 -25 4 -64 -18 -42 -23 -63 -29 -114 -28 -53 0
-77 8 -170 52 -97 45 -163 65 -149 44z"/>
<path d="M619 8733 c-24 -32 -84 -105 -134 -163 -114 -131 -129 -154 -121
-182 9 -32 288 -372 308 -376 20 -4 328 351 328 379 0 27 -297 399 -319 399
-11 0 -37 -24 -62 -57z"/>
<path d="M6127 2528 c-195 -223 -257 -302 -257 -325 0 -31 285 -393 309 -393
26 0 321 353 321 384 0 28 -284 396 -306 396 -7 0 -37 -28 -67 -62z"/>
<path d="M5900 1765 c-23 -28 -14 -64 24 -101 40 -39 44 -62 21 -118 -12 -29
-17 -103 -22 -349 -3 -171 -3 -333 1 -358 10 -68 59 -137 115 -162 65 -29 187
-35 246 -13 54 21 117 89 134 146 7 26 14 142 18 308 6 279 11 309 53 332 11
6 24 20 30 31 14 26 0 44 -39 52 -15 3 -53 29 -84 57 -76 70 -134 94 -203 85
-87 -11 -155 9 -213 61 -54 48 -62 51 -81 29z m380 -207 c41 -28 55 -50 47
-72 -7 -19 -61 -22 -104 -5 -28 10 -103 76 -103 91 0 4 29 8 64 8 49 0 70 -5
96 -22z m-121 -153 c19 -10 67 -23 105 -29 l71 -12 0 -265 c0 -243 -2 -266
-19 -292 -52 -76 -197 -85 -267 -15 l-29 30 0 328 c0 254 3 329 13 333 6 2 30
-11 52 -28 22 -18 56 -40 74 -50z"/>
</g>
</svg>
