<svg version="1.0" xmlns="http://www.w3.org/2000/svg"
 width="691.000000pt" height="1056.000000pt" viewBox="0 0 691.000000 1056.000000"
 preserveAspectRatio="xMidYMid meet">
<g transform="translate(0.000000,1056.000000) scale(0.100000,-0.100000)"
fill="#000000" stroke="none">
<path d="M619 9914 c-59 -18 -104 -67 -123 -137 -10 -35 -17 -134 -22 -312 -3
-143 -10 -270 -15 -282 -4 -12 -22 -34 -39 -50 -42 -37 -38 -74 9 -87 18 -5
56 -31 85 -56 83 -76 119 -90 233 -90 107 0 140 -12 195 -71 33 -36 53 -37 74
-4 15 24 15 28 -16 87 l-32 61 11 126 c6 69 12 252 14 406 2 265 1 282 -18
311 -26 40 -74 80 -119 99 -45 19 -175 19 -237 -1z m174 -85 c21 -5 52 -23 70
-39 l32 -29 -2 -268 c-2 -282 -9 -393 -24 -393 -5 0 -30 16 -55 35 -57 44 -98
62 -161 70 -96 13 -87 -17 -79 277 7 286 11 304 68 330 67 31 91 34 151 17z
m-100 -733 c36 -15 87 -60 87 -76 0 -6 -11 -15 -25 -20 -69 -26 -202 50 -166
94 16 20 61 21 104 2z"/>
<path d="M1210 9593 c-9 -339 -100 -4582 -130 -6078 -17 -814 -35 -1649 -41
-1855 -11 -416 -11 -551 1 -563 4 -5 63 -10 131 -11 68 -2 347 -8 619 -14 272
-6 691 -14 931 -17 240 -3 459 -8 485 -10 27 -2 225 -6 439 -9 525 -8 1850
-35 1950 -39 102 -5 117 0 120 44 2 19 6 221 9 449 4 228 15 782 26 1230 34
1421 55 2387 65 2975 3 171 12 609 20 975 39 1752 38 1683 50 2320 3 162 8
343 10 402 3 94 2 109 -13 117 -18 9 -339 21 -592 22 -183 0 -993 15 -1585 29
-231 5 -546 12 -700 15 -154 3 -606 12 -1005 20 -399 8 -740 15 -757 15 -25 0
-33 -5 -33 -17z m985 -48 c424 -8 780 -17 793 -20 30 -7 28 -26 -17 -152 -78
-217 -190 -451 -395 -820 -137 -248 -199 -374 -252 -510 -40 -102 -93 -291
-109 -385 -3 -21 -16 -49 -28 -63 -22 -25 -883 -430 -939 -442 -21 -4 -29 -1
-34 12 -7 18 3 571 31 1764 10 422 18 607 26 617 14 17 -26 17 924 -1z m1481
-48 c18 -9 50 -40 73 -68 74 -94 196 -177 320 -219 48 -16 81 -34 93 -50 12
-17 25 -70 39 -158 33 -214 108 -457 219 -709 l23 -51 -34 -54 c-18 -29 -38
-56 -44 -60 -6 -5 -5 -11 4 -17 9 -6 11 -15 6 -27 -8 -17 -9 -17 -12 4 -6 34
-31 27 -80 -23 -24 -25 -48 -45 -52 -45 -5 0 -53 -27 -107 -60 -87 -53 -104
-60 -150 -60 -45 0 -61 -6 -127 -50 -141 -92 -195 -108 -286 -89 -31 7 -74 11
-97 10 -88 -4 -139 37 -185 148 -17 42 -53 121 -81 176 -27 55 -56 113 -64
128 -8 16 -14 37 -14 47 0 9 -9 38 -20 64 -32 70 -70 459 -48 482 4 4 28 1 53
-6 64 -18 154 -8 210 24 38 21 45 22 41 8 -3 -9 -14 -66 -26 -127 -12 -60 -28
-131 -35 -157 -21 -74 -7 -110 65 -158 49 -32 60 -36 60 -21 0 22 -17 42 -53
65 -52 32 -52 52 -6 240 67 272 59 384 -30 459 -17 14 -56 31 -86 38 -47 10
-64 10 -115 -4 -33 -10 -62 -17 -65 -17 -9 0 -5 81 5 100 6 10 35 34 65 52 30
18 58 41 61 52 7 22 48 66 62 66 4 0 19 14 31 31 37 50 69 58 221 55 101 -2
143 -7 166 -19z m119 -17 c10 -11 24 -20 32 -20 7 0 13 -7 13 -15 0 -8 6 -15
14 -15 7 0 30 -15 50 -34 20 -19 67 -49 104 -66 96 -46 95 -45 100 -60 8 -22
-74 -5 -147 32 -65 32 -211 162 -211 187 0 18 25 13 45 -9z m1469 4 c23 -9 20
-34 -13 -138 -16 -50 -35 -129 -42 -175 -16 -110 -6 -300 21 -411 34 -137 34
-139 16 -146 -12 -5 -36 12 -80 55 -84 80 -102 86 -187 66 -69 -17 -137 -17
-130 0 3 6 24 15 48 21 43 11 86 42 105 77 9 17 89 369 85 373 -1 1 -60 21
-132 44 -216 70 -295 65 -352 -21 -16 -25 -30 -36 -36 -30 -17 17 3 66 49 122
29 35 50 74 61 112 l16 57 278 0 c152 0 284 -3 293 -6z m454 -11 c103 -6 114
-8 121 -27 14 -39 -36 -2375 -51 -2391 -14 -15 -28 15 -26 58 1 21 -4 43 -10
49 -7 7 -12 20 -12 29 0 13 -16 22 -60 35 -74 20 -100 49 -100 108 0 49 4 56
50 83 53 33 107 93 132 148 29 65 32 185 6 212 -17 16 -19 16 -47 -5 -17 -12
-35 -22 -41 -22 -12 0 -80 -65 -80 -77 0 -3 -11 -20 -24 -38 -14 -17 -28 -48
-31 -69 -12 -62 -36 -43 -62 49 -35 121 -20 155 67 155 23 0 50 5 62 11 37 20
76 64 83 94 12 56 26 82 56 104 39 29 37 56 -5 83 l-35 23 6 75 c5 67 3 78
-16 102 -13 16 -40 32 -64 39 -73 19 -86 27 -101 64 -19 44 -49 47 -70 7 -25
-48 -41 -55 -117 -53 -64 2 -72 0 -98 -26 -20 -20 -30 -43 -34 -78 -8 -61 -26
-88 -67 -105 -33 -14 -39 -40 -13 -61 25 -21 43 -73 43 -123 0 -37 6 -51 37
-85 31 -35 42 -41 78 -41 64 0 74 -13 92 -123 8 -54 12 -101 9 -104 -3 -4 -30
6 -58 20 -89 44 -152 53 -230 31 -22 -7 -23 -42 -2 -72 9 -13 14 -26 11 -28
-16 -17 -157 96 -157 125 0 18 33 53 143 152 31 29 57 60 57 70 0 10 -67 132
-150 273 -82 140 -150 262 -150 270 0 38 167 81 358 92 62 4 115 10 117 14 3
4 -11 52 -30 107 -53 154 -67 231 -68 383 0 152 18 269 59 371 38 96 44 99
188 99 66 0 172 -3 234 -7z m-2694 -155 c18 -68 -3 -174 -64 -329 -55 -137
-128 -277 -290 -548 -105 -175 -140 -225 -161 -233 -22 -8 -27 -15 -25 -41 1
-27 -3 -32 -25 -35 -14 -2 -31 3 -37 11 -18 21 23 110 178 387 188 338 285
533 384 773 17 42 31 47 40 15z m1884 -93 c68 -22 115 -42 121 -53 11 -21 -33
-270 -55 -313 -19 -39 -51 -58 -107 -65 -38 -6 -51 -3 -68 12 -30 27 -41 52
-34 74 7 23 45 27 45 6 0 -20 25 -37 43 -30 25 9 31 42 13 69 -19 28 -52 32
-82 10 -25 -19 -34 -19 -34 1 0 21 65 47 101 39 16 -4 42 -19 58 -34 23 -22
31 -25 35 -14 11 27 6 42 -24 76 l-29 34 34 33 c43 42 46 70 8 70 -16 -1 -39
-7 -53 -15 -39 -22 -48 -18 -55 24 -7 44 -17 55 -57 65 l-27 6 19 -42 c25 -54
25 -70 0 -99 l-19 -24 -1 46 c0 54 -16 72 -57 67 -22 -2 -28 -8 -28 -28 0 -20
6 -26 28 -28 29 -4 32 -9 18 -31 -6 -9 -20 -11 -50 -6 -32 5 -42 12 -47 31
-10 38 3 70 45 114 35 37 42 40 93 40 35 0 95 -13 166 -35z m-1646 -107 c21
-6 55 -26 75 -43 35 -30 37 -36 38 -91 0 -53 -2 -59 -21 -62 -12 -2 -52 13
-89 32 -37 20 -78 36 -93 36 -19 0 -23 3 -15 11 6 6 40 9 83 7 l71 -3 -26 23
c-32 27 -96 30 -155 6 -53 -21 -72 -13 -68 28 2 26 10 37 38 50 40 21 106 23
162 6z m-244 -261 l-4 -99 -89 -174 c-49 -95 -86 -176 -83 -179 9 -9 29 21 93
139 33 61 64 111 70 111 18 0 23 -68 9 -124 -8 -31 -49 -116 -90 -188 -76
-135 -82 -141 -134 -133 -26 3 -26 11 2 33 20 17 25 28 21 48 -3 15 3 41 12
59 20 39 13 50 -12 19 -57 -73 -80 -89 -124 -89 -24 0 -50 4 -57 8 -9 6 22 69
117 237 72 126 159 284 193 351 74 143 82 141 76 -19z m1365 -220 c3 -8 34
-20 69 -27 73 -14 109 -43 84 -68 -13 -13 -21 -13 -66 2 -59 19 -76 13 -42
-14 21 -17 101 -40 141 -40 23 0 36 -30 19 -42 -25 -17 -127 -1 -169 27 -49
32 -59 53 -33 72 18 13 17 15 -20 47 -24 19 -36 37 -32 44 10 16 43 15 49 -1z
m1100 -526 c13 -5 30 -23 37 -40 11 -26 10 -35 -4 -56 -10 -14 -28 -31 -42
-37 -30 -14 -30 -21 -1 -33 12 -6 23 -20 25 -32 3 -21 -1 -23 -35 -23 -22 0
-47 6 -57 13 -20 14 -18 54 2 50 17 -4 15 11 -8 54 -24 46 -17 78 19 98 32 17
33 17 64 6z m277 -376 c26 -32 -31 -207 -82 -250 -59 -50 -84 -26 -52 50 18
44 14 53 -11 25 -27 -30 -35 -25 -35 23 0 31 6 49 20 62 11 10 20 22 20 27 0
14 23 34 47 42 12 4 24 13 27 21 7 19 50 19 66 0z m-3243 -90 c-3 -19 -18 -61
-32 -94 -15 -33 -25 -65 -23 -71 2 -7 30 22 63 63 91 117 143 133 86 28 -17
-32 -31 -68 -31 -79 0 -11 -7 -23 -16 -26 -8 -3 -13 -10 -10 -15 7 -11 -50
-74 -81 -90 -32 -16 -57 -14 -87 10 -20 16 -26 29 -26 59 0 22 5 51 12 65 15
34 3 43 -25 18 -51 -47 -100 -55 -138 -24 -19 16 -22 23 -13 38 6 10 24 20 40
24 16 3 60 22 97 42 38 21 76 37 86 37 9 0 32 11 51 25 47 32 54 31 47 -10z
m2418 -156 c54 -104 58 -147 19 -178 -51 -40 -99 -17 -134 64 -10 24 -23 46
-29 49 -6 4 -11 15 -11 25 0 10 -9 39 -21 65 -11 26 -19 55 -17 64 3 14 9 12
33 -13 17 -17 45 -52 63 -79 18 -26 35 -46 38 -43 3 2 -7 44 -21 92 -14 48
-25 92 -25 99 1 23 62 -61 105 -145z m-2240 99 c-4 -23 -18 -73 -31 -111 -36
-106 -23 -104 49 7 18 27 42 55 54 63 21 14 21 14 12 -27 -12 -54 -82 -209
-108 -237 -27 -32 -75 -30 -108 3 -22 22 -24 30 -18 72 7 49 22 81 68 146 15
21 27 43 27 47 0 15 42 79 52 79 6 0 7 -16 3 -42z m2016 -55 c18 -38 42 -78
53 -90 11 -13 17 -23 13 -23 -3 0 0 -19 8 -41 22 -61 19 -125 -5 -149 -28 -28
-81 -26 -108 3 -20 21 -122 274 -122 303 0 30 30 12 56 -33 15 -27 35 -61 46
-78 l18 -30 -6 103 c-5 66 -3 102 3 102 6 0 26 -30 44 -67z m597 38 c40 -21
99 -77 90 -86 -3 -4 -34 6 -68 20 -86 36 -94 27 -16 -19 75 -44 91 -59 82 -81
-7 -20 -87 -20 -126 0 -44 23 -130 138 -130 175 0 18 127 12 168 -9z m-2462
-101 c-5 -49 -4 -80 2 -80 5 0 28 25 51 55 65 86 76 72 40 -49 -33 -109 -80
-199 -110 -210 -39 -13 -77 0 -94 35 -15 27 -15 35 0 87 17 57 102 242 112
242 3 0 2 -36 -1 -80z m1683 8 c49 -115 93 -258 87 -283 -9 -37 -42 -65 -74
-65 -44 0 -79 46 -111 145 -16 48 -32 90 -37 94 -5 3 -10 17 -10 31 -1 14 -5
42 -9 63 -5 23 -4 37 2 37 16 0 79 -98 114 -179 18 -41 35 -69 37 -63 2 6 -6
54 -17 106 -23 105 -26 156 -11 156 6 0 19 -19 29 -42z m-2366 -47 c132 -102
329 -208 572 -304 419 -167 877 -223 1340 -162 357 47 714 172 1030 360 72 43
101 56 119 51 24 -6 42 -37 32 -55 -7 -11 -226 -141 -304 -180 -168 -84 -418
-172 -612 -215 -786 -173 -1516 -35 -2208 420 -62 41 -115 81 -119 91 -9 23
34 56 65 48 13 -3 51 -27 85 -54z m847 -109 c-6 -36 -9 -67 -6 -69 3 -3 23 30
45 73 21 44 47 88 56 99 15 19 16 17 10 -30 -14 -110 -51 -221 -85 -255 -26
-26 -74 -26 -101 1 -19 19 -21 28 -14 92 4 46 13 79 26 95 10 14 19 28 19 32
0 4 12 34 27 66 l28 59 3 -50 c2 -27 -2 -78 -8 -113z m1212 116 c9 -7 34 -49
57 -93 l40 -80 1 88 c0 48 3 87 8 87 11 0 50 -80 56 -115 2 -16 12 -59 21 -94
24 -97 0 -151 -69 -151 -19 0 -32 10 -50 39 -34 53 -46 59 -46 23 0 -42 -19
-91 -40 -102 -49 -26 -101 -5 -121 48 -12 31 -52 299 -47 314 8 24 47 -37 64
-100 37 -140 43 -140 44 0 0 110 2 128 18 137 23 14 45 13 64 -1z m-1030 -125
l-1 -98 25 55 c14 30 30 74 37 98 8 29 16 42 29 42 14 0 17 -6 13 -27 -2 -16
-9 -59 -15 -98 -18 -116 -40 -184 -68 -205 -44 -35 -96 -21 -115 31 -13 37 68
328 86 310 6 -6 10 -54 9 -108z m-1057 -3 c293 -192 562 -312 893 -399 63 -16
120 -35 128 -42 8 -6 14 -24 14 -40 0 -25 -4 -29 -27 -29 -109 0 -492 129
-716 241 -216 108 -537 316 -537 348 0 14 45 30 70 25 14 -3 93 -50 175 -104z
m1225 -53 l5 -132 23 85 c12 47 32 105 45 130 l22 45 3 -40 c6 -64 -20 -243
-40 -275 -31 -52 -106 -53 -128 -1 -9 23 -9 46 0 103 13 90 51 230 59 222 3
-3 8 -65 11 -137z m658 -24 c23 -159 21 -192 -16 -219 -19 -15 -70 -18 -88 -6
-6 4 -16 17 -23 30 -14 27 -33 226 -29 302 l3 55 22 -41 c12 -23 29 -71 38
-109 24 -105 34 -112 35 -23 0 84 18 185 30 171 4 -4 17 -76 28 -160z m-479
108 c6 -19 14 -72 18 -118 3 -46 9 -80 13 -76 4 4 15 48 24 97 18 92 39 146
58 146 14 0 4 -248 -12 -302 -26 -88 -88 -109 -143 -48 -29 32 -29 36 -24 104
8 97 38 249 47 239 4 -4 12 -23 19 -42z m289 -25 c14 -75 16 -225 3 -259 -15
-38 -40 -57 -76 -57 -38 0 -62 19 -71 57 -9 33 2 241 14 273 9 23 9 23 20 -10
7 -18 15 -65 18 -104 10 -107 20 -108 33 -5 12 99 30 169 41 169 4 0 12 -29
18 -64z m1519 -17 c33 -33 -80 -114 -352 -252 -319 -163 -446 -206 -727 -247
-73 -11 -136 -20 -140 -20 -15 0 -8 47 10 62 9 9 67 26 127 38 321 64 690 211
950 378 81 52 112 61 132 41z m-3568 -35 l21 -26 -29 -37 c-37 -48 -57 -88
-65 -135 -4 -21 -10 -36 -13 -32 -3 3 -18 -1 -34 -9 -24 -13 -30 -13 -43 1
-21 21 -21 24 12 97 29 63 105 167 122 167 4 0 18 -12 29 -26z m3682 -30 c10
-12 10 -22 1 -47 -67 -191 -169 -589 -206 -807 -46 -270 -49 -328 -51 -920 -1
-389 -5 -591 -14 -650 -60 -415 -187 -727 -386 -947 -68 -75 -169 -153 -199
-153 -20 0 -65 35 -55 43 2 2 27 20 55 40 66 47 199 187 245 257 89 134 167
328 208 515 51 234 53 264 61 945 6 501 11 668 23 750 43 293 91 493 203 848
44 139 46 142 73 142 16 0 34 -7 42 -16z m-3945 -48 c0 0 8 -17 17 -37 17 -37
17 -37 -13 -69 -42 -44 -48 -75 -21 -104 11 -12 21 -30 21 -39 0 -25 -22 -33
-34 -12 -6 10 -20 29 -31 42 -24 29 -55 22 -55 -11 0 -18 9 -26 40 -36 30 -10
40 -19 40 -34 0 -39 -15 -49 -59 -42 -41 6 -41 6 -41 -24 0 -28 -6 -34 -65
-61 -72 -34 -98 -34 -103 -1 -5 34 10 46 92 72 69 21 75 25 80 56 5 25 0 44
-25 86 -17 29 -42 65 -56 80 l-25 26 43 27 c24 15 57 39 72 54 l29 26 16 -24
c27 -38 60 -71 72 -71 17 0 11 21 -15 52 -32 38 -33 62 -2 52 12 -3 22 -7 23
-8z m3799 -64 c-8 -32 -27 -101 -44 -153 -17 -52 -41 -136 -55 -188 -14 -51
-27 -95 -29 -98 -3 -2 -8 12 -11 31 -7 38 -35 54 -75 43 -11 -2 -37 6 -58 19
-47 29 -61 30 -90 2 l-23 -21 0 25 c0 79 69 215 132 260 25 17 256 138 264
138 1 0 -4 -26 -11 -58z m420 -12 c-1 -68 -12 -127 -22 -116 -4 3 -13 0 -22
-8 -9 -8 -59 -25 -111 -39 -86 -23 -96 -24 -107 -10 -17 22 1 53 30 53 13 0
36 14 52 30 16 17 34 30 41 30 23 0 72 50 88 91 12 29 21 39 34 37 14 -3 17
-15 17 -68z m-3795 -10 c13 -19 33 -32 55 -36 19 -3 35 -7 35 -8 0 0 -43 -45
-95 -99 -103 -106 -117 -133 -62 -122 93 19 175 60 269 136 28 23 58 20 58 -6
0 -9 -27 -43 -59 -76 -73 -72 -157 -114 -264 -131 -72 -12 -94 -26 -67 -43 6
-3 10 -14 10 -25 0 -10 6 -20 14 -23 8 -3 33 -33 55 -67 l41 -61 -28 -10 c-34
-13 -57 -34 -92 -81 l-27 -37 -39 57 c-22 31 -54 73 -72 94 -37 41 -59 98 -38
98 15 0 61 -50 62 -67 3 -38 5 -41 24 -36 28 7 47 43 29 54 -8 5 -21 9 -30 9
-31 0 -42 76 -13 87 12 4 14 14 10 35 -5 27 -4 29 17 22 42 -15 71 -10 75 11
2 11 11 25 19 32 8 6 12 17 8 23 -5 7 -10 8 -14 3 -3 -6 -26 -13 -49 -17 l-44
-7 7 31 c5 22 3 32 -9 36 -25 9 -19 43 9 56 38 17 54 -3 25 -32 -12 -12 -19
-24 -16 -28 4 -3 12 0 18 6 7 7 23 12 36 12 13 0 32 5 42 10 19 10 19 11 -2
54 -12 24 -32 49 -46 56 -27 12 -25 13 -59 -42 -26 -42 -83 -60 -83 -25 0 19
52 87 67 87 8 0 49 23 91 50 42 28 84 50 93 50 10 0 27 -13 39 -30z m3828
-145 c6 -45 -25 -92 -74 -115 -54 -27 -233 -48 -244 -30 -13 21 1 50 29 56 36
9 184 75 196 88 42 44 88 44 93 1z m-835 -20 c-1 -16 -15 -86 -32 -155 -85
-346 -109 -590 -121 -1220 -10 -514 -20 -695 -46 -830 -20 -108 -61 -229 -105
-316 -39 -76 -47 -104 -30 -104 27 0 120 211 156 355 19 78 23 86 29 60 18
-81 62 -208 74 -213 17 -6 116 89 147 143 32 54 40 105 21 130 -11 15 -27 20
-68 21 -29 1 -67 7 -85 15 -30 12 -34 11 -58 -11 -14 -13 -27 -22 -29 -19 -5
4 22 543 27 569 3 11 6 10 11 -5 18 -49 78 -162 97 -184 l20 -25 25 30 c13 16
40 60 59 98 28 55 35 80 35 126 0 72 -12 84 -77 76 -26 -4 -63 -2 -81 3 -30 9
-36 7 -57 -14 l-22 -25 -7 37 c-16 100 1 581 30 831 13 115 35 250 60 369 8
42 20 34 28 -19 10 -66 57 -208 69 -208 5 0 46 37 90 81 77 78 80 80 73 48
-70 -340 -81 -498 -78 -1084 2 -566 -4 -671 -54 -893 -45 -203 -136 -430 -204
-512 l-29 -35 -1 37 c0 42 -21 68 -56 68 -15 0 -24 6 -24 15 0 8 -13 29 -29
47 -26 29 -32 32 -57 23 -48 -17 -87 -107 -92 -212 l-5 -85 44 7 c36 6 97 27
178 62 10 5 10 -1 -3 -24 -25 -49 -64 -91 -130 -137 -96 -68 -135 -85 -171
-73 -52 17 -54 21 -53 135 0 140 9 173 58 215 22 19 40 39 40 45 0 21 -18 21
-45 0 -22 -17 -29 -19 -36 -7 -20 33 -8 67 47 135 50 60 82 118 147 265 59
131 75 306 87 933 12 659 24 801 95 1186 34 179 60 267 83 273 41 11 57 3 55
-28z m-2589 -35 c14 -5 26 -15 26 -21 0 -6 -51 -61 -113 -123 -183 -180 -281
-357 -351 -631 -67 -264 -78 -408 -81 -1005 -2 -542 -9 -648 -61 -930 -44
-241 -124 -538 -195 -722 -33 -85 -48 -103 -79 -93 -26 8 -26 44 1 121 78 227
169 594 203 829 42 284 47 377 50 897 3 463 5 526 24 645 53 335 139 578 269
762 54 76 180 210 237 252 45 34 38 32 70 19z m894 -64 c14 -32 67 -291 86
-426 19 -134 34 -285 45 -478 9 -148 7 -192 -9 -192 -14 0 -22 34 -26 110 -12
239 -54 572 -106 827 -29 143 -31 183 -10 183 5 0 14 -11 20 -24z m-737 -4
c44 -17 57 -63 51 -181 l-4 -103 -80 -82 c-130 -132 -202 -255 -253 -431 -57
-198 -72 -368 -80 -920 -5 -405 -14 -579 -41 -800 -18 -155 -66 -403 -94 -485
-11 -33 -20 -69 -20 -80 0 -32 -28 -92 -58 -123 -15 -16 -70 -51 -122 -77 -52
-27 -119 -63 -147 -80 -29 -17 -53 -28 -53 -24 0 3 30 100 67 215 64 201 68
209 81 183 13 -24 18 -26 59 -21 37 4 49 1 70 -19 29 -27 60 -31 89 -10 30 22
25 146 -10 254 -15 45 -31 82 -36 82 -6 0 -44 -32 -86 -72 -60 -57 -74 -67
-70 -47 8 34 86 492 86 504 0 6 9 -5 20 -22 21 -35 33 -39 73 -24 15 6 39 5
65 -2 59 -16 77 3 77 82 0 47 -7 72 -40 137 -48 94 -68 103 -109 49 -15 -20
-38 -55 -52 -78 l-24 -42 0 186 c0 233 7 314 27 298 10 -9 23 -9 53 0 32 9 46
9 76 -4 47 -19 70 -7 84 47 18 63 -8 145 -78 251 l-25 38 -34 -33 c-19 -18
-50 -64 -68 -103 l-34 -70 -1 181 c0 255 24 479 44 400 7 -30 39 -41 90 -32
25 5 39 1 60 -15 25 -20 28 -20 51 -5 31 20 39 52 32 129 -5 61 -51 197 -67
197 -13 0 -103 -90 -138 -139 -18 -24 -32 -37 -32 -29 0 46 35 206 65 296 39
116 128 303 161 335 12 12 28 36 37 53 25 48 114 141 192 201 72 55 85 58 146
35z m1013 -1 c46 -7 67 -32 50 -58 -16 -25 -195 -31 -230 -8 -26 17 -32 53
-11 74 12 12 90 9 191 -8z m571 -38 c-4 -27 -24 -115 -45 -198 -72 -278 -111
-521 -130 -815 -14 -209 -31 -261 -51 -154 -14 77 26 462 77 734 31 166 102
450 116 467 6 7 17 13 25 13 12 0 14 -9 8 -47z m-111 15 c8 -13 8 -23 0 -35
-10 -16 -28 -18 -140 -18 l-129 0 -3 29 c-2 16 2 33 10 37 7 5 67 8 132 7 101
-3 121 -6 130 -20z m-324 -3 c10 -11 10 -129 4 -542 -5 -291 -8 -542 -6 -559
3 -35 -17 -58 -41 -48 -15 5 -16 59 -10 572 3 348 10 572 16 580 12 16 22 15
37 -3z m2104 -12 c4 -9 2 -31 -5 -50 -17 -54 -49 -64 -191 -61 l-123 3 0 30
c0 29 2 30 60 38 33 5 96 19 140 32 100 28 111 29 119 8z m-4297 -24 c8 -8 7
-20 -5 -45 -14 -27 -23 -34 -48 -34 -18 0 -39 -8 -50 -21 -18 -20 -18 -21 1
-35 27 -20 30 -19 67 26 34 43 70 51 76 18 4 -21 -11 -37 -61 -62 -42 -22 -46
-35 -17 -61 11 -10 20 -22 20 -26 0 -5 -25 -25 -55 -45 -30 -20 -55 -41 -55
-45 0 -5 -4 -9 -9 -9 -5 0 -14 20 -20 45 -10 39 -16 46 -41 52 -17 3 -30 9
-30 12 0 4 15 29 33 56 17 27 44 66 58 88 23 34 99 97 119 97 3 0 11 -5 17
-11z m2058 -57 c38 -7 40 -9 40 -42 l0 -35 -99 -3 c-64 -2 -103 1 -112 9 -20
16 -17 56 4 68 20 12 108 13 167 3z m424 -24 c5 -13 5 -30 0 -40 -12 -22 -94
-32 -179 -21 -58 7 -65 11 -68 31 -7 49 -1 52 123 52 111 0 116 -1 124 -22z
m1421 -86 l0 -48 77 -12 c81 -13 123 -32 123 -57 0 -19 -73 -72 -119 -86 -20
-6 -58 -9 -86 -7 l-50 3 1 50 c0 58 33 205 45 205 5 0 9 -22 9 -48z m183 24
c25 21 38 24 107 24 83 0 96 -6 86 -44 -15 -62 -128 -79 -238 -37 -64 25 -77
44 -45 66 21 15 23 14 42 -9 l20 -25 28 25z m-1990 -46 c5 -4 7 -20 5 -36 l-3
-29 -82 -3 c-46 -2 -92 2 -103 8 -28 15 -26 58 3 70 24 10 167 2 180 -10z
m-1949 -6 c25 -25 19 -55 -26 -130 -91 -151 -181 -246 -290 -304 -67 -36 -91
-34 -86 7 2 21 15 36 52 58 132 82 221 177 283 307 21 42 41 77 45 78 4 0 14
-7 22 -16z m2300 0 c27 -26 20 -54 -19 -70 -41 -17 -67 -18 -135 -3 -57 12
-78 36 -60 69 10 18 21 20 105 20 72 0 97 -4 109 -16z m-20 -120 c52 -51 -17
-93 -131 -79 -62 8 -85 34 -64 74 11 19 20 21 96 21 63 0 87 -4 99 -16z
m-1341 -47 c-1 -45 0 -47 25 -45 38 2 61 -13 126 -83 172 -185 270 -397 298
-642 13 -118 1 -259 -36 -412 -31 -125 -56 -183 -116 -265 -26 -36 -53 -75
-59 -88 -30 -58 -181 -190 -292 -258 -182 -109 -229 -127 -229 -83 0 36 19 58
61 71 23 6 46 20 53 30 6 10 19 18 29 18 29 0 166 98 238 169 114 115 192 250
245 426 26 84 28 102 28 280 0 166 -3 200 -22 270 -25 90 -85 222 -133 291
-47 68 -159 194 -172 194 -7 0 -21 16 -31 35 -11 19 -25 35 -32 35 -16 0 -87
-80 -130 -147 -96 -147 -143 -465 -144 -954 0 -96 -6 -305 -14 -465 -8 -159
-15 -311 -15 -339 -6 -200 -88 -654 -134 -737 -20 -38 -61 -58 -80 -39 -7 7 2
58 26 158 90 363 116 600 127 1178 9 461 21 699 40 823 36 226 122 427 253
585 32 38 45 47 66 45 24 -3 26 -6 24 -51z m17 -247 c33 -18 52 -56 45 -89 -8
-39 -84 -124 -129 -145 -19 -9 -50 -16 -70 -16 -20 0 -36 -5 -36 -11 0 -6 18
-41 39 -77 107 -182 116 -361 26 -550 -19 -41 -35 -79 -34 -86 0 -6 26 -23 59
-39 32 -15 81 -49 108 -75 43 -40 51 -54 58 -96 8 -60 -1 -77 -52 -94 -66 -22
-101 -5 -172 85 -63 80 -74 109 -46 120 11 4 39 -17 90 -68 62 -62 77 -72 92
-63 31 20 24 41 -29 80 -79 60 -109 91 -109 113 0 31 -19 26 -56 -15 -18 -20
-38 -33 -44 -29 -21 13 -9 44 24 64 102 63 160 273 122 442 -18 83 -64 170
-101 195 -15 10 -25 26 -25 40 0 23 52 88 114 143 90 79 101 96 71 107 -9 4
-38 -15 -78 -52 -59 -55 -62 -57 -65 -33 -5 42 36 137 66 154 29 16 97 14 132
-5z m2120 -73 c0 -31 -19 -47 -115 -95 -106 -53 -231 -145 -239 -176 -3 -13
-14 -26 -25 -29 -54 -14 -201 -269 -243 -422 -30 -112 -33 -392 -4 -505 44
-172 131 -327 270 -477 42 -45 76 -84 76 -87 0 -3 -11 -13 -24 -21 -23 -15
-25 -14 -99 62 -41 43 -91 99 -111 125 -118 154 -191 352 -210 569 -11 121 29
383 74 484 9 22 25 62 35 88 28 78 235 309 331 369 124 78 153 95 203 115 72
28 81 28 81 0z m-1966 -134 c25 -13 28 -18 23 -51 -10 -59 -54 -104 -128 -129
-77 -27 -114 -26 -114 2 0 14 20 29 76 56 82 40 98 54 80 72 -11 11 -74 -15
-142 -59 -30 -20 -59 -13 -59 14 0 20 105 99 149 112 31 9 76 2 115 -17z
m1916 -69 c46 -18 57 -44 40 -89 l-12 -30 -33 39 c-29 34 -35 38 -49 27 -9 -8
-16 -17 -16 -22 0 -4 23 -36 50 -70 40 -50 50 -70 50 -101 0 -21 -4 -38 -8
-38 -10 0 -68 62 -110 116 -26 34 -32 51 -32 91 0 85 39 109 120 77z m-2910
-48 c0 -29 -253 -226 -289 -226 -6 0 -11 -7 -11 -15 0 -8 -17 -26 -37 -40 -61
-41 -97 -68 -123 -93 -14 -13 -37 -30 -52 -38 -24 -12 -28 -12 -28 -1 0 23 47
67 72 67 15 0 29 10 40 30 11 20 25 30 40 30 15 0 27 9 33 22 6 13 22 29 37
36 15 7 49 33 75 58 26 25 83 70 126 102 42 31 77 62 77 69 0 7 9 13 20 13 11
0 20 -6 20 -14z m4035 -63 c0 -12 -481 -383 -497 -383 -23 0 -3 33 35 57 23
16 51 36 62 47 11 10 71 56 133 103 63 47 139 110 170 139 54 51 97 67 97 37z
m-2551 -33 c5 -5 24 -10 41 -10 16 0 116 -30 220 -66 105 -36 233 -76 285 -90
52 -13 125 -34 163 -45 57 -18 67 -25 67 -45 0 -12 -5 -26 -12 -30 -34 -21
-208 19 -499 116 -118 39 -259 79 -314 90 -127 26 -145 33 -145 63 0 13 3 27
8 31 10 11 173 -1 186 -14z m-441 -3 c49 -21 62 -41 47 -76 -15 -38 -56 -76
-102 -95 -45 -19 -137 -20 -160 -2 -17 12 -17 14 0 28 9 9 43 18 74 22 78 8
108 21 108 46 0 31 -23 34 -98 10 -80 -25 -106 -24 -110 7 -3 22 35 56 73 66
41 10 137 7 168 -6z m1734 -24 c68 -74 115 -143 109 -158 -11 -29 -42 -14
-106 50 -64 65 -95 79 -107 50 -7 -19 15 -45 90 -102 57 -44 73 -78 42 -89
-17 -7 -124 59 -172 106 -33 33 -46 73 -36 120 8 41 38 60 96 60 44 0 53 -4
84 -37z m1263 -112 c0 -21 -460 -372 -498 -379 -53 -10 8 49 225 221 223 176
273 205 273 158z m-1410 -81 c21 -11 42 -24 45 -30 3 -6 24 -19 46 -31 31 -15
40 -25 37 -42 -5 -33 -31 -32 -113 7 -87 41 -105 44 -105 16 0 -13 10 -24 28
-31 157 -58 163 -61 160 -83 -3 -18 -9 -21 -54 -21 -40 1 -63 8 -99 30 -60 37
-105 92 -108 131 -2 25 4 32 43 51 56 28 71 28 120 3z m-1587 -19 c39 -25 70
-78 63 -107 -8 -30 -63 -63 -117 -69 -62 -7 -173 32 -177 61 -4 28 13 33 73
23 28 -4 69 -8 93 -8 39 -1 43 1 40 22 -3 21 -9 22 -98 27 -91 5 -95 6 -98 29
-5 34 12 41 108 41 66 0 91 -4 113 -19z m1897 -16 c0 -15 -17 -40 -49 -70 -86
-81 -127 -208 -118 -366 5 -101 39 -187 93 -240 33 -32 48 -85 22 -77 -25 9
-96 107 -117 162 -75 201 -35 428 101 572 52 55 68 60 68 19z m-1350 -20 c8
-10 7 -21 -3 -42 -8 -15 -17 -44 -21 -63 -3 -19 -15 -50 -27 -69 -19 -32 -22
-33 -65 -27 l-44 6 -6 -40 c-7 -44 -5 -43 -54 -31 -19 5 -48 12 -63 15 -43 10
-22 29 23 21 34 -6 42 -3 61 19 13 14 32 26 44 26 31 0 52 28 65 85 24 109 30
122 56 117 13 -2 28 -10 34 -17z m388 -9 c31 -13 86 -27 122 -31 36 -3 83 -11
105 -17 34 -9 37 -12 20 -19 -11 -4 -37 -10 -58 -14 -27 -4 -41 -13 -49 -31
-8 -17 -19 -24 -39 -24 -15 0 -39 -4 -53 -10 -23 -8 -26 -15 -26 -60 0 -27 -4
-50 -10 -50 -5 0 -10 -20 -10 -44 l0 -44 -37 10 c-53 14 -55 16 -39 46 7 15
19 60 26 100 12 73 12 74 -14 101 -25 26 -31 44 -28 89 2 28 18 28 90 -2z
m-2001 -68 c-6 -18 -482 -383 -499 -383 -7 0 -13 11 -13 24 0 20 44 56 249
208 231 170 282 199 263 151z m892 -78 c36 -11 80 -29 98 -39 33 -21 73 -86
73 -119 0 -31 -36 -55 -90 -60 -48 -4 -55 -2 -121 44 -89 61 -97 70 -76 91 14
15 23 12 105 -27 87 -41 112 -44 112 -15 0 18 -25 31 -108 59 -68 23 -90 42
-79 70 8 20 6 20 86 -4z m1794 -38 c19 -10 32 -26 32 -38 0 -18 -8 -19 -100
-19 -84 0 -100 -3 -103 -16 -4 -22 25 -29 119 -29 63 0 78 -3 83 -17 12 -30
-17 -43 -106 -50 l-85 -6 -46 43 c-56 51 -65 74 -41 102 53 58 174 73 247 30z
m-2693 -41 c0 -12 -105 -111 -119 -111 -3 0 -24 -16 -46 -35 -22 -19 -45 -35
-52 -35 -6 0 -18 -8 -25 -18 -7 -11 -24 -25 -38 -32 -14 -7 -34 -21 -45 -31
-43 -41 -111 -92 -132 -100 -13 -5 -23 -13 -23 -19 0 -5 -7 -10 -15 -10 -26 0
-16 28 18 53 17 13 118 86 222 163 272 201 255 189 255 175z m4051 -49 c-6
-11 -35 -38 -65 -62 -31 -23 -56 -46 -56 -51 0 -5 -5 -9 -11 -9 -12 0 -126
-79 -168 -116 -14 -13 -38 -33 -53 -45 -16 -11 -28 -27 -28 -35 0 -8 -6 -14
-14 -14 -8 0 -38 -16 -66 -35 -29 -20 -55 -33 -58 -30 -15 15 34 74 86 106 31
19 106 72 167 119 149 114 255 190 266 190 6 0 6 -7 0 -18z m-2636 -17 c33 -7
164 -47 290 -88 127 -41 282 -84 345 -96 153 -28 190 -39 197 -57 3 -9 -1 -22
-9 -30 -12 -12 -27 -13 -89 -4 -41 6 -103 15 -139 19 -36 5 -105 23 -155 40
-49 18 -126 41 -170 52 -44 11 -88 22 -97 25 -13 4 -18 0 -18 -14 0 -33 -26
-47 -68 -36 -30 7 -37 13 -37 34 0 24 3 25 48 22 105 -7 15 32 -124 52 -107
16 -132 27 -122 54 17 47 45 52 148 27z m-19 -121 c15 -59 -21 -432 -66 -699
-32 -185 -114 -531 -132 -552 -15 -19 -38 -16 -38 5 0 10 16 68 36 128 77 238
130 568 169 1062 7 82 19 104 31 56z m1319 8 c17 -9 17 -10 -4 -21 -12 -7 -50
-17 -83 -22 -74 -12 -98 -24 -98 -48 0 -28 19 -30 85 -10 76 24 119 22 123 -7
8 -56 -201 -91 -262 -43 -14 11 -26 28 -26 38 0 28 58 101 93 117 35 16 141
14 172 -4z m-2059 -72 c22 -21 54 -64 73 -94 30 -50 32 -59 22 -88 -25 -70
-75 -87 -140 -47 -30 18 -33 23 -28 56 4 19 9 38 12 42 3 3 21 -11 38 -32 23
-27 36 -35 46 -28 21 14 7 49 -44 111 -33 40 -45 64 -45 87 0 44 18 42 66 -7z
m1012 -17 c5 -10 3 -153 -4 -328 -7 -170 -13 -426 -13 -568 -1 -220 -3 -258
-16 -263 -8 -4 -23 0 -32 7 -15 13 -15 46 -8 364 4 192 9 447 11 565 2 118 6
221 9 228 7 18 43 15 53 -5z m252 -168 c-2 -68 2 -114 35 -427 17 -164 57
-418 82 -521 12 -48 13 -71 6 -78 -20 -20 -31 0 -52 90 -63 269 -130 952 -101
1026 l12 30 9 -25 c6 -13 9 -56 9 -95z m840 70 c18 -21 7 -31 -81 -75 -43 -22
-79 -45 -79 -50 0 -26 37 -21 101 13 95 52 131 47 98 -15 -10 -18 -8 -20 28
-16 35 3 38 1 41 -23 3 -22 -8 -36 -57 -79 -62 -54 -73 -76 -45 -87 10 -4 35
13 74 52 49 48 60 56 66 41 9 -23 -33 -137 -58 -158 -25 -22 -95 -24 -142 -4
-24 10 -36 23 -40 44 -9 37 17 112 44 132 12 8 36 27 53 42 28 24 29 27 12 28
-11 0 -38 -11 -60 -25 -51 -31 -141 -35 -176 -6 -23 18 -23 19 -6 63 24 61 55
87 134 114 81 28 78 28 93 9z m1130 -74 c0 -5 20 -30 44 -56 48 -52 77 -55 51
-5 -20 38 -19 43 5 28 11 -7 20 -18 20 -24 0 -6 7 -17 15 -24 8 -7 15 -22 15
-34 -1 -19 -2 -19 -11 -3 -12 21 -39 23 -39 2 0 -8 9 -24 20 -35 11 -11 20
-27 20 -37 0 -14 -2 -14 -20 2 -11 10 -20 22 -20 28 0 5 -12 21 -27 37 -16 15
-34 35 -41 44 -18 23 -38 15 -34 -13 3 -19 0 -22 -17 -16 -31 10 -27 -17 10
-56 17 -18 37 -45 45 -61 12 -24 12 -28 0 -28 -7 0 -21 10 -29 23 -34 48 -75
89 -85 83 -11 -7 12 -48 58 -108 17 -22 18 -28 6 -28 -8 0 -18 5 -21 10 -14
22 -26 9 -20 -21 l7 -32 -36 29 c-20 16 -36 32 -36 37 0 4 -8 15 -17 25 -10 9
-24 30 -30 45 -12 25 -11 27 8 27 19 0 21 4 16 30 -8 35 1 38 32 9 26 -24 37
-20 22 9 -15 28 -14 30 12 34 12 2 21 9 19 17 -2 8 0 21 4 30 5 13 8 12 15 -6
4 -13 15 -23 24 -23 17 0 21 35 5 45 -5 3 -10 10 -10 16 0 5 5 9 10 9 6 0 10
-4 10 -9z m160 -301 c0 -26 -9 -35 -64 -70 -83 -53 -178 -154 -246 -263 -35
-55 -61 -86 -70 -85 -63 12 74 247 211 363 54 46 147 98 160 89 5 -3 9 -18 9
-34z m-2490 -145 c17 -21 4 -61 -22 -69 -30 -8 -122 -8 -142 0 -22 8 -21 60 2
73 28 17 147 14 162 -4z m-1625 -109 c20 -14 19 -16 -4 -133 -31 -154 -43
-170 -45 -58 l-1 40 -60 6 c-64 6 -135 32 -135 48 0 16 88 87 122 98 48 16
101 15 123 -1z m1621 -7 c19 -15 18 -44 -2 -63 -11 -11 -35 -16 -79 -16 -112
0 -153 32 -100 78 27 23 35 24 98 19 38 -3 75 -11 83 -18z m1964 -66 c19 -27
51 -67 72 -90 39 -44 50 -86 23 -97 -9 -3 -15 0 -15 10 0 8 -7 17 -15 20 -9 4
-15 19 -15 39 0 38 -22 52 -45 29 -25 -26 -15 -64 19 -64 30 0 50 -45 29 -65
-13 -13 -18 -11 -44 17 -16 18 -29 36 -29 40 0 5 -13 8 -28 8 -20 0 -32 -7
-39 -22 -9 -20 -12 -17 -55 39 l-45 59 38 22 c21 12 53 40 70 62 18 22 35 40
39 40 4 0 22 -21 40 -47z m448 -11 c8 -24 22 -44 33 -47 26 -8 24 -21 -10 -81
-34 -58 -144 -164 -171 -164 -23 0 -30 19 -17 45 17 33 34 45 65 45 34 0 55
20 46 44 -9 24 -51 20 -65 -6 -6 -13 -20 -31 -31 -41 -18 -18 -20 -18 -52 2
-18 12 -43 21 -55 21 -48 0 -7 81 59 115 25 13 72 44 105 69 33 25 65 44 70
42 6 -1 16 -21 23 -44z m-2472 -33 c68 -12 85 -30 64 -69 -10 -18 -20 -20 -99
-20 -71 0 -93 4 -111 18 -17 14 -21 24 -15 41 12 40 57 48 161 30z m382 -25
c26 -18 29 -46 7 -64 -11 -9 -37 -11 -97 -6 -44 4 -85 9 -90 12 -10 6 -11 58
-1 67 14 14 158 7 181 -9z m-2138 -27 c49 -17 65 -27 65 -41 0 -30 -31 -44
-51 -24 -15 15 -21 15 -43 4 -14 -7 -68 -16 -118 -19 l-93 -6 0 28 c0 74 113
102 240 58z m1781 -77 c22 0 30 -6 35 -25 11 -45 -9 -55 -112 -55 -106 0 -144
10 -144 39 0 38 38 53 119 47 41 -3 87 -6 102 -6z m380 -19 c20 -16 22 -23 13
-38 -13 -21 -104 -33 -175 -24 -39 5 -44 9 -47 35 -2 16 2 32 10 37 7 5 50 9
94 9 66 0 86 -4 105 -19z m-2088 -28 c11 -7 8 -38 -5 -51 -7 -7 -33 -12 -58
-12 -26 0 -73 -9 -106 -20 -32 -12 -79 -22 -104 -23 -43 -2 -45 -1 -48 29 -4
36 35 80 76 87 30 5 233 -3 245 -10z m3613 -61 c6 -4 16 -16 22 -28 10 -19 7
-22 -45 -38 -102 -32 -206 -89 -257 -139 -33 -33 -55 -47 -69 -45 -36 5 -30
32 18 85 55 62 122 106 218 144 76 30 95 33 113 21z m-1923 -8 c50 -7 65 -29
42 -61 -11 -15 -31 -19 -115 -21 -55 -2 -112 -1 -125 2 -47 12 -41 69 8 79 36
7 141 7 190 1z m417 -24 c11 -11 20 -26 20 -34 0 -14 -26 -46 -36 -46 -3 0
-48 5 -102 11 -100 11 -122 20 -122 48 0 34 22 41 122 41 85 0 101 -3 118 -20z
m-806 -16 c20 -8 21 -38 1 -54 -8 -7 -78 -25 -156 -41 -327 -68 -663 -200
-921 -360 -82 -50 -126 -61 -148 -34 -16 19 -8 29 56 70 45 29 320 178 419
228 103 51 533 167 727 196 3 1 13 -2 22 -5z m-1314 -27 c0 -13 -5 -28 -12
-35 -17 -17 -47 -15 -54 3 -8 21 -18 19 -29 -7 -6 -14 -37 -36 -75 -54 -36
-17 -70 -37 -77 -43 -7 -6 -16 -11 -22 -11 -5 0 -11 -6 -14 -12 -8 -22 -40 18
-40 49 0 82 91 129 256 132 64 1 67 0 67 -22z m3728 -13 c3 -22 46 -72 76 -89
16 -9 16 -12 -6 -44 -13 -19 -42 -44 -65 -56 -59 -32 -102 -63 -149 -107 -45
-43 -57 -40 -58 16 -1 25 -8 35 -43 54 l-43 23 49 39 c27 22 62 56 77 77 55
76 97 112 129 110 22 -2 31 -8 33 -23z m316 -5 c16 -12 32 -41 41 -73 9 -30
25 -62 36 -72 12 -11 27 -31 35 -47 19 -36 8 -55 -58 -102 l-52 -38 -38 44
c-47 55 -56 83 -33 109 17 19 16 21 -13 48 -29 27 -30 31 -16 51 8 11 22 21
30 21 9 0 14 11 14 33 0 52 13 59 54 26z m-1541 -34 c303 -83 568 -206 863
-401 145 -96 182 -132 161 -153 -21 -21 -55 -11 -118 36 -287 211 -634 377
-971 464 -126 33 -166 54 -154 84 8 22 53 16 219 -30z m-398 -15 c314 -47 581
-129 853 -262 173 -84 453 -263 467 -297 7 -17 -22 -51 -44 -51 -9 0 -80 42
-156 93 -430 286 -875 427 -1427 453 -323 15 -697 -45 -1014 -161 -91 -33
-358 -160 -497 -236 -56 -30 -58 -31 -77 -14 -11 10 -20 24 -20 32 0 34 351
224 545 296 432 158 938 212 1370 147z m-2130 -60 c0 -21 -12 -31 -70 -62 -66
-35 -103 -66 -153 -133 -21 -29 -22 -29 -37 -11 -29 38 -12 131 30 166 20 17
186 70 210 67 14 -1 20 -9 20 -27z m3875 -98 c0 -40 -8 -61 -50 -127 -27 -44
-60 -93 -73 -110 -24 -29 -25 -29 -51 -12 -34 23 -33 37 8 94 18 27 47 75 65
108 27 52 68 94 94 95 4 0 7 -22 7 -48z m-2302 13 c16 -21 21 -48 27 -148 4
-67 5 -142 3 -167 l-3 -45 -18 37 c-10 21 -25 68 -33 105 -26 114 -30 114 -37
3 -6 -105 -18 -163 -30 -143 -9 15 -34 165 -42 255 -7 73 -6 78 18 102 35 35
88 36 115 1z m196 9 c9 -8 19 -27 22 -41 8 -28 -3 -215 -15 -278 l-8 -40 -11
40 c-6 22 -17 73 -23 113 -14 86 -22 79 -39 -33 -21 -142 -40 -132 -60 31 -13
106 -5 170 26 201 27 27 84 31 108 7z m181 0 c53 -21 60 -158 15 -326 -6 -21
-15 -38 -19 -38 -14 0 -21 39 -28 153 -3 60 -10 103 -14 95 -4 -7 -15 -51 -23
-98 -19 -100 -34 -150 -46 -150 -16 0 -23 135 -12 230 10 83 14 98 37 118 26
22 58 28 90 16z m-602 -15 c12 -6 29 -20 36 -31 16 -25 51 -234 51 -298 l-1
-45 -19 23 c-11 13 -33 68 -50 123 -17 54 -34 100 -38 103 -4 2 -3 -35 2 -84
9 -90 2 -180 -14 -180 -14 0 -57 144 -71 237 -14 95 -4 136 40 152 35 13 36
13 64 0z m819 -16 c21 -19 24 -82 7 -165 -15 -74 -39 -148 -49 -148 -14 0 -20
61 -14 149 6 100 -3 94 -36 -23 -22 -80 -59 -166 -70 -166 -8 0 6 139 25 250
11 63 20 90 36 103 27 22 77 22 101 0z m-2470 -57 c5 -78 25 -106 75 -106 45
0 89 -24 107 -58 15 -28 14 -30 32 25 4 15 6 15 14 3 6 -8 10 -26 10 -40 0
-14 9 -60 19 -102 10 -43 15 -78 11 -78 -9 0 -36 54 -45 93 -9 33 -18 34 -32
4 -6 -13 -28 -32 -50 -42 -53 -25 -100 -76 -130 -142 -21 -45 -26 -73 -27
-137 l-1 -81 27 -3 c40 -5 126 45 160 92 16 22 35 64 44 93 9 30 21 53 29 53
22 0 54 -66 61 -129 8 -78 -8 -95 -97 -104 -84 -9 -108 -28 -139 -111 -17 -46
-35 -75 -57 -92 -18 -14 -33 -31 -33 -37 0 -6 15 -26 33 -45 31 -32 32 -37 32
-112 0 -69 3 -81 24 -104 13 -14 40 -29 60 -32 54 -10 89 -31 106 -64 19 -37
49 -39 71 -4 25 37 66 54 132 54 51 0 62 4 85 28 18 18 30 46 37 82 10 55 44
100 74 100 26 0 25 28 -2 66 -19 28 -28 58 -34 108 -10 97 -41 126 -150 141
-26 3 -50 11 -54 16 -3 5 -7 35 -8 67 -2 31 -7 74 -11 95 -9 46 0 47 81 11
101 -45 234 -42 234 4 0 11 -9 31 -20 45 -11 14 -20 32 -20 41 0 14 3 15 23 5
27 -15 147 -129 147 -141 0 -4 -43 -51 -96 -102 -83 -81 -96 -98 -90 -119 3
-13 73 -142 156 -286 l149 -262 -36 -16 c-68 -28 -187 -53 -326 -67 -76 -8
-140 -16 -143 -19 -2 -2 12 -55 31 -117 54 -171 68 -271 62 -425 -8 -190 -63
-371 -127 -417 -30 -21 -39 -22 -267 -20 -156 2 -184 4 -199 19 -15 15 -16 43
-10 312 4 163 11 512 17 776 24 1156 28 1311 34 1328 13 33 23 17 27 -47z
m1476 14 c20 -22 68 -200 79 -291 l6 -54 -21 19 c-12 10 -36 54 -54 97 -17 44
-35 76 -40 71 -4 -4 -3 -35 2 -67 5 -33 10 -73 10 -90 l-1 -30 -19 23 c-28 33
-72 177 -74 237 -1 44 3 58 23 79 29 31 63 33 89 6z m1184 3 c10 -9 18 -30 18
-48 0 -35 -67 -285 -80 -299 -8 -8 -17 46 -23 139 l-2 40 -38 -77 c-21 -43
-43 -78 -48 -78 -26 0 34 285 68 322 20 23 80 24 105 1z m-1369 -61 c19 -17
82 -204 93 -279 l7 -48 -23 20 c-12 11 -45 67 -73 125 -27 58 -52 100 -54 93
-2 -7 5 -57 16 -112 22 -106 26 -157 13 -165 -11 -6 -112 271 -112 305 0 70
79 107 133 61z m1553 6 c23 -18 25 -74 5 -129 -11 -29 -18 -56 -15 -61 3 -4
-4 -20 -15 -34 -11 -14 -25 -42 -32 -62 -6 -20 -18 -46 -25 -57 -13 -18 -14
-16 -14 24 0 25 7 82 16 129 8 46 13 86 10 89 -3 3 -26 -38 -52 -91 -25 -53
-50 -98 -55 -102 -28 -17 13 187 52 256 30 53 85 70 125 38z m1709 13 c3 -6
-6 -511 -20 -1123 -32 -1425 -27 -1295 -45 -1312 -13 -13 -100 -13 -735 -1
-1019 20 -983 19 -997 33 -36 36 141 433 427 957 234 429 283 544 350 818 18
77 41 147 51 158 9 11 90 55 178 99 89 43 187 95 220 115 32 19 66 35 75 36 9
0 120 51 246 114 127 62 233 114 237 114 4 1 9 -3 13 -8z m-1531 -77 c42 -43
34 -87 -46 -257 -33 -68 -44 -84 -51 -72 -10 18 8 134 26 172 6 13 7 26 4 29
-4 4 -11 -4 -16 -18 -5 -13 -20 -37 -34 -54 -13 -16 -34 -48 -46 -71 -37 -74
-62 -49 -36 36 77 245 128 306 199 235z m-1921 -23 c39 -47 130 -301 108 -301
-13 0 -53 56 -95 132 -21 37 -41 70 -46 73 -5 3 0 -25 12 -62 21 -70 34 -171
25 -195 -6 -19 -124 222 -132 273 -8 47 5 81 39 97 37 18 63 13 89 -17z m2109
-61 c24 -25 29 -36 23 -58 -9 -38 -55 -134 -103 -217 -33 -56 -42 -66 -48 -51
-4 11 2 50 14 92 12 41 22 82 22 92 0 10 6 24 13 31 10 11 9 13 -1 7 -7 -4
-35 -41 -62 -81 -45 -66 -90 -110 -90 -87 0 11 68 179 91 225 43 83 89 99 141
47z m-2303 -17 c28 -27 112 -197 127 -260 l7 -28 -23 20 c-12 11 -43 47 -68
79 -25 33 -47 55 -49 49 -2 -6 5 -46 17 -89 37 -141 24 -137 -59 20 -68 127
-78 179 -41 216 27 27 54 25 89 -7z m2494 -85 c19 -26 20 -32 7 -80 -7 -30
-25 -65 -41 -83 -16 -16 -29 -40 -29 -52 0 -13 -6 -23 -14 -23 -7 0 -21 -11
-30 -25 -16 -25 -46 -34 -46 -15 0 6 11 43 25 82 14 39 25 76 25 82 0 16 -63
-50 -91 -94 -16 -27 -31 -40 -46 -40 -13 0 -23 6 -23 13 0 19 127 237 147 253
30 23 93 13 116 -18z m-2937 6 c26 -9 60 -26 76 -37 32 -24 94 -140 83 -156
-9 -16 -74 -13 -126 4 -25 9 -67 36 -95 60 -43 39 -46 44 -26 45 13 0 42 -9
64 -20 48 -23 48 -23 48 -11 0 5 -27 26 -59 45 -54 33 -71 52 -71 77 0 14 54
11 106 -7z m-306 -83 c0 -11 -13 -47 -30 -82 -16 -35 -27 -65 -24 -68 3 -3 9
1 14 10 18 32 48 64 55 58 3 -4 1 -25 -5 -48 -21 -78 -109 -150 -146 -120 -13
11 -15 24 -10 69 8 65 61 187 85 193 40 11 61 7 61 -12z m3401 -20 c19 -16 22
-23 13 -37 -19 -31 -42 -40 -65 -26 -19 12 -25 9 -69 -37 -28 -29 -58 -51 -69
-51 -25 0 -27 13 -6 30 8 7 15 21 15 33 0 32 95 107 136 107 12 0 32 -9 45
-19z m-1332 -281 c29 -7 77 -10 107 -7 43 4 58 2 77 -14 28 -21 92 -142 131
-246 15 -39 34 -77 42 -83 8 -7 14 -19 14 -27 0 -9 13 -43 30 -77 54 -112 78
-227 86 -420 4 -95 4 -179 0 -185 -5 -8 -15 -7 -36 4 -25 13 -29 20 -24 44 6
28 3 30 -33 40 -39 11 -91 3 -123 -19 -13 -9 -13 -12 3 -24 9 -7 17 -16 17
-20 0 -9 -64 -36 -84 -36 -27 0 -25 31 13 182 23 92 36 162 32 176 -4 14 -35
47 -69 74 -59 48 -62 49 -62 25 0 -17 14 -36 44 -61 26 -21 47 -48 50 -64 4
-16 -10 -92 -34 -192 -23 -91 -43 -194 -47 -230 -10 -114 28 -197 107 -238 38
-20 56 -23 115 -19 39 3 79 7 89 9 15 2 21 -5 27 -32 10 -44 -7 -71 -64 -106
-53 -33 -130 -107 -168 -161 -38 -54 -71 -64 -195 -59 -140 5 -172 21 -298
149 -112 113 -185 157 -303 182 -79 17 -100 40 -95 105 2 27 -39 243 -68 360
-36 143 -75 258 -128 375 -57 128 -57 126 -22 173 43 60 253 225 340 267 63
30 82 35 117 30 38 -6 48 -2 95 33 89 66 203 116 248 107 8 -2 39 -9 69 -15z
m-1871 -216 c15 -10 22 -25 22 -47 0 -38 -7 -50 -38 -66 -29 -15 -56 -7 -82
26 -25 32 -25 44 1 77 24 30 63 34 97 10z m2993 -160 c15 -19 -27 -108 -214
-449 -162 -297 -255 -481 -318 -630 -67 -159 -83 -165 -77 -27 3 64 12 119 27
162 34 100 222 472 297 590 37 58 85 140 106 183 28 58 47 83 73 98 28 17 34
25 29 44 -10 38 50 61 77 29z m-370 -64 c15 0 10 -28 -6 -37 -8 -5 -18 -30
-21 -58 -4 -28 -12 -57 -18 -65 -21 -27 -39 -70 -33 -76 4 -4 11 5 16 19 5 14
15 28 21 32 5 3 8 11 5 16 -4 5 -2 9 4 9 5 0 19 15 30 34 25 40 66 57 117 49
42 -7 53 -26 30 -52 -9 -10 -16 -22 -16 -27 0 -5 -30 -58 -65 -119 -36 -60
-108 -193 -160 -295 -51 -102 -102 -194 -113 -203 -19 -17 -20 -17 -26 36 -13
98 8 179 85 329 38 76 69 143 69 149 0 23 -28 -11 -60 -75 -18 -34 -41 -73
-51 -87 -19 -24 -20 -24 -34 -5 -33 44 -6 120 105 302 58 94 87 133 97 129 8
-3 19 -5 24 -5z m-2421 -417 c14 -9 48 -38 77 -65 57 -53 74 -57 161 -37 27 7
62 9 77 5 26 -7 26 -8 -24 -32 -72 -36 -95 -81 -131 -251 -16 -76 -33 -150
-38 -164 l-10 -26 116 -37 c244 -76 285 -76 366 -5 44 39 46 40 46 17 0 -14
-18 -49 -40 -78 -22 -29 -40 -61 -40 -69 0 -9 -9 -22 -20 -29 -12 -7 -20 -23
-20 -40 0 -15 -7 -38 -17 -51 l-16 -24 -271 7 c-149 3 -283 9 -297 12 l-26 6
27 67 c90 220 105 513 40 748 -16 58 -16 63 -1 63 9 0 28 -8 41 -17z m417
-188 c13 -14 23 -35 23 -46 0 -30 -27 -35 -48 -8 -25 29 -52 20 -52 -19 0 -39
17 -52 70 -52 42 -1 44 -2 26 -15 -30 -23 -88 -18 -129 9 -53 36 -67 7 -22
-46 32 -37 31 -42 -5 -75 -54 -48 -30 -77 40 -49 22 9 44 16 49 16 5 0 11 -21
14 -47 5 -46 29 -78 52 -70 10 4 10 12 -1 89 -6 42 -4 49 21 72 33 31 44 27
21 -6 -20 -28 -20 -57 0 -86 18 -26 56 -29 75 -6 12 14 9 20 -16 40 -22 17
-27 26 -18 35 17 17 43 7 67 -24 19 -26 19 -30 6 -69 -34 -94 -118 -110 -286
-53 -113 38 -148 59 -140 82 3 7 12 55 21 106 35 203 75 263 170 252 27 -2 47
-12 62 -30z m1604 -181 c131 -41 131 -41 127 -71 -5 -45 -49 -68 -126 -67 -79
1 -138 27 -174 76 -26 37 -31 105 -10 131 12 14 18 13 56 -14 24 -15 81 -40
127 -55z m-870 -270 c84 -25 156 -71 246 -158 46 -43 83 -83 83 -87 0 -17 -18
-9 -60 26 -23 19 -50 35 -59 35 -10 0 -27 14 -40 31 -31 41 -101 85 -162 99
-38 9 -53 19 -65 41 -17 34 -15 34 57 13z"/>
<path d="M1533 9326 c-102 -48 -148 -148 -148 -321 1 -100 4 -118 33 -190 51
-130 177 -326 336 -524 119 -147 187 -221 206 -221 11 0 61 46 117 108 355
388 503 634 503 837 0 128 -51 238 -134 290 -46 28 -56 30 -145 30 -85 0 -103
-3 -154 -28 -37 -19 -75 -49 -109 -88 -29 -32 -58 -59 -64 -59 -7 0 -24 20
-38 44 -31 54 -75 92 -141 122 -72 34 -189 34 -262 0z"/>
<path d="M3702 9146 c-48 -16 -82 -42 -82 -62 0 -24 18 -24 75 2 69 32 181 36
258 9 80 -27 89 -12 14 24 -80 39 -193 50 -265 27z"/>
<path d="M3785 9036 c-47 -15 -125 -54 -125 -62 0 -3 4 -14 10 -24 8 -15 5
-23 -16 -39 -15 -11 -24 -27 -21 -34 9 -24 134 -78 199 -86 l63 -7 -37 -19
c-52 -26 -48 -39 9 -31 61 8 85 25 108 76 14 31 26 43 47 47 40 8 44 21 11 34
-31 12 -137 89 -131 95 3 2 30 -5 62 -17 65 -22 84 -18 46 12 -72 55 -159 77
-225 55z"/>
<path d="M3325 8253 l-50 -16 45 -13 c63 -18 295 -41 320 -32 13 5 20 15 18
25 -3 14 -12 17 -40 15 -20 -1 -59 7 -87 18 -62 24 -136 25 -206 3z"/>
<path d="M4853 6109 c-8 -8 -13 -39 -13 -76 0 -53 6 -73 41 -140 22 -43 45
-82 50 -87 11 -13 82 62 111 117 16 29 22 60 23 103 0 77 -15 98 -64 90 -54
-10 -63 -10 -101 -2 -23 5 -39 3 -47 -5z"/>
<path d="M2300 6616 c-25 -7 -70 -25 -101 -40 -52 -24 -57 -30 -63 -65 -8 -52
0 -69 38 -79 22 -6 37 -19 51 -46 11 -21 28 -42 38 -47 24 -14 67 8 89 46 25
44 50 148 46 197 -3 38 -6 43 -28 45 -14 1 -45 -4 -70 -11z"/>
<path d="M4879 2453 c-266 -274 -478 -578 -525 -755 -20 -78 -18 -194 6 -271
17 -54 29 -73 70 -110 56 -50 106 -67 199 -67 98 0 164 31 245 114 62 64 69
69 80 52 80 -133 200 -199 329 -182 142 19 220 105 247 269 33 210 -97 469
-453 897 -83 100 -104 120 -122 120 -6 0 -40 -30 -76 -67z"/>
<path d="M3287 2423 c-4 -3 -7 -15 -7 -26 0 -16 5 -18 33 -13 21 4 50 -1 85
-14 73 -28 164 -25 252 7 29 10 -31 23 -173 38 -156 17 -181 18 -190 8z"/>
<path d="M2995 1866 c-41 -18 -69 -51 -61 -72 8 -20 -9 -34 -41 -34 -16 0 -23
-6 -23 -19 0 -24 8 -30 50 -33 33 -2 67 -35 52 -50 -5 -5 -22 -3 -40 3 -19 6
-37 7 -47 2 -12 -7 5 -19 75 -52 107 -51 140 -52 244 -3 68 32 75 39 54 61
-11 10 -8 16 15 33 15 11 27 25 27 32 0 18 -147 86 -205 95 l-50 7 33 17 c17
10 32 20 32 22 0 10 -87 3 -115 -9z"/>
<path d="M3226 1528 c-56 -29 -138 -34 -216 -13 -36 10 -78 20 -95 22 l-30 5
34 -26 c84 -63 247 -80 338 -35 33 17 49 31 51 47 4 29 -28 29 -82 0z"/>
<path d="M497 8736 c-82 -30 -113 -86 -105 -195 8 -101 71 -217 218 -395 42
-51 79 -86 90 -86 21 0 135 119 210 218 64 86 119 195 126 252 23 177 -146
271 -275 154 -46 -41 -54 -42 -75 -9 -34 52 -129 82 -189 61z"/>
<path d="M6114 2468 c-121 -130 -215 -260 -251 -349 -25 -62 -24 -154 3 -199
57 -99 185 -108 269 -20 l28 30 43 -40 c77 -71 168 -78 230 -16 108 108 46
304 -180 571 -79 93 -76 93 -142 23z"/>
<path d="M5870 1751 c-16 -30 -13 -37 35 -91 25 -28 45 -53 45 -56 0 -3 -10
-24 -22 -47 -20 -40 -22 -60 -29 -397 -5 -237 -4 -361 3 -375 19 -36 92 -106
128 -121 93 -40 220 -23 302 39 62 48 69 84 79 396 4 160 12 285 19 301 6 15
24 37 41 49 44 33 34 81 -17 81 -12 0 -49 25 -85 56 -82 74 -109 84 -221 84
-105 0 -163 21 -199 71 -24 34 -63 39 -79 10z m299 -366 c25 -8 63 -15 87 -15
68 0 68 2 57 -285 -8 -232 -10 -257 -29 -282 -45 -62 -140 -80 -221 -43 -77
34 -78 42 -66 394 6 167 14 309 17 315 4 6 28 -6 59 -29 29 -22 72 -47 96 -55z"/>
</g>
</svg>
