<svg version="1.0" xmlns="http://www.w3.org/2000/svg"
 width="691.000000pt" height="1056.000000pt" viewBox="0 0 691.000000 1056.000000"
 preserveAspectRatio="xMidYMid meet">
<g transform="translate(0.000000,1056.000000) scale(0.100000,-0.100000)"
fill="#000000" stroke="none">
<path d="M600 9911 c-74 -24 -129 -71 -154 -133 -13 -30 -16 -84 -16 -290 0
-139 -3 -270 -7 -291 -4 -25 -18 -50 -39 -71 -21 -21 -34 -43 -34 -58 0 -22 6
-27 36 -33 24 -4 50 -21 78 -49 70 -73 115 -90 223 -88 107 3 145 -9 199 -63
45 -45 74 -44 88 3 8 30 6 35 -32 68 -51 43 -60 69 -35 96 16 18 19 51 26 372
9 385 8 402 -45 462 -48 54 -101 77 -188 80 -41 2 -86 0 -100 -5z m170 -99
c19 -9 43 -33 55 -52 19 -33 20 -55 24 -352 4 -359 4 -359 -66 -298 -57 50
-129 80 -194 80 -43 0 -58 4 -63 16 -3 9 -6 129 -6 267 0 235 1 254 20 285 39
64 156 92 230 54z m-117 -726 c43 -18 94 -73 81 -86 -15 -15 -93 -14 -129 0
-56 21 -91 70 -68 93 11 12 82 8 116 -7z"/>
<path d="M1129 9559 c-1 -2 -5 -292 -10 -644 -4 -352 -10 -851 -13 -1110 -7
-536 -13 -1232 -21 -2235 -3 -382 -7 -807 -10 -945 -3 -137 -8 -475 -10 -750
-3 -275 -7 -723 -10 -995 -3 -272 -8 -783 -11 -1136 -7 -695 -8 -691 44 -681
20 4 2039 -10 2167 -14 11 -1 99 0 195 1 96 1 627 -3 1180 -7 553 -5 1016 -6
1030 -3 l25 6 1 160 c0 87 4 402 8 699 14 1176 66 6904 66 7377 0 217 -1 237
-17 242 -24 7 -4612 42 -4614 35z m1335 -61 c18 -10 18 -20 13 -162 -7 -182
-29 -281 -92 -414 -25 -52 -45 -102 -45 -110 0 -8 37 -52 83 -96 92 -89 130
-155 162 -281 14 -53 27 -79 54 -106 20 -20 42 -38 49 -40 10 -3 -20 -63 -95
-194 -60 -105 -145 -252 -189 -329 -48 -84 -100 -160 -131 -193 -29 -30 -53
-61 -53 -69 0 -13 -196 -210 -319 -319 -41 -38 -44 -38 -57 -20 -21 28 -18 38
22 80 103 110 106 183 9 284 -46 49 -54 63 -57 101 l-3 45 -56 0 c-47 1 -63 6
-100 33 -83 61 -163 62 -232 3 -46 -40 -70 -51 -114 -51 -57 0 -67 -11 -64
-69 2 -49 1 -51 -39 -77 -28 -19 -44 -24 -51 -17 -7 7 -8 324 -2 1001 8 818
11 993 23 1007 13 15 63 16 639 9 375 -4 634 -11 645 -16z m493 12 c68 0 77
-2 102 -28 15 -15 38 -54 50 -86 32 -87 9 -129 -37 -66 -56 76 -124 77 -317 6
-182 -67 -169 -55 -142 -131 8 -22 22 -89 31 -149 23 -156 55 -201 154 -213
52 -6 63 -18 40 -41 -17 -17 -53 -15 -139 8 -112 30 -151 24 -230 -32 -23 -16
-68 -2 -80 26 -9 18 -6 32 11 66 67 131 97 260 111 475 8 122 13 153 27 164
13 10 51 12 181 7 90 -3 198 -6 238 -6z m1506 -20 l129 0 91 -93 c51 -51 113
-106 140 -123 73 -45 61 -60 -44 -56 -95 4 -144 -10 -192 -56 -73 -69 -77
-141 -23 -374 20 -87 36 -168 36 -181 0 -24 -31 -59 -63 -71 -12 -4 -30 2 -47
14 -34 24 -53 25 -85 4 -63 -41 -116 15 -58 62 28 23 28 23 5 24 -36 0 -60
-17 -67 -50 -14 -63 40 -100 114 -80 55 15 71 6 71 -40 0 -50 11 -56 41 -24
13 14 45 37 71 50 39 20 49 31 59 65 11 35 10 50 -10 117 -71 236 -84 347 -46
411 40 68 154 99 240 66 55 -21 58 -35 6 -35 -43 0 -101 -17 -101 -30 0 -5 15
-10 33 -12 l32 -3 -36 -20 c-69 -39 -148 -100 -148 -115 0 -8 6 -24 14 -34 8
-11 15 -29 15 -41 0 -57 110 -97 153 -57 21 19 67 42 87 42 16 0 22 -111 11
-200 -16 -125 -46 -205 -146 -392 -48 -90 -89 -179 -92 -198 -7 -49 -90 -169
-133 -192 -30 -17 -51 -19 -147 -16 l-112 4 -113 56 c-62 31 -151 74 -198 97
-47 22 -115 63 -151 90 -100 76 -142 137 -224 328 -10 22 -23 33 -45 38 -23 5
-36 16 -45 38 -13 30 -12 34 14 62 16 17 32 44 35 60 4 17 31 71 61 120 60
102 150 282 185 368 18 47 29 61 58 72 19 8 44 15 56 15 12 0 27 5 34 12 7 7
12 9 12 5 0 -4 -21 -27 -46 -50 -27 -26 -45 -50 -43 -60 3 -14 17 -10 93 25
114 52 153 56 296 24 63 -14 116 -24 117 -22 2 2 -14 19 -36 39 -71 64 -178
80 -341 50 l-35 -6 50 40 c59 47 117 110 163 176 39 57 61 68 127 62 28 -3
108 -5 178 -5z m-439 -22 c-4 -13 -16 -35 -27 -50 -38 -52 -7 -42 48 15 80 83
99 74 45 -20 -37 -64 -110 -124 -185 -152 -69 -26 -67 -26 -63 2 2 15 18 29
55 47 60 29 88 53 79 69 -5 8 -16 6 -36 -4 -37 -19 -70 -19 -70 0 0 8 10 20
23 26 12 7 42 29 66 51 50 44 76 50 65 16z m1680 3 c22 -19 24 -296 2 -304
-16 -7 -71 61 -133 162 -21 35 -47 69 -56 75 -21 13 -24 10 -124 -134 -103
-147 -133 -211 -133 -278 0 -92 42 -140 137 -160 36 -7 38 -10 41 -51 5 -64
-14 -80 -86 -74 -49 4 -62 2 -94 -20 l-36 -25 -60 166 c-83 232 -110 320 -127
419 -18 105 -20 214 -2 232 18 19 647 12 671 -8z m-729 -1 c4 -6 11 -57 16
-113 13 -134 36 -231 114 -467 122 -374 148 -502 149 -735 1 -195 -18 -292
-81 -437 -28 -62 -53 -75 -73 -37 -9 16 -6 36 14 97 61 182 74 414 36 604 -27
128 -107 394 -160 528 -23 58 -45 134 -50 170 -5 36 -16 110 -24 165 -16 103
-21 217 -9 228 10 11 61 8 68 -3z m541 -118 c21 -13 167 -246 182 -290 42
-123 -27 -224 -122 -181 -32 15 -43 51 -52 167 -4 51 -11 95 -15 98 -5 3 -9
-1 -9 -8 -1 -51 -22 -201 -31 -221 -11 -24 -47 -47 -74 -47 -28 0 -67 25 -81
51 -20 40 -18 122 6 172 11 23 47 78 81 122 33 44 67 95 75 113 15 33 21 37
40 24z m-2499 -26 c16 -14 35 -42 41 -63 10 -33 9 -41 -7 -63 -14 -18 -26 -24
-47 -22 -57 7 -72 46 -18 47 26 0 29 4 29 30 0 26 -4 30 -32 33 -55 5 -82 -66
-49 -130 14 -26 14 -26 -14 -17 -39 14 -55 49 -41 90 25 71 -4 83 -45 18 -24
-39 -27 -41 -64 -35 -50 8 -60 -8 -26 -43 31 -33 32 -38 5 -67 -13 -13 -19
-32 -17 -48 l3 -25 44 29 c52 35 71 37 102 10 l24 -20 -28 6 c-33 8 -84 -12
-97 -37 -18 -33 -12 -75 13 -86 42 -20 76 19 42 47 -20 16 -19 26 2 35 12 4
25 -2 40 -20 27 -31 29 -62 7 -94 -15 -21 -23 -23 -75 -19 -62 4 -94 24 -110
66 -8 20 -49 268 -49 294 0 9 11 14 155 74 102 43 170 46 212 10z m2693 -531
c0 -72 -28 -105 -89 -105 -48 0 -60 16 -64 87 l-2 48 63 6 c34 3 65 9 69 12
16 17 23 3 23 -48z m-3002 -22 c82 -16 92 -20 90 -38 -3 -19 -9 -20 -112 -17
-66 2 -126 -1 -153 -9 -53 -14 -61 -8 -38 28 39 60 65 64 213 36z m2685 -106
c18 -8 49 -35 71 -61 l38 -47 53 51 c48 45 59 50 98 50 77 0 93 -52 20 -63
-100 -16 -141 -151 -122 -397 12 -157 21 -223 69 -490 54 -301 60 -346 60
-454 0 -158 -35 -211 -137 -209 -71 2 -137 33 -160 75 -15 27 -18 55 -17 163
0 113 6 156 42 328 54 258 66 367 66 627 l1 215 -27 46 c-51 87 -142 143 -107
66 9 -21 9 -30 -1 -42 -18 -22 -43 -19 -74 10 -44 41 -27 110 34 134 35 14 56
13 93 -2z m274 -188 c15 -5 31 -16 35 -22 4 -7 8 -207 8 -444 0 -378 -2 -433
-15 -433 -8 0 -15 3 -15 6 0 4 -14 72 -31 153 -59 286 -83 551 -59 666 17 86
26 94 77 74z m-271 -25 c12 -49 -4 -346 -25 -464 -40 -224 -89 -430 -102 -430
-17 0 -57 19 -73 35 -19 19 -18 24 24 135 74 200 92 426 54 692 -6 45 -6 47
22 51 77 11 93 8 100 -19z m-1864 -61 c8 -10 25 -43 37 -73 34 -79 66 -128
130 -193 44 -46 53 -60 42 -67 -33 -20 -518 36 -557 65 -37 26 -4 32 73 13 91
-22 259 -34 329 -23 47 8 44 9 -66 21 -63 7 -141 18 -172 24 -59 11 -133 38
-126 45 2 2 54 -5 115 -17 76 -14 126 -18 158 -14 26 4 45 9 43 11 -2 2 -37 9
-78 15 -94 14 -164 36 -182 57 -12 14 -10 16 17 10 17 -4 75 -9 130 -12 119
-7 112 5 -17 30 -49 10 -88 22 -88 26 0 5 37 9 82 9 72 0 80 2 63 14 -11 7
-33 17 -50 23 -16 5 -31 17 -33 25 -2 12 6 14 46 10 31 -2 52 0 56 7 10 16 31
13 48 -6z m-317 -322 c178 -39 435 -71 570 -71 45 0 70 -6 99 -24 39 -23 39
-24 15 -32 -70 -24 -456 3 -669 47 -181 37 -188 41 -150 79 25 25 25 25 135 1z
m-60 -105 c239 -55 524 -86 795 -86 148 0 159 -1 186 -22 l29 -23 -55 -7 c-30
-3 -143 -6 -250 -7 -300 -2 -528 30 -807 111 -54 15 -73 25 -73 38 0 9 3 20 7
24 9 8 8 8 168 -28z m1597 -78 c21 -21 21 -24 14 -262 -10 -349 -38 -660 -82
-906 -26 -145 -66 -304 -80 -321 -18 -20 -146 -34 -173 -19 -10 5 -45 51 -76
102 -75 121 -227 324 -351 468 -162 190 -523 544 -879 863 -35 31 -38 36 -22
43 10 4 85 -5 165 -19 81 -15 194 -32 252 -39 132 -15 471 -16 745 -2 185 10
215 13 255 34 25 12 56 33 70 45 16 16 41 25 70 28 25 2 51 4 58 5 6 1 22 -8
34 -20z m-1686 -87 c12 -8 26 -22 32 -32 10 -16 6 -18 -41 -24 -29 -3 -108 -5
-176 -3 -106 3 -125 6 -135 21 -9 14 -7 21 12 35 18 14 45 17 155 17 96 0 138
-4 153 -14z m-281 -177 c555 -451 1026 -954 1352 -1444 142 -213 308 -511 299
-535 -4 -11 -17 -14 -46 -11 l-40 3 -100 167 c-409 680 -806 1144 -1502 1755
-70 61 -130 116 -134 123 -9 15 35 51 50 40 6 -5 60 -48 121 -98z m-1159 65
c29 -27 48 -66 58 -121 l7 -38 55 0 c99 0 154 -49 154 -138 0 -86 -43 -122
-155 -131 -63 -5 -70 -8 -67 -26 22 -123 -30 -195 -141 -195 -74 0 -123 51
-136 139 l-6 46 -74 6 c-69 5 -76 8 -107 42 -30 32 -34 43 -34 91 0 90 42 128
154 136 l70 5 3 59 c4 72 27 115 73 139 46 24 112 18 146 -14z m1584 -15 c21
-21 22 -27 10 -34 -46 -29 -257 -25 -290 5 -45 41 -11 54 141 54 111 1 116 0
139 -25z m1824 -40 c22 -8 21 -61 -1 -73 -30 -15 -189 -45 -207 -38 -13 5 -16
16 -14 44 3 37 4 38 63 55 62 17 132 22 159 12z m-1709 -65 c37 -18 44 -44 13
-53 -13 -3 -77 -8 -143 -11 -131 -7 -167 2 -173 42 -3 19 4 22 70 31 92 13
196 9 233 -9z m1857 -16 c24 -21 23 -70 -2 -281 -78 -639 -187 -1145 -322
-1502 -22 -58 -44 -111 -50 -117 -10 -12 -68 -19 -68 -8 0 3 11 23 24 43 32
51 50 106 75 232 12 58 42 179 67 270 52 190 112 481 148 720 31 200 66 507
66 573 0 78 24 105 62 70z m-178 -59 c22 -9 20 -51 -4 -64 -28 -15 -169 -43
-186 -36 -21 8 -17 53 6 66 21 11 124 38 152 39 9 1 23 -2 32 -5z m-1550 -40
c9 -8 21 -24 26 -35 10 -18 6 -19 -123 -19 -107 0 -137 3 -147 15 -10 12 -10
18 0 29 15 19 37 23 142 25 67 1 90 -3 102 -15z m1554 -86 c16 -16 15 -53 -2
-67 -18 -15 -151 -43 -185 -39 -22 3 -26 8 -26 38 l0 35 90 22 c108 26 108 26
123 11z m-1419 -45 l36 -38 -75 -6 c-206 -17 -280 -7 -280 37 0 32 33 38 209
42 72 2 73 2 110 -35z m-2374 -111 c45 -34 55 -50 71 -109 2 -8 20 -13 42 -13
29 0 45 -7 63 -26 43 -46 96 -66 171 -66 58 1 70 -2 82 -20 29 -42 -36 -109
-134 -139 -97 -29 -108 -39 -93 -80 7 -18 11 -34 9 -37 -2 -2 -43 33 -90 77
-47 45 -90 81 -96 81 -6 0 -16 -11 -22 -25 -15 -34 -44 -32 -63 5 -12 23 -15
67 -15 203 0 160 3 187 19 187 3 0 28 -17 56 -38z m2449 19 c16 -3 40 -21 54
-38 l25 -33 -122 0 c-109 0 -123 2 -142 21 -23 23 -13 45 24 52 33 6 128 5
161 -2z m1307 -1 c24 -13 24 -42 0 -64 -25 -23 -189 -45 -200 -27 -10 16 -3
49 12 58 12 8 136 42 155 42 7 1 22 -4 33 -9z m-1155 -135 c13 -9 24 -24 24
-34 0 -17 -12 -19 -132 -23 -73 -3 -144 -2 -157 2 -30 8 -50 35 -36 49 31 31
256 36 301 6z m-1666 12 c0 -1 -4 -18 -10 -37 -5 -19 -14 -70 -20 -113 -11
-91 -30 -128 -82 -162 -21 -14 -38 -30 -38 -36 0 -6 27 -40 60 -76 58 -62 76
-103 44 -103 -8 0 -40 27 -71 60 -71 78 -89 82 -149 36 -52 -40 -96 -52 -151
-41 -77 14 -252 123 -237 147 15 24 97 50 160 50 53 0 77 -5 127 -30 34 -17
65 -28 69 -24 4 4 -19 35 -51 69 -82 85 -139 172 -121 183 10 6 24 -3 49 -33
66 -79 164 -177 177 -177 16 0 24 23 24 73 0 92 43 176 104 203 26 11 116 20
116 11z m710 -94 c95 -101 190 -225 190 -250 0 -8 7 -27 15 -43 8 -16 24 -76
35 -134 28 -144 15 -227 -58 -372 -57 -113 -146 -216 -367 -429 -549 -526
-608 -594 -950 -1090 -65 -93 -123 -176 -130 -183 -10 -11 -19 -8 -48 17 -19
17 -41 31 -50 31 -8 0 -18 12 -22 28 -4 17 -68 88 -170 189 -90 89 -169 171
-174 182 -15 28 -14 56 4 71 22 18 36 6 239 -189 98 -94 183 -171 190 -171 19
0 54 42 186 225 231 319 296 392 690 785 207 206 398 404 425 440 155 212 188
403 101 585 -41 86 -67 122 -186 253 l-93 103 23 24 c13 14 31 25 41 25 9 0
59 -44 109 -97z m2134 74 c9 -15 6 -22 -16 -42 -30 -26 -118 -48 -170 -43 -29
3 -33 6 -33 33 0 34 28 52 103 65 68 12 103 8 116 -13z m-2387 -39 c-4 -12
-101 -117 -217 -233 -180 -180 -213 -208 -228 -199 -9 6 -18 19 -20 28 -4 16
214 248 366 390 66 61 76 67 89 53 10 -10 13 -24 10 -39z m150 -130 c50 -51
109 -122 132 -157 95 -147 106 -300 33 -464 -53 -119 -122 -199 -497 -572
-401 -400 -457 -463 -693 -778 -111 -149 -161 -207 -173 -205 -24 4 -397 356
-417 393 -22 42 -19 537 4 573 13 20 16 21 37 7 21 -13 27 -13 60 4 l37 19 0
-43 c0 -28 7 -51 21 -69 20 -25 20 -28 4 -46 -35 -39 6 -80 45 -45 18 16 22
16 61 1 49 -20 74 -14 93 22 19 38 39 166 31 202 l-7 30 -56 -6 c-31 -3 -74
-10 -96 -16 -21 -5 -40 -7 -43 -4 -12 11 29 57 68 76 22 12 83 50 136 85 128
87 156 95 225 65 38 -16 69 -22 108 -20 102 4 132 0 188 -25 30 -14 68 -25 85
-25 32 0 67 24 67 46 0 7 11 25 24 41 13 15 33 48 46 73 12 25 35 61 50 80 41
52 90 155 90 189 0 44 -55 109 -138 164 l-72 49 21 30 c36 49 407 418 422 418
7 0 54 -42 104 -92z m1146 71 c22 -12 37 -28 37 -41 0 -11 -61 -20 -152 -21
l-83 -2 -3 -30 c-5 -55 -9 -58 -43 -38 -29 16 -109 110 -109 127 0 4 21 6 48
4 42 -3 48 -6 61 -35 17 -38 41 -44 41 -10 0 45 18 53 123 56 32 0 68 -4 80
-10z m1048 -19 c26 -14 24 -46 -4 -64 -24 -17 -163 -40 -178 -30 -13 8 -11 50
4 62 6 6 44 17 82 25 39 9 71 16 73 16 2 1 12 -4 23 -9z m631 -67 c18 -10 39
-31 47 -45 13 -23 13 -28 -12 -59 -21 -27 -34 -34 -64 -36 -21 -1 -52 -4 -70
-8 -29 -6 -37 -2 -87 45 -57 54 -67 78 -42 99 42 35 171 38 228 4z m-1572 -26
c19 -14 50 -58 50 -69 0 -5 -64 -8 -142 -8 -118 0 -145 3 -160 17 -50 45 2 72
137 72 64 0 106 -4 115 -12z m948 -69 c3 -25 -1 -28 -50 -42 -29 -8 -79 -17
-110 -21 l-58 -6 0 29 c0 16 6 34 13 40 22 19 81 31 142 29 57 -2 60 -3 63
-29z m-3664 -40 c8 -13 17 -54 21 -93 4 -38 16 -103 26 -144 11 -41 17 -83 14
-92 -3 -10 -25 -29 -49 -43 -51 -30 -96 -80 -96 -106 0 -25 27 -55 90 -98 32
-22 56 -47 58 -59 2 -12 -10 -59 -26 -105 -16 -46 -35 -117 -41 -157 -13 -82
-23 -101 -53 -101 -19 0 -20 5 -16 93 3 54 12 110 23 137 10 25 20 66 22 93 5
47 4 48 -50 98 -91 83 -97 136 -20 195 72 55 89 124 58 228 -15 50 -20 157 -8
169 13 13 33 7 47 -15z m3611 -58 c21 -8 26 -16 23 -38 -3 -24 -9 -29 -69 -44
-37 -9 -84 -18 -105 -20 -35 -3 -39 -1 -42 22 -4 39 11 52 85 71 85 22 77 21
108 9z m-691 -91 c14 -17 26 -34 26 -38 0 -13 -134 -23 -211 -15 -85 8 -118
29 -100 62 11 21 18 22 135 22 l124 0 26 -31z m1350 -17 c74 -44 96 -127 77
-298 -14 -123 -76 -383 -96 -403 -12 -13 -18 -13 -40 -1 -47 25 -63 68 -94
250 -16 96 -33 210 -37 253 -4 42 -11 77 -15 77 -5 0 -9 23 -9 50 0 41 5 56
26 77 24 24 30 25 91 20 36 -4 79 -15 97 -25z m-647 -38 c12 -32 -12 -49 -93
-66 -110 -23 -131 -22 -139 3 -10 30 16 52 78 65 82 18 146 17 154 -2z m-2704
-56 c40 -20 48 -43 17 -53 -12 -4 -22 -19 -26 -41 -4 -20 -19 -62 -34 -93 -43
-88 -43 -124 -1 -146 32 -16 61 -42 61 -54 0 -5 -20 -14 -44 -21 -34 -9 -53
-10 -77 -1 -45 15 -44 15 -57 -28 -7 -21 -19 -44 -27 -51 -8 -7 -54 -12 -117
-13 -90 -2 -108 1 -145 21 -53 28 -63 46 -63 120 0 67 25 224 40 253 12 22
132 81 213 104 127 36 192 37 260 3z m2063 14 c16 -10 34 -48 27 -56 -11 -10
-203 -7 -224 4 -21 12 -26 46 -6 53 19 8 191 7 203 -1z m-881 -74 c43 -23 50
-32 306 -388 284 -397 279 -389 279 -409 0 -25 -139 -13 -177 15 -15 11 -114
142 -219 290 -105 148 -205 285 -222 304 -30 35 -31 35 -106 33 -42 -1 -88 2
-102 7 -25 10 -26 13 -22 74 6 95 12 99 133 94 63 -3 111 -10 130 -20z m-1705
-13 c11 -13 11 -28 0 -83 -7 -37 -16 -121 -20 -186 -6 -99 -10 -121 -26 -133
-33 -24 -39 -10 -42 108 -3 111 16 247 39 291 12 22 32 23 49 3z m2664 -31
c23 -22 20 -51 -6 -58 -13 -3 -69 -6 -125 -6 -79 0 -105 3 -117 16 -21 21 -20
30 6 48 32 23 220 23 242 0z m306 -104 c139 -94 190 -361 106 -546 -30 -65
-70 -94 -141 -101 -129 -13 -230 79 -270 249 -39 167 7 362 98 419 51 32 141
23 207 -21z m-1501 -63 c19 -24 24 -74 11 -126 -11 -46 -15 -51 -39 -51 -15 0
-32 5 -39 12 -16 16 -16 150 0 166 16 16 53 15 67 -1z m175 -18 c33 -38 28
-62 -20 -106 -35 -31 -81 -50 -93 -38 -3 4 -6 35 -6 70 0 48 5 68 19 84 28 31
69 27 100 -10z m2107 -304 c107 -110 205 -213 217 -229 27 -35 31 -106 6 -106
-18 0 -239 200 -332 301 -44 48 -71 69 -87 69 -25 0 -18 8 -263 -321 -172
-232 -254 -323 -622 -689 -196 -195 -377 -382 -402 -415 -124 -164 -176 -333
-149 -480 22 -120 74 -202 245 -390 70 -76 70 -77 54 -103 -9 -15 -24 -29 -34
-30 -36 -8 -259 239 -314 347 -67 133 -79 293 -34 432 60 181 176 335 418 557
213 195 443 425 562 563 121 140 213 264 378 507 95 141 141 200 150 195 7 -5
100 -98 207 -208z m-2021 170 c24 -29 -27 -86 -103 -114 -24 -9 -31 -8 -53 14
-13 13 -24 28 -24 32 0 15 115 82 141 82 15 1 32 -6 39 -14z m81 -106 c13 -26
-2 -53 -53 -89 -50 -37 -92 -39 -113 -6 -25 38 -15 50 83 102 46 25 67 23 83
-7z m-409 -59 c29 0 77 -50 149 -153 38 -55 69 -104 69 -109 0 -5 -12 -8 -27
-6 -22 2 -37 19 -78 85 -88 143 -113 157 -251 147 -79 -7 -112 3 -82 23 15 9
153 22 183 17 11 -2 28 -4 37 -4z m476 -32 c16 -16 16 -88 -1 -88 -7 0 -28
-10 -47 -23 -56 -38 -69 -39 -95 -12 -32 31 -23 56 36 101 45 35 86 43 107 22z
m1894 -193 c113 -107 208 -201 212 -210 9 -25 7 -548 -3 -563 -6 -10 -21 -12
-52 -7 -41 6 -47 4 -104 -41 -73 -57 -262 -183 -329 -218 -54 -29 -108 -33
-146 -11 -16 9 -56 14 -116 15 -67 0 -115 7 -178 25 -118 34 -133 33 -145 -9
-5 -19 -28 -61 -50 -92 -23 -32 -41 -63 -41 -69 0 -6 -23 -50 -51 -96 -64
-104 -73 -157 -36 -206 28 -38 85 -85 139 -115 21 -12 38 -26 38 -31 0 -5 -68
-80 -151 -166 -266 -274 -273 -281 -297 -274 -30 8 -180 167 -235 251 -59 88
-82 170 -74 267 12 139 69 265 171 381 50 57 84 72 71 32 -3 -13 -9 -67 -12
-120 l-6 -98 31 0 c71 0 186 36 204 64 12 18 9 72 -6 101 -9 16 -12 41 -9 61
5 29 3 34 -14 34 -10 0 -24 -5 -31 -12 -9 -9 -21 -8 -51 2 -21 7 -51 10 -64 6
-61 -15 -34 22 134 188 96 94 191 182 212 196 20 14 39 32 42 40 3 8 51 62
107 120 180 187 337 375 493 590 92 128 120 160 136 160 3 0 99 -88 211 -195z
m-1822 87 c35 -28 21 -62 -42 -106 -61 -41 -78 -44 -103 -16 -25 28 -13 59 43
102 54 42 71 45 102 20z m848 -178 c264 -6 282 -7 282 -25 0 -10 -10 -30 -23
-44 l-22 -27 -1122 8 -1122 7 10 21 c6 12 21 30 34 41 24 20 41 20 852 23 455
1 955 -1 1111 -4z m-185 -498 c23 -11 22 -20 -6 -52 l-24 -27 -1116 1 c-614 0
-1121 3 -1127 7 -25 15 -9 46 33 65 41 19 72 20 1132 17 600 -1 1098 -6 1108
-11z m-2245 -115 c11 -6 7 -20 -17 -63 -21 -37 -42 -103 -65 -204 -19 -82 -51
-207 -71 -279 -92 -335 -161 -738 -200 -1165 -20 -220 -20 -220 -48 -220 -61
1 -63 24 -23 345 82 644 193 1155 323 1470 51 124 64 140 101 116z m405 -26
c10 -16 57 -95 104 -175 220 -373 465 -700 788 -1051 162 -176 329 -336 615
-589 224 -198 224 -198 209 -217 -19 -22 -39 -15 -90 31 -50 45 -85 61 -95 44
-3 -5 1 -17 10 -27 20 -22 20 -37 0 -45 -10 -4 -26 6 -47 29 l-30 35 -18 -30
c-22 -35 -30 -37 -181 -44 -87 -5 -118 -3 -118 6 0 6 -8 20 -17 30 -15 16 -15
21 -3 28 22 14 130 22 231 19 96 -4 127 8 67 26 -38 12 -50 35 -16 35 13 -1
39 -14 58 -30 19 -17 40 -30 47 -30 33 0 5 36 -99 127 -447 390 -760 715
-1007 1042 -201 268 -293 408 -396 608 -31 59 -70 126 -87 147 -30 38 -31 39
-12 53 29 21 66 12 87 -22z m522 23 c25 -11 152 -181 349 -464 42 -61 90 -123
105 -138 40 -38 94 -55 160 -49 70 5 89 -6 75 -44 l-10 -28 -110 0 c-80 0
-116 4 -128 14 -19 16 -493 672 -502 695 -3 8 2 16 13 19 10 3 19 5 20 6 1 0
14 -4 28 -11z m185 -8 c24 -24 37 -25 79 -4 29 14 34 14 56 0 36 -24 31 -49
-17 -91 -71 -60 -123 -62 -122 -5 0 19 4 43 8 53 7 16 3 17 -35 15 -35 -2 -44
1 -47 15 -2 11 5 21 20 26 33 14 36 13 58 -9z m-875 -19 c105 -47 175 -195
175 -372 0 -179 -77 -299 -193 -299 -57 0 -103 18 -136 54 -14 14 -33 26 -43
26 -10 0 -18 7 -18 15 0 9 -12 39 -26 67 -36 71 -57 179 -50 254 9 84 33 162
63 203 50 65 149 88 228 52z m1312 -65 c28 -44 66 -93 83 -110 30 -30 33 -31
138 -34 59 -2 111 -7 116 -12 18 -17 -40 -32 -134 -33 l-99 -2 -36 35 c-42 41
-156 196 -163 223 -4 15 0 18 19 15 17 -2 39 -25 76 -82z m-208 -40 c12 -25
11 -31 -6 -55 -11 -14 -41 -37 -67 -50 -39 -20 -51 -22 -71 -13 -18 8 -25 19
-25 40 0 24 10 36 58 70 65 47 91 49 111 8z m2185 -96 c-1 -63 -9 -105 -28
-161 -14 -41 -26 -79 -26 -82 0 -4 29 -38 64 -77 36 -39 68 -79 71 -90 10 -30
-21 -84 -74 -129 -59 -49 -66 -73 -47 -154 31 -130 30 -212 -2 -224 -24 -10
-39 22 -45 99 -4 40 -16 106 -27 145 -11 40 -20 81 -20 92 0 12 26 37 70 69
107 78 103 106 -22 199 -30 22 -48 42 -48 55 0 12 13 62 29 113 17 50 33 116
37 146 9 70 20 91 47 87 21 -3 22 -8 21 -88z m-2122 3 c37 -33 15 -91 -45
-116 -57 -23 -94 -22 -107 4 -15 28 5 57 66 98 55 36 61 37 86 14z m-2116 -81
c25 -32 33 -55 39 -104 4 -35 15 -106 25 -158 10 -52 21 -125 25 -162 7 -75
25 -92 25 -25 0 23 5 49 10 57 13 20 13 -145 0 -169 -6 -11 -6 -30 0 -50 11
-38 -4 -56 -61 -71 -49 -14 -109 -5 -169 24 -54 26 -70 62 -77 176 -4 61 4
119 40 304 28 142 49 231 58 237 18 11 46 -8 85 -59z m2196 -38 c15 -33 5 -48
-56 -91 -54 -37 -68 -40 -90 -17 -24 23 -20 33 33 85 57 57 94 65 113 23z
m1468 -24 c19 -5 48 -21 64 -34 29 -23 30 -25 29 -110 -1 -107 -19 -203 -44
-246 -35 -56 -258 -140 -375 -140 -54 0 -142 46 -166 86 -17 29 -17 33 -2 62
8 18 13 36 9 42 -10 16 12 12 55 -10 39 -20 39 -20 50 -1 5 11 10 29 10 40 0
18 -3 19 -25 9 -20 -9 -28 -8 -43 5 -10 10 -25 17 -33 17 -9 0 -23 16 -33 36
l-17 37 31 -7 c26 -5 33 -2 37 14 7 26 27 25 62 -1 16 -12 37 -19 47 -17 16 4
9 15 -40 62 -32 31 -55 60 -51 64 4 4 13 -2 21 -12 14 -19 14 -19 38 3 25 23
45 24 88 6 14 -6 22 2 37 39 15 34 27 47 48 52 15 3 33 7 38 9 22 8 132 4 165
-5z m184 -16 c24 -9 29 -64 16 -176 -15 -134 -38 -235 -55 -241 -7 -3 -21 0
-30 7 -16 12 -17 19 -1 124 9 61 16 144 16 186 0 54 4 79 16 90 18 18 17 18
38 10z m-1476 -47 c18 -21 26 -121 13 -145 -13 -24 -59 -30 -79 -10 -13 13
-17 149 -5 161 11 12 60 8 71 -6z m-120 -60 c4 -77 -14 -107 -65 -107 -20 0
-45 7 -55 17 -21 19 -24 62 -5 86 22 30 82 68 102 65 17 -3 20 -12 23 -61z
m-897 -217 c25 -14 24 -35 -3 -54 -33 -23 -220 -23 -243 0 -23 24 -14 48 20
55 50 11 205 10 226 -1z m-293 -51 c85 -158 397 -567 445 -584 9 -4 17 -14 17
-24 0 -19 475 -494 620 -619 98 -85 239 -222 240 -233 0 -3 -50 5 -112 17
-234 49 -354 59 -668 59 -162 -1 -372 -5 -465 -11 -169 -9 -171 -10 -215 -42
-47 -33 -147 -72 -185 -72 -48 0 -49 5 -31 383 17 368 32 538 67 747 28 168
74 369 88 383 12 12 75 24 139 26 38 1 45 -2 60 -30z m323 -69 c10 -6 19 -17
19 -25 0 -25 -36 -35 -120 -35 -45 0 -90 5 -101 10 -19 10 -26 40 -12 53 10
11 193 8 214 -3z m-605 -37 c-4 -16 -15 -35 -25 -44 -20 -17 -183 -45 -200
-34 -15 9 -14 52 1 62 14 8 170 40 207 42 20 1 22 -2 17 -26z m745 -82 c20
-16 22 -23 13 -38 -10 -15 -28 -18 -125 -21 -63 -1 -123 0 -135 2 -22 6 -48
51 -39 67 4 5 64 9 134 9 113 0 132 -2 152 -19z m1899 -47 c81 -82 82 -82 152
-38 68 41 122 52 185 35 44 -12 223 -125 223 -141 0 -5 -26 -18 -57 -30 -75
-29 -171 -24 -260 13 -73 30 -73 19 -3 -48 51 -49 130 -159 130 -182 0 -20
-48 6 -56 30 -10 30 -170 190 -186 185 -9 -3 -15 -31 -19 -84 -8 -96 -17 -121
-64 -173 -38 -42 -77 -57 -123 -46 l-29 6 13 51 c8 29 17 81 20 117 8 78 31
121 79 146 19 11 37 25 40 33 3 7 -17 37 -43 65 -51 54 -82 96 -82 109 0 21
31 3 80 -48z m-2672 -5 c4 -35 -13 -46 -101 -65 -87 -17 -117 -10 -117 31 0
31 10 37 95 51 100 17 119 14 123 -17z m2556 15 c13 -13 14 -19 3 -40 -15 -29
-369 -399 -404 -421 -30 -20 -57 -2 -47 31 7 22 411 446 425 446 4 0 15 -7 23
-16z m-3354 -65 c-30 -5 -65 -16 -78 -25 -21 -14 -22 -18 -10 -36 13 -19 25
-22 95 -22 75 -1 84 -3 120 -32 51 -42 52 -78 3 -112 -32 -22 -42 -23 -110
-18 -84 7 -113 22 -141 76 -31 58 -25 93 24 139 39 38 46 41 97 40 l55 -1 -55
-9z m1601 -9 c23 -13 25 -46 3 -54 -9 -3 -55 -6 -104 -6 -91 0 -101 4 -114 48
-7 22 -6 22 94 22 56 0 110 -5 121 -10z m2586 -114 l73 -70 30 29 c29 28 30
28 50 10 19 -17 20 -30 20 -212 l0 -193 -40 20 c-52 27 -80 58 -80 90 0 35
-17 50 -56 50 -21 0 -48 12 -77 34 -69 53 -87 59 -157 58 -71 -1 -90 8 -90 44
0 32 64 92 112 104 21 6 59 20 84 31 48 20 51 28 28 84 -7 18 -6 19 12 6 10
-8 52 -46 91 -85z m-3417 59 c10 -12 10 -22 2 -39 -9 -20 -25 -28 -86 -41 -81
-18 -121 -13 -140 18 -17 26 5 39 101 57 113 23 108 23 123 5z m981 -55 c29
-16 25 -58 -7 -70 -28 -11 -213 -14 -239 -4 -13 5 -45 53 -45 68 0 16 262 21
291 6z m-997 -82 c19 -31 -5 -52 -87 -72 -83 -22 -127 -14 -127 23 0 29 23 42
102 56 87 16 98 15 112 -7z m-16 -141 c5 -38 -17 -53 -94 -66 -83 -15 -119
-14 -134 4 -10 13 -9 19 6 36 23 26 54 39 119 49 82 13 100 9 103 -23z m-705
-11 c44 -18 94 -77 108 -128 20 -77 5 -243 -45 -497 -41 -201 -48 -258 -53
-400 -11 -283 -8 -364 11 -414 18 -47 84 -117 111 -117 18 0 18 2 4 34 -9 20
-9 29 1 41 31 38 90 -1 90 -61 0 -47 -13 -69 -49 -84 -60 -24 -117 3 -178 85
l-22 30 -34 -38 c-44 -51 -86 -77 -122 -77 -63 0 -78 54 -18 65 91 17 129 111
126 315 -1 160 -21 320 -68 560 -41 207 -75 420 -75 472 0 69 21 138 53 175
47 54 96 66 160 39z m1962 -17 c12 -38 -12 -47 -146 -54 l-126 -7 -27 34 c-14
19 -26 38 -26 41 0 4 72 7 159 7 154 0 160 -1 166 -21z m2064 -14 c20 -24 34
-54 43 -95 l12 -60 69 0 c67 0 71 -1 108 -39 35 -35 39 -44 39 -90 0 -29 -7
-65 -15 -80 -18 -36 -71 -61 -128 -61 -69 0 -77 -6 -78 -59 0 -68 -19 -112
-58 -138 -95 -64 -221 12 -221 132 l0 41 -64 -4 c-54 -4 -70 -1 -94 17 -61 43
-79 132 -39 192 40 60 109 81 181 53 14 -5 16 4 16 68 0 82 12 107 64 139 20
12 49 19 82 19 47 0 55 -4 83 -35z m-3331 -87 c4 -36 -25 -54 -111 -68 -73
-13 -97 -5 -97 30 0 26 17 36 90 53 90 22 114 19 118 -15z m-242 -85 c5 -39 8
-43 33 -43 16 0 61 7 100 16 84 19 101 15 101 -25 0 -38 -13 -45 -118 -66 -94
-19 -112 -13 -112 37 0 21 -6 31 -20 35 -24 6 -26 41 -7 111 l12 47 3 -35 c1
-19 5 -54 8 -77z m3194 61 c0 -12 -20 -44 -43 -70 -58 -64 -67 -84 -67 -139 0
-59 18 -93 77 -145 44 -39 48 -45 48 -88 l0 -47 56 0 c44 0 63 -5 90 -26 104
-79 166 -79 257 1 39 35 51 40 93 40 56 0 85 21 69 50 -19 36 -11 59 32 90 22
16 47 30 55 30 16 0 16 29 3 -1139 -8 -674 -14 -898 -23 -909 -10 -13 -95 -14
-637 -8 -409 5 -629 11 -637 18 -18 15 -17 243 2 349 17 99 50 200 94 286 17
34 31 69 31 77 0 9 -35 49 -79 91 -91 88 -139 172 -171 300 -19 80 -23 86 -79
117 -20 11 -31 25 -31 39 0 17 265 494 362 651 13 20 126 137 251 259 232 225
246 235 247 173z m-1650 11 c6 -8 10 -22 8 -32 -3 -15 -17 -19 -83 -25 -92 -8
-136 2 -159 37 -21 31 -14 33 115 34 82 1 109 -2 119 -14z m198 -111 c28 -19
28 -40 0 -56 -26 -14 -226 -18 -270 -5 -16 4 -34 20 -43 37 l-15 29 48 4 c135
10 258 7 280 -9z m-1523 -139 c0 -41 -47 -63 -140 -67 -69 -3 -70 -3 -73 23
-3 23 3 29 40 43 45 18 132 35 158 32 10 -1 15 -12 15 -31z m1583 19 c24 -5
30 -32 10 -52 -8 -8 -49 -12 -118 -12 -101 0 -108 1 -130 25 -15 16 -20 29
-14 35 16 16 178 19 252 4z m193 -114 c22 -12 25 -33 7 -48 -7 -5 -72 -13
-144 -17 l-130 -7 -32 27 c-58 49 -48 52 141 54 79 0 147 -3 158 -9z m-1783
-41 c2 -21 -2 -40 -10 -46 -19 -16 -175 -45 -198 -38 -27 9 -37 52 -17 72 17
18 157 53 197 50 21 -2 25 -8 28 -38z m-399 -16 c35 -43 35 -64 -3 -154 -71
-173 -92 -377 -64 -632 6 -59 9 -109 7 -111 -2 -2 -29 -6 -59 -7 l-55 -4 -14
55 c-23 93 12 378 88 720 37 166 55 191 100 133z m-435 -214 c42 -191 60 -334
60 -494 0 -179 -7 -205 -58 -205 -69 0 -66 -18 -65 478 l1 447 18 -56 c10 -31
30 -108 44 -170z m555 117 c10 -12 6 -35 -18 -111 -50 -154 -64 -259 -58 -420
7 -177 31 -284 136 -595 92 -270 104 -315 125 -463 27 -186 18 -268 -32 -275
-28 -4 -29 -1 -41 143 -14 150 -43 273 -131 540 -111 339 -140 480 -140 690 0
192 41 398 94 480 18 28 47 32 65 11z m2330 -72 c36 -8 36 -19 -1 -47 -22 -17
-42 -19 -154 -18 -95 1 -134 6 -151 17 -31 20 -29 32 10 43 37 11 249 14 296
5z m-798 -84 c175 -18 352 -52 532 -105 61 -17 66 -24 41 -49 -17 -18 -32 -16
-129 15 -141 44 -442 79 -742 86 -213 5 -235 7 -265 27 l-33 21 45 6 c76 10
442 10 551 -1z m-710 -34 c89 -24 397 -172 470 -226 82 -61 134 -128 195 -248
32 -65 57 -101 83 -119 20 -15 40 -30 45 -34 4 -4 -55 -115 -131 -246 -77
-132 -143 -253 -147 -269 -10 -40 -56 -156 -68 -171 -6 -7 -26 -15 -47 -19
-45 -8 -88 -31 -123 -66 -15 -15 -35 -31 -46 -37 -10 -5 -50 -55 -88 -110 -38
-54 -79 -104 -91 -110 -13 -6 -83 -8 -182 -6 -180 5 -193 9 -230 75 -13 24
-30 40 -41 40 -10 0 -20 6 -23 13 -2 6 -8 8 -13 4 -5 -4 -4 -11 1 -15 16 -11
60 -101 53 -107 -3 -3 -51 39 -106 94 -62 63 -94 101 -83 101 9 0 32 -11 51
-25 19 -14 39 -25 46 -25 7 0 14 -5 16 -12 2 -6 9 -8 16 -4 17 10 1 27 -91 96
-43 32 -74 61 -69 64 5 3 47 5 93 4 102 -1 142 16 211 90 67 72 68 88 19 308
-45 203 -48 230 -26 261 21 30 46 33 92 12 38 -17 43 -17 91 -2 42 14 54 14
66 3 23 -18 20 -36 -9 -58 -30 -23 -31 -32 -7 -32 61 0 88 93 36 126 -21 14
-34 15 -78 8 -29 -6 -58 -8 -64 -6 -7 2 -12 21 -12 42 0 21 -5 42 -10 45 -6 4
-30 -11 -54 -32 -24 -21 -59 -47 -77 -58 -30 -18 -34 -26 -37 -67 -3 -43 5
-77 65 -283 21 -75 14 -191 -15 -232 -34 -48 -95 -73 -178 -73 -68 0 -94 10
-94 36 0 7 29 16 70 22 41 6 80 18 95 30 l25 20 -42 -5 -43 -4 26 23 c15 13
52 42 84 66 l57 44 -21 22 c-12 12 -21 32 -21 45 0 36 -17 59 -54 71 -30 10
-38 8 -71 -15 -21 -14 -45 -25 -54 -25 -9 0 -26 -3 -37 -6 -20 -5 -23 0 -33
46 -6 28 -11 88 -11 133 0 136 30 220 169 480 27 50 57 112 67 137 33 84 91
154 149 181 49 23 158 25 236 5z m824 -92 c125 -15 369 -59 386 -70 26 -16
-19 -64 -58 -64 -16 0 -55 9 -87 20 -66 22 -306 56 -461 65 -170 10 -202 15
-232 38 l-28 22 40 7 c57 10 288 0 440 -18z m-140 -104 c66 -5 187 -20 268
-32 123 -18 147 -24 145 -37 -4 -20 -39 -20 -140 2 -46 10 -116 17 -175 16
-81 -1 -91 -3 -58 -10 91 -20 264 -49 288 -49 16 0 27 -6 27 -13 0 -10 -13
-11 -57 -5 -32 4 -100 11 -150 14 -116 8 -125 -8 -15 -25 108 -17 148 -29 163
-48 13 -15 9 -16 -51 -9 -181 18 -177 18 -150 2 14 -8 55 -20 91 -27 l67 -12
-27 -46 c-25 -42 -31 -46 -72 -49 -24 -2 -48 -7 -53 -12 -18 -18 -39 6 -82 97
-34 71 -62 112 -115 168 -69 73 -70 75 -29 84 3 0 59 -4 125 -9z m-1567 -788
c104 -292 142 -448 142 -584 0 -92 16 -88 -345 -88 -180 0 -325 4 -339 10
l-26 10 0 170 c0 143 2 170 15 170 19 0 115 -136 162 -232 21 -42 40 -77 43
-77 3 -1 13 19 23 44 10 24 52 95 94 157 98 148 121 196 128 260 10 90 -33
147 -130 171 -50 12 -50 12 -53 55 -4 60 8 71 78 70 43 -1 67 5 92 20 18 11
38 21 43 21 6 1 38 -79 73 -177z m-403 86 c4 -22 3 -44 -3 -50 -6 -6 -129 -38
-149 -38 -1 0 -5 20 -8 44 -9 55 5 81 47 95 84 26 102 18 113 -51z m3079 64
c11 -18 -25 -73 -57 -87 -29 -12 -46 -11 -145 8 -101 20 -112 24 -110 42 4 26
60 32 139 15 50 -11 61 -10 100 8 49 22 65 26 73 14z m78 -89 c25 -23 23 -42
-18 -151 -52 -138 -74 -256 -83 -428 -4 -82 -11 -155 -15 -162 -12 -19 -458
-17 -496 3 -49 25 -126 192 -104 226 3 6 30 -13 59 -40 50 -48 57 -51 105 -51
58 0 358 93 366 114 3 7 -2 29 -11 49 -13 31 -55 245 -55 278 0 5 -15 25 -34
44 -19 18 -36 39 -38 45 -2 6 -28 17 -57 23 -59 13 -77 33 -38 42 28 7 128 -9
204 -32 52 -16 52 -16 90 9 80 54 96 58 125 31z m-3158 -106 c19 -19 25 -41
35 -132 17 -153 22 -152 40 4 5 51 17 104 25 116 34 52 119 36 150 -29 24 -51
20 -106 -11 -165 -38 -70 -171 -261 -183 -261 -19 0 -195 269 -210 321 -5 15
-4 48 2 73 18 84 101 124 152 73z m2802 12 c34 -9 48 -18 56 -38 8 -19 46
-217 59 -309 4 -24 -12 -35 -108 -75 -179 -76 -253 -72 -287 13 -29 73 -18
114 33 112 39 -1 51 -8 51 -31 0 -12 -7 -17 -21 -17 -25 1 -45 -25 -36 -48 8
-20 56 -21 82 -2 16 11 17 22 12 75 -7 67 4 79 38 41 17 -18 18 -27 8 -73 -6
-29 -9 -54 -8 -55 11 -12 44 13 58 44 17 34 18 35 62 28 54 -8 59 6 19 47
l-26 27 28 37 27 36 -33 70 c-35 71 -59 90 -86 68 -15 -12 -15 -24 1 -61 12
-30 -28 -22 -60 12 -31 32 -29 41 24 87 30 26 44 28 107 12z m-1096 -379 c0
-23 -33 -60 -54 -60 -24 0 -121 -87 -160 -145 -38 -54 -76 -74 -76 -39 0 20
47 87 99 142 23 23 41 46 41 51 0 5 8 11 18 15 9 3 37 17 61 31 53 30 71 31
71 5z"/>
<path d="M1799 9133 c-39 -42 -295 -364 -402 -505 -115 -152 -132 -192 -132
-313 1 -75 5 -99 26 -145 47 -99 105 -140 209 -148 99 -7 151 24 224 134 43
66 56 67 56 7 0 -63 -45 -248 -70 -288 -34 -55 -30 -58 68 -51 51 4 98 3 113
-3 15 -5 32 -6 40 -1 12 8 11 13 -3 37 -23 40 -68 210 -68 258 0 45 9 85 19
85 3 0 25 -29 48 -65 57 -86 112 -119 197 -118 110 2 172 42 220 142 28 60 31
75 31 161 0 81 -4 103 -26 150 -32 68 -489 679 -514 687 -6 2 -22 -9 -36 -24z"/>
<path d="M4075 9118 c-34 -12 -65 -36 -65 -50 0 -6 18 -7 43 -3 l42 6 -30 -25
c-16 -14 -70 -49 -118 -78 l-88 -52 53 -11 c29 -6 74 -23 99 -38 36 -21 65
-29 128 -34 44 -3 81 -10 81 -14 0 -5 -19 -13 -42 -20 -70 -19 -75 -23 -30
-27 66 -5 131 31 160 88 16 31 21 54 17 75 -3 17 -8 46 -11 65 -6 34 -29 57
-112 112 -30 20 -81 22 -127 6z"/>
<path d="M4408 8345 c-20 -7 -48 -21 -62 -30 -18 -12 -36 -15 -60 -11 -38 7
-50 -6 -34 -36 11 -22 33 -23 86 -4 23 8 95 16 165 19 69 3 130 8 136 11 24
15 9 34 -40 49 -61 20 -140 21 -191 2z"/>
<path d="M4533 8237 c-19 -42 -56 -59 -113 -55 -27 1 -50 0 -50 -3 0 -3 11
-16 25 -29 l25 -24 -35 -29 c-24 -20 -35 -37 -35 -55 1 -23 2 -25 11 -9 24 41
91 56 152 32 30 -12 19 22 -15 43 l-31 20 31 16 c44 23 63 55 54 90 l-8 28
-11 -25z"/>
<path d="M4465 7754 c-353 -68 -774 -79 -1052 -29 -78 15 -59 -8 275 -341 309
-309 344 -347 566 -626 130 -164 243 -298 250 -298 18 0 31 36 55 145 51 238
87 521 101 806 15 301 15 350 -1 360 -20 13 -60 9 -194 -17z m117 -36 c9 -7
17 -20 18 -28 5 -40 -2 -52 -42 -70 -48 -20 -228 -44 -298 -38 -43 3 -45 5
-54 40 -5 21 -7 40 -5 43 4 3 317 60 355 64 5 1 17 -5 26 -11z m-448 -73 c23
-23 30 -56 15 -70 -19 -19 -280 -39 -392 -31 -103 7 -152 25 -169 62 -23 50
-4 54 278 54 212 0 255 -2 268 -15z m448 -102 c25 -22 23 -59 -4 -77 -13 -8
-78 -25 -146 -37 -142 -25 -162 -21 -179 35 -10 33 -9 38 10 51 21 13 190 41
266 44 19 0 42 -6 53 -16z m-389 -50 c23 -26 31 -67 15 -81 -20 -16 -177 -34
-286 -33 -91 1 -145 16 -164 45 -12 17 -9 54 5 63 16 11 133 19 288 21 109 2
128 0 142 -15z m385 -105 c7 -7 12 -24 12 -40 0 -36 -39 -57 -129 -69 -36 -5
-78 -12 -93 -15 -55 -11 -98 85 -45 102 85 28 236 41 255 22z m-328 -57 c16
-31 12 -69 -7 -75 -10 -2 -58 -10 -108 -16 -101 -12 -174 -3 -205 25 -59 54
14 79 237 84 62 1 74 -2 83 -18z m328 -128 c4 -45 -25 -61 -129 -69 l-86 -7
-12 33 c-8 24 -8 37 0 46 16 19 85 32 159 31 l65 -2 3 -32z m-282 -17 c22 -34
15 -69 -16 -77 -42 -12 -187 -10 -214 3 -14 6 -28 20 -32 31 -11 35 19 51 108
58 141 10 136 11 154 -15z m30 -134 c19 -12 26 -48 11 -60 -25 -21 -107 -33
-143 -22 -34 12 -53 45 -36 62 22 22 144 36 168 20z"/>
<path d="M1520 7557 c-20 -97 -42 -119 -175 -172 -16 -6 -9 -11 38 -26 72 -22
91 -38 128 -111 16 -31 33 -59 38 -63 6 -3 15 13 21 35 5 22 15 58 20 79 8 31
17 41 42 50 17 6 38 11 47 11 27 0 91 21 91 29 0 5 -26 16 -58 25 -81 22 -99
38 -138 122 -20 41 -37 74 -39 74 -2 0 -9 -24 -15 -53z"/>
<path d="M2593 6770 c-90 -21 -111 -71 -61 -142 10 -14 10 -22 0 -39 -24 -37
16 -63 57 -37 15 9 24 8 45 -5 32 -21 70 -22 86 -2 16 20 36 172 26 208 -6 26
-9 27 -64 26 -31 -1 -72 -4 -89 -9z"/>
<path d="M2633 6321 c-127 -31 -160 -69 -123 -141 16 -32 19 -48 12 -64 -18
-41 7 -59 47 -34 15 9 25 9 46 0 14 -7 39 -12 55 -12 49 0 64 36 69 162 4 125
12 118 -106 89z"/>
<path d="M2265 5903 c-27 -7 -66 -15 -86 -18 -69 -10 -97 -67 -69 -140 6 -16
7 -33 1 -44 -6 -10 -6 -23 -1 -31 7 -12 15 -13 40 -3 22 8 38 8 60 0 39 -15
81 0 98 35 8 18 12 59 10 120 l-3 93 -50 -12z"/>
<path d="M1811 5539 c-79 -15 -108 -64 -80 -135 7 -21 7 -34 -2 -50 -24 -45
14 -72 52 -38 15 13 23 14 54 4 74 -24 104 10 119 132 11 86 4 98 -52 97 -26
-1 -67 -5 -91 -10z"/>
<path d="M1435 5326 c-125 -40 -162 -90 -116 -160 18 -27 18 -31 4 -53 -12
-18 -13 -26 -3 -38 16 -19 34 -19 51 1 10 12 24 14 69 9 60 -7 76 0 101 47 12
23 3 161 -12 191 -11 20 -38 21 -94 3z"/>
<path d="M4479 6241 c-82 -64 -90 -332 -14 -441 53 -77 147 -102 204 -55 43
37 56 84 56 210 0 131 -18 193 -74 256 -33 38 -42 42 -91 46 -45 4 -60 1 -81
-16z m97 -38 c9 -9 36 -60 61 -112 38 -83 42 -99 33 -125 -6 -16 -7 -45 -4
-63 6 -29 2 -38 -32 -71 l-39 -38 -44 30 c-51 34 -66 66 -75 161 -6 58 -3 82
16 140 13 39 27 76 31 83 11 17 32 15 53 -5z"/>
<path d="M5439 5594 c-10 -13 -25 -15 -69 -10 -48 6 -59 4 -78 -14 -29 -27
-36 -58 -30 -142 7 -93 20 -107 85 -90 71 19 136 55 153 85 14 25 13 30 -9 68
-20 36 -21 45 -11 65 11 19 11 26 0 39 -16 19 -24 19 -41 -1z"/>
<path d="M5028 5354 c-14 -14 -21 -15 -46 -5 -84 35 -122 -12 -122 -148 l0
-84 71 7 c136 12 177 50 147 133 -12 34 -14 50 -6 63 13 20 4 50 -15 50 -7 0
-20 -7 -29 -16z"/>
<path d="M5458 5134 c-14 -14 -23 -15 -62 -5 -89 22 -108 -3 -121 -166 l-6
-83 48 0 c73 0 155 25 181 55 26 31 27 50 7 100 -12 28 -13 40 -5 50 15 19 9
59 -10 63 -8 1 -23 -5 -32 -14z"/>
<path d="M4513 4991 c-9 -11 -19 -18 -22 -17 -8 5 -13 -163 -6 -192 5 -22 10
-23 48 -17 70 10 145 36 163 56 13 15 15 28 9 66 -3 27 -7 62 -8 80 -3 42 -12
49 -43 33 -20 -11 -29 -12 -44 -2 -30 18 -78 15 -97 -7z"/>
<path d="M4096 4121 c-23 -25 -41 -134 -32 -193 7 -44 9 -47 34 -43 15 2 53 7
84 10 66 7 121 40 126 74 2 13 -6 37 -18 53 -16 22 -19 36 -14 63 7 42 -13 55
-47 32 -19 -14 -24 -14 -53 4 -39 24 -58 24 -80 0z"/>
<path d="M2135 4867 c-39 -39 -55 -89 -55 -174 0 -125 46 -254 107 -300 56
-43 140 -33 172 20 41 64 53 218 26 322 -30 113 -83 165 -170 165 -40 0 -52
-5 -80 -33z m97 -34 c2 -5 16 -15 32 -23 41 -21 65 -67 74 -141 9 -79 1 -139
-28 -207 -18 -41 -27 -52 -45 -52 -19 0 -32 17 -70 91 -43 83 -47 98 -51 174
-4 81 -3 84 24 107 16 13 31 31 35 41 7 17 23 23 29 10z"/>
<path d="M2275 4118 c-26 -88 -63 -304 -84 -494 -40 -350 -57 -742 -34 -765
10 -10 54 -6 210 19 321 53 356 56 613 56 192 0 266 -4 343 -18 159 -29 165
-13 35 105 -154 138 -424 407 -522 519 -51 58 -184 220 -296 360 -112 140
-208 258 -214 262 -24 16 -36 6 -51 -44z m366 -468 c11 -6 19 -21 19 -35 0
-20 -7 -26 -37 -34 -59 -16 -120 -16 -138 -1 -24 20 -15 63 15 71 39 11 119
10 141 -1z m104 -132 c27 -12 44 -53 29 -68 -9 -9 -161 -30 -217 -30 -23 0
-31 7 -43 36 -25 59 -6 69 138 72 37 1 79 -3 93 -10z m-281 -57 c8 -27 7 -36
-7 -46 -25 -18 -183 -38 -206 -26 -48 26 -26 86 36 96 21 4 45 8 53 10 8 2 37
2 65 2 47 -2 50 -4 59 -36z m399 -77 c23 -7 40 -40 32 -64 -7 -21 -27 -25
-184 -39 -64 -6 -111 -6 -122 -1 -15 8 -39 58 -39 81 0 25 243 43 313 23z
m-363 -44 c21 -21 25 -46 12 -67 -8 -12 -176 -43 -236 -43 -39 0 -59 19 -54
51 4 31 53 58 124 68 101 15 132 13 154 -9z m520 -108 c27 -13 36 -24 38 -48
5 -53 -9 -57 -222 -61 -211 -4 -218 -3 -232 54 -10 37 12 51 96 61 135 17 281
14 320 -6z m-456 -71 c7 -24 6 -36 -5 -46 -19 -18 -297 -57 -320 -44 -21 11
-32 42 -24 68 8 27 44 39 180 60 136 21 153 17 169 -38z m621 -95 c42 -18 60
-48 45 -76 -10 -19 -18 -19 -163 -14 -83 3 -195 1 -247 -4 -52 -5 -105 -5
-118 -1 -29 11 -50 55 -35 77 15 25 56 29 281 31 155 1 211 -2 237 -13z m-585
-26 c11 -11 20 -33 20 -50 0 -35 15 -30 -204 -65 -145 -22 -162 -23 -183 -10
-13 9 -23 25 -23 39 0 48 48 67 230 90 143 18 138 18 160 -4z"/>
<path d="M5236 3389 c-21 -75 -48 -103 -122 -125 -33 -9 -63 -19 -67 -23 -4
-4 19 -15 52 -24 78 -22 112 -52 145 -131 16 -36 31 -66 35 -66 3 0 12 27 18
60 15 81 42 116 103 134 61 18 92 35 86 45 -3 5 -28 11 -55 15 -65 8 -96 35
-132 112 -17 35 -34 64 -38 64 -4 0 -15 -27 -25 -61z"/>
<path d="M4894 2700 c53 -156 75 -279 59 -334 l-9 -28 -28 43 c-68 105 -127
143 -222 142 -48 0 -73 -7 -113 -28 -95 -52 -138 -152 -129 -304 4 -65 11 -93
35 -141 29 -56 462 -630 497 -659 21 -18 3 -38 218 234 342 431 358 458 358
590 0 194 -104 313 -265 303 -80 -5 -129 -36 -183 -116 -22 -32 -47 -64 -56
-71 -14 -12 -16 -10 -16 16 0 56 29 197 58 283 l29 85 -119 0 c-101 0 -118 -2
-114 -15z"/>
<path d="M2441 2585 c-32 -35 -67 -41 -118 -23 -48 17 -52 13 -23 -25 11 -14
20 -28 20 -32 0 -3 -16 -21 -35 -39 -27 -26 -35 -41 -35 -69 0 -38 -19 -57
-59 -57 -38 0 -26 -37 17 -51 64 -23 168 -17 238 14 34 14 74 25 90 24 23 -2
30 3 32 20 5 31 -33 39 -92 19 -27 -9 -80 -16 -127 -16 l-80 0 23 41 c31 56
41 62 105 60 54 -1 55 0 40 17 -23 26 -21 41 9 73 15 16 24 35 22 48 -3 20 -4
20 -27 -4z"/>
<path d="M2565 1837 c-23 -13 -48 -37 -57 -57 -34 -67 -17 -187 30 -217 15
-10 32 -24 38 -32 15 -20 80 -28 149 -19 66 9 168 62 173 91 5 23 -25 22 -63
-3 -16 -11 -38 -20 -48 -20 -46 0 54 82 124 100 39 11 74 40 47 40 -23 0 -151
42 -174 57 -12 7 -48 17 -80 21 -67 8 -82 32 -26 43 55 11 49 19 -14 19 -42 0
-70 -7 -99 -23z"/>
<path d="M2896 1509 c-51 -38 -100 -50 -205 -52 -68 0 -96 4 -135 21 -57 26
-86 28 -86 7 0 -23 86 -73 149 -86 66 -14 198 -7 232 12 41 24 109 92 109 111
0 25 -19 21 -64 -13z"/>
<path d="M624 8706 c-101 -111 -213 -256 -237 -308 -21 -44 -22 -139 -3 -177
8 -15 33 -40 56 -55 37 -25 44 -26 80 -15 22 7 58 28 80 46 l40 35 0 -32 c0
-17 -4 -39 -9 -48 -5 -9 -11 -38 -15 -64 l-7 -46 62 -1 c58 0 61 1 54 22 -23
74 -35 125 -35 152 l1 30 32 -36 c41 -47 65 -59 119 -59 47 0 73 19 113 83 40
63 -5 194 -107 313 -28 33 -65 82 -83 109 -18 28 -46 62 -62 78 l-30 28 -49
-55z"/>
<path d="M6093 2473 c2 -16 10 -54 17 -86 7 -31 10 -60 7 -64 -4 -3 -27 13
-52 36 -38 35 -51 41 -87 41 -119 0 -177 -131 -113 -256 27 -52 253 -346 270
-350 12 -3 252 299 283 357 57 107 -4 249 -108 249 -38 0 -65 -13 -107 -53
-18 -17 -36 -28 -40 -24 -3 4 1 40 10 80 24 100 25 97 -34 97 -50 0 -51 0 -46
-27z"/>
<path d="M5842 1788 c-25 -25 -14 -67 28 -108 45 -44 48 -59 21 -104 -18 -29
-20 -56 -22 -386 -3 -389 -4 -383 57 -444 38 -37 89 -63 145 -71 49 -7 166 10
188 28 7 6 23 16 35 22 11 6 32 31 46 55 24 43 25 55 31 275 4 127 8 263 8
303 1 72 2 74 42 114 22 22 39 47 37 55 -2 9 -21 22 -43 30 -22 7 -60 34 -85
58 -68 67 -117 84 -230 82 -107 -1 -135 8 -195 68 -38 38 -45 41 -63 23z m389
-211 c21 -14 35 -32 37 -48 3 -22 -2 -27 -27 -32 -51 -10 -149 31 -171 73 -13
24 -1 28 71 29 43 1 64 -4 90 -22z m-205 -97 c54 -47 113 -72 181 -78 35 -3
66 -9 69 -14 4 -6 6 -125 5 -265 -2 -282 -5 -298 -64 -333 -74 -45 -169 -35
-224 25 l-33 35 0 330 c0 368 -2 360 66 300z"/>
</g>
</svg>
