<svg version="1.0" xmlns="http://www.w3.org/2000/svg"
 width="691.000000pt" height="1056.000000pt" viewBox="0 0 691.000000 1056.000000"
 preserveAspectRatio="xMidYMid meet">
<g transform="translate(0.000000,1056.000000) scale(0.100000,-0.100000)"
fill="#000000" stroke="none">
<path d="M422 10003 c-4 -10 -7 -249 -7 -530 1 -556 -1 -537 55 -545 l25 -3 6
240 c12 446 10 830 -3 843 -18 18 -67 15 -76 -5z"/>
<path d="M700 9988 c-30 -17 -53 -39 -70 -69 l-25 -44 -3 -405 c-3 -405 -3
-405 20 -450 33 -64 92 -103 167 -108 121 -9 222 46 249 135 8 29 12 153 12
429 0 444 -1 448 -80 500 -37 25 -54 29 -134 32 -81 3 -96 1 -136 -20z m207
-89 c46 -28 48 -41 51 -319 5 -351 -3 -480 -32 -522 -43 -65 -142 -74 -198
-18 l-28 28 0 386 c0 418 1 428 55 453 35 15 122 11 152 -8z"/>
<path d="M1551 9161 c-68 -24 -99 -47 -137 -102 -52 -78 -69 -148 -69 -284 1
-109 4 -127 32 -201 77 -204 271 -485 561 -814 85 -96 96 -104 117 -92 21 11
210 224 306 344 238 298 362 520 390 698 21 140 -22 308 -99 383 -108 106
-313 114 -452 19 -48 -33 -116 -106 -145 -157 -10 -16 -15 -12 -44 33 -47 74
-131 147 -196 171 -72 27 -188 28 -264 2z"/>
<path d="M4404 9160 c-60 -19 -128 -73 -162 -130 -45 -75 -54 -109 -59 -227
-7 -131 12 -211 81 -347 104 -205 233 -381 515 -708 102 -117 101 -117 222 18
296 334 494 622 559 813 87 258 3 522 -184 576 -92 27 -206 18 -289 -23 -65
-32 -146 -108 -184 -173 -9 -16 -20 -29 -23 -29 -3 0 -17 22 -32 48 -36 64
-106 127 -176 160 -47 22 -74 27 -147 29 -49 1 -104 -2 -121 -7z"/>
<path d="M484 8769 c-44 -13 -71 -47 -88 -110 -18 -69 -8 -129 35 -217 35 -72
151 -231 227 -312 l52 -55 61 65 c89 95 185 225 226 307 71 144 51 276 -48
317 -71 29 -129 16 -189 -40 l-47 -44 -34 36 c-56 59 -117 76 -195 53z"/>
<path d="M3005 8127 c-167 -43 -246 -164 -248 -382 -1 -170 45 -290 204 -530
155 -234 456 -595 495 -595 17 0 50 31 126 118 355 405 514 646 568 858 61
237 -22 463 -189 519 -79 26 -218 18 -293 -17 -66 -31 -136 -92 -175 -154 -16
-24 -31 -44 -34 -44 -3 0 -23 25 -43 55 -102 148 -255 212 -411 172z"/>
<path d="M1542 7082 c-193 -69 -267 -349 -163 -618 17 -44 54 -121 84 -172 54
-94 295 -428 351 -487 17 -17 42 -46 56 -64 14 -18 49 -58 78 -88 28 -31 52
-60 52 -64 0 -5 12 -9 28 -9 23 0 51 28 182 181 428 500 563 762 530 1027 -23
183 -122 289 -286 307 -146 17 -296 -53 -374 -175 -18 -27 -38 -50 -45 -50 -7
0 -27 22 -45 49 -42 66 -100 118 -169 149 -76 35 -202 41 -279 14z"/>
<path d="M4383 7072 c-105 -38 -169 -115 -198 -244 -61 -269 55 -528 456
-1013 59 -71 134 -159 168 -195 l61 -65 71 75 c179 189 401 473 505 647 107
177 151 343 133 493 -23 195 -125 302 -297 317 -159 13 -288 -58 -393 -217
l-16 -24 -33 50 c-52 77 -100 123 -165 157 -51 26 -73 31 -150 34 -69 3 -102
-1 -142 -15z"/>
<path d="M1959 4980 c-169 -176 -406 -479 -504 -645 -60 -100 -109 -215 -126
-296 -18 -81 -7 -251 21 -323 48 -125 152 -191 300 -191 133 0 235 54 326 171
25 32 49 60 52 61 4 2 24 -24 45 -57 43 -68 102 -120 173 -152 40 -19 66 -23
145 -23 90 0 100 2 164 35 114 58 164 154 172 330 4 67 0 116 -11 165 -21 87
-96 247 -172 363 -98 150 -309 416 -457 577 l-56 60 -72 -75z"/>
<path d="M4812 4985 c-208 -216 -456 -541 -561 -736 -78 -146 -108 -287 -91
-425 18 -138 77 -231 178 -281 50 -25 68 -28 147 -27 69 0 104 6 148 23 62 25
161 108 197 167 12 19 28 34 36 34 7 0 29 -24 47 -52 43 -67 96 -114 166 -146
48 -23 70 -26 156 -26 115 0 150 11 215 71 83 74 126 206 117 358 -8 133 -55
255 -169 440 -89 142 -293 403 -460 585 l-68 74 -58 -59z"/>
<path d="M3327 3843 c-364 -411 -544 -690 -587 -911 -27 -133 3 -297 69 -388
80 -111 288 -141 440 -65 57 29 133 102 168 162 10 16 20 29 24 29 4 0 21 -22
39 -49 85 -134 219 -201 369 -188 127 12 214 80 260 202 80 212 33 414 -166
715 -160 242 -460 600 -503 600 -9 0 -60 -48 -113 -107z"/>
<path d="M1962 2873 c-65 -69 -237 -274 -319 -378 -167 -213 -282 -413 -318
-555 -46 -176 -6 -373 94 -463 65 -59 102 -70 221 -71 93 -1 111 2 160 25 69
32 121 77 176 152 l43 58 34 -53 c93 -145 239 -214 393 -187 119 21 198 87
246 208 19 48 22 75 22 186 0 122 -2 135 -31 213 -76 198 -233 429 -526 772
-98 114 -124 140 -140 140 -6 0 -31 -21 -55 -47z"/>
<path d="M4803 2863 c-234 -253 -501 -607 -578 -768 -80 -167 -101 -343 -57
-480 49 -149 130 -213 285 -222 146 -10 247 36 343 157 29 35 57 66 62 68 5 1
21 -16 35 -40 100 -170 322 -240 493 -157 96 46 163 171 172 321 11 194 -58
367 -261 650 -132 184 -415 518 -439 518 -6 0 -31 -21 -55 -47z"/>
<path d="M6095 2397 c-83 -92 -175 -220 -212 -295 -23 -48 -28 -70 -28 -137 0
-67 4 -86 23 -118 56 -89 156 -91 265 -4 l37 31 33 -31 c66 -63 140 -80 206
-45 55 28 73 61 79 144 5 88 -17 154 -90 264 -75 112 -206 264 -227 264 -12 0
-47 -31 -86 -73z"/>
<path d="M6029 1649 c-92 -14 -139 -55 -165 -145 -12 -44 -14 -115 -12 -436
l3 -384 27 -41 c86 -130 327 -120 396 17 22 44 22 49 22 445 0 368 -2 403 -19
441 -37 82 -134 122 -252 103z m128 -109 c53 -32 56 -59 48 -468 -8 -356 -8
-365 -30 -390 -29 -34 -124 -43 -174 -17 -61 31 -64 48 -59 445 3 324 5 358
22 386 10 17 30 38 45 47 36 23 109 21 148 -3z"/>
<path d="M6413 1642 c-13 -8 -28 -1059 -16 -1078 13 -18 51 -26 73 -14 20 11
20 18 20 549 0 482 -2 539 -16 545 -21 8 -46 7 -61 -2z"/>
</g>
</svg>
