<svg version="1.0" xmlns="http://www.w3.org/2000/svg"
 width="691.000000pt" height="1056.000000pt" viewBox="0 0 691.000000 1056.000000"
 preserveAspectRatio="xMidYMid meet">
<g transform="translate(0.000000,1056.000000) scale(0.100000,-0.100000)"
fill="#000000" stroke="none">
<path d="M331 9936 c-8 -9 -10 -161 -9 -547 l3 -534 43 -3 42 -3 0 550 0 551
-34 0 c-18 0 -39 -6 -45 -14z"/>
<path d="M647 9927 c-20 -7 -53 -24 -72 -40 -61 -49 -65 -79 -65 -516 0 -436
-1 -428 77 -487 126 -96 333 -38 372 103 15 53 15 765 0 818 -29 105 -178 163
-312 122z m181 -104 c50 -37 52 -59 45 -438 -4 -250 -9 -359 -18 -382 -19 -45
-56 -66 -120 -66 -58 0 -96 18 -115 54 -8 14 -11 137 -11 396 1 414 2 421 64
449 42 19 121 12 155 -13z"/>
<path d="M1894 9228 c-206 -248 -557 -695 -578 -736 -63 -124 -73 -272 -26
-396 44 -117 160 -197 283 -196 103 1 178 48 250 158 24 37 52 73 61 81 14 12
16 8 16 -38 0 -81 -21 -172 -96 -413 -5 -17 6 -18 140 -18 l146 0 -11 28 c-6
15 -26 83 -45 151 -25 93 -34 144 -34 203 0 43 4 78 8 78 5 0 30 -32 57 -70
59 -87 113 -134 178 -156 100 -33 231 7 307 93 95 108 108 326 29 490 -18 37
-510 681 -600 786 l-24 28 -61 -73z"/>
<path d="M4773 9108 c-361 -454 -504 -644 -525 -697 -19 -47 -23 -75 -22 -171
0 -138 22 -205 87 -273 63 -64 127 -92 212 -92 113 1 181 45 274 179 l41 59 0
-81 c0 -94 -17 -181 -59 -304 l-30 -88 145 0 c79 0 144 3 144 6 0 4 -14 51
-31 106 -42 138 -61 244 -54 300 4 27 10 50 14 52 4 3 19 -17 34 -44 43 -77
111 -145 169 -170 43 -18 65 -22 123 -18 185 12 290 146 289 368 -1 109 -22
181 -79 267 -31 46 -370 490 -536 701 l-58 73 -138 -173z"/>
<path d="M465 8604 c-72 -91 -138 -180 -147 -197 -37 -69 -9 -190 51 -221 49
-26 93 -20 150 19 28 20 51 30 50 23 0 -7 -6 -46 -13 -85 l-13 -73 48 0 c47 0
49 1 49 28 0 15 -4 44 -9 65 -5 20 -7 47 -4 58 5 19 8 19 38 -11 38 -37 78
-49 123 -39 72 16 109 82 97 175 -5 44 -17 68 -63 133 -88 122 -216 290 -222
290 -3 0 -63 -74 -135 -165z"/>
<path d="M3385 8153 c-200 -237 -581 -728 -604 -778 -41 -85 -55 -156 -48
-239 15 -201 136 -327 313 -327 34 0 79 7 100 16 47 19 126 95 160 152 13 24
33 47 44 53 17 9 20 7 20 -11 0 -61 -35 -241 -65 -336 -19 -59 -33 -109 -31
-110 2 -2 66 -2 143 -1 l139 3 -39 135 c-41 139 -58 280 -38 310 5 8 11 12 13
10 2 -3 25 -37 51 -77 75 -112 141 -153 246 -153 67 0 151 27 192 63 91 79
140 228 119 367 -19 119 -67 196 -375 595 -158 204 -290 371 -293 373 -4 1
-25 -19 -47 -45z"/>
<path d="M1637 6768 c-164 -206 -312 -394 -328 -418 -79 -117 -92 -309 -30
-435 58 -117 165 -180 292 -173 52 3 77 10 115 34 43 26 67 53 161 180 19 27
22 28 29 10 14 -36 -15 -206 -56 -329 -22 -66 -40 -122 -40 -126 0 -3 65 -6
145 -6 125 0 144 2 139 15 -19 51 -75 255 -83 306 -8 54 -2 126 12 140 2 3 20
-19 38 -48 75 -118 153 -175 253 -185 183 -19 326 145 327 373 0 99 -26 183
-81 267 -31 47 -488 638 -572 740 l-23 29 -298 -374z"/>
<path d="M4730 6908 c-490 -606 -520 -651 -528 -791 -12 -197 68 -342 213
-386 84 -26 120 -26 187 -1 60 22 124 82 181 169 36 54 36 54 43 27 12 -48 -3
-147 -41 -276 -21 -69 -40 -135 -43 -147 -4 -23 -4 -23 137 -23 77 0 141 3
141 8 0 4 -9 36 -20 72 -59 190 -81 323 -61 375 7 17 14 10 50 -47 51 -82 125
-150 179 -166 140 -42 296 24 355 151 85 180 53 360 -95 552 -30 39 -146 189
-258 335 -189 247 -266 340 -280 340 -3 0 -75 -87 -160 -192z"/>
<path d="M1770 4984 c0 -3 13 -43 29 -89 17 -46 37 -117 45 -159 17 -82 21
-202 7 -210 -4 -3 -24 20 -44 52 -71 116 -146 170 -247 179 -214 20 -372 -189
-330 -436 20 -121 59 -182 345 -551 283 -365 312 -400 330 -400 11 0 254 294
503 609 169 214 200 287 189 441 -15 209 -133 334 -317 333 -30 0 -72 -7 -92
-16 -51 -21 -119 -87 -165 -158 -21 -32 -44 -59 -50 -59 -30 0 -4 179 48 334
21 65 39 122 39 127 0 5 -65 9 -145 9 -80 0 -145 -3 -145 -6z"/>
<path d="M4730 4951 c0 -5 7 -25 15 -45 30 -70 65 -221 71 -303 10 -125 3
-129 -64 -33 -67 97 -127 143 -207 160 -105 22 -221 -24 -284 -111 -100 -137
-100 -357 -1 -513 38 -60 560 -734 587 -759 19 -17 26 -9 265 290 301 379 390
498 411 552 46 113 38 269 -19 381 -45 90 -136 149 -241 158 -112 9 -194 -40
-278 -165 -23 -35 -45 -60 -48 -56 -24 23 4 220 48 343 15 41 29 83 32 93 5
16 -6 17 -141 17 -80 0 -146 -4 -146 -9z"/>
<path d="M3250 3880 c0 -6 16 -66 36 -133 38 -126 57 -288 37 -308 -7 -7 -25
13 -53 56 -101 154 -224 207 -363 155 -76 -29 -130 -79 -169 -157 -28 -58 -33
-79 -36 -163 -5 -109 11 -180 57 -265 21 -39 476 -636 593 -778 l23 -28 266
333 c330 414 353 445 384 505 47 94 57 197 29 313 -38 163 -138 245 -299 245
-63 0 -89 -5 -120 -22 -50 -27 -102 -81 -149 -156 -22 -35 -41 -55 -48 -51
-26 16 13 236 67 381 14 36 25 69 25 74 0 5 -63 9 -140 9 -91 0 -140 -4 -140
-10z"/>
<path d="M1755 2853 c52 -119 105 -410 77 -427 -5 -3 -34 26 -62 64 -84 114
-151 151 -267 152 -232 2 -367 -278 -263 -542 29 -74 44 -95 331 -466 145
-188 274 -355 286 -370 l21 -29 34 39 c194 229 594 742 617 791 41 86 55 155
48 244 -10 145 -69 246 -175 298 -76 37 -184 40 -250 5 -51 -27 -109 -85 -152
-152 -18 -28 -39 -50 -47 -50 -31 0 7 229 63 377 13 35 24 68 24 73 0 6 -58
10 -146 10 -135 0 -146 -1 -139 -17z"/>
<path d="M4710 2843 c0 -3 16 -55 35 -115 36 -112 57 -254 46 -309 l-6 -30
-48 65 c-93 126 -176 173 -287 163 -250 -22 -367 -336 -223 -598 39 -70 597
-799 613 -799 5 0 17 11 27 23 10 13 137 172 282 353 297 369 333 420 361 512
40 128 18 296 -49 390 -58 79 -194 133 -287 112 -25 -6 -58 -17 -73 -25 -38
-19 -104 -87 -141 -145 -18 -28 -36 -47 -41 -44 -26 16 4 228 51 356 17 45 30
85 30 90 0 4 -65 8 -145 8 -80 0 -145 -3 -145 -7z"/>
<path d="M6171 2433 c-43 -4 -43 -5 -37 -36 4 -18 10 -57 13 -87 l6 -55 -41
37 c-51 46 -84 55 -136 37 -77 -27 -104 -106 -72 -211 13 -43 85 -148 216
-315 l56 -71 111 142 c161 205 178 235 178 312 0 72 -20 108 -76 136 -44 22
-94 10 -143 -33 -19 -16 -36 -29 -39 -29 -2 0 2 33 9 73 16 81 17 108 7 105
-5 -1 -28 -3 -52 -5z"/>
<path d="M5932 1604 c-56 -28 -83 -59 -100 -114 -17 -55 -27 -731 -12 -803 23
-115 99 -163 243 -155 100 5 141 26 177 90 25 43 25 47 32 378 7 384 1 491
-31 543 -52 84 -203 114 -309 61z m192 -85 c14 -7 33 -28 42 -47 15 -31 16
-71 9 -396 -3 -199 -11 -376 -17 -394 -6 -19 -21 -38 -38 -47 -41 -21 -118
-19 -156 4 -55 33 -57 56 -52 450 6 381 8 400 57 426 32 17 121 19 155 4z"/>
<path d="M6398 1613 l-28 -4 0 -544 0 -543 41 -4 c23 -2 43 1 45 7 2 5 3 253
2 550 -3 590 1 548 -60 538z"/>
</g>
</svg>
