<svg version="1.0" xmlns="http://www.w3.org/2000/svg"
 width="691.000000pt" height="1056.000000pt" viewBox="0 0 691.000000 1056.000000"
 preserveAspectRatio="xMidYMid meet">
<g transform="translate(0.000000,1056.000000) scale(0.100000,-0.100000)"
fill="#000000" stroke="none">
<path d="M570 9991 c-117 -36 -205 -140 -217 -256 l-6 -53 33 -7 c40 -9 52 3
75 74 44 136 186 198 311 136 69 -34 96 -84 96 -172 -1 -119 -42 -170 -213
-263 -115 -62 -227 -172 -270 -265 -26 -56 -34 -85 -37 -152 -3 -57 -1 -88 8
-98 11 -13 56 -15 301 -15 275 0 289 1 299 19 11 22 13 76 3 174 l-6 67 -43 0
-44 0 0 -67 c0 -38 -5 -75 -10 -83 -11 -18 -157 -23 -310 -12 l-95 7 1 40 c1
61 31 113 113 196 60 59 95 85 165 120 169 83 238 178 239 328 2 134 -34 198
-142 255 -63 33 -76 36 -147 35 -44 0 -90 -4 -104 -8z"/>
<path d="M3433 9127 c-17 -17 -178 -209 -357 -425 -215 -259 -326 -400 -326
-415 0 -32 685 -867 711 -867 27 0 703 821 707 858 3 24 -48 91 -333 443 -184
228 -343 420 -353 426 -16 11 -23 8 -49 -20z"/>
<path d="M598 8733 c-91 -98 -238 -288 -238 -309 0 -15 29 -58 78 -116 42 -50
97 -119 122 -152 66 -89 80 -87 160 16 36 46 95 118 132 160 38 42 68 85 68
96 0 10 -10 27 -21 38 -12 10 -65 73 -118 139 -141 176 -139 175 -183 128z"/>
<path d="M3377 3088 c-114 -132 -620 -744 -638 -773 -17 -27 -17 -31 -2 -54
27 -42 623 -774 664 -816 l39 -40 29 30 c16 17 176 209 355 428 213 261 326
406 326 421 0 14 -105 151 -301 392 -372 456 -387 474 -404 474 -7 0 -38 -28
-68 -62z"/>
<path d="M6226 2482 c-8 -9 -39 -46 -70 -82 -31 -36 -76 -91 -101 -124 -25
-32 -56 -67 -70 -78 -37 -29 -31 -51 28 -116 28 -32 93 -108 144 -170 l91
-113 119 143 c171 206 170 204 154 231 -32 50 -251 315 -266 320 -9 4 -21 -1
-29 -11z"/>
<path d="M5946 1634 c-12 -12 -16 -37 -16 -110 0 -110 9 -134 49 -134 39 0 53
20 53 77 0 85 -6 83 203 83 154 0 186 -3 199 -16 30 -29 -7 -120 -85 -207 -59
-66 -103 -98 -214 -155 -149 -77 -221 -194 -213 -346 3 -61 9 -79 40 -127 47
-73 89 -105 167 -125 189 -48 377 73 407 263 6 39 5 42 -19 48 -53 14 -63 6
-92 -78 -36 -101 -112 -152 -219 -145 -122 7 -195 89 -183 204 11 102 63 172
170 225 227 114 356 286 357 475 0 86 7 84 -313 84 -237 0 -278 -2 -291 -16z"/>
</g>
</svg>
