<svg version="1.0" xmlns="http://www.w3.org/2000/svg"
 width="691.000000pt" height="1056.000000pt" viewBox="0 0 691.000000 1056.000000"
 preserveAspectRatio="xMidYMid meet">
<g transform="translate(0.000000,1056.000000) scale(0.100000,-0.100000)"
fill="#000000" stroke="none">
<path d="M610 9997 c-103 -40 -190 -160 -190 -261 0 -28 5 -35 25 -40 38 -10
61 8 73 57 31 121 142 193 261 169 118 -25 176 -115 151 -236 -6 -30 -24 -73
-41 -96 -31 -42 -36 -46 -171 -120 -118 -65 -228 -171 -275 -267 -31 -63 -37
-87 -41 -158 -4 -74 -2 -84 14 -93 25 -13 566 -22 588 -10 13 7 16 27 16 117
0 117 -3 124 -56 135 l-32 7 -4 -76 c-2 -53 -8 -79 -18 -85 -20 -13 -352 -13
-384 0 -33 12 -33 39 0 110 54 116 127 178 319 274 55 27 124 94 148 141 39
78 52 191 30 264 -22 73 -52 108 -130 151 -67 37 -77 40 -150 39 -55 0 -94 -7
-133 -22z"/>
<path d="M3050 9297 c-128 -29 -203 -107 -240 -251 -52 -205 -1 -381 200 -684
121 -182 433 -563 474 -577 22 -8 48 16 189 174 299 334 484 612 532 801 24
92 16 263 -15 344 -47 124 -153 188 -310 188 -138 1 -249 -56 -325 -167 -21
-30 -43 -55 -49 -55 -6 0 -24 20 -39 45 -42 66 -129 141 -191 164 -71 26 -158
33 -226 18z"/>
<path d="M453 8799 c-80 -51 -95 -176 -36 -300 65 -139 252 -374 292 -367 15
3 167 167 206 222 11 16 29 40 41 55 11 14 33 55 49 91 60 134 40 261 -47 300
-73 33 -142 21 -204 -35 -43 -40 -47 -41 -65 -18 -8 9 -34 29 -58 45 -56 35
-129 38 -178 7z"/>
<path d="M3316 2678 c-303 -324 -518 -629 -582 -826 -39 -117 -41 -271 -6
-374 47 -136 137 -198 297 -206 72 -3 101 1 149 17 77 27 146 81 197 153 22
32 43 58 47 58 4 0 13 -10 21 -22 88 -146 204 -218 351 -218 92 0 158 22 214
71 85 75 126 180 126 330 0 190 -112 422 -359 739 -140 180 -324 390 -341 390
-5 0 -56 -51 -114 -112z"/>
<path d="M6095 2383 c-97 -110 -167 -209 -208 -293 -71 -146 -24 -290 100
-307 55 -7 108 12 158 58 l41 38 26 -33 c51 -63 146 -85 217 -48 52 26 72 61
78 134 7 80 -10 134 -71 238 -60 103 -217 294 -243 298 -16 2 -40 -19 -98 -85z"/>
<path d="M5887 1603 c-5 -15 -3 -203 1 -226 1 -5 21 -7 45 -5 l42 3 5 65 c3
36 9 71 13 78 6 9 56 12 192 12 101 0 190 -3 199 -6 24 -9 19 -49 -15 -121
-42 -88 -123 -167 -224 -218 -102 -51 -189 -117 -219 -164 -57 -90 -71 -241
-31 -325 64 -133 251 -189 403 -121 108 48 189 165 180 257 -3 31 -5 33 -42
33 -38 0 -38 0 -57 -60 -42 -136 -184 -203 -306 -144 -66 32 -96 78 -101 155
-4 54 0 72 22 119 31 63 66 94 150 137 224 113 356 284 356 463 0 34 -5 66
-12 73 -9 9 -90 12 -304 12 -270 0 -293 -1 -297 -17z"/>
</g>
</svg>
