<svg version="1.0" xmlns="http://www.w3.org/2000/svg"
 width="691.000000pt" height="1056.000000pt" viewBox="0 0 691.000000 1056.000000"
 preserveAspectRatio="xMidYMid meet">
<g transform="translate(0.000000,1056.000000) scale(0.100000,-0.100000)"
fill="#000000" stroke="none">
<path d="M575 9992 c-74 -24 -158 -110 -179 -181 -9 -30 -16 -70 -16 -88 0
-32 2 -33 39 -33 37 0 39 2 51 45 33 117 110 179 221 178 172 -2 247 -176 142
-333 -24 -37 -40 -49 -173 -126 -147 -85 -252 -209 -286 -338 -15 -54 -18
-126 -8 -164 l6 -22 297 2 296 3 3 123 3 122 -45 0 -44 0 -7 -74 -7 -74 -96
-7 c-94 -8 -214 -3 -280 11 -32 7 -33 8 -27 43 20 107 82 179 250 288 151 99
189 134 227 211 29 58 33 76 33 147 0 68 -4 89 -28 137 -61 124 -222 180 -372
130z"/>
<path d="M3412 9293 c-21 -27 -153 -194 -292 -373 -267 -343 -307 -406 -330
-528 -25 -126 9 -269 83 -350 131 -141 336 -125 445 35 20 30 50 69 65 86 l29
32 -5 -90 c-5 -91 -29 -199 -67 -309 -11 -33 -20 -63 -20 -68 0 -4 63 -8 141
-8 128 0 141 2 135 17 -4 9 -23 71 -42 137 -37 127 -52 244 -37 285 9 22 13
19 65 -56 89 -126 184 -175 299 -153 228 43 327 336 201 587 -17 32 -150 214
-297 403 -267 344 -312 400 -326 400 -4 0 -25 -21 -47 -47z"/>
<path d="M539 8639 c-70 -90 -134 -178 -143 -196 -22 -45 -21 -125 4 -174 43
-82 128 -89 207 -16 40 37 44 38 39 16 -37 -173 -37 -173 19 -166 26 2 47 6
49 8 2 2 -2 40 -9 84 -7 44 -12 81 -10 83 2 2 21 -13 43 -33 49 -44 94 -53
141 -28 56 29 76 65 76 136 0 39 -6 75 -17 97 -17 34 -171 235 -240 314 l-33
38 -126 -163z"/>
<path d="M3314 2904 c56 -147 98 -365 82 -429 -7 -26 -10 -24 -64 55 -62 92
-113 131 -193 150 -141 34 -289 -56 -338 -206 -43 -130 -23 -309 46 -409 26
-38 119 -160 438 -572 77 -99 148 -186 157 -192 15 -9 43 22 211 237 276 354
405 526 432 580 37 73 48 133 43 230 -11 200 -109 318 -281 338 -110 13 -196
-38 -278 -163 l-47 -73 -7 41 c-11 62 3 161 41 293 19 65 32 122 28 125 -3 3
-67 8 -141 10 -127 3 -135 2 -129 -15z"/>
<path d="M6195 2514 c-7 -3 -8 -28 -1 -79 7 -55 6 -79 -2 -87 -8 -8 -14 -5
-21 14 -10 28 -65 58 -106 58 -38 0 -83 -26 -100 -60 -19 -38 -19 -130 0 -177
15 -36 101 -155 213 -296 l54 -68 114 148 c148 190 174 234 174 296 0 95 -49
157 -124 157 -43 0 -70 -13 -119 -59 l-29 -26 6 25 c34 162 34 160 -11 159
-21 0 -43 -3 -48 -5z"/>
<path d="M6008 1701 c-26 -4 -49 -9 -51 -11 -3 -3 -7 -56 -9 -117 l-6 -113 44
0 c42 0 44 1 44 29 0 15 3 49 6 75 l7 46 132 0 c73 0 166 -3 207 -6 l76 -7
-18 -51 c-43 -126 -111 -207 -235 -278 -141 -82 -175 -108 -209 -161 -119
-181 -62 -402 119 -464 73 -25 169 -22 237 9 102 47 157 116 177 223 12 65 6
77 -36 73 -34 -3 -37 -6 -58 -67 -13 -34 -36 -77 -52 -93 -77 -83 -214 -90
-298 -17 -43 38 -59 86 -52 159 9 100 51 159 157 217 166 92 256 177 318 302
34 68 37 82 37 157 0 45 -4 86 -8 91 -11 10 -465 14 -529 4z"/>
</g>
</svg>
