<svg version="1.0" xmlns="http://www.w3.org/2000/svg"
 width="691.000000pt" height="1056.000000pt" viewBox="0 0 691.000000 1056.000000"
 preserveAspectRatio="xMidYMid meet">
<g transform="translate(0.000000,1056.000000) scale(0.100000,-0.100000)"
fill="#000000" stroke="none">
<path d="M398 9969 c-15 -8 -18 -25 -18 -112 0 -109 7 -127 46 -127 45 0 54
10 54 57 0 84 -3 83 195 83 102 0 175 -4 175 -9 0 -5 -72 -92 -160 -193 -88
-100 -160 -190 -160 -198 0 -20 41 -60 60 -60 8 0 33 10 57 21 64 31 149 24
200 -17 55 -44 83 -105 83 -179 0 -154 -101 -274 -231 -275 -113 0 -206 65
-235 167 -20 71 -29 83 -63 83 -46 0 -55 -13 -48 -71 13 -108 79 -198 186
-251 40 -20 61 -23 156 -23 102 0 113 2 157 27 58 35 120 105 155 176 22 45
28 73 31 148 4 82 2 98 -20 146 -45 99 -110 155 -215 188 l-55 17 48 59 c26
32 77 91 113 130 123 132 123 132 100 176 -23 42 -62 48 -336 48 -157 0 -265
-5 -275 -11z"/>
<path d="M3365 9369 c-179 -26 -308 -166 -308 -334 0 -40 7 -93 17 -123 18
-52 128 -212 147 -212 5 0 9 -7 9 -15 0 -18 5 -19 -55 4 -212 80 -403 -7 -466
-213 -58 -184 27 -388 191 -465 79 -37 184 -36 260 1 67 33 128 94 172 172 43
78 58 82 58 18 0 -69 -32 -184 -90 -329 -27 -68 -50 -127 -50 -131 0 -4 85 -7
190 -7 104 0 190 4 190 9 0 5 -19 52 -41 105 -56 131 -67 162 -90 266 -21 99
-18 155 8 133 8 -7 28 -39 44 -73 62 -126 158 -189 289 -189 131 1 241 68 299
184 83 163 62 340 -54 455 -68 69 -122 90 -225 89 -61 0 -101 -6 -142 -21 -33
-12 -60 -17 -64 -12 -3 5 19 36 49 69 151 167 164 363 32 509 -79 87 -225 131
-370 110z"/>
<path d="M565 8745 c-73 -37 -91 -99 -60 -201 8 -27 15 -52 15 -56 0 -5 -21
-8 -46 -8 -57 0 -96 -22 -123 -70 -44 -78 -18 -176 58 -218 56 -32 105 -31
140 2 57 55 84 22 46 -56 -14 -29 -25 -53 -25 -55 0 -12 60 -22 102 -17 48 7
49 7 43 36 -4 16 -13 41 -21 56 -8 15 -14 39 -14 55 l0 27 41 -30 c85 -61 170
-50 219 28 40 63 40 121 2 177 -32 46 -64 65 -109 65 -59 0 -64 6 -46 53 10
23 17 65 18 93 0 57 -22 91 -77 120 -36 18 -125 18 -163 -1z"/>
<path d="M3310 6065 c-170 -53 -258 -180 -248 -354 6 -94 37 -162 115 -251 62
-72 58 -85 -20 -59 -204 70 -356 0 -437 -200 -49 -120 -38 -223 38 -348 51
-84 93 -118 174 -142 92 -28 112 -30 166 -16 109 29 164 75 232 194 45 78 66
78 62 1 -5 -70 -41 -195 -97 -331 -25 -59 -45 -109 -45 -111 0 -2 87 -3 194
-3 l194 0 -15 35 c-64 146 -104 258 -117 329 -18 94 -20 151 -7 151 15 0 49
-49 56 -80 10 -45 131 -154 195 -175 114 -38 249 2 339 100 72 79 95 145 96
270 0 90 -3 106 -28 157 -35 72 -104 143 -165 171 -61 28 -183 30 -259 4 -88
-31 -94 -21 -29 53 71 80 102 139 117 221 30 166 -71 327 -240 379 -75 24
-203 26 -271 5z"/>
<path d="M3525 2780 c-38 -4 -116 -5 -172 -2 l-102 5 8 -34 c4 -19 19 -56 33
-84 55 -108 88 -225 103 -359 8 -74 0 -69 -70 39 -63 97 -118 147 -193 175
-96 36 -217 7 -321 -78 -70 -57 -129 -215 -118 -317 12 -107 34 -155 105 -225
102 -101 187 -121 343 -80 41 10 78 15 82 11 5 -5 -16 -37 -47 -71 -80 -89
-109 -154 -114 -254 -5 -100 19 -171 79 -240 93 -106 288 -154 437 -108 157
49 244 169 245 338 1 72 -3 89 -31 145 -17 35 -56 93 -87 128 -30 36 -53 67
-50 69 2 2 28 -4 57 -14 38 -14 81 -19 148 -19 83 1 101 4 146 27 65 34 127
104 156 177 19 46 23 74 23 161 -1 102 -2 107 -38 175 -43 79 -65 101 -154
151 -56 32 -71 36 -140 37 -67 1 -86 -3 -133 -27 -71 -36 -99 -63 -162 -160
l-53 -80 -3 70 c-2 49 3 88 17 129 34 105 80 229 97 261 18 33 14 65 -8 62 -7
0 -44 -4 -83 -8z"/>
<path d="M6188 2417 c15 -43 23 -80 19 -91 -6 -16 -11 -14 -46 17 -46 42 -71
51 -117 43 -66 -13 -124 -85 -124 -155 0 -88 60 -151 143 -151 25 0 48 -4 52
-10 3 -5 -4 -26 -15 -47 -41 -77 -17 -173 52 -209 42 -22 124 -22 171 1 72 34
100 132 57 203 -11 18 -20 37 -20 42 0 4 26 12 58 16 47 6 63 13 94 43 83 84
45 230 -70 266 -42 13 -88 -4 -128 -45 -21 -22 -42 -36 -47 -31 -4 4 4 43 17
87 14 43 26 82 26 87 0 4 -33 7 -74 7 l-74 0 26 -73z"/>
<path d="M6119 1687 c-126 -47 -206 -149 -229 -292 -31 -193 64 -349 233 -380
27 -5 37 -12 37 -25 0 -10 -49 -74 -108 -142 -59 -68 -116 -135 -125 -148 -23
-32 -21 -66 3 -90 19 -19 33 -20 274 -20 248 0 301 5 318 33 11 17 10 141 -2
171 -7 20 -17 26 -38 26 -39 0 -52 -17 -52 -70 0 -25 -5 -51 -12 -58 -8 -8
-65 -12 -190 -12 -173 0 -177 0 -170 20 4 11 76 99 160 195 83 96 152 184 152
194 0 11 -7 27 -17 36 -18 18 -34 17 -125 -11 -75 -22 -135 -7 -189 47 -43 43
-59 89 -59 171 0 112 57 210 146 254 47 23 63 26 111 21 79 -8 141 -43 181
-101 18 -27 35 -66 38 -87 10 -60 25 -75 65 -63 33 10 34 12 31 54 -4 60 -46
150 -90 193 -62 60 -135 90 -227 94 -51 2 -93 -2 -116 -10z"/>
</g>
</svg>
