<svg version="1.0" xmlns="http://www.w3.org/2000/svg"
 width="691.000000pt" height="1056.000000pt" viewBox="0 0 691.000000 1056.000000"
 preserveAspectRatio="xMidYMid meet">
<g transform="translate(0.000000,1056.000000) scale(0.100000,-0.100000)"
fill="#000000" stroke="none">
<path d="M608 9980 c-265 -7 -258 -3 -258 -122 0 -94 10 -118 48 -118 39 0 52
17 52 70 0 25 5 51 12 58 8 8 63 12 180 12 153 0 168 -2 168 -17 0 -10 -68
-97 -150 -193 -87 -102 -149 -184 -150 -196 0 -29 34 -58 62 -51 13 3 43 13
68 22 86 32 179 0 225 -79 71 -122 21 -315 -100 -383 -73 -41 -190 -28 -258
28 -42 35 -64 72 -81 137 -13 55 -34 71 -70 54 -33 -15 -35 -58 -6 -135 44
-118 156 -196 293 -205 103 -6 174 22 247 98 75 78 99 144 101 270 1 52 -1
102 -3 110 -13 45 -61 119 -94 145 -39 31 -134 75 -160 75 -20 0 -17 33 4 51
9 9 31 32 47 53 17 20 47 56 68 79 20 23 57 67 80 97 49 62 50 89 5 123 -31
23 -41 24 -330 17z"/>
<path d="M3372 9125 c-12 -14 -22 -28 -22 -33 0 -4 -17 -25 -39 -47 -21 -22
-79 -94 -129 -160 -50 -66 -172 -221 -272 -345 -100 -124 -186 -235 -192 -248
-14 -28 -26 -11 251 -348 119 -144 248 -301 286 -349 39 -48 78 -97 89 -108
10 -12 29 -35 42 -51 34 -40 63 -30 109 39 20 30 39 55 43 55 4 0 15 12 24 28
9 15 27 38 40 52 13 14 32 37 43 51 123 165 203 266 244 311 27 29 68 81 92
114 24 34 65 90 92 124 26 34 47 70 47 80 0 10 -137 187 -305 392 -315 386
-351 429 -373 454 -20 21 -46 17 -70 -11z"/>
<path d="M490 8568 c-79 -98 -130 -170 -130 -184 0 -23 253 -336 276 -342 8
-2 28 18 46 44 37 53 110 144 175 218 63 71 60 94 -24 193 -38 44 -93 110
-123 147 -30 37 -63 72 -72 77 -14 8 -40 -19 -148 -153z"/>
<path d="M3410 6141 c0 -4 -28 -39 -61 -77 -34 -38 -80 -94 -102 -124 -22 -30
-145 -185 -272 -345 -127 -159 -235 -296 -239 -302 -11 -20 7 -46 193 -271 97
-118 183 -224 191 -236 8 -12 48 -59 88 -105 40 -45 93 -110 118 -144 51 -69
101 -116 124 -116 21 0 50 27 83 77 15 24 34 45 42 49 8 3 15 11 15 19 0 7 6
17 13 21 8 4 33 35 57 68 41 56 273 350 417 528 35 44 63 89 63 101 0 28 -8
39 -180 247 -80 96 -190 231 -245 298 -140 172 -181 223 -205 249 -11 12 -27
34 -36 47 -15 24 -64 36 -64 16z"/>
<path d="M3431 3138 c-11 -13 -57 -71 -103 -129 -45 -59 -192 -243 -325 -409
-147 -182 -243 -311 -243 -324 0 -12 65 -100 158 -213 86 -105 191 -233 232
-284 120 -148 148 -182 179 -214 15 -16 36 -43 47 -60 24 -37 85 -94 101 -95
7 0 32 26 57 58 25 31 55 68 67 82 11 14 28 37 37 53 9 15 20 27 24 27 4 0 23
25 43 55 21 30 41 55 45 55 4 0 22 23 40 50 18 28 40 56 49 63 9 7 37 41 63
77 25 36 89 119 143 185 124 154 132 168 109 203 -14 22 -454 560 -558 683
-17 20 -53 64 -80 98 -28 33 -53 61 -58 61 -4 0 -17 -10 -27 -22z"/>
<path d="M6110 2373 c-73 -91 -135 -174 -137 -183 -5 -17 23 -54 204 -273 l72
-88 74 93 c40 51 101 128 135 171 34 43 62 87 62 97 0 13 -184 246 -274 347
-1 2 -62 -72 -136 -164z"/>
<path d="M6130 1687 c-95 -27 -156 -84 -208 -194 -24 -52 -27 -69 -27 -168 0
-100 2 -115 27 -161 42 -80 103 -125 216 -160 34 -10 20 -38 -74 -151 -55 -64
-109 -131 -121 -147 -31 -41 -30 -79 3 -105 25 -20 39 -21 213 -20 102 1 227
4 276 8 l90 6 0 110 0 110 -35 3 c-43 4 -60 -16 -60 -73 0 -23 -5 -46 -12 -53
-8 -8 -63 -12 -180 -12 -139 0 -168 2 -168 14 0 8 70 98 156 200 165 198 170
208 119 242 -21 14 -27 14 -63 -5 -93 -47 -180 -34 -245 39 -93 102 -61 309
62 395 39 27 50 30 124 30 69 0 88 -4 120 -24 50 -31 94 -92 113 -157 17 -60
41 -75 79 -50 29 19 30 25 11 87 -47 154 -145 232 -306 244 -38 3 -84 0 -110
-8z"/>
</g>
</svg>
