<svg version="1.0" xmlns="http://www.w3.org/2000/svg"
 width="691.000000pt" height="1056.000000pt" viewBox="0 0 691.000000 1056.000000"
 preserveAspectRatio="xMidYMid meet">
<g transform="translate(0.000000,1056.000000) scale(0.100000,-0.100000)"
fill="#000000" stroke="none">
<path d="M496 10035 c-24 -12 -33 -55 -32 -152 1 -65 2 -67 30 -74 46 -13 62
3 69 67 3 31 11 61 18 65 10 6 231 6 327 0 46 -2 29 -27 -163 -233 -60 -63
-135 -164 -135 -180 0 -18 41 -58 59 -58 7 0 25 8 39 19 36 24 104 34 151 21
72 -19 111 -65 136 -161 24 -91 -39 -258 -115 -302 -22 -14 -52 -19 -114 -19
-72 -1 -90 3 -123 23 -55 34 -85 72 -113 148 -26 66 -26 66 -63 65 -21 -1 -40
-4 -43 -7 -9 -9 15 -105 38 -154 92 -197 394 -241 537 -78 68 78 107 195 99
299 -9 103 -27 145 -88 207 -47 47 -65 58 -122 73 -38 10 -68 21 -68 24 0 7
42 61 81 103 71 76 163 180 177 200 16 23 10 53 -16 87 -17 22 -20 23 -282 25
-164 1 -271 -2 -284 -8z"/>
<path d="M2999 9282 c-139 -56 -209 -179 -209 -365 0 -249 122 -476 509 -946
105 -128 171 -201 182 -201 27 0 302 322 478 560 187 252 266 464 241 644 -29
200 -110 291 -278 314 -157 22 -295 -43 -393 -185 -16 -23 -35 -40 -42 -37 -7
2 -23 24 -36 49 -31 60 -99 121 -169 153 -77 35 -214 42 -283 14z"/>
<path d="M516 8810 c-39 -12 -75 -47 -97 -95 -42 -91 -13 -194 104 -361 46
-65 100 -137 121 -159 20 -22 44 -50 52 -62 14 -20 17 -20 42 -6 15 9 45 38
67 66 22 27 55 66 74 86 44 47 115 156 149 229 34 74 37 179 6 232 -24 43 -75
70 -131 70 -56 0 -89 -14 -136 -56 l-39 -36 -37 36 c-37 36 -97 67 -128 65
-10 0 -31 -5 -47 -9z"/>
<path d="M2977 6036 c-115 -33 -175 -103 -211 -243 -36 -138 -13 -298 64 -458
44 -91 187 -312 279 -430 135 -174 314 -375 333 -375 29 0 214 202 393 430
243 310 345 533 332 725 -7 100 -28 170 -70 230 -44 64 -99 102 -180 121 -81
20 -165 10 -252 -30 -63 -28 -167 -122 -185 -167 -16 -39 -33 -37 -53 7 -28
57 -114 141 -176 171 -68 32 -196 41 -274 19z"/>
<path d="M3364 2735 c-102 -109 -245 -279 -339 -400 -276 -358 -360 -575 -311
-807 17 -80 35 -116 83 -169 47 -51 93 -75 177 -89 163 -29 291 34 422 206
l21 28 35 -55 c92 -142 227 -210 378 -189 154 22 240 105 276 269 50 222 -39
464 -294 803 -107 142 -291 364 -346 418 l-46 44 -56 -59z"/>
<path d="M6103 2428 c-58 -60 -195 -243 -223 -297 -89 -175 -44 -351 89 -351
52 0 128 30 160 62 l31 32 28 -31 c52 -60 118 -80 196 -58 93 26 127 154 76
289 -12 32 -48 96 -79 141 -68 101 -202 265 -216 265 -6 0 -34 -24 -62 -52z"/>
<path d="M6027 1615 c-95 -35 -182 -130 -213 -231 -18 -61 -18 -167 1 -231 28
-95 118 -183 201 -199 18 -3 38 -12 45 -20 13 -16 -8 -49 -91 -139 -158 -174
-175 -200 -149 -232 32 -38 70 -43 331 -43 139 0 259 4 267 9 11 7 14 33 14
106 -1 53 -5 101 -11 107 -5 5 -25 8 -43 6 -34 -3 -34 -4 -40 -62 -4 -32 -13
-62 -20 -67 -17 -10 -127 -11 -261 -2 -95 6 -97 6 -86 27 14 26 127 155 229
261 87 90 107 135 69 155 -23 12 -47 10 -135 -11 -66 -16 -117 -5 -161 33 -55
48 -74 95 -74 180 0 127 72 240 171 269 55 17 157 0 209 -35 45 -29 90 -115
90 -171 l0 -36 48 3 47 3 -1 56 c-2 112 -87 220 -201 258 -73 24 -178 27 -236
6z"/>
</g>
</svg>
