<svg version="1.0" xmlns="http://www.w3.org/2000/svg"
 width="691.000000pt" height="1056.000000pt" viewBox="0 0 691.000000 1056.000000"
 preserveAspectRatio="xMidYMid meet">
<g transform="translate(0.000000,1056.000000) scale(0.100000,-0.100000)"
fill="#000000" stroke="none">
<path d="M678 9933 l-46 -4 -41 -78 c-22 -42 -105 -196 -185 -342 -204 -370
-204 -369 83 -369 198 0 191 4 191 -104 0 -70 -11 -86 -62 -86 -30 0 -48 -17
-48 -45 0 -40 17 -45 156 -45 73 0 139 3 148 6 10 4 16 18 16 40 0 37 -20 54
-65 54 -32 0 -45 30 -45 104 0 64 12 76 76 84 45 5 46 5 40 36 -7 36 -30 56
-63 56 -13 0 -32 9 -43 20 -19 19 -20 34 -20 336 1 315 -3 347 -34 342 -6 -1
-32 -3 -58 -5z m-6 -420 c3 -126 1 -238 -3 -250 -8 -22 -12 -23 -154 -23
l-146 0 43 78 c24 43 86 155 138 250 52 95 100 172 106 172 8 0 13 -64 16
-227z"/>
<path d="M4689 9153 c-44 -48 -644 -813 -653 -833 -15 -33 2 -62 89 -160 47
-52 111 -129 143 -170 31 -41 87 -107 124 -147 37 -40 104 -119 149 -175 45
-57 108 -132 140 -167 67 -75 86 -76 134 -7 17 24 50 69 75 101 250 316 550
713 550 727 0 15 -677 833 -704 850 -17 12 -20 10 -47 -19z"/>
<path d="M1695 8705 c-201 -256 -341 -443 -343 -458 -2 -19 13 -43 61 -99 108
-125 500 -589 561 -666 56 -69 82 -92 104 -92 6 0 34 30 63 68 28 37 60 74 69
82 9 9 28 32 41 52 13 21 133 177 267 348 134 171 245 317 248 324 3 8 -30 57
-77 113 -385 458 -601 712 -625 735 l-29 27 -340 -434z"/>
<path d="M452 8544 c-76 -95 -132 -176 -132 -188 0 -21 263 -341 280 -341 16
0 269 329 270 350 0 17 -259 335 -279 343 -4 1 -67 -73 -139 -164z"/>
<path d="M4793 3148 c-41 -44 -633 -796 -652 -829 -19 -33 -44 1 299 -404 145
-170 292 -347 327 -392 35 -45 69 -83 76 -86 19 -6 45 4 51 20 3 8 149 199
323 425 175 225 321 418 325 427 3 11 -1 29 -10 43 -30 45 -692 828 -700 828
-5 0 -22 -15 -39 -32z"/>
<path d="M2134 3122 c-12 -8 -641 -803 -668 -845 -13 -20 -15 -30 -7 -46 6
-10 161 -197 344 -414 183 -217 340 -405 348 -418 19 -28 34 -20 86 46 335
426 616 790 625 810 8 19 8 29 -5 47 -19 29 -628 751 -670 796 -33 34 -36 36
-53 24z"/>
<path d="M6164 2418 c-67 -85 -129 -166 -139 -181 -21 -33 -27 -24 132 -212
78 -92 125 -140 138 -140 13 0 44 30 88 85 103 128 187 241 187 251 0 5 -57
77 -127 161 -71 84 -135 161 -143 171 -15 17 -23 9 -136 -135z"/>
<path d="M6105 1701 l-100 -6 0 -40 c0 -38 2 -41 39 -53 61 -20 66 -28 66 -98
0 -53 -3 -65 -22 -78 -12 -9 -31 -13 -43 -10 -39 10 -69 -39 -46 -74 4 -7 30
-19 57 -26 l49 -12 6 -65 c4 -35 8 -154 9 -264 1 -110 5 -229 9 -265 5 -58 9
-66 32 -74 20 -7 36 -4 65 10 42 21 33 5 275 447 66 121 122 232 126 247 4 22
-1 35 -20 54 -26 26 -27 26 -200 26 -121 0 -177 4 -185 12 -17 17 -16 152 2
167 7 6 27 13 45 15 17 2 34 6 37 9 11 11 6 69 -7 78 -14 9 -25 9 -194 0z
m403 -386 c3 -3 -182 -344 -228 -420 -20 -33 -44 -61 -53 -63 -16 -3 -17 18
-17 231 0 179 3 237 13 245 16 14 119 20 212 14 39 -2 71 -5 73 -7z"/>
</g>
</svg>
