<svg version="1.0" xmlns="http://www.w3.org/2000/svg"
 width="691.000000pt" height="1056.000000pt" viewBox="0 0 691.000000 1056.000000"
 preserveAspectRatio="xMidYMid meet">
<g transform="translate(0.000000,1056.000000) scale(0.100000,-0.100000)"
fill="#000000" stroke="none">
<path d="M720 9930 c-12 -17 -38 -61 -57 -98 -19 -37 -56 -102 -81 -145 -26
-43 -61 -103 -77 -135 -37 -70 -109 -194 -141 -243 -19 -31 -21 -42 -14 -71
19 -69 17 -68 202 -69 162 0 169 -1 195 -24 25 -20 28 -30 26 -74 -3 -75 -15
-91 -68 -91 -42 0 -44 -1 -51 -35 -12 -65 -11 -65 161 -65 l155 0 0 50 0 50
-45 0 c-55 0 -62 12 -61 101 1 82 15 102 63 93 41 -8 53 4 53 53 0 34 -8 39
-75 45 -26 3 -31 8 -37 43 -4 22 -7 171 -7 332 -1 329 3 313 -80 313 -33 0
-43 -5 -61 -30z m38 -416 l-3 -239 -147 -3 c-82 -1 -148 -1 -148 2 0 2 64 115
141 251 84 145 145 243 150 238 5 -5 8 -117 7 -249z"/>
<path d="M4205 9166 c-73 -18 -91 -31 -141 -98 -65 -89 -88 -172 -81 -301 3
-66 13 -125 27 -167 28 -84 114 -262 134 -279 9 -8 16 -19 16 -25 0 -10 8 -22
70 -99 14 -18 41 -54 59 -82 33 -48 76 -102 125 -155 12 -14 40 -47 61 -75 21
-27 64 -77 94 -110 31 -33 66 -73 78 -89 28 -37 58 -30 99 21 16 20 43 51 60
67 74 73 342 427 429 567 109 176 155 310 155 450 0 195 -67 320 -198 369 -84
32 -225 26 -304 -13 -57 -28 -130 -95 -170 -156 -13 -19 -28 -36 -35 -38 -6
-2 -28 21 -49 53 -93 140 -258 202 -429 160z"/>
<path d="M1720 9163 c-184 -31 -289 -284 -225 -542 15 -63 132 -315 153 -331
7 -5 22 -27 50 -74 9 -16 27 -38 40 -49 12 -11 22 -24 22 -29 0 -4 37 -53 83
-109 45 -55 100 -124 122 -152 22 -29 51 -63 65 -77 14 -14 39 -41 55 -60 35
-41 92 -90 105 -90 5 0 26 19 47 42 21 23 47 52 58 63 43 46 172 202 195 235
13 19 37 49 53 67 17 18 40 47 51 66 12 19 54 83 94 143 86 127 154 262 178
354 28 102 24 245 -10 347 -30 94 -53 118 -156 167 -58 28 -75 31 -160 31 -85
0 -101 -3 -153 -29 -54 -28 -130 -98 -188 -175 l-25 -34 -33 51 c-92 143 -252
214 -421 185z"/>
<path d="M433 8750 c-84 -62 -97 -150 -43 -287 18 -45 40 -90 49 -100 9 -10
24 -30 33 -45 20 -30 122 -156 169 -205 16 -18 36 -33 43 -33 26 0 205 221
264 328 100 177 67 347 -71 367 -51 8 -99 -9 -158 -55 -42 -34 -56 -32 -94 10
-53 58 -129 66 -192 20z"/>
<path d="M4574 2786 c-303 -351 -501 -649 -549 -831 -51 -194 -16 -379 94
-493 23 -23 49 -42 59 -42 10 0 22 -4 28 -10 16 -16 125 -23 188 -11 72 13
161 53 200 89 15 15 46 51 68 80 l40 54 76 -79 c101 -104 165 -137 279 -142
195 -8 300 78 349 286 56 239 -84 530 -481 998 -130 153 -208 235 -222 235 -7
0 -65 -60 -129 -134z"/>
<path d="M2134 2848 c-211 -229 -470 -579 -549 -743 -88 -182 -113 -384 -64
-514 32 -85 103 -164 167 -186 105 -36 242 -26 341 24 42 22 107 91 151 159
l28 42 30 -47 c17 -27 57 -73 89 -104 70 -67 129 -89 243 -89 111 0 173 22
236 85 63 63 93 141 101 270 15 233 -103 462 -460 895 -117 142 -235 270 -248
270 -4 0 -33 -28 -65 -62z"/>
<path d="M6144 2476 c-79 -83 -184 -228 -226 -312 -66 -133 -63 -241 7 -303
65 -57 152 -51 226 17 29 25 44 33 53 26 7 -5 32 -23 54 -40 50 -38 98 -49
151 -34 74 20 111 81 111 185 -1 61 -30 136 -91 230 -54 83 -202 260 -226 269
-11 5 -30 -8 -59 -38z"/>
<path d="M5932 1668 c-13 -13 -16 -47 -4 -64 4 -7 25 -19 47 -28 50 -21 55
-29 55 -92 0 -65 -16 -86 -71 -93 -47 -6 -56 -21 -45 -67 5 -20 13 -24 45 -24
71 0 71 2 71 -336 0 -330 3 -347 56 -352 65 -6 70 -1 263 338 204 358 217 392
165 426 -24 16 -55 20 -204 24 l-175 5 -9 37 c-6 23 -6 56 0 85 9 45 11 48 47
54 53 8 74 31 61 66 l-9 28 -140 3 c-101 2 -144 -1 -153 -10z m498 -374 c0 -4
-64 -119 -141 -256 -91 -160 -145 -246 -151 -240 -14 14 -10 472 4 489 8 10
48 13 149 13 77 0 139 -3 139 -6z"/>
</g>
</svg>
