<svg version="1.0" xmlns="http://www.w3.org/2000/svg"
 width="691.000000pt" height="1056.000000pt" viewBox="0 0 691.000000 1056.000000"
 preserveAspectRatio="xMidYMid meet">
<g transform="translate(0.000000,1056.000000) scale(0.100000,-0.100000)"
fill="#000000" stroke="none">
<path d="M613 9983 c-12 -2 -27 -11 -33 -19 -7 -8 -18 -14 -24 -14 -36 -1
-126 -119 -157 -208 -41 -116 -56 -218 -48 -338 21 -307 127 -459 333 -472 75
-5 132 13 182 55 27 24 87 101 102 133 15 33 30 155 25 205 -11 105 -91 217
-188 265 -71 35 -170 34 -242 -3 -28 -15 -54 -31 -58 -37 -3 -5 -15 -10 -26
-10 -18 0 -20 4 -14 48 16 114 51 196 107 249 104 100 237 77 315 -54 26 -44
47 -52 84 -33 56 30 -30 167 -136 216 -40 19 -65 24 -125 23 -41 -1 -85 -4
-97 -6z m156 -483 c128 -65 167 -252 80 -384 -90 -135 -263 -121 -342 28 -31
58 -31 193 0 251 25 47 78 100 113 114 41 16 108 12 149 -9z"/>
<path d="M1740 9177 c-97 -27 -174 -99 -211 -196 -30 -78 -38 -251 -15 -341
18 -71 92 -227 143 -304 18 -26 33 -54 33 -60 0 -7 12 -23 26 -37 14 -13 50
-61 81 -106 30 -45 65 -92 77 -105 12 -13 35 -41 51 -63 16 -22 34 -44 40 -50
7 -5 58 -63 115 -128 87 -100 107 -118 128 -115 50 6 441 466 566 666 79 126
124 231 141 328 42 232 -19 415 -162 485 -41 20 -63 23 -158 24 -99 0 -116 -3
-167 -27 -64 -30 -136 -92 -180 -155 -16 -24 -33 -43 -38 -43 -5 0 -25 24 -43
53 -46 71 -117 132 -186 158 -68 26 -179 34 -241 16z"/>
<path d="M4263 9160 c-45 -14 -143 -108 -176 -168 -42 -77 -61 -165 -53 -252
9 -114 64 -269 141 -398 92 -156 402 -549 525 -667 l42 -40 93 98 c122 128
322 371 412 505 196 286 254 477 204 670 -36 138 -96 206 -215 243 -59 18
-232 7 -276 -17 -93 -51 -132 -86 -176 -156 -16 -27 -34 -48 -40 -48 -6 0 -23
21 -37 48 -38 69 -122 147 -181 166 -59 20 -219 29 -263 16z"/>
<path d="M855 8813 c-58 -13 -91 -29 -127 -61 l-39 -35 -32 30 c-46 44 -89 63
-145 63 -159 0 -202 -197 -83 -384 17 -28 31 -54 31 -59 0 -6 19 -31 43 -57
52 -58 141 -168 145 -181 2 -5 15 -9 30 -9 18 0 40 15 75 53 85 91 179 217
225 300 28 50 55 172 47 207 -12 47 -58 109 -87 115 -15 4 -30 11 -33 16 -6 9
-16 10 -50 2z"/>
<path d="M1751 6059 c-88 -17 -137 -39 -174 -78 -20 -22 -37 -44 -37 -50 0 -6
-4 -11 -8 -11 -5 0 -19 -33 -33 -72 -21 -63 -24 -90 -23 -201 1 -82 5 -132 12
-139 7 -7 12 -20 12 -30 0 -10 4 -26 9 -36 5 -9 30 -60 56 -112 26 -52 60
-114 76 -138 16 -24 29 -45 29 -47 0 -12 241 -316 354 -447 119 -139 152 -168
176 -153 26 16 374 423 448 522 45 62 82 115 82 118 0 3 5 11 10 18 13 15 83
145 114 212 37 80 49 133 53 243 4 87 1 113 -18 169 -41 125 -87 174 -198 211
-94 32 -171 29 -268 -8 -83 -32 -171 -104 -205 -168 -23 -43 -43 -40 -69 11
-12 23 -46 65 -76 94 -43 40 -70 56 -122 72 -83 25 -144 31 -200 20z"/>
<path d="M4277 6039 c-46 -7 -72 -18 -122 -54 -75 -53 -101 -92 -126 -188 -24
-91 -24 -201 1 -303 20 -84 91 -243 135 -300 14 -18 25 -37 25 -42 0 -5 8 -18
18 -30 9 -11 24 -30 32 -42 8 -12 38 -51 65 -87 28 -36 59 -77 70 -91 11 -15
45 -58 75 -96 30 -38 66 -83 79 -100 41 -53 175 -186 187 -186 13 0 202 198
282 295 27 33 88 112 136 175 47 63 92 122 100 130 7 8 17 25 20 38 4 12 11
22 16 22 4 0 10 8 14 18 3 9 17 35 30 57 36 58 70 131 103 220 22 62 24 218 4
318 -18 92 -79 175 -155 212 -80 39 -203 46 -293 15 -99 -33 -137 -62 -207
-157 -25 -35 -48 -63 -50 -63 -2 0 -18 25 -35 55 -80 142 -226 208 -404 184z"/>
<path d="M2070 2838 c-107 -114 -355 -427 -439 -553 -136 -203 -181 -320 -189
-490 -4 -107 -4 -113 27 -185 60 -142 153 -210 288 -210 163 0 266 51 358 178
25 34 47 62 50 62 2 0 16 -21 31 -47 38 -66 109 -133 176 -165 51 -25 67 -28
162 -28 121 0 173 17 232 78 46 47 93 149 107 227 23 135 -33 346 -136 510
-81 128 -157 238 -194 281 -18 20 -33 40 -33 44 0 4 -8 16 -17 27 -10 12 -31
38 -48 58 -16 21 -44 52 -60 70 -17 17 -42 47 -57 66 -60 77 -144 159 -163
158 -12 0 -52 -35 -95 -81z"/>
<path d="M4638 2853 c-46 -45 -290 -337 -390 -468 -114 -150 -202 -305 -237
-420 -42 -134 -36 -351 10 -417 11 -14 19 -30 19 -35 0 -5 19 -27 43 -49 96
-93 269 -109 417 -41 54 25 131 103 170 171 l28 49 22 -44 c45 -89 148 -188
210 -202 14 -3 41 -10 61 -15 49 -13 185 1 236 24 30 13 58 39 92 84 62 82 85
158 84 285 -1 196 -69 343 -320 688 -69 95 -148 197 -177 228 -28 32 -80 91
-116 133 -36 42 -73 75 -84 76 -10 0 -40 -21 -68 -47z"/>
<path d="M6148 2453 c-62 -67 -190 -238 -225 -300 -46 -83 -64 -163 -52 -230
16 -87 65 -127 154 -126 58 0 97 18 139 62 l29 31 48 -45 c50 -47 94 -62 156
-52 79 13 123 77 123 182 0 105 -60 215 -219 408 -90 108 -109 116 -153 70z"/>
<path d="M6125 1626 c-66 -21 -94 -39 -138 -94 -28 -33 -51 -77 -65 -121 -20
-62 -22 -77 -13 -156 13 -108 47 -181 110 -235 58 -50 155 -84 210 -75 40 7
138 51 180 82 l24 18 -6 -73 c-8 -93 -41 -166 -107 -236 -49 -52 -55 -55 -114
-61 -52 -6 -70 -4 -102 13 -49 25 -79 57 -99 106 -13 32 -20 37 -38 32 -12 -3
-30 -6 -41 -6 -16 0 -18 -6 -13 -39 6 -44 42 -124 66 -145 32 -27 145 -59 211
-59 120 0 209 62 274 190 55 111 67 164 73 323 6 168 -9 258 -57 356 -39 81
-124 169 -176 183 -51 14 -129 13 -179 -3z m163 -100 c34 -18 75 -61 98 -106
29 -53 27 -200 -3 -256 -43 -80 -129 -133 -197 -120 -58 11 -119 58 -151 117
-26 47 -29 64 -30 134 0 63 5 88 22 120 22 41 72 94 108 113 28 16 121 15 153
-2z"/>
</g>
</svg>
