<svg version="1.0" xmlns="http://www.w3.org/2000/svg"
 width="683.000000pt" height="1052.000000pt" viewBox="0 0 683.000000 1052.000000"
 preserveAspectRatio="xMidYMid meet">
<g transform="translate(0.000000,1052.000000) scale(0.100000,-0.100000)"
fill="#000000" stroke="none">
<path d="M554 9954 c-53 -19 -117 -74 -148 -127 -38 -65 -84 -213 -96 -309
-20 -163 30 -389 108 -493 133 -176 384 -149 486 52 110 218 -8 484 -230 519
-55 8 -138 -16 -205 -61 -28 -20 -55 -38 -59 -40 -12 -7 19 142 41 202 57 151
180 218 297 162 41 -20 55 -37 108 -125 7 -12 17 -15 35 -11 50 14 52 19 28
82 -27 71 -80 127 -144 149 -59 20 -165 20 -221 0z m185 -484 c82 -58 124
-167 103 -267 -25 -121 -99 -196 -195 -196 -29 0 -66 7 -83 16 -108 56 -157
234 -96 353 23 45 76 98 112 113 41 17 123 8 159 -19z"/>
<path d="M2112 9293 c-31 -28 -564 -709 -603 -773 -58 -93 -80 -230 -55 -341
31 -138 100 -221 209 -254 146 -43 265 12 357 168 19 31 39 57 44 57 5 0 7
-44 3 -102 -5 -92 -39 -239 -82 -350 -7 -17 4 -18 140 -18 113 0 145 3 141 13
-44 108 -96 324 -96 401 0 62 15 62 53 3 84 -131 164 -187 268 -187 87 0 146
25 211 90 77 77 102 156 96 299 -6 151 -31 194 -359 615 -149 192 -276 360
-282 373 -12 28 -19 28 -45 6z"/>
<path d="M4697 9287 c-36 -27 -579 -736 -608 -793 -44 -89 -66 -209 -51 -292
32 -189 154 -301 315 -290 108 7 172 52 262 185 l47 68 -6 -105 c-5 -101 -35
-238 -71 -324 -8 -19 -15 -40 -15 -46 0 -6 52 -10 146 -10 135 0 146 1 139 18
-70 163 -122 442 -82 442 7 0 27 -24 44 -53 73 -122 154 -176 260 -177 131 0
235 72 283 196 19 48 24 79 24 164 1 129 -21 196 -102 309 -81 112 -526 683
-549 703 -16 15 -22 16 -36 5z"/>
<path d="M494 8606 c-71 -92 -137 -183 -146 -204 -49 -106 12 -232 112 -232
37 0 65 13 102 48 15 14 30 23 33 20 3 -3 -1 -37 -10 -77 -8 -40 -15 -77 -15
-82 0 -5 24 -9 54 -9 l53 0 -15 75 c-8 42 -12 78 -9 81 3 3 26 -9 52 -27 52
-38 96 -42 144 -13 68 40 80 157 27 248 -21 36 -217 298 -246 329 -4 5 -66
-66 -136 -157z"/>
<path d="M2107 6085 c-15 -15 -278 -348 -500 -635 -144 -185 -174 -262 -165
-420 12 -202 128 -325 308 -325 114 0 181 45 264 178 51 80 60 75 53 -27 -6
-88 -30 -194 -71 -313 l-25 -73 145 0 c85 0 144 4 144 10 0 5 -8 31 -19 57
-45 114 -84 350 -63 380 6 9 25 -10 63 -62 104 -143 215 -187 349 -136 113 43
179 136 201 281 14 89 -3 192 -45 281 -19 40 -563 758 -615 812 -5 5 -15 1
-24 -8z"/>
<path d="M4453 5778 c-434 -561 -417 -532 -418 -718 0 -106 2 -120 29 -178 51
-111 155 -182 266 -182 104 0 188 53 264 167 39 57 44 62 50 41 16 -61 -5
-209 -49 -338 -14 -41 -25 -79 -25 -85 0 -8 43 -14 137 -18 75 -4 138 -5 140
-3 2 1 -17 77 -42 167 -45 160 -59 269 -40 288 7 7 32 -19 71 -73 52 -71 71
-88 124 -115 190 -94 382 30 422 275 22 131 -15 243 -131 399 -122 163 -517
669 -533 683 -14 11 -49 -30 -265 -310z"/>
<path d="M2006 2770 c47 -153 69 -279 57 -327 l-9 -38 -51 76 c-85 125 -159
173 -268 172 -96 -1 -173 -42 -226 -120 -92 -133 -99 -309 -21 -463 37 -72
609 -821 625 -817 17 5 591 747 619 801 44 87 58 141 58 231 0 215 -102 349
-277 363 -36 3 -82 -1 -108 -8 -59 -17 -132 -82 -185 -166 -24 -38 -45 -62
-52 -58 -25 16 10 218 67 383 14 41 25 76 25 78 0 2 -65 3 -144 3 l-143 0 33
-110z"/>
<path d="M4576 2833 c37 -121 64 -223 73 -278 11 -63 3 -128 -14 -124 -6 2
-31 33 -57 70 -76 108 -147 149 -257 149 -73 0 -143 -33 -199 -94 -65 -71 -84
-123 -90 -243 -5 -118 15 -204 68 -287 38 -59 574 -751 590 -761 6 -4 18 -1
26 6 9 7 111 135 228 284 443 564 430 542 430 725 1 152 -16 204 -93 281 -64
64 -124 89 -210 89 -99 -1 -169 -46 -253 -164 l-50 -71 4 120 c4 105 9 133 41
228 20 60 37 111 37 113 0 2 -65 4 -145 4 l-144 0 15 -47z"/>
<path d="M6144 2445 c11 -59 19 -145 13 -145 -4 0 -22 16 -40 36 -59 64 -155
58 -190 -14 -41 -81 -27 -155 50 -266 80 -114 204 -271 214 -271 11 0 258 332
271 364 14 36 13 143 -1 170 -17 32 -70 61 -111 61 -35 0 -110 -41 -110 -60 0
-6 -6 -10 -14 -10 -11 0 -12 10 -5 48 5 26 11 61 14 79 l6 31 -52 4 -51 3 6
-30z"/>
<path d="M6065 1626 c-59 -27 -128 -98 -158 -164 -17 -38 -21 -66 -22 -152 0
-93 3 -111 26 -161 67 -141 212 -216 340 -175 28 10 75 33 103 52 28 19 52 30
54 24 2 -5 -3 -45 -12 -88 -34 -185 -136 -294 -261 -280 -56 7 -108 45 -148
110 -16 26 -31 48 -32 48 -1 0 -16 -5 -34 -11 -36 -13 -38 -27 -10 -89 25 -56
62 -95 114 -123 56 -30 201 -31 260 -2 96 47 167 158 206 321 18 75 20 109 16
219 -7 179 -49 313 -127 407 -71 85 -210 114 -315 64z m173 -81 c67 -28 107
-82 137 -183 28 -93 -30 -234 -114 -279 -183 -96 -359 144 -258 350 52 105
145 149 235 112z"/>
</g>
</svg>
