<svg version="1.0" xmlns="http://www.w3.org/2000/svg"
 width="691.000000pt" height="1056.000000pt" viewBox="0 0 691.000000 1056.000000"
 preserveAspectRatio="xMidYMid meet">
<g transform="translate(0.000000,1056.000000) scale(0.100000,-0.100000)"
fill="#000000" stroke="none">
<path d="M385 9956 c-28 -21 -35 -66 -29 -164 4 -54 11 -103 17 -109 12 -16
59 -17 75 -1 7 7 12 41 12 84 0 40 3 79 6 88 5 14 34 16 214 16 115 0 211 -4
214 -8 2 -4 -18 -48 -46 -97 -83 -149 -185 -358 -207 -425 -28 -85 -71 -309
-71 -370 0 -44 3 -52 26 -62 37 -17 58 0 66 53 37 240 84 402 160 553 54 108
188 321 211 337 14 10 -1 74 -22 93 -17 15 -53 17 -315 20 -201 2 -301 -1
-311 -8z"/>
<path d="M1826 9157 c-86 -26 -162 -92 -203 -175 -24 -50 -28 -69 -28 -147 0
-80 3 -97 31 -155 18 -36 58 -94 89 -130 32 -35 53 -66 46 -68 -6 -2 -37 6
-68 19 -41 15 -81 22 -138 23 -68 1 -88 -3 -136 -27 -69 -33 -132 -99 -167
-175 -24 -50 -27 -69 -26 -152 0 -80 4 -105 27 -160 35 -82 102 -153 182 -191
79 -38 184 -41 254 -7 62 29 138 110 181 188 l34 65 7 -35 c15 -71 -13 -196
-79 -346 -27 -61 -38 -88 -53 -129 -3 -6 65 -10 189 -11 180 -1 192 0 192 18
0 10 -4 27 -10 38 -5 11 -14 29 -20 39 -69 140 -137 421 -102 421 15 0 40 -33
61 -80 27 -60 95 -132 151 -160 60 -31 159 -38 231 -16 154 46 268 223 255
396 -4 65 -59 181 -107 229 -85 86 -227 114 -359 71 -39 -13 -73 -20 -76 -17
-3 2 20 33 50 67 31 34 71 92 88 129 30 59 33 74 33 156 0 76 -4 99 -26 146
-35 73 -87 122 -176 165 -67 31 -79 34 -165 33 -65 0 -114 -7 -162 -22z"/>
<path d="M4785 9153 c-74 -27 -139 -68 -175 -110 -67 -82 -90 -250 -48 -354
12 -30 50 -87 85 -127 35 -40 63 -77 63 -82 0 -10 -64 6 -104 27 -47 24 -177
13 -243 -20 -131 -67 -183 -152 -196 -322 -4 -48 26 -154 59 -211 34 -60 116
-130 177 -151 71 -24 169 -22 230 5 66 29 154 116 182 178 42 94 59 77 45 -44
-8 -75 -17 -102 -74 -238 -14 -34 -34 -89 -45 -123 l-19 -62 36 8 c21 5 108 8
195 7 108 -1 157 2 157 10 0 6 -13 39 -29 73 -66 138 -111 300 -111 394 0 45
15 51 32 12 20 -47 94 -147 137 -186 50 -45 74 -52 176 -52 100 0 184 35 244
100 174 189 132 491 -84 603 -43 23 -62 26 -135 26 -62 -1 -100 -7 -139 -22
-30 -12 -58 -19 -62 -16 -5 3 16 35 47 71 101 118 138 233 114 350 -22 108
-91 191 -199 241 -75 35 -238 42 -316 15z"/>
<path d="M615 8791 c-104 -26 -144 -122 -95 -228 10 -24 16 -43 12 -44 -4 0
-28 -2 -54 -4 -87 -5 -144 -74 -136 -164 7 -69 27 -103 78 -128 62 -32 94 -29
152 13 27 20 52 33 56 29 4 -3 -5 -41 -20 -83 -15 -41 -26 -77 -24 -79 1 -2
32 -4 69 -5 85 -4 96 6 68 61 -12 22 -24 62 -28 88 l-6 48 52 -49 c53 -48 53
-49 108 -43 32 3 63 13 75 24 53 48 74 152 43 213 -19 36 -82 70 -130 70 -43
0 -50 14 -30 63 22 54 20 128 -6 161 -38 48 -119 73 -184 57z"/>
<path d="M3320 7645 c-103 -29 -182 -93 -232 -187 -19 -36 -23 -58 -23 -138 0
-87 3 -101 32 -160 18 -36 57 -93 88 -127 59 -65 59 -87 0 -59 -51 24 -143 39
-200 31 -184 -24 -312 -201 -290 -403 7 -71 40 -138 112 -233 58 -76 99 -93
223 -94 89 0 111 3 146 22 52 28 97 78 159 178 l50 80 3 -62 c2 -49 -3 -76
-23 -125 -26 -65 -115 -323 -115 -336 0 -4 87 -7 194 -7 l194 0 -21 50 c-107
263 -145 410 -118 454 8 12 13 8 28 -18 103 -187 193 -249 343 -239 223 16
368 248 305 488 -27 104 -96 183 -199 225 -56 24 -175 22 -256 -4 -35 -11 -65
-19 -67 -17 -1 1 22 31 52 67 86 99 118 173 123 278 4 79 2 91 -25 149 -34 72
-91 125 -181 168 -47 23 -73 28 -152 31 -63 2 -113 -2 -150 -12z"/>
<path d="M1865 6101 c-57 -14 -176 -82 -208 -118 -48 -53 -70 -123 -71 -223
-1 -76 2 -92 30 -150 17 -36 57 -94 89 -130 32 -35 53 -66 47 -68 -7 -2 -37 6
-67 17 -40 15 -79 21 -139 21 -72 0 -91 -4 -144 -30 -94 -48 -145 -116 -176
-237 -20 -76 -20 -119 -1 -194 28 -107 88 -182 192 -237 52 -27 73 -32 140
-35 78 -2 80 -1 153 43 68 41 79 53 137 144 56 88 63 96 64 70 5 -83 -13 -157
-57 -246 -13 -26 -24 -62 -24 -80 0 -36 -27 -102 -61 -149 -28 -39 -16 -42
107 -30 60 6 135 7 189 2 50 -5 91 -8 93 -7 5 5 -37 113 -67 174 -38 75 -67
182 -77 283 l-7 74 26 -24 c14 -13 35 -47 47 -76 19 -47 32 -61 107 -114 l86
-61 91 1 c82 0 98 3 156 32 139 69 224 255 189 418 -6 30 -18 63 -25 74 -8 11
-14 26 -14 34 0 28 -70 98 -132 132 -60 32 -68 34 -158 33 -73 0 -108 -5 -149
-22 -30 -12 -56 -20 -58 -18 -2 1 9 19 24 38 103 133 124 165 138 211 60 203
-44 391 -243 438 -78 19 -173 23 -227 10z"/>
<path d="M4797 6090 c-101 -26 -195 -100 -239 -188 -20 -40 -23 -62 -23 -152
0 -100 2 -108 34 -167 18 -34 53 -81 77 -105 24 -24 44 -51 44 -60 0 -22 6
-22 -60 3 -84 33 -208 31 -275 -3 -64 -33 -129 -103 -163 -176 -24 -50 -27
-70 -27 -157 0 -92 3 -106 32 -167 37 -79 105 -151 171 -181 72 -33 199 -31
268 5 60 32 147 123 178 187 48 103 54 1 8 -149 -17 -52 -46 -138 -66 -191
-20 -53 -36 -104 -36 -113 0 -14 15 -15 118 -12 64 2 149 1 187 -3 39 -5 72
-7 74 -5 2 2 -21 68 -51 146 -76 196 -107 335 -79 352 4 3 25 -21 45 -53 50
-82 142 -165 207 -186 149 -50 344 56 410 223 33 82 34 226 1 296 -34 75 -84
129 -154 167 -60 32 -68 34 -163 34 -68 -1 -114 -6 -145 -17 -24 -10 -46 -16
-48 -14 -2 2 28 43 67 91 85 106 106 160 105 267 -1 65 -6 87 -33 142 -37 76
-82 118 -169 159 -55 26 -79 31 -161 33 -53 2 -113 -1 -134 -6z"/>
<path d="M1765 3027 c-3 -7 14 -56 39 -108 52 -110 91 -237 101 -331 10 -91
-10 -91 -60 -2 -72 129 -158 186 -288 192 -71 4 -84 1 -142 -27 -73 -36 -122
-87 -168 -176 -30 -57 -32 -66 -32 -170 0 -102 2 -114 29 -165 55 -105 74
-126 139 -156 56 -26 73 -29 167 -29 88 0 112 4 148 22 37 18 44 19 49 6 3 -8
-7 -25 -24 -41 -47 -42 -100 -114 -125 -168 -18 -39 -22 -68 -23 -139 0 -149
50 -231 181 -298 114 -58 205 -68 312 -35 191 59 260 142 270 326 4 89 3 96
-27 155 -18 34 -57 93 -88 131 -46 57 -51 68 -32 62 104 -29 160 -38 220 -33
124 10 219 86 271 217 18 44 22 74 22 150 0 87 -3 100 -33 158 -43 84 -101
145 -170 179 -47 24 -69 28 -136 28 -72 0 -86 -3 -141 -33 -76 -41 -102 -68
-152 -157 -50 -88 -62 -93 -62 -22 0 66 37 198 92 327 22 52 42 108 45 123 5
26 4 28 -22 21 -40 -10 -239 -11 -303 -1 -40 6 -54 5 -57 -6z"/>
<path d="M4708 3025 c-4 -4 2 -26 14 -49 22 -42 65 -155 98 -257 25 -76 38
-203 20 -197 -7 2 -38 42 -69 88 -87 131 -154 166 -304 158 -67 -3 -90 -9
-112 -26 -15 -12 -33 -22 -41 -22 -21 0 -83 -81 -122 -160 -35 -71 -37 -79
-35 -165 6 -268 190 -409 445 -341 31 8 66 20 77 26 36 19 23 -3 -39 -68 -33
-35 -60 -68 -60 -75 0 -6 -9 -20 -20 -32 -28 -29 -53 -155 -45 -220 15 -116
87 -211 204 -267 150 -73 380 -38 475 73 62 73 81 122 84 226 4 86 2 98 -26
156 -16 35 -55 92 -87 127 -66 75 -59 85 36 50 110 -42 260 -9 344 75 159 160
126 481 -61 591 -89 52 -139 64 -221 53 -84 -12 -128 -37 -207 -117 -32 -34
-54 -68 -67 -104 -20 -61 -33 -65 -37 -11 -7 77 29 210 89 325 5 10 9 24 9 31
0 8 11 35 25 60 35 67 27 80 -44 70 -72 -10 -191 -10 -261 0 -30 5 -58 5 -62
2z"/>
<path d="M6153 2494 c-3 -8 4 -36 15 -62 11 -26 23 -65 27 -87 l6 -40 -39 43
c-61 65 -140 69 -206 12 -102 -90 -45 -270 87 -270 51 0 60 -16 35 -63 -30
-60 -21 -127 22 -172 19 -19 49 -40 68 -46 64 -21 166 11 196 61 24 42 22 144
-4 177 -30 39 -25 46 28 38 46 -6 50 -4 95 35 82 73 85 164 7 242 -31 32 -44
38 -79 38 -53 0 -91 -20 -130 -67 -27 -33 -31 -35 -31 -15 0 12 12 55 26 97
14 41 23 78 20 83 -10 16 -137 12 -143 -4z"/>
<path d="M6206 1628 c-3 -13 -10 -61 -16 -108 -30 -233 -132 -484 -295 -728
-70 -104 -79 -138 -45 -172 20 -20 31 -20 333 -18 l312 3 0 140 0 140 -34 3
c-18 2 -37 0 -42 -5 -4 -4 -11 -45 -15 -91 -5 -65 -11 -85 -25 -92 -17 -10
-419 -15 -419 -6 0 3 30 56 67 118 153 261 234 481 263 711 14 114 10 127 -40
127 -33 0 -40 -4 -44 -22z"/>
</g>
</svg>
