<svg version="1.0" xmlns="http://www.w3.org/2000/svg"
 width="683.000000pt" height="1052.000000pt" viewBox="0 0 683.000000 1052.000000"
 preserveAspectRatio="xMidYMid meet">
<g transform="translate(0.000000,1052.000000) scale(0.100000,-0.100000)"
fill="#000000" stroke="none">
<path d="M530 9880 c-168 -4 -306 -7 -307 -8 -6 -4 -1 -199 5 -242 6 -40 10
-45 35 -48 47 -6 57 12 57 97 0 47 5 82 12 89 18 18 418 17 418 -1 0 -7 -18
-44 -41 -82 -149 -254 -244 -529 -256 -743 -7 -111 -3 -122 44 -122 38 0 53
26 53 95 0 75 21 187 50 270 11 33 25 80 31 104 15 68 141 318 215 426 50 74
56 89 45 119 -10 25 -39 57 -49 54 -4 -1 -144 -5 -312 -8z"/>
<path d="M4478 8913 c-106 -136 -257 -328 -335 -428 -112 -141 -143 -187 -143
-210 0 -24 36 -72 191 -255 505 -595 519 -611 534 -602 13 7 635 802 672 859
12 18 12 26 2 45 -12 23 -127 162 -407 493 -263 310 -294 345 -307 345 -8 0
-101 -111 -207 -247z"/>
<path d="M1972 9078 c-9 -11 -31 -37 -48 -57 -16 -20 -48 -61 -69 -91 -22 -30
-89 -118 -150 -195 -271 -342 -385 -494 -385 -515 0 -29 23 -70 55 -100 15
-14 61 -67 102 -118 41 -51 89 -108 106 -125 18 -18 45 -49 60 -70 16 -21 38
-48 50 -60 12 -13 42 -47 67 -77 58 -70 123 -146 163 -191 18 -20 47 -55 65
-78 23 -28 41 -41 58 -41 13 0 24 5 24 11 0 6 16 27 35 47 19 20 35 41 35 45
0 4 28 42 63 85 35 42 78 98 96 125 17 26 36 47 40 47 4 0 13 11 19 25 6 14
29 44 50 67 21 24 45 55 54 69 15 24 72 95 114 143 9 10 30 39 47 65 17 25 48
67 69 92 21 25 38 54 38 66 0 11 -28 51 -61 89 -78 87 -385 451 -462 547 -32
40 -72 88 -90 108 -18 19 -45 52 -61 72 -32 42 -58 47 -84 15z"/>
<path d="M497 8613 c-29 -38 -88 -113 -131 -167 -99 -125 -100 -133 -14 -224
35 -37 92 -104 128 -150 36 -45 73 -82 82 -82 9 0 33 19 52 43 19 23 55 67 80
97 25 30 70 90 100 132 l54 77 -145 170 c-79 94 -146 171 -148 171 -2 0 -28
-30 -58 -67z"/>
<path d="M3352 7613 c-20 -17 -623 -785 -657 -837 -10 -14 -15 -32 -12 -38 8
-22 708 -843 720 -845 7 -2 17 0 23 5 14 10 644 820 663 853 20 35 27 24 -248
347 -125 147 -276 326 -336 397 -59 72 -114 131 -120 133 -7 2 -21 -5 -33 -15z"/>
<path d="M4719 6143 c-37 -40 -630 -798 -652 -833 -16 -25 -16 -32 -5 -53 23
-43 700 -837 714 -837 20 0 25 6 345 421 353 458 350 454 341 479 -7 19 -588
713 -672 803 l-45 48 -26 -28z"/>
<path d="M2023 6067 c-17 -18 -43 -50 -57 -71 -14 -22 -32 -44 -39 -50 -8 -6
-35 -41 -60 -77 -25 -37 -68 -91 -95 -120 -26 -30 -69 -83 -94 -119 -25 -36
-103 -137 -172 -225 -145 -184 -149 -196 -88 -260 20 -22 51 -58 67 -80 17
-22 40 -48 53 -58 12 -10 29 -31 37 -45 7 -15 37 -52 65 -82 29 -30 66 -73 83
-95 17 -22 56 -67 87 -100 31 -33 84 -95 119 -139 111 -140 155 -186 179 -186
12 0 22 4 22 9 0 5 12 24 28 42 15 18 43 54 62 80 47 64 152 198 180 229 12
14 30 36 39 50 21 33 25 39 58 80 50 61 87 110 123 159 19 27 65 88 103 136
37 49 67 98 67 109 0 12 -22 45 -49 73 -27 29 -82 92 -122 140 -40 49 -134
160 -209 248 -75 88 -152 181 -172 207 -65 87 -151 178 -167 178 -9 0 -31 -15
-48 -33z"/>
<path d="M4773 3138 c-27 -31 -627 -800 -648 -832 -14 -20 -14 -29 -4 -48 15
-28 648 -781 691 -821 l30 -29 29 35 c76 92 625 806 640 832 12 20 14 36 9 50
-14 33 -694 829 -711 833 -8 1 -24 -8 -36 -20z"/>
<path d="M2089 3067 c-19 -18 -43 -44 -52 -58 -8 -14 -142 -187 -297 -385
-155 -197 -287 -368 -292 -380 -14 -31 18 -92 87 -164 66 -69 125 -138 178
-208 22 -29 54 -68 71 -86 29 -31 66 -73 128 -148 45 -55 127 -151 152 -178
13 -14 36 -42 51 -62 18 -26 35 -38 51 -38 13 0 24 4 24 9 0 5 15 27 33 49 98
121 117 144 171 222 13 19 36 47 50 62 14 15 26 30 26 34 0 3 12 21 28 39 15
18 41 49 57 70 17 21 35 43 40 49 6 6 22 29 36 52 15 22 44 61 65 86 140 165
160 197 145 238 -11 32 -77 114 -172 215 -31 33 -108 121 -170 196 -302 361
-353 419 -366 419 -5 -1 -24 -15 -44 -33z"/>
<path d="M6228 2513 c-13 -16 -46 -57 -73 -93 -26 -36 -65 -83 -85 -105 -40
-43 -80 -105 -80 -124 0 -6 8 -20 18 -30 19 -21 61 -72 117 -141 20 -24 42
-49 49 -55 7 -5 24 -27 39 -47 31 -42 57 -54 86 -38 11 5 60 62 108 125 125
163 133 175 133 200 0 19 -53 96 -112 165 -79 92 -154 170 -163 170 -6 0 -23
-12 -37 -27z"/>
<path d="M6303 1688 c-6 -7 -13 -48 -16 -90 -20 -241 -111 -493 -281 -773 -52
-86 -66 -115 -61 -135 10 -40 21 -45 118 -50 114 -6 533 3 542 11 10 11 6 282
-5 289 -5 3 -25 4 -44 2 -30 -3 -34 -8 -40 -40 -3 -21 -6 -60 -6 -87 0 -28 -5
-56 -12 -63 -13 -13 -371 -18 -402 -6 -15 6 -14 10 3 38 51 83 64 107 100 183
101 210 154 378 177 561 19 144 13 172 -35 172 -16 0 -33 -6 -38 -12z"/>
</g>
</svg>
