<svg version="1.0" xmlns="http://www.w3.org/2000/svg"
 width="691.000000pt" height="1056.000000pt" viewBox="0 0 691.000000 1056.000000"
 preserveAspectRatio="xMidYMid meet">
<g transform="translate(0.000000,1056.000000) scale(0.100000,-0.100000)"
fill="#000000" stroke="none">
<path d="M473 9940 c-59 -14 -138 -84 -167 -149 -50 -112 -32 -228 51 -329
l36 -44 -41 -41 c-68 -72 -87 -118 -87 -222 0 -81 3 -95 30 -144 33 -60 86
-109 154 -143 37 -18 63 -23 136 -23 79 0 97 4 147 28 61 30 140 109 162 162
7 17 16 64 20 105 6 72 5 78 -28 147 -19 39 -54 90 -77 113 l-43 41 18 27 c47
72 67 131 68 200 3 129 -45 201 -179 270 -25 13 -150 14 -200 2z m198 -114
c102 -68 116 -209 29 -296 -91 -91 -237 -71 -301 43 -44 79 -24 191 44 239 74
53 160 58 228 14z m35 -499 c71 -48 106 -137 84 -218 -17 -62 -92 -133 -154
-147 -147 -31 -282 88 -259 232 8 52 58 116 113 144 63 33 158 28 216 -11z"/>
<path d="M4702 9172 c-11 -9 -150 -183 -310 -387 -159 -203 -306 -390 -326
-415 -20 -25 -36 -56 -36 -71 0 -19 66 -104 256 -330 141 -167 299 -355 351
-416 52 -62 99 -116 105 -120 7 -3 18 4 27 17 8 12 139 181 290 374 379 485
371 474 371 500 0 16 -94 136 -292 372 -433 519 -413 497 -436 476z"/>
<path d="M1995 9093 c-16 -21 -47 -62 -69 -93 -21 -30 -62 -82 -90 -115 -28
-33 -71 -87 -96 -120 -24 -33 -124 -162 -222 -287 -98 -125 -178 -230 -178
-233 0 -3 32 -43 71 -88 39 -45 85 -102 102 -127 17 -25 47 -61 67 -80 20 -19
48 -51 62 -70 14 -19 63 -78 109 -131 46 -52 94 -109 107 -125 33 -42 83 -101
112 -132 14 -15 39 -44 54 -64 16 -21 36 -38 46 -38 19 0 28 10 141 155 38 50
78 99 88 110 10 11 30 37 44 58 15 22 40 55 57 75 34 41 82 103 133 171 17 25
55 71 82 104 28 32 64 79 81 104 18 24 41 54 53 67 12 12 21 27 21 34 0 6
-102 133 -227 282 -126 150 -241 290 -258 313 -16 23 -40 50 -52 60 -12 10
-46 49 -74 87 -28 39 -55 70 -59 70 -3 0 -13 11 -20 25 -19 36 -50 31 -85 -12z"/>
<path d="M457 8538 c-70 -89 -127 -171 -127 -183 0 -11 51 -81 116 -160 64
-77 123 -150 131 -162 8 -13 22 -23 29 -23 8 0 35 30 62 66 26 37 78 106 116
153 79 100 91 121 82 153 -8 30 -246 312 -267 316 -10 2 -61 -56 -142 -160z"/>
<path d="M3281 7514 c-500 -632 -562 -714 -559 -743 2 -21 95 -138 334 -422
183 -217 343 -404 356 -416 l24 -23 26 28 c15 15 168 209 342 432 228 291 316
411 316 430 0 19 -48 83 -176 235 -207 247 -536 635 -538 635 0 0 -57 -70
-125 -156z"/>
<path d="M4740 6165 c-7 -14 -17 -25 -21 -25 -4 0 -29 -30 -55 -67 -26 -38
-98 -131 -159 -208 -61 -77 -133 -169 -160 -205 -27 -36 -67 -86 -91 -111 -23
-25 -53 -64 -67 -86 -14 -22 -44 -61 -66 -87 -23 -26 -41 -58 -41 -71 0 -13
17 -44 38 -69 20 -25 66 -82 102 -127 36 -45 92 -111 125 -148 33 -36 71 -82
85 -101 13 -19 44 -58 69 -86 25 -28 57 -65 71 -83 14 -18 47 -56 73 -84 27
-29 63 -72 79 -97 35 -50 63 -80 76 -80 12 0 44 36 89 101 21 31 57 81 81 110
24 30 53 67 65 82 12 15 29 36 38 45 8 9 32 41 52 69 20 29 109 145 197 259
105 135 160 215 160 230 0 25 -43 80 -325 413 -160 189 -296 353 -340 411 -35
45 -56 50 -75 15z"/>
<path d="M2059 6107 c-9 -7 -43 -50 -77 -97 -34 -47 -179 -233 -322 -415 -143
-181 -260 -336 -260 -344 0 -18 63 -104 122 -167 27 -28 85 -96 131 -151 169
-208 194 -237 279 -333 48 -55 105 -124 128 -154 54 -74 71 -73 132 7 26 34
106 139 177 232 71 94 155 202 188 240 32 39 74 93 93 120 19 28 62 85 97 128
39 48 63 87 63 102 0 15 -22 50 -58 92 -74 86 -504 602 -553 663 -70 87 -103
106 -140 77z"/>
<path d="M3347 4533 c-358 -451 -587 -746 -587 -757 0 -7 78 -105 173 -218 94
-113 258 -307 362 -432 l190 -226 23 27 c76 90 656 841 665 860 7 17 6 27 -4
40 -20 24 -593 706 -648 771 -25 28 -53 52 -63 52 -11 0 -54 -46 -111 -117z"/>
<path d="M4757 3124 c-23 -31 -64 -84 -92 -117 -27 -33 -68 -85 -89 -116 -22
-31 -83 -110 -136 -176 -52 -66 -130 -165 -172 -220 -42 -55 -90 -113 -107
-129 -57 -55 -43 -83 155 -308 50 -57 137 -161 194 -233 58 -71 110 -134 117
-138 7 -4 23 -23 35 -41 21 -29 56 -73 142 -173 15 -18 33 -33 40 -33 17 0 58
45 125 135 32 44 71 91 85 104 14 14 26 30 26 37 0 7 6 17 14 21 8 4 31 34 52
65 22 31 107 144 190 250 191 244 205 264 196 289 -14 38 -696 839 -714 839
-10 0 -37 -25 -61 -56z"/>
<path d="M2108 3113 c-8 -10 -30 -40 -48 -68 -18 -27 -83 -113 -145 -190 -200
-251 -440 -558 -452 -579 -20 -33 -16 -44 35 -99 27 -29 59 -68 72 -87 13 -19
59 -73 101 -120 43 -47 121 -139 175 -205 53 -66 114 -140 136 -165 22 -25 54
-61 71 -81 18 -20 48 -57 67 -82 49 -65 68 -63 121 13 13 20 157 207 320 416
163 208 299 389 303 401 6 17 -26 61 -176 240 -100 120 -223 265 -273 323 -50
58 -126 149 -169 203 -82 102 -107 116 -138 80z"/>
<path d="M6136 2399 c-72 -92 -126 -171 -126 -183 0 -13 54 -86 137 -184 130
-154 138 -161 154 -145 60 62 249 319 249 338 0 27 -252 335 -274 335 -8 0
-71 -73 -140 -161z"/>
<path d="M6205 1717 c-64 -21 -97 -42 -141 -89 -123 -128 -125 -299 -3 -432
27 -30 49 -63 49 -75 0 -12 -13 -39 -29 -61 -103 -143 -31 -367 136 -424 112
-38 228 -12 310 69 63 63 88 135 80 225 -5 57 -42 145 -72 170 -38 32 -38 49
0 92 91 100 117 244 65 353 -31 64 -98 130 -158 157 -59 26 -180 33 -237 15z
m183 -122 c78 -33 122 -101 122 -188 0 -45 -6 -63 -32 -103 -85 -124 -267
-127 -353 -5 -26 37 -30 51 -30 111 0 60 4 74 30 111 57 80 170 112 263 74z
m15 -519 c38 -16 94 -76 103 -112 14 -54 -1 -132 -32 -172 -37 -45 -106 -82
-154 -82 -70 1 -155 59 -179 123 -25 66 -4 164 45 209 53 48 149 63 217 34z"/>
</g>
</svg>
