<svg version="1.0" xmlns="http://www.w3.org/2000/svg"
 width="691.000000pt" height="1056.000000pt" viewBox="0 0 691.000000 1056.000000"
 preserveAspectRatio="xMidYMid meet">
<g transform="translate(0.000000,1056.000000) scale(0.100000,-0.100000)"
fill="#000000" stroke="none">
<path d="M445 9968 c-88 -32 -165 -114 -185 -198 -18 -77 14 -196 76 -277 l24
-32 -35 -49 c-121 -169 -125 -320 -12 -436 71 -71 131 -98 232 -104 104 -5
173 19 249 89 70 64 100 130 100 224 0 90 -31 161 -102 230 l-51 49 20 31 c94
139 100 271 19 374 -57 72 -141 111 -234 110 -39 0 -84 -5 -101 -11z m150 -89
c144 -39 192 -207 91 -317 -53 -59 -156 -74 -233 -34 -88 46 -128 164 -85 249
25 48 73 91 110 99 15 3 32 7 37 9 19 6 40 5 80 -6z m70 -493 c128 -59 171
-196 99 -312 -81 -131 -280 -145 -383 -27 -130 147 -23 362 179 363 37 0 72
-8 105 -24z"/>
<path d="M4688 9293 c-33 -36 -528 -673 -573 -738 -58 -84 -79 -155 -78 -270
0 -80 5 -112 23 -159 58 -152 216 -235 365 -192 69 21 142 88 194 179 37 66
51 63 51 -11 0 -62 -35 -227 -68 -320 l-28 -80 50 -6 c28 -3 93 -6 145 -6 84
0 93 2 88 18 -2 9 -21 73 -42 142 -36 122 -55 260 -41 296 5 13 17 2 57 -54
62 -89 117 -137 182 -158 137 -45 303 39 357 182 34 89 38 213 11 300 -11 38
-34 92 -50 120 -30 52 -595 777 -609 782 -4 1 -20 -10 -34 -25z"/>
<path d="M2084 9302 c-6 -4 -110 -133 -230 -287 -418 -532 -415 -528 -436
-661 -13 -86 0 -189 34 -262 65 -138 244 -214 372 -158 53 23 130 98 173 168
20 32 40 55 44 52 14 -8 10 -118 -7 -200 -8 -41 -30 -118 -48 -170 l-33 -94
144 0 c86 0 143 4 143 10 0 5 -18 71 -40 147 -43 147 -58 243 -43 282 9 23 12
21 66 -51 89 -120 149 -157 264 -158 120 0 237 89 280 215 12 33 17 81 17 140
0 107 -25 193 -84 282 -48 74 -582 745 -595 750 -6 1 -15 -1 -21 -5z"/>
<path d="M488 8663 c-183 -233 -198 -260 -198 -345 0 -135 112 -187 219 -102
24 19 46 33 48 31 2 -2 -3 -36 -12 -76 -22 -106 -23 -103 33 -95 26 3 48 8 50
9 2 2 -3 39 -11 84 -8 44 -11 81 -7 81 3 0 19 -14 35 -30 61 -64 156 -59 202
9 27 40 31 122 9 174 -13 32 -261 359 -276 365 -4 1 -45 -46 -92 -105z"/>
<path d="M3383 7683 c-156 -187 -570 -728 -594 -775 -92 -182 -73 -387 45
-504 61 -60 122 -84 210 -84 109 0 183 50 266 180 l35 55 3 -97 c3 -100 -16
-199 -58 -311 -11 -28 -19 -52 -17 -53 5 -4 287 -10 287 -6 0 2 -18 61 -41
131 -43 131 -62 279 -42 315 8 15 16 7 52 -48 97 -149 209 -195 360 -150 74
22 151 98 181 179 44 119 37 256 -17 373 -29 62 -43 81 -364 487 -130 165
-243 313 -251 328 l-15 29 -40 -49z"/>
<path d="M2047 6043 c-433 -548 -572 -733 -598 -800 -33 -82 -33 -252 -1 -334
45 -114 141 -187 258 -197 124 -10 207 39 294 173 23 35 46 62 51 59 27 -16
-2 -213 -53 -362 -17 -50 -29 -94 -27 -96 2 -2 66 -6 142 -8 134 -3 138 -2
134 17 -2 11 -21 76 -41 145 -39 132 -54 239 -39 279 9 24 10 23 44 -25 89
-130 168 -184 271 -184 119 0 225 68 274 175 62 134 43 332 -43 461 -43 63
-597 763 -605 764 -4 0 -31 -30 -61 -67z"/>
<path d="M4703 6093 c-28 -28 -533 -677 -574 -738 -120 -176 -114 -430 11
-555 60 -60 123 -85 210 -85 101 0 165 34 226 120 102 142 108 145 99 43 -10
-105 -32 -208 -65 -301 -16 -45 -26 -85 -24 -89 3 -4 68 -8 146 -8 122 0 139
2 134 15 -19 50 -67 219 -76 270 -6 33 -10 91 -8 130 l3 70 35 -55 c48 -75
117 -148 164 -172 132 -67 315 2 375 143 33 75 54 185 46 244 -9 73 -41 165
-78 222 -37 57 -568 733 -591 752 -12 10 -18 9 -33 -6z"/>
<path d="M3280 4491 c0 -6 16 -64 35 -129 46 -157 61 -246 49 -297 l-10 -40
-48 72 c-78 118 -150 166 -251 167 -88 0 -159 -27 -218 -86 -119 -119 -137
-311 -47 -493 54 -109 627 -834 643 -815 39 47 549 708 582 755 62 86 85 162
85 275 0 166 -58 278 -173 335 -145 71 -276 28 -385 -125 -30 -41 -58 -76 -63
-78 -14 -6 -10 115 6 193 8 38 29 112 46 163 17 51 29 96 26 98 -3 3 -66 8
-141 11 -101 5 -136 3 -136 -6z"/>
<path d="M4697 2893 c-108 -3 -118 -5 -112 -21 67 -169 120 -442 85 -442 -5 0
-27 26 -49 58 -22 33 -62 79 -90 104 -147 132 -362 81 -447 -107 -63 -139 -49
-314 35 -447 29 -46 535 -693 579 -740 15 -16 30 -24 38 -20 25 14 597 748
624 802 75 147 64 356 -25 473 -40 53 -132 103 -206 113 -105 14 -214 -50
-289 -170 -19 -31 -38 -56 -42 -56 -14 0 -9 148 7 224 8 40 26 106 40 146 14
41 25 77 25 82 0 4 -12 7 -27 6 -16 -1 -81 -4 -146 -5z"/>
<path d="M2001 2778 c42 -124 69 -292 52 -322 -9 -16 -18 -8 -66 54 -86 110
-151 150 -247 150 -143 0 -268 -102 -300 -245 -29 -131 -3 -281 67 -387 49
-72 596 -767 605 -768 9 0 549 685 603 765 76 114 103 259 70 385 -42 164
-147 250 -305 250 -101 0 -197 -67 -268 -190 l-26 -44 -9 39 c-12 60 9 203 47
316 18 54 31 101 28 104 -3 3 -69 5 -147 5 l-142 0 38 -112z"/>
<path d="M6176 2492 c-2 -4 2 -41 10 -82 7 -40 12 -75 11 -77 -2 -1 -22 11
-45 28 -53 39 -99 46 -145 24 -50 -24 -70 -70 -65 -154 3 -61 8 -72 55 -141
69 -99 221 -290 230 -290 10 1 250 325 275 370 48 91 -17 230 -109 230 -47 0
-89 -24 -109 -61 -11 -23 -19 -28 -27 -20 -8 8 -7 32 4 90 l15 79 -35 6 c-48
8 -59 7 -65 -2z"/>
<path d="M6150 1701 c-91 -28 -186 -116 -214 -198 -40 -116 -11 -236 80 -333
l47 -50 -31 -58 c-43 -81 -66 -166 -58 -219 24 -176 219 -287 390 -223 111 42
186 146 186 255 0 54 -31 144 -70 201 -16 25 -30 47 -30 50 0 3 21 35 46 70
88 123 104 241 48 345 -60 109 -167 170 -297 168 -40 0 -83 -4 -97 -8z m206
-104 c137 -71 167 -255 57 -359 -92 -87 -240 -88 -326 -1 -55 54 -70 94 -65
173 3 54 9 76 32 109 29 42 75 76 124 92 39 12 143 4 178 -14z m-9 -538 c53
-26 88 -69 104 -129 30 -116 -64 -230 -191 -230 -109 0 -190 79 -190 185 0
144 147 237 277 174z"/>
</g>
</svg>
