<svg version="1.0" xmlns="http://www.w3.org/2000/svg"
 width="691.000000pt" height="1056.000000pt" viewBox="0 0 691.000000 1056.000000"
 preserveAspectRatio="xMidYMid meet">
<g transform="translate(0.000000,1056.000000) scale(0.100000,-0.100000)"
fill="#000000" stroke="none">
<path d="M640 9971 c-90 -19 -161 -79 -208 -176 -39 -79 -46 -125 -32 -225 34
-250 292 -369 471 -219 59 49 61 45 39 -79 -18 -104 -85 -214 -151 -248 -36
-18 -127 -18 -170 0 -19 8 -53 35 -75 60 -23 25 -45 46 -50 46 -5 0 -20 -9
-33 -19 -19 -14 -22 -24 -17 -44 16 -66 116 -137 217 -156 65 -11 139 3 188
38 16 12 33 21 38 21 14 0 64 69 94 130 52 103 71 199 72 355 1 154 -12 224
-62 330 -36 78 -82 130 -140 159 -52 27 -129 38 -181 27z m123 -105 c71 -29
137 -144 137 -237 0 -49 -34 -141 -68 -181 -30 -35 -94 -67 -135 -68 -107 -1
-207 119 -207 250 0 97 66 210 140 239 36 14 96 13 133 -3z"/>
<path d="M1839 9137 c-79 -29 -128 -65 -174 -129 -94 -130 -67 -327 65 -471
63 -69 58 -88 -16 -55 -76 34 -201 32 -276 -5 -103 -51 -167 -147 -187 -286
-10 -62 -9 -83 5 -130 35 -122 94 -202 183 -249 117 -63 242 -52 335 29 41 36
136 176 136 199 0 6 7 10 15 10 27 0 17 -87 -25 -228 -22 -73 -54 -163 -70
-199 -48 -105 -59 -98 159 -98 l189 0 -20 50 c-92 227 -135 391 -120 450 l8
30 29 -50 c57 -101 66 -114 105 -149 71 -64 114 -81 210 -81 73 0 92 4 135 27
158 82 244 301 186 466 -37 104 -77 156 -149 193 -39 20 -83 34 -115 37 -45 3
-191 -17 -252 -35 -12 -3 4 20 41 60 34 37 76 95 94 129 29 55 35 75 38 151 3
51 0 98 -6 110 -6 12 -13 34 -16 48 -10 45 -94 125 -171 161 -62 29 -81 33
-170 36 -85 2 -110 -1 -166 -21z"/>
<path d="M4774 9140 c-67 -19 -134 -58 -171 -98 -13 -15 -37 -56 -54 -92 -30
-61 -31 -70 -26 -148 4 -70 11 -96 40 -155 20 -40 59 -98 87 -129 28 -31 46
-59 41 -62 -5 -3 -31 4 -57 16 -39 18 -68 22 -144 23 -84 0 -101 -3 -146 -27
-112 -59 -177 -174 -185 -328 -7 -125 85 -283 197 -340 75 -38 184 -40 259 -6
69 31 148 111 183 184 15 30 32 53 37 51 21 -8 8 -134 -20 -200 -15 -35 -36
-91 -47 -124 -11 -33 -28 -83 -39 -110 -21 -55 -24 -85 -10 -85 5 0 43 5 85
10 51 8 106 8 173 1 61 -6 101 -7 107 -1 9 9 4 27 -31 92 -41 79 -100 282
-105 358 -4 80 18 78 62 -6 95 -178 232 -236 410 -172 55 20 71 32 112 82 89
111 121 216 99 332 -23 125 -84 215 -179 261 -50 24 -69 28 -147 28 -65 0 -99
-5 -124 -18 -35 -18 -71 -23 -71 -9 0 4 23 32 50 62 70 76 109 159 116 246 8
95 -16 195 -58 243 -109 124 -276 170 -444 121z"/>
<path d="M620 8757 c-32 -16 -51 -35 -68 -67 -26 -51 -24 -88 9 -152 10 -20
19 -40 19 -43 0 -3 -21 -5 -46 -5 -123 0 -188 -109 -135 -226 42 -92 143 -108
222 -37 22 20 43 33 47 29 3 -4 -3 -36 -16 -71 -34 -99 -33 -102 41 -108 75
-5 86 2 68 46 -32 79 -40 107 -34 122 5 14 11 12 37 -13 43 -41 68 -52 115
-52 73 0 131 72 131 162 0 89 -61 148 -152 148 -27 0 -48 1 -48 3 0 1 11 24
25 51 43 85 31 158 -33 201 -57 37 -125 42 -182 12z"/>
<path d="M1845 7187 c-98 -33 -162 -87 -206 -175 -29 -60 -33 -76 -33 -152 -1
-75 3 -93 30 -150 17 -36 56 -94 87 -130 31 -36 51 -68 45 -71 -5 -4 -33 3
-61 14 -79 31 -206 30 -271 -3 -58 -30 -135 -111 -167 -177 -21 -41 -24 -63
-24 -153 0 -99 2 -109 34 -172 41 -82 101 -147 167 -179 40 -20 64 -24 134
-23 139 0 207 47 291 200 l36 66 12 -33 c6 -17 11 -42 11 -55 0 -39 -75 -260
-122 -361 -11 -23 -18 -48 -16 -54 3 -9 55 -12 187 -13 l183 -1 -6 36 c-3 21
-14 54 -25 75 -10 22 -24 55 -31 74 -6 19 -23 65 -36 101 -25 69 -44 209 -28
209 5 0 23 -23 39 -51 29 -49 120 -142 173 -177 20 -13 49 -17 128 -17 l102 0
70 48 c126 86 166 163 166 327 1 104 1 106 -39 179 -22 41 -54 89 -71 107 -76
75 -259 94 -386 39 -30 -12 -20 11 31 72 26 32 63 87 81 123 30 59 32 72 31
148 -2 65 -8 97 -27 140 -37 85 -66 115 -146 157 -71 38 -76 39 -188 42 -76 2
-129 -2 -155 -10z"/>
<path d="M4790 7190 c-111 -27 -204 -98 -245 -188 -35 -76 -45 -192 -21 -252
24 -60 80 -144 133 -202 41 -43 44 -49 23 -44 -155 36 -236 42 -301 22 -89
-27 -128 -61 -177 -156 -53 -105 -65 -191 -37 -286 49 -171 156 -263 320 -277
65 -5 75 -3 128 26 71 37 138 110 182 197 l33 65 7 -56 c5 -42 2 -75 -13 -130
-25 -95 -63 -200 -96 -269 -14 -29 -26 -59 -26 -66 0 -20 26 -24 89 -13 40 6
98 6 167 -1 59 -5 111 -7 116 -4 13 9 2 47 -38 133 -52 109 -84 231 -84 314
l0 72 37 -63 c49 -83 110 -145 174 -177 67 -34 183 -37 251 -7 72 32 134 95
175 180 37 73 38 80 38 181 0 88 -4 114 -22 154 -31 67 -114 150 -175 177 -68
29 -172 29 -253 1 -71 -25 -65 -25 -65 -3 0 9 20 37 45 61 25 24 60 73 77 109
28 57 34 80 36 154 4 77 1 94 -22 144 -51 111 -111 160 -247 203 -40 13 -157
13 -209 1z"/>
<path d="M3344 6080 c-56 -11 -139 -54 -194 -100 -61 -51 -95 -141 -94 -250 0
-63 6 -85 32 -140 17 -36 51 -87 75 -115 24 -27 50 -61 57 -74 11 -22 11 -23
-6 -16 -100 42 -186 53 -276 35 -97 -19 -154 -70 -208 -188 -42 -91 -43 -94
-37 -178 9 -154 86 -271 217 -332 150 -70 292 -18 407 151 62 90 71 86 54 -27
-10 -69 -25 -117 -88 -276 -14 -36 -27 -77 -30 -93 l-5 -27 128 1 c71 1 155
-2 187 -6 35 -4 57 -4 57 2 0 6 -22 66 -49 135 -28 68 -59 161 -71 206 -21 82
-24 163 -5 169 6 1 23 -23 40 -55 39 -75 107 -148 170 -180 73 -39 177 -38
259 2 77 38 131 93 169 174 30 63 32 74 32 177 0 96 -3 116 -24 158 -31 64
-104 143 -155 169 -64 33 -165 36 -260 8 -42 -13 -79 -20 -82 -17 -4 3 19 34
50 69 83 92 110 153 115 261 6 156 -47 251 -174 315 -97 48 -191 61 -291 42z"/>
<path d="M1793 4954 c-5 -13 53 -185 102 -302 27 -67 44 -185 28 -195 -15 -9
-29 5 -57 61 -36 71 -99 138 -161 170 -43 23 -62 27 -135 27 -73 0 -92 -4
-135 -27 -67 -35 -129 -104 -168 -186 -29 -60 -32 -76 -31 -157 0 -112 34
-202 98 -269 76 -78 210 -111 341 -83 39 8 71 14 72 13 2 -1 -24 -37 -57 -80
-83 -109 -104 -167 -97 -279 7 -102 28 -148 100 -214 85 -78 180 -109 315
-101 64 4 94 11 144 36 90 45 151 101 168 154 7 24 17 47 22 53 12 13 10 163
-3 210 -14 48 -57 113 -122 183 -49 51 -49 52 -23 52 15 0 43 -7 63 -15 42
-18 188 -20 242 -4 60 18 112 60 152 124 54 86 70 156 59 255 -16 136 -85 246
-191 305 -49 27 -63 30 -144 30 -72 -1 -100 -5 -142 -24 -65 -29 -124 -91
-148 -157 -39 -104 -70 -107 -59 -5 8 80 39 182 98 324 25 59 42 107 38 108
-4 0 -87 2 -186 3 -134 2 -179 -1 -183 -10z"/>
<path d="M4703 4945 c3 -11 28 -82 56 -158 62 -166 83 -245 79 -294 -5 -55
-24 -51 -56 14 -41 80 -102 146 -164 177 -42 21 -66 26 -127 26 -136 0 -243
-70 -305 -200 -29 -61 -31 -72 -31 -175 1 -99 3 -116 28 -170 37 -79 97 -140
161 -162 68 -23 216 -23 270 0 78 34 82 22 19 -47 -32 -35 -74 -90 -93 -122
-34 -57 -35 -61 -35 -164 1 -94 4 -110 27 -155 15 -27 37 -60 50 -72 91 -88
139 -108 283 -119 71 -6 89 -3 163 21 94 33 155 83 200 169 24 46 27 61 27
156 0 95 -3 110 -28 158 -15 29 -52 81 -82 117 -30 35 -55 67 -55 71 0 9 47
-1 100 -21 69 -26 183 -17 257 21 109 55 174 175 174 318 0 125 -41 218 -131
299 -65 58 -129 80 -218 75 -121 -7 -205 -65 -276 -191 -50 -90 -71 -91 -62
-2 8 79 33 162 98 324 27 68 47 125 45 127 -2 2 -41 -1 -88 -7 -55 -7 -120 -8
-187 -2 -101 9 -103 8 -99 -12z"/>
<path d="M1780 3001 c0 -3 20 -58 45 -121 74 -187 120 -400 83 -388 -7 3 -29
35 -49 72 -46 84 -99 140 -167 173 -47 23 -61 25 -135 21 -100 -6 -162 -34
-226 -103 -170 -185 -130 -484 80 -600 48 -27 63 -30 139 -29 63 0 99 6 140
22 62 25 83 16 45 -19 -42 -38 -114 -143 -131 -190 -10 -26 -17 -76 -17 -124
-1 -67 4 -90 27 -141 34 -76 93 -134 171 -171 55 -26 70 -28 180 -28 109 0
125 2 176 26 76 36 129 86 170 161 31 57 34 71 34 149 0 78 -3 91 -37 160 -20
40 -60 100 -88 131 -53 59 -54 78 -1 52 51 -25 155 -37 223 -25 208 36 322
280 237 507 -44 117 -188 227 -298 228 -94 1 -146 -20 -218 -87 -38 -36 -76
-84 -96 -121 -86 -163 -62 56 33 298 28 70 50 133 50 140 0 9 -45 12 -185 13
-102 0 -185 -3 -185 -6z"/>
<path d="M4700 3000 c-13 -8 10 -87 52 -175 44 -93 78 -217 78 -287 0 -64 -15
-60 -58 18 -48 87 -138 169 -209 190 -113 33 -247 -11 -331 -109 -59 -68 -81
-124 -89 -222 -8 -107 9 -175 64 -258 60 -89 122 -125 229 -134 64 -5 176 7
221 24 10 4 -5 -20 -33 -53 -70 -83 -88 -110 -114 -179 -40 -109 -12 -240 71
-330 109 -118 252 -151 427 -100 95 28 146 63 190 133 43 67 55 116 51 213 -5
102 -32 164 -117 260 -45 52 -52 65 -37 67 9 2 36 -4 58 -15 31 -13 66 -18
137 -18 87 0 100 3 149 30 162 89 223 312 138 499 -35 76 -89 131 -165 168
-122 60 -253 37 -352 -62 -22 -22 -50 -61 -64 -87 -13 -27 -33 -59 -45 -73
l-20 -25 -1 56 c0 74 28 182 89 336 28 70 49 128 48 129 -5 5 -359 9 -367 4z"/>
<path d="M6120 2477 c0 -8 9 -40 20 -72 11 -32 20 -70 20 -84 0 -25 0 -25 -37
11 -21 20 -51 42 -66 48 -63 23 -152 -30 -177 -106 -34 -102 38 -204 142 -204
19 0 37 -3 41 -6 3 -4 -3 -24 -13 -45 -12 -23 -20 -58 -20 -88 0 -83 66 -141
162 -141 123 0 195 117 138 223 -11 20 -20 41 -20 47 0 5 21 10 48 10 141 0
200 172 93 273 -35 32 -46 37 -90 37 -39 0 -56 -6 -81 -27 -17 -14 -36 -37
-41 -50 -9 -25 -29 -32 -29 -10 0 16 35 153 45 180 6 15 0 17 -64 17 -53 0
-71 -3 -71 -13z"/>
<path d="M6120 1647 c-96 -27 -163 -88 -211 -192 -53 -112 -63 -174 -63 -360
0 -168 0 -171 33 -252 42 -107 82 -165 137 -202 155 -102 342 -38 426 145 19
40 23 67 23 149 0 87 -4 107 -26 155 -54 115 -137 179 -243 187 -75 6 -117 -6
-186 -53 -27 -19 -55 -34 -61 -34 -17 0 -4 96 25 175 75 208 223 256 371 121
44 -40 73 -45 100 -16 17 19 17 21 0 47 -70 111 -204 164 -325 130z m94 -468
c52 -14 121 -80 142 -136 38 -98 17 -216 -50 -289 -72 -79 -171 -88 -250 -22
-140 115 -103 385 60 443 48 17 50 17 98 4z"/>
</g>
</svg>
