<svg version="1.0" xmlns="http://www.w3.org/2000/svg"
 width="691.000000pt" height="1056.000000pt" viewBox="0 0 691.000000 1056.000000"
 preserveAspectRatio="xMidYMid meet">
<g transform="translate(0.000000,1056.000000) scale(0.100000,-0.100000)"
fill="#000000" stroke="none">
<path d="M661 9989 c-204 -39 -312 -311 -206 -518 84 -165 288 -215 431 -106
18 14 37 25 43 25 15 0 14 -56 -4 -123 -62 -240 -245 -319 -390 -168 -21 22
-47 41 -57 41 -20 0 -58 -34 -58 -51 0 -5 23 -35 51 -64 69 -73 135 -99 239
-93 90 6 139 28 197 91 48 52 67 87 98 178 90 262 32 619 -118 733 -66 50
-147 70 -226 55z m125 -108 c75 -34 134 -135 134 -231 0 -96 -59 -197 -134
-231 -147 -67 -291 70 -273 260 8 95 60 172 137 205 47 20 87 19 136 -3z"/>
<path d="M1670 9177 c-134 -38 -210 -143 -233 -318 -25 -198 54 -396 283 -710
90 -125 263 -335 354 -433 51 -54 57 -58 76 -45 24 17 240 263 346 396 170
211 302 437 339 583 13 48 16 93 13 175 -5 135 -34 210 -107 278 -66 62 -128
80 -245 75 -140 -7 -238 -61 -313 -174 -20 -30 -39 -54 -43 -54 -5 0 -22 23
-40 50 -45 70 -121 135 -188 161 -69 26 -180 34 -242 16z"/>
<path d="M4327 9151 c-111 -36 -162 -98 -197 -236 -69 -270 48 -530 468 -1040
49 -60 117 -139 151 -175 l61 -65 66 70 c293 308 548 667 614 863 63 189 42
391 -51 496 -90 103 -283 131 -424 62 -47 -24 -122 -95 -181 -172 l-21 -27
-36 54 c-49 73 -101 122 -167 155 -73 37 -196 43 -283 15z"/>
<path d="M469 8767 c-52 -35 -79 -90 -79 -163 0 -53 6 -74 44 -150 25 -49 62
-112 83 -140 66 -88 174 -212 190 -219 32 -11 240 246 300 370 27 58 33 81 33
138 0 111 -38 168 -119 182 -56 9 -112 -9 -163 -55 l-45 -39 -34 36 c-63 66
-148 82 -210 40z"/>
<path d="M1683 7100 c-112 -24 -193 -92 -233 -196 -35 -91 -40 -267 -10 -365
42 -141 140 -312 300 -524 108 -144 345 -424 366 -432 21 -8 37 6 149 132 369
412 544 693 578 927 20 136 -21 292 -94 368 -55 57 -117 82 -211 88 -144 8
-253 -42 -351 -163 -26 -33 -51 -61 -55 -63 -4 -1 -16 12 -27 30 -37 63 -124
145 -183 171 -64 29 -164 41 -229 27z"/>
<path d="M4330 7075 c-108 -30 -174 -97 -209 -209 -76 -247 0 -471 294 -864
122 -164 335 -416 366 -432 23 -13 42 4 171 151 230 261 385 473 468 641 75
154 94 228 88 361 -6 134 -32 203 -102 273 -62 63 -123 84 -238 84 -131 0
-234 -54 -315 -164 -24 -33 -48 -62 -53 -64 -4 -1 -22 20 -39 47 -98 152 -267
221 -431 176z"/>
<path d="M3013 5860 c-151 -32 -231 -128 -263 -317 -28 -170 36 -351 222 -630
139 -207 438 -563 474 -563 46 0 439 470 562 672 115 187 152 299 152 454 0
148 -24 220 -98 294 -74 73 -136 94 -257 88 -68 -4 -95 -10 -147 -36 -61 -30
-134 -96 -181 -166 -23 -34 -29 -33 -52 7 -37 62 -124 144 -183 170 -64 29
-164 41 -229 27z"/>
<path d="M2044 4986 c-232 -243 -484 -580 -573 -767 -55 -114 -71 -184 -71
-305 0 -148 24 -220 98 -294 74 -73 137 -94 255 -88 133 7 218 56 313 180 25
32 48 58 52 58 4 0 16 -21 26 -47 43 -104 179 -192 310 -201 163 -10 280 72
337 239 33 96 31 237 -5 342 -71 210 -235 456 -538 809 -60 69 -117 129 -126
133 -11 4 -34 -13 -78 -59z"/>
<path d="M4679 4922 c-181 -201 -308 -360 -406 -507 -168 -253 -220 -417 -193
-605 19 -136 76 -220 180 -269 47 -22 68 -26 150 -26 85 0 102 3 160 31 82 39
121 72 171 145 22 33 41 59 44 59 2 0 14 -17 26 -37 37 -61 120 -143 169 -168
136 -69 333 -41 416 58 82 98 115 281 78 437 -20 86 -106 264 -184 381 -157
234 -466 609 -501 609 -8 0 -57 -48 -110 -108z"/>
<path d="M1993 2823 c-435 -481 -613 -782 -613 -1033 0 -190 74 -322 205 -367
74 -26 204 -23 277 6 63 24 147 95 193 160 15 23 34 41 41 41 8 0 23 -17 33
-39 30 -57 108 -131 171 -160 107 -49 276 -38 358 23 78 57 130 170 139 302
12 174 -45 326 -223 594 -123 185 -444 570 -475 570 -10 0 -57 -44 -106 -97z"/>
<path d="M4630 2759 c-334 -378 -512 -649 -556 -845 -25 -114 -17 -260 20
-340 54 -120 154 -186 281 -188 144 -1 259 54 341 166 25 35 49 64 53 66 4 1
17 -15 29 -36 91 -162 273 -238 448 -187 79 23 161 103 193 188 76 206 34 393
-154 696 -117 187 -473 621 -510 621 -14 0 -62 -47 -145 -141z"/>
<path d="M6089 2388 c-103 -117 -157 -193 -205 -288 -33 -65 -38 -83 -38 -145
-1 -119 48 -175 153 -175 59 0 127 31 155 72 15 21 15 21 64 -25 78 -72 162
-76 227 -12 87 88 67 224 -60 410 -43 63 -202 255 -210 255 -2 0 -41 -42 -86
-92z"/>
<path d="M6122 1626 c-92 -30 -152 -89 -202 -199 -85 -188 -86 -482 -2 -662
39 -82 82 -129 150 -162 219 -107 460 112 412 375 -15 84 -41 142 -86 192 -58
64 -105 84 -195 85 -68 0 -83 -4 -150 -38 -41 -20 -78 -37 -83 -37 -14 0 0
100 24 162 49 131 121 198 213 198 61 0 108 -22 164 -77 25 -24 48 -43 53 -43
4 0 19 9 33 20 32 25 27 46 -24 103 -68 78 -207 116 -307 83z m160 -492 c113
-73 140 -264 54 -377 -48 -63 -89 -87 -152 -87 -44 0 -59 5 -96 33 -102 77
-133 220 -75 340 58 117 171 156 269 91z"/>
</g>
</svg>
