<svg version="1.0" xmlns="http://www.w3.org/2000/svg"
 width="691.000000pt" height="1056.000000pt" viewBox="0 0 691.000000 1056.000000"
 preserveAspectRatio="xMidYMid meet">
<g transform="translate(0.000000,1056.000000) scale(0.100000,-0.100000)"
fill="#000000" stroke="none">
<path d="M611 9943 c-25 -21 -50 -112 -75 -273 -9 -58 -39 -222 -66 -365 -53
-281 -59 -295 -120 -295 -20 0 -29 -6 -34 -22 -9 -35 -7 -45 10 -62 12 -13 39
-16 133 -16 136 0 154 7 149 60 -2 29 -8 36 -35 44 -18 5 -35 16 -38 25 -8 25
24 174 40 190 10 11 39 15 96 16 76 0 82 -2 104 -28 27 -30 46 -89 48 -149 2
-37 0 -41 -33 -51 -29 -10 -36 -17 -38 -45 -6 -56 7 -62 133 -62 63 0 120 3
129 6 11 4 16 19 16 50 0 40 -3 44 -27 49 -16 4 -35 10 -43 14 -18 10 -58 180
-135 571 -31 157 -60 302 -66 323 l-10 37 -58 0 c-41 0 -65 -5 -80 -17z m114
-389 c14 -61 28 -132 31 -157 l6 -44 -65 -7 c-69 -8 -107 3 -107 29 0 22 70
358 78 369 7 13 23 -39 57 -190z"/>
<path d="M651 8750 c-18 -4 -49 -24 -68 -43 -46 -46 -54 -103 -24 -172 11 -26
21 -51 21 -56 0 -5 -18 -9 -40 -9 -96 0 -150 -54 -150 -150 0 -88 60 -160 134
-160 38 0 101 37 115 66 6 13 18 24 27 24 19 0 12 -45 -17 -102 -38 -74 -17
-102 70 -91 57 6 62 17 36 70 -8 17 -19 51 -24 76 l-8 46 47 -40 c64 -54 98
-63 149 -37 23 11 53 34 67 51 24 28 26 37 22 105 -3 68 -6 76 -35 102 -21 19
-52 33 -92 41 l-59 11 13 32 c24 58 28 121 11 158 -28 59 -121 96 -195 78z"/>
<path d="M3311 6265 c-199 -56 -321 -209 -321 -405 0 -119 37 -204 140 -328
39 -46 70 -88 70 -93 0 -15 -32 -10 -78 11 -105 48 -239 47 -338 -1 -176 -85
-276 -329 -218 -530 35 -121 136 -249 229 -290 109 -48 240 -45 338 9 64 34
147 126 186 203 55 110 71 116 71 25 0 -103 -64 -319 -146 -490 -13 -28 -24
-59 -24 -71 0 -20 3 -21 53 -14 69 10 278 10 347 0 30 -5 57 -7 59 -5 2 1 -24
72 -57 156 -87 220 -124 373 -107 448 l7 31 17 -23 c10 -13 36 -55 59 -94 115
-198 307 -262 509 -170 131 61 243 249 243 411 0 110 -61 267 -130 334 -23 22
-67 53 -98 68 -53 26 -66 28 -177 28 -110 0 -125 -2 -179 -28 -86 -40 -92 -22
-21 55 75 80 131 168 150 232 19 64 19 188 0 253 -36 120 -133 219 -260 264
-79 29 -246 36 -324 14z"/>
<path d="M6130 2497 c0 -8 9 -40 20 -72 11 -32 20 -69 20 -83 l0 -24 -37 32
c-74 65 -134 73 -193 24 -81 -68 -73 -217 14 -258 19 -9 48 -16 64 -16 59 0
63 -6 42 -61 -52 -131 2 -219 135 -219 63 0 103 17 134 56 27 35 28 113 1 171
l-19 43 22 4 c12 3 39 7 61 10 51 7 85 30 102 71 37 89 0 186 -85 222 -43 19
-81 10 -136 -33 l-45 -34 0 30 c0 17 6 45 13 63 8 18 17 44 21 60 l6 27 -70 0
c-52 0 -70 -3 -70 -13z"/>
<path d="M5882 1624 c-16 -29 -3 -61 29 -68 15 -3 35 -16 43 -28 8 -13 54
-220 104 -461 49 -241 95 -444 101 -450 15 -15 116 -16 131 -1 7 7 50 213 96
459 46 246 89 454 95 461 6 7 27 14 47 16 36 3 37 4 37 43 l0 40 -130 0 -130
0 0 -40 c0 -36 3 -40 28 -43 16 -2 31 -10 34 -19 8 -21 -18 -180 -33 -201 -10
-13 -32 -18 -107 -20 -121 -5 -127 1 -152 126 -9 50 -14 95 -10 101 3 6 17 11
29 11 31 0 48 22 44 57 l-3 28 -122 3 c-104 2 -123 0 -131 -14z m434 -421 c-3
-10 -12 -61 -21 -113 -27 -161 -66 -315 -76 -298 -12 21 -51 188 -75 311 -22
119 -23 117 94 117 75 0 83 -2 78 -17z"/>
</g>
</svg>
