<svg version="1.0" xmlns="http://www.w3.org/2000/svg"
 width="691.000000pt" height="1056.000000pt" viewBox="0 0 691.000000 1056.000000"
 preserveAspectRatio="xMidYMid meet">
<g transform="translate(0.000000,1056.000000) scale(0.100000,-0.100000)"
fill="#000000" stroke="none">
<path d="M568 9953 c-25 -6 -31 -34 -118 -533 -42 -241 -71 -383 -82 -397 -5
-7 -28 -13 -51 -15 -41 -3 -42 -4 -45 -44 -4 -52 2 -54 159 -54 131 0 142 5
130 60 -5 27 -13 35 -39 42 -28 8 -32 13 -32 42 0 52 22 149 37 167 19 22 131
34 176 20 42 -14 63 -50 78 -134 13 -72 5 -97 -32 -97 -24 0 -38 -28 -32 -62
6 -34 29 -38 161 -31 99 6 103 7 109 31 8 33 -8 56 -39 60 -14 2 -32 11 -40
20 -8 9 -57 215 -109 457 -66 311 -99 445 -111 457 -17 17 -77 23 -120 11z
m114 -385 c31 -147 41 -215 34 -220 -16 -11 -164 -10 -171 2 -8 12 58 399 72
423 13 21 23 -11 65 -205z"/>
<path d="M566 8676 c-26 -30 -64 -77 -84 -104 -20 -28 -59 -76 -86 -107 l-49
-56 15 -33 c9 -18 33 -53 54 -78 22 -25 55 -65 74 -89 19 -24 44 -53 56 -64
11 -11 30 -35 43 -52 41 -60 43 -58 235 181 72 90 86 113 81 133 -9 37 -247
317 -272 321 -15 2 -34 -13 -67 -52z"/>
<path d="M3413 6307 c-16 -18 -182 -221 -369 -452 -186 -231 -362 -449 -391
-484 -29 -36 -53 -75 -53 -87 0 -15 56 -92 154 -211 554 -675 683 -828 702
-831 16 -2 107 106 429 510 246 309 410 523 412 538 3 20 -75 120 -412 530
-229 277 -422 508 -429 512 -8 4 -24 -5 -43 -25z"/>
<path d="M6219 2497 c-14 -12 -50 -53 -79 -92 -29 -38 -63 -81 -76 -95 -52
-56 -67 -77 -81 -109 -13 -30 -13 -35 4 -51 10 -10 32 -35 48 -55 17 -21 46
-57 65 -81 19 -23 59 -72 89 -108 29 -36 61 -66 70 -65 15 0 62 53 125 143 16
23 50 66 76 96 51 60 70 91 70 114 0 8 -19 38 -42 65 -24 28 -62 74 -85 103
-111 138 -129 158 -143 157 -8 0 -27 -10 -41 -22z"/>
<path d="M5917 1653 c-4 -3 -7 -26 -7 -50 0 -41 1 -43 30 -43 37 0 57 -29 70
-101 10 -56 16 -84 45 -209 10 -41 21 -95 26 -120 22 -113 39 -195 64 -315 15
-71 29 -140 31 -152 8 -41 47 -57 112 -47 l56 9 28 135 c15 74 32 167 38 205
16 112 21 139 27 155 3 8 7 26 8 40 7 58 24 163 34 207 6 26 13 74 17 106 6
64 23 87 63 87 37 0 51 17 51 62 l0 38 -127 0 c-71 0 -134 -4 -141 -9 -19 -12
-11 -72 11 -82 60 -30 56 -18 37 -137 -7 -40 -19 -79 -27 -87 -10 -11 -38 -15
-104 -15 -111 0 -129 8 -129 58 0 21 -4 42 -9 47 -5 6 -11 35 -13 65 l-3 55
33 3 c38 4 47 19 38 67 l-7 35 -123 0 c-67 0 -126 -3 -129 -7z m397 -423 c22
-8 26 -16 26 -48 0 -45 -45 -308 -64 -372 l-13 -45 -11 40 c-39 150 -83 390
-75 404 17 26 94 38 137 21z"/>
</g>
</svg>
