<svg version="1.0" xmlns="http://www.w3.org/2000/svg"
 width="691.000000pt" height="1056.000000pt" viewBox="0 0 691.000000 1056.000000"
 preserveAspectRatio="xMidYMid meet">
<g transform="translate(0.000000,1056.000000) scale(0.100000,-0.100000)"
fill="#000000" stroke="none">
<path d="M809 9844 c-11 -31 10 -74 37 -74 13 0 15 -43 12 -357 -3 -406 -3
-405 -80 -441 -52 -24 -134 -17 -169 14 -32 28 -57 90 -65 162 l-7 63 -41 -3
c-40 -3 -41 -4 -44 -42 -2 -21 2 -70 8 -107 10 -57 19 -78 53 -119 53 -63 114
-85 221 -78 85 6 123 24 166 78 55 69 60 109 60 473 0 327 4 367 35 367 18 0
28 31 19 64 -6 26 -7 26 -100 26 -93 0 -95 0 -105 -26z"/>
<path d="M1168 9534 c-9 -11 -19 -39 -22 -64 -3 -25 -8 -601 -11 -1280 -3
-679 -8 -1422 -10 -1650 -2 -228 -7 -1061 -11 -1850 -4 -789 -8 -1489 -9
-1555 -7 -329 -8 -2085 -1 -2092 4 -4 44 -8 89 -8 45 -1 1084 -5 2308 -10
2134 -8 2226 -7 2233 10 3 10 11 738 16 1619 6 880 14 2242 20 3026 6 784 13
1968 17 2631 6 1182 6 1207 -13 1217 -13 6 -788 12 -2304 17 -2227 7 -2285 7
-2302 -11z m1211 -42 c29 -14 62 -62 192 -277 87 -143 165 -276 174 -295 9
-19 29 -55 45 -81 l30 -45 -15 -70 c-8 -38 -19 -163 -25 -279 -16 -353 -19
-364 -91 -399 -58 -28 -79 -70 -79 -157 0 -41 -5 -71 -12 -77 -7 -6 -51 -20
-96 -32 -46 -11 -120 -34 -164 -50 -93 -34 -417 -199 -468 -239 -19 -15 -73
-53 -120 -84 -47 -32 -128 -89 -180 -127 -77 -56 -97 -67 -108 -57 -9 10 -13
81 -15 283 -1 148 -6 274 -10 280 -3 6 -58 55 -121 109 -63 53 -120 110 -126
126 -15 36 -3 1457 12 1477 8 9 136 12 577 12 519 0 569 -1 600 -18z m3358
-18 c7 -10 13 -39 13 -66 0 -52 -15 -72 -158 -215 -80 -79 -112 -145 -112
-231 0 -61 -1 -63 -22 -56 -90 27 -124 62 -223 230 -37 62 -71 114 -75 114 -4
0 -17 15 -28 34 -11 19 -39 47 -61 62 -45 29 -50 48 -25 95 26 52 44 54 375
52 276 -2 305 -4 316 -19z m-689 -154 c67 -36 97 -73 151 -184 44 -91 66 -123
127 -185 65 -66 72 -77 56 -86 -41 -24 -82 -34 -154 -34 -137 -2 -295 66 -405
171 l-42 41 26 38 c31 47 50 49 65 7 l11 -32 11 44 c7 29 17 46 29 48 26 5 77
-51 77 -85 0 -15 5 -46 12 -68 l11 -40 11 28 c5 15 15 27 21 27 20 0 56 -31
81 -71 20 -33 30 -39 59 -39 18 0 36 4 39 9 9 14 -50 71 -73 71 -26 0 -71 45
-71 71 0 10 9 23 20 29 33 18 23 30 -25 30 -35 0 -51 6 -80 31 -19 17 -35 37
-35 45 0 16 31 34 59 34 12 0 21 4 21 9 0 14 -26 20 -64 14 -33 -5 -36 -4 -36
19 0 26 34 78 51 78 5 0 26 -9 47 -20z m682 -74 c0 -13 -16 -43 -36 -67 l-36
-43 37 -18 c53 -28 40 -43 -41 -46 -91 -3 -104 6 -73 49 31 44 130 149 141
149 4 0 8 -11 8 -24z m-9 -216 c11 -6 19 -21 19 -36 0 -27 -30 -44 -80 -44
-15 0 -38 -8 -50 -18 -25 -20 -21 79 -46 -1175 l-7 -368 -26 3 -26 3 -3 408
c-1 269 1 407 8 407 7 0 10 137 10 399 l0 400 22 15 c26 19 148 22 179 6z
m-861 -115 c139 -97 257 -131 414 -122 60 4 92 12 137 34 46 23 59 26 64 15 8
-21 5 -453 -5 -811 -5 -178 -10 -385 -11 -460 -1 -75 -5 -143 -10 -152 -4 -9
-36 -27 -69 -39 -33 -13 -75 -36 -91 -51 -17 -16 -35 -29 -40 -29 -5 0 -18
-13 -30 -30 -30 -40 -46 -44 -86 -20 -19 11 -40 20 -46 20 -7 0 -25 7 -42 16
-64 34 -150 64 -181 64 -18 0 -34 6 -37 13 -7 22 5 46 27 53 49 15 106 60 127
101 18 35 21 53 16 102 -3 33 -13 73 -22 89 -35 59 -123 79 -194 42 -43 -21
-46 -27 -56 -94 -4 -25 -10 -46 -14 -46 -10 0 -31 62 -31 93 0 14 11 61 24
104 14 43 28 96 32 118 8 48 17 55 70 55 111 0 181 132 116 219 -28 38 -63 47
-119 33 -29 -8 -50 -9 -56 -3 -5 5 -10 117 -11 258 l-1 248 -28 61 -28 61 30
67 c35 78 25 78 151 -9z m-600 -15 c133 -17 282 -49 320 -69 32 -16 35 -22 35
-62 0 -50 0 -50 -98 -28 -70 16 -134 2 -186 -40 -87 -69 -101 -176 -52 -393
42 -186 41 -207 -10 -233 -38 -20 -59 -19 -86 7 -21 20 -27 21 -80 11 -63 -11
-79 -9 -87 13 -9 23 10 51 39 58 15 4 25 12 22 19 -7 22 -44 18 -76 -8 -39
-34 -42 -75 -6 -111 23 -23 30 -25 80 -19 70 9 99 2 113 -30 12 -25 12 -25 32
-5 11 11 32 22 47 26 36 8 70 39 77 70 4 13 -10 97 -29 186 -41 186 -46 257
-20 311 43 91 186 125 279 67 44 -27 42 -33 -5 -20 -68 20 -173 3 -194 -31
-12 -19 4 -22 29 -5 31 19 105 21 131 3 16 -12 12 -15 -37 -20 -66 -6 -121
-33 -166 -79 l-32 -34 40 -33 c50 -40 99 -61 143 -61 25 0 44 -10 77 -40 43
-40 44 -41 42 -104 -4 -148 -37 -245 -146 -429 -26 -44 -71 -128 -102 -188
-117 -234 -186 -261 -436 -171 -73 26 -191 76 -263 112 -112 56 -132 70 -146
100 -14 31 -15 80 -8 465 8 436 13 507 50 650 31 121 33 123 131 128 136 7
487 -1 578 -13z m-737 -6 c13 -4 12 -16 -4 -88 -40 -180 -51 -319 -57 -751 -7
-415 -7 -421 -31 -468 -29 -60 -88 -102 -142 -102 -48 0 -95 42 -110 100 -11
40 -7 153 7 189 5 14 3 17 -7 14 -20 -6 -38 -64 -38 -125 -1 -58 -11 -67 -29
-28 -17 38 -15 77 8 136 23 59 21 70 -9 40 -21 -21 -26 -34 -37 -116 l-7 -50
-13 30 c-43 98 24 237 85 176 12 -12 28 -21 36 -21 7 0 18 -7 23 -16 7 -13 13
-14 30 -5 58 31 112 -9 112 -83 0 -98 -57 -125 -85 -41 -7 20 -7 20 -17 -2
-14 -29 2 -75 32 -90 32 -16 62 0 91 51 l24 41 -3 395 c-4 423 1 499 44 685
29 125 47 148 97 129z m-103 -21 c0 -10 -11 -63 -25 -118 -33 -138 -45 -293
-45 -618 0 -243 -2 -278 -16 -284 -8 -3 -20 -1 -25 4 -15 15 -16 684 -1 778
20 119 51 228 69 243 24 17 43 15 43 -5z m-97 -8 c13 -12 12 -23 -4 -82 -41
-145 -52 -249 -49 -443 5 -317 4 -364 -9 -402 -7 -22 -19 -38 -28 -38 -13 0
-15 41 -10 363 4 330 6 369 25 437 12 41 22 94 22 117 0 29 5 45 18 52 22 13
18 13 35 -4z m-159 -71 c-24 -104 -35 -237 -44 -528 -8 -276 -15 -326 -39
-301 -5 6 -5 161 -1 360 6 266 12 366 24 415 22 89 32 110 54 110 18 0 19 -3
6 -56z m81 24 c-34 -160 -37 -197 -43 -524 -6 -270 -10 -344 -21 -358 -32 -39
-35 -13 -33 285 3 309 10 398 43 542 18 74 24 87 41 87 18 0 20 -4 13 -32z
m2476 -131 c-27 -78 -27 -171 -1 -305 30 -153 27 -301 -7 -433 -33 -128 -34
-213 -4 -359 25 -119 38 -337 22 -360 -19 -26 -28 5 -34 118 -3 59 -16 157
-28 217 -31 150 -29 259 5 400 41 166 44 238 12 366 -42 171 -31 341 30 475
l18 39 4 -48 c2 -31 -4 -71 -17 -110z m-2718 76 c-10 -47 -16 -164 -19 -378
-5 -301 -12 -371 -38 -362 -18 6 -24 53 -25 202 -1 151 11 322 34 479 15 98
26 126 50 126 9 0 9 -15 -2 -67z m76 -25 c-28 -148 -39 -296 -39 -524 0 -175
-3 -214 -15 -224 -12 -10 -16 -9 -21 4 -12 31 4 616 19 718 17 111 20 118 51
118 l23 0 -18 -92z m-144 45 c-17 -98 -27 -229 -32 -451 -5 -203 -9 -257 -21
-268 -8 -8 -15 -14 -17 -12 -4 7 14 617 20 663 8 51 28 95 45 95 5 0 7 -12 5
-27z m-55 -7 c0 -8 -4 -17 -9 -20 -13 -8 -21 -125 -29 -419 -6 -200 -11 -250
-22 -257 -10 -6 -17 -5 -22 3 -11 21 21 577 37 629 8 26 15 54 15 62 0 9 7 16
15 16 8 0 15 -6 15 -14z m1830 -158 c9 -51 9 -90 1 -150 -20 -151 -11 -256 27
-307 24 -32 32 -31 53 5 26 48 88 45 114 -6 23 -44 18 -69 -19 -106 -30 -30
-40 -34 -86 -34 -63 0 -109 25 -142 78 -21 34 -22 46 -21 192 1 132 19 314 40
398 8 35 20 10 33 -70z m950 -400 c13 -106 1 -199 -35 -273 l-25 -50 4 240 c3
259 12 319 33 225 6 -30 17 -94 23 -142z m-974 -206 c26 -39 22 -101 -15 -229
-28 -97 -31 -117 -22 -146 25 -75 117 -120 167 -82 18 14 18 15 -13 40 -48 39
-44 93 8 120 80 42 149 -10 149 -112 0 -64 -26 -105 -92 -143 -48 -28 -59 -31
-115 -26 -77 6 -120 24 -173 72 -49 44 -83 107 -99 182 -9 45 -9 59 5 88 9 19
22 34 30 34 14 0 17 -8 33 -109 6 -36 18 -72 27 -80 15 -15 16 -14 10 4 -14
53 -28 207 -23 268 4 41 16 90 31 123 25 55 25 55 50 39 14 -9 33 -28 42 -43z
m-1762 -90 c0 -16 3 -19 10 -12 8 8 56 15 56 8 0 -2 -11 -30 -25 -63 -13 -33
-25 -75 -25 -92 0 -18 -4 -33 -8 -33 -18 0 -32 26 -32 61 0 46 -13 57 -28 24
-18 -40 -32 -29 -32 24 0 39 6 56 26 81 30 35 59 36 58 2z m-1688 -14 c71 -53
146 -124 160 -149 12 -24 15 -317 21 -1973 6 -1732 5 -1946 -9 -1946 -8 0 -23
9 -33 20 -18 20 -19 86 -16 1915 2 1419 0 1903 -9 1930 -8 24 -34 53 -86 96
-70 57 -95 94 -79 118 9 16 17 14 51 -11z m57 -178 c15 -12 31 -38 37 -58 13
-50 14 -2536 0 -2527 -20 12 -52 143 -57 235 -4 74 -1 117 16 197 30 143 28
260 -6 393 -32 128 -36 301 -9 418 22 98 20 229 -4 352 -25 129 -25 193 1 322
32 152 30 309 -5 455 -29 124 -35 233 -12 233 7 0 25 -9 39 -20z m1245 -585
c-3 -333 -7 -608 -10 -610 -9 -9 -36 6 -43 22 -3 9 -5 275 -5 592 0 530 1 577
17 589 47 35 46 54 41 -593z m-125 504 c15 -17 27 -36 27 -43 0 -19 -73 -159
-97 -186 -22 -23 -24 -31 -27 -70 -2 -27 -44 -23 -72 7 -45 49 -135 195 -130
209 10 26 26 14 64 -44 80 -124 82 -125 104 -105 10 9 42 55 70 101 l51 84
-17 34 c-26 56 -15 61 27 13z m-1167 -262 c18 -107 15 -171 -11 -287 -22 -96
-23 -286 -1 -395 20 -101 20 -240 1 -342 -22 -113 -19 -245 7 -356 29 -124 30
-329 2 -472 -24 -128 -23 -192 7 -285 33 -104 32 -249 -2 -370 -31 -108 -34
-309 -6 -405 27 -94 32 -207 12 -295 -9 -41 -23 -115 -31 -165 -20 -115 -24
-126 -34 -100 -14 34 -11 105 10 213 27 136 25 212 -6 362 -32 155 -29 263 12
420 37 143 37 230 1 332 -35 97 -36 198 -5 336 30 132 30 268 -1 381 -31 117
-37 258 -17 408 19 148 20 216 1 353 -20 145 -18 264 5 405 24 145 24 179 5
270 -8 39 -14 115 -14 170 l1 100 24 -90 c13 -49 31 -134 40 -188z m4390 153
c10 -41 18 -111 18 -155 1 -75 0 -80 -21 -83 -16 -2 -26 5 -37 27 -13 25 -14
48 -6 153 5 67 10 132 10 143 1 33 15 -1 36 -85z m-3586 -20 c7 -12 9 -160 8
-437 l-3 -418 -30 0 -30 0 -3 425 c-2 391 -1 426 15 438 23 17 31 15 43 -8z
m2323 -11 c0 -14 -6 -82 -12 -152 -14 -160 -14 -553 -1 -712 14 -165 46 -395
76 -545 38 -186 113 -512 124 -539 10 -23 11 -22 33 20 18 33 32 46 63 56 23
8 71 42 113 80 62 56 74 64 86 52 15 -15 61 -165 71 -231 8 -44 4 -45 -70 -23
-31 10 -91 15 -163 15 -111 0 -113 0 -113 -23 0 -23 93 -286 170 -477 59 -147
173 -399 228 -500 121 -227 389 -666 442 -727 29 -33 44 -82 38 -124 -3 -23
-3 -23 -40 10 -55 48 -129 152 -196 278 -33 61 -87 151 -120 200 -158 236
-293 494 -421 808 -41 99 -83 200 -94 225 l-20 45 -9 -38 c-6 -21 -24 -50 -41
-65 -17 -15 -82 -78 -144 -140 -90 -90 -117 -112 -133 -107 -31 10 -36 49 -10
86 76 105 199 218 279 253 42 19 43 21 37 58 -3 20 -22 88 -41 150 -173 552
-254 1128 -240 1713 5 226 14 277 60 347 28 42 51 46 48 7z m-714 -51 c125
-52 131 -41 16 27 -37 23 -38 24 -14 25 14 0 41 -5 60 -11 48 -15 249 -111
249 -119 0 -3 -17 -16 -39 -28 -56 -32 -105 -28 -171 11 -30 19 -94 55 -142
81 -88 47 -123 75 -77 61 13 -4 66 -25 118 -47z m-155 1 c45 -23 133 -71 196
-108 131 -75 172 -83 228 -43 68 49 278 100 304 74 14 -14 -13 -48 -46 -58
-11 -3 -82 -36 -156 -72 -173 -85 -199 -86 -315 -21 -44 25 -138 78 -210 117
-71 39 -136 75 -143 80 -10 7 -7 16 13 40 15 18 32 32 38 32 6 0 47 -19 91
-41z m-1064 -18 c0 -9 -13 -35 -29 -57 -59 -81 -61 -146 -7 -212 29 -35 35
-52 26 -77 -6 -17 -17 -5 -68 72 -59 90 -60 93 -49 130 7 21 24 50 40 65 17
17 27 38 27 55 0 20 7 32 23 39 27 12 37 9 37 -15z m-260 -77 l62 -96 -13 -42
c-7 -22 -23 -54 -36 -70 -13 -16 -32 -45 -43 -66 -10 -20 -26 -42 -34 -49 -39
-33 -8 71 39 134 15 19 29 52 32 73 6 42 -4 66 -47 122 -29 36 -47 90 -31 90
5 0 37 -43 71 -96z m669 -66 c211 -110 671 -360 796 -433 106 -62 154 -79 195
-70 17 4 104 42 194 86 90 43 169 79 175 79 6 0 15 -9 21 -21 18 -32 -8 -60
-86 -93 -38 -16 -100 -48 -139 -71 -159 -97 -204 -91 -505 77 -102 57 -331
180 -509 273 -179 94 -330 180 -338 191 -15 23 -9 74 9 74 6 0 90 -41 187 -92z
m2660 48 c40 -21 91 -83 91 -111 0 -55 -28 -70 -80 -40 -33 19 -65 19 -80 0
-7 -9 -14 -47 -15 -89 -1 -55 -7 -83 -23 -110 -28 -47 -28 -60 0 -78 22 -15
22 -17 7 -49 -19 -41 -15 -57 17 -69 26 -10 29 -31 18 -102 -6 -33 -11 -39
-44 -48 -40 -11 -128 9 -148 33 -34 42 -73 366 -54 453 14 67 57 144 83 151
11 3 50 20 87 39 76 37 101 40 141 20z m-816 -12 c12 -4 14 -25 10 -117 -3
-62 -8 -115 -12 -119 -4 -4 -30 10 -58 31 -37 28 -68 42 -110 49 -84 15 -113
28 -113 51 0 26 19 35 105 50 39 7 88 23 110 36 45 26 48 27 68 19z m231 -64
c38 -28 105 -68 149 -90 l79 -40 -38 -16 c-138 -57 -169 -72 -177 -86 -18 -28
0 -46 60 -58 147 -29 158 -33 158 -59 0 -21 -11 -29 -80 -57 -82 -35 -139 -77
-132 -97 6 -20 56 -39 119 -47 54 -6 77 -19 78 -42 0 -5 -8 -8 -17 -8 -10 0
-35 -16 -56 -35 -21 -19 -42 -35 -47 -35 -5 0 -24 -16 -42 -36 -27 -31 -81
-64 -103 -64 -11 0 -4 38 10 50 8 7 15 21 15 31 0 11 4 19 9 19 13 0 71 50 71
60 0 5 -27 19 -59 31 -112 40 -118 81 -22 142 32 21 66 46 76 57 16 17 13 20
-69 65 -108 59 -114 79 -33 119 99 48 108 82 36 132 -49 34 -79 70 -79 95 0
30 20 23 94 -31z m-2630 -85 c8 -8 37 -53 65 -99 28 -46 58 -89 66 -96 21 -17
19 -27 -15 -90 -16 -30 -29 -65 -30 -77 0 -13 -4 -23 -8 -23 -5 0 -26 -27 -47
-60 -21 -32 -44 -61 -51 -64 -13 -5 -164 228 -164 255 0 9 20 47 45 85 25 38
51 87 58 109 10 36 40 74 59 75 4 0 13 -7 22 -15z m2410 -252 c8 -50 8 -213
-1 -213 -3 0 -29 11 -57 25 -29 14 -81 30 -116 36 -95 15 -112 24 -108 56 3
23 10 29 51 39 27 7 85 30 130 52 45 22 85 41 88 41 4 1 9 -16 13 -36z m-3159
-177 c14 -16 25 -33 25 -39 0 -5 39 -73 87 -151 48 -78 118 -193 156 -256 38
-63 82 -133 97 -155 15 -22 41 -67 58 -101 17 -34 42 -75 56 -91 14 -17 26
-37 26 -45 0 -8 22 -62 50 -120 178 -377 305 -754 386 -1143 94 -447 110 -544
124 -747 5 -71 14 -145 20 -166 8 -25 11 -137 8 -342 l-3 -305 -27 -56 c-16
-31 -37 -64 -49 -75 l-21 -19 8 200 c22 504 -8 894 -102 1348 -87 417 -252
928 -403 1250 -95 203 -326 607 -514 901 -60 93 -77 127 -77 156 0 52 11 56
43 18 15 -18 39 -46 52 -62z m3630 39 l0 -50 -38 -3 c-43 -4 -147 16 -147 27
0 13 44 50 80 65 19 9 51 15 70 13 l35 -2 0 -50z m-1960 14 c16 -24 20 -668 5
-683 -6 -6 -17 -3 -30 9 -19 17 -20 29 -20 329 0 171 3 321 6 334 7 23 28 30
39 11z m159 -115 l26 -57 69 7 c63 6 71 5 80 -12 18 -34 -13 -47 -109 -46
l-85 0 -8 30 c-5 16 -15 42 -23 57 -15 31 -18 60 -7 70 17 17 34 3 57 -49z
m-1336 -75 c202 -35 457 -104 556 -149 104 -47 394 -216 464 -271 162 -125
342 -313 497 -519 48 -63 104 -133 124 -155 21 -22 89 -112 151 -200 150 -211
208 -282 323 -392 158 -150 346 -263 547 -328 115 -38 135 -49 150 -85 22 -53
4 -58 -103 -31 -254 64 -487 193 -686 377 -103 96 -177 186 -341 414 -266 369
-376 507 -519 648 -350 346 -760 535 -1276 588 -88 9 -170 20 -183 25 -12 5
-31 23 -42 41 -19 31 -19 34 -3 46 27 19 207 15 341 -9z m3490 -1 c7 -9 12
-588 16 -1793 4 -979 7 -1832 9 -1895 2 -131 13 -162 74 -206 21 -16 46 -37
55 -48 18 -21 25 -86 10 -86 -14 0 -160 128 -178 156 -15 23 -18 104 -25 822
-4 438 -8 1307 -8 1930 -1 1101 0 1132 18 1132 10 0 23 -6 29 -12z m100 -30
c19 -19 14 -107 -10 -205 -31 -124 -30 -282 1 -423 26 -115 25 -218 -4 -335
-28 -114 -30 -220 -5 -358 25 -143 24 -233 -5 -387 -21 -115 -16 -232 15 -370
25 -109 29 -267 10 -370 -17 -89 -17 -257 -1 -362 14 -87 11 -228 -8 -438 -11
-115 1 -269 29 -365 21 -73 26 -179 11 -204 -8 -12 -13 -12 -35 2 -14 9 -30
26 -36 37 -7 13 -14 500 -21 1517 -12 1554 -8 2235 12 2259 14 17 31 18 47 2z
m-904 -20 c3 -13 6 -41 6 -63 0 -22 6 -68 13 -102 19 -89 -7 -121 -60 -71 -19
18 -39 22 -123 27 -106 6 -120 13 -120 58 0 31 30 56 100 84 33 13 79 38 102
56 51 38 74 41 82 11z m-1040 -10 c14 -20 16 -84 16 -508 l-1 -485 -29 33 -30
32 0 468 c0 258 3 472 7 475 11 12 21 8 37 -15z m2015 -190 c-29 -155 -29
-264 1 -378 31 -118 30 -253 -1 -380 -30 -120 -32 -248 -4 -335 26 -81 26
-248 1 -365 -24 -109 -24 -242 0 -350 16 -72 18 -118 16 -295 -6 -349 -8 -840
-4 -1103 1 -98 -1 -171 -6 -168 -5 3 -18 31 -28 63 -26 80 -24 244 5 377 26
121 26 196 1 306 -30 126 -36 266 -16 378 22 127 20 275 -5 392 -29 136 -34
282 -15 409 21 139 20 248 -4 362 -27 130 -26 204 7 319 36 125 37 256 4 420
-29 140 -25 230 14 405 34 155 36 159 48 108 8 -34 5 -68 -14 -165z m-3694
101 c383 -48 749 -210 1056 -467 177 -149 273 -262 603 -712 173 -236 232
-307 340 -416 224 -223 464 -359 764 -430 118 -28 152 -45 152 -74 0 -24 -28
-26 -113 -9 -74 15 -104 7 -124 -36 -26 -54 -8 -80 61 -95 59 -12 82 -30 72
-56 -8 -22 -74 -15 -172 18 -81 27 -86 39 -59 129 26 84 18 102 -57 129 -35
12 -98 40 -141 62 -86 43 -104 41 -132 -12 -29 -57 -21 -74 63 -120 58 -32 72
-54 50 -76 -16 -16 -21 -15 -80 14 -90 45 -162 94 -166 114 -2 10 15 49 38 87
27 45 40 77 36 89 -3 10 -36 40 -72 67 -37 27 -93 73 -124 102 -32 29 -64 53
-73 53 -17 0 -87 -74 -87 -92 0 -7 29 -42 66 -79 l65 -66 -19 -23 c-19 -24
-20 -24 -48 -5 -47 30 -194 181 -194 199 0 9 29 48 65 86 36 38 65 76 65 84 0
21 -213 290 -233 294 -20 4 -81 -39 -97 -67 -8 -15 1 -33 45 -92 56 -76 64
-96 43 -117 -24 -24 -47 -11 -96 56 -97 133 -125 180 -118 204 4 13 36 47 71
77 49 40 65 60 65 79 0 31 -164 252 -187 252 -4 0 -13 10 -18 22 -6 13 -18 24
-28 26 -22 4 -87 -59 -87 -85 0 -10 23 -47 50 -82 28 -35 50 -71 50 -80 0 -20
-19 -41 -36 -41 -19 0 -184 209 -184 233 0 12 14 40 30 61 17 22 30 45 30 51
0 6 14 16 30 22 17 6 30 19 30 28 0 20 -100 127 -183 196 -71 60 -96 62 -129
12 -44 -68 -44 -71 17 -127 58 -54 64 -66 40 -86 -13 -11 -31 -1 -110 60 -62
47 -95 79 -95 92 0 10 18 49 40 85 22 37 40 75 40 85 0 20 -37 45 -175 119
-52 28 -102 49 -112 47 -24 -5 -63 -65 -63 -99 0 -24 9 -34 55 -60 63 -36 71
-45 55 -64 -10 -12 -21 -11 -74 9 -76 29 -142 62 -151 76 -3 5 3 44 15 85 25
91 19 107 -47 129 -91 29 -216 57 -242 54 -20 -2 -29 -11 -39 -43 -23 -71 -9
-91 86 -115 31 -8 42 -16 42 -30 0 -25 -34 -26 -133 -4 -99 22 -101 24 -94
110 7 93 -3 107 -82 123 -60 12 -88 31 -76 51 7 12 57 9 220 -11z m1410 -75
c19 -12 27 -13 43 -3 10 7 30 9 45 5 22 -5 26 -13 33 -62 8 -68 0 -160 -16
-180 -8 -8 -30 -13 -59 -13 -25 1 -58 -2 -74 -6 -36 -10 -53 6 -83 73 -29 66
-29 74 -4 97 11 10 22 33 26 52 10 51 45 66 89 37z m-1152 -84 c38 -12 71 -28
74 -37 4 -9 0 -37 -7 -62 -32 -112 -26 -131 50 -163 25 -10 80 -35 122 -55 66
-31 80 -34 93 -23 24 20 56 87 49 104 -3 8 -30 29 -60 46 -61 34 -74 54 -51
78 19 18 30 14 145 -51 93 -53 97 -66 43 -155 -23 -38 -41 -75 -41 -84 0 -9
32 -40 71 -68 38 -29 91 -70 117 -91 26 -22 53 -39 61 -39 23 0 81 61 81 85 0
14 -21 42 -55 74 -47 43 -54 54 -46 70 15 27 41 34 65 17 12 -8 54 -45 95 -83
57 -53 74 -74 74 -96 -1 -29 -28 -67 -48 -67 -13 0 -85 -74 -85 -88 0 -15 41
-70 132 -177 66 -77 101 -111 118 -113 29 -3 100 57 100 84 0 10 -25 50 -55
91 -47 62 -54 76 -45 93 19 36 41 26 82 -35 15 -22 50 -69 78 -105 27 -36 50
-72 50 -80 0 -9 -29 -45 -65 -80 -84 -84 -85 -97 -6 -216 89 -132 148 -204
171 -204 28 0 90 58 90 84 0 13 -23 55 -51 95 -54 77 -59 104 -19 109 21 2 38
-15 108 -107 45 -61 82 -118 82 -127 0 -10 -29 -48 -65 -85 -36 -37 -65 -72
-65 -77 0 -29 209 -240 268 -271 21 -11 26 -9 58 26 59 64 57 76 -22 148 -61
55 -67 64 -55 79 7 9 19 16 26 16 14 0 180 -130 208 -162 18 -22 15 -31 -59
-155 l-19 -32 25 -25 c33 -32 264 -156 290 -156 16 0 27 14 46 54 34 75 31 81
-88 130 -41 16 -47 35 -22 61 14 14 19 14 38 2 11 -8 55 -29 96 -47 41 -17 84
-40 95 -51 19 -18 19 -19 -3 -87 -29 -90 -28 -107 6 -120 48 -19 211 -62 255
-68 53 -8 68 8 75 75 5 56 -3 64 -75 76 -57 9 -78 25 -61 47 12 16 19 16 112
-2 54 -11 105 -25 113 -32 14 -12 14 -33 -3 -134 -8 -43 14 -61 81 -69 54 -7
85 -24 85 -47 0 -19 -233 -1 -369 27 -470 98 -890 349 -1197 717 -40 48 -138
178 -218 290 -311 435 -351 485 -480 604 -211 194 -457 325 -742 394 -51 12
-106 30 -123 41 -28 17 -30 22 -20 40 9 17 17 20 42 15 177 -36 188 -34 209
36 11 37 10 42 -10 58 -12 10 -41 21 -66 24 -49 8 -72 27 -62 52 8 21 81 15
179 -16z m2507 -140 c14 -26 50 -196 50 -237 0 -39 -9 -40 -67 -12 -29 14 -74
23 -138 28 -107 7 -119 15 -109 71 8 47 9 48 52 56 52 9 122 46 156 83 35 36
42 38 56 11z m-3022 -2 c16 -16 15 -84 0 -98 -70 -60 -94 -87 -116 -132 -39
-78 -57 -75 -109 14 -37 66 -73 153 -73 178 0 6 10 6 26 0 44 -17 90 -11 156
20 68 32 97 37 116 18z m444 -169 c379 -117 658 -329 959 -732 9 -12 54 -80
101 -152 47 -71 127 -181 179 -243 52 -63 128 -155 169 -205 140 -171 381
-352 635 -477 231 -114 453 -178 695 -201 238 -22 221 -18 257 -54 40 -40 42
-61 5 -68 -45 -9 -284 0 -315 12 -16 6 -61 16 -100 22 -91 14 -414 109 -487
143 -30 14 -63 26 -72 26 -10 0 -18 4 -18 9 0 5 -12 14 -27 20 -16 5 -39 17
-53 26 -14 8 -36 20 -50 25 -14 6 -43 24 -65 40 -22 16 -48 29 -57 30 -10 0
-18 4 -18 10 0 5 -19 22 -42 37 -59 38 -217 175 -310 270 -43 43 -91 89 -108
103 -16 14 -30 31 -30 39 0 19 -30 51 -47 51 -7 0 -17 8 -20 18 -4 9 -25 42
-48 72 -23 30 -88 123 -145 205 -310 451 -384 536 -573 663 -131 87 -259 150
-421 205 -122 41 -122 41 -134 80 -22 68 -5 71 140 26z m-232 -224 c26 -32
-15 -101 -80 -133 -23 -11 -44 -34 -62 -67 -51 -94 -54 -93 -125 52 -34 70
-59 131 -56 135 2 5 35 6 71 3 46 -4 81 -2 112 8 61 20 124 21 140 2z m2460
-190 c0 -19 -15 -35 -72 -74 -105 -70 -141 -100 -255 -212 -101 -98 -125 -113
-137 -83 -14 36 172 218 332 325 57 38 110 69 118 69 8 0 14 -10 14 -25z
m-1749 5 c40 -22 23 -56 -72 -155 -106 -110 -191 -178 -215 -173 -9 2 -22 11
-28 20 -9 15 11 40 139 168 82 82 151 150 153 150 2 0 12 -5 23 -10z m152
-139 c39 -42 68 -82 72 -101 4 -17 13 -33 21 -36 8 -2 21 -6 29 -9 31 -9 -9
-66 -133 -187 -118 -114 -267 -228 -319 -243 -20 -6 -23 -3 -23 24 0 27 8 36
68 75 37 24 85 58 107 75 66 54 245 232 245 245 0 8 -12 11 -33 8 -22 -2 -41
3 -58 16 -25 21 -109 138 -109 154 0 13 39 48 54 48 7 0 43 -31 79 -69z m1625
41 c17 -11 54 -108 59 -157 4 -32 0 -44 -16 -59 -19 -17 -22 -17 -44 -3 -35
23 -88 111 -94 155 -4 33 -2 42 18 56 25 17 56 21 77 8z m-1737 -124 c63 -80
74 -109 58 -144 -31 -64 -93 -27 -154 89 l-30 56 24 25 c35 38 56 32 102 -26z
m-573 10 c6 -6 12 -25 12 -43 0 -26 -7 -39 -32 -57 -18 -13 -64 -56 -104 -96
-48 -48 -77 -70 -87 -66 -17 6 -105 204 -109 245 -3 24 -2 24 77 21 44 -2 100
1 125 7 48 10 97 5 118 -11z m2224 -53 c53 -79 57 -99 26 -132 -37 -39 -61
-30 -106 40 -63 97 -68 111 -48 142 14 21 24 26 49 23 27 -3 39 -14 79 -73z
m645 -11 c36 -64 80 -190 71 -199 -3 -3 -26 -1 -51 5 -33 9 -64 9 -115 1 -96
-15 -128 -14 -146 5 -27 26 -20 60 18 83 30 19 86 74 144 145 13 15 28 26 35
24 7 -3 27 -31 44 -64z m-2427 -16 c61 -82 90 -132 90 -154 0 -27 -32 -64 -56
-64 -38 0 -142 159 -130 198 5 15 51 51 67 52 3 0 16 -15 29 -32z m1638 -35
c35 -46 82 -126 82 -141 0 -17 -30 -42 -50 -42 -9 0 -38 21 -63 46 -59 62 -83
54 -28 -9 58 -68 63 -80 45 -105 -8 -12 -23 -22 -34 -22 -22 0 -150 136 -150
160 0 29 25 42 64 35 l36 -7 -2 47 c-2 36 2 50 17 61 30 22 51 17 83 -23z
m-1745 -75 c63 -78 85 -151 55 -176 -55 -43 -97 -10 -123 97 -13 56 -15 78 -6
97 15 35 35 30 74 -18z m-1143 -495 c-1 -259 -2 -296 -15 -279 -25 33 -55 188
-55 283 0 100 43 293 65 293 3 0 5 -134 5 -297z m685 282 c24 -8 79 -14 138
-15 109 0 137 -9 137 -44 0 -27 -16 -42 -85 -82 -27 -16 -71 -51 -97 -78 -46
-48 -48 -49 -67 -32 -10 9 -26 46 -35 82 -9 36 -25 88 -36 117 -15 39 -17 53
-7 59 6 4 12 8 12 8 0 0 18 -7 40 -15z m3192 -100 c66 -135 64 -147 -20 -138
-32 3 -76 -1 -113 -11 -81 -21 -107 -20 -129 4 -17 19 -17 21 0 60 10 22 24
40 31 40 18 0 114 92 114 109 0 24 21 51 41 51 15 0 32 -25 76 -115z m-1967
15 c19 -19 20 -34 20 -267 1 -137 0 -320 -1 -408 -1 -88 -3 -189 -3 -224 -1
-48 -5 -66 -18 -74 -25 -17 -32 -3 -40 81 -9 99 -10 897 -1 905 11 11 22 8 43
-13z m140 -175 c0 -8 20 -36 45 -62 l45 -47 -25 -25 c-22 -23 -28 -24 -54 -14
-28 10 -30 9 -40 -19 -7 -20 -16 -29 -28 -26 -26 5 -41 88 -23 125 l14 28 4
-30 c2 -16 8 -34 14 -40 7 -7 9 6 5 43 -3 29 -4 59 0 67 7 19 43 19 43 0z
m2003 -173 c27 -44 51 -98 54 -120 l5 -39 -63 -5 c-36 -3 -92 -17 -128 -33
-70 -29 -103 -25 -116 14 -7 25 18 77 45 91 11 6 20 17 20 25 0 8 7 15 15 15
9 0 20 11 25 24 5 13 14 27 19 31 6 3 11 14 11 24 0 22 38 63 53 58 7 -2 34
-40 60 -85z m-3243 26 c24 -17 48 -22 130 -27 106 -6 120 -13 120 -57 0 -28
-26 -50 -102 -85 -35 -17 -84 -48 -110 -70 l-46 -39 -11 33 c-19 58 -52 240
-47 253 8 20 33 17 66 -8z m1575 -205 c4 -10 9 -162 12 -338 4 -277 3 -323
-10 -340 -11 -13 -19 -17 -26 -10 -6 6 -11 139 -13 358 -3 318 -2 347 13 347
9 0 20 -8 24 -17z m-263 -9 c14 -13 21 -14 32 -5 8 7 30 11 48 9 28 -3 36 -10
55 -48 36 -74 38 -98 13 -125 -12 -13 -25 -39 -29 -57 -5 -27 -12 -34 -35 -36
-15 -2 -39 4 -52 13 -23 15 -27 15 -43 1 -32 -29 -50 -19 -81 47 -17 34 -30
69 -30 78 0 22 48 111 68 127 21 16 32 15 54 -4z m-2132 -297 c0 -146 -6 -177
-31 -177 -19 0 -39 35 -39 67 0 46 51 263 62 263 4 0 8 -69 8 -153z m895 102
c26 -16 61 -23 125 -28 105 -7 130 -23 114 -68 -6 -20 -25 -36 -64 -55 -30
-15 -60 -32 -67 -38 -7 -5 -19 -10 -27 -10 -8 0 -16 -3 -18 -7 -7 -17 -70 -54
-85 -51 -22 4 -31 43 -39 155 -10 130 -3 140 61 102z m-191 -198 c-8 -16 -35
-45 -59 -66 -25 -20 -45 -44 -45 -54 0 -26 29 -48 75 -56 57 -11 75 -22 75
-49 0 -27 -28 -56 -95 -99 -27 -18 -51 -39 -53 -48 -2 -11 21 -29 78 -58 100
-52 102 -68 17 -124 -32 -21 -61 -45 -64 -53 -4 -10 15 -38 54 -77 65 -67 81
-95 59 -103 -18 -7 -50 10 -101 53 -22 19 -80 54 -129 78 l-90 44 45 19 c24
11 55 23 69 27 46 13 120 58 120 71 0 19 -46 39 -120 53 -123 22 -120 21 -120
44 0 18 18 31 100 69 152 73 156 108 16 133 -43 7 -80 16 -84 19 -3 4 0 16 7
27 16 26 9 34 -17 20 -30 -16 -62 -14 -62 4 0 8 6 15 13 15 8 0 22 9 32 20 18
20 88 60 105 60 19 0 10 -24 -22 -57 -18 -18 -27 -33 -21 -33 6 0 22 13 36 29
14 17 27 27 30 25 3 -3 26 13 51 36 38 35 74 55 108 59 3 1 0 -12 -8 -28z
m2379 -3 c15 -12 17 -62 17 -597 1 -520 -1 -586 -15 -600 -14 -14 -17 -14 -26
-1 -6 9 -9 182 -10 445 0 237 -1 500 -3 585 -3 153 -1 180 13 180 4 0 15 -6
24 -12z m-965 -53 c19 -14 24 -14 46 0 46 30 92 -24 98 -116 3 -38 0 -44 -16
-44 -14 0 -24 13 -35 47 -24 69 -30 74 -96 59 -69 -15 -98 -8 -89 22 15 49 50
61 92 32z m1467 -77 c5 -13 10 -204 12 -426 4 -365 3 -406 -12 -429 -16 -24
-18 -24 -33 -9 -15 15 -17 62 -20 437 -3 426 -1 449 33 449 7 0 16 -10 20 -22z
m-3641 -4 c9 -8 16 -23 16 -32 0 -12 7 -9 24 13 20 25 26 28 40 16 20 -17 21
-55 1 -71 -22 -18 -140 -7 -165 15 -23 20 -26 45 -8 63 17 17 74 15 92 -4z
m361 -14 c38 -35 67 -170 81 -368 10 -155 -26 -212 -183 -287 l-95 -45 -31 19
c-18 11 -47 35 -66 55 -34 35 -34 35 -21 80 7 26 14 46 15 46 1 0 19 -7 40
-16 20 -8 51 -14 69 -12 l31 3 7 84 c5 60 14 98 32 132 l24 47 -24 6 c-29 8
-31 35 -7 73 17 25 16 26 -17 53 -30 25 -33 30 -27 69 3 23 13 53 22 68 16 23
22 25 71 21 39 -3 61 -11 79 -28z m3046 -17 c14 -21 39 -58 57 -83 63 -90 66
-189 6 -267 -13 -17 -24 -37 -24 -43 0 -6 -17 -32 -37 -56 l-36 -45 -23 23
c-38 39 -134 200 -134 225 0 13 7 37 15 54 9 16 13 34 10 39 -4 6 7 24 23 40
17 16 40 54 53 84 19 48 29 59 60 65 3 0 17 -16 30 -36z m-1106 -244 c639
-334 684 -359 691 -381 7 -23 -3 -68 -15 -68 -5 0 -148 73 -318 162 -169 89
-337 175 -373 192 -36 16 -87 44 -115 62 -94 59 -334 174 -365 174 -18 0 -96
-33 -190 -80 -88 -44 -171 -80 -184 -80 -23 0 -24 3 -19 38 3 20 7 38 8 40 12
15 375 182 394 182 14 0 233 -108 486 -241z m-1292 192 c47 -16 111 -35 142
-41 95 -20 88 -60 -16 -95 -72 -25 -145 -60 -154 -75 -3 -5 -15 -10 -25 -10
-16 0 -19 11 -25 78 -3 42 -8 98 -11 125 -3 26 -4 47 -2 47 2 0 43 -13 91 -29z
m-390 -8 c14 -8 7 -52 -10 -62 -10 -5 -41 -16 -70 -24 -59 -18 -78 -10 -88 35
-5 19 -1 32 15 48 19 19 28 20 83 14 34 -4 65 -9 70 -11z m2717 -497 c0 -11
-13 -43 -30 -73 -16 -29 -30 -58 -30 -65 0 -7 -14 -26 -30 -42 l-30 -29 0 35
c0 23 11 50 35 84 48 67 47 102 -5 178 -23 33 -38 66 -35 74 3 7 5 19 5 25 0
7 27 -28 60 -78 33 -49 60 -99 60 -109z m-2365 144 c12 -19 85 -51 162 -70
134 -33 135 -65 3 -94 -41 -9 -99 -28 -129 -41 -30 -14 -58 -22 -62 -18 -8 9
-14 120 -11 191 1 29 6 42 16 42 8 0 18 -5 21 -10z m1073 -195 c130 -70 240
-131 244 -138 4 -7 1 -17 -9 -24 -36 -27 -81 -15 -226 63 -78 42 -160 86 -182
98 -60 31 -122 27 -186 -13 -62 -38 -143 -61 -216 -61 -61 0 -72 20 -25 46 60
34 328 153 346 153 10 1 125 -55 254 -124z m2153 -147 c1 -145 2 -267 4 -273
1 -5 3 -18 3 -27 1 -9 50 -56 108 -104 58 -48 110 -98 115 -111 5 -14 9 -323
9 -727 0 -549 -3 -706 -13 -719 -11 -16 -53 -17 -592 -15 -476 2 -584 5 -601
17 -21 14 -364 564 -382 612 -6 16 -5 51 4 103 8 43 18 193 24 333 10 287 11
289 84 322 56 24 76 61 80 150 2 38 6 74 10 79 6 10 49 27 191 71 55 18 188
75 295 128 198 98 275 148 517 333 64 50 123 90 130 90 10 0 13 -53 14 -262z
m-4274 210 c6 -7 13 -58 16 -113 3 -55 15 -147 28 -205 32 -147 31 -294 -1
-415 -34 -126 -35 -284 -1 -410 32 -123 26 -255 -18 -405 -43 -145 -39 -136
-57 -118 -18 18 -9 77 26 173 42 111 38 253 -11 414 -28 93 -25 197 8 302 24
76 27 99 27 239 0 128 -3 169 -21 235 -27 100 -37 198 -28 264 7 52 15 61 32
39z m664 -47 c57 -27 130 -55 161 -62 32 -7 59 -18 63 -27 3 -8 4 -16 3 -17
-2 -1 -24 -14 -50 -29 -90 -52 -136 -130 -124 -208 15 -90 66 -138 148 -138
57 0 101 33 118 88 22 72 20 69 36 48 8 -11 14 -36 14 -55 0 -35 -45 -240 -60
-271 -4 -8 -31 -20 -61 -26 -71 -14 -96 -28 -119 -67 -35 -56 -19 -151 29
-177 25 -13 82 -13 115 -1 49 19 59 -25 47 -209 -9 -145 1 -271 26 -330 38
-89 35 -128 -15 -189 l-29 -34 -64 48 c-194 143 -380 181 -567 116 -47 -16
-85 -25 -88 -19 -11 18 8 1396 20 1420 7 14 35 31 75 46 45 18 81 42 125 83
33 32 68 58 77 59 9 0 63 -22 120 -49z m-569 -25 c10 -7 22 -25 28 -40 11 -29
12 -161 1 -266 l-6 -65 -17 50 c-24 73 -38 147 -45 246 -6 94 -1 105 39 75z
m3468 -152 c69 -122 37 -109 -62 25 -18 25 -37 46 -43 47 -12 4 -88 -106 -110
-158 -19 -47 -19 -72 0 -88 19 -16 19 -30 1 -30 -19 0 -56 61 -56 92 0 14 13
45 30 69 16 24 30 54 30 67 0 12 4 22 10 22 5 0 27 25 47 56 l37 56 37 -42
c20 -23 55 -75 79 -116z m-1641 122 c21 -13 87 -49 147 -79 172 -87 197 -116
44 -51 -47 20 -96 40 -110 45 l-24 10 19 -22 c11 -11 46 -34 77 -50 65 -33 85
-53 41 -43 -15 4 -93 34 -173 66 -80 33 -153 62 -162 65 -27 8 -22 29 15 57
40 32 77 33 126 2z m-1718 -83 c17 -43 1 -1589 -16 -1603 -8 -6 -54 -10 -115
-8 -85 3 -105 6 -114 21 -21 34 4 52 82 57 39 3 73 8 77 12 19 19 24 140 30
801 4 397 8 728 10 735 7 22 35 13 46 -15z m1587 -19 c138 -52 339 -141 373
-165 63 -45 63 -45 60 -469 -2 -404 -8 -493 -42 -678 -31 -166 -12 -155 -284
-160 -129 -3 -289 1 -369 7 -167 15 -380 54 -401 75 -9 9 -15 34 -15 66 0 52
0 52 28 45 115 -29 222 -12 275 43 69 72 76 167 28 368 -46 195 -43 213 48
259 34 17 50 10 51 -22 0 -19 33 -24 90 -13 58 11 80 2 80 -32 0 -13 -11 -24
-30 -31 -34 -13 -48 -36 -22 -38 75 -5 119 69 76 130 -16 22 -21 23 -94 17
-87 -8 -110 3 -110 52 l0 26 -16 -22 c-8 -12 -37 -34 -65 -47 -93 -48 -94 -55
-32 -310 28 -118 34 -161 29 -197 -15 -97 -85 -153 -191 -153 -36 1 -72 7 -90
18 l-30 16 68 1 c72 0 123 16 147 45 14 17 13 18 -5 11 -62 -23 -112 -28 -139
-14 l-29 15 51 6 c62 7 116 34 159 79 l33 34 -26 27 c-31 34 -80 58 -170 85
-97 30 -107 42 -106 142 2 130 31 216 130 387 22 37 70 127 106 198 98 191
147 234 269 235 54 0 87 -7 165 -36z m-694 -28 c108 -63 179 -246 128 -328
l-21 -32 -9 24 c-5 14 -13 48 -17 75 -3 28 -15 66 -26 85 -16 27 -19 29 -14
10 3 -14 9 -84 12 -155 6 -135 -6 -213 -41 -260 -13 -19 -15 -18 -55 22 -51
50 -53 85 -14 205 33 101 37 191 10 232 -27 41 -78 59 -127 46 -47 -13 -50
-24 -13 -42 35 -17 47 -39 39 -72 -10 -41 -41 -66 -81 -66 -80 0 -121 51 -113
139 8 86 72 140 172 149 34 2 62 6 64 7 7 6 66 -15 106 -39z m1394 -23 c13 -8
32 -28 43 -46 18 -28 20 -44 16 -122 -3 -49 -8 -99 -13 -110 -7 -20 -7 -20 14
-1 22 19 26 34 38 126 l7 55 15 -35 c20 -50 11 -121 -22 -165 -28 -36 -56 -46
-56 -21 0 12 -11 13 -53 9 -50 -5 -55 -3 -75 22 -37 47 -23 155 21 163 16 3
25 -10 42 -63 6 -19 7 -19 17 -2 11 21 4 73 -13 94 -16 19 -63 16 -81 -4 -9
-10 -24 -34 -34 -53 -20 -38 -20 -42 -13 -580 4 -284 -1 -342 -42 -539 -20
-101 -38 -131 -76 -131 -30 0 -30 16 3 195 24 131 26 170 34 600 4 264 12 474
18 492 18 56 46 94 87 119 43 26 79 25 123 -3z m328 -328 c-7 -76 3 -79 27
-10 20 57 41 52 47 -10 5 -53 20 -41 20 15 0 39 18 47 30 15 21 -54 13 -91
-27 -125 -38 -34 -54 -28 -33 10 15 28 5 38 -18 17 -23 -21 -52 -22 -52 -1 0
13 -7 15 -40 9 l-40 -7 24 54 c14 29 28 70 31 91 6 32 10 36 22 25 12 -10 14
-27 9 -83z m-390 -49 c3 -13 4 -189 1 -392 -3 -356 -4 -372 -29 -467 -25 -95
-61 -158 -80 -139 -4 4 3 59 17 122 41 195 48 308 40 607 -3 150 -4 277 0 283
12 19 44 11 51 -14z m72 -18 c24 -24 8 -704 -18 -788 -6 -19 -17 -66 -24 -104
-11 -64 -34 -101 -51 -84 -3 3 1 48 10 99 48 281 47 272 41 554 -8 303 0 365
42 323z m-2389 -270 l-1 -243 -26 55 c-24 49 -27 66 -27 165 0 89 5 125 24
188 14 42 26 77 28 77 2 0 3 -109 2 -242z m2472 235 c0 -5 1 -141 1 -303 0
-275 -1 -305 -26 -445 -21 -121 -31 -153 -48 -168 -27 -23 -42 -9 -29 26 33
85 44 208 48 522 4 317 10 375 39 375 8 0 14 -3 15 -7z m67 -375 c-4 -275 -8
-360 -22 -428 -17 -82 -29 -110 -47 -110 -17 0 -19 47 -5 116 24 113 36 304
34 526 -2 206 3 238 34 238 6 0 8 -126 6 -342z m76 57 c-1 -335 -34 -608 -70
-572 -3 3 2 76 11 164 10 90 18 263 20 404 2 247 7 289 29 253 7 -13 11 -97
10 -249z m78 149 c15 -123 -22 -673 -48 -708 -23 -32 -31 -10 -22 61 4 37 12
212 17 388 5 176 12 328 16 338 13 32 26 3 37 -79z m-1803 55 c50 -30 69 -58
82 -119 15 -70 6 -284 -17 -400 -10 -52 -14 -108 -11 -144 4 -38 2 -54 -4 -45
-26 40 -32 103 -30 301 2 185 0 213 -17 250 -10 24 -26 49 -34 56 -17 14 -20
11 -43 -33 -7 -12 -23 -21 -43 -23 -39 -4 -82 34 -82 73 0 32 24 81 47 94 32
18 115 13 152 -10z m1858 -344 c-3 -154 -10 -289 -16 -315 -15 -57 -34 -100
-43 -100 -11 0 -10 14 2 26 7 7 15 142 22 345 6 187 15 345 21 359 11 25 11
24 15 -10 2 -19 2 -156 -1 -305z m69 236 c-4 -31 -11 -168 -15 -306 -6 -179
-12 -261 -23 -289 -17 -46 -45 -64 -35 -24 19 74 28 189 34 423 5 253 13 310
36 269 5 -9 6 -42 3 -73z m-2263 -705 c72 -23 162 -74 212 -121 53 -49 58 -83
21 -130 l-24 -30 -12 42 c-15 51 -30 47 -30 -7 0 -21 -5 -42 -11 -45 -18 -12
-67 16 -78 43 -9 21 -31 121 -31 138 0 2 -4 4 -10 4 -5 0 -10 -6 -10 -12 0 -7
-4 -19 -9 -26 -14 -22 -70 13 -87 53 -17 41 -40 55 -77 48 -23 -5 -26 -9 -21
-27 10 -33 24 -45 65 -56 38 -10 79 -50 79 -77 0 -7 -11 -19 -25 -25 -38 -17
-30 -28 21 -28 69 0 113 -30 114 -77 0 -17 -8 -24 -27 -29 -16 -4 -32 -9 -37
-12 -15 -8 18 -22 57 -22 41 0 44 -7 22 -49 -21 -41 -42 -45 -91 -16 -52 30
-104 97 -168 216 -51 95 -113 172 -157 195 -39 20 -37 31 14 55 36 17 56 19
147 15 58 -3 127 -12 153 -20z m-350 -77 c49 -25 112 -100 177 -210 70 -117
133 -193 190 -228 26 -15 28 -20 14 -25 -58 -22 -635 -30 -706 -10 -26 8 -22
26 12 59 17 16 30 34 30 40 0 6 14 19 31 29 17 10 37 34 45 52 8 19 19 34 24
34 18 0 83 65 96 97 8 18 14 61 14 96 0 35 3 67 7 70 10 10 42 8 66 -4z m-190
-149 c45 0 49 -18 12 -62 -14 -16 -25 -36 -25 -44 0 -8 -4 -14 -9 -14 -18 0
-71 -52 -71 -69 0 -16 -37 -41 -60 -41 -18 0 -10 32 15 62 30 36 32 52 5 45
-21 -5 -45 16 -35 33 9 15 36 12 50 -7 11 -15 14 -14 33 5 32 32 28 52 -9 52
-33 0 -69 15 -69 30 0 10 72 19 105 14 11 -2 37 -4 58 -4z"/>
<path d="M1915 9291 c-134 -35 -219 -147 -219 -287 1 -81 28 -143 96 -216 52
-57 52 -88 -1 -51 -36 25 -169 30 -225 9 -97 -37 -158 -133 -164 -258 -6 -110
16 -167 88 -240 45 -45 69 -60 115 -73 64 -19 126 -15 176 10 40 21 103 87
131 138 69 124 61 -12 -12 -211 -28 -75 -53 -143 -56 -151 -3 -8 1 -11 11 -8
32 13 164 18 230 9 39 -5 71 -9 72 -7 2 1 -13 40 -32 88 -49 122 -77 228 -73
284 l3 48 28 -48 c92 -157 218 -205 355 -136 110 55 164 147 164 280 0 71 -4
90 -32 145 -66 135 -186 174 -367 119 -35 -11 -29 16 13 56 44 42 90 134 99
199 15 108 -52 223 -160 275 -58 29 -181 42 -240 26z"/>
<path d="M3775 8766 c-22 -7 -53 -20 -69 -28 -28 -15 -29 -16 -8 -22 12 -4 49
-2 82 5 77 15 144 7 203 -24 72 -39 145 -15 98 32 -45 45 -214 66 -306 37z"/>
<path d="M3800 8671 c-14 -4 -41 -16 -60 -26 -27 -15 -31 -20 -17 -23 10 -2
32 1 49 7 36 13 98 15 98 3 0 -4 -20 -14 -44 -21 -56 -16 -166 -81 -166 -97 0
-19 72 -72 122 -90 30 -11 62 -14 104 -10 52 4 64 2 79 -14 25 -27 46 -13 85
56 l32 57 -22 17 c-17 13 -21 23 -17 46 6 28 3 31 -61 62 -70 35 -138 47 -182
33z"/>
<path d="M4030 7895 c-19 -7 -51 -11 -71 -8 -32 4 -38 2 -44 -17 -13 -40 8
-46 88 -26 57 14 78 15 101 6 19 -7 58 -9 105 -5 42 4 87 3 101 -3 33 -12 50
-5 50 22 0 19 -9 24 -60 35 -47 11 -66 11 -88 2 -20 -9 -36 -9 -56 -1 -36 13
-83 12 -126 -5z"/>
<path d="M4060 7752 c0 -10 8 -28 17 -42 16 -22 16 -24 -2 -34 -33 -20 -55
-46 -55 -66 0 -20 1 -20 31 2 26 19 42 23 100 22 38 -1 69 0 69 3 0 2 -5 13
-10 23 -8 14 -6 29 4 55 8 19 14 35 13 35 -1 0 -17 -4 -36 -10 -27 -8 -43 -6
-79 10 -54 24 -52 24 -52 2z"/>
<path d="M2235 7074 c-9 -19 -30 -55 -46 -79 -16 -23 -29 -54 -29 -68 0 -24
95 -167 115 -174 14 -4 115 171 115 199 0 30 -53 122 -82 142 -35 25 -54 19
-73 -20z"/>
<path d="M3398 6344 c-53 -28 -64 -89 -23 -129 76 -77 184 39 110 119 -27 29
-48 32 -87 10z"/>
<path d="M3419 4281 c-39 -40 -38 -74 6 -118 33 -33 35 -34 64 -19 33 18 71
62 71 83 0 23 -65 83 -90 83 -12 0 -35 -13 -51 -29z"/>
<path d="M4607 3727 c-27 -42 -87 -166 -87 -182 0 -17 58 -109 90 -143 11 -12
25 -20 31 -17 16 10 109 175 109 193 0 28 -101 172 -121 172 -4 0 -13 -10 -22
-23z"/>
<path d="M5035 2568 c-27 -5 -96 -6 -152 -3 l-103 6 31 -83 c56 -148 79 -228
79 -273 0 -24 -4 -46 -8 -49 -5 -3 -19 14 -32 37 -35 61 -99 127 -145 148 -84
39 -193 16 -274 -57 -144 -130 -128 -389 31 -487 60 -37 140 -45 227 -23 35 9
66 14 69 12 2 -3 -16 -28 -41 -56 -71 -79 -92 -130 -92 -225 0 -63 5 -89 22
-120 29 -55 88 -110 148 -137 70 -32 198 -32 269 0 119 54 167 121 174 242 4
68 1 85 -21 133 -13 30 -41 72 -61 94 -46 52 -47 68 -3 57 17 -5 71 -9 118 -9
78 0 90 3 135 30 189 116 169 432 -33 535 -63 32 -159 33 -218 3 -50 -27 -107
-85 -134 -140 -35 -70 -45 -66 -38 19 5 70 23 130 95 306 12 28 18 51 14 51
-4 -1 -29 -5 -57 -11z"/>
<path d="M2866 2891 c-26 -28 -77 -41 -138 -34 l-51 6 22 -22 21 -21 -20 -41
c-21 -40 -21 -40 -1 -30 31 17 76 13 104 -9 14 -11 30 -20 36 -20 19 0 12 38
-11 61 -22 20 -22 21 -4 33 47 28 68 52 64 75 l-3 23 -19 -21z"/>
<path d="M2550 2639 c-14 -25 -5 -39 24 -39 13 0 38 -5 56 -11 25 -9 41 -9 66
0 27 10 41 10 69 0 29 -11 43 -11 78 0 23 8 63 14 89 15 51 1 74 16 65 40 -8
21 -47 20 -108 -1 -41 -15 -53 -16 -84 -4 -26 9 -60 11 -113 6 -47 -4 -88 -2
-104 4 -24 9 -29 7 -38 -10z"/>
<path d="M2902 2098 c-7 -7 -12 -16 -12 -21 0 -4 -11 -23 -25 -41 -30 -40 -31
-53 -4 -82 17 -18 19 -26 9 -44 -6 -11 -10 -26 -8 -31 5 -14 127 -56 187 -64
52 -7 105 9 130 38 12 15 11 17 -5 17 -11 0 -37 -5 -58 -10 -57 -13 -81 4 -30
20 39 12 122 57 158 85 19 15 19 15 -5 41 -13 14 -46 37 -73 51 -44 22 -59 25
-128 21 -69 -4 -80 -2 -89 14 -11 21 -30 23 -47 6z"/>
<path d="M2827 1823 c-29 -29 27 -85 104 -103 88 -21 238 8 301 59 21 18 20
18 -42 5 -115 -24 -253 -10 -317 32 -25 15 -36 17 -46 7z"/>
<path d="M641 8710 c-46 -11 -83 -40 -103 -81 -24 -47 -22 -87 7 -145 14 -27
25 -52 25 -56 0 -5 -30 -8 -67 -8 -79 -1 -95 -10 -123 -71 -30 -67 -26 -127
10 -178 59 -81 132 -90 207 -26 65 55 76 47 43 -29 -10 -25 -20 -62 -22 -83
l-3 -38 70 0 c64 0 70 2 73 22 2 12 -4 33 -13 46 -8 14 -18 49 -21 78 l-5 54
43 -47 c38 -42 49 -48 84 -48 49 0 114 30 141 64 31 39 37 103 16 167 -15 44
-25 58 -58 77 -26 15 -50 21 -71 18 -50 -7 -56 3 -34 62 36 94 22 158 -44 197
-47 28 -106 37 -155 25z"/>
<path d="M6203 2562 c-49 -2 -73 -7 -73 -15 0 -7 9 -44 20 -82 11 -38 20 -71
20 -72 0 -13 -39 3 -67 27 -90 79 -226 -1 -226 -134 0 -96 45 -142 148 -153
l53 -6 -20 -46 c-24 -56 -28 -129 -8 -165 38 -71 171 -101 241 -53 45 30 79
83 79 121 0 17 -11 56 -24 87 l-23 57 60 5 c99 9 142 57 142 159 -1 64 -19 97
-75 136 -51 34 -107 30 -156 -12 -56 -48 -72 -36 -49 35 10 30 22 59 27 66 5
7 8 20 6 30 -3 16 -12 18 -75 15z"/>
<path d="M6126 1695 c-60 -21 -88 -46 -121 -106 l-30 -54 -7 -360 -8 -359 -26
-27 c-31 -33 -29 -68 6 -86 37 -19 145 -17 164 3 26 25 20 60 -15 84 l-30 22
3 347 c3 384 4 390 71 432 47 29 146 23 183 -11 40 -38 55 -75 61 -151 5 -62
9 -70 29 -75 12 -3 32 -3 43 1 19 6 21 14 21 83 0 124 -49 206 -150 251 -53
24 -136 27 -194 6z"/>
</g>
</svg>
