<svg version="1.0" xmlns="http://www.w3.org/2000/svg"
 width="691.000000pt" height="1056.000000pt" viewBox="0 0 691.000000 1056.000000"
 preserveAspectRatio="xMidYMid meet">
<g transform="translate(0.000000,1056.000000) scale(0.100000,-0.100000)"
fill="#000000" stroke="none">
<path d="M795 9863 c-27 -3 -53 -10 -57 -16 -15 -24 -7 -53 22 -79 l31 -27 -3
-348 c-3 -320 -5 -350 -22 -379 -10 -17 -32 -39 -49 -49 -42 -25 -124 -25
-167 1 -45 25 -80 93 -80 155 0 67 -7 79 -45 79 -49 0 -59 -19 -52 -96 16
-165 108 -253 267 -253 81 -1 134 22 181 77 61 72 63 81 66 467 l2 350 26 22
c18 16 25 32 25 56 0 32 -3 35 -37 41 -21 3 -42 5 -48 4 -5 -1 -32 -3 -60 -5z"/>
<path d="M1146 9542 c-9 -2 -21 -15 -27 -28 -5 -15 -9 -273 -9 -624 l0 -599
23 -7 c36 -11 237 -221 258 -270 19 -41 19 -95 14 -2151 -4 -1159 -6 -2116 -6
-2125 1 -22 -41 -25 -57 -5 -8 9 -10 616 -6 2077 2 1136 4 2084 5 2107 0 23
-6 53 -13 67 -20 38 -188 216 -204 216 -22 0 -21 -7152 1 -7170 11 -9 525 -12
2334 -13 1276 -1 2322 0 2325 3 2 3 6 1917 7 4254 2 4175 2 4249 -17 4263 -17
13 -313 15 -2315 12 -1262 -2 -2303 -6 -2313 -7z m1113 -56 c34 -18 80 -74
160 -192 50 -76 112 -155 255 -330 l26 -31 -20 -119 c-11 -65 -25 -182 -31
-259 -14 -187 -13 -185 -93 -185 -61 0 -65 -2 -95 -35 -26 -30 -31 -44 -31
-84 0 -33 6 -56 19 -72 26 -33 34 -20 20 33 -7 24 -9 56 -5 71 13 53 87 77
126 42 26 -24 25 -60 -2 -79 -17 -12 -19 -19 -11 -27 17 -17 61 14 78 54 7 18
15 70 19 117 4 47 12 118 18 159 9 61 13 70 22 55 7 -12 11 -82 11 -189 0
-189 -5 -206 -68 -246 -27 -17 -43 -20 -99 -15 -54 4 -68 2 -68 -9 0 -21 33
-35 85 -35 47 0 85 -13 85 -30 0 -5 -5 -21 -10 -35 l-10 -27 -34 21 c-49 31
-98 27 -141 -10 -57 -51 -65 -126 -20 -195 19 -30 19 -34 -3 -34 -36 0 -304
-71 -448 -118 -82 -27 -236 -84 -342 -126 -107 -42 -196 -76 -198 -76 -2 0 -4
115 -4 255 0 202 -3 263 -15 291 -8 19 -63 86 -123 148 -157 162 -145 102
-146 764 -1 471 1 544 14 552 9 6 226 10 533 10 431 0 523 -2 546 -14z m470
-61 c43 -97 66 -115 143 -115 69 0 122 19 139 52 7 12 20 48 29 78 15 51 19
55 49 58 32 3 33 3 26 -30 -27 -135 -63 -190 -132 -201 -21 -4 -79 -7 -129 -7
-74 0 -94 3 -106 18 -18 20 -108 197 -108 212 0 5 12 10 28 10 24 0 31 -8 61
-75z m722 28 c33 -64 69 -80 192 -86 118 -5 138 5 158 83 12 48 14 50 47 50
38 0 38 -3 -3 -96 -38 -86 -55 -94 -211 -94 -73 0 -144 4 -157 9 -17 7 -36 33
-61 86 -20 42 -36 80 -36 85 0 6 11 10 24 10 18 0 29 -11 47 -47z m1228 31 c2
-2 -17 -49 -42 -104 -26 -55 -47 -103 -47 -106 0 -3 -9 -19 -21 -35 -25 -35
-50 -37 -183 -13 -151 27 -146 23 -201 169 -32 85 -32 97 2 93 22 -3 30 -13
54 -72 31 -77 59 -112 106 -132 42 -18 167 -19 181 -1 6 7 28 56 48 108 20 52
38 98 41 102 5 8 52 1 62 -9z m996 -11 c-9 -16 -52 -62 -95 -103 -105 -100
-115 -133 -107 -340 3 -80 3 -221 0 -313 l-6 -169 -45 7 c-79 12 -241 64 -338
110 -91 42 -232 128 -306 187 -47 37 -54 26 -45 -69 10 -100 115 -292 236
-430 25 -29 52 -53 59 -53 24 0 11 30 -35 82 -66 74 -136 185 -172 272 -53
127 -41 142 61 75 189 -123 510 -231 753 -254 103 -10 105 -11 105 -51 0 -22
-6 -37 -16 -41 -22 -8 -220 23 -364 58 -126 31 -230 68 -321 114 -48 25 -69
26 -69 3 0 -18 74 -111 145 -182 148 -148 299 -228 568 -301 50 -14 57 -19 57
-41 0 -34 -20 -39 -99 -26 -178 30 -382 127 -526 252 -51 44 -65 49 -65 23 0
-34 162 -151 303 -218 66 -32 97 -53 105 -71 8 -15 12 -85 12 -180 l0 -156
-52 2 c-81 4 -85 2 -107 -35 -15 -27 -27 -35 -48 -35 -30 0 -131 53 -139 73
-2 7 22 39 54 72 98 101 116 208 52 308 -53 84 -158 111 -250 65 -41 -21 -63
-49 -94 -122 -8 -18 -45 32 -56 75 -6 22 -33 162 -61 312 -56 306 -82 420
-104 453 -20 31 -19 42 10 80 14 18 25 36 25 39 0 4 12 21 26 39 14 17 82 128
151 246 69 118 137 227 151 243 l26 27 319 0 319 0 -17 -27z m75 -51 c0 -20
-18 -44 -73 -97 -40 -38 -79 -79 -87 -89 -12 -16 -16 -81 -20 -360 l-5 -341
-25 0 -25 0 -3 354 -2 355 109 109 c61 61 114 106 120 103 6 -4 11 -19 11 -34z
m-1933 -473 c28 -17 57 -83 87 -201 30 -115 38 -167 76 -493 17 -143 37 -286
45 -318 20 -77 19 -111 -2 -129 -42 -37 -458 -226 -603 -275 -27 -9 -83 -15
-138 -15 -79 0 -101 4 -140 24 -41 21 -52 35 -99 123 -30 55 -78 138 -107 185
-75 118 -102 176 -130 273 -26 88 -49 257 -39 282 4 12 26 15 98 15 85 0 96 2
123 25 33 28 54 31 71 12 10 -13 5 -59 -29 -244 -15 -80 -3 -107 69 -150 58
-35 65 -35 66 0 0 29 32 33 92 13 66 -23 91 -20 124 13 32 33 37 65 13 99 -19
28 -54 30 -54 3 0 -11 5 -23 10 -26 15 -9 12 -41 -6 -56 -13 -10 -24 -8 -72
15 l-56 28 -26 -33 c-31 -37 -59 -36 -106 5 l-27 23 24 124 c33 170 34 336 2
395 -54 101 -145 133 -277 99 -32 -8 -62 -13 -67 -9 -15 9 -10 107 6 131 20
29 60 39 220 58 200 23 200 23 525 21 240 -2 310 -6 327 -17z m141 -57 c42
-98 64 -205 102 -512 46 -364 53 -402 86 -517 14 -47 22 -88 19 -91 -3 -3 -19
7 -35 23 -53 51 -92 203 -115 446 -27 288 -52 437 -100 595 -31 101 -31 104
-1 104 19 0 28 -10 44 -48z m81 10 c44 -86 77 -257 126 -647 38 -303 55 -376
115 -495 29 -57 38 -100 23 -100 -43 1 -120 156 -158 311 -13 57 -34 194 -45
304 -25 244 -53 418 -85 527 -14 46 -25 95 -25 111 0 40 26 34 49 -11z m108
-47 c31 -91 46 -177 88 -494 19 -144 44 -302 54 -350 20 -91 76 -246 92 -256
14 -9 11 3 -21 98 -40 117 -64 242 -95 482 -26 208 -71 473 -86 514 -11 28 -3
61 16 61 31 0 72 -173 125 -535 53 -361 82 -483 143 -604 22 -44 50 -71 62
-59 4 3 -8 34 -25 67 -72 143 -113 312 -155 631 -30 236 -40 292 -67 392 -11
42 -18 84 -14 94 6 16 8 16 26 -1 11 -10 20 -24 20 -32 0 -19 9 -16 29 8 14
18 21 20 38 11 16 -9 26 -40 52 -164 17 -84 42 -227 56 -318 38 -252 53 -326
92 -443 34 -99 61 -147 83 -147 5 0 1 20 -9 44 -41 95 -90 267 -106 371 -9 61
-34 216 -56 344 -21 129 -39 243 -39 253 0 11 7 18 19 18 22 0 21 6 76 -305
57 -316 95 -506 112 -560 37 -115 91 -196 186 -272 15 -13 27 -27 27 -33 0
-17 -44 -11 -70 10 -14 11 -31 20 -37 20 -7 0 -13 5 -13 10 0 6 -5 10 -11 10
-5 0 -3 -10 5 -22 9 -12 16 -31 16 -41 0 -38 -76 6 -134 76 -90 110 -139 271
-186 610 -39 279 -76 467 -97 487 -17 17 -18 20 11 -115 9 -38 32 -182 51
-318 20 -137 42 -281 51 -320 35 -171 94 -302 174 -391 l52 -56 -28 0 c-18 0
-46 14 -74 36 -46 37 -64 31 -36 -11 22 -34 20 -45 -8 -45 -22 0 -73 48 -117
111 -26 37 -30 19 -7 -34 11 -26 18 -50 14 -54 -13 -14 -53 20 -90 78 -73 112
-113 263 -146 552 -26 217 -42 316 -81 494 -18 78 -29 149 -25 158 13 35 39
10 63 -60z m450 -130 c13 -55 39 -197 58 -315 56 -342 64 -379 101 -459 37
-79 68 -121 91 -121 11 0 10 7 -5 28 -38 53 -81 151 -102 228 -27 105 -125
702 -117 711 28 27 64 -97 101 -345 52 -345 86 -461 162 -551 55 -65 111 -76
190 -36 27 14 50 25 51 25 1 0 3 -12 5 -27 4 -28 5 -27 22 12 24 53 16 102
-24 138 -44 40 -89 35 -112 -12 -21 -43 -15 -51 15 -23 28 26 31 27 51 6 38
-37 -5 -114 -63 -114 -43 0 -60 9 -76 41 -28 54 -12 116 41 158 38 30 119 29
164 -1 58 -40 75 -72 75 -141 0 -220 -251 -314 -414 -155 -99 97 -153 235
-195 503 -39 247 -65 392 -82 463 -13 50 -13 66 -3 78 27 33 43 11 66 -91z
m-1827 -614 c0 -95 -70 -235 -133 -264 -53 -25 -110 -22 -145 8 -56 47 -51
118 10 155 43 26 54 25 84 -5 32 -32 28 -56 -13 -76 -36 -18 -33 -29 6 -29 58
0 87 47 115 183 8 37 20 75 27 84 12 13 15 13 31 -7 10 -12 18 -34 18 -49z
m40 -163 c0 -45 -35 -111 -80 -152 -49 -44 -82 -53 -123 -34 l-32 15 45 20
c50 22 104 77 145 147 30 50 45 52 45 4z m2748 30 c9 -9 12 -86 12 -284 0
-150 -3 -279 -6 -288 -10 -25 -51 -20 -58 7 -10 39 -7 537 4 558 12 22 30 25
48 7z m-2690 -122 c6 -30 -7 -64 -39 -101 -51 -58 -27 -66 27 -9 48 51 74 59
74 25 0 -23 -44 -89 -79 -118 -45 -38 -96 -26 -69 16 17 28 5 35 -33 22 -27
-9 -36 -9 -48 5 -15 14 -13 18 14 42 17 15 53 53 79 85 49 57 68 66 74 33z
m-227 -171 c124 -93 353 -215 404 -215 l29 0 -32 33 c-65 67 -29 78 47 15 l50
-43 -32 -5 -32 -6 30 -16 c81 -43 143 -53 340 -52 156 0 207 4 288 22 141 31
265 75 406 142 129 63 151 69 151 45 0 -56 -166 -151 -366 -209 -185 -53 -298
-69 -474 -70 -174 0 -275 16 -418 65 -235 83 -580 315 -547 369 14 22 48 6
156 -75z m1424 19 c-11 -9 -46 -29 -77 -45 -34 -17 -58 -36 -58 -45 0 -12 6
-15 23 -9 12 4 34 9 50 12 22 4 26 2 21 -11 -3 -9 -9 -14 -14 -11 -4 2 -16 -2
-26 -10 -10 -8 -27 -15 -36 -15 -10 0 -18 -4 -18 -10 0 -5 -11 -10 -25 -10
-15 0 -40 -7 -57 -16 -29 -15 -30 -18 -15 -29 15 -11 9 -14 -40 -28 -32 -9
-87 -21 -123 -28 -76 -14 -314 -15 -380 -2 l-45 9 50 8 c92 13 195 46 276 87
50 25 100 42 130 45 27 2 73 6 102 9 l52 4 -38 -21 c-35 -21 -46 -47 -16 -39
8 2 29 7 47 11 60 15 81 46 35 52 -24 3 -11 12 77 56 105 52 143 65 105 36z
m-1787 -46 c55 -61 207 -185 307 -251 181 -119 357 -195 561 -243 111 -26 134
-28 334 -28 189 0 228 2 320 23 58 13 115 26 127 28 35 8 41 -23 12 -53 -40
-40 -186 -64 -419 -71 -168 -4 -212 -2 -315 15 -258 45 -460 134 -730 325
-102 72 -285 247 -285 272 0 16 30 36 44 28 4 -3 25 -23 44 -45z m-207 -20 c3
-62 -5 -189 -17 -258 -45 -259 -170 -487 -377 -687 -190 -183 -237 -213 -245
-155 -3 18 13 39 67 90 39 37 88 79 109 93 37 25 162 170 162 187 0 5 10 17
21 28 28 25 103 175 134 269 29 85 60 229 70 320 10 95 22 125 51 125 13 0 24
-6 25 -12z m3364 -44 c27 -29 40 -94 32 -157 -4 -32 -14 -50 -40 -72 -51 -44
-59 -66 -68 -193 -5 -63 -11 -129 -15 -147 -5 -27 0 -39 27 -69 26 -31 30 -39
18 -47 -8 -5 -19 -9 -26 -9 -21 0 -63 61 -79 117 -21 73 -14 138 31 295 22 76
38 156 42 208 3 47 11 88 17 92 20 14 37 8 61 -18z m-3471 -58 c-18 -163 -65
-321 -133 -451 -66 -128 -82 -155 -92 -155 -16 0 -10 17 31 88 81 139 132 297
151 466 15 130 15 132 34 116 12 -10 14 -25 9 -64z m2406 31 c0 -16 -288 -399
-655 -873 -819 -1054 -921 -1183 -935 -1181 -8 1 -16 9 -17 17 -3 13 510 687
598 788 16 18 29 42 29 52 0 11 7 20 15 20 9 0 21 12 27 28 14 31 163 228 218
287 37 39 619 794 654 848 19 28 66 39 66 14z m-2540 -14 c0 -5 -7 -51 -15
-103 -15 -105 -53 -225 -96 -312 -42 -84 -118 -198 -132 -198 -7 0 -21 -17
-32 -37 -19 -35 -80 -82 -91 -70 -9 9 39 67 73 88 18 12 33 29 33 39 0 9 8 24
17 31 43 36 104 135 124 203 12 39 29 89 39 111 9 22 25 85 34 139 9 55 19
103 22 108 6 10 24 11 24 1z m2790 -10 c0 -10 -75 -115 -166 -233 -92 -118
-199 -258 -239 -311 -40 -54 -82 -106 -94 -118 -12 -12 -21 -26 -21 -31 0 -6
-14 -25 -31 -43 -16 -18 -273 -345 -570 -727 -297 -382 -551 -705 -565 -718
-29 -25 -48 -20 -42 12 3 12 355 474 784 1026 429 553 801 1034 828 1070 27
36 56 71 64 78 23 18 52 15 52 -5z m651 -3 c30 -17 23 -43 -34 -127 -282 -412
-479 -869 -566 -1316 -51 -261 -65 -414 -65 -702 0 -340 31 -575 115 -857 58
-195 189 -509 294 -703 23 -44 46 -95 50 -112 3 -18 10 -33 15 -33 5 0 24 19
42 41 45 56 96 109 134 139 131 102 197 149 205 144 24 -14 -1 -86 -35 -102
-41 -19 -207 -174 -226 -212 -11 -21 -29 -41 -40 -45 -19 -6 -38 -50 -27 -61
10 -10 27 6 54 49 14 23 38 51 52 62 14 11 64 55 110 98 76 70 111 92 111 69
0 -5 -43 -48 -95 -96 -159 -147 -273 -317 -334 -501 -31 -96 -61 -251 -61
-321 0 -47 -11 -62 -30 -39 -26 31 28 288 94 451 20 49 36 96 36 105 0 9 7 19
15 23 18 7 51 73 42 83 -12 11 -57 -39 -57 -63 0 -13 -8 -28 -19 -33 -21 -12
-84 -168 -112 -282 -11 -42 -28 -132 -38 -200 -17 -122 -18 -124 -44 -127
l-27 -3 0 94 c0 101 18 216 51 325 25 81 104 247 153 320 20 30 36 58 36 63 0
5 -13 9 -29 9 -45 0 -79 49 -191 275 -111 224 -172 374 -224 551 -82 275 -106
449 -113 806 -6 293 2 429 38 663 11 72 26 169 34 218 7 48 20 98 28 110 8 13
17 41 19 62 5 39 74 238 137 397 44 111 148 315 226 443 101 166 231 345 251
345 3 0 14 -5 25 -10z m-3523 -54 c3 -45 -24 -157 -37 -155 -8 1 -110 124
-116 141 -4 9 17 22 62 40 38 15 73 26 78 24 6 -1 11 -24 13 -50z m539 30 l28
-24 1 -254 c1 -139 -1 -448 -4 -686 -5 -382 -7 -433 -21 -430 -8 2 -24 19 -35
38 -20 34 -21 52 -24 535 -4 513 4 845 19 845 4 0 21 -11 36 -24z m-666 -155
c16 -25 29 -48 29 -53 0 -12 -76 -48 -123 -57 -23 -5 -51 -12 -62 -17 -17 -6
-18 -5 -9 7 10 12 60 135 78 193 6 18 8 18 33 -5 14 -13 39 -44 54 -68z m809
24 c193 -148 447 -268 685 -323 199 -46 454 -53 659 -17 49 9 90 14 92 12 6
-5 -109 -159 -140 -187 -25 -23 -28 -24 -37 -7 -6 9 -20 29 -33 44 -23 27 -24
27 -50 9 -53 -34 -58 -107 -10 -157 l26 -27 -28 -19 c-24 -15 -47 -18 -149
-17 -332 4 -694 106 -973 275 -95 58 -112 76 -112 117 0 29 2 32 14 23 17 -14
72 5 94 32 18 21 26 88 13 106 -8 12 -14 12 -43 1 -18 -7 -42 -22 -54 -32
l-21 -19 -6 65 c-6 61 1 166 10 166 3 0 31 -20 63 -45z m-749 -163 c-12 -40
-37 -86 -55 -101 -9 -8 -16 -19 -16 -27 0 -7 -11 -25 -24 -40 l-23 -28 -37 66
c-54 98 -52 104 59 136 99 29 105 28 96 -6z m3941 -13 c57 -6 106 -14 111 -18
9 -9 -12 -71 -24 -71 -6 0 -15 14 -20 30 -14 38 -29 37 -54 -3 -15 -24 -29
-33 -53 -35 -41 -4 -79 20 -88 53 -8 33 -21 32 -42 -5 -19 -33 -33 -37 -52
-15 -16 20 -3 54 23 60 12 2 31 6 42 8 35 8 52 7 157 -4z m78 -148 c21 -6 25
-13 25 -46 0 -55 -28 -60 -49 -11 -18 44 -27 45 -44 7 -28 -62 -105 -63 -137
-1 -19 37 -32 38 -45 5 -11 -29 -32 -32 -51 -9 -16 20 -2 46 32 55 32 9 237 9
269 0z m-400 -166 c11 -18 20 -38 20 -45 0 -7 -38 -101 -84 -209 -133 -312
-194 -525 -233 -818 -21 -159 -23 -570 -4 -718 43 -336 126 -621 276 -949 61
-131 67 -149 55 -170 -14 -27 -53 -48 -74 -40 -33 13 -176 334 -261 589 -100
297 -138 553 -139 920 0 348 38 595 138 899 51 154 179 451 234 542 29 47 42
47 72 -1z m-3368 -115 c49 -73 187 -350 236 -475 154 -389 222 -757 222 -1190
0 -99 -5 -232 -10 -295 -16 -186 -59 -469 -85 -555 -13 -44 -27 -96 -30 -115
-17 -87 -167 -474 -240 -620 -85 -170 -267 -457 -336 -531 -27 -29 -31 -30
-52 -16 -35 23 -32 40 22 114 78 108 206 325 280 478 163 334 263 664 323
1065 20 136 23 193 23 465 0 247 -4 334 -18 430 -57 381 -154 680 -343 1057
-52 103 -94 193 -94 200 0 19 32 49 49 46 9 -2 33 -28 53 -58z m3617 16 c16
-20 25 -2069 13 -3251 -6 -629 -5 -963 1 -989 7 -27 33 -63 89 -122 77 -83 90
-109 68 -144 -7 -12 -27 3 -101 78 -50 50 -95 92 -100 92 -29 0 -6 -34 95
-144 85 -92 118 -135 126 -165 17 -64 9 -1053 -9 -1074 -12 -15 -63 -17 -552
-17 -383 0 -545 3 -563 11 -14 7 -97 106 -186 226 -89 117 -172 224 -186 238
-20 20 -24 34 -24 88 0 35 5 89 10 118 8 41 39 349 40 392 0 4 31 7 68 7 63 0
71 2 97 30 22 23 29 41 32 82 2 31 -1 63 -9 78 -18 34 -86 67 -158 75 -64 7
-74 21 -50 66 11 19 11 19 52 -2 118 -60 220 62 164 196 -9 21 -15 39 -14 40
2 1 55 15 118 30 221 53 522 158 787 273 l92 40 3 -284 c3 -240 5 -286 18
-294 26 -17 32 -11 24 22 -9 38 -7 4295 1 4309 9 14 41 11 54 -5z m-3041 -118
c109 -52 113 -54 88 -66 -16 -7 -26 -20 -26 -32 0 -34 -22 -33 -102 5 -89 41
-118 72 -118 126 0 45 -12 48 158 -33z m-850 -125 c27 -39 125 -255 184 -403
88 -223 139 -423 174 -685 28 -200 25 -640 -4 -835 -40 -261 -107 -501 -208
-737 -51 -121 -132 -279 -150 -294 -16 -13 -34 -3 -62 32 l-23 29 82 182 c131
293 196 512 236 798 27 195 24 655 -6 850 -49 321 -136 598 -280 902 -28 59
-51 112 -51 119 0 15 59 69 75 69 8 0 22 -12 33 -27z m828 -22 l99 -49 -34
-12 c-31 -12 -33 -15 -28 -47 6 -33 5 -35 -19 -29 -33 9 -129 62 -144 81 -16
19 -4 105 14 105 7 0 57 -22 112 -49z m1538 -9 c38 -36 66 -98 66 -149 0 -45
16 -63 70 -78 37 -11 88 -52 106 -86 8 -17 18 -58 22 -92 l7 -62 50 -25 c106
-53 165 -154 151 -259 -4 -37 -13 -53 -46 -82 -22 -20 -40 -43 -41 -50 0 -8
-19 -28 -42 -44 -38 -28 -105 -131 -92 -143 10 -10 86 72 110 119 22 42 65 76
79 62 18 -18 1 -52 -48 -95 -38 -33 -64 -68 -85 -113 -17 -36 -37 -65 -45 -65
-30 0 -67 -44 -72 -85 -7 -54 11 -77 62 -79 52 -1 59 -33 13 -60 l-31 -18 -35
33 c-19 19 -43 49 -55 67 l-20 33 38 54 c22 30 49 69 62 86 25 36 28 49 9 49
-7 0 -38 -31 -70 -70 -36 -44 -64 -70 -77 -70 -11 0 -20 4 -20 9 0 12 84 136
121 179 16 18 32 44 35 57 3 14 13 25 20 25 8 0 17 7 21 15 3 9 18 29 34 45
16 16 29 35 29 44 0 8 9 20 19 26 51 27 68 184 25 231 -32 36 -80 52 -120 39
-43 -15 -148 -128 -169 -184 -9 -23 -26 -46 -37 -51 -12 -6 -26 -22 -30 -37
-12 -34 -124 -152 -138 -143 -24 15 -2 53 136 236 81 106 155 211 165 233 24
53 24 113 0 152 -19 31 -74 64 -108 64 -30 0 -78 -35 -109 -80 -16 -22 -48
-62 -71 -86 -39 -43 -71 -104 -55 -104 16 0 81 76 87 103 4 15 13 27 20 27 7
0 29 20 49 45 77 94 166 62 166 -58 0 -39 -8 -55 -80 -150 -87 -115 -100 -128
-100 -98 0 28 48 177 72 224 11 22 17 41 15 44 -9 8 -72 -24 -92 -47 -11 -12
-33 -47 -50 -79 -42 -79 -141 -131 -106 -55 16 36 8 40 -23 13 -28 -24 -35
-59 -12 -59 12 0 13 -11 9 -53 -4 -43 -2 -55 12 -67 26 -21 113 -16 131 7 26
34 14 1 -13 -35 -46 -64 -85 -101 -99 -95 -26 10 -94 105 -94 132 0 14 9 41
20 59 11 18 20 37 20 42 0 19 -30 10 -46 -15 -9 -14 -25 -25 -35 -25 -28 0
-26 55 2 70 36 20 75 100 48 100 -22 0 -69 -58 -69 -85 0 -25 -3 -27 -27 -21
-29 7 -92 70 -119 119 -13 23 -13 31 0 55 8 15 24 36 36 47 l23 20 -8 -23
c-19 -62 37 -113 101 -92 47 16 79 62 113 161 16 46 38 108 50 137 31 79 21
84 -61 33 -21 -13 -38 -30 -38 -39 0 -33 -43 -102 -76 -122 -19 -12 -39 -20
-44 -18 -11 3 36 73 94 141 21 23 56 67 80 97 42 54 43 55 94 55 58 -1 67 13
27 39 -29 19 -32 41 -8 55 22 12 59 -2 97 -37z m-2150 1 c37 -6 40 -9 82 -100
24 -52 42 -98 39 -103 -8 -14 -74 -21 -122 -14 l-46 7 -47 101 -47 101 26 6
c37 9 70 10 115 2z m1502 -73 c21 -8 24 -14 16 -22 -7 -7 -12 -20 -12 -29 0
-35 -134 -54 -215 -31 l-30 9 38 12 c41 14 47 33 20 64 -18 20 -17 20 69 13
48 -3 99 -11 114 -16z m-914 -81 l61 -31 -33 -19 c-27 -17 -31 -25 -28 -50 5
-30 4 -31 -26 -25 -68 14 -94 53 -82 121 9 44 26 45 108 4z m747 -50 c30 -5
56 -11 59 -14 2 -2 -8 -25 -22 -49 -32 -55 -57 -63 -132 -47 -52 12 -74 31
-35 31 10 0 24 7 31 15 10 12 8 20 -9 41 -37 47 -34 47 108 23z m1680 -117 c9
-18 7 -35 -24 -170 -6 -23 -8 -23 -73 -17 -37 4 -71 11 -76 15 -5 5 -1 47 9
99 l17 91 69 0 c56 0 70 -3 78 -18z m-2807 -87 c33 -86 92 -295 85 -302 -3 -2
-41 -7 -86 -10 l-80 -6 -16 59 c-9 33 -36 117 -59 187 -44 128 -44 128 -22
137 11 5 50 8 86 7 l65 -2 27 -70z m1509 -232 c46 -60 273 -349 504 -643 231
-294 431 -550 444 -568 24 -35 41 -122 24 -122 -19 0 -59 46 -241 277 -100
128 -191 238 -201 245 -10 7 -46 54 -79 103 -34 50 -107 149 -164 221 -478
607 -436 549 -413 574 10 11 23 20 30 20 7 0 50 -48 96 -107z m-1203 37 c17
-16 32 -34 32 -38 0 -15 351 -460 380 -482 4 -3 25 -33 48 -67 23 -34 55 -71
71 -82 16 -11 37 -38 46 -58 10 -21 35 -58 56 -83 51 -61 334 -423 376 -482
36 -50 40 -83 11 -101 -23 -15 -32 -6 -164 165 -64 81 -122 148 -130 148 -8 0
-14 10 -14 23 0 14 -136 196 -373 499 -205 262 -378 488 -385 503 -16 34 -15
85 1 85 6 0 27 -14 45 -30z m1954 -1 c34 -18 50 -73 37 -122 -6 -23 -17 -50
-25 -61 -8 -11 -14 -27 -14 -36 0 -8 -10 -20 -22 -25 -14 -6 -24 -21 -26 -37
-2 -17 -9 -28 -19 -28 -8 0 -17 -8 -20 -17 -3 -10 -17 -28 -32 -40 l-27 -22
26 103 c15 56 39 128 53 160 l27 58 -28 -6 c-45 -11 -75 -39 -107 -101 -36
-67 -75 -110 -116 -124 -16 -5 -29 -8 -29 -5 0 13 24 50 37 58 8 4 21 23 29
42 8 19 18 34 23 34 4 0 30 28 56 63 78 100 96 117 128 117 15 0 37 -5 49 -11z
m488 -85 l0 -64 -80 0 -80 0 0 48 c0 87 1 87 85 84 l75 -4 0 -64z m-2420 -149
c0 -13 10 -27 25 -35 32 -17 105 -113 105 -139 0 -10 -15 -38 -34 -60 -19 -23
-38 -50 -41 -61 -4 -11 -13 -20 -20 -20 -28 0 -26 21 5 56 27 31 31 42 28 81
-3 42 -6 46 -38 57 -33 10 -35 14 -35 53 0 26 -7 48 -19 62 -23 25 -15 61 9
41 8 -7 15 -22 15 -35z m1617 -197 c20 -22 64 -23 104 -2 17 8 33 14 35 12 7
-8 -86 -128 -99 -128 -24 0 -59 32 -93 86 -37 57 -37 58 5 112 l26 32 3 -47
c2 -26 10 -56 19 -65z m443 -238 c0 -11 -5 -31 -12 -45 -10 -21 -9 -31 5 -55
17 -27 16 -29 -6 -57 -60 -71 -59 -109 3 -148 45 -29 47 -34 22 -65 -22 -28
-37 -21 -89 43 -56 67 -58 103 -8 141 35 27 71 83 61 94 -12 12 -61 -35 -81
-76 -16 -34 -23 -41 -40 -36 -11 4 -22 8 -24 10 -8 7 24 94 35 94 6 0 35 29
65 64 53 64 69 72 69 36z m-1680 -61 c0 -12 -10 -37 -21 -56 -26 -42 -19 -52
19 -24 17 12 39 21 51 21 23 0 72 -61 101 -125 10 -22 27 -46 39 -53 12 -7 21
-19 21 -28 0 -8 -62 -96 -137 -195 -76 -99 -148 -196 -160 -216 -46 -78 -38
-159 22 -212 59 -52 109 -38 184 49 83 98 130 180 102 180 -4 0 -43 -45 -85
-100 -42 -55 -85 -104 -96 -110 -46 -25 -103 2 -116 56 -14 55 2 100 64 181
33 43 72 89 87 103 l28 25 -7 -50 c-4 -27 -23 -90 -43 -138 -19 -49 -32 -91
-29 -94 2 -3 24 5 47 18 33 19 50 39 79 94 36 68 75 105 113 105 17 0 17 -2
-2 -29 -22 -30 -29 -67 -11 -56 6 4 34 34 62 68 64 78 87 95 99 76 5 -8 9 -17
9 -20 0 -3 -66 -90 -146 -195 -150 -194 -194 -264 -194 -309 0 -42 24 -88 68
-127 42 -38 52 -61 31 -73 -31 -20 -121 44 -145 102 -8 18 -14 47 -14 65 0 54
-20 80 -79 103 -75 28 -110 74 -118 151 -7 75 -21 97 -71 112 -50 15 -88 45
-109 85 -20 39 -34 173 -22 205 5 14 43 56 84 96 53 50 77 80 81 104 4 17 13
32 20 32 8 0 14 9 14 20 0 12 7 20 16 20 9 0 18 9 21 20 3 11 9 20 14 20 5 0
9 9 9 20 0 11 6 20 14 20 8 0 29 18 46 40 35 44 60 52 60 19z m1218 -31 c8 -8
8 -17 0 -31 -18 -35 -1638 -2120 -1669 -2149 -34 -33 -59 -36 -59 -9 0 11 87
134 193 273 107 140 205 270 218 289 44 64 104 139 170 217 36 42 155 194 264
337 109 143 323 418 474 610 152 193 298 378 324 413 49 63 63 72 85 50z
m-1338 -13 c0 -9 -7 -18 -15 -21 -8 -4 -15 -12 -15 -20 0 -8 -5 -14 -10 -14
-6 0 -15 -11 -20 -25 -5 -14 -14 -25 -20 -25 -5 0 -10 -6 -10 -14 0 -8 -6 -16
-14 -18 -7 -2 -36 -32 -63 -68 -54 -70 -83 -87 -83 -48 0 29 5 35 62 81 30 24
56 57 74 95 15 31 34 65 42 75 19 22 72 23 72 2z m1470 -165 c0 -10 -71 -109
-157 -221 -254 -330 -560 -721 -592 -756 -32 -36 -403 -515 -440 -569 -13 -19
-21 -37 -18 -40 3 -4 52 3 109 14 326 65 636 52 895 -39 187 -65 425 -200 550
-312 29 -25 62 -48 74 -52 24 -8 36 -19 54 -47 6 -8 29 -39 53 -68 23 -29 41
-58 39 -64 -9 -26 -37 -12 -107 55 -275 261 -586 424 -915 481 -160 27 -437
21 -590 -12 -167 -37 -163 -37 -167 -2 -4 40 -15 31 -94 -73 -241 -320 -272
-355 -310 -355 -21 0 53 115 173 267 43 54 116 148 162 208 47 61 347 448 669
862 390 502 589 750 598 746 8 -3 14 -13 14 -23z m-1055 -142 c21 -24 44 -57
53 -75 15 -31 14 -34 -14 -75 l-29 -43 -5 46 c-8 65 -25 82 -75 76 -22 -3 -48
-8 -57 -12 -10 -4 -18 -3 -18 1 0 13 89 124 99 124 5 0 26 -19 46 -42z m160
-224 c22 -9 105 -127 105 -151 0 -11 -13 -32 -30 -48 l-30 -29 0 35 c0 73 -52
99 -117 59 -39 -23 -63 -68 -113 -214 -21 -61 -41 -119 -45 -128 -5 -13 -2
-15 13 -11 37 9 93 65 121 122 34 67 62 94 91 89 19 -3 7 -22 -95 -155 -70
-92 -123 -153 -133 -153 -21 0 -67 30 -87 56 -8 10 -15 40 -15 67 0 46 5 54
158 257 86 115 158 209 159 210 1 0 9 -3 18 -6z m677 -170 c5 -3 -3 -15 -18
-26 -22 -18 -25 -27 -21 -55 5 -29 3 -33 -16 -33 -19 0 -77 13 -115 25 -16 6
19 78 45 95 17 10 106 5 125 -6z m707 -70 c42 -54 44 -80 38 -729 -2 -341 -8
-628 -11 -637 -11 -25 -35 -30 -54 -11 -15 14 -17 46 -19 237 -1 122 -3 235
-4 251 -5 75 15 915 22 915 4 0 17 -12 28 -26z m391 -51 c13 -32 34 -79 46
-105 l23 -46 -40 -7 c-23 -4 -64 -4 -93 -1 -60 8 -67 17 -112 149 l-23 67 88
0 89 0 22 -57z m-1215 -28 l30 -12 -27 -13 c-32 -15 -35 -28 -13 -56 29 -38
20 -39 -127 -18 -44 7 -48 23 -19 68 36 55 78 63 156 31z m691 -41 c25 -12 36
-26 44 -53 13 -47 13 -64 -2 -79 -16 -16 -67 -15 -74 2 -3 7 -23 21 -45 31
-21 10 -39 21 -39 24 0 4 14 12 30 18 24 9 30 17 30 42 0 35 8 37 56 15z
m-773 -110 c17 -6 16 -8 -4 -22 -17 -12 -20 -21 -16 -48 l6 -34 -42 0 c-23 0
-66 3 -94 6 -43 6 -53 10 -53 26 0 24 18 59 39 76 16 13 127 11 164 -4z m780
-77 c37 -28 47 -55 39 -106 -5 -38 -6 -37 -134 22 -81 37 -107 57 -75 57 7 0
22 6 32 14 16 12 17 18 8 39 -7 14 -9 27 -7 30 9 9 101 -28 137 -56z m-58
-149 c47 -23 87 -49 89 -58 2 -8 7 -32 11 -52 5 -34 4 -38 -15 -38 -12 0 -79
28 -148 62 -100 49 -122 63 -102 66 33 5 50 20 50 43 0 28 20 24 115 -23z
m-805 -129 c291 -32 532 -112 770 -255 116 -70 130 -81 130 -106 0 -22 -9 -32
-52 -55 -51 -27 -53 -30 -56 -73 -3 -67 7 -77 57 -56 23 9 44 16 46 16 9 0 5
-145 -4 -159 -7 -10 -31 3 -107 58 -180 130 -455 253 -659 295 -192 40 -438
44 -645 12 -47 -7 -87 -12 -89 -10 -4 3 153 216 212 287 22 27 50 53 61 58 23
10 190 4 336 -12z m-1737 -149 c10 -9 -69 -169 -128 -260 -23 -36 -45 -75 -49
-88 -6 -16 -14 -22 -29 -20 -19 3 -22 10 -25 58 -2 30 2 72 9 93 9 29 10 40 1
49 -20 20 -14 45 25 117 l37 68 76 -5 c41 -2 79 -8 83 -12z m-330 -52 c29 -38
44 -83 52 -153 6 -50 4 -60 -55 -275 -12 -43 -21 -107 -21 -151 -1 -42 -4 -81
-8 -86 -30 -45 -95 4 -106 81 -11 68 0 128 25 146 60 43 63 48 72 101 5 30 13
106 17 169 l8 115 -29 33 c-16 18 -26 37 -23 43 12 19 45 8 68 -23z m-348 -63
c23 -46 26 -47 49 -13 33 50 117 52 136 3 12 -30 36 -33 43 -4 6 24 34 23 51
-3 8 -13 6 -22 -8 -37 -17 -19 -31 -21 -150 -21 -148 0 -176 9 -176 59 0 15 3
31 7 35 12 12 37 2 48 -19z m4170 -96 c46 -98 47 -96 -80 -128 -99 -25 -95
-24 -95 -8 0 36 109 217 130 217 4 0 24 -37 45 -81z m-4010 -44 c14 -13 25
-31 25 -40 0 -21 29 -19 37 3 12 34 24 42 44 31 25 -13 24 -34 -3 -53 -18 -13
-52 -16 -159 -16 -150 0 -163 5 -157 57 4 34 28 37 44 5 19 -39 31 -46 39 -23
9 28 53 61 82 61 13 0 35 -11 48 -25z m4017 -200 l-39 -98 -42 55 c-44 59 -49
79 -26 98 22 18 139 59 143 50 2 -4 -15 -51 -36 -105z m-116 -77 l45 -57 -24
-16 c-25 -16 -128 -55 -147 -55 -20 0 1 181 26 222 8 12 45 -23 100 -94z
m-1686 72 c289 -36 567 -163 763 -348 59 -57 68 -76 42 -86 -22 -8 -41 2 -145
80 -175 132 -373 228 -555 271 -128 29 -372 25 -538 -10 -177 -38 -296 -78
-422 -142 -108 -56 -135 -62 -135 -27 0 75 370 226 640 261 95 12 253 13 350
1z m-2201 -89 c12 -36 16 -516 5 -545 -8 -20 -38 -21 -54 -1 -8 9 -14 75 -17
192 -7 217 3 367 24 389 18 18 26 11 42 -35z m2226 -29 c27 -8 24 -10 -40 -22
-87 -16 -203 -54 -275 -90 -47 -23 -160 -56 -164 -48 -37 64 -60 72 -117 42
-17 -8 -40 -13 -52 -11 -19 3 -16 6 17 21 26 12 35 21 29 27 -12 12 -106 -16
-124 -37 -9 -12 -5 -14 22 -14 l34 -1 -30 -25 c-16 -13 -43 -31 -60 -38 -94
-42 -117 -46 -92 -18 21 23 22 42 2 42 -34 0 -11 23 53 51 140 64 301 108 469
129 76 10 282 5 328 -8z m135 -87 c34 -18 53 -44 111 -150 23 -44 65 -113 91
-154 111 -170 168 -345 168 -513 l0 -70 -63 6 c-54 6 -73 3 -136 -20 -54 -20
-75 -24 -84 -15 -11 11 -6 63 25 234 15 84 5 107 -67 155 -58 37 -65 39 -65
13 0 -12 15 -28 39 -42 61 -34 65 -54 40 -204 -41 -247 -28 -357 51 -429 61
-55 130 -68 229 -41 30 8 58 12 63 9 11 -7 10 -111 -2 -134 -12 -22 -59 -33
-250 -57 -206 -25 -794 -26 -832 -1 -20 13 -32 40 -56 125 -41 139 -68 272
-82 398 -5 55 -17 163 -25 240 -8 77 -24 177 -35 223 -25 102 -25 134 -2 154
57 51 560 270 662 289 62 11 184 2 220 -16z m-2087 -60 c31 -13 73 -31 93 -40
l37 -15 -71 -74 c-70 -74 -102 -137 -102 -201 0 -45 31 -123 65 -162 32 -37
40 -41 98 -47 39 -5 74 -3 92 4 41 15 89 64 110 111 10 21 21 39 25 39 15 0
49 -80 64 -150 9 -41 39 -194 66 -340 28 -146 57 -282 65 -303 8 -20 15 -63
15 -94 0 -46 -5 -62 -23 -82 -13 -15 -81 -127 -151 -251 -71 -124 -135 -231
-144 -237 -21 -17 -642 -19 -642 -2 0 6 32 42 71 80 107 106 103 90 100 464
-3 382 -7 366 90 346 173 -35 348 -110 517 -220 114 -75 142 -85 142 -51 0 25
-57 176 -95 251 -69 135 -186 276 -317 380 -29 23 -52 46 -50 50 1 5 -6 9 -16
9 -10 0 -27 7 -38 15 -10 8 -27 15 -38 15 -10 0 -27 11 -37 24 -11 14 -41 32
-68 41 -26 8 -59 27 -71 40 -23 24 -24 32 -25 185 l-1 160 52 0 c55 0 97 23
109 60 8 25 11 25 78 -5z m2363 0 c3 -8 -6 -29 -21 -47 -31 -37 -17 -52 18
-20 41 37 67 46 85 29 14 -14 9 -23 -48 -87 -80 -90 -115 -87 -85 9 7 21 6 22
-13 12 -34 -18 -42 -13 -42 27 1 44 14 63 55 78 41 16 45 16 51 -1z m-1614
-56 c50 -55 122 -197 153 -305 14 -49 43 -213 65 -369 22 -154 52 -342 66
-417 27 -141 26 -172 -2 -166 -30 6 -76 205 -124 539 -39 265 -54 341 -90 451
-37 110 -77 190 -129 255 -22 28 -37 54 -33 57 14 15 59 -7 94 -45z m-66 -58
c50 -67 100 -174 128 -272 14 -48 48 -232 76 -410 28 -178 58 -352 66 -387 8
-35 14 -72 14 -83 0 -22 -22 -25 -40 -5 -23 29 -60 194 -95 421 -51 328 -72
437 -106 528 -31 87 -97 206 -136 249 -14 14 -22 31 -19 37 11 17 75 -28 112
-78z m189 28 c37 -45 78 -130 108 -224 32 -100 42 -161 62 -345 20 -185 37
-285 82 -493 31 -143 34 -170 22 -178 -23 -15 -39 -10 -48 14 -22 57 -63 271
-96 497 -58 408 -96 561 -172 698 -49 89 -24 108 42 31z m-302 -21 c81 -82
146 -222 181 -393 8 -38 29 -164 46 -280 17 -115 42 -265 56 -332 30 -150 30
-163 4 -163 -15 0 -23 12 -35 53 -23 79 -51 225 -89 460 -64 389 -98 488 -217
635 l-59 72 31 0 c23 0 42 -12 82 -52z m-125 10 c69 -42 147 -166 190 -298 30
-90 36 -121 97 -484 30 -177 57 -336 61 -355 6 -29 5 -33 -12 -29 -38 7 -57
80 -130 501 -72 416 -142 582 -280 663 -24 14 -44 28 -44 31 0 12 86 -9 118
-29z m524 5 c26 -30 64 -113 91 -199 32 -100 49 -202 77 -444 25 -216 48 -345
90 -495 17 -60 27 -112 23 -116 -5 -5 -18 -6 -30 -3 -17 5 -26 26 -52 117 -45
165 -78 342 -96 512 -30 282 -65 437 -129 562 -14 29 -26 59 -26 68 0 20 33
19 52 -2z m1558 -8 c10 -11 4 -22 -31 -56 -49 -48 -40 -62 16 -24 37 24 77 31
109 19 20 -8 21 -24 2 -24 -31 0 -119 -95 -152 -163 -29 -61 -34 -66 -43 -48
-17 31 -13 83 9 119 21 35 26 62 11 62 -6 0 -18 -13 -27 -30 -30 -50 -64 -51
-64 -1 0 46 73 132 130 154 23 9 27 8 40 -8z m-2171 -31 c40 -20 65 -44 102
-93 92 -124 111 -190 190 -649 22 -128 44 -245 49 -258 6 -14 10 -45 10 -70 0
-40 -2 -44 -25 -44 -17 0 -26 7 -30 23 -16 67 -51 253 -95 500 -28 152 -58
302 -69 331 -35 100 -103 180 -186 217 -52 24 -77 24 -126 -2 -50 -25 -47 -31
9 -17 121 31 238 -75 301 -272 11 -36 35 -155 51 -265 17 -110 42 -256 56
-324 28 -134 26 -172 -6 -133 -24 29 -61 188 -104 447 -57 339 -103 441 -220
490 -54 23 -88 12 -136 -42 -48 -55 -63 -40 -31 34 20 47 20 47 1 25 -27 -32
-44 -94 -36 -127 10 -40 59 -85 92 -85 32 0 74 35 74 62 0 22 -13 23 -30 3
-15 -18 -42 -19 -58 -3 -35 35 11 108 68 108 22 0 41 -10 62 -30 27 -28 30
-36 25 -76 -12 -110 -137 -155 -235 -85 -105 75 -70 276 60 340 65 32 167 29
237 -5z m738 -66 c40 -45 84 -155 102 -256 6 -31 17 -131 26 -222 20 -212 48
-387 85 -527 34 -126 36 -153 15 -153 -22 0 -40 35 -69 130 -47 157 -72 298
-101 585 -20 186 -53 349 -92 451 -8 21 11 17 34 -8z m1634 -51 c39 -30 50
-87 24 -136 -23 -46 -80 -56 -115 -21 -38 38 -22 80 31 80 26 0 24 16 -3 23
-27 7 -82 -31 -101 -71 -15 -29 -32 -94 -42 -153 -3 -21 -12 -42 -20 -49 -11
-9 -16 -4 -24 27 -41 147 59 313 189 313 25 -1 52 -6 61 -13z m-3031 -174 c47
-13 114 -37 149 -53 35 -17 69 -30 75 -30 16 0 328 -255 346 -283 8 -13 37
-57 64 -98 51 -76 108 -192 120 -241 9 -41 -11 -36 -118 27 -214 126 -516 220
-773 241 -50 4 -87 12 -94 20 -15 18 -4 60 17 68 18 7 222 -18 329 -40 100
-21 277 -81 369 -126 122 -58 124 -34 9 103 -146 174 -334 288 -577 349 -61
16 -119 32 -128 35 -18 7 -25 45 -10 59 12 12 130 -4 222 -31z m3005 -139 c34
-16 65 -65 65 -102 0 -10 -9 -31 -21 -46 -36 -45 -129 -28 -129 25 0 10 12 28
28 40 l27 22 -35 -7 c-61 -11 -69 -29 -81 -161 -22 -266 -28 -277 -48 -97 -21
190 -12 250 41 300 45 41 102 51 153 26z m-2977 -366 c9 -9 12 -101 12 -353 0
-305 -2 -344 -17 -372 -19 -33 -206 -213 -222 -213 -11 0 -41 28 -41 39 0 4
14 20 30 36 17 16 30 35 30 42 0 7 6 13 14 13 8 0 23 10 33 23 10 12 30 30 45
40 64 40 63 39 60 393 -4 323 0 364 31 364 7 0 18 -5 25 -12z m1116 -724 c121
-21 151 -35 174 -81 32 -62 43 -111 26 -117 -25 -10 -40 4 -61 53 -25 61 -59
80 -153 88 -103 9 -113 4 -146 -72 -20 -46 -35 -67 -51 -71 -42 -11 -42 5 -2
99 43 99 70 132 103 123 12 -3 61 -13 110 -22z m1646 -59 c30 -31 71 -127 61
-138 -5 -4 -19 -5 -33 -2 -18 5 -28 17 -37 46 -6 21 -20 43 -31 49 -10 5 -54
10 -97 10 -90 0 -114 -12 -141 -68 -18 -40 -57 -56 -68 -28 -8 20 23 111 42
127 14 11 122 24 235 28 37 1 50 -4 69 -24z m-837 -29 c118 -5 130 -11 153
-64 23 -56 -4 -71 -51 -28 -22 21 -39 25 -128 31 -135 9 -161 6 -165 -21 -3
-23 -41 -39 -56 -24 -5 5 -3 26 5 51 16 50 44 68 97 63 21 -2 86 -5 145 -8z"/>
<path d="M1663 9093 c-340 -412 -363 -442 -363 -463 0 -20 1 -21 338 -432 129
-155 242 -289 253 -297 16 -11 22 -11 35 0 14 12 449 539 542 657 23 30 42 64
42 76 0 13 -106 150 -266 346 -284 347 -321 390 -340 390 -6 0 -115 -125 -241
-277z"/>
<path d="M3475 8790 c-105 -23 -145 -49 -131 -85 7 -20 31 -17 121 15 73 27
150 24 240 -10 74 -27 90 -29 90 -11 0 54 -213 115 -320 91z"/>
<path d="M3465 8674 c-55 -20 -101 -68 -115 -119 -16 -59 -7 -79 48 -105 65
-31 153 -37 228 -15 71 20 164 71 164 90 0 7 -17 16 -37 20 -54 10 -116 42
-149 76 l-29 30 64 -7 c50 -5 62 -4 56 6 -24 38 -153 52 -230 24z"/>
<path d="M3072 7925 c-23 -10 -32 -20 -30 -32 3 -16 19 -18 173 -19 94 0 187
-4 208 -8 35 -8 37 -7 37 18 0 14 -8 29 -18 35 -9 5 -89 12 -177 15 -131 5
-166 4 -193 -9z"/>
<path d="M2614 7136 c-35 -16 -44 -32 -44 -85 0 -66 42 -81 91 -32 22 22 29
39 29 68 0 38 -14 63 -34 63 -6 -1 -25 -7 -42 -14z"/>
<path d="M2819 7021 c-22 -22 -29 -39 -29 -68 0 -66 45 -84 97 -39 22 19 28
32 27 65 -2 74 -44 93 -95 42z"/>
<path d="M3052 6947 c-35 -36 -40 -63 -17 -106 26 -50 62 -48 104 5 27 34 27
74 0 108 -27 34 -48 33 -87 -7z"/>
<path d="M3312 6917 c-33 -35 -37 -77 -13 -126 22 -43 31 -47 61 -31 23 12 60
71 60 95 0 26 -48 85 -69 85 -10 0 -27 -10 -39 -23z"/>
<path d="M4943 2648 c-52 -57 -535 -650 -552 -679 -20 -34 -45 1 307 -426 183
-223 279 -333 292 -333 17 0 156 166 568 677 23 29 33 50 30 65 -6 34 -575
728 -597 728 -9 0 -31 -15 -48 -32z"/>
<path d="M2661 4998 c-52 -75 -85 -118 -119 -156 -66 -72 -84 -136 -60 -214
33 -112 131 -115 226 -8 56 64 112 135 112 142 0 5 25 35 55 68 54 59 75 94
75 127 0 14 -4 13 -23 -5 -13 -12 -26 -22 -29 -22 -3 0 -8 19 -11 42 -3 23
-14 48 -23 55 -28 21 -77 15 -114 -12 -41 -30 -40 -30 -37 -4 4 38 -21 32 -52
-13z m23 -80 c-9 -61 -51 -190 -68 -213 -25 -32 -20 -48 12 -40 38 9 75 48
112 116 17 32 42 67 57 79 25 20 63 27 63 13 0 -7 -39 -57 -143 -188 -13 -16
-29 -40 -36 -52 -14 -27 -60 -53 -94 -53 -13 0 -36 12 -51 26 -52 53 -30 147
59 255 45 53 87 99 92 99 2 0 0 -19 -3 -42z"/>
<path d="M3257 3722 c-34 -35 -36 -88 -6 -126 27 -34 51 -33 83 5 31 37 33 70
5 115 -25 41 -47 43 -82 6z"/>
<path d="M3541 3712 c-51 -49 -53 -79 -8 -128 l32 -35 38 31 c50 42 49 79 -4
148 l-17 23 -41 -39z"/>
<path d="M3791 3656 c-30 -31 -33 -39 -28 -72 6 -39 32 -74 53 -74 23 0 84 66
84 91 0 34 -36 89 -58 89 -10 0 -33 -15 -51 -34z"/>
<path d="M4039 3587 c-23 -15 -35 -32 -37 -51 -4 -35 14 -83 35 -91 19 -7 57
17 79 50 20 31 11 90 -16 105 -24 13 -22 14 -61 -13z"/>
<path d="M4254 3475 c-21 -21 -25 -33 -22 -73 3 -45 4 -47 35 -50 60 -6 102
66 77 132 -10 25 -61 20 -90 -9z"/>
<path d="M3445 2639 c-2 -3 -2 -15 1 -26 5 -17 17 -22 77 -28 98 -11 222 -12
280 -2 47 8 69 29 51 47 -10 10 -404 19 -409 9z"/>
<path d="M3225 2060 c-75 -33 -130 -76 -104 -83 8 -3 34 -10 59 -17 50 -13
150 -74 150 -91 0 -11 -19 -10 -97 7 -50 10 -40 -11 16 -35 125 -53 257 -5
306 113 23 55 14 78 -42 105 -36 18 -69 25 -133 28 -77 3 -91 1 -155 -27z"/>
<path d="M3110 1821 c0 -16 84 -67 144 -87 72 -25 188 -23 246 3 53 23 73 44
64 67 -8 21 -22 20 -80 -6 -39 -18 -67 -22 -134 -22 -78 1 -122 11 -222 49
-11 4 -18 3 -18 -4z"/>
<path d="M477 8560 c-86 -103 -159 -195 -163 -203 -3 -9 24 -51 71 -108 42
-52 110 -136 151 -186 41 -51 82 -97 92 -102 15 -8 42 21 172 179 85 104 156
196 158 204 3 13 -293 386 -318 401 -3 2 -77 -81 -163 -185z"/>
<path d="M6085 2435 c-82 -101 -151 -190 -153 -198 -2 -8 30 -55 70 -105 40
-49 111 -137 158 -195 47 -58 88 -106 92 -106 15 -2 318 383 318 403 -1 28
-296 386 -318 386 -10 -1 -82 -81 -167 -185z"/>
<path d="M6177 1706 c-60 -22 -103 -62 -134 -123 l-28 -58 -3 -356 -4 -356
-24 -12 c-19 -8 -24 -18 -24 -50 0 -32 4 -40 23 -45 40 -11 162 -7 175 6 23
23 14 65 -18 88 l-31 22 3 347 c3 311 5 349 21 379 26 47 72 72 133 72 94 0
152 -62 161 -173 7 -84 40 -110 83 -67 45 45 11 186 -65 264 -66 68 -177 94
-268 62z"/>
</g>
</svg>
