<svg version="1.0" xmlns="http://www.w3.org/2000/svg"
 width="691.000000pt" height="1056.000000pt" viewBox="0 0 691.000000 1056.000000"
 preserveAspectRatio="xMidYMid meet">
<g transform="translate(0.000000,1056.000000) scale(0.100000,-0.100000)"
fill="#000000" stroke="none">
<path d="M747 9845 c-9 -22 2 -46 35 -78 l29 -27 -3 -343 c-3 -380 -5 -387
-71 -427 -42 -26 -121 -26 -167 -1 -47 25 -80 89 -80 155 0 28 -4 56 -8 62
-12 18 -41 24 -67 14 -23 -9 -25 -15 -25 -69 0 -176 123 -293 290 -278 99 9
161 52 201 142 22 48 23 64 27 403 l4 353 25 23 c18 17 24 31 21 52 l-3 29
-101 3 c-84 2 -103 0 -107 -13z"/>
<path d="M1123 9548 c-4 -7 -9 -566 -10 -1243 -2 -676 -7 -2580 -12 -4229 -5
-1649 -7 -3005 -4 -3012 2 -7 17 -15 31 -18 15 -3 1063 -8 2328 -12 l2302 -6
21 21 21 21 0 2099 c0 1248 4 2101 9 2103 14 5 19 4244 5 4258 -10 10 -2302
24 -4516 30 -123 0 -169 -3 -175 -12z m1290 -52 c23 -9 55 -43 104 -112 39
-55 85 -112 103 -129 17 -16 54 -58 81 -91 l49 -62 -15 -78 c-8 -44 -15 -101
-15 -128 0 -43 -9 -62 -79 -176 -103 -165 -123 -206 -124 -248 -1 -41 25 -66
86 -83 64 -17 68 -23 61 -94 -8 -78 6 -122 57 -181 21 -25 39 -49 39 -54 0 -4
-14 -34 -31 -66 -55 -105 -30 -171 84 -224 l59 -26 -54 -41 c-29 -22 -90 -65
-135 -97 -77 -53 -146 -105 -186 -141 -10 -9 -28 -20 -41 -25 -12 -4 -93 -58
-179 -119 -86 -61 -165 -111 -176 -111 -12 0 -42 29 -82 80 -35 44 -69 80 -76
80 -7 0 -13 6 -13 14 0 22 -66 75 -126 101 -40 18 -54 29 -54 44 0 47 108 40
300 -19 228 -71 361 -66 443 18 19 20 41 50 46 65 25 67 2 177 -45 219 -11 10
-41 27 -67 38 -54 24 -83 16 -93 -25 -7 -30 -54 -48 -103 -39 -20 4 -88 22
-151 41 -96 30 -130 35 -210 35 -164 0 -253 -48 -315 -173 -31 -60 -39 -68
-76 -80 -38 -13 -48 -23 -97 -104 -62 -102 -125 -258 -143 -357 -16 -87 -4
-117 65 -163 39 -26 63 -53 99 -114 27 -44 52 -83 58 -86 5 -4 9 -15 9 -25 0
-24 -288 -226 -302 -212 -13 13 -11 2918 3 2943 9 18 32 19 610 19 485 0 606
-3 632 -14z m3355 -14 c6 -9 12 -35 12 -58 0 -47 -13 -67 -111 -169 -69 -71
-89 -115 -89 -190 0 -31 -4 -55 -10 -55 -15 0 -101 46 -126 67 -63 54 -114
170 -114 259 0 58 -15 63 -81 28 -115 -63 -245 -246 -301 -424 -20 -64 -23
-95 -22 -215 1 -168 20 -251 91 -395 39 -79 62 -110 132 -180 76 -76 142 -122
156 -108 3 2 10 40 16 84 13 99 38 171 79 227 32 46 93 87 128 87 45 0 45 2
33 -557 -6 -291 -14 -538 -17 -550 -6 -23 -38 -31 -49 -13 -3 6 -15 10 -26 10
-10 0 -19 6 -19 13 -1 6 -45 42 -99 80 -54 37 -109 79 -121 93 l-24 24 39 72
c69 128 60 259 -26 367 -54 68 -122 101 -208 101 -44 0 -81 -7 -110 -20 -46
-21 -77 -25 -85 -11 -3 4 -13 35 -22 67 -13 46 -18 131 -24 379 -5 234 -11
334 -22 372 l-15 53 53 64 c29 35 57 67 63 70 11 7 216 262 278 346 50 68 73
89 107 98 15 4 138 6 274 4 212 -3 249 -6 260 -20z m-2931 -29 c8 -23 28 -54
45 -68 26 -22 39 -25 101 -24 111 1 178 13 194 35 8 10 19 38 26 62 9 34 15
42 35 42 23 0 24 -2 17 -52 -4 -29 -14 -69 -23 -88 -16 -34 -19 -35 -87 -41
-38 -4 -112 -7 -163 -8 -132 -2 -152 11 -207 134 l-24 56 36 -3 c33 -3 38 -7
50 -45z m747 3 c4 -24 14 -50 22 -57 10 -8 78 -16 195 -22 205 -11 199 -13
239 73 21 45 27 50 56 50 32 0 33 -1 23 -26 -16 -43 -78 -151 -95 -165 -12
-10 -36 -10 -119 0 -57 6 -156 14 -219 18 -130 7 -145 15 -165 88 -19 71 -16
85 23 85 32 0 34 -2 40 -44z m854 37 c-2 -5 -20 -41 -41 -80 -45 -88 -47 -117
-9 -131 47 -18 210 -62 230 -62 20 0 125 110 206 218 42 55 51 62 82 62 33 0
34 -1 23 -22 -18 -35 -64 -93 -167 -210 -75 -85 -100 -108 -121 -108 -45 0
-353 92 -359 108 -6 17 7 55 54 158 33 72 34 74 70 74 19 0 34 -3 32 -7z
m1352 -213 c0 -33 -7 -48 -39 -83 -21 -23 -43 -52 -50 -64 -7 -14 -11 -86 -11
-199 0 -227 -28 -1456 -36 -1592 -6 -109 -18 -132 -52 -99 -18 19 -19 -83 3
1067 8 432 18 800 21 818 3 21 29 60 75 112 39 44 75 80 80 80 5 0 9 -18 9
-40z m-2253 -168 c33 -21 47 -96 118 -642 14 -113 44 -222 95 -346 23 -55 9
-74 -107 -149 -141 -91 -255 -148 -328 -165 -79 -18 -464 -15 -509 4 -78 33
-92 100 -38 181 17 27 32 56 32 65 0 9 -16 35 -36 58 -30 35 -34 45 -24 57 16
19 31 19 97 -2 45 -14 56 -15 63 -3 13 22 2 33 -63 65 -34 17 -67 37 -74 45
-9 12 -14 12 -24 3 -10 -10 -9 -14 4 -19 9 -3 17 -10 17 -14 0 -14 -31 -20
-51 -9 -18 9 -20 17 -14 74 10 91 5 102 -63 115 -64 14 -82 24 -82 49 0 10 46
91 101 182 l102 164 2 76 c1 42 10 99 19 126 l17 51 101 12 c197 24 619 39
645 22z m148 -86 c27 -115 54 -318 65 -485 6 -86 15 -192 19 -236 5 -44 7 -81
5 -83 -1 -2 -15 18 -30 43 -23 40 -31 77 -55 249 -15 110 -40 286 -54 390 -28
197 -27 210 16 199 13 -4 22 -24 34 -77z m75 48 c20 -53 42 -217 79 -589 21
-209 37 -382 35 -384 -6 -7 -44 64 -54 101 -6 21 -24 169 -40 330 -33 318 -45
421 -60 483 -15 64 -13 85 10 85 13 0 24 -10 30 -26z m92 -19 c18 -67 48 -321
58 -494 12 -211 22 -294 52 -439 11 -56 18 -106 14 -109 -12 -12 -40 12 -48
42 -16 62 -39 220 -58 405 -12 107 -32 282 -46 389 -14 107 -23 205 -19 218 8
33 36 26 47 -12z m65 27 c28 -18 65 -264 88 -577 23 -326 31 -390 61 -487 35
-115 21 -138 -24 -40 -58 126 -90 303 -112 622 -12 181 -28 335 -41 404 -15
83 -9 101 28 78z m95 -16 c31 -23 45 -138 78 -606 18 -258 50 -430 105 -571
11 -27 15 -54 11 -65 -6 -17 -11 -14 -32 21 -75 119 -113 276 -133 546 -6 79
-16 205 -22 279 -5 74 -21 190 -34 258 -14 68 -25 130 -25 138 0 17 29 18 52
0z m112 -73 c20 -92 34 -230 46 -468 15 -289 47 -482 104 -630 13 -33 26 -75
30 -94 5 -28 4 -32 -8 -21 -29 23 -78 111 -102 180 -46 137 -67 303 -94 755
-9 151 -19 222 -45 318 -7 25 -5 27 23 27 29 0 31 -2 46 -67z m101 -85 c8 -59
19 -202 25 -320 16 -321 35 -479 74 -615 41 -140 51 -169 65 -178 16 -9 14
-45 -2 -39 -15 5 -99 168 -116 224 -43 141 -68 330 -81 615 -6 127 -17 277
-26 334 -13 86 -13 105 -2 112 28 18 47 -23 63 -133z m53 110 c14 -18 39 -267
52 -518 17 -335 49 -509 125 -665 92 -189 250 -301 441 -313 102 -6 164 13
228 69 83 74 115 156 95 249 -11 53 -50 110 -75 110 -8 0 -14 5 -14 11 0 5
-21 19 -47 31 -37 16 -58 19 -105 14 -72 -7 -102 -26 -122 -77 -20 -50 -20
-92 -1 -129 18 -35 43 -50 84 -50 30 0 31 1 31 49 0 42 3 51 22 57 29 9 58
-27 58 -71 0 -51 -46 -85 -114 -85 -59 0 -96 21 -121 70 -21 41 -19 138 3 172
53 81 167 118 263 87 61 -20 124 -70 138 -108 49 -139 49 -194 0 -279 -55 -96
-146 -142 -300 -150 -119 -6 -205 17 -298 79 -86 57 -144 128 -202 244 -89
180 -123 356 -139 725 -6 129 -17 285 -25 345 -8 61 -15 118 -15 128 0 20 23
23 38 5z m90 -21 c12 -14 26 -171 42 -477 25 -475 69 -641 207 -777 37 -38 86
-77 108 -89 22 -11 56 -29 75 -40 22 -11 62 -20 107 -22 59 -3 80 0 118 18 25
12 45 27 45 34 0 6 13 16 28 22 23 9 31 21 40 57 17 68 15 105 -8 124 -11 10
-20 23 -20 31 0 55 -95 91 -148 56 -48 -31 -61 -55 -56 -99 5 -38 5 -39 -11
-20 -39 49 -29 107 23 138 36 21 122 27 144 10 7 -6 24 -13 38 -16 25 -6 55
-45 77 -102 52 -135 -78 -285 -247 -285 -188 0 -341 101 -438 289 -87 167
-114 312 -132 717 -6 131 -15 277 -21 322 -12 106 -2 146 29 109z m104 -72 c4
-27 14 -180 22 -340 24 -431 42 -548 107 -676 43 -86 83 -133 149 -178 114
-75 218 -88 296 -35 l36 25 -7 -28 c-3 -15 -8 -29 -9 -30 -1 -1 -28 -9 -61
-18 -78 -20 -138 -19 -205 5 -30 10 -58 16 -62 14 -3 -2 -9 4 -13 15 -3 11
-19 24 -36 30 -31 11 -59 33 -59 48 0 4 -16 30 -35 57 -100 142 -125 274 -160
856 -8 135 -18 261 -21 279 -7 31 -6 32 22 29 26 -3 29 -7 36 -53z m72 8 c3
-10 10 -97 16 -193 10 -178 37 -512 46 -585 2 -22 13 -54 24 -70 20 -30 20
-30 20 -5 0 14 -5 43 -10 65 -5 22 -19 182 -30 355 -10 173 -21 339 -24 368
-5 59 7 67 42 27 19 -22 23 -43 32 -182 5 -87 10 -213 10 -281 0 -174 16 -296
54 -417 19 -58 30 -105 27 -105 -13 0 -48 44 -75 95 l-27 50 5 -42 c2 -26 19
-66 42 -103 22 -34 46 -72 54 -85 21 -34 7 -41 -32 -17 -69 43 -147 219 -174
392 -8 52 -19 203 -24 335 -5 132 -12 279 -16 328 -7 84 -6 87 14 87 11 0 23
-8 26 -17z m183 -132 c11 -34 16 -119 18 -341 4 -298 6 -318 46 -416 14 -36 7
-66 -15 -58 -44 17 -76 179 -76 382 0 70 -7 212 -15 316 -8 103 -12 193 -9
198 9 14 34 -27 51 -81z m306 -258 c7 2 14 17 17 33 10 54 21 -4 15 -75 -6
-63 -5 -70 34 -146 23 -44 41 -91 41 -105 -1 -25 -1 -24 -30 9 -55 64 -140
249 -140 304 0 12 10 32 23 45 l22 24 3 -47 c2 -30 7 -45 15 -42z m-2944 -757
c159 -48 209 -49 269 -6 52 37 74 35 117 -10 24 -25 29 -41 33 -90 4 -52 1
-66 -21 -99 -16 -23 -44 -47 -72 -61 -42 -20 -57 -22 -143 -17 -82 4 -118 12
-232 53 -168 59 -238 64 -314 21 -51 -28 -66 -28 -66 2 0 21 88 79 131 88 19
3 38 -1 55 -12 22 -14 28 -15 35 -4 5 8 9 17 9 22 0 17 50 5 84 -22 33 -26 40
-28 71 -18 31 9 39 7 75 -18 38 -26 43 -27 79 -15 33 10 42 10 71 -5 32 -17
33 -17 57 9 14 16 32 25 41 22 9 -2 27 -7 40 -11 25 -7 28 3 8 30 -13 17 -18
18 -69 5 -48 -11 -59 -11 -73 1 -11 9 -41 14 -78 14 -56 0 -61 2 -64 23 -3 19
-8 23 -25 18 -84 -25 -107 -18 -107 32 0 27 -4 27 -39 1 -19 -14 -39 -19 -62
-17 -29 3 -34 7 -37 32 l-4 28 -33 -32 c-33 -32 -49 -35 -95 -17 -11 5 -27
-14 -57 -66 -23 -40 -45 -84 -48 -99 -9 -37 -21 -35 -29 3 -19 97 3 158 74
205 98 65 222 68 419 10z m2111 -47 c36 -6 85 -21 110 -34 l45 -24 -732 -1
c-426 0 -733 4 -733 9 0 5 15 22 33 38 l32 28 590 -3 c343 -1 617 -7 655 -13z
m290 -130 c65 -30 130 -84 130 -107 0 -28 -44 -81 -85 -103 l-40 -21 -785 9
c-846 10 -833 9 -843 62 -3 15 -22 44 -41 64 -34 37 -55 95 -41 117 5 8 240
10 828 8 l822 -3 55 -26z m-1727 -59 c15 -16 32 -30 37 -30 6 0 10 -11 10 -26
0 -16 13 -37 34 -57 19 -18 41 -45 49 -62 17 -34 77 -94 77 -77 0 6 -4 14 -10
17 -5 3 -10 13 -10 21 0 12 85 14 603 14 331 0 680 -3 775 -7 150 -5 172 -8
172 -23 0 -40 5 -40 -777 -40 -549 0 -753 -3 -753 -11 0 -6 16 -38 36 -70 19
-33 64 -119 99 -191 162 -342 264 -734 286 -1106 11 -182 8 -202 -32 -202 -28
0 -36 26 -42 140 -13 216 -86 558 -179 838 -74 222 -209 475 -383 719 -86 119
-99 154 -67 172 29 17 47 12 75 -19z m2427 -60 c11 -11 20 -24 20 -29 0 -5
-74 -120 -164 -257 -251 -383 -254 -387 -288 -448 -38 -66 -215 -321 -251
-360 -20 -23 -83 -112 -140 -199 -261 -403 -319 -488 -343 -504 -29 -18 -49
-12 -68 23 -6 10 -12 21 -13 23 -2 2 -12 -4 -24 -15 -20 -18 -21 -18 -39 6
-26 35 -56 138 -43 151 8 8 174 59 192 59 8 0 -12 -56 -30 -81 -10 -15 -19
-32 -19 -38 0 -6 -9 -20 -20 -31 -24 -24 -26 -40 -4 -40 8 0 21 15 29 33 8 19
21 40 30 47 9 7 28 34 43 59 14 25 40 64 58 86 17 22 39 56 49 75 10 19 31 50
46 68 16 18 29 39 29 46 0 8 16 33 35 56 19 23 35 46 35 50 0 4 16 28 36 52
20 23 44 59 53 78 9 19 22 39 29 43 6 4 12 14 12 22 0 7 22 40 50 72 27 32 64
84 81 116 17 32 53 87 79 121 27 35 63 88 81 117 52 88 83 134 96 142 7 4 13
14 13 22 0 8 13 29 29 47 15 18 36 49 46 68 9 19 24 43 33 53 16 18 24 31 60
96 13 23 38 63 57 89 84 115 89 118 125 82z m-3407 -40 c95 -47 125 -73 203
-175 51 -66 63 -97 46 -120 -9 -13 -479 -354 -497 -362 -34 -12 -106 74 -92
110 3 9 27 16 60 20 74 7 93 19 118 72 23 49 36 54 80 28 27 -16 30 -16 46 -1
15 16 14 21 -12 79 -22 49 -28 79 -29 137 -1 61 -4 76 -20 88 -36 26 -62 18
-74 -24 -7 -21 -21 -47 -32 -57 -19 -17 -20 -17 -25 1 -4 11 -17 47 -31 82
-29 74 -31 107 -6 116 9 3 33 18 52 32 49 36 103 29 213 -26z m2915 28 c7 -7
12 -20 12 -30 0 -20 -82 -151 -137 -220 -21 -26 -56 -80 -78 -121 -22 -40 -62
-100 -88 -133 -58 -71 -187 -278 -187 -299 0 -8 -7 -15 -15 -15 -8 0 -18 -12
-21 -26 -4 -15 -13 -34 -21 -43 -52 -60 -85 -108 -90 -132 -3 -16 -16 -35 -30
-44 -13 -9 -31 -32 -41 -53 -9 -20 -25 -44 -34 -54 -10 -10 -18 -22 -18 -27 0
-5 -31 -50 -68 -100 -38 -50 -91 -130 -120 -178 -28 -49 -60 -97 -70 -108 -11
-11 -23 -31 -27 -43 -6 -20 -4 -23 12 -20 10 2 22 17 28 36 7 26 13 31 30 26
11 -4 21 -7 22 -8 4 -3 63 -168 63 -176 0 -27 -189 -35 -205 -10 -3 4 6 29 20
54 14 26 25 52 25 59 -1 12 -40 -30 -73 -78 -11 -14 -29 -30 -42 -35 -25 -10
-65 -3 -65 12 0 11 1170 1760 1184 1770 15 10 20 10 34 -4z m-3273 -54 c36
-14 60 -115 36 -153 -7 -11 -14 -10 -43 3 -59 28 -86 99 -51 138 17 19 31 22
58 12z m3884 -21 c25 -14 60 -37 77 -50 17 -12 38 -23 46 -23 8 0 25 -12 39
-26 13 -14 75 -63 138 -108 152 -108 173 -128 169 -163 -4 -39 -24 -35 -108
23 -38 26 -73 45 -76 41 -15 -15 13 -50 72 -87 84 -53 104 -86 104 -171 0 -36
-3 -87 -6 -113 -6 -38 -10 -46 -28 -46 -30 0 -43 -11 -51 -42 -8 -32 7 -63 52
-105 33 -32 34 -35 31 -100 -3 -67 -3 -68 -33 -71 -17 -2 -43 -16 -60 -33 -16
-16 -46 -40 -65 -52 -47 -30 -52 -69 -13 -109 32 -34 83 -62 129 -72 40 -9 44
-28 44 -239 0 -140 -2 -158 -16 -155 -10 2 -30 41 -55 108 -83 223 -268 555
-427 765 -126 166 -217 275 -229 275 -7 0 -13 7 -13 16 0 9 -16 34 -35 55 -19
22 -35 48 -35 59 0 19 144 248 203 323 18 24 35 36 44 33 8 -4 91 -60 183
-126 93 -66 174 -120 180 -120 35 0 -13 46 -159 154 -90 67 -169 128 -174 137
-12 19 -3 49 14 49 7 0 33 -12 58 -27z m-2754 -4 c69 -17 72 -27 40 -117 -15
-42 -31 -81 -36 -86 -14 -15 -57 21 -69 59 -6 19 -15 35 -19 35 -10 0 -41 55
-41 74 0 15 44 45 68 46 7 0 33 -5 57 -11z m186 -35 c9 -11 8 -22 -7 -49 -14
-27 -16 -37 -6 -47 9 -9 16 -8 30 5 27 24 35 21 57 -19 19 -36 19 -36 0 -50
-33 -24 -149 0 -162 32 -6 17 5 71 26 126 11 28 39 29 62 2z m1969 -17 c0 -2
13 -48 29 -102 34 -111 31 -131 -22 -139 -112 -19 -160 -28 -173 -33 -24 -9
-16 20 26 90 22 36 40 71 40 77 0 14 80 110 92 110 4 0 8 -2 8 -3z m-2325 -13
c55 -21 295 -441 393 -689 114 -288 200 -687 190 -880 -3 -54 -5 -60 -27 -63
-13 -2 -27 0 -32 5 -5 5 -20 92 -35 193 -41 299 -91 495 -179 710 -58 143
-158 343 -173 348 -25 8 -10 -40 47 -155 60 -120 124 -274 137 -328 7 -29 7
-30 -13 -12 -24 21 -33 21 -70 2 -15 -8 -48 -20 -73 -27 -84 -24 -91 -85 -19
-163 52 -56 103 -81 136 -66 32 15 62 84 64 146 1 50 1 50 14 20 18 -44 39
-160 32 -179 -4 -9 -21 -24 -38 -34 -17 -9 -67 -38 -112 -64 -97 -57 -99 -56
-122 52 -52 251 -171 524 -361 826 -86 137 -85 140 30 221 49 35 97 63 107 63
12 0 26 -15 39 -40 25 -50 25 -52 -6 -40 -28 11 -37 8 -74 -26 -14 -13 -40
-35 -57 -49 -39 -31 -42 -61 -11 -100 42 -54 159 -85 188 -50 9 10 11 41 8
100 -4 82 -4 85 13 68 10 -10 35 -47 57 -83 37 -61 72 -89 72 -57 0 8 -40 77
-90 154 -49 77 -90 148 -90 158 0 10 8 24 18 31 21 16 17 15 37 8z m2587 -29
c-2 -11 -12 -28 -22 -37 -10 -9 -20 -23 -23 -30 -3 -9 -10 -6 -22 10 -19 25
-37 28 -55 8 -9 -12 -7 -18 9 -33 26 -22 26 -50 1 -83 l-19 -25 -22 49 c-12
27 -22 72 -23 100 -1 45 1 50 24 57 14 4 54 7 90 6 59 -2 65 -4 62 -22z
m-3601 -44 c13 -10 56 -35 96 -54 79 -40 94 -63 68 -103 -18 -28 -36 -28 -130
4 -54 18 -71 32 -98 74 -20 31 -21 51 -7 79 13 24 40 24 71 0z m1360 -112 c21
-5 39 -15 42 -23 3 -7 -10 -57 -28 -110 -19 -53 -32 -103 -28 -111 3 -8 17
-15 32 -16 14 0 60 -10 101 -22 95 -28 98 -39 38 -156 -23 -47 -44 -88 -46
-90 -11 -18 -98 158 -108 217 -4 23 -10 42 -15 42 -5 0 -9 5 -9 10 0 6 -25 46
-55 88 -52 76 -68 105 -86 166 l-8 29 67 -7 c37 -4 83 -11 103 -17z m164 -24
c14 -13 25 -33 25 -44 0 -11 11 -33 25 -49 48 -58 86 -172 53 -159 -7 2 -40
12 -73 21 -97 27 -135 46 -135 69 0 38 54 187 68 187 7 0 24 -11 37 -25z
m-1488 -46 c15 -5 48 -23 73 -39 29 -19 53 -27 67 -24 30 8 37 -12 13 -36 -54
-54 -230 -1 -287 87 -17 25 -16 26 11 50 l28 24 33 -26 c19 -14 46 -30 62 -36z
m714 -131 c91 -140 221 -397 274 -541 19 -53 49 -150 66 -215 36 -139 35 -191
-5 -231 -26 -25 -27 -26 -42 -7 -7 11 -14 34 -14 51 0 47 -64 270 -114 398
-52 133 -137 305 -215 437 -77 128 -111 188 -111 194 0 14 34 36 56 36 21 0
38 -20 105 -122z m2683 113 c3 -5 -3 -20 -14 -34 -11 -14 -20 -30 -20 -35 0
-19 -41 -25 -59 -8 -23 21 -38 20 -50 -1 -7 -13 -3 -24 15 -46 13 -16 24 -33
24 -37 0 -16 -63 -81 -70 -73 -4 4 -17 45 -29 91 -15 57 -19 87 -12 99 15 27
202 65 215 44z m-275 -48 c23 -89 34 -174 24 -184 -25 -25 -231 -63 -221 -41
24 54 62 115 78 124 11 7 20 17 20 22 0 5 10 31 23 57 19 42 31 53 59 58 4 0
12 -16 17 -36z m-2612 -25 c16 -21 36 -90 35 -122 0 -17 4 -36 10 -43 23 -29
25 -405 2 -563 -43 -302 -160 -591 -344 -852 -76 -108 -312 -355 -386 -404
-64 -43 -84 -44 -84 -5 0 45 8 58 61 96 27 19 49 39 49 44 0 12 59 71 70 71
16 0 81 62 96 93 17 32 61 77 76 77 12 0 43 68 34 77 -8 8 -65 -55 -66 -72 0
-5 -36 -41 -79 -80 -44 -38 -80 -74 -80 -79 -1 -12 -59 -66 -71 -66 -17 0 -11
29 11 48 27 23 80 78 156 166 122 139 114 132 129 111 13 -17 15 -16 45 16 31
33 79 121 79 147 0 6 4 12 9 12 10 0 41 56 41 73 0 6 7 18 15 27 21 24 89 208
120 325 42 163 58 318 51 495 -5 137 -12 190 -41 342 -6 29 -3 40 14 57 24 24
35 26 48 9z m1527 -35 c43 -87 94 -236 119 -353 28 -127 42 -220 33 -220 -3 0
-20 46 -37 103 -38 121 -147 517 -142 517 1 0 13 -21 27 -47z m106 -82 c57
-156 121 -422 95 -401 -7 6 -19 34 -28 63 -126 423 -148 512 -112 445 9 -15
28 -63 45 -107z m1419 19 c21 -22 43 -40 49 -40 5 0 15 -13 22 -29 6 -16 39
-60 71 -98 198 -227 435 -618 544 -897 52 -132 56 -172 21 -205 l-25 -23 -21
42 c-12 23 -37 83 -56 133 -126 329 -282 584 -587 955 l-110 134 16 34 c9 19
21 34 27 34 5 0 27 -18 49 -40z m-1897 -130 c38 -75 62 -163 56 -199 -3 -19
-10 -17 -96 21 -51 23 -97 49 -102 59 -12 21 73 203 93 197 6 -2 29 -37 49
-78z m1524 -5 c7 -17 -34 -74 -54 -74 -7 -1 -21 4 -31 11 -37 23 -68 -27 -36
-58 21 -22 19 -58 -6 -80 -20 -18 -21 -18 -34 0 -17 22 -30 116 -21 150 11 43
169 87 182 51z m-247 -101 c20 -83 21 -98 9 -110 -18 -18 -168 -50 -191 -41
-23 9 -21 42 3 70 37 39 45 51 83 109 33 50 47 64 68 67 3 1 15 -42 28 -95z
m-2710 66 c10 -5 24 -23 31 -39 14 -35 38 -45 80 -36 23 5 35 1 55 -19 31 -31
32 -64 4 -100 -19 -24 -27 -27 -73 -24 -49 3 -52 2 -68 -32 -32 -63 -74 -77
-122 -39 -33 26 -34 62 -1 105 l25 33 -25 37 c-30 45 -31 63 -4 98 22 28 64
35 98 16z m-177 -108 c18 -53 16 -247 -5 -355 -38 -192 -129 -409 -227 -540
-53 -71 -73 -79 -78 -34 -2 18 7 37 32 64 19 21 38 52 42 68 l7 30 -31 -29
c-17 -15 -35 -25 -41 -22 -24 15 -12 109 23 182 75 157 112 303 122 488 7 122
20 152 61 144 16 -3 18 -17 21 -132 4 -194 -37 -374 -123 -545 -40 -80 -40
-81 -21 -81 17 0 98 182 130 293 34 116 48 222 51 372 1 72 3 134 4 138 2 17
20 -5 33 -41z m1438 -31 c71 -21 140 -59 140 -78 0 -23 -92 -163 -107 -163
-17 0 -24 14 -55 109 -28 86 -45 174 -31 156 4 -6 28 -17 53 -24z m254 -93
c27 -42 56 -147 56 -202 l0 -55 -77 35 c-86 39 -116 66 -105 92 13 31 96 152
104 152 4 0 14 -10 22 -22z m1256 -21 c0 -7 -13 -26 -30 -42 -27 -26 -31 -27
-59 -15 -51 21 -68 -10 -31 -57 11 -14 20 -34 20 -44 0 -19 -55 -55 -64 -41
-12 20 -36 136 -31 152 5 16 33 30 105 54 33 10 90 6 90 -7z m-275 -23 c2 -11
13 -48 24 -84 26 -83 26 -98 -1 -110 -24 -10 -170 -40 -194 -40 -19 0 -18 49
1 56 8 3 17 16 21 27 7 24 32 46 50 47 7 0 15 -12 18 -26 9 -35 51 -31 51 6 0
21 -5 26 -32 28 -18 2 -33 5 -33 8 0 15 36 70 58 89 30 26 31 26 37 -1z
m-1022 -232 c9 -8 17 -21 17 -27 0 -16 -83 -123 -110 -142 -19 -14 -22 -12
-40 29 -20 46 -53 215 -44 229 5 9 144 -61 177 -89z m-1501 51 c11 -10 18 -30
18 -54 0 -46 21 -69 62 -69 67 0 94 -78 42 -119 -34 -26 -64 -27 -97 -1 -33
26 -44 25 -51 -3 -11 -45 -45 -77 -82 -77 -48 0 -76 30 -72 78 3 31 9 40 43
59 22 12 45 24 50 27 6 2 4 13 -4 27 -40 67 -43 77 -27 108 9 16 21 31 28 34
27 11 72 6 90 -10z m2612 -72 c3 -5 -1 -15 -10 -22 -9 -7 -20 -23 -25 -36 -10
-26 -31 -30 -49 -8 -16 19 -44 19 -60 0 -11 -13 -9 -20 13 -43 32 -33 33 -46
8 -78 l-20 -25 -16 25 c-18 27 -45 109 -45 136 0 22 38 38 115 49 84 12 83 12
89 2z m286 -22 c145 -48 226 -193 185 -329 -19 -63 -17 -83 12 -98 17 -9 18
-4 18 61 0 40 5 81 11 91 11 18 12 18 27 -5 9 -14 24 -55 34 -92 16 -60 16
-69 3 -77 -8 -5 -23 -7 -32 -4 -10 3 -18 1 -18 -5 0 -6 4 -11 9 -11 10 0 36
-74 45 -131 6 -31 2 -62 -20 -163 -6 -25 -5 -28 14 -22 20 7 21 5 15 -86 -3
-51 -7 -95 -9 -97 -1 -2 -14 8 -28 22 -30 30 -34 73 -11 117 18 34 15 36 -24
15 -41 -21 -43 -37 -16 -110 32 -85 32 -137 -1 -203 -31 -63 -73 -97 -157
-127 l-62 -23 -6 -68 c-13 -154 -98 -244 -232 -244 -71 0 -102 -12 -120 -46
l-14 -26 -16 41 c-16 38 -24 171 -12 171 3 0 28 -16 56 -35 81 -55 163 -46
223 25 31 37 49 99 40 137 -8 33 -33 65 -45 57 -5 -3 -9 4 -9 15 0 11 -14 29
-31 41 -20 15 -29 29 -27 43 6 39 30 41 105 8 39 -17 84 -31 100 -31 65 0 142
83 150 162 8 84 -45 142 -151 168 -62 15 -70 21 -61 49 5 15 20 20 94 25 95 8
137 26 167 72 39 59 8 180 -56 217 -33 20 -92 22 -157 5 -41 -10 -47 -9 -59 7
-26 35 -16 49 63 90 94 49 118 79 117 144 -2 130 -129 201 -243 136 -81 -47
-87 -35 -28 60 58 96 46 92 157 54z m-1256 -77 c4 -37 10 -93 12 -125 l6 -58
-91 46 c-59 29 -91 51 -91 62 0 16 22 49 88 131 32 40 35 42 52 27 12 -11 20
-38 24 -83z m715 3 c27 -90 22 -111 -27 -125 -20 -5 -67 -18 -104 -29 -38 -11
-68 -16 -68 -11 0 19 30 77 81 155 72 112 88 113 118 10z m-1123 -142 c10 -85
5 -89 -72 -48 -36 19 -79 35 -95 35 -41 0 -103 -33 -128 -68 -58 -82 -51 -140
25 -223 35 -39 54 -67 54 -84 0 -33 -16 -32 -100 5 -117 51 -197 34 -241 -51
-26 -51 -22 -126 8 -167 19 -27 82 -63 137 -79 34 -9 52 -33 43 -57 -5 -12
-20 -16 -70 -16 -106 0 -165 -30 -194 -99 -27 -63 7 -155 69 -187 26 -13 48
-15 110 -11 94 8 108 3 108 -34 0 -26 -7 -32 -73 -62 -72 -33 -98 -59 -110
-108 -17 -67 52 -170 126 -190 34 -9 48 -7 94 10 29 11 53 18 53 15 0 -10 -43
-90 -58 -106 -8 -10 -29 -18 -46 -18 -46 0 -169 62 -195 98 -35 50 -61 114
-61 155 0 35 -1 37 -21 27 -25 -14 -23 -16 -50 45 -16 35 -23 72 -24 120 -1
39 -5 99 -9 135 -13 107 3 165 63 230 55 59 59 71 36 90 -8 7 -15 18 -15 25 0
7 -7 19 -16 26 -13 11 -15 27 -12 80 7 95 38 151 108 195 30 19 66 37 80 40
65 14 70 20 70 81 1 99 41 173 122 229 37 26 50 29 122 29 80 0 81 0 101 32
l20 31 17 -36 c9 -20 20 -61 24 -89z m322 -73 c2 -18 -14 -45 -59 -100 -34
-41 -69 -75 -78 -75 -18 0 -28 65 -30 203 l-1 83 83 -43 c66 -35 83 -48 85
-68z m1132 5 c116 -148 158 -349 115 -554 -39 -185 -154 -350 -298 -427 -27
-14 -28 -14 -18 3 5 10 46 58 90 107 135 150 191 288 191 466 0 122 -19 200
-80 332 -28 59 -50 109 -50 112 0 16 18 1 50 -39z m-1031 -41 c6 -15 14 -46
18 -69 4 -35 2 -46 -16 -64 -20 -20 -29 -21 -79 -15 -31 3 -58 8 -60 9 -10 9
102 165 118 165 4 0 12 -12 19 -26z m-1822 -35 c8 -7 13 -32 13 -65 0 -49 3
-55 35 -81 27 -22 35 -35 35 -60 0 -67 -62 -92 -128 -51 l-35 21 -44 -24 c-40
-22 -45 -23 -71 -9 -58 33 -32 134 37 142 24 3 26 7 26 53 1 28 5 56 9 63 19
31 90 37 123 11z m1325 -216 c-75 -74 -96 -103 -136 -183 -103 -209 -99 -437
10 -638 63 -116 31 -145 -36 -33 -109 183 -133 386 -69 581 25 73 64 155 79
165 5 3 10 17 10 31 0 13 5 24 12 24 6 0 35 27 65 59 29 33 74 73 100 91 45
29 48 30 51 11 2 -14 -23 -46 -86 -108z m1244 52 c29 -6 37 -31 16 -51 -15
-16 -59 -17 -542 -11 -333 3 -535 9 -552 16 -25 9 -37 38 -23 52 5 6 1073 0
1101 -6z m293 -39 c7 -8 11 -27 9 -43 -2 -23 -11 -31 -43 -42 -48 -16 -151
-17 -171 0 -33 27 -7 61 66 86 50 17 125 16 139 -1z m1459 -36 c2 -18 -6 -34
-28 -55 -16 -16 -30 -35 -30 -42 0 -7 -9 -13 -20 -13 -11 0 -20 -6 -20 -13 0
-6 -14 -18 -31 -26 -40 -18 -209 -208 -216 -244 -3 -15 -14 -32 -23 -37 -23
-12 -80 -98 -80 -120 0 -9 -14 -33 -32 -54 -17 -20 -53 -83 -79 -139 -163
-353 -212 -701 -148 -1075 23 -137 23 -127 3 -146 -32 -32 -51 -20 -73 47 -65
201 -58 560 18 858 84 334 236 611 479 874 46 49 91 98 100 108 9 11 44 39 76
63 66 50 99 54 104 14z m-1457 -118 c36 -45 0 -82 -78 -82 -44 0 -123 21 -123
32 0 2 29 3 64 3 106 0 102 28 -6 40 -57 7 -74 19 -40 29 9 2 50 4 91 3 63 -2
76 -6 92 -25z m-831 -4 c0 -5 120 -8 267 -8 234 0 269 -2 285 -17 15 -14 18
-33 18 -135 0 -68 -5 -128 -11 -140 l-11 -21 -542 7 c-446 6 -545 10 -563 22
-20 13 -23 23 -23 88 0 129 11 197 32 205 26 9 548 8 548 -1z m-678 -252 c33
-14 32 -14 -38 -14 -39 1 -79 -4 -88 -9 -16 -9 -15 -12 14 -22 18 -6 51 -11
74 -11 23 0 48 -4 56 -10 11 -7 8 -11 -15 -20 -39 -15 -154 -3 -177 17 -25 22
-22 59 5 78 26 19 115 15 169 -9z m-8 -126 c17 0 18 -2 6 -10 -8 -5 -29 -10
-46 -10 -17 0 -37 -7 -44 -15 -14 -17 -6 -19 73 -15 26 1 47 -1 47 -4 0 -10
-75 -44 -113 -51 -68 -13 -117 18 -102 64 9 28 78 53 129 45 16 -2 38 -4 50
-4z m2735 -35 c35 -25 53 -23 81 9 30 37 100 -2 100 -56 0 -44 -15 -64 -60
-82 -39 -15 -41 -18 -35 -50 7 -34 -7 -73 -29 -88 -19 -13 -71 -9 -95 8 -20
15 -23 23 -18 63 5 43 3 48 -34 82 -46 42 -50 74 -14 113 30 33 61 33 104 1z
m203 -204 c-16 -31 -52 -99 -80 -151 -96 -177 -135 -337 -147 -597 -6 -113
-11 -153 -20 -153 -28 0 -39 126 -25 279 20 222 79 398 196 594 73 120 93 163
96 204 1 15 4 -6 5 -46 4 -67 1 -81 -25 -130z m-2099 165 c332 -3 380 -5 395
-19 9 -9 12 -20 8 -24 -16 -17 -155 -20 -620 -12 -421 6 -490 9 -504 23 -12
11 -13 18 -4 29 10 11 45 13 180 11 92 -2 337 -6 545 -8z m-2329 -43 c10 -21
32 -76 48 -123 97 -276 258 -538 563 -916 74 -92 135 -175 135 -184 0 -27 -33
-62 -51 -55 -8 3 -53 51 -99 106 -46 55 -92 105 -102 110 -10 5 -18 18 -18 28
0 10 -7 25 -16 32 -9 7 -54 66 -100 131 -209 293 -319 494 -403 733 -37 104
-39 138 -9 159 31 22 32 21 52 -21z m2008 -49 c3 -3 3 -17 -1 -32 -6 -23 -13
-27 -49 -30 -52 -4 -72 -30 -42 -57 25 -23 25 -47 1 -69 -21 -19 -26 -14 -56
44 -21 40 -46 136 -37 144 7 8 177 8 184 0z m-2092 -92 c57 -170 170 -392 295
-582 62 -93 187 -266 233 -320 158 -187 222 -272 222 -291 0 -22 -196 -325
-226 -350 -8 -6 -19 -9 -26 -6 -19 7 -509 365 -540 395 -27 25 -28 29 -28 137
l0 112 41 18 c47 21 62 44 53 80 -6 25 -66 85 -84 85 -6 0 -10 33 -10 75 l0
75 28 0 c29 0 43 7 82 40 14 12 41 31 60 44 76 47 34 136 -80 170 -29 9 -62
16 -72 16 -17 0 -18 13 -18 183 0 127 4 187 12 195 18 18 33 -1 58 -76z m1763
82 c3 -3 -1 -23 -8 -45 -8 -21 -11 -39 -8 -39 3 0 24 19 46 43 l40 42 18 -40
c29 -62 53 -141 47 -157 -7 -16 -193 -72 -214 -64 -20 8 -17 36 6 66 11 14 20
33 20 43 0 9 4 17 10 17 5 0 14 9 20 20 18 33 -15 25 -37 -9 -10 -16 -36 -53
-59 -82 -22 -30 -60 -88 -84 -129 -25 -41 -61 -95 -81 -120 -21 -25 -54 -72
-73 -105 -40 -68 -63 -102 -123 -182 -24 -31 -43 -61 -44 -67 0 -6 -16 -31
-35 -56 -19 -25 -61 -85 -94 -135 -32 -49 -89 -132 -127 -183 -37 -51 -88
-125 -113 -166 -25 -40 -64 -102 -87 -137 -24 -34 -43 -69 -43 -76 0 -7 -9
-17 -20 -23 -22 -12 -50 -60 -50 -86 0 -15 3 -14 24 5 14 13 30 37 37 54 7 18
23 42 36 54 13 12 23 31 23 42 0 11 9 25 20 31 11 6 20 19 20 28 0 10 16 26
35 36 22 12 35 27 35 39 0 11 29 63 64 117 35 53 71 110 79 126 8 17 34 52 56
79 23 27 56 79 75 115 37 69 69 106 99 112 16 2 22 -12 42 -86 34 -130 24
-146 -100 -166 -79 -13 -105 -24 -105 -47 0 -9 10 -55 22 -103 12 -48 19 -94
15 -102 -3 -10 -35 -22 -84 -33 -153 -33 -153 -33 -153 -64 0 -16 9 -58 20
-93 34 -107 28 -115 -84 -127 -87 -10 -103 -19 -112 -68 -6 -31 -9 -34 -38
-31 -26 2 -32 8 -36 33 l-6 30 -21 -25 c-12 -14 -33 -38 -46 -54 -19 -23 -29
-28 -49 -23 -60 15 -56 23 151 338 75 114 150 229 166 255 56 90 347 518 425
624 42 58 136 195 210 305 182 273 183 275 229 275 21 0 40 -3 44 -6z m464
-10 c6 -16 -76 -142 -648 -991 -198 -293 -362 -540 -366 -550 -3 -10 -19 -30
-35 -45 -16 -16 -28 -37 -28 -52 0 -18 -6 -26 -17 -27 -10 0 -35 -22 -56 -50
-38 -50 -60 -61 -71 -33 -11 28 -7 38 50 114 31 41 64 91 73 110 8 19 27 51
42 70 14 19 30 45 33 58 4 12 18 30 32 38 13 9 24 22 24 29 0 7 15 31 33 53
19 22 40 54 47 71 7 17 17 31 22 31 5 0 18 21 29 46 12 25 35 62 53 82 43 48
107 143 142 212 27 52 77 125 108 155 8 8 24 35 36 60 12 25 26 45 31 45 5 0
18 20 29 44 10 24 41 70 70 101 28 31 53 69 57 86 3 16 14 34 24 40 11 5 27
25 37 43 9 18 54 88 100 155 75 110 85 121 113 121 17 0 32 -6 36 -16z m152 2
c11 -13 16 -50 41 -301 38 -385 204 -882 389 -1168 34 -53 69 -101 77 -107 31
-27 12 19 -52 126 -76 125 -124 221 -124 247 0 10 -7 20 -15 23 -36 14 -195
522 -195 625 0 20 -7 53 -15 72 -20 49 -55 299 -55 395 0 47 5 83 12 90 14 14
126 16 146 4 18 -12 0 -56 -47 -112 -54 -64 -74 -98 -66 -110 3 -6 39 -26 80
-45 104 -50 104 -49 10 -181 l-56 -77 98 -52 c64 -35 99 -59 101 -72 1 -10
-19 -50 -46 -89 -27 -39 -51 -78 -55 -87 -8 -22 16 -38 110 -73 99 -38 106
-53 63 -131 -82 -148 -82 -149 -23 -158 63 -9 184 -55 190 -72 3 -7 -10 -56
-28 -107 -26 -74 -30 -97 -21 -109 6 -7 50 -19 96 -26 47 -7 90 -19 96 -26 8
-9 5 -34 -12 -89 -21 -72 -21 -77 -5 -94 10 -9 32 -22 50 -28 24 -8 32 -17 32
-35 0 -20 -6 -25 -33 -27 -48 -5 -73 16 -137 113 -52 79 -75 102 -75 73 0 -6
30 -56 66 -110 72 -109 77 -136 30 -153 -26 -9 -31 -6 -63 30 -49 57 -190 272
-257 392 -159 286 -282 650 -330 978 -34 231 -45 452 -24 473 16 16 33 15 47
-2z m437 -16 c7 -14 17 -81 24 -150 39 -441 205 -897 477 -1312 70 -108 77
-134 36 -144 -23 -6 -32 -1 -61 32 -19 21 -48 60 -64 87 -16 26 -34 47 -39 47
-5 0 -9 8 -9 18 0 10 -27 63 -60 118 -33 54 -90 167 -126 249 -37 83 -71 155
-76 161 -8 11 -94 324 -124 450 -31 137 -59 427 -42 457 13 25 49 18 64 -13z
m-106 -50 l0 -60 -40 0 c-44 0 -45 -2 -29 -31 8 -15 19 -20 42 -17 28 3 32 0
38 -27 19 -87 10 -91 -91 -40 -56 28 -70 40 -70 58 0 28 26 67 45 67 7 0 16
13 20 30 6 28 55 80 76 80 5 0 9 -27 9 -60z m1834 -81 c11 -54 7 -72 -30 -147
-20 -40 -38 -91 -41 -115 -3 -23 -14 -58 -23 -77 -10 -19 -22 -60 -28 -90 -18
-93 -34 -258 -27 -270 12 -19 -23 -60 -51 -60 l-26 0 5 163 c5 181 28 293 86
422 37 81 110 205 121 205 4 0 10 -14 14 -31z m-290 -110 c47 -37 31 -96 -34
-129 -22 -11 -40 -23 -40 -27 0 -3 9 -21 21 -39 27 -44 22 -91 -13 -117 -49
-36 -108 -3 -108 62 0 44 -14 61 -51 61 -39 0 -79 35 -79 71 0 62 79 91 133
49 27 -21 38 -16 51 27 9 27 52 63 76 63 10 0 29 -9 44 -21z m-2584 -7 c0 -10
11 -56 25 -102 22 -74 23 -86 11 -99 -8 -8 -61 -26 -118 -41 -119 -31 -113
-21 -76 -153 19 -67 20 -79 7 -92 -15 -15 -215 -66 -224 -57 -14 15 -2 59 28
95 17 23 37 48 42 57 31 51 81 111 97 116 10 3 18 15 18 27 1 31 90 173 160
255 16 18 30 15 30 -6z m260 -11 c0 -30 -17 -41 -84 -56 -25 -5 -27 -9 -21
-33 8 -30 10 -80 4 -86 -2 -2 -13 -6 -23 -8 -15 -2 -24 9 -43 56 -26 63 -24
99 4 111 18 7 141 42 156 44 4 1 7 -12 7 -28z m1399 -88 c42 -198 151 -496
243 -663 17 -30 62 -105 100 -167 72 -116 82 -154 47 -176 -28 -18 -47 0 -113
100 -145 221 -255 451 -321 667 -41 136 -68 270 -61 294 5 15 56 49 77 51 3 1
16 -47 28 -106z m-589 8 c19 -37 12 -71 -20 -89 -38 -21 -35 -42 8 -56 34 -12
44 -23 56 -63 6 -20 4 -23 -20 -23 -31 0 -153 65 -161 85 -5 15 16 49 74 123
38 47 48 51 63 23z m474 -111 c14 -58 26 -116 26 -128 0 -23 -2 -22 -47 16
-61 50 -85 62 -122 62 -41 0 -63 -43 -71 -140 l-5 -75 -33 95 c-17 52 -32 104
-32 114 0 21 27 56 44 56 6 0 54 27 106 59 52 32 98 56 101 52 4 -3 18 -53 33
-111z m-1472 -90 c-6 -40 -35 -60 -77 -53 -42 7 -55 -20 -25 -52 11 -12 20
-25 20 -31 -1 -19 -40 -56 -54 -51 -21 8 -62 145 -49 166 6 10 41 22 89 32
107 23 101 23 96 -11z m1778 -644 c98 -158 121 -202 113 -215 -17 -27 -177
-140 -199 -140 -35 -1 -221 293 -323 510 -55 117 -101 240 -101 270 0 19 1 19
22 5 31 -22 51 -20 108 9 27 14 56 25 64 25 24 0 46 30 46 63 1 23 21 -19 74
-148 61 -151 93 -212 196 -379z m-700 511 c14 -25 13 -28 -19 -61 -38 -39 -34
-56 14 -56 37 0 55 -20 55 -61 0 -19 -4 -21 -31 -15 -50 10 -149 57 -149 71 0
20 94 155 105 152 6 -2 17 -15 25 -30z m-656 -94 c39 -118 139 -493 133 -500
-14 -13 -122 301 -146 426 -23 118 -33 181 -27 181 2 0 20 -48 40 -107z m2001
52 c30 -29 32 -60 5 -100 -25 -38 -25 -56 0 -88 28 -35 25 -71 -6 -96 -47 -37
-99 -20 -124 39 -12 28 -16 30 -64 30 -28 0 -56 4 -63 8 -20 13 -33 60 -24 85
15 39 36 49 93 45 l52 -3 11 36 c5 20 16 44 24 53 20 24 68 20 96 -9z m-2002
-291 c43 -147 76 -268 74 -271 -13 -13 -121 291 -157 441 -18 75 -18 96 -1 96
4 0 42 -120 84 -266z m-633 196 c13 -8 13 -13 -1 -37 -13 -24 -21 -28 -52 -25
-45 4 -55 -13 -33 -56 14 -28 14 -32 -5 -56 -11 -14 -24 -26 -29 -26 -5 0 -15
24 -24 53 -34 119 -33 123 45 142 67 16 80 17 99 5z m567 -230 c60 -209 71
-260 55 -260 -6 0 -141 388 -159 458 -5 20 -2 23 18 20 21 -3 29 -23 86 -218z
m2439 173 c4 -15 4 -673 0 -1462 -6 -1217 -9 -1438 -21 -1450 -12 -13 -104
-14 -611 -12 -328 1 -607 6 -619 11 -13 5 -38 28 -56 51 -19 24 -50 59 -70 79
-20 21 -40 46 -43 58 -4 11 -30 47 -59 79 -110 123 -110 126 -77 306 22 120
21 119 101 237 107 160 126 211 94 256 -8 12 -28 26 -45 33 -16 6 -43 16 -59
22 -29 10 -29 12 -28 82 1 81 -26 158 -69 196 -31 27 -30 43 6 115 17 32 30
71 30 85 0 44 -34 85 -99 119 -33 18 -61 37 -61 42 0 4 54 45 120 90 66 45
139 99 162 121 23 21 48 39 57 39 9 0 29 13 44 29 15 17 37 33 48 36 18 6 185
119 290 197 15 12 34 18 42 15 8 -3 42 -41 75 -84 82 -107 132 -153 204 -188
69 -33 77 -45 52 -70 -27 -26 -115 -15 -269 35 -216 70 -387 67 -458 -8 -78
-81 -74 -236 8 -300 33 -26 97 -47 119 -39 9 4 21 19 27 34 6 15 16 31 22 35
23 14 85 8 173 -18 49 -14 112 -33 139 -40 80 -23 209 -20 280 6 71 27 146 98
165 156 17 52 35 71 76 78 27 6 38 15 54 46 11 22 38 67 59 100 22 34 43 75
46 93 4 18 18 48 31 68 19 27 29 63 40 140 17 122 13 134 -55 179 -25 16 -55
44 -67 62 -63 100 -95 160 -92 173 3 17 254 195 274 195 8 0 17 -12 20 -27z
m-1616 -103 c26 -52 25 -68 -6 -80 -17 -7 -24 -16 -22 -28 4 -17 29 -21 58 -8
11 4 21 -5 35 -30 18 -34 18 -37 2 -49 -15 -10 -30 -9 -92 10 -87 27 -95 31
-95 52 0 20 80 173 91 173 5 0 18 -18 29 -40z m-992 -257 c14 -51 17 -73 9
-73 -18 0 -33 12 -46 38 -13 25 -36 30 -27 6 4 -9 1 -23 -5 -31 -10 -11 -15
-11 -30 3 -11 10 -19 27 -19 40 0 13 -5 26 -11 29 -18 12 -22 -3 -9 -35 10
-25 10 -34 1 -43 -10 -9 -18 -6 -35 16 l-23 29 -7 -26 c-3 -14 -13 -26 -21
-26 -20 0 -19 36 0 44 8 3 19 17 25 30 5 14 19 26 32 28 18 2 24 10 26 36 3
34 28 45 38 17 13 -32 23 -13 18 29 -4 25 -3 53 1 63 6 14 13 6 35 -42 16 -33
37 -93 48 -132z m-568 141 c0 -4 -5 -24 -12 -46 -10 -33 -15 -38 -32 -33 -67
22 -104 -4 -69 -48 26 -33 20 -71 -14 -86 -14 -7 -26 -10 -28 -9 -1 2 -10 40
-20 86 -16 72 -17 85 -4 97 22 22 179 56 179 39z m2863 -20 c30 -28 51 -70 42
-85 -3 -4 -28 -11 -55 -15 -67 -9 -109 -37 -127 -84 -18 -45 -33 -49 -70 -20
-19 15 -30 17 -44 9 -25 -13 -24 -26 6 -91 20 -42 25 -69 25 -130 0 -68 3 -79
22 -92 37 -27 56 -20 69 24 7 22 20 47 30 56 16 15 19 12 39 -33 50 -109 30
-191 -51 -213 -36 -10 -52 -8 -111 11 -81 26 -188 98 -239 160 -60 74 -91 126
-87 150 2 16 70 71 248 200 135 98 252 178 260 178 8 1 28 -11 43 -25z m-1150
-186 c5 -18 -11 -42 -35 -51 -10 -3 -10 -9 -2 -23 9 -14 21 -18 48 -16 40 4
65 -16 66 -52 0 -17 -6 -18 -77 -12 -127 12 -132 20 -81 148 l32 81 22 -29
c13 -15 25 -36 27 -46z m1252 22 c47 -22 62 -34 93 -74 28 -36 28 -42 -3 -62
-24 -15 -27 -15 -44 0 -9 9 -21 16 -25 16 -4 0 -19 9 -33 20 -14 11 -34 20
-44 20 -10 0 -33 13 -51 29 -26 22 -38 27 -51 20 -9 -6 -22 -7 -27 -4 -20 12
-9 36 23 50 39 18 104 12 162 -15z m-4188 -121 c360 -258 368 -266 328 -299
-19 -16 -40 -3 -269 162 -267 193 -266 192 -266 239 0 21 2 39 5 39 2 0 93
-64 202 -141z m4161 4 c18 -3 32 -11 32 -19 0 -7 11 -16 23 -20 23 -5 57 -59
57 -88 0 -8 -9 -24 -19 -37 l-19 -24 -29 23 c-15 12 -61 39 -102 60 -90 45
-101 60 -77 97 16 25 22 27 60 20 22 -4 56 -9 74 -12z m-3128 -8 c0 -16 -35
-77 -41 -71 -2 2 -21 7 -43 10 l-39 7 7 -60 c6 -53 5 -61 -13 -70 -32 -18 -36
-14 -54 53 -29 109 -27 113 63 132 79 18 120 17 120 -1z m-1061 -112 c10 -19
-3 -1519 -15 -1747 -4 -73 -12 -142 -19 -156 -8 -14 -32 -43 -55 -65 -48 -46
-75 -91 -60 -100 13 -8 131 117 153 163 9 21 17 55 16 77 0 22 0 44 0 48 2 17
124 -58 157 -97 41 -48 72 -126 80 -204 9 -87 7 -86 61 -58 98 50 213 176 277
303 65 130 97 317 77 456 -29 205 -148 423 -295 539 -75 59 -88 52 -103 -56
-14 -92 -45 -176 -89 -233 -25 -33 -90 -73 -118 -73 -38 0 -39 27 -32 574 6
504 10 566 36 566 18 0 310 -215 316 -232 3 -11 -9 -41 -30 -75 -83 -136 -71
-277 33 -386 75 -80 177 -105 296 -72 36 9 71 15 79 12 8 -3 23 -30 32 -59 15
-44 18 -97 20 -328 1 -151 7 -295 13 -320 16 -68 13 -140 -8 -186 -10 -22 -45
-72 -78 -110 -33 -38 -124 -148 -202 -244 -93 -113 -157 -183 -181 -196 -37
-21 -48 -21 -282 -17 -270 6 -268 5 -268 72 0 20 8 58 17 84 17 46 17 49 0 58
-9 6 -17 22 -17 37 0 41 32 110 57 121 12 6 30 22 40 38 17 25 18 82 23 943 3
503 9 921 13 928 12 18 45 15 56 -5z m3102 -14 l20 -20 -21 -36 c-29 -50 -21
-67 30 -58 35 6 40 4 40 -12 0 -38 -15 -46 -74 -41 -76 6 -93 24 -78 77 20 64
42 111 52 111 6 0 19 -9 31 -21z m-662 -48 c149 -5 175 -8 185 -23 8 -13 7
-21 0 -28 -16 -16 -1491 5 -1510 21 -8 6 -14 20 -14 31 0 18 13 19 583 12 320
-3 660 -9 756 -13z m1765 -15 c42 -39 48 -84 17 -115 -42 -42 -101 10 -101 89
0 26 3 50 7 53 15 15 44 5 77 -27z m-1892 -85 c401 -7 367 2 456 -122 68 -95
68 -96 46 -121 -19 -20 -23 -20 -334 -13 -173 3 -323 9 -333 12 -18 5 -18 6
-1 24 23 25 8 54 -27 54 -29 0 -37 -29 -15 -54 16 -17 14 -19 -21 -25 -52 -8
-461 -6 -728 4 -226 8 -315 24 -315 55 0 8 -13 23 -30 35 -38 27 -38 53 0 109
17 24 30 49 30 54 0 10 135 8 1272 -12z m-1481 -111 c52 -16 115 -43 140 -60
24 -16 49 -30 54 -30 6 0 27 -21 47 -47 168 -224 232 -447 244 -863 6 -204 28
-464 44 -504 5 -13 6 -27 3 -30 -13 -12 -43 -5 -52 12 -12 23 -26 176 -51 574
-22 338 -35 429 -81 548 -43 109 -83 167 -181 258 -116 107 -164 127 -308 127
-96 0 -110 -3 -163 -30 -64 -32 -107 -75 -107 -107 0 -18 6 -15 44 20 57 52
91 69 162 81 104 16 250 -23 314 -84 14 -13 37 -28 53 -34 15 -6 31 -19 35
-28 4 -10 26 -50 49 -89 109 -179 138 -334 163 -854 6 -124 15 -252 21 -285
12 -81 12 -85 -10 -85 -40 0 -43 15 -61 410 -11 218 -40 515 -60 604 -12 53
-31 95 -65 141 -12 17 -27 43 -32 59 -5 16 -18 34 -28 40 -26 15 -37 26 -58
59 -10 15 -24 27 -33 27 -22 0 -13 -32 12 -45 25 -12 54 -40 54 -52 0 -5 14
-22 30 -38 22 -21 39 -56 60 -122 53 -164 73 -329 90 -718 6 -132 13 -258 16
-280 2 -22 0 -47 -5 -55 -9 -13 -12 -13 -26 1 -21 20 -30 121 -50 519 -8 168
-17 314 -19 325 -52 216 -80 279 -160 358 -30 30 -85 69 -123 88 -58 29 -78
34 -140 34 -66 0 -74 -2 -103 -30 -29 -28 -31 -33 -28 -100 3 -65 5 -71 30
-83 15 -7 41 -14 58 -15 27 -2 28 -3 13 -14 -23 -18 -32 -16 -69 9 -32 22 -74
91 -74 119 1 27 48 90 91 122 40 29 50 32 119 32 62 -1 84 -5 128 -28 68 -36
92 -30 30 7 -62 36 -101 47 -174 47 -164 1 -248 -110 -202 -265 19 -62 40 -75
125 -76 66 0 74 2 89 25 13 20 14 33 6 72 l-10 48 19 -24 c37 -46 15 -105 -55
-141 l-44 -24 -54 24 c-115 53 -137 84 -139 199 -1 64 -1 65 -14 36 -20 -43
-18 -103 6 -155 40 -88 80 -110 217 -117 79 -5 92 -4 92 10 0 9 9 22 19 29 25
18 37 95 21 143 -15 44 -48 67 -92 63 -32 -3 -33 -4 -33 -48 0 -41 -2 -45 -26
-48 -59 -7 -73 73 -21 120 61 54 164 32 202 -42 44 -87 14 -189 -69 -236 -104
-58 -175 -51 -275 27 -72 56 -100 111 -99 194 1 152 102 257 288 298 53 12
118 5 206 -23z m2594 -20 c44 -10 126 -35 183 -55 124 -42 163 -43 249 -9 65
26 90 24 78 -7 -9 -23 -107 -79 -139 -79 -15 0 -36 4 -46 10 -13 7 -21 6 -30
-5 -19 -23 -65 -18 -100 12 -27 22 -35 25 -51 15 -29 -18 -48 -15 -89 18 -42
34 -58 37 -66 15 -8 -20 -23 -19 -78 5 -45 19 -46 19 -56 0 -14 -25 -39 -32
-79 -20 -31 9 -33 8 -27 -13 3 -12 6 -37 6 -55 l0 -33 32 36 31 37 96 -7 c117
-8 131 -12 131 -34 0 -28 8 -30 50 -14 48 19 69 12 76 -26 l6 -30 36 20 c59
31 92 20 92 -30 0 -24 1 -24 39 13 32 32 44 37 66 32 14 -4 28 -13 31 -21 6
-15 21 9 89 143 l32 63 18 -38 c16 -32 16 -44 6 -83 -16 -60 -57 -109 -116
-140 -39 -20 -67 -25 -146 -28 -83 -4 -110 -1 -181 21 -213 66 -259 69 -329
23 -49 -33 -70 -33 -108 0 -62 52 -61 152 2 220 60 65 151 79 292 44z m-1078
-159 c189 -4 346 -11 350 -15 5 -4 -5 -19 -22 -32 l-30 -24 -355 1 c-195 1
-481 4 -635 8 -264 6 -283 8 -332 30 -29 13 -50 27 -47 32 6 11 589 11 1071 0z
m-1039 -245 c64 -189 75 -272 102 -751 5 -99 17 -222 26 -274 14 -84 14 -95 0
-109 -49 -49 -78 113 -96 533 -16 365 -34 488 -101 664 -21 58 -39 107 -39
110 1 3 18 -13 38 -35 27 -30 47 -69 70 -138z m-366 58 c75 -98 111 -251 128
-538 5 -94 15 -256 21 -359 6 -103 9 -191 6 -193 -3 -3 -14 -3 -25 0 -14 5
-21 19 -25 49 -11 80 -27 303 -37 512 -14 289 -41 403 -125 525 -25 36 -45 74
-45 84 0 17 3 16 33 -6 17 -14 49 -47 69 -74z m398 44 c20 -22 41 -68 64 -138
55 -167 69 -270 91 -670 13 -228 27 -347 50 -420 8 -25 -20 -32 -45 -12 -34
28 -51 154 -70 532 -16 308 -35 431 -101 638 -38 121 -38 123 11 70z m1434 11
c84 -23 113 -107 61 -175 -50 -66 -50 -89 3 -146 27 -29 24 -58 -6 -58 -10 0
-41 7 -67 15 -54 16 -65 13 -65 -15 0 -13 13 -25 38 -35 37 -16 92 -62 92 -77
0 -17 -53 -7 -110 22 -56 28 -114 39 -123 23 -2 -5 -7 -21 -11 -38 -7 -28 -7
-29 12 -12 30 27 57 20 116 -28 31 -25 62 -45 71 -45 8 0 24 18 35 39 10 22
25 41 32 44 11 3 10 9 0 27 -16 27 -3 45 26 36 28 -9 33 -29 21 -87 -6 -28 -9
-59 -6 -69 7 -28 -15 -41 -59 -35 -45 6 -87 -11 -92 -38 -5 -26 25 -67 48 -67
24 0 26 13 5 30 -34 28 -17 39 53 37 51 -1 75 3 100 18 30 18 35 18 60 5 49
-28 42 -53 -67 -231 -101 -163 -105 -173 -102 -239 1 -19 -7 -65 -19 -102 -16
-53 -26 -69 -43 -73 -54 -11 -345 -25 -532 -25 -204 0 -206 0 -214 23 -19 50
-42 194 -66 412 -36 330 -53 413 -111 526 -42 84 -42 83 111 179 251 157 290
169 560 169 121 1 226 -4 249 -10z m-1307 -110 c56 -115 79 -228 93 -464 16
-270 52 -594 76 -682 5 -19 2 -23 -19 -23 -13 0 -29 6 -35 13 -26 31 -54 258
-72 587 -6 107 -17 239 -25 292 -15 103 -50 250 -66 281 -13 22 -4 50 14 45 6
-2 22 -24 34 -49z m-555 -59 c42 -84 57 -180 78 -490 10 -157 22 -324 25 -372
6 -81 5 -88 -12 -88 -55 1 -61 35 -73 410 -9 301 -23 419 -59 528 -31 92 -3
100 41 12z m644 11 c28 -43 56 -139 78 -271 19 -112 23 -152 41 -430 9 -129
22 -279 29 -333 6 -54 9 -100 5 -102 -47 -30 -98 252 -119 660 -9 192 -25 309
-59 443 -11 39 -15 72 -10 72 5 0 20 -18 35 -39z m-699 -59 c25 -59 43 -232
43 -412 0 -96 5 -220 12 -276 6 -55 8 -113 4 -129 l-8 -30 -18 25 c-33 43 -41
116 -39 385 1 261 -5 324 -38 416 -19 55 -12 89 14 68 9 -8 22 -29 30 -47z
m805 -29 c37 -80 44 -118 73 -438 14 -154 36 -354 49 -445 18 -135 20 -166 9
-168 -52 -13 -85 151 -103 515 -11 222 -23 348 -45 453 -33 158 -28 179 17 83z
m109 -129 c16 -36 27 -111 50 -362 16 -174 36 -357 45 -407 8 -49 18 -105 21
-122 5 -30 3 -33 -20 -33 -14 0 -28 4 -32 9 -18 30 -48 285 -75 641 -27 356
-27 360 11 274z m81 -61 c28 -48 57 -210 89 -483 45 -403 45 -400 24 -400 -24
0 -55 28 -49 45 3 7 -2 39 -10 71 -16 59 -32 198 -61 524 -9 96 -18 196 -22
223 -6 53 5 61 29 20z m-1341 -39 c45 -62 78 -130 103 -217 17 -59 12 -89 -18
-100 -15 -6 -30 19 -20 34 7 12 -5 49 -16 49 -5 0 -12 -9 -15 -20 -12 -37 -26
-9 -20 38 5 34 1 63 -14 106 -12 33 -21 69 -21 82 0 14 -8 25 -20 29 -19 6
-27 35 -13 48 10 11 10 11 54 -49z m627 -934 c89 -27 167 -52 172 -55 17 -10
11 -34 -31 -130 -33 -75 -46 -95 -67 -100 -44 -11 -46 8 -8 84 40 78 43 93 22
110 -18 15 -212 71 -245 71 -28 0 -81 -52 -180 -175 -62 -78 -99 -103 -128
-87 -18 11 18 61 155 215 72 80 111 117 126 117 11 0 94 -22 184 -50z m734
-125 c170 -9 177 -11 192 -48 8 -18 16 -49 19 -70 l6 -38 -36 3 c-32 3 -38 7
-45 36 -5 19 -18 37 -31 42 -35 15 -310 37 -346 28 -24 -7 -38 -21 -59 -59
-17 -30 -36 -52 -50 -55 -43 -12 -45 9 -8 90 45 98 64 109 172 90 40 -7 124
-16 186 -19z m852 1 c25 -10 43 -31 70 -79 20 -35 36 -69 36 -75 0 -7 -13 -12
-30 -12 -26 0 -33 7 -55 50 -14 27 -35 55 -47 61 -26 14 -237 6 -266 -10 -9
-5 -24 -29 -32 -53 -13 -35 -21 -44 -43 -46 -27 -3 -28 -2 -21 35 10 58 30
100 54 113 19 10 153 25 258 29 23 0 58 -5 76 -13z"/>
<path d="M1472 9315 c-66 -20 -107 -58 -144 -132 -28 -56 -33 -79 -36 -157 -7
-150 34 -262 168 -463 104 -154 373 -477 423 -507 16 -9 27 -2 79 54 266 289
460 566 513 733 49 154 25 325 -58 411 -75 79 -223 99 -345 46 -49 -21 -162
-126 -162 -151 0 -23 -32 -6 -54 29 -37 59 -112 120 -169 137 -62 18 -157 18
-215 0z"/>
<path d="M2934 9019 c-48 -11 -79 -41 -70 -65 5 -13 14 -15 39 -10 113 24 147
20 276 -28 142 -52 173 -56 196 -23 15 22 15 22 -47 29 -45 4 -91 19 -158 52
-103 49 -167 61 -236 45z"/>
<path d="M2960 8930 c0 -5 -18 -19 -40 -30 -22 -11 -40 -24 -40 -28 0 -5 12
-19 26 -33 26 -25 27 -37 4 -94 -12 -29 -10 -33 25 -73 46 -50 75 -56 75 -13
0 35 13 47 65 56 22 3 69 21 104 39 l63 33 -78 27 c-80 28 -134 62 -167 103
-19 24 -37 30 -37 13z"/>
<path d="M5210 7147 c-10 -23 -35 -56 -54 -74 -85 -75 -3 -166 148 -165 89 0
100 12 93 99 -8 104 -67 183 -137 183 -27 0 -34 -6 -50 -43z"/>
<path d="M5409 6779 c-19 -17 -50 -39 -70 -49 -60 -31 -65 -73 -16 -125 33
-36 123 -75 172 -75 49 0 75 81 55 175 -21 102 -77 131 -141 74z"/>
<path d="M2429 6837 c-15 -12 -40 -30 -58 -39 -17 -10 -34 -24 -37 -33 -24
-61 89 -171 169 -163 41 4 57 35 57 111 0 122 -63 182 -131 124z"/>
<path d="M3418 5390 c-67 -56 -97 -154 -60 -199 15 -18 30 -21 120 -25 101 -3
103 -3 123 23 37 47 11 130 -60 194 -50 45 -75 46 -123 7z"/>
<path d="M3024 5402 c-43 -28 -36 -102 17 -179 49 -71 88 -81 141 -34 71 62
101 175 56 205 -19 12 -31 13 -65 3 -33 -8 -51 -8 -76 1 -38 14 -57 15 -73 4z"/>
<path d="M3741 5376 c-33 -42 -17 -116 40 -180 52 -59 83 -61 135 -10 38 39
73 105 74 140 0 11 -6 29 -14 39 -11 16 -29 18 -120 20 -66 1 -110 -3 -115 -9z"/>
<path d="M1391 4047 c-42 -109 0 -257 72 -257 13 0 37 12 52 27 15 16 48 39
74 53 39 21 46 30 49 59 6 61 -82 128 -184 138 -50 5 -54 4 -63 -20z"/>
<path d="M1585 3693 c-65 -16 -73 -86 -22 -184 52 -101 143 -130 161 -52 4 15
28 47 53 70 39 37 44 47 38 70 -10 42 -43 72 -99 88 -49 15 -92 17 -131 8z"/>
<path d="M4410 3960 c-26 -26 -34 -61 -26 -123 10 -87 64 -130 119 -94 12 8
39 19 60 26 26 9 39 20 43 37 15 58 -11 100 -95 156 -34 24 -76 23 -101 -2z"/>
<path d="M4578 3618 c-27 -50 -5 -188 32 -208 30 -16 66 -12 86 11 10 12 36
30 56 40 63 32 61 83 -5 132 -67 50 -148 62 -169 25z"/>
<path d="M4930 2453 c-95 -103 -245 -287 -325 -398 -75 -104 -169 -287 -186
-360 -16 -73 -14 -192 4 -256 18 -61 79 -139 129 -165 76 -39 208 -34 297 10
44 23 123 98 149 141 12 19 13 19 34 -10 92 -123 170 -169 288 -169 130 -1
226 62 265 173 25 71 31 203 11 281 -31 123 -137 307 -285 495 -106 136 -283
335 -297 335 -7 0 -45 -35 -84 -77z"/>
<path d="M3930 1918 c-12 -25 -25 -34 -60 -43 -25 -6 -72 -25 -104 -42 l-60
-30 40 -13 c21 -6 77 -34 124 -60 47 -27 90 -50 95 -52 6 -1 29 5 53 15 l44
17 -31 36 c-37 41 -38 55 -9 94 l22 30 -39 40 c-22 22 -44 40 -50 40 -5 0 -17
-15 -25 -32z"/>
<path d="M3558 1698 l-23 -23 65 -7 c48 -4 90 -18 160 -52 106 -51 172 -64
238 -47 41 12 82 41 82 60 0 16 -29 21 -58 10 -52 -21 -152 -14 -222 15 -173
72 -208 78 -242 44z"/>
<path d="M432 8710 c-73 -17 -112 -80 -112 -179 0 -62 5 -79 40 -147 47 -91
126 -198 218 -295 l67 -71 53 58 c166 183 262 339 270 440 15 181 -153 262
-289 139 l-40 -36 -44 40 c-35 32 -102 64 -125 60 -3 -1 -20 -5 -38 -9z"/>
<path d="M6168 2478 c-242 -273 -302 -448 -194 -565 28 -31 40 -37 88 -41 61
-5 95 8 153 60 l36 31 37 -35 c50 -48 72 -58 130 -58 35 0 59 7 83 23 50 34
64 69 64 162 -1 70 -5 88 -32 140 -65 124 -249 355 -283 355 -10 0 -47 -32
-82 -72z"/>
<path d="M6166 1705 c-61 -23 -102 -60 -130 -117 -24 -49 -26 -61 -26 -198 0
-81 -3 -243 -7 -360 -6 -207 -7 -214 -30 -233 -32 -29 -31 -74 3 -87 42 -16
150 -12 168 6 24 24 19 53 -15 85 l-31 29 4 342 c3 307 5 346 21 376 26 47 72
72 133 72 95 0 151 -61 162 -177 7 -63 9 -68 36 -78 24 -8 31 -6 48 15 17 21
19 33 13 85 -17 155 -104 244 -245 251 -41 3 -79 -2 -104 -11z"/>
</g>
</svg>
