<svg version="1.0" xmlns="http://www.w3.org/2000/svg"
 width="691.000000pt" height="1056.000000pt" viewBox="0 0 691.000000 1056.000000"
 preserveAspectRatio="xMidYMid meet">
<g transform="translate(0.000000,1056.000000) scale(0.100000,-0.100000)"
fill="#000000" stroke="none">
<path d="M412 9898 c-7 -7 -12 -25 -12 -41 0 -23 7 -31 34 -42 19 -8 37 -23
40 -32 9 -27 -11 -744 -21 -753 -4 -5 -19 -10 -33 -12 -30 -4 -50 -50 -34 -76
9 -14 31 -17 123 -20 l111 -3 10 26 c15 39 13 43 -30 70 -40 25 -40 25 -40 90
0 40 8 85 21 119 26 71 107 182 121 168 13 -13 118 -317 118 -342 0 -9 -9 -29
-20 -43 -23 -29 -26 -72 -6 -80 26 -10 184 -20 210 -13 22 5 26 12 26 45 0 39
-11 51 -49 51 -32 0 -51 34 -100 181 -27 79 -61 174 -75 212 -41 106 -34 159
34 247 14 19 38 56 53 81 29 51 83 84 123 76 22 -4 24 -1 24 32 0 55 -11 61
-125 61 -123 0 -144 -10 -127 -60 7 -18 12 -43 12 -55 0 -21 -182 -313 -204
-327 -6 -4 -14 -2 -18 5 -9 14 -8 160 1 261 6 64 8 71 36 86 35 19 44 59 20
84 -13 13 -37 16 -114 16 -62 0 -101 -4 -109 -12z"/>
<path d="M1197 9576 c-11 -12 -15 -99 -21 -478 -3 -254 -22 -1367 -41 -2473
-19 -1105 -46 -2687 -59 -3515 -14 -828 -28 -1617 -31 -1755 -6 -213 -4 -253
8 -270 15 -19 31 -20 424 -27 224 -4 804 -14 1288 -22 819 -15 1971 -31 2633
-38 228 -2 284 0 291 10 5 8 11 134 15 280 12 457 67 3741 65 3853 -1 58 0
110 3 115 3 5 9 277 12 604 4 327 11 802 17 1055 5 253 14 663 19 910 19 859
24 1663 12 1678 -10 11 -77 15 -335 21 -550 11 -4055 66 -4234 66 -31 0 -57
-6 -66 -14z m1250 -59 c19 -7 40 -23 47 -37 7 -14 22 -43 33 -65 28 -55 187
-410 219 -489 l25 -64 -30 -78 c-43 -116 -44 -121 -27 -156 9 -17 16 -40 16
-51 0 -11 -45 -104 -100 -207 -55 -104 -100 -200 -100 -214 0 -26 35 -58 98
-90 37 -19 40 -39 15 -109 -14 -39 -15 -51 -5 -68 7 -11 17 -48 22 -82 5 -34
12 -75 16 -90 4 -19 2 -33 -9 -45 -8 -9 -18 -27 -21 -39 -15 -47 -31 -46 -83
7 -44 44 -55 50 -92 50 -58 0 -107 -23 -131 -62 -18 -28 -20 -43 -15 -98 12
-131 14 -121 -30 -144 -24 -12 -59 -21 -89 -21 l-48 0 -40 65 c-27 43 -48 96
-62 155 -19 75 -27 93 -49 105 -24 13 -28 13 -54 -6 -15 -11 -34 -34 -41 -50
-34 -76 -50 -81 -88 -25 -14 22 -34 43 -43 46 -9 2 -25 24 -36 46 -22 46 -102
109 -139 109 -12 0 -38 -11 -58 -25 -20 -14 -46 -25 -57 -25 -29 0 -26 -18 4
-32 30 -13 41 -43 24 -64 -18 -22 -52 -13 -67 19 l-14 28 -38 -40 c-48 -49
-60 -72 -54 -98 3 -11 -6 -49 -20 -85 l-26 -64 50 -150 c28 -82 49 -160 48
-174 -3 -21 -16 -30 -83 -57 -132 -54 -120 -90 -117 352 1 209 9 771 17 1249
11 669 18 872 27 884 12 13 79 14 591 8 405 -5 589 -11 614 -19z m1608 -3
c517 -9 942 -18 945 -21 10 -10 -114 -235 -145 -262 -21 -18 -58 -34 -105 -46
-107 -26 -140 -59 -180 -183 -18 -53 -39 -105 -49 -116 -15 -17 -16 -13 -21
66 -5 82 -7 86 -47 132 -23 26 -56 75 -74 110 l-33 63 -34 -24 c-20 -13 -86
-39 -147 -58 -116 -36 -155 -62 -155 -103 0 -17 -6 -22 -25 -22 -25 0 -25 0
-22 78 l4 77 -60 88 c-33 48 -63 87 -68 87 -4 0 -44 -14 -88 -32 -100 -39
-157 -85 -187 -155 -22 -49 -26 -53 -59 -53 -24 0 -35 5 -35 15 0 8 4 15 9 15
5 0 17 19 26 43 27 72 10 97 -140 195 l-89 59 -105 -34 c-181 -59 -195 -71
-209 -178 -7 -54 -7 -55 -29 -40 -12 8 -39 53 -62 99 -22 47 -50 91 -63 99
-13 9 -51 22 -85 31 -90 22 -164 62 -156 82 6 15 31 16 277 10 149 -3 694 -13
1211 -22z m1675 -52 c0 -10 -11 -29 -25 -42 -27 -25 -33 -50 -12 -50 6 1 28
14 47 30 38 33 65 38 74 14 9 -24 -10 -52 -105 -149 -48 -50 -90 -102 -93
-115 -2 -14 -8 -302 -11 -640 -4 -338 -9 -640 -11 -670 -2 -30 -5 -176 -7
-323 -2 -248 -3 -270 -20 -282 -11 -8 -26 -11 -34 -8 -14 6 -15 74 -9 647 10
1057 17 1366 31 1366 12 0 125 101 125 113 0 4 -9 7 -20 7 -13 0 -20 -7 -20
-19 0 -13 -8 -21 -22 -23 -13 -2 -27 -13 -33 -25 -5 -13 -14 -23 -19 -23 -5 0
-22 -14 -38 -32 -15 -17 -29 -32 -30 -32 -1 -1 -4 -82 -7 -181 l-6 -180 -25
-3 c-32 -3 -139 66 -178 116 -45 57 -79 132 -93 203 -23 125 -18 121 -76 62
-87 -89 -175 -284 -212 -471 -40 -202 -37 -319 15 -481 53 -165 178 -376 243
-411 16 -8 21 1 41 76 27 103 66 183 120 246 41 47 123 108 147 108 11 0 13
-81 12 -442 -1 -244 -4 -474 -8 -513 l-6 -70 -39 -3 c-22 -2 -74 6 -115 17
-42 11 -141 32 -221 46 -205 37 -200 36 -200 46 0 5 19 33 43 62 86 106 113
224 83 367 -11 56 -43 130 -125 295 -61 121 -124 256 -141 299 l-31 79 11 121
c6 67 18 157 26 201 22 113 73 287 91 307 8 9 30 50 47 90 34 79 104 203 143
256 l24 32 335 0 c317 0 334 -1 334 -18z m-3069 -31 c139 -47 136 -45 190
-152 40 -80 46 -98 33 -103 -27 -10 -53 13 -80 70 -20 42 -38 63 -72 85 -25
16 -51 29 -57 29 -17 0 -109 50 -117 64 -12 18 -9 36 5 36 7 0 51 -13 98 -29z
m660 -29 c163 -96 207 -181 118 -225 -29 -14 -42 -15 -67 -6 -20 7 -32 18 -32
29 0 26 14 32 36 15 26 -20 41 -18 54 4 23 44 -31 79 -87 56 -32 -14 -43 -32
-43 -72 0 -25 -1 -26 -57 -19 -67 8 -75 14 -80 58 -5 51 -28 78 -67 78 -41 0
-65 -24 -49 -48 8 -12 23 -16 52 -15 23 1 41 -1 41 -5 0 -10 -39 -72 -45 -72
-2 0 -22 7 -44 16 -41 16 -51 34 -51 90 0 44 16 59 101 98 122 55 154 58 220
18z m537 -102 c12 -16 22 -34 22 -40 0 -5 13 -21 28 -35 26 -23 28 -31 27 -88
-3 -134 -5 -147 -20 -147 -25 0 -35 36 -35 134 0 75 -3 96 -14 96 -7 0 -21 11
-30 25 -33 50 -140 16 -176 -55 -12 -23 -30 -45 -41 -47 -10 -3 -19 -9 -19
-14 0 -5 -5 -9 -11 -9 -8 0 -8 4 -1 13 5 6 13 27 17 45 10 49 52 92 120 123
79 37 106 37 133 -1z m1281 -256 c1 -58 21 -130 56 -206 42 -90 34 -141 -39
-242 l-19 -27 36 -37 c68 -71 72 -113 21 -274 -19 -62 -40 -147 -46 -188 -14
-105 -18 -111 -35 -71 -37 89 -24 231 33 349 14 29 24 56 22 61 -2 5 -32 29
-67 53 -36 23 -74 55 -84 70 -19 26 -19 26 2 56 12 17 50 54 86 82 36 29 65
58 65 66 0 8 -13 38 -30 67 -62 110 -80 279 -38 347 l22 35 7 -45 c4 -25 8
-68 8 -96z m-804 110 c61 -28 125 -127 125 -191 0 -65 -9 -82 -49 -93 -20 -5
-44 -10 -53 -10 -26 0 -58 36 -58 65 0 31 28 45 42 22 11 -21 47 -22 55 -2 6
18 -23 55 -44 55 -33 0 -73 -31 -73 -56 0 -57 -41 -82 -84 -51 -17 12 -17 17
-5 50 12 34 11 39 -8 64 -15 21 -29 28 -54 28 -30 0 -34 -4 -37 -28 -4 -32 20
-46 44 -27 21 19 43 -3 28 -28 -31 -48 -97 -34 -130 29 -13 26 -13 36 -3 60
14 36 62 77 97 85 15 3 50 14 77 24 62 23 88 24 130 4z m485 -14 c0 -15 -14
-27 -51 -44 -73 -34 -96 -60 -120 -138 -23 -70 -56 -118 -84 -118 -26 0 -28
25 -6 69 12 22 30 65 42 96 11 30 31 68 45 84 51 60 174 96 174 51z m240 -202
c12 -51 31 -110 41 -130 11 -21 19 -44 19 -52 0 -7 -36 -50 -80 -93 -88 -87
-96 -108 -57 -156 12 -15 45 -42 72 -60 60 -39 67 -70 36 -156 -11 -31 -25
-90 -31 -131 -6 -40 -12 -75 -14 -77 -6 -6 -40 46 -69 103 -82 162 -95 451
-31 657 22 69 78 187 89 187 1 0 13 -42 25 -92z m-1826 -69 c180 -37 438 -137
453 -175 3 -8 -6 -41 -20 -72 -38 -84 -57 -175 -57 -276 0 -104 12 -156 80
-334 27 -74 50 -147 50 -164 0 -28 -2 -30 -27 -24 -66 15 -142 18 -176 7 -48
-16 -111 -89 -127 -146 -15 -55 -7 -133 21 -186 21 -41 25 -74 10 -84 -6 -3
-15 4 -22 16 -11 22 -12 21 -44 -16 l-32 -39 -15 28 -15 28 -22 -31 c-28 -40
-39 -39 -43 2 -4 43 -24 41 -51 -8 -14 -25 -31 -41 -45 -43 -19 -3 -22 1 -22
32 l0 36 -33 -36 c-31 -34 -34 -35 -50 -20 -15 15 -19 15 -46 1 -44 -22 -54
-20 -48 14 8 40 0 43 -33 10 -35 -35 -77 -41 -60 -8 6 11 10 27 8 35 -2 13
-10 11 -41 -10 -45 -31 -41 -30 -62 -10 -13 14 -21 15 -41 5 -45 -20 -56 -15
-48 24 3 19 4 35 1 35 -3 0 -28 -15 -56 -34 -67 -45 -117 -53 -174 -28 -59 26
-87 72 -87 143 0 67 18 95 70 109 102 28 177 -74 98 -133 -23 -17 -31 -19 -53
-9 -30 14 -33 42 -5 49 22 6 27 29 8 36 -18 6 -46 -10 -59 -34 -15 -28 4 -73
37 -88 66 -30 121 -2 194 98 28 38 66 79 85 91 44 27 45 52 3 71 -26 11 -33
20 -33 43 0 52 24 54 126 13 50 -21 94 -36 96 -33 3 3 1 17 -4 32 -7 22 -19
30 -58 40 -48 12 -67 27 -142 119 -14 15 -23 40 -23 59 0 63 -18 93 -58 101
-41 7 -72 30 -72 52 0 21 126 277 173 351 l40 64 -22 42 c-11 24 -21 47 -21
52 -1 5 12 51 27 101 l28 93 70 15 c129 27 209 26 369 -6z m518 -214 c-2 -11
-6 -32 -9 -47 -6 -34 9 -36 30 -5 24 35 29 14 13 -51 -31 -116 -22 -206 54
-542 28 -125 36 -271 18 -329 -22 -72 -38 -64 -31 16 7 91 -10 213 -58 406
-45 186 -57 291 -40 368 21 94 22 99 12 99 -14 0 -40 -74 -47 -133 -9 -74 10
-202 56 -386 59 -232 53 -250 -20 -64 -100 253 -109 458 -28 644 14 35 26 49
37 47 10 -2 15 -12 13 -23z m112 -61 c-1 -10 -7 -53 -13 -94 -17 -107 -6 -197
52 -420 45 -176 50 -206 51 -310 1 -98 -3 -123 -22 -171 -30 -75 -90 -142
-157 -175 -48 -23 -64 -26 -129 -22 -63 3 -81 8 -117 33 -23 17 -53 50 -66 75
-21 38 -24 56 -21 117 5 112 55 165 161 171 72 4 114 -16 147 -70 56 -93 -18
-222 -116 -204 -61 12 -98 100 -58 140 22 23 40 20 63 -10 22 -27 41 -25 41 6
0 24 -46 60 -77 60 -14 0 -37 -13 -54 -29 -23 -24 -29 -38 -29 -73 0 -87 65
-148 158 -148 97 0 179 65 206 163 36 127 30 210 -29 457 -47 196 -60 310 -46
404 6 40 15 86 21 100 11 30 36 30 34 0z m71 -169 c2 -176 17 -267 66 -416 44
-132 50 -251 19 -363 -15 -54 -31 -87 -45 -98 l-22 -17 11 47 c6 26 11 115 10
197 0 147 -1 154 -48 330 -41 155 -48 194 -49 280 -1 115 17 208 40 203 13 -2
16 -30 18 -163z m68 8 c6 -131 27 -261 54 -323 8 -19 25 -77 39 -129 27 -104
32 -242 13 -333 -7 -29 -11 -53 -10 -53 2 0 -15 -19 -37 -42 -21 -24 -42 -43
-45 -43 -4 0 -7 11 -7 25 0 14 4 25 10 25 13 0 38 90 46 164 8 84 -9 195 -58
371 -40 141 -43 158 -43 280 0 128 7 185 24 185 4 0 11 -57 14 -127z m78 -8
c7 -133 27 -233 79 -399 61 -195 63 -333 5 -445 -22 -44 -85 -115 -85 -95 0
17 28 99 51 149 20 42 23 65 22 150 -1 101 -14 161 -77 372 -49 162 -60 389
-18 381 14 -3 18 -22 23 -113z m61 83 c12 -10 17 -39 21 -118 4 -94 11 -124
66 -293 34 -104 66 -220 70 -258 18 -136 -24 -295 -86 -332 -44 -25 -57 -14
-32 26 35 58 59 154 59 241 0 84 -15 153 -83 397 -19 70 -41 170 -47 223 -14
121 -8 145 32 114z m76 -20 c7 -7 12 -30 12 -52 0 -59 23 -147 90 -351 32 -99
64 -211 71 -249 15 -86 8 -179 -19 -238 -22 -51 -87 -128 -108 -128 -20 0 -17
28 6 57 29 38 60 129 67 199 8 83 -9 164 -78 383 -84 262 -103 441 -41 379z
m86 -69 c9 -76 35 -160 98 -319 67 -168 88 -254 88 -362 0 -123 -15 -174 -64
-225 -23 -24 -49 -43 -59 -43 -15 0 -14 6 9 53 38 73 54 140 54 222 0 95 -18
170 -84 365 -53 152 -94 339 -80 361 3 5 11 9 18 9 9 0 16 -21 20 -61z m78 21
c4 -14 20 -70 34 -125 15 -55 45 -143 66 -195 83 -201 100 -260 105 -361 7
-132 -8 -193 -59 -241 -48 -46 -71 -50 -62 -11 4 15 13 34 20 41 25 25 39 97
38 197 -1 121 -17 184 -91 365 -85 207 -118 366 -76 358 10 -2 21 -14 25 -28z
m347 -70 c40 -101 86 -199 175 -370 76 -145 91 -197 91 -305 0 -108 -16 -143
-96 -222 -61 -60 -89 -57 -42 4 59 76 81 175 63 288 -11 71 -55 188 -147 390
-100 220 -132 326 -92 313 6 -2 28 -46 48 -98z m-242 5 c17 -102 41 -175 115
-353 109 -262 115 -392 22 -500 -42 -50 -54 -52 -54 -12 0 17 4 30 9 30 23 0
46 96 45 185 -1 112 -22 191 -108 402 -54 132 -96 274 -96 323 0 6 12 10 27 8
25 -3 28 -8 40 -83z m67 73 c2 -7 9 -42 15 -77 14 -75 58 -191 77 -207 8 -6
14 -20 14 -31 0 -11 22 -68 50 -125 92 -193 108 -313 56 -417 -23 -44 -102
-128 -112 -118 -2 2 10 34 27 71 24 52 32 85 36 149 7 102 -14 182 -90 358
-89 205 -125 329 -111 386 6 24 32 32 38 11z m70 6 c10 -4 16 -18 16 -42 0
-22 38 -123 109 -286 123 -285 139 -329 147 -406 11 -102 -32 -192 -122 -256
-39 -28 -50 -32 -52 -19 -2 8 8 29 23 46 116 139 101 356 -42 601 -46 79 -103
254 -103 317 0 28 2 51 4 51 2 0 11 -3 20 -6z m-2881 -788 c35 -33 36 -72 2
-88 -29 -13 -35 -42 -7 -34 82 24 89 20 159 -86 24 -37 48 -70 53 -73 16 -10
12 19 -10 66 -21 47 -26 114 -10 124 14 9 88 -35 121 -72 15 -15 29 -39 32
-53 3 -14 11 -40 18 -58 9 -22 10 -37 4 -48 -13 -20 -118 -65 -220 -93 -44
-13 -118 -36 -165 -53 -47 -17 -125 -44 -174 -61 l-88 -31 -19 23 c-24 30 -83
215 -75 236 3 8 16 19 28 24 32 12 49 -6 88 -90 23 -51 35 -68 43 -60 8 8 5
25 -10 62 -22 50 -22 50 -2 70 10 10 30 19 44 19 19 0 29 -10 47 -47 23 -48
48 -68 48 -39 0 9 -11 39 -25 66 -31 62 -31 74 1 94 41 27 65 17 107 -47 21
-32 42 -55 47 -52 16 10 12 20 -25 82 -19 32 -35 66 -35 75 0 10 -9 22 -20 28
-23 12 -70 78 -70 98 0 7 11 24 25 38 28 28 40 25 88 -20z m2792 -301 c266
-25 633 -82 675 -105 11 -6 20 -14 20 -19 0 -4 -48 -77 -107 -162 -280 -405
-405 -677 -523 -1134 -80 -310 -108 -505 -117 -801 -16 -582 107 -1110 389
-1667 33 -65 58 -124 55 -131 -6 -16 -72 -30 -89 -20 -6 4 -32 52 -58 108
-206 436 -314 791 -367 1194 -27 207 -24 632 5 847 33 246 94 519 160 715 61
181 148 408 182 471 29 54 27 79 -8 79 -78 0 -134 147 -81 214 42 53 109 69
190 44 64 -19 44 -38 -39 -38 -127 0 -149 -85 -52 -200 20 -25 21 -25 36 -5 8
11 38 58 65 105 28 47 82 128 120 182 85 119 98 146 79 158 -21 13 -149 40
-237 50 -43 5 -109 13 -148 19 -148 21 -200 24 -518 28 l-327 4 -53 -48 c-154
-144 -292 -248 -422 -322 -102 -57 -233 -108 -291 -113 -37 -3 -39 -2 -39 26
0 27 6 31 115 75 207 83 341 169 510 328 105 98 142 122 205 134 60 12 488 2
670 -16z m-1631 -77 c28 -44 102 -470 127 -733 17 -176 18 -756 1 -915 -33
-326 -93 -690 -147 -901 -14 -53 -25 -109 -25 -125 0 -17 -4 -34 -9 -40 -6 -5
-30 -67 -54 -139 -75 -220 -147 -404 -208 -536 -33 -69 -59 -132 -59 -141 0
-20 36 -25 210 -34 157 -8 171 -4 275 86 219 188 604 382 808 407 l47 6 0 -36
c0 -34 -1 -35 -52 -47 -250 -59 -581 -237 -788 -423 -62 -55 -112 -81 -141
-72 -11 4 -115 10 -232 15 -117 4 -220 11 -229 15 -10 4 -18 14 -18 23 0 8 25
70 56 136 169 361 312 789 389 1165 41 197 63 358 91 662 23 253 25 313 20
544 -3 143 -11 301 -16 350 -10 83 -96 568 -121 678 -9 36 -8 51 1 62 19 22
57 18 74 -7z m-785 -21 c33 -27 177 -368 255 -602 129 -387 172 -698 163
-1158 -8 -397 -49 -656 -163 -1027 -117 -379 -263 -681 -459 -945 -73 -99 -78
-110 -61 -128 14 -14 214 -49 466 -83 122 -16 708 -32 755 -20 15 4 36 17 48
30 12 13 58 54 102 91 215 183 379 282 568 345 107 35 131 31 125 -19 -3 -22
-15 -29 -108 -61 -222 -77 -373 -175 -595 -385 -85 -80 -98 -85 -238 -92 -236
-11 -626 22 -992 82 -226 38 -281 50 -290 66 -4 5 24 51 62 102 113 151 137
186 219 322 232 387 378 814 445 1310 29 216 37 627 15 834 -41 386 -128 683
-327 1121 -49 108 -89 206 -89 219 0 22 3 23 42 17 23 -4 49 -12 57 -19z
m2051 -64 c15 -61 54 -103 95 -103 58 0 115 67 115 135 0 20 4 26 18 23 13 -2
18 -15 20 -50 6 -88 -59 -168 -136 -168 -103 0 -189 120 -151 211 14 36 19 31
39 -48z m-102 55 c18 -18 14 -108 -8 -155 -51 -113 -175 -105 -251 15 -28 44
-36 81 -22 95 3 4 21 -15 39 -42 18 -27 45 -58 60 -70 30 -24 81 -27 108 -8
19 14 35 76 36 140 0 38 15 48 38 25z m432 -13 c0 -7 5 -37 11 -66 14 -66 46
-99 94 -99 44 0 68 23 100 95 14 33 30 55 39 55 24 0 20 -69 -7 -121 -31 -59
-77 -89 -135 -89 -39 0 -50 5 -81 38 -20 21 -42 57 -49 79 -13 44 -16 106 -5
116 12 12 33 7 33 -8z m-2651 -77 c9 -26 9 -35 -1 -41 -7 -4 -37 -22 -67 -40
-56 -33 -76 -61 -107 -150 -19 -56 -53 -82 -121 -92 -25 -3 -46 -5 -48 -3 -2
2 5 34 17 72 24 80 18 94 -35 77 -45 -15 -103 -78 -112 -122 -15 -70 -71 -146
-92 -125 -3 3 -8 37 -11 76 l-5 71 -38 -6 c-35 -6 -39 -5 -39 15 0 39 21 62
83 90 73 33 536 207 559 209 3 1 11 -14 17 -31z m1905 -61 c22 -28 30 -50 34
-91 6 -70 -1 -97 -33 -128 -46 -46 -125 -43 -192 8 -26 20 -33 32 -33 60 0 18
4 34 8 34 5 0 27 -20 49 -45 34 -38 46 -45 77 -45 76 0 97 75 56 194 -22 65
-12 69 34 13z m-1845 -41 c40 -57 113 -225 109 -251 -2 -15 -15 -23 -49 -30
-25 -5 -52 -15 -60 -21 -8 -6 -90 -41 -184 -78 -93 -37 -244 -103 -334 -147
-90 -43 -171 -79 -181 -79 -22 0 -30 20 -30 76 l0 44 65 0 c68 0 121 16 143
43 14 17 14 17 -41 58 -22 17 -25 24 -16 35 16 19 22 18 98 -12 53 -22 76 -25
126 -21 69 5 140 31 130 48 -4 6 -34 22 -66 36 -32 14 -59 29 -59 34 0 13 43
39 65 39 11 0 43 -9 71 -19 28 -11 87 -22 132 -25 67 -4 89 -1 122 15 22 11
40 21 40 24 0 11 -89 54 -125 61 -22 3 -46 11 -52 17 -20 15 -16 65 6 77 12 6
26 33 36 65 8 30 17 55 20 55 2 0 18 -20 34 -44z m2446 -122 c77 -4 146 -11
153 -17 16 -13 17 -12 -98 -282 -144 -341 -208 -527 -280 -818 -114 -464 -157
-876 -147 -1412 7 -369 25 -526 99 -850 16 -71 32 -160 35 -196 5 -63 4 -66
-17 -72 -30 -8 -56 7 -63 35 -24 98 -89 457 -102 558 -8 69 -20 162 -25 207
-13 105 -13 796 0 956 13 155 31 274 85 567 41 215 55 278 113 500 20 76 175
470 250 635 32 71 39 93 29 102 -8 9 -69 15 -182 19 l-170 6 -41 -29 c-23 -15
-73 -54 -110 -86 -175 -150 -405 -276 -640 -353 -120 -39 -146 -45 -159 -34
-19 16 -16 60 5 70 8 4 67 24 130 44 218 72 450 202 630 356 123 104 143 112
265 106 55 -3 163 -8 240 -12z m-869 -25 c14 -15 20 -40 22 -93 6 -115 -33
-168 -123 -168 -75 0 -124 42 -150 130 -9 32 18 29 36 -4 36 -68 112 -94 160
-55 23 18 24 25 22 115 -1 53 1 96 6 96 4 0 16 -9 27 -21z m1783 -150 c111
-128 221 -274 350 -461 97 -142 121 -184 121 -212 0 -73 -11 -70 -62 16 -134
223 -346 505 -496 660 -44 46 -45 48 -28 67 10 11 24 17 33 14 8 -3 45 -41 82
-84z m-38 -106 c58 -71 138 -170 177 -221 75 -98 264 -387 302 -462 37 -72 41
-230 5 -200 -7 6 -23 32 -35 58 -103 219 -372 603 -564 806 -58 60 -67 88 -44
126 26 41 50 24 159 -107z m-3173 72 c2 -14 -7 -26 -28 -38 -67 -40 -87 -92
-60 -161 13 -35 33 -33 91 10 l50 36 -26 -68 c-37 -99 -104 -249 -120 -270
-13 -18 -14 -17 -15 12 -1 96 -22 113 -87 73 -47 -29 -66 -71 -61 -131 7 -69
20 -78 69 -50 23 13 43 21 46 18 13 -12 -148 -267 -194 -309 -20 -17 -20 -17
-12 35 11 70 -1 85 -59 67 -56 -16 -92 -57 -103 -115 -15 -80 4 -100 66 -72
37 17 41 3 11 -40 -30 -44 -67 -67 -102 -64 -20 1 -24 -3 -24 -26 0 -29 -43
-78 -86 -101 -21 -10 -21 -9 -12 27 23 90 26 82 -31 82 -83 0 -145 -37 -169
-101 -15 -39 -3 -48 68 -51 l65 -3 -45 -27 c-25 -14 -61 -31 -81 -36 l-36 -10
-6 81 c-3 44 -1 91 4 104 10 26 169 135 223 153 28 9 38 20 52 56 9 24 23 44
31 44 8 0 17 8 20 18 2 9 19 26 36 37 18 11 41 38 52 59 24 46 63 90 89 99 14
5 17 14 13 34 -3 17 0 31 9 38 28 22 174 328 210 440 27 86 44 123 66 146 36
35 81 37 86 4z m2628 -30 c25 -10 35 -20 32 -32 -3 -15 -12 -17 -61 -15 -72 5
-99 -11 -122 -72 -24 -62 -14 -91 40 -124 24 -15 45 -33 45 -39 0 -22 -53 -14
-93 12 -111 76 -80 235 53 273 50 14 66 14 106 -3z m-2793 -37 c-12 -65 -65
-198 -139 -348 -40 -83 -74 -157 -74 -162 0 -6 -15 -26 -34 -44 -18 -18 -36
-46 -39 -63 -4 -20 -16 -35 -38 -46 -19 -11 -38 -32 -50 -61 -11 -25 -27 -44
-35 -44 -9 0 -18 -9 -21 -20 -3 -11 -10 -20 -15 -20 -5 0 -37 -23 -71 -52 -74
-62 -160 -118 -181 -118 -19 0 -30 53 -17 78 5 10 27 32 48 47 48 36 123 107
123 117 0 4 -6 8 -12 8 -7 0 -32 10 -55 22 -39 21 -43 27 -43 60 0 28 4 38 16
38 9 0 18 9 21 20 4 15 14 20 37 20 39 0 71 -22 92 -62 l16 -30 45 43 c47 46
103 133 103 160 0 11 -9 16 -30 16 -32 0 -90 45 -90 71 0 25 51 82 75 82 35 0
75 -44 75 -82 l0 -33 25 30 c35 41 93 161 104 214 7 32 6 40 -2 32 -16 -16
-69 -13 -95 5 -36 25 -25 55 28 81 77 36 85 35 84 -14 0 -24 3 -43 8 -43 4 0
19 24 32 54 26 58 46 75 88 76 26 0 27 -2 21 -32z m-353 -136 c0 -15 -11 -43
-24 -62 -13 -19 -51 -81 -84 -138 -130 -218 -236 -327 -257 -262 -13 41 7 83
74 154 37 41 96 123 135 190 72 121 94 146 133 146 18 0 23 -6 23 -28z m3566
-17 c29 -19 33 -42 18 -100 -9 -39 -22 -59 -59 -91 -35 -31 -46 -47 -43 -65 5
-40 43 -36 93 10 65 60 132 64 185 11 43 -43 15 -151 -49 -184 -28 -15 -71
-61 -71 -77 0 -4 7 -15 16 -23 18 -19 31 -13 101 40 112 86 230 5 175 -119
-16 -37 -30 -51 -69 -71 -59 -30 -77 -49 -68 -75 10 -32 35 -33 89 -2 76 44
128 45 171 5 24 -22 27 -31 23 -68 -7 -57 -31 -91 -89 -122 -50 -28 -69 -58
-50 -77 12 -12 51 -4 119 24 29 12 37 12 70 -6 53 -29 66 -62 48 -117 -8 -24
-23 -49 -33 -56 -10 -6 -48 -35 -85 -62 -78 -58 -98 -62 -98 -22 0 37 21 65
87 114 48 35 53 42 39 50 -12 7 -33 6 -61 -1 -76 -19 -113 -14 -146 18 -52 52
-35 120 46 186 57 47 60 70 8 61 -135 -24 -167 -17 -199 46 -25 47 -5 101 58
159 48 44 56 69 22 69 -8 0 -37 -11 -64 -25 -66 -34 -104 -32 -141 4 -24 25
-29 38 -29 79 0 43 5 56 35 92 19 23 35 50 35 61 0 24 -2 24 -50 -1 -22 -11
-59 -20 -85 -20 -38 0 -52 5 -77 30 -28 28 -30 36 -26 80 4 38 14 60 41 94 35
41 46 66 31 66 -4 0 -29 -13 -56 -30 -48 -30 -68 -37 -68 -22 0 32 27 90 57
123 35 38 38 40 82 33 25 -3 56 -12 67 -19z m-3742 -77 c-50 -100 -156 -234
-175 -222 -5 3 -9 40 -9 83 0 60 4 84 18 100 22 27 140 90 170 91 l22 0 -26
-52z m3204 -90 c7 -7 12 -20 12 -30 0 -15 -9 -18 -52 -18 -68 -1 -135 -30
-148 -66 -15 -39 22 -111 78 -147 23 -16 42 -35 42 -43 0 -39 -126 6 -164 59
-16 22 -21 44 -21 90 0 75 24 114 87 146 48 24 146 29 166 9z m329 -180 c150
-160 359 -505 463 -767 22 -57 50 -121 61 -143 l21 -41 -26 -26 c-16 -16 -29
-22 -35 -16 -5 6 -34 72 -65 147 -69 171 -148 329 -233 467 -79 127 -232 341
-249 348 -7 2 -15 11 -18 19 -7 17 10 64 22 64 5 0 31 -24 59 -52z m-853 -98
c13 -12 -4 -69 -23 -79 -16 -9 -691 10 -868 25 l-73 6 0 35 0 34 478 -6 c262
-4 481 -11 486 -15z m-201 -247 l157 -6 0 -47 c0 -46 -24 -133 -43 -157 -19
-25 -843 -7 -874 18 -9 8 -13 40 -13 105 l0 94 308 0 c169 0 378 -3 465 -7z
m-156 -261 c133 -4 244 -9 246 -12 3 -3 1 -30 -4 -60 -4 -30 -19 -142 -33
-248 -14 -109 -31 -201 -38 -209 -12 -14 -49 -15 -343 -9 -354 8 -499 16 -511
29 -4 4 7 117 25 250 27 195 36 245 51 258 20 17 9 17 607 1z m-2067 -279 c72
-182 128 -297 213 -438 74 -123 225 -342 247 -358 25 -18 31 -34 24 -62 -11
-46 -39 -29 -123 75 -176 219 -305 450 -441 794 l-44 109 23 18 c13 11 27 19
31 19 5 0 36 -71 70 -157z m-180 60 c0 -32 -39 -83 -85 -111 -25 -15 -45 -35
-45 -44 0 -21 8 -22 81 -8 156 30 204 -103 75 -206 -34 -27 -46 -57 -28 -67 4
-3 34 2 68 11 57 15 62 15 100 -4 77 -38 77 -128 0 -202 -74 -70 -57 -93 34
-47 62 32 91 31 129 0 46 -39 57 -84 33 -137 -11 -24 -31 -54 -46 -67 -28 -26
-34 -51 -13 -51 7 0 30 9 52 20 43 22 105 26 136 10 24 -13 49 -61 49 -95 0
-30 -31 -95 -54 -114 -21 -17 -21 -41 0 -41 9 0 27 9 41 20 35 27 53 25 53 -5
0 -38 -24 -89 -54 -112 -20 -16 -35 -20 -73 -15 -61 6 -82 17 -94 49 -17 45 7
101 68 159 48 46 53 55 43 73 -17 32 -45 25 -100 -24 -56 -49 -89 -56 -140
-30 -41 21 -60 53 -60 101 0 50 16 72 85 117 41 27 50 37 50 62 0 45 -29 43
-96 -4 -45 -31 -67 -41 -98 -41 -80 0 -119 39 -108 107 9 52 34 83 98 118 57
33 72 61 44 85 -14 12 -25 9 -78 -18 -69 -36 -104 -39 -148 -17 -36 19 -52 57
-43 99 9 48 29 72 90 111 44 28 55 40 52 58 -4 29 -37 33 -79 11 -43 -22 -98
-21 -133 1 -43 29 -49 49 -31 104 13 41 24 53 83 92 108 71 142 83 142 52z
m4280 -282 l0 -100 -32 -22 c-20 -14 -28 -16 -20 -7 7 9 14 36 15 60 l2 43
-62 -1 c-40 -1 -71 -7 -88 -18 -30 -20 -55 -71 -55 -114 l0 -29 62 9 c33 4 62
7 64 5 9 -8 -57 -65 -91 -78 -28 -10 -50 -30 -75 -65 -19 -27 -50 -68 -69 -89
l-33 -40 7 55 c4 30 8 64 9 75 3 52 -125 7 -157 -55 -17 -33 -19 -111 -3 -127
3 -4 31 4 62 16 30 13 58 21 61 18 3 -3 -4 -19 -16 -35 -12 -17 -21 -35 -21
-42 0 -6 -13 -25 -29 -41 -16 -16 -44 -66 -63 -112 -18 -45 -59 -135 -91 -201
-32 -65 -63 -142 -69 -170 -13 -65 -31 -99 -64 -125 -42 -33 -57 -28 -37 14
14 30 15 42 4 90 -15 68 -30 71 -94 14 l-46 -40 -7 27 c-9 34 0 59 87 244 83
177 202 383 288 497 78 103 278 297 364 352 51 33 158 83 195 90 1 1 2 -44 2
-98z m-2247 -72 c235 -7 377 -14 385 -21 9 -8 12 -38 10 -107 l-3 -96 -295 -3
c-308 -3 -609 5 -629 17 -14 9 19 182 39 206 15 18 12 18 493 4z m-2195 -262
c182 -329 387 -621 541 -772 28 -27 51 -58 51 -68 0 -19 -27 -77 -36 -77 -11
0 -124 105 -124 116 0 6 -10 19 -21 30 -64 57 -335 441 -474 670 -60 98 -65
111 -65 164 0 82 9 123 25 110 7 -6 53 -84 103 -173z m4452 127 c0 -38 1 -37
-120 -144 -34 -30 -76 -74 -93 -97 -18 -23 -38 -43 -44 -43 -7 0 -19 -10 -26
-22 -8 -13 -37 -60 -66 -106 -56 -89 -91 -163 -91 -193 0 -14 7 -19 29 -19 35
0 81 -35 81 -61 0 -11 -7 -34 -16 -51 -14 -27 -19 -30 -51 -25 -49 8 -63 23
-63 70 0 36 -2 39 -14 27 -14 -15 -106 -213 -106 -228 0 -16 -46 -52 -70 -54
-19 -2 -26 2 -28 18 -5 33 85 266 160 414 37 74 68 140 68 147 0 6 4 13 8 15
4 2 68 73 142 158 164 188 156 180 170 180 6 0 28 11 48 25 20 14 47 25 59 25
20 0 23 -5 23 -36z m-4514 -302 c58 -107 147 -244 233 -361 121 -161 240 -301
257 -301 8 0 14 -8 14 -17 0 -9 14 -32 32 -50 28 -29 30 -35 20 -58 -23 -50
-41 -44 -121 41 -94 99 -231 275 -378 487 l-113 161 0 83 c0 98 10 101 56 15z
m2227 31 l417 -6 0 -39 0 -38 -182 1 c-101 1 -319 4 -486 8 -285 6 -305 7
-318 25 -34 47 -1 69 91 61 33 -3 248 -8 478 -12z m-909 -37 c79 -50 105 -122
72 -199 -32 -76 -111 -115 -195 -96 -92 20 -87 42 10 52 71 7 113 28 128 65
22 53 -5 97 -100 163 -20 14 -22 19 -10 33 19 23 35 20 95 -18z m3014 -36 c47
-34 48 -39 26 -81 -22 -44 -12 -57 18 -23 15 16 47 51 72 79 l45 50 11 -29
c13 -35 2 -73 -35 -122 -14 -18 -25 -40 -25 -48 0 -9 -7 -16 -15 -16 -8 0 -40
-44 -71 -97 -32 -54 -63 -108 -71 -120 -24 -40 -113 -80 -113 -51 0 22 57 134
109 216 28 43 51 84 51 90 0 7 -15 12 -36 12 -26 0 -43 8 -65 29 -16 16 -29
34 -29 39 0 13 69 102 79 102 4 0 27 -14 49 -30z m172 -231 c0 -33 -5 -69 -10
-79 -11 -20 -78 -63 -117 -75 -19 -5 -23 -3 -23 17 0 13 11 41 25 63 13 22 33
57 44 77 22 39 59 71 73 62 4 -3 8 -32 8 -65z m-3314 -114 c40 -26 58 -64 58
-120 0 -100 -55 -145 -176 -145 -77 0 -78 0 -78 26 0 25 1 26 49 19 62 -8 114
12 135 54 28 53 21 80 -34 131 -27 25 -50 50 -50 54 0 13 69 -1 96 -19z m3298
-57 c3 -13 6 -42 6 -65 l0 -43 -67 0 c-52 0 -77 -6 -107 -23 -22 -12 -41 -27
-43 -33 -2 -6 12 -21 32 -32 36 -22 46 -49 20 -58 -8 -4 -44 6 -80 20 -81 32
-148 34 -216 4 -59 -25 -54 -36 26 -65 56 -21 62 -37 23 -61 -26 -15 -31 -15
-95 8 -58 21 -85 25 -181 24 -62 -1 -115 -4 -119 -8 -4 -3 3 -19 14 -34 15
-19 42 -34 100 -52 l80 -25 -48 -93 -48 -93 -46 78 c-68 117 -107 232 -76 225
7 -2 21 4 30 12 9 8 50 27 91 42 122 44 436 178 559 238 63 31 120 56 126 56
7 0 15 -10 19 -22z m-4 -155 c3 -2 6 -41 8 -86 4 -90 -10 -126 -43 -113 -14 5
-17 14 -12 47 7 57 -8 93 -49 115 -18 10 -34 22 -34 25 0 22 110 32 130 12z
m-2118 -13 c43 -12 104 -77 113 -122 4 -16 5 -32 2 -35 -3 -3 -29 20 -58 51
-42 46 -58 56 -84 56 -67 0 -105 -71 -83 -157 5 -24 7 -51 4 -60 -7 -16 -9
-15 -26 7 -11 14 -24 48 -30 75 -17 80 14 154 73 180 39 17 43 17 89 5z
m-1362 -90 c16 -11 36 -40 46 -65 36 -95 -8 -168 -112 -188 -51 -10 -141 19
-122 39 4 3 33 7 66 8 75 2 109 23 118 73 6 30 3 39 -15 54 -11 9 -21 23 -21
31 0 8 -5 19 -11 25 -13 13 -5 43 12 43 6 0 24 -9 39 -20z m3388 -94 l3 -68
27 6 c15 4 34 8 42 9 22 3 25 -46 3 -65 -35 -29 -530 -229 -604 -243 -41 -8
-63 10 -57 47 2 16 15 27 52 39 26 10 57 26 68 36 21 19 58 85 58 104 0 6 7
26 16 45 17 35 70 67 133 78 33 6 33 5 29 -27 -3 -17 -11 -53 -18 -79 -8 -26
-11 -50 -8 -54 13 -12 80 19 113 51 22 22 39 54 50 92 18 63 50 105 75 101 11
-3 16 -19 18 -72z m-2276 -32 c27 -14 48 -45 62 -91 11 -35 -8 -28 -57 22 -54
54 -93 60 -134 19 -27 -27 -27 -42 -7 -169 6 -37 6 -39 -11 -25 -27 22 -55 90
-55 133 0 89 58 143 140 131 19 -3 47 -12 62 -20z m-951 -157 c47 -31 79 -98
79 -165 0 -45 -3 -53 -17 -50 -12 2 -21 21 -30 63 -14 64 -55 115 -92 115 -30
0 -75 -44 -101 -99 -30 -65 -50 -67 -50 -6 0 70 29 115 95 149 42 22 76 20
116 -7z m670 -15 c68 -44 124 -162 77 -162 -8 0 -22 16 -33 36 -35 65 -69 94
-109 94 -48 0 -86 -36 -86 -82 0 -18 -3 -50 -6 -70 -5 -28 -10 -35 -23 -30
-23 8 -31 23 -31 57 0 55 22 109 60 147 47 48 87 50 151 10z m2642 6 c4 -12 2
-223 -3 -468 -5 -245 -14 -796 -21 -1225 -7 -429 -16 -790 -20 -802 -10 -28
12 -27 -709 -13 l-485 9 -22 26 c-12 14 -27 41 -32 61 -6 20 -17 44 -24 53 -8
9 -63 130 -122 269 l-108 254 27 76 c38 107 42 146 20 187 -18 33 -18 34 10
75 15 23 54 96 86 163 33 67 71 143 86 170 25 44 25 49 10 71 -8 14 -39 37
-68 53 -30 16 -54 36 -56 47 -2 11 4 43 14 72 17 51 17 55 0 91 -9 20 -21 71
-26 112 -9 75 -9 77 23 123 l32 48 40 -41 c46 -48 70 -59 130 -59 87 0 148 93
123 188 -6 20 -11 51 -12 67 -1 29 2 31 87 59 68 23 92 27 110 19 33 -15 106
-159 119 -235 6 -35 17 -71 26 -80 35 -41 102 -5 126 67 8 22 21 41 29 43 8 2
40 -28 75 -70 75 -93 143 -155 177 -164 19 -5 35 -1 54 14 16 11 47 25 70 32
22 6 41 15 41 20 0 6 22 34 49 64 46 51 67 98 60 137 -4 22 11 67 27 80 17 14
18 62 2 92 -17 32 -89 239 -91 262 -1 14 12 27 48 47 62 34 91 36 98 6z
m-2973 -21 c54 -29 80 -75 80 -144 0 -83 -30 -79 -49 7 -11 50 -66 110 -101
110 -31 0 -79 -50 -98 -104 -9 -26 -21 -49 -27 -50 -5 0 -11 23 -13 52 -7 121
99 187 208 129z m2794 -59 c19 -30 76 -194 76 -218 0 -23 -34 -43 -59 -35 -11
3 -32 35 -49 74 -17 38 -36 72 -42 76 -22 13 -24 -6 -7 -54 23 -66 22 -77 -12
-91 -36 -15 -47 -9 -69 38 -9 19 -23 37 -29 40 -22 6 -15 -37 13 -85 26 -44
26 -45 8 -64 -11 -10 -34 -21 -51 -25 -29 -6 -34 -3 -50 26 -30 55 -65 92 -76
81 -9 -9 82 -169 123 -216 10 -11 23 -31 30 -44 11 -21 9 -27 -18 -53 l-30
-30 -46 42 c-25 23 -46 47 -46 53 0 6 12 24 28 40 l27 29 -37 -7 c-50 -9 -82
12 -137 88 -49 68 -61 64 -36 -14 21 -64 9 -105 -28 -93 -47 14 -87 56 -122
128 -39 82 -41 89 -21 105 15 13 129 56 251 96 39 12 120 42 180 65 120 47
183 68 202 69 7 1 19 -9 27 -21z m-4117 -720 c-4 -348 -10 -795 -14 -993 l-6
-359 -62 -61 c-34 -33 -77 -70 -94 -83 -17 -13 -31 -29 -31 -35 0 -6 -12 -22
-27 -34 -14 -13 -24 -26 -20 -29 3 -3 18 6 32 20 14 14 32 26 40 26 16 0 65
56 65 76 0 8 6 14 14 14 8 0 21 8 28 19 7 10 22 20 33 22 11 3 21 13 23 24 2
11 13 28 23 38 17 16 19 34 20 185 0 92 3 175 7 184 6 15 13 14 62 -10 127
-63 216 -183 244 -330 8 -40 16 -76 19 -79 10 -9 67 41 106 92 77 100 129 232
157 396 24 149 16 388 -20 523 -45 172 -137 328 -224 378 l-30 18 -16 -65
c-40 -158 -100 -260 -200 -335 -94 -71 -89 -104 -85 474 3 390 7 506 17 518
11 14 24 13 123 -8 61 -13 118 -28 127 -33 9 -5 69 -18 132 -30 128 -24 177
-38 186 -52 3 -5 -13 -30 -35 -55 -23 -26 -53 -72 -68 -103 -25 -50 -28 -66
-28 -161 1 -98 3 -111 39 -200 36 -91 186 -390 209 -418 6 -8 20 -46 31 -85
56 -194 -9 -504 -175 -833 -103 -205 -133 -249 -187 -264 -40 -11 -250 -11
-501 -1 -153 6 -155 6 -170 32 -9 14 -24 38 -34 52 -24 34 -17 47 87 144 46
43 89 89 96 103 10 19 15 157 21 575 5 302 13 730 19 950 9 353 13 401 27 413
48 35 47 56 40 -620z m2397 483 c4 -5 2 -21 -4 -35 -13 -34 -9 -33 34 10 39
39 60 38 50 -4 -4 -15 -4 -25 -1 -22 3 3 5 8 4 12 -2 8 71 48 86 48 5 0 6 -16
3 -35 -8 -43 2 -44 39 -5 40 42 59 40 51 -6 l-7 -36 45 27 c45 26 65 22 52
-11 -12 -30 4 -32 35 -3 17 16 40 29 51 29 16 0 18 -5 12 -35 -8 -45 3 -45 61
-1 57 44 118 55 169 31 130 -62 118 -265 -15 -265 -84 0 -133 92 -73 139 32
25 47 26 69 5 15 -15 15 -18 -5 -39 -22 -24 -18 -35 15 -35 59 0 63 85 4 115
-61 32 -126 4 -186 -82 -22 -32 -62 -77 -87 -100 -25 -23 -46 -46 -46 -51 0
-4 16 -16 35 -25 29 -14 35 -22 35 -47 0 -19 -6 -33 -16 -37 -20 -7 -115 21
-167 50 -32 18 -40 19 -47 7 -10 -16 4 -49 23 -54 86 -24 110 -40 157 -103 41
-55 50 -73 50 -107 0 -23 5 -47 12 -54 21 -21 -21 -26 -71 -8 -120 43 -198
-10 -157 -107 15 -37 43 -52 76 -42 30 9 24 23 -15 39 -39 16 -46 44 -19 70
20 21 24 20 94 -9 72 -30 82 -31 105 -5 10 11 28 20 39 20 25 0 66 -26 66 -43
0 -19 -129 -278 -173 -345 l-40 -63 18 -58 c21 -71 16 -104 -28 -186 -32 -59
-33 -60 -92 -73 -100 -21 -278 -9 -414 27 -113 31 -354 122 -388 146 -17 12
-16 16 6 67 45 102 63 173 68 265 7 118 -5 177 -73 364 -30 82 -54 161 -54
176 0 24 2 25 38 19 89 -17 110 -17 150 -6 126 33 185 187 126 328 -20 48 -18
62 9 62 14 0 32 12 45 30 26 35 42 38 49 10 7 -26 15 -25 43 5 29 30 40 24 40
-22 0 -35 0 -36 20 -18 11 10 20 23 20 28 0 15 41 57 56 57 7 0 15 -4 18 -9z
m-429 -58 c40 -20 83 -61 102 -97 18 -35 21 -128 4 -177 -51 -155 -297 -141
-318 19 -15 115 115 197 185 117 26 -31 29 -86 6 -109 -22 -23 -40 -20 -62 11
l-20 28 -7 -28 c-10 -38 13 -61 61 -61 106 0 114 162 12 224 -69 42 -183 17
-245 -53 -80 -91 -86 -277 -19 -551 50 -203 60 -291 46 -394 -13 -101 -29
-145 -48 -133 -11 6 -11 27 -1 115 16 132 2 280 -37 413 -43 144 -54 193 -60
283 -16 215 76 367 250 411 40 10 112 1 151 -18z m-1275 -8 c0 -3 -13 -23 -29
-46 -68 -94 -84 -231 -42 -369 13 -41 63 -163 111 -271 92 -203 114 -266 108
-314 -3 -25 -7 -20 -40 47 -21 41 -38 80 -38 86 0 6 -40 91 -88 189 -117 234
-144 304 -150 384 -5 77 15 157 52 207 34 46 116 108 116 87z m87 -61 c-21
-26 -37 -56 -37 -67 0 -11 -8 -26 -17 -33 -15 -11 -18 -30 -18 -131 0 -99 4
-128 23 -178 26 -68 71 -132 72 -102 0 10 -6 30 -14 45 -44 86 -69 210 -60
296 6 52 13 65 61 122 61 72 89 92 106 75 8 -8 2 -20 -21 -43 -42 -45 -63 -98
-69 -183 -8 -97 5 -147 96 -379 44 -111 84 -219 90 -241 13 -49 14 -145 2
-145 -16 0 -24 20 -47 110 -25 97 -114 312 -132 318 -19 6 -14 -25 14 -81 61
-119 118 -347 87 -347 -6 0 -20 28 -33 63 -12 34 -67 166 -121 292 -144 335
-161 421 -107 534 23 47 90 118 123 131 38 15 39 -9 2 -56z m273 -22 c-41 -65
-64 -176 -56 -273 8 -93 22 -142 96 -334 79 -202 110 -360 72 -360 -9 0 -24
38 -42 110 -15 61 -55 180 -88 265 -33 85 -68 182 -77 215 -25 88 -30 218 -10
285 9 30 16 61 17 68 1 6 5 12 10 12 4 0 27 14 50 30 22 17 45 30 49 30 5 0
-5 -21 -21 -48z m120 42 c0 -3 -17 -40 -37 -80 -30 -62 -37 -88 -41 -154 -6
-102 6 -158 80 -394 55 -175 87 -307 88 -363 0 -16 -6 -23 -19 -23 -15 0 -20
10 -25 53 -11 85 -34 162 -101 342 -73 197 -100 313 -91 389 11 82 38 147 82
193 36 38 64 54 64 37z m-206 -26 c-4 -13 -15 -34 -25 -48 -10 -14 -26 -54
-35 -89 -28 -111 -5 -230 91 -471 88 -220 118 -365 76 -365 -10 0 -20 27 -33
85 -23 106 -36 148 -110 335 -74 190 -88 243 -88 346 0 94 17 143 68 197 36
38 67 44 56 10z m306 17 c0 -3 -13 -29 -30 -58 -55 -98 -73 -222 -49 -339 6
-29 37 -134 69 -233 61 -189 86 -310 72 -359 -10 -36 -32 -47 -32 -16 0 54
-46 239 -100 399 -104 314 -105 428 -1 569 18 25 39 42 51 42 11 0 20 -2 20
-5z m48 -111 c-28 -60 -33 -82 -36 -165 -4 -91 -1 -107 51 -305 31 -115 61
-242 68 -283 13 -87 5 -181 -17 -181 -10 0 -14 12 -14 38 0 85 -33 242 -80
385 -63 194 -72 233 -72 338 0 116 21 178 81 238 41 41 46 44 49 25 2 -12 -12
-53 -30 -90z m132 99 c0 -3 -6 -14 -14 -22 -8 -9 -27 -59 -42 -111 -41 -139
-38 -223 15 -405 56 -190 71 -278 71 -406 0 -99 -2 -109 -19 -109 -16 0 -19
12 -24 123 -6 140 -21 218 -71 367 -48 147 -62 253 -46 364 12 83 15 91 62
147 44 53 68 72 68 52z m57 -45 c-3 -13 -15 -50 -28 -83 -17 -48 -22 -82 -22
-170 -1 -114 1 -125 66 -350 27 -95 31 -126 32 -230 0 -214 -29 -270 -38 -72
-6 141 -24 235 -75 397 -34 107 -37 124 -37 245 0 142 8 179 56 244 32 45 54
54 46 19z m46 -75 c-25 -116 -13 -277 36 -478 48 -198 60 -320 41 -430 -14
-80 -24 -96 -45 -74 -11 11 -11 33 -3 108 11 105 0 255 -27 351 -72 261 -77
284 -73 370 3 59 11 100 27 135 18 41 47 85 56 85 2 0 -4 -30 -12 -67z m140
-111 c-6 -117 8 -227 33 -259 13 -16 14 -9 8 57 -3 41 -4 73 -1 70 9 -9 84
-203 111 -290 35 -111 43 -222 22 -320 -17 -79 -78 -220 -96 -220 -14 0 -13 4
15 85 33 96 46 219 34 324 -9 76 -46 210 -69 250 -17 29 -11 -45 10 -121 49
-182 42 -383 -16 -462 -23 -32 -25 -13 -8 85 20 118 14 196 -31 389 -62 262
-72 398 -35 478 10 23 21 42 24 42 2 0 2 -49 -1 -108z m-1272 -296 c18 -71 6
-190 -26 -267 -54 -130 -52 -120 -30 -135 11 -8 45 -31 75 -51 85 -57 87 -59
65 -100 -10 -19 -47 -57 -82 -84 -35 -28 -67 -57 -70 -65 -3 -8 11 -51 32 -95
60 -127 71 -275 25 -331 l-18 -23 -6 50 c-17 125 -29 185 -54 255 -19 53 -26
96 -27 147 0 68 2 74 33 105 38 41 40 57 8 87 -34 32 -56 82 -56 125 0 19 18
92 40 162 28 89 42 152 47 215 5 77 8 87 19 71 7 -11 18 -40 25 -66z m92 -109
c73 -110 102 -251 94 -457 -7 -184 -48 -332 -115 -418 l-18 -24 -16 80 c-9 44
-28 108 -44 142 l-27 61 86 87 c48 48 87 92 87 97 0 6 -13 21 -30 35 -16 14
-30 32 -30 41 0 10 -15 26 -34 37 -19 11 -42 32 -51 46 -17 25 -16 29 10 99
16 44 29 102 32 150 3 42 9 77 13 77 5 0 24 -24 43 -53z m437 -787 c-12 -35
-34 -91 -49 -125 -25 -54 -35 -65 -77 -85 -56 -27 -139 -34 -139 -11 0 8 7 17
15 21 128 59 137 68 178 180 20 53 35 78 52 87 38 19 43 2 20 -67z m76 27 c-8
-19 -17 -55 -17 -79 -2 -41 3 -52 49 -108 28 -35 65 -90 82 -121 l31 -58 36
25 c20 13 68 34 107 45 164 48 206 77 206 144 0 25 4 33 14 29 21 -8 25 -38
15 -114 l-10 -70 44 -58 c24 -31 51 -71 60 -89 9 -17 21 -34 27 -38 5 -3 49
11 97 32 103 44 166 100 183 161 10 41 27 52 62 44 16 -4 16 -7 3 -39 -20 -47
-19 -98 2 -134 9 -16 59 -58 110 -94 51 -36 93 -70 93 -75 0 -16 26 -12 63 10
19 11 65 31 104 44 151 51 184 88 163 181 -5 22 -5 44 -1 48 18 18 41 -10 85
-103 26 -54 55 -105 64 -113 10 -8 46 -22 81 -31 70 -18 162 -64 169 -83 3
-10 -67 -13 -325 -13 -593 0 -2108 31 -2120 44 -7 7 57 128 110 208 56 84 77
99 177 124 78 19 115 50 134 114 23 79 58 154 84 182 32 35 39 29 18 -15z
m172 0 c12 -11 22 -29 22 -39 0 -29 -28 -33 -52 -8 -25 26 -41 15 -36 -26 3
-25 8 -29 36 -32 43 -4 61 11 68 60 7 43 27 58 64 48 23 -5 25 -11 25 -61 0
-70 16 -91 64 -87 26 2 37 8 39 22 6 30 -14 42 -43 26 -31 -16 -50 -2 -40 29
14 44 92 38 126 -9 40 -53 -24 -148 -113 -170 -24 -5 -56 -15 -73 -21 -16 -7
-46 -14 -66 -16 -31 -4 -39 0 -65 30 -50 60 -93 122 -102 147 -10 27 10 101
31 118 32 26 79 21 115 -11z m422 -116 c5 -11 10 -57 10 -104 0 -82 1 -84 37
-126 33 -39 40 -43 71 -37 47 7 97 43 122 88 12 21 27 38 35 38 7 0 22 3 32 6
11 4 14 3 6 -3 -6 -4 -23 -31 -37 -59 -14 -27 -33 -57 -43 -66 -23 -22 -160
-71 -173 -63 -6 4 -19 24 -31 46 -11 22 -31 49 -44 61 -24 20 -25 27 -25 130
0 88 3 108 15 108 8 0 19 -9 25 -19z m550 -196 c13 -15 10 -16 -29 -13 -33 2
-46 -1 -55 -14 -17 -28 4 -52 50 -56 42 -4 64 15 64 54 0 40 23 53 72 42 66
-16 73 -21 76 -66 3 -46 29 -72 72 -72 36 0 52 14 48 41 -3 21 -8 24 -40 23
-28 -1 -39 3 -43 17 -8 26 0 36 35 44 18 4 42 0 65 -10 31 -15 35 -22 35 -55
0 -56 -36 -93 -122 -126 -114 -43 -151 -43 -226 3 -107 66 -132 89 -132 128 0
48 16 86 34 79 8 -3 23 -1 33 4 19 11 41 3 63 -23z m540 -49 c34 -71 72 -103
155 -130 64 -21 100 -48 92 -70 -4 -9 -15 -16 -26 -16 -24 0 -190 58 -209 73
-15 12 -102 180 -102 197 0 5 14 10 30 10 27 0 33 -6 60 -64z"/>
<path d="M1919 9268 c-174 -203 -540 -641 -549 -658 -9 -17 -7 -27 9 -53 46
-72 559 -712 573 -715 16 -3 607 695 615 726 2 11 -97 145 -262 357 -277 354
-311 395 -330 395 -6 0 -31 -24 -56 -52z"/>
<path d="M2851 8810 c-35 -56 -37 -81 -11 -102 31 -25 55 -23 125 10 33 16 71
31 85 35 41 10 98 -9 169 -56 85 -57 164 -97 190 -97 42 0 28 20 -46 65 -43
26 -93 60 -111 76 -80 70 -160 90 -261 63 -76 -19 -97 -15 -110 18 -8 22 -9
22 -30 -12z"/>
<path d="M2960 8656 c-30 -20 -62 -39 -72 -42 -15 -5 -13 -10 18 -39 36 -34
36 -36 30 -89 -8 -60 8 -107 43 -126 17 -9 20 -6 23 22 3 32 4 33 68 42 45 6
75 5 97 -3 31 -12 36 -10 78 25 l46 37 -55 22 c-30 12 -90 43 -133 69 -44 25
-85 46 -91 46 -7 0 -12 5 -12 10 0 6 16 10 35 10 36 0 100 -27 144 -61 26 -21
51 -25 51 -9 0 5 -15 20 -34 32 -18 13 -51 36 -73 51 -64 44 -98 45 -163 3z"/>
<path d="M2832 8223 c-16 -6 3 -33 24 -33 24 0 35 -35 18 -58 -19 -28 -31 -28
-105 4 -69 28 -89 26 -89 -11 0 -19 5 -25 22 -25 13 0 46 -10 74 -21 56 -24
87 -21 125 10 18 14 24 29 24 59 0 62 -42 96 -93 75z"/>
<path d="M2735 7998 l-13 -33 76 -17 c100 -21 120 -29 217 -88 44 -27 108 -56
142 -66 59 -16 65 -16 107 0 59 23 86 57 86 110 0 101 -103 164 -165 101 -34
-33 -33 -79 0 -101 27 -18 47 -12 27 8 -15 15 -15 51 0 66 32 32 98 -10 98
-63 0 -50 -37 -75 -109 -75 -65 0 -90 12 -211 98 -89 65 -151 92 -207 92 -29
0 -36 -5 -48 -32z"/>
<path d="M3167 5448 c-47 -76 -67 -120 -67 -143 0 -28 60 -154 83 -173 11 -9
18 -7 34 11 33 37 83 133 83 160 0 14 -16 57 -36 96 -29 58 -40 71 -60 71 -14
0 -29 -9 -37 -22z"/>
<path d="M3454 5458 c-23 -31 -74 -140 -74 -158 0 -25 63 -152 84 -169 13 -11
19 -10 35 10 11 13 34 52 51 86 37 70 36 85 -13 178 -32 61 -63 80 -83 53z"/>
<path d="M3727 5435 c-37 -47 -67 -113 -67 -150 0 -36 29 -99 65 -140 l26 -30
20 25 c39 46 69 118 69 164 0 35 -8 56 -41 105 -22 33 -41 61 -42 61 -1 0 -15
-16 -30 -35z"/>
<path d="M5024 4386 c-50 -22 -74 -61 -74 -120 0 -29 6 -61 14 -71 12 -16 17
-17 43 -6 17 7 44 26 59 42 26 27 29 37 29 97 0 60 -2 67 -20 69 -11 2 -34 -4
-51 -11z"/>
<path d="M4928 2667 c-13 -10 -489 -573 -567 -669 -26 -33 -30 -69 -10 -97 8
-11 135 -173 283 -360 174 -221 275 -341 286 -341 11 0 119 121 292 328 323
386 318 380 318 402 0 18 -550 728 -575 742 -6 4 -19 2 -27 -5z"/>
<path d="M3633 2795 c-48 -20 -66 -56 -61 -115 6 -56 27 -86 75 -106 38 -16
73 -6 97 28 23 32 20 61 -9 88 -24 23 -50 21 -27 -2 15 -15 15 -51 0 -66 -20
-20 -48 -14 -79 18 -35 34 -33 61 7 98 19 17 37 22 75 22 65 0 96 -14 221 -99
99 -67 169 -101 209 -101 16 0 59 52 59 71 0 4 -27 9 -59 11 -50 3 -84 17
-219 86 -172 88 -217 99 -289 67z"/>
<path d="M3915 2228 c4 -12 8 -27 9 -32 2 -17 -125 -39 -160 -28 -27 8 -42 6
-83 -14 -28 -13 -51 -27 -51 -31 1 -21 21 -36 61 -43 24 -5 87 -33 139 -62
l95 -53 -41 -3 c-33 -2 -53 4 -100 32 -33 20 -68 36 -78 36 -17 0 -15 -5 13
-34 76 -79 187 -112 233 -69 13 11 40 33 62 47 l38 26 -25 9 c-38 15 -49 43
-42 109 6 49 4 61 -15 85 -12 15 -31 32 -42 38 -18 10 -19 8 -13 -13z"/>
<path d="M3482 1988 c3 -7 33 -29 68 -49 34 -19 80 -50 101 -68 101 -85 169
-103 284 -76 l76 18 21 -23 22 -23 23 27 c25 29 29 56 13 87 -16 28 -91 25
-159 -6 -96 -45 -139 -39 -242 31 -45 31 -100 65 -123 75 -48 22 -90 25 -84 7z"/>
<path d="M570 8599 c-85 -99 -159 -187 -164 -196 -5 -9 -4 -24 2 -37 12 -26
290 -380 301 -384 11 -4 331 375 331 391 0 11 -260 351 -299 390 -16 17 -24 9
-171 -164z"/>
<path d="M6034 2369 c-87 -104 -160 -198 -162 -209 -2 -13 44 -80 136 -198 77
-98 147 -184 156 -191 14 -12 20 -11 37 5 44 39 299 356 299 371 0 18 -5 25
-181 250 l-126 161 -159 -189z"/>
<path d="M5867 1644 c-9 -9 -9 -47 -1 -68 4 -9 18 -16 34 -16 15 0 34 -8 44
-19 21 -23 166 -455 166 -495 0 -20 -23 -67 -66 -135 -85 -136 -99 -151 -140
-151 -23 0 -37 -6 -44 -19 -14 -28 -13 -38 10 -61 17 -17 33 -20 99 -20 126 0
150 19 121 96 -9 23 -4 37 49 123 33 53 84 130 112 171 50 70 54 73 60 50 9
-32 11 -258 3 -300 -5 -22 -15 -35 -33 -41 -43 -17 -54 -54 -25 -83 12 -12 38
-16 114 -16 91 0 100 2 110 21 16 28 4 69 -19 69 -45 0 -46 12 -43 394 2 199
6 369 8 378 3 10 20 21 37 26 29 8 32 12 32 48 l0 39 -94 8 c-124 11 -141 7
-141 -38 0 -28 5 -37 30 -50 76 -40 36 -246 -68 -348 l-39 -38 -62 182 -63
181 30 28 c26 24 30 32 23 56 l-7 29 -115 3 c-63 1 -118 -1 -122 -4z"/>
</g>
</svg>
