<svg version="1.0" xmlns="http://www.w3.org/2000/svg"
 width="683.000000pt" height="1052.000000pt" viewBox="0 0 683.000000 1052.000000"
 preserveAspectRatio="xMidYMid meet">
<g transform="translate(0.000000,1052.000000) scale(0.100000,-0.100000)"
fill="#000000" stroke="none">
<path d="M405 9831 l-90 -6 0 -39 c0 -35 3 -40 29 -47 16 -5 33 -14 37 -21 11
-16 11 -759 1 -775 -4 -7 -24 -19 -45 -28 -28 -12 -37 -21 -37 -39 0 -47 22
-56 134 -56 113 0 126 6 126 56 0 28 -5 34 -35 44 -28 9 -36 18 -41 47 -12 63
3 143 40 218 37 73 90 144 100 134 3 -3 35 -88 71 -189 l66 -184 -32 -28 c-25
-24 -30 -34 -24 -56 4 -15 12 -30 18 -34 20 -13 212 -9 225 4 7 7 12 26 12 44
0 32 -13 44 -49 44 -10 0 -25 8 -34 18 -23 26 -178 468 -179 510 0 23 118 227
155 270 15 15 32 22 59 22 32 0 39 4 44 25 3 14 3 36 0 50 l-7 26 -122 -3
-122 -3 2 -35 c1 -19 5 -50 8 -68 6 -26 2 -41 -18 -70 -13 -20 -39 -64 -57
-97 -19 -33 -56 -93 -83 -133 -39 -56 -52 -70 -59 -58 -12 22 -12 110 0 132 7
12 7 25 1 36 -6 10 -8 55 -7 101 l3 82 30 5 c27 5 30 9 33 45 4 41 -16 67 -47
63 -9 -1 -56 -4 -106 -7z"/>
<path d="M1093 9505 c-12 -9 -15 -397 -20 -2540 -3 -1392 -6 -3306 -7 -4254
l-1 -1725 30 -8 c17 -5 1030 -10 2313 -10 1958 -1 2285 1 2296 13 12 12 16
526 23 3074 5 1683 6 3070 1 3083 -4 12 -3 34 2 48 6 16 10 447 10 1159 0
1017 -2 1135 -16 1149 -8 9 -25 16 -37 16 -12 0 -1048 1 -2301 2 -1533 2
-2284 0 -2293 -7z m1237 -53 c31 -15 51 -47 182 -297 81 -154 157 -300 168
-324 l22 -43 -26 -58 c-14 -32 -26 -61 -26 -65 0 -4 -7 -31 -16 -61 l-16 -55
-66 6 c-117 11 -177 -40 -177 -148 0 -76 26 -134 74 -162 19 -11 46 -32 62
-46 27 -25 27 -28 27 -142 0 -77 -4 -120 -12 -126 -8 -6 -27 -6 -56 0 -121 27
-200 -43 -200 -179 0 -39 -5 -75 -12 -85 -7 -9 -98 -44 -203 -78 -272 -88
-522 -188 -735 -295 -102 -51 -188 -90 -193 -85 -5 5 -7 509 -5 1121 3 1087 3
1112 22 1126 17 12 113 14 585 14 519 0 569 -1 601 -18z m700 9 l25 -8 -38
-34 c-130 -115 -151 -137 -163 -166 -8 -18 -14 -48 -14 -68 0 -56 -25 -43 -62
32 -38 79 -56 92 -178 127 -146 42 -211 78 -186 103 18 19 559 31 616 14z
m528 2 l83 -6 -26 -27 c-14 -15 -57 -44 -95 -65 -80 -44 -93 -60 -114 -140
-15 -58 -39 -95 -53 -82 -4 4 -10 35 -14 69 -4 34 -15 72 -26 87 -23 31 -119
91 -146 91 -29 0 -5 -24 49 -50 91 -45 122 -125 67 -176 -36 -33 -68 -40 -98
-20 -30 20 -35 66 -7 66 10 0 23 -5 30 -12 8 -8 15 -8 27 2 22 18 19 37 -10
56 -53 35 -107 -14 -98 -88 5 -33 2 -38 -20 -43 -34 -9 -44 -2 -51 38 -3 19
-18 44 -31 57 -21 20 -30 22 -53 14 -19 -7 -27 -16 -27 -34 0 -22 4 -25 34
-25 19 0 36 -6 39 -13 8 -24 -19 -42 -63 -42 -102 0 -114 116 -20 199 47 41
130 81 169 81 28 0 28 0 12 25 -16 24 -15 24 17 30 83 13 302 18 425 8z m1323
-3 c28 -16 23 -48 -13 -84 -27 -27 -52 -37 -143 -60 -170 -43 -188 -53 -229
-133 -34 -68 -80 -122 -93 -110 -3 4 -1 7 5 7 17 0 15 56 -3 117 -17 57 -66
126 -120 167 -56 43 -53 24 8 -42 69 -74 87 -109 87 -163 0 -57 -21 -79 -76
-79 -46 0 -64 17 -64 59 0 25 25 28 34 5 8 -21 50 -14 54 9 5 26 -26 57 -58
57 -31 0 -58 -26 -69 -66 -12 -45 -35 -36 -42 15 -4 29 -14 51 -28 63 -28 22
-40 23 -68 3 -31 -22 -19 -47 21 -43 28 3 31 1 31 -27 0 -29 -2 -30 -49 -33
-78 -5 -113 47 -82 122 17 40 115 109 199 141 46 18 56 28 37 40 -14 8 -168
-65 -208 -100 -34 -29 -64 -79 -77 -130 -7 -30 -7 -29 -20 18 -17 68 -39 94
-132 157 -98 66 -97 65 -90 85 6 13 73 15 587 15 382 0 588 -4 601 -10z m129
-10 c0 -5 -13 -23 -30 -40 -16 -17 -30 -38 -30 -46 0 -17 7 -14 55 22 32 23
94 44 134 44 41 0 71 -37 71 -86 0 -50 -19 -74 -60 -74 -20 0 -35 9 -50 30
-48 68 -85 11 -85 -130 0 -79 7 -124 44 -270 38 -150 45 -190 45 -280 1 -86
-3 -117 -23 -170 -21 -61 -26 -67 -62 -78 -83 -26 -150 -5 -175 53 -19 46 -18
61 6 85 27 27 56 25 86 -7 50 -54 94 5 94 127 0 62 -23 119 -75 190 -37 51
-41 76 -26 157 5 26 12 120 16 208 5 141 4 158 -9 145 -10 -10 -19 -56 -26
-140 -7 -69 -17 -131 -22 -137 -7 -8 -35 -13 -74 -13 -79 0 -80 6 -24 108 36
66 48 102 35 102 -2 0 -38 -11 -79 -25 -41 -14 -83 -25 -94 -25 -32 0 -72 -39
-98 -96 -34 -74 -89 -104 -78 -41 19 100 86 175 190 207 111 34 140 36 154 10
11 -21 12 -21 32 -3 11 10 31 41 45 68 36 72 71 115 94 115 10 0 19 -4 19 -10z
m680 -9 c12 -24 14 -480 1 -500 -15 -23 -32 -7 -50 44 -20 61 -39 72 -159 90
-251 39 -351 48 -377 37 -38 -18 -43 -15 -56 26 -8 28 -8 48 0 80 l12 42 40
-21 c47 -24 86 -19 117 14 43 47 37 94 -22 161 -14 16 -26 33 -26 38 0 4 115
8 255 8 241 0 255 -1 265 -19z m-1943 -81 c107 -66 133 -97 133 -160 0 -27 -5
-52 -10 -55 -16 -10 -40 14 -40 40 0 39 -43 87 -109 123 -62 34 -65 35 -90 19
-14 -9 -44 -25 -67 -36 -47 -22 -84 -64 -84 -95 0 -26 -18 -46 -41 -46 -14 0
-15 6 -8 45 10 54 29 93 61 121 22 20 154 94 167 94 4 0 43 -22 88 -50z
m-1180 -31 c143 -39 170 -61 204 -166 20 -58 18 -73 -7 -73 -19 0 -63 50 -64
73 0 9 -3 17 -8 17 -4 0 -12 10 -17 22 -6 14 -29 29 -60 40 -131 47 -133 48
-144 79 -12 36 -8 36 96 8z m2917 -295 c12 -12 16 -36 16 -102 -1 -108 -20
-186 -46 -190 -44 -7 -48 -11 -30 -30 20 -23 21 -46 1 -62 -40 -33 -57 45 -35
161 6 30 11 88 11 129 1 41 5 83 11 93 11 21 51 22 72 1z m122 -39 c14 -22 16
-42 10 -137 -7 -123 -15 -145 -52 -154 -21 -5 -25 -11 -21 -30 5 -27 -15 -49
-38 -40 -20 7 -19 32 7 123 14 53 22 108 22 170 l1 93 27 0 c19 0 33 -8 44
-25z m-414 -35 c24 -16 51 -38 60 -47 20 -24 42 -82 34 -90 -4 -4 -27 -2 -51
5 -55 14 -72 9 -77 -27 -7 -51 9 -84 57 -113 42 -26 68 -64 90 -133 6 -19 7
-19 25 5 l19 25 37 -35 36 -35 -6 48 c-8 53 -3 56 67 36 33 -9 43 -7 74 11
l36 21 -6 -60 c-9 -105 -58 -159 -165 -182 -93 -20 -280 17 -296 57 -3 8 -1
38 6 67 14 69 4 197 -27 332 -14 60 -22 117 -19 127 8 27 54 22 106 -12z
m-1392 -147 c3 -3 3 -53 0 -111 -2 -59 -4 -186 -4 -282 0 -180 20 -320 60
-416 8 -20 14 -59 13 -89 -2 -37 3 -62 15 -80 22 -34 14 -43 -18 -21 -36 23
-39 21 -33 -19 7 -40 6 -40 -32 -20 -34 17 -42 12 -34 -26 6 -33 -10 -39 -43
-14 -27 20 -27 20 -57 -26 -31 -48 -33 -56 -11 -81 16 -16 15 -18 0 -24 -10
-4 -22 -2 -29 5 -14 14 -37 14 -37 0 0 -6 9 -22 20 -36 22 -28 26 -53 9 -53
-6 0 -32 18 -57 41 -51 45 -65 38 -33 -17 12 -19 21 -39 21 -45 0 -19 -38 -8
-75 21 -43 34 -57 31 -49 -9 8 -37 -9 -46 -41 -25 -24 15 -25 15 -25 -3 0 -10
16 -34 35 -53 19 -19 35 -38 35 -43 0 -14 -51 2 -92 29 -21 13 -40 24 -44 24
-3 0 -14 10 -24 23 -10 12 -21 19 -24 16 -11 -10 106 -118 153 -141 51 -25
136 -29 194 -9 44 15 46 28 10 57 -25 19 -26 24 -15 48 9 21 19 26 46 26 92 0
85 -122 -10 -181 -34 -21 -50 -24 -127 -23 -79 1 -96 5 -151 34 -35 17 -77 46
-94 64 -67 67 -94 99 -102 122 -8 21 -16 24 -64 24 -35 0 -58 -5 -66 -15 -16
-20 -40 -19 -40 1 0 9 -7 14 -17 13 -20 -3 -102 20 -119 33 -7 5 -14 54 -17
116 -3 64 -16 151 -32 217 -50 208 -67 300 -68 382 -1 45 1 85 6 89 4 4 28 -2
54 -15 31 -15 49 -19 56 -12 7 7 6 15 -1 24 -17 19 -5 27 42 27 23 1 59 7 81
15 22 8 41 15 43 15 13 1 -22 -222 -57 -360 l-17 -69 30 18 c48 30 96 35 144
16 39 -16 43 -16 58 0 11 10 25 14 38 10 69 -20 84 -18 116 13 34 34 39 75 13
104 -24 27 -35 22 -32 -14 4 -68 3 -71 -38 -64 -104 17 -136 18 -178 6 -41
-11 -47 -11 -66 6 -28 26 -22 74 36 274 49 167 53 202 31 255 -8 19 -18 55
-21 79 l-7 45 -29 -14 c-39 -21 -89 -18 -193 9 l-90 24 33 16 c49 26 390 67
666 80 86 4 348 -4 355 -11z m94 -11 c3 -5 -2 -67 -10 -138 -19 -152 -13 -446
10 -561 16 -76 59 -173 69 -156 4 6 -2 37 -13 68 -54 157 -68 397 -36 630 20
144 23 155 42 155 13 0 14 -15 7 -102 -11 -144 -8 -410 7 -515 12 -84 59 -251
80 -283 18 -28 11 36 -14 124 -54 185 -67 377 -43 641 10 106 15 130 28 133
15 3 16 -21 15 -245 -1 -275 5 -325 71 -573 61 -233 65 -253 66 -325 1 -99
-25 -167 -83 -226 -73 -73 -162 -89 -257 -45 -68 32 -105 86 -105 154 0 166
198 233 270 92 29 -57 23 -104 -19 -142 -36 -35 -83 -37 -116 -6 -41 38 -28
88 23 88 27 0 34 4 34 20 0 25 -42 37 -75 22 -27 -12 -45 -65 -38 -106 3 -14
21 -40 41 -57 31 -28 40 -31 83 -27 65 7 114 45 148 117 22 47 26 70 26 146 0
64 -5 104 -19 138 -10 27 -21 46 -24 43 -2 -3 1 -38 8 -78 9 -57 9 -83 0 -116
-18 -68 -36 -39 -43 68 -5 86 -30 169 -56 184 -15 10 -14 -18 4 -84 17 -63 19
-90 6 -90 -13 0 -94 254 -126 395 -23 98 -28 145 -29 260 -1 178 14 388 28
397 15 10 34 10 40 0z m221 -239 c0 -254 7 -297 92 -588 66 -225 77 -326 47
-421 -21 -68 -71 -144 -100 -155 -21 -7 -21 -7 -3 28 59 116 63 306 9 478 -73
236 -100 392 -99 590 0 115 12 256 24 276 4 5 12 9 18 9 9 0 12 -56 12 -217z
m81 36 c2 -186 22 -313 79 -505 82 -276 98 -346 98 -434 0 -129 -53 -245 -121
-265 l-23 -7 19 39 c72 141 70 276 -11 558 -87 302 -92 332 -92 556 0 153 3
200 14 213 29 35 35 11 37 -155z m80 10 c2 -209 24 -327 114 -604 58 -182 75
-279 67 -386 -7 -88 -31 -154 -71 -194 -39 -39 -47 -21 -20 45 58 143 51 257
-31 532 -82 273 -108 405 -109 568 -1 95 3 142 12 158 28 48 37 20 38 -119z
m81 -1 c2 -145 28 -273 103 -503 77 -233 100 -332 100 -427 0 -85 -22 -160
-65 -218 -33 -44 -41 -23 -20 55 9 34 15 99 14 155 0 105 -11 154 -97 433 -29
93 -59 207 -67 254 -18 105 -20 334 -3 351 28 28 33 11 35 -100z m64 62 c4
-19 12 -76 18 -127 6 -50 24 -143 40 -206 32 -127 112 -308 118 -270 3 13 -7
52 -21 88 -72 178 -116 358 -116 471 0 45 3 54 18 54 15 0 21 -17 36 -97 25
-134 61 -249 139 -443 69 -171 107 -306 107 -375 0 -61 -27 -176 -47 -197 -24
-27 -37 -8 -24 38 26 94 2 264 -54 374 -14 29 -28 50 -30 48 -2 -1 8 -43 21
-93 16 -57 27 -131 31 -201 6 -105 4 -114 -20 -165 -31 -65 -63 -107 -73 -96
-5 4 -3 17 4 28 7 11 18 57 24 103 16 118 -5 229 -87 457 -36 100 -73 211 -81
246 -22 97 -44 260 -44 336 0 59 2 68 17 65 11 -2 20 -17 24 -38z m1263 -5
c12 -12 14 -43 12 -172 -2 -87 -4 -276 -5 -420 0 -145 -5 -263 -9 -263 -15 0
-91 184 -92 222 0 4 13 14 29 22 17 9 35 31 45 56 40 101 5 168 -111 211 -40
14 -41 31 -8 71 43 50 64 102 82 198 17 91 27 104 57 75z m-721 -11 c15 -4 26
-12 24 -18 -5 -14 -416 -21 -430 -7 -5 5 -7 17 -3 27 6 16 22 16 194 11 103
-4 200 -10 215 -13z m-133 -83 c0 -5 -7 -25 -15 -44 -33 -80 -8 -154 66 -192
56 -29 153 -12 178 32 9 17 11 17 27 1 17 -17 17 -18 -1 -39 -14 -15 -28 -20
-52 -17 -26 3 -33 0 -33 -13 0 -9 -6 -22 -14 -28 -18 -15 -35 -91 -29 -125 3
-13 14 -34 24 -45 10 -11 19 -28 19 -37 0 -24 -50 -135 -76 -166 -12 -15 -30
-54 -39 -85 -17 -61 -58 -133 -75 -133 -6 0 -10 26 -10 58 0 87 -32 203 -114
409 -86 218 -112 295 -121 357 -12 76 -13 76 135 76 71 0 130 -4 130 -9z
m-2132 -113 c8 -139 -40 -212 -140 -212 -55 0 -108 35 -140 94 -45 82 6 180
93 180 77 0 140 -97 93 -144 -20 -20 -58 -21 -74 -1 -15 18 -6 45 15 45 22 0
15 34 -7 38 -9 2 -26 -6 -37 -17 -62 -62 30 -153 111 -110 30 16 48 70 48 143
0 131 30 118 38 -16z m2775 -108 c17 0 5 -31 -20 -47 -22 -15 -48 -18 -143
-17 -123 1 -170 12 -170 42 0 10 2 21 5 24 4 4 174 3 328 -2z m-278 -95 c98
-14 120 -14 233 1 133 17 162 14 192 -16 36 -36 18 -134 -29 -159 -69 -37
-118 -46 -256 -45 -197 0 -281 25 -326 97 -36 58 -4 137 55 137 13 0 71 -7
131 -15z m-2487 -145 c12 -58 32 -154 46 -215 67 -288 52 -448 -52 -552 -101
-102 -264 -96 -327 11 -60 102 -1 226 108 226 53 0 106 -50 114 -107 5 -37 2
-46 -24 -72 -17 -17 -46 -33 -68 -37 -38 -7 -38 -7 -14 -20 36 -20 107 -17
144 6 37 23 81 83 101 137 30 85 12 260 -46 449 -24 77 -30 115 -30 189 0 88
6 114 21 98 4 -5 16 -55 27 -113z m-81 -31 c20 -181 20 -328 0 -365 -36 -69
-117 -111 -190 -100 -86 14 -137 68 -137 146 0 115 99 184 188 130 75 -46 64
-154 -19 -175 -36 -9 -79 26 -63 52 8 11 21 17 38 15 20 -2 26 2 26 17 0 47
-77 43 -99 -6 -14 -30 -7 -59 22 -90 16 -18 31 -23 70 -23 42 0 53 4 78 31 37
40 44 80 33 208 -13 156 -11 245 5 265 26 31 36 10 48 -105z m2389 -205 c46
-22 49 -30 25 -60 -12 -15 -21 -32 -21 -38 -1 -12 -86 -56 -107 -56 -7 0 -13
7 -13 16 0 22 63 154 73 154 5 0 24 -7 43 -16z m630 -106 c16 -51 28 -94 27
-97 -5 -15 -25 -9 -56 18 -19 17 -40 31 -46 31 -6 0 -11 11 -11 24 0 13 -7 29
-15 36 -25 21 -19 57 13 68 53 20 57 17 88 -80z m-497 11 c12 -62 67 -201 96
-246 24 -37 54 -26 93 32 41 62 95 167 111 218 7 20 18 37 24 37 21 -1 47 -27
47 -47 0 -11 11 -30 25 -43 14 -13 25 -29 25 -35 0 -7 25 -35 55 -62 47 -44
55 -56 55 -87 0 -31 -3 -36 -24 -36 -23 0 -105 57 -135 93 -7 10 -19 17 -25
17 -7 0 -45 -45 -85 -100 -73 -101 -116 -136 -151 -125 -28 9 -75 66 -127 156
-51 88 -61 93 -121 56 -57 -35 -90 -47 -127 -47 -29 0 -36 4 -41 27 -10 37 5
55 62 76 58 22 114 62 114 83 0 7 8 14 17 14 19 0 53 28 53 45 0 14 21 35 36
35 6 0 17 -27 23 -61z m266 19 c-22 -75 -112 -228 -134 -228 -21 0 -101 191
-101 242 0 4 54 8 121 8 120 0 120 0 114 -22z m-3091 -179 c27 -13 43 -42 26
-47 -26 -9 -41 -35 -35 -63 6 -25 3 -30 -19 -39 -33 -12 -33 -20 0 -51 14 -13
31 -38 38 -54 7 -17 40 -59 73 -94 l61 -63 69 7 c52 5 72 3 80 -7 6 -7 23 -51
38 -98 16 -47 46 -132 67 -190 62 -166 105 -326 127 -471 25 -160 49 -277 62
-302 18 -35 -19 -31 -60 6 -22 19 -49 40 -60 47 -12 6 -24 25 -28 41 -6 32
-45 65 -63 54 -6 -4 -29 5 -50 20 -25 18 -45 25 -59 20 -14 -4 -23 0 -31 15
-11 20 -12 21 -24 4 -7 -9 -18 -14 -23 -11 -6 4 -14 -5 -18 -21 l-7 -27 -21
26 c-12 15 -30 41 -40 59 -22 41 -30 34 -31 -32 -1 -29 -6 -53 -12 -55 -20 -7
-49 46 -149 272 -53 121 -108 243 -122 270 -37 74 -176 281 -286 430 -53 71
-97 138 -97 148 0 26 78 59 340 144 124 40 226 72 227 73 1 0 13 -5 27 -11z
m2626 -99 c10 -6 28 -39 40 -77 12 -38 28 -77 35 -88 6 -11 18 -38 25 -60 16
-48 121 -268 132 -275 4 -3 21 -33 39 -65 17 -33 37 -67 44 -75 7 -8 40 -57
74 -107 72 -108 158 -203 239 -264 88 -66 102 -85 102 -146 0 -69 -13 -68
-107 3 -25 19 -51 34 -59 34 -8 0 -14 5 -14 11 0 6 -42 55 -92 108 -214 223
-383 502 -487 805 -45 130 -51 179 -23 195 22 13 29 13 52 1z m-255 -90 c3 -5
-4 -28 -16 -51 -11 -23 -36 -85 -55 -136 -19 -52 -52 -132 -73 -176 -21 -45
-48 -113 -61 -152 -12 -38 -35 -100 -50 -136 -38 -86 -110 -333 -110 -376 0
-18 -7 -50 -15 -69 -11 -28 -19 -35 -32 -29 -33 12 -38 10 -38 -15 0 -20 4
-24 23 -22 20 3 22 -1 22 -40 0 -24 -7 -79 -15 -123 -9 -44 -13 -96 -10 -115
4 -22 0 -50 -10 -74 -21 -49 -39 -279 -39 -498 -1 -87 -4 -158 -7 -158 -6 0
-3 -75 5 -168 5 -47 3 -53 -12 -50 -10 2 -27 28 -42 66 -14 34 -28 62 -31 62
-6 0 -37 -92 -49 -147 -5 -21 -3 -41 6 -59 35 -66 6 -94 -106 -101 l-82 -6
-20 -46 -20 -46 -13 38 c-7 21 -20 46 -28 55 -21 24 -28 54 -17 72 8 12 13 11
33 -8 30 -29 45 -28 79 5 33 32 34 45 8 87 -10 18 -26 59 -35 91 -20 79 -38
89 -46 27 -6 -42 -36 -119 -43 -110 -2 1 -6 36 -10 76 -6 71 -6 73 19 82 34
13 32 33 -6 63 -28 22 -30 28 -23 58 4 19 6 39 4 44 -28 76 10 928 45 1013 14
32 44 195 105 557 20 123 84 354 103 371 7 6 77 17 156 23 172 15 308 47 393
94 64 35 102 45 113 27z m-3055 -70 c14 -10 23 -20 20 -23 -3 -2 -84 -41 -180
-87 -96 -46 -213 -103 -259 -128 -67 -36 -85 -42 -92 -31 -25 40 -1 65 136
140 113 61 306 148 330 148 11 0 31 -8 45 -19z m2138 -5 c3 -22 -47 -94 -131
-189 -29 -32 -63 -75 -77 -95 -14 -21 -46 -57 -72 -82 -47 -45 -69 -92 -50
-111 6 -6 31 -13 56 -15 40 -5 48 -2 75 24 40 40 47 75 28 124 -14 36 -14 41
-1 46 24 9 46 -21 51 -69 9 -78 -49 -160 -122 -174 -46 -8 -89 7 -93 34 -2 12
-8 22 -13 22 -16 0 -90 -72 -106 -104 -9 -16 -41 -55 -73 -86 -32 -31 -61 -66
-64 -78 -4 -12 -31 -46 -59 -75 -29 -28 -59 -65 -67 -82 -24 -48 -77 -97 -101
-93 -18 3 28 66 310 418 182 228 356 443 386 476 30 34 62 78 70 98 17 41 48
47 53 11z m120 -86 c3 -39 -2 -53 -30 -89 -55 -72 -130 -97 -187 -61 -24 15
-5 41 31 41 92 0 130 31 144 119 5 31 11 41 23 39 11 -2 17 -16 19 -49z
m-2173 11 c17 -19 16 -20 -41 -47 -51 -24 -59 -33 -62 -58 -1 -17 6 -44 18
-63 44 -71 107 -64 141 15 l21 48 29 -33 c16 -18 29 -39 29 -46 0 -17 -177
-96 -214 -96 -24 0 -31 9 -61 74 -18 40 -41 76 -51 80 -22 8 -241 -96 -250
-118 -7 -17 51 -125 71 -132 7 -3 29 1 48 10 27 11 36 21 39 42 4 37 19 39 42
7 14 -19 16 -30 9 -42 -14 -23 -168 -102 -185 -96 -8 3 -32 38 -53 78 -21 40
-43 75 -49 79 -5 4 -25 0 -43 -7 -40 -17 -50 -6 -33 36 11 26 43 45 224 134
178 88 323 153 347 155 3 0 14 -9 24 -20z m3082 -42 c92 -98 188 -238 258
-377 96 -193 142 -381 151 -621 19 -487 -148 -904 -492 -1230 -124 -116 -150
-132 -232 -137 -37 -2 -94 2 -127 9 -72 16 -80 39 -25 74 93 60 210 149 216
166 3 10 11 18 18 18 16 0 138 127 197 205 252 333 335 812 214 1230 -51 178
-178 406 -292 526 l-53 56 25 37 c14 20 32 50 40 66 9 17 24 30 34 30 10 0 40
-24 68 -52z m-3274 -140 c9 -7 26 -35 36 -63 10 -27 30 -58 44 -69 l25 -19
121 55 c94 44 123 53 131 43 14 -17 4 -24 -120 -79 -107 -48 -345 -173 -503
-265 -109 -63 -137 -71 -137 -43 0 14 14 28 43 44 52 29 60 62 22 98 l-25 23
0 -41 c0 -30 -5 -44 -19 -51 -10 -6 -21 -7 -25 -4 -10 10 -7 149 3 176 13 33
47 44 70 23 9 -9 30 -43 46 -76 19 -40 36 -62 51 -66 14 -4 54 11 115 41 143
72 148 79 104 165 -21 42 -30 50 -54 50 -32 0 -58 -24 -63 -60 -4 -34 -38 -33
-58 2 -14 26 -13 29 5 47 26 25 132 81 154 81 9 0 25 -6 34 -12z m3236 -158
c145 -211 217 -422 227 -670 5 -120 4 -124 -11 -91 -11 24 -14 48 -9 77 5 35
2 46 -15 63 -28 28 -68 27 -112 -3 -76 -52 -75 -140 3 -196 49 -36 85 -38 123
-8 l28 22 -6 -95 c-3 -51 -13 -125 -22 -164 -9 -38 -19 -81 -22 -95 -2 -14
-11 -35 -19 -47 -8 -12 -14 -33 -14 -45 0 -13 -9 -38 -20 -56 -11 -18 -20 -37
-20 -41 0 -31 -160 -274 -204 -310 -14 -12 -16 -11 -16 7 0 64 -49 97 -142 97
-72 -1 -89 -16 -96 -84 -6 -61 2 -95 28 -121 32 -32 65 -25 101 19 30 38 77
67 98 60 12 -4 -89 -111 -130 -137 -14 -9 -58 -38 -98 -65 -39 -26 -81 -48
-93 -50 -27 -3 -34 26 -44 169 l-7 101 52 44 c28 24 51 50 51 57 0 6 8 12 18
12 20 0 138 141 190 227 112 186 168 448 143 669 -17 148 -51 259 -126 407
-36 71 -65 136 -65 145 0 19 73 211 92 242 13 20 14 20 46 -17 18 -21 59 -76
91 -123z m-937 78 c3 -35 7 -69 9 -77 3 -9 -16 -22 -56 -37 -33 -13 -65 -31
-71 -39 -6 -8 -16 -15 -22 -15 -5 0 -22 -23 -36 -52 -20 -40 -26 -67 -26 -119
l0 -67 -50 -7 c-131 -18 -200 -101 -200 -241 l0 -51 -52 -6 c-85 -10 -124 -25
-136 -52 -6 -14 -16 -25 -21 -25 -13 0 -1 32 17 45 9 7 16 40 19 95 3 47 11
88 17 92 6 4 25 8 41 8 66 1 143 57 170 125 4 11 11 54 14 95 l6 75 55 6 c122
13 170 67 179 204 l6 80 48 7 c27 4 52 9 55 12 19 19 30 1 34 -56z m-1879 -45
c27 -31 97 -157 97 -176 0 -13 -18 -26 -62 -45 -129 -53 -469 -232 -640 -335
-98 -59 -188 -108 -200 -110 -21 -2 -23 3 -30 68 -13 116 -3 163 46 210 72 69
454 283 667 373 86 36 100 38 122 15z m1885 -130 c3 -17 -6 -26 -42 -41 -61
-27 -80 -59 -73 -122 7 -59 -10 -81 -37 -51 -29 32 -23 109 13 173 17 29 31
49 31 45 0 -4 12 -1 28 8 38 21 76 16 80 -12z m-427 -112 c15 -51 5 -99 -31
-149 -35 -49 -54 -60 -113 -68 -37 -5 -48 -3 -66 15 -35 35 -27 43 37 36 49
-6 61 -4 84 14 14 12 34 41 43 65 16 41 16 47 1 77 -18 35 -14 49 14 49 14 0
23 -11 31 -39z m1145 -3 c6 -7 27 -49 47 -93 188 -413 115 -874 -190 -1190
-48 -51 -94 -85 -113 -85 -29 0 -4 50 58 116 122 131 150 173 208 307 63 146
78 223 78 397 0 128 -4 169 -22 235 -24 90 -71 210 -102 260 -20 32 -26 66
-14 78 8 8 37 -7 50 -25z m-762 -104 c3 -9 6 -31 6 -49 0 -26 -5 -34 -22 -39
-13 -3 -49 -38 -80 -78 -150 -191 -614 -752 -625 -756 -20 -6 -15 39 7 73 23
36 43 61 114 142 73 83 285 346 317 394 15 22 47 59 73 82 28 27 48 55 52 75
4 17 14 34 23 37 9 3 38 35 66 70 27 36 53 65 56 65 4 0 10 -7 13 -16z m-180
-64 c19 -7 26 -17 26 -35 0 -23 -4 -25 -40 -25 -94 0 -137 -45 -125 -128 5
-34 3 -43 -11 -49 -43 -16 -61 94 -25 153 22 35 75 79 106 87 33 8 42 7 69 -3z
m1730 -32 c14 -20 16 -103 16 -700 0 -611 -2 -678 -16 -693 -9 -9 -26 -15 -38
-13 l-21 3 0 695 c1 382 4 703 8 713 9 24 33 21 51 -5z m-2188 -79 c13 -15 19
-36 19 -69 0 -39 -7 -58 -39 -104 -38 -55 -39 -56 -86 -56 -63 0 -80 7 -80 35
0 20 4 22 48 17 41 -3 51 -1 74 23 41 41 50 77 29 118 -28 54 -4 79 35 36z
m-1561 -9 c12 -14 21 -45 26 -88 11 -105 44 -178 106 -240 30 -30 53 -61 51
-70 -2 -10 -38 -27 -103 -47 -145 -45 -205 -83 -192 -119 11 -27 88 -67 198
-103 60 -20 109 -40 109 -46 0 -5 -28 -40 -63 -76 -62 -67 -107 -142 -107
-181 0 -26 -43 -70 -68 -70 -11 0 -25 7 -32 15 -17 21 9 118 51 192 16 29 29
58 29 65 0 7 -50 47 -111 88 -61 41 -118 84 -126 97 -13 20 -12 26 12 72 15
27 36 51 46 54 11 3 19 12 19 20 0 9 14 17 38 21 20 3 57 15 81 26 41 19 43
21 38 57 -2 21 -16 70 -31 109 -57 157 -39 299 29 224z m2877 -17 c53 -58 60
-101 29 -180 -14 -37 -17 -59 -11 -98 4 -27 11 -51 16 -52 43 -15 42 -50 -2
-98 -45 -49 -64 -102 -64 -186 0 -74 -1 -77 -27 -87 -46 -18 -100 -25 -107
-13 -4 6 11 28 33 50 43 42 55 85 49 171 -3 43 -3 44 -17 21 -7 -13 -16 -50
-18 -82 -6 -58 -24 -92 -38 -69 -16 26 64 493 88 518 12 11 12 2 0 -60 -11
-55 -12 -87 -4 -128 19 -106 20 -119 9 -122 -6 -2 -9 -9 -7 -15 2 -7 15 -3 33
12 l28 23 -16 64 c-20 80 -20 111 -1 176 16 54 14 72 -9 72 -18 0 -30 78 -15
96 16 19 22 18 51 -13z m-2664 -192 c53 -55 82 -93 82 -108 0 -38 -21 -73 -44
-73 -23 1 -56 22 -56 36 0 5 -14 22 -31 39 -38 37 -86 136 -95 194 l-7 45 34
-24 c19 -14 71 -63 117 -109z m3806 52 c5 -12 -11 -34 -54 -78 -33 -33 -60
-66 -60 -73 0 -6 -5 -12 -10 -12 -6 0 -24 -10 -39 -21 -54 -40 -73 14 -21 59
17 15 30 35 30 45 0 10 5 15 11 12 5 -4 30 14 54 39 44 48 78 58 89 29z
m-2222 -31 c7 -7 6 -16 -1 -30 -9 -17 -18 -19 -51 -15 -49 7 -84 -14 -107 -62
-14 -30 -15 -40 -3 -74 21 -64 -16 -88 -46 -29 -33 64 4 170 74 208 39 21 114
22 134 2z m2286 -41 c3 -17 -14 -40 -68 -92 -40 -38 -76 -69 -80 -69 -4 0 -11
-7 -14 -17 -5 -12 16 -37 74 -92 62 -59 80 -82 80 -104 0 -15 -3 -27 -8 -27
-8 0 -114 83 -185 146 -27 24 -47 50 -47 62 0 11 18 39 40 62 61 64 181 161
194 157 6 -2 12 -14 14 -26z m-3090 -7 c26 -18 29 -49 6 -58 -9 -3 -47 -6 -85
-6 -38 0 -69 -4 -69 -10 0 -19 41 -30 114 -30 64 0 78 -3 103 -24 29 -25 30
-25 46 -5 16 18 33 19 85 3 17 -5 15 -40 -4 -59 -14 -14 -36 -16 -135 -14
-112 3 -142 -1 -125 -18 4 -5 67 -10 139 -13 73 -3 138 -9 145 -13 6 -5 12
-19 12 -31 0 -13 -6 -28 -12 -34 -7 -5 -62 -13 -123 -16 -135 -8 -175 -14
-175 -26 0 -6 59 -10 145 -10 134 0 145 -1 155 -20 16 -31 -3 -57 -47 -64 -21
-3 -86 -8 -145 -12 -67 -4 -111 -11 -118 -19 -17 -21 46 -27 151 -15 85 10 95
9 106 -7 40 -54 -22 -70 -302 -80 -198 -6 -347 7 -377 34 -16 14 -18 37 -18
187 1 192 8 242 43 271 37 33 319 102 422 104 22 1 51 -6 63 -15z m572 14 c0
-2 -7 -28 -15 -58 -8 -30 -15 -69 -15 -87 0 -37 -21 -53 -69 -53 -37 0 -56 26
-65 92 -6 40 -4 48 13 57 11 6 31 11 45 11 15 0 31 8 38 20 8 12 24 20 40 20
16 0 28 -1 28 -2z m-1136 -67 c16 -14 18 -25 11 -96 -4 -44 -10 -163 -14 -265
l-6 -185 -27 -13 c-64 -30 -88 29 -88 213 0 193 22 348 53 367 15 10 47 0 71
-21z m-166 -188 c13 -27 2 -160 -14 -174 -27 -23 -203 23 -288 75 l-40 24 53
27 c111 56 272 82 289 48z m3594 -31 c69 -45 177 -148 177 -169 1 -16 -27 -45
-103 -107 -91 -75 -126 -98 -126 -82 0 2 -3 12 -6 21 -5 11 16 37 70 89 42 40
76 80 76 89 0 9 -17 29 -37 44 -56 42 -103 95 -103 115 0 23 18 23 52 0z m226
-239 c4 -25 -38 -92 -58 -93 -19 0 -100 -77 -100 -94 0 -22 70 -86 93 -86 16
-1 28 -13 46 -49 28 -58 22 -77 -17 -57 -15 8 -36 24 -47 36 -11 12 -53 49
-92 82 -42 34 -73 67 -73 77 0 10 37 52 83 93 139 125 158 136 165 91z m-3808
-54 c0 -31 -34 -63 -122 -116 -89 -53 -94 -54 -68 -2 29 57 61 95 119 141 42
34 47 36 59 21 6 -9 12 -29 12 -44z m1094 -15 c14 -5 14 -9 -1 -32 -9 -15 -32
-41 -51 -58 l-35 -32 41 -95 c23 -52 42 -103 42 -113 1 -29 27 22 35 68 6 33
30 68 39 57 2 -2 6 -30 10 -61 6 -53 4 -60 -19 -80 -32 -28 -32 -44 3 -60 l27
-13 -2 -365 c-1 -204 -7 -400 -13 -445 -6 -44 -14 -127 -17 -185 -4 -85 -9
-109 -25 -127 -13 -14 -23 -45 -28 -90 -5 -37 -20 -129 -34 -203 -14 -74 -30
-170 -35 -212 -6 -43 -24 -123 -40 -177 -17 -55 -33 -128 -37 -163 -4 -35 -12
-66 -18 -70 -6 -4 -50 -8 -98 -8 -166 0 -396 -53 -506 -117 -44 -25 -72 -25
-72 0 0 24 102 262 116 270 8 4 14 21 14 38 0 16 7 43 15 60 9 16 36 84 61
152 24 67 58 151 74 187 16 36 41 115 55 175 13 61 29 126 35 145 5 19 10 47
10 63 0 26 1 27 41 21 39 -7 41 -6 37 17 -2 16 -11 25 -25 27 -28 4 -29 28 -8
155 8 49 12 101 9 116 -4 19 0 38 12 56 23 35 37 245 34 518 -1 136 2 207 10
227 11 26 9 33 -9 56 -17 22 -20 36 -15 69 4 28 0 54 -10 79 -14 35 -14 39 2
61 26 37 79 62 100 49 24 -15 21 -32 -7 -47 -13 -7 -33 -23 -43 -38 -19 -25
-19 -26 10 -100 16 -40 32 -82 36 -92 7 -21 24 -14 36 17 l9 21 7 -22 c8 -28
9 -28 41 -3 31 24 43 25 43 4 0 -8 5 -12 10 -9 6 3 10 37 10 75 0 38 5 72 10
75 6 3 10 17 10 30 0 28 -19 45 -21 18 -1 -10 -1 -24 0 -32 2 -7 -2 -10 -8 -6
-6 3 -11 15 -11 25 0 28 -18 34 -22 8 -2 -13 -10 -23 -18 -23 -18 0 -40 43
-32 64 5 12 8 10 13 -9 6 -24 6 -24 16 10 8 31 13 35 47 38 27 2 42 -2 52 -15
13 -17 15 -17 29 1 8 11 15 28 15 38 0 18 16 23 44 12z m-463 -44 c29 -16 24
-56 -8 -76 -180 -108 -332 -241 -438 -383 -115 -151 -199 -348 -241 -561 -25
-132 -30 -386 -10 -511 35 -213 128 -428 259 -601 102 -134 109 -161 65 -233
-10 -16 -18 -38 -18 -47 0 -21 -29 -24 -52 -5 -33 26 -134 155 -195 248 -105
161 -179 342 -224 546 -33 152 -38 439 -11 599 25 143 69 285 126 409 44 92
174 294 230 354 66 71 236 219 272 236 23 12 73 22 124 25 47 4 89 8 93 8 5 1
17 -3 28 -8z m1187 -2 c15 -13 16 -50 0 -66 -9 -9 -87 -12 -292 -12 -246 0
-282 2 -298 17 -25 22 -23 52 5 58 74 16 565 19 585 3z m-1164 -134 c13 -12
16 -39 16 -126 0 -123 -12 -161 -62 -203 -41 -35 -51 -32 -43 14 8 50 -10 116
-38 136 -37 26 -63 18 -102 -29 -20 -24 -47 -47 -60 -50 -32 -8 -43 -50 -24
-85 17 -30 86 -54 142 -49 20 2 37 2 37 0 0 -2 -17 -25 -38 -51 -55 -66 -114
-156 -152 -231 l-33 -65 -23 50 c-32 68 -77 107 -116 103 -33 -3 -37 -8 -60
-78 -9 -25 -22 -59 -29 -77 -11 -28 -11 -34 5 -52 25 -28 82 -35 141 -17 27 9
51 14 52 12 2 -2 -5 -49 -17 -104 -11 -56 -23 -142 -27 -191 -3 -50 -9 -91
-13 -91 -4 0 -33 23 -64 50 -58 50 -81 59 -116 40 -34 -18 -42 -46 -25 -80 11
-21 13 -40 7 -67 -11 -52 -5 -71 29 -88 42 -22 73 -10 120 46 22 27 44 49 49
49 4 0 11 -26 15 -57 9 -76 48 -226 75 -287 11 -27 19 -50 17 -52 -2 -2 -30 5
-61 17 -58 20 -106 19 -133 -3 -19 -15 -16 -77 2 -85 22 -8 45 -56 45 -92 0
-49 43 -75 95 -55 21 8 53 72 61 123 4 23 10 41 15 41 19 0 62 -82 67 -128 3
-40 -3 -64 -34 -138 -21 -49 -45 -97 -53 -107 -14 -16 -16 -16 -44 10 -16 16
-56 68 -89 117 -153 228 -223 440 -235 711 -21 479 166 871 555 1159 57 42
110 76 117 76 7 0 21 -7 29 -16z m1164 4 c11 -15 47 -410 39 -431 -4 -12 -59
-16 -280 -22 -151 -4 -284 -4 -295 0 -12 3 -23 14 -26 23 -2 9 -10 106 -17
214 -9 158 -9 201 1 213 11 13 55 15 290 15 210 0 280 -3 288 -12z m-2329 -47
c-12 -16 -41 -45 -63 -63 -79 -63 -136 -121 -136 -139 0 -10 49 -62 115 -121
110 -99 128 -125 107 -153 -4 -6 -53 -50 -110 -99 -113 -97 -128 -116 -113
-144 5 -10 57 -58 116 -107 58 -49 108 -98 111 -111 10 -41 0 -78 -23 -84 -12
-3 -39 -22 -60 -43 -21 -21 -60 -56 -87 -78 -38 -31 -51 -37 -62 -28 -29 24
-12 80 26 86 32 5 43 13 95 71 53 59 53 74 0 99 -19 9 -35 23 -35 31 0 8 -9
16 -20 19 -11 3 -20 12 -20 19 0 8 -7 17 -16 21 -9 3 -27 16 -41 29 -23 21
-25 31 -24 99 0 41 0 79 1 84 0 5 14 14 30 21 17 7 40 24 53 39 12 14 34 32
48 39 29 15 63 67 54 82 -3 6 -14 10 -24 10 -10 0 -24 14 -34 34 -9 19 -37 49
-64 67 -66 44 -73 55 -73 120 0 55 1 57 53 103 28 26 67 60 85 77 39 36 114
71 126 59 4 -4 -2 -22 -15 -39z m4103 19 c46 -30 158 -142 158 -157 0 -12 -91
-100 -164 -158 -45 -35 -61 -43 -67 -33 -16 25 -9 38 55 88 106 83 108 121 9
199 -39 30 -53 48 -53 66 0 32 7 31 62 -5z m-4022 -49 c0 -19 -59 -83 -104
-114 -15 -11 -32 -30 -39 -44 -11 -24 -7 -30 66 -98 79 -75 83 -80 68 -103 -6
-10 -20 -4 -57 24 -73 54 -164 146 -164 165 0 29 203 205 222 193 5 -3 8 -13
8 -23z m104 -744 c-1 -389 -4 -710 -7 -713 -12 -13 -48 9 -63 38 -14 28 -16
101 -12 687 4 711 4 705 56 699 l27 -3 -1 -708z m4131 572 c8 -25 -5 -40 -96
-115 -64 -52 -123 -83 -136 -70 -10 9 46 83 91 119 50 41 118 87 128 87 4 0
10 -9 13 -21z m-3135 -122 c0 -7 -25 -37 -56 -67 -30 -30 -62 -68 -71 -84 -8
-15 -32 -47 -53 -70 -44 -48 -76 -105 -91 -161 -5 -22 -23 -67 -39 -100 -39
-80 -54 -200 -47 -375 7 -162 27 -243 97 -383 44 -87 53 -127 30 -127 -12 0
-86 118 -113 180 -14 30 -35 96 -48 145 -32 126 -33 356 -1 494 23 101 71 220
124 308 39 67 145 183 208 229 44 32 60 35 60 11z m2769 -41 c17 -30 5 -71
-50 -174 -22 -41 -37 -77 -34 -82 2 -4 49 -38 104 -74 115 -78 151 -109 151
-131 0 -32 -84 -106 -170 -148 -53 -27 -86 -49 -88 -61 -2 -10 6 -39 19 -64
12 -26 25 -54 30 -63 12 -25 31 -161 27 -193 -1 -16 -11 -34 -20 -40 -30 -18
-58 20 -68 97 -14 94 -45 169 -101 243 -47 62 -60 94 -40 94 22 0 244 84 263
99 16 13 19 24 14 44 -9 38 -89 77 -248 122 -32 8 -58 21 -58 28 0 7 14 26 31
43 62 57 109 126 125 182 26 90 85 131 113 78z m-165 -108 c-28 -54 -65 -98
-110 -129 -23 -16 -47 -29 -52 -29 -12 0 -25 62 -17 81 9 24 188 135 193 120
2 -5 -4 -25 -14 -43z m-1416 20 c7 -7 12 -26 12 -43 l0 -31 -292 0 c-161 1
-299 5 -305 9 -16 10 -17 49 -1 65 17 17 569 17 586 0z m-2298 -76 c0 -29 -59
-102 -92 -115 -10 -3 -18 -13 -18 -22 0 -8 -6 -15 -14 -15 -8 0 -18 -4 -21
-10 -9 -15 24 -70 43 -70 20 -1 52 -23 52 -37 0 -5 9 -18 20 -28 20 -18 27
-45 12 -45 -16 0 -137 82 -174 118 -40 38 -46 57 -25 82 30 38 190 160 209
160 5 0 8 -8 8 -18z m3477 -19 c17 -22 27 -172 19 -318 -7 -138 -18 -199 -44
-227 -22 -25 -59 -22 -77 6 -14 21 -15 44 -5 192 5 93 9 206 8 252 -3 78 -1
85 21 103 26 21 57 18 78 -8z m-363 -20 c240 -8 226 3 225 -170 -1 -202 -12
-293 -39 -315 -39 -32 -236 -84 -368 -98 -101 -11 -126 -5 -137 31 -10 30 9
39 85 39 36 0 71 4 79 9 24 16 -9 26 -106 31 -79 5 -96 9 -117 29 -22 21 -26
22 -32 7 -4 -11 -18 -16 -43 -16 -57 0 -78 31 -45 65 14 14 37 16 140 14 114
-3 147 1 131 17 -3 4 -68 11 -144 15 -76 5 -144 11 -150 14 -17 6 -17 50 0 64
8 6 67 13 133 16 135 7 164 11 164 25 0 5 -62 11 -147 12 l-148 3 -3 33 c-3
27 1 34 25 43 15 6 84 13 151 16 93 5 125 9 129 20 3 8 4 16 1 18 -2 2 -57 0
-122 -5 -125 -11 -146 -6 -146 31 0 24 14 31 90 45 80 14 151 16 394 7z m-773
-85 c2 -25 -3 -43 -17 -59 -8 -8 -14 -23 -14 -32 0 -8 -9 -18 -20 -22 -25 -8
-60 -52 -60 -76 0 -23 60 -43 107 -36 31 5 34 4 31 -16 -3 -20 -9 -22 -63 -22
-53 0 -61 3 -70 23 -5 12 -13 22 -18 22 -16 0 -103 -98 -127 -143 -14 -26 -32
-47 -40 -48 -17 0 -167 -172 -223 -257 -21 -31 -59 -77 -84 -102 -25 -25 -57
-65 -71 -90 -28 -49 -48 -70 -70 -70 -30 0 1 56 91 165 167 201 451 550 540
663 83 107 106 127 108 100z m-1251 -37 c0 -12 -11 -23 -29 -29 -36 -13 -46
-31 -55 -97 -11 -75 -39 -158 -59 -175 -17 -14 -17 -19 -1 -88 15 -68 15 -78
0 -139 l-16 -65 26 -44 c24 -41 26 -84 4 -84 -21 0 -78 43 -84 63 -10 39 -6
93 9 130 22 52 19 105 -9 157 -25 48 -23 74 9 100 35 29 58 94 64 179 l6 84
35 13 c19 7 50 13 68 13 25 1 32 -3 32 -18z m2619 -62 c41 -11 95 -32 120 -48
l44 -29 -34 -21 c-58 -36 -138 -61 -213 -67 -93 -8 -100 -1 -94 101 5 106 7
106 177 64z m-2636 -83 c-3 -70 -18 -169 -52 -324 -30 -136 -39 -143 -38 -26
0 54 -3 120 -7 146 -8 42 -6 50 17 77 18 21 28 51 37 103 14 92 17 101 33 95
8 -3 11 -25 10 -71z m1142 -146 c21 -40 19 -88 -5 -135 -24 -47 -25 -65 -5
-65 8 0 15 -4 15 -9 0 -5 -7 -25 -15 -44 -9 -21 -15 -67 -15 -107 l0 -70 -32
0 c-128 0 -209 -89 -212 -231 -1 -66 3 -62 -87 -74 -39 -5 -53 -14 -96 -59
-49 -51 -51 -57 -58 -122 -3 -38 -7 -76 -8 -84 -2 -10 -21 -18 -56 -23 -65
-11 -76 -2 -86 74 -8 59 1 74 51 84 19 3 43 14 53 24 10 10 25 20 34 24 24 9
21 37 -3 37 -13 0 -20 -7 -20 -19 0 -15 -10 -20 -51 -25 -57 -8 -74 1 -65 32
5 13 19 22 46 26 61 10 83 45 77 124 -5 64 3 82 28 62 25 -21 30 -80 11 -133
-19 -54 -10 -81 18 -58 25 21 39 80 33 141 l-5 58 53 7 c123 15 176 71 196
208 12 84 7 78 94 92 47 8 85 30 85 50 0 23 -18 27 -49 10 -63 -32 -164 -10
-131 29 9 11 18 13 38 5 38 -14 78 -2 108 34 25 29 26 36 21 99 -5 55 -3 68 8
68 8 0 21 -13 30 -30z m168 8 c11 -8 20 -33 23 -63 5 -42 3 -53 -13 -68 -19
-17 -132 -52 -140 -43 -2 2 1 32 7 65 6 34 10 72 8 84 -3 22 2 24 88 36 5 0
18 -5 27 -11z m1208 -49 c70 -55 126 -155 143 -254 l7 -40 -110 110 c-61 60
-114 118 -117 128 -7 22 14 87 28 87 5 0 28 -14 49 -31z m-3593 -22 c2 -11
-24 -45 -72 -94 -42 -41 -76 -82 -76 -89 0 -9 -12 -14 -35 -14 -19 0 -35 -4
-35 -9 0 -5 36 -39 80 -76 191 -159 369 -396 515 -685 58 -114 144 -361 145
-412 0 -21 -6 -29 -24 -34 -48 -12 -58 -2 -86 81 -50 147 -124 309 -175 385
-28 41 -59 96 -69 123 -10 26 -40 72 -67 101 -27 30 -49 58 -49 64 0 6 -6 17
-13 24 -7 7 -27 36 -45 64 -39 61 -123 143 -213 207 -76 54 -105 99 -95 153 8
42 21 50 51 30 30 -20 35 -20 35 -1 0 9 18 35 40 59 22 24 40 46 40 50 0 13
28 36 44 36 8 0 26 14 38 30 25 34 60 38 66 7z m2580 -67 c53 -50 64 -78 37
-100 -8 -7 -15 -19 -15 -27 0 -16 -44 -63 -60 -63 -5 0 -10 15 -10 33 0 17 -9
64 -20 102 -11 38 -20 78 -20 87 0 31 33 19 88 -32z m-164 -56 c9 -3 16 -17
16 -30 0 -22 -4 -24 -49 -24 -34 0 -56 -6 -76 -22 -26 -21 -27 -24 -22 -85 5
-52 3 -65 -9 -70 -47 -18 -67 78 -32 147 36 71 111 107 172 84z m-446 -109
c41 -89 -31 -211 -134 -231 -44 -8 -92 19 -73 42 6 8 27 14 46 14 44 0 100 26
115 53 6 12 8 45 5 78 -3 32 -2 60 1 63 12 13 29 5 40 -19z m979 -13 c-3 -10
-8 -25 -12 -34 -5 -14 -2 -18 12 -18 10 0 25 -6 32 -12 10 -11 15 -9 29 8 18
22 72 28 79 8 2 -6 -6 -21 -17 -34 -26 -30 -21 -44 18 -48 41 -4 46 -13 127
-197 98 -222 158 -324 310 -525 100 -132 146 -201 142 -214 -5 -20 -108 -63
-322 -135 -223 -76 -270 -84 -300 -51 -20 22 -18 27 17 44 18 9 22 19 20 44
-3 26 1 34 22 43 32 15 32 22 2 43 -14 9 -33 35 -44 58 -10 24 -44 69 -74 102
l-56 58 -69 -7 c-52 -5 -72 -3 -80 7 -6 7 -25 58 -43 113 -18 55 -43 121 -56
146 -12 25 -32 82 -43 125 -11 44 -27 99 -36 124 -9 25 -25 90 -35 145 -11 55
-23 112 -26 128 -5 22 -3 27 14 27 13 0 35 -23 68 -71 52 -76 62 -75 63 4 l1
38 30 -16 c38 -20 61 -20 53 1 -3 8 4 28 16 44 11 16 21 34 21 40 0 14 6 13
42 -6 30 -15 32 -15 45 2 7 10 13 26 13 36 0 16 3 17 21 7 13 -6 19 -17 16
-27z m1291 -9 c5 -10 12 -54 15 -97 8 -104 -5 -135 -75 -179 -103 -66 -431
-240 -550 -294 -156 -69 -167 -69 -230 16 -73 97 -71 101 75 169 226 104 445
222 642 346 49 31 95 56 102 56 7 0 16 -8 21 -17z m-1790 -17 c2 -10 -20 -44
-50 -79 -30 -34 -184 -222 -342 -417 -158 -195 -297 -362 -309 -370 -36 -25
-57 -49 -57 -65 0 -22 17 -18 63 14 106 75 296 35 405 -85 26 -29 58 -66 71
-84 20 -26 29 -31 65 -29 22 1 49 -2 58 -6 11 -4 20 0 28 14 14 27 26 27 33
-1 6 -21 7 -21 25 -5 23 21 32 22 32 2 0 -9 9 -15 23 -15 13 0 28 -5 35 -12 9
-9 13 -7 18 5 16 42 24 8 24 -100 0 -119 6 -154 64 -401 18 -77 28 -146 29
-215 l2 -102 -25 2 c-14 1 -40 5 -58 9 -28 5 -38 2 -62 -21 -27 -26 -131 -60
-144 -47 -12 11 -5 60 24 172 17 63 30 133 30 155 0 22 7 50 15 61 14 21 14
21 -23 8 -45 -16 -134 -18 -149 -3 -8 8 -17 8 -33 -1 -14 -7 -43 -9 -84 -5
-60 7 -64 6 -84 -20 -27 -34 -28 -86 -4 -108 25 -23 30 -14 25 37 -6 53 8 62
68 41 50 -18 89 -19 140 -3 29 8 45 8 64 0 41 -19 38 -41 -55 -382 l-23 -85
21 -69 c12 -38 22 -80 22 -93 0 -27 -2 -27 45 -7 42 17 85 13 174 -17 30 -11
65 -19 78 -19 77 0 -52 -56 -149 -65 -24 -2 -99 -11 -168 -19 -114 -15 -495
-35 -648 -36 -56 0 -63 2 -71 23 -5 12 -3 114 5 237 15 243 9 329 -32 486 -43
166 -46 178 -40 208 4 20 1 35 -11 48 -13 15 -14 21 -4 31 9 9 16 7 31 -13 16
-21 20 -23 25 -8 4 9 1 26 -5 37 -9 17 -8 22 5 27 9 4 21 2 28 -5 19 -19 39
-13 36 12 -6 40 9 50 41 27 15 -11 31 -20 34 -20 11 0 6 46 -6 58 -6 6 -9 15
-5 19 4 4 13 1 19 -5 17 -17 38 -15 38 3 0 9 -9 33 -20 55 -11 22 -20 42 -20
45 0 13 28 3 45 -15 18 -20 45 -27 45 -12 0 5 -7 17 -15 28 -19 25 -19 54 0
54 8 0 33 -16 55 -36 48 -44 61 -39 31 11 -42 72 -18 86 50 30 45 -38 71 -35
49 5 -18 34 2 49 39 27 56 -33 56 -13 0 48 -23 25 -39 48 -36 51 12 12 56 -6
108 -46 59 -44 73 -45 38 -2 -37 45 -102 91 -153 108 -59 20 -159 15 -183 -9
-16 -15 -15 -18 5 -40 27 -29 28 -63 3 -77 -53 -28 -91 2 -91 72 0 53 -10 60
-34 23 -17 -26 -46 -25 -46 3 0 32 36 91 61 102 26 11 49 47 49 77 0 13 -9 15
-62 9 -77 -8 -104 -31 -117 -99 -10 -57 -16 -65 -39 -51 -50 31 -1 154 77 194
55 27 96 26 127 -5 l25 -25 27 20 c33 26 88 94 109 135 20 38 38 55 58 55 20
0 42 47 29 60 -5 5 -31 13 -57 16 -45 6 -49 5 -83 -31 -37 -40 -41 -66 -19
-132 11 -35 -23 -43 -47 -13 -22 27 -21 97 3 161 14 38 47 56 121 66 33 4 41
1 67 -28 l31 -33 26 25 c42 39 46 61 14 81 -62 37 -40 175 37 232 33 24 112
32 136 14 31 -23 11 -45 -44 -50 -71 -7 -103 -34 -107 -89 -5 -60 6 -109 23
-109 8 0 32 21 52 48 141 177 308 372 317 369 6 -2 12 -11 14 -21z m1792 -302
c0 -9 -11 -29 -24 -45 -27 -31 -25 -61 7 -110 8 -13 18 -43 22 -67 7 -41 6
-43 -16 -40 -16 2 -33 22 -60 72 -20 38 -43 72 -50 76 -8 5 -58 -14 -131 -51
-98 -49 -118 -63 -118 -82 1 -32 52 -121 73 -125 28 -6 67 25 67 53 0 28 13
39 40 30 26 -8 35 -41 17 -68 -17 -26 -99 -72 -144 -80 -37 -7 -45 1 -88 87
-21 42 -36 62 -51 64 -12 2 -74 -22 -139 -53 -118 -57 -145 -62 -145 -27 0 14
30 32 131 77 113 50 432 218 539 284 42 25 70 27 70 5z m-131 -163 c8 -5 30
-40 50 -78 20 -38 46 -72 59 -78 55 -24 19 -54 -192 -159 -223 -111 -315 -147
-338 -135 -28 15 -22 24 37 48 73 30 79 43 52 111 -20 49 -26 55 -54 58 -46 5
-72 -13 -93 -64 -11 -24 -23 -44 -28 -44 -16 0 -51 46 -54 70 -3 22 6 28 105
67 84 34 112 41 127 33 11 -6 34 -40 52 -76 20 -41 40 -67 53 -70 26 -6 233
90 242 113 4 10 -6 39 -24 72 -26 47 -36 57 -61 59 -35 4 -72 -26 -72 -57 0
-34 -19 -33 -39 0 -26 42 -20 49 78 99 86 44 81 43 100 31z m135 -270 c17 -27
-17 -62 -116 -117 -119 -67 -305 -154 -330 -154 -31 0 -48 12 -48 34 0 19 24
34 168 100 92 42 194 92 227 111 61 35 89 42 99 26z m2 -1226 c-5 -696 -11
-1094 -17 -1100 -13 -13 -1109 -16 -1161 -3 -57 13 -52 4 -351 594 l-28 55 21
45 c12 25 30 77 40 116 10 39 23 75 28 80 5 5 27 4 55 -2 102 -26 187 39 187
143 0 84 -36 154 -94 181 -64 30 -66 35 -66 171 l0 123 84 -1 c71 -2 89 1 113
19 47 34 68 89 66 171 -1 45 2 75 10 81 7 5 108 42 225 81 274 91 529 193 717
286 120 59 152 71 164 62 12 -10 13 -162 7 -1102z m-1303 1051 c44 -18 95 -78
103 -122 15 -81 -49 -174 -122 -174 -75 0 -124 51 -124 129 0 32 6 44 31 65
17 14 39 26 50 26 20 0 69 -41 69 -59 0 -18 -33 -43 -51 -38 -15 4 -16 2 -7
-19 14 -30 35 -30 65 -2 36 34 25 101 -21 132 -81 52 -204 7 -256 -94 -51
-100 -47 -214 16 -481 23 -100 34 -171 34 -223 0 -73 -13 -102 -25 -53 -45
189 -106 482 -111 530 -15 155 72 350 171 385 43 15 140 14 178 -2z m-1410
-87 c47 -13 106 -63 123 -106 45 -106 -26 -223 -133 -223 -84 0 -143 57 -143
140 0 35 6 48 35 77 30 30 39 34 67 28 44 -10 68 -32 68 -65 0 -33 -22 -54
-49 -45 -26 8 -33 -7 -15 -33 20 -29 49 -28 79 3 29 28 33 80 10 125 -19 37
-43 50 -95 50 -115 0 -191 -101 -192 -255 0 -52 13 -119 50 -265 28 -107 56
-223 62 -258 14 -80 14 -316 0 -463 -13 -136 -17 -149 -37 -149 -14 0 -15 15
-7 133 19 276 0 453 -75 728 -23 81 -46 181 -52 222 -24 161 33 308 136 353
36 16 116 18 168 3z m-1344 -55 c22 -25 57 -79 78 -120 21 -40 44 -76 51 -79
6 -2 46 13 88 35 104 55 144 52 144 -12 0 -22 -6 -31 -27 -39 -70 -26 -103
-49 -176 -118 -42 -41 -79 -72 -81 -70 -2 2 -13 38 -25 79 -32 107 -79 215
-102 236 -19 17 -21 17 -44 -7 -14 -13 -55 -80 -93 -149 -38 -71 -74 -125 -82
-125 -8 0 -34 29 -57 65 -24 36 -49 66 -57 68 -8 2 -16 12 -19 22 -3 11 -25
29 -51 41 -33 17 -47 30 -51 50 -7 29 8 69 26 69 20 0 87 -40 143 -85 32 -26
61 -43 65 -39 4 5 29 41 55 79 56 82 122 145 153 145 13 0 37 -18 62 -46z
m834 -61 c-52 -155 -45 -234 46 -539 77 -260 94 -353 95 -529 1 -167 -5 -205
-33 -205 -18 0 -19 10 -18 153 1 213 -21 338 -103 592 -21 66 -46 156 -56 200
-38 177 -9 352 65 402 19 13 35 23 36 23 0 0 -14 -44 -32 -97z m106 22 c-55
-142 -50 -255 21 -485 81 -261 104 -386 104 -580 0 -154 -16 -250 -42 -250
-15 0 -17 18 -17 183 -1 211 -13 282 -101 590 -66 230 -78 300 -71 391 9 109
74 222 128 226 4 0 -6 -34 -22 -75z m116 48 c-34 -83 -48 -140 -52 -213 -5
-74 -1 -100 27 -205 71 -264 80 -304 96 -409 12 -82 15 -158 12 -300 -5 -200
-16 -263 -42 -235 -10 11 -11 33 -3 109 20 181 -12 407 -99 705 -77 263 -73
431 13 525 37 42 60 52 48 23z m-305 -20 c0 -5 -7 -30 -16 -58 -22 -67 -22
-248 -1 -335 9 -36 39 -137 67 -225 74 -234 93 -332 94 -502 1 -119 -2 -145
-15 -159 -15 -15 -17 -8 -24 98 -9 139 -56 373 -79 396 -16 16 -17 15 -12 -8
50 -226 72 -490 41 -490 -15 0 -15 -1 -40 175 -22 151 -56 275 -119 435 -90
226 -101 269 -101 400 0 108 2 118 29 167 16 29 37 60 47 69 18 16 19 16 19
-1 0 -9 -7 -45 -16 -79 -34 -128 -6 -295 89 -536 58 -147 60 -96 3 79 -59 180
-76 252 -76 327 0 100 57 254 95 254 8 0 15 -3 15 -7z m-241 -192 c-21 -111
-5 -176 155 -623 53 -148 76 -260 76 -369 0 -62 -3 -79 -15 -79 -9 0 -16 14
-20 38 -34 206 -69 324 -151 515 -121 281 -143 451 -72 564 30 50 42 29 27
-46z m-518 -41 c12 -30 22 -77 23 -105 l1 -50 -117 -3 c-65 -1 -118 0 -118 3
0 20 66 154 101 206 l42 62 24 -29 c13 -16 33 -54 44 -84z m2834 40 c22 -11
49 -33 59 -50 22 -39 23 -117 1 -160 -18 -35 -69 -70 -103 -70 -31 0 -77 25
-96 52 -16 23 -22 104 -8 125 11 18 77 26 102 13 32 -17 23 -53 -15 -60 -44
-8 -42 -44 2 -48 65 -6 96 70 51 123 -49 56 -136 35 -182 -44 -19 -32 -19 -41
-8 -170 17 -183 16 -246 -3 -265 -32 -32 -42 -9 -51 117 -5 67 -9 170 -9 228
0 98 2 108 27 146 50 76 150 103 233 63z m-1651 -82 c4 -54 22 -129 55 -231
27 -84 55 -181 62 -217 34 -176 -1 -650 -47 -650 -3 0 -2 107 1 238 8 270 -3
383 -56 582 -64 239 -81 346 -59 360 27 17 37 -2 44 -82z m-1579 49 c0 -1 7
-13 14 -27 51 -87 72 -132 69 -147 -3 -16 -54 -37 -69 -27 -13 8 -69 162 -69
190 0 24 3 25 27 19 16 -4 28 -7 28 -8z m815 -49 c0 -124 26 -221 121 -458 98
-244 131 -389 93 -404 -9 -3 -70 -6 -136 -6 -92 0 -118 3 -114 13 20 49 37
122 32 142 -16 64 -112 124 -178 111 -18 -4 -50 -18 -70 -31 -46 -30 -50 -31
-46 -4 3 23 7 25 71 53 66 28 84 107 46 196 -19 45 -20 50 -5 78 9 17 16 36
16 43 0 35 143 319 160 319 6 0 10 -24 10 -52z m-869 -77 c25 -68 50 -155 56
-199 4 -25 -1 -42 -22 -72 -64 -92 -44 -201 43 -237 20 -8 44 -22 54 -30 15
-14 15 -17 0 -51 -10 -21 -27 -47 -39 -59 -25 -25 -41 -75 -50 -153 -3 -30
-10 -63 -15 -72 -12 -25 -64 -24 -78 1 -12 23 -13 376 -3 730 7 254 9 261 54
142z m766 65 c-3 -8 -11 -32 -18 -55 -7 -23 -27 -59 -46 -80 l-34 -40 -29 17
c-41 23 -42 34 -13 77 38 56 156 125 140 81z m986 -192 c56 -161 79 -287 84
-474 6 -201 -14 -382 -47 -414 -20 -20 -20 -20 -20 29 0 28 7 127 16 220 23
255 6 415 -67 618 -22 63 -39 128 -39 151 l1 41 18 -35 c11 -20 35 -81 54
-136z m-1293 -144 c36 -6 95 -17 133 -26 58 -14 68 -20 74 -43 12 -47 7 -90
-12 -112 -19 -20 -25 -21 -115 -13 -119 10 -249 10 -367 -1 -90 -8 -91 -7
-117 18 -51 51 -26 157 37 157 12 0 45 7 72 14 60 17 205 20 295 6z m2682
-190 c74 -21 126 -105 112 -179 -10 -51 -57 -91 -106 -91 -77 0 -136 92 -91
142 18 21 53 24 71 6 18 -18 14 -36 -9 -43 -26 -9 -21 -39 8 -43 50 -7 70 103
23 128 -32 17 -84 12 -109 -11 -33 -31 -41 -61 -41 -154 0 -46 -4 -86 -9 -89
-12 -8 -31 80 -31 140 0 121 47 191 135 203 6 0 27 -4 47 -9z m-2627 -50 c9
-7 15 -23 13 -34 -2 -17 -9 -20 -33 -18 -16 2 -91 4 -165 5 -130 3 -135 3
-138 24 -3 17 3 24 25 29 15 3 33 8 38 10 6 2 62 2 127 1 80 -2 121 -7 133
-17z m256 -65 c32 -17 69 -69 69 -98 0 -22 -43 -67 -65 -67 -8 0 -29 14 -47
30 -17 17 -36 29 -42 27 -6 -2 -19 -19 -28 -38 -22 -43 -23 -126 -2 -179 16
-40 34 -53 34 -25 0 12 17 15 98 15 119 0 141 -10 70 -32 -83 -25 -111 -29
-145 -19 -29 9 -33 7 -33 -10 0 -19 28 -53 49 -60 12 -5 -2 -330 -20 -457 -6
-41 -8 -76 -6 -79 21 -21 57 132 57 243 0 67 13 84 63 84 23 -1 55 -6 70 -13
l28 -12 -50 -95 c-122 -233 -155 -285 -184 -288 -33 -4 -35 13 -4 38 35 29 15
33 -52 10 -33 -11 -83 -20 -110 -20 -34 0 -51 -4 -55 -15 -8 -21 -497 -23
-515 -1 -8 9 -11 86 -9 256 3 219 5 244 21 254 24 15 50 -3 58 -40 18 -90 70
-106 466 -151 29 -3 65 -1 84 6 25 9 34 8 41 -1 11 -18 10 -120 -2 -138 -8
-13 -13 -13 -41 3 -56 31 -107 19 -134 -33 -23 -44 -19 -83 11 -111 l27 -24
-7 25 c-18 64 -18 87 -1 103 28 29 69 21 100 -18 23 -31 29 -34 42 -23 63 52
59 187 -14 461 -23 87 -27 122 -28 242 0 136 1 141 28 188 42 71 112 96 178
62z m-319 -26 c86 -18 87 -20 81 -172 -5 -116 -2 -147 21 -261 15 -71 25 -135
22 -143 -9 -21 -59 -15 -101 14 -43 28 -50 38 -77 96 l-18 39 57 -4 c54 -3 58
-1 70 23 20 41 0 83 -52 113 -31 19 -50 40 -69 78 -14 28 -26 58 -26 65 0 20
-17 15 -23 -7 -8 -29 -32 -24 -58 11 -24 35 -45 27 -31 -12 16 -42 6 -49 -64
-42 -54 5 -67 3 -85 -13 l-21 -19 4 65 c2 36 13 83 24 105 16 33 28 43 69 57
59 20 198 24 277 7z m653 -239 c8 -7 12 -16 9 -21 -6 -10 -403 -13 -428 -3 -9
3 -16 15 -16 27 0 20 3 20 211 14 140 -4 215 -9 224 -17z m-931 -35 c0 -22
-11 -76 -23 -120 -17 -61 -21 -95 -17 -145 6 -74 -1 -93 -35 -88 -36 5 -53 50
-51 138 1 107 20 173 52 180 19 5 25 12 23 31 -3 38 5 51 29 47 20 -3 23 -9
22 -43z m114 -15 c2 -19 -3 -82 -12 -140 -9 -58 -17 -130 -19 -160 -2 -52 -4
-55 -29 -58 -49 -6 -68 26 -68 116 0 82 23 181 43 187 50 14 49 13 31 40 -13
21 -14 28 -4 41 7 8 23 14 34 12 16 -2 22 -11 24 -38z m897 -382 c-26 -124
-100 -191 -240 -217 -107 -20 -127 -12 -82 32 14 15 51 29 105 42 71 16 87 23
108 50 13 18 24 35 24 39 0 9 42 69 55 78 24 18 37 8 30 -24z m68 -53 c-9 -81
16 -135 100 -222 42 -43 79 -73 91 -73 11 0 55 15 99 33 96 39 151 89 170 155
l14 45 30 -66 c22 -46 40 -70 62 -81 53 -28 56 -17 8 29 -45 43 -47 47 -47
101 0 51 2 55 22 52 17 -2 25 -14 35 -47 16 -54 36 -78 88 -102 22 -10 47 -24
57 -31 13 -9 29 -6 82 16 67 29 116 73 116 106 0 10 9 28 19 41 l19 24 7 -36
c4 -20 2 -54 -4 -77 -9 -33 -22 -48 -69 -80 -92 -63 -121 -75 -164 -69 -21 3
-38 1 -38 -4 0 -15 41 -31 65 -25 30 8 197 106 210 123 6 8 19 43 29 78 28
100 66 115 66 27 0 -29 8 -59 20 -79 22 -37 153 -118 205 -127 102 -20 247 86
278 202 6 23 16 41 21 39 6 -2 22 -26 36 -53 32 -63 84 -98 183 -124 113 -30
179 -65 175 -93 l-3 -22 -1235 0 -1235 0 -3 22 c-7 45 33 80 119 108 44 14 86
25 93 25 33 0 118 33 146 57 18 14 43 51 56 82 24 54 59 101 75 101 4 0 5 -25
2 -55z m140 34 c27 -12 50 -45 42 -59 -9 -15 -36 -12 -56 5 -15 14 -18 14 -33
-1 -15 -14 -15 -19 -3 -37 31 -47 94 -37 112 18 21 64 45 70 45 11 0 -66 74
-114 110 -71 17 21 0 39 -37 40 -18 0 -29 6 -31 18 -13 65 111 62 138 -4 26
-63 -26 -133 -142 -192 -77 -39 -103 -36 -154 18 -95 99 -133 214 -82 249 26
19 58 20 91 5z m1549 -62 c30 -62 65 -90 133 -107 72 -19 102 -37 113 -69 6
-17 8 -31 4 -31 -33 1 -240 73 -253 89 -26 32 -72 149 -65 166 11 31 41 10 68
-48z m-178 8 c56 -52 24 -131 -83 -203 -92 -62 -98 -62 -207 -8 -105 52 -130
82 -121 143 9 53 23 63 83 63 53 0 54 -1 54 -29 0 -26 -3 -28 -37 -27 -41 1
-56 -22 -33 -49 20 -24 86 -19 104 7 21 29 20 67 0 90 -15 16 -15 18 -1 24 8
3 28 4 43 2 22 -2 31 -10 37 -33 15 -49 23 -59 51 -70 35 -12 60 3 64 40 4 27
3 28 -37 21 -47 -7 -57 12 -19 38 32 23 71 20 102 -9z"/>
<path d="M1463 9250 c-95 -20 -158 -80 -193 -186 -79 -234 32 -478 426 -940
114 -132 135 -150 159 -137 12 8 108 115 221 248 155 183 293 403 340 545 39
116 21 288 -39 373 -55 80 -164 118 -276 98 -101 -19 -150 -50 -222 -141 l-40
-51 -42 53 c-54 69 -72 84 -132 113 -57 28 -141 38 -202 25z"/>
<path d="M3385 8713 c-38 -8 -81 -17 -95 -20 l-25 -5 28 -24 c35 -30 64 -30
163 -3 56 15 97 20 150 17 62 -3 71 -1 61 11 -35 42 -149 52 -282 24z"/>
<path d="M3392 8585 c-17 -14 -37 -25 -46 -25 -17 0 -76 -84 -76 -108 0 -28
62 -123 87 -133 33 -12 33 -13 33 21 0 17 3 30 8 30 168 5 178 6 230 33 29 15
50 32 47 38 -4 5 -27 20 -53 33 -53 27 -95 66 -70 66 8 0 23 -7 34 -15 10 -8
32 -15 49 -15 29 0 29 1 -20 35 -49 35 -128 65 -171 65 -12 0 -36 -11 -52 -25z"/>
<path d="M3038 7906 c-60 -12 -88 -28 -69 -41 19 -11 172 -21 246 -15 22 2 70
-1 108 -5 66 -8 67 -7 67 16 0 43 -13 53 -52 40 -28 -9 -42 -8 -71 4 -42 17
-144 18 -229 1z"/>
<path d="M2011 7235 c0 -16 6 -61 12 -100 12 -66 14 -70 45 -79 30 -8 36 -7
57 20 27 34 27 36 -54 124 -59 64 -60 64 -60 35z"/>
<path d="M2380 6970 c0 -8 7 -60 15 -115 8 -55 15 -103 15 -107 0 -4 7 -5 15
-2 8 4 26 -1 40 -10 24 -16 26 -16 34 7 5 12 16 29 25 36 9 7 16 19 16 27 0 7
-36 50 -80 96 -44 45 -80 76 -80 68z"/>
<path d="M2714 6506 c-3 -14 -3 -33 0 -42 3 -9 1 -34 -5 -56 -13 -52 2 -92 42
-108 35 -15 59 -7 59 19 0 11 9 26 20 34 20 14 20 16 -35 93 -31 44 -61 80
-66 82 -4 2 -11 -8 -15 -22z"/>
<path d="M4461 7158 c-1 -9 -17 -38 -37 -64 -45 -59 -58 -95 -50 -139 9 -46
20 -50 60 -26 29 18 34 28 40 73 8 70 7 128 -4 153 -7 16 -9 17 -9 3z"/>
<path d="M4123 6690 c-29 -42 -53 -81 -53 -86 0 -5 14 -24 31 -42 27 -30 32
-32 47 -19 9 7 25 17 35 20 20 7 21 32 4 133 l-12 72 -52 -78z"/>
<path d="M3911 6227 c-7 -19 -27 -60 -46 -91 l-34 -57 33 -33 32 -33 38 21
c33 19 37 24 31 51 -3 17 -11 60 -18 97 -7 36 -15 69 -19 73 -3 3 -11 -9 -17
-28z"/>
<path d="M4142 6145 c-23 -41 -42 -81 -42 -88 0 -17 45 -67 60 -67 5 0 10 5
10 10 0 6 11 15 25 20 17 7 25 17 25 34 0 21 -28 157 -33 163 -1 1 -21 -32
-45 -72z"/>
<path d="M3978 5687 c-8 -34 -26 -86 -39 -115 l-23 -53 19 -36 c31 -57 47 -62
88 -27 20 16 36 37 36 46 1 16 -56 239 -63 245 -1 1 -9 -26 -18 -60z"/>
<path d="M4728 6846 c-32 -16 -68 -91 -68 -144 0 -35 6 -49 29 -73 27 -26 36
-29 95 -29 56 0 67 3 80 22 21 30 20 51 -4 73 -11 10 -28 44 -36 74 -9 31 -21
61 -26 67 -14 18 -44 23 -70 10z"/>
<path d="M4777 5809 c-67 -16 -77 -25 -77 -73 0 -58 33 -105 93 -135 46 -23
48 -23 68 -5 16 14 19 26 14 51 -5 27 -1 38 20 58 16 16 25 37 25 56 0 25 -6
33 -35 45 -38 16 -53 16 -108 3z"/>
<path d="M2798 4996 l-37 -35 14 -48 c9 -26 23 -76 31 -110 9 -35 20 -63 25
-63 4 0 13 19 19 43 6 23 22 66 35 95 14 29 25 60 25 70 0 14 -59 82 -72 82
-1 0 -20 -15 -40 -34z"/>
<path d="M2643 4456 c-40 -26 -43 -34 -33 -82 4 -22 11 -60 15 -86 7 -52 19
-62 31 -25 4 12 22 46 40 75 39 60 41 71 17 93 -10 9 -22 23 -28 31 -9 13 -14
13 -42 -6z"/>
<path d="M2891 4422 c-34 -28 -34 -28 -23 -78 6 -27 14 -76 18 -109 l6 -60 34
73 c18 40 43 86 54 102 l21 30 -34 35 c-19 19 -36 35 -38 35 -3 0 -20 -13 -38
-28z"/>
<path d="M2675 3918 c-11 -6 -27 -14 -35 -18 -8 -4 -14 -16 -12 -26 1 -11 6
-57 10 -104 l7 -85 59 87 58 87 -28 35 c-32 40 -31 39 -59 24z"/>
<path d="M2409 3541 c-9 -9 -24 -21 -34 -27 -16 -9 -20 -26 -23 -115 l-4 -104
57 84 57 84 -13 41 c-16 52 -21 56 -40 37z"/>
<path d="M3369 5345 c-19 -39 -38 -70 -44 -69 -5 0 -24 27 -42 60 -19 36 -38
59 -49 59 -10 0 -28 -21 -45 -54 -24 -45 -29 -66 -29 -125 0 -62 5 -79 33
-130 18 -33 38 -61 44 -63 6 -2 27 30 48 72 43 87 51 87 89 0 39 -87 49 -87
93 -4 21 40 42 73 47 73 5 1 25 -28 45 -64 20 -36 41 -65 46 -64 23 2 68 107
72 168 5 52 2 70 -20 112 -14 27 -34 60 -45 74 l-20 25 -38 -78 c-21 -42 -42
-77 -46 -77 -4 0 -20 23 -36 51 -15 28 -37 63 -48 78 l-22 26 -33 -70z"/>
<path d="M4330 3716 c0 -7 -9 -21 -20 -31 -12 -10 -19 -24 -18 -31 3 -13 150
-186 154 -181 5 5 -28 232 -34 238 -4 4 -24 9 -44 12 -27 4 -38 2 -38 -7z"/>
<path d="M4718 3399 c-10 -5 -23 -19 -29 -30 -9 -17 -1 -32 58 -104 37 -46 69
-83 70 -81 2 2 -1 38 -7 82 -19 148 -18 144 -48 144 -15 0 -35 -5 -44 -11z"/>
<path d="M3428 2589 c-3 -31 -6 -34 -41 -39 l-37 -5 46 -37 c51 -41 69 -42 53
-1 -21 55 8 64 139 41 54 -9 88 -9 159 2 102 14 119 21 110 44 -5 14 -27 16
-140 16 -74 0 -168 3 -210 6 l-76 7 -3 -34z"/>
<path d="M3435 2119 l7 -32 -39 6 c-21 4 -68 2 -103 -4 -65 -10 -160 -45 -160
-59 0 -5 16 -17 35 -29 19 -11 35 -25 35 -31 0 -6 -4 -8 -10 -5 -5 3 -10 0
-10 -8 0 -22 52 -65 100 -82 74 -26 110 -23 168 15 29 18 52 37 52 41 0 4 12
21 26 38 l26 31 -22 55 c-24 58 -59 95 -92 95 -17 0 -19 -5 -13 -31z"/>
<path d="M3350 1799 c-47 -13 -98 -18 -137 -16 -53 2 -60 1 -50 -12 37 -44
112 -50 272 -21 60 11 111 20 114 20 2 0 -6 11 -19 25 -29 31 -71 31 -180 4z"/>
<path d="M4958 2488 c-21 -17 -251 -287 -309 -363 -171 -223 -269 -434 -269
-580 0 -58 23 -145 51 -195 97 -175 373 -169 505 12 20 26 41 48 47 48 7 -1
28 -23 47 -50 83 -117 196 -160 339 -129 108 23 178 114 201 262 30 194 -80
422 -379 782 -121 146 -194 225 -207 225 -6 0 -17 -6 -26 -12z"/>
<path d="M418 8648 c-107 -29 -138 -180 -66 -325 35 -69 141 -215 225 -308
l52 -58 53 58 c121 132 223 279 253 364 8 24 15 71 15 105 0 108 -53 168 -149
168 -55 0 -80 -11 -135 -59 l-38 -35 -28 30 c-50 55 -118 77 -182 60z"/>
<path d="M6103 2454 c-142 -161 -227 -299 -242 -393 -9 -59 1 -133 25 -169 29
-44 125 -66 188 -42 14 5 43 26 66 46 l41 37 37 -35 c50 -48 72 -58 128 -58
96 0 149 65 149 181 0 55 -6 77 -38 143 -60 121 -245 356 -280 356 -9 0 -42
-30 -74 -66z"/>
<path d="M5893 1680 c-18 -7 -23 -18 -23 -44 0 -31 4 -36 28 -42 70 -15 58 6
163 -289 39 -110 71 -216 71 -235 0 -26 -18 -65 -71 -152 -39 -64 -78 -122
-87 -129 -8 -7 -32 -15 -52 -18 -35 -6 -37 -8 -37 -46 l0 -40 109 -3 c120 -3
141 5 132 47 -18 88 -22 77 87 250 57 91 108 166 115 169 9 3 12 -41 12 -178
l0 -181 -30 -10 c-34 -12 -44 -36 -31 -73 10 -26 11 -26 114 -26 112 0 127 6
127 51 0 22 -8 31 -37 46 l-38 18 -3 378 c-1 218 2 385 7 395 5 9 24 21 43 28
29 9 33 15 33 45 0 33 -2 34 -45 41 -57 8 -149 9 -177 2 -35 -10 -38 -78 -2
-89 38 -12 49 -34 49 -99 0 -100 -51 -219 -119 -281 -19 -16 -24 -17 -31 -5
-15 24 -120 330 -120 349 0 10 9 26 19 35 25 23 32 51 16 73 -10 14 -31 18
-106 20 -52 2 -104 -1 -116 -7z"/>
</g>
</svg>
