<svg version="1.0" xmlns="http://www.w3.org/2000/svg"
 width="691.000000pt" height="1056.000000pt" viewBox="0 0 691.000000 1056.000000"
 preserveAspectRatio="xMidYMid meet">
<g transform="translate(0.000000,1056.000000) scale(0.100000,-0.100000)"
fill="#000000" stroke="none">
<path d="M421 9996 c-15 -17 -18 -1063 -3 -1078 5 -5 25 -8 43 -6 l34 3 3 548
2 547 -34 0 c-18 0 -39 -6 -45 -14z"/>
<path d="M740 9991 c-56 -17 -91 -43 -112 -84 -22 -41 -23 -55 -29 -427 -5
-237 -4 -402 2 -429 14 -61 42 -97 102 -128 130 -65 295 -6 332 120 12 41 15
119 15 416 0 236 -4 380 -11 406 -14 51 -73 110 -124 124 -45 12 -137 13 -175
2z m145 -95 c18 -8 42 -27 52 -42 17 -26 18 -53 15 -399 -3 -254 -7 -378 -15
-394 -29 -60 -116 -87 -181 -56 -67 32 -67 32 -64 450 3 361 4 374 24 402 39
53 101 67 169 39z"/>
<path d="M1890 9176 c-76 -29 -159 -76 -182 -105 -122 -144 -107 -351 36 -508
61 -67 53 -87 -23 -54 -77 33 -188 30 -266 -8 -111 -52 -182 -163 -192 -301
-16 -209 120 -384 309 -398 127 -9 151 0 237 86 53 53 82 92 95 125 10 26 24
47 32 47 20 0 13 -126 -9 -160 -9 -14 -25 -63 -37 -109 -12 -46 -35 -113 -51
-148 -16 -36 -29 -74 -29 -85 0 -19 4 -20 58 -13 65 8 207 8 270 -1 55 -8 55
-1 -2 141 -57 141 -86 253 -86 328 0 53 2 58 16 46 9 -7 29 -39 45 -71 39 -77
86 -127 151 -164 47 -25 63 -29 133 -28 66 0 90 5 137 27 74 36 130 94 170
175 31 62 33 73 33 172 0 93 -3 112 -26 161 -35 73 -90 134 -153 167 -44 23
-63 27 -141 27 -64 0 -104 -5 -138 -18 -26 -10 -52 -17 -58 -15 -7 2 11 30 40
62 97 112 139 219 127 326 -14 118 -107 235 -224 281 -70 28 -218 36 -272 15z"/>
<path d="M4816 9164 c-46 -11 -89 -29 -125 -54 -116 -79 -145 -134 -146 -274
0 -127 14 -166 99 -272 70 -87 68 -99 -13 -67 -32 13 -71 18 -131 18 -72 -1
-93 -5 -136 -27 -66 -35 -137 -114 -165 -186 -32 -82 -33 -217 -1 -287 38 -83
82 -144 127 -175 74 -51 202 -73 285 -50 51 14 136 93 193 180 l49 75 -5 -85
c-6 -96 -31 -185 -88 -311 -22 -48 -39 -96 -39 -108 0 -18 4 -20 28 -14 37 9
281 10 315 0 25 -7 27 -5 27 22 0 15 -15 62 -33 102 -60 132 -97 270 -97 362
0 35 2 38 16 27 8 -8 33 -43 54 -80 43 -73 97 -128 159 -160 30 -15 59 -20
117 -20 68 0 83 4 145 36 82 43 121 85 163 174 29 60 31 73 31 170 0 94 -3
111 -27 160 -38 78 -89 134 -150 164 -43 22 -66 26 -133 26 -44 0 -95 -4 -113
-10 -17 -5 -45 -14 -62 -19 -44 -14 -39 8 15 65 121 131 154 297 85 439 -70
144 -259 220 -444 179z"/>
<path d="M613 8780 c-62 -38 -82 -130 -43 -202 16 -31 17 -38 5 -48 -8 -6 -18
-9 -23 -6 -15 9 -86 -15 -110 -37 -35 -33 -52 -71 -52 -119 0 -58 28 -108 76
-135 66 -38 124 -27 182 34 l34 37 -7 -44 c-4 -25 -17 -68 -30 -97 l-23 -51
21 -6 c12 -3 48 -6 81 -6 l58 0 -6 34 c-4 19 -13 47 -20 62 -19 41 -29 104
-16 104 5 0 10 -7 10 -15 0 -28 89 -75 140 -75 39 0 51 5 77 33 43 45 53 69
53 127 0 92 -49 150 -127 150 -52 0 -59 12 -38 63 33 78 13 158 -48 196 -47
29 -148 29 -194 1z"/>
<path d="M3345 8186 c-166 -40 -268 -165 -269 -326 0 -105 23 -166 100 -262
35 -43 64 -82 64 -87 0 -4 -26 1 -57 12 -79 26 -225 21 -298 -11 -96 -42 -174
-187 -175 -322 0 -87 13 -131 66 -220 37 -61 55 -81 97 -105 181 -103 334 -63
451 120 67 103 76 109 76 52 0 -80 -45 -221 -146 -463 -3 -7 57 -10 191 -10
107 0 195 3 195 7 0 3 -15 40 -34 80 -18 41 -45 109 -59 152 -30 87 -52 236
-38 250 5 5 26 -17 51 -55 92 -137 166 -188 276 -188 164 0 284 94 336 263 26
86 22 198 -10 269 -28 65 -107 146 -167 174 -60 28 -165 32 -241 9 -92 -28
-96 -15 -24 70 61 72 87 123 101 200 47 256 -205 459 -486 391z"/>
<path d="M1880 7216 c-104 -30 -204 -105 -241 -180 -12 -25 -23 -71 -26 -116
-9 -124 27 -218 127 -330 22 -24 37 -47 32 -51 -4 -4 -34 1 -67 13 -76 26
-193 28 -249 4 -91 -38 -157 -118 -196 -235 -34 -101 -17 -215 45 -316 36 -58
87 -105 148 -137 61 -33 194 -33 255 0 69 37 116 86 162 172 24 44 49 80 57
80 22 0 15 -97 -13 -175 -14 -38 -39 -113 -56 -165 -17 -52 -39 -112 -50 -133
-11 -22 -18 -40 -16 -42 9 -7 378 -12 378 -5 0 5 -15 46 -33 92 -78 193 -110
320 -98 381 l7 32 59 -90 c46 -68 74 -100 118 -130 59 -40 59 -40 155 -40 85
0 103 3 147 27 91 47 171 154 195 257 36 156 -39 334 -171 406 -74 40 -187 47
-274 16 -32 -12 -63 -21 -67 -21 -19 0 -4 27 46 81 30 32 67 84 83 116 24 51
28 69 28 148 0 78 -4 98 -28 150 -36 76 -86 129 -162 168 -53 27 -71 31 -155
34 -57 1 -113 -3 -140 -11z"/>
<path d="M4810 7207 c-205 -48 -324 -229 -277 -422 19 -75 58 -143 118 -205
63 -65 54 -72 -44 -39 -48 16 -79 20 -137 17 -126 -7 -221 -74 -279 -197 -23
-49 -26 -68 -26 -161 0 -121 8 -147 74 -239 38 -51 58 -69 113 -97 58 -29 77
-34 140 -34 57 0 85 6 128 26 67 31 138 104 173 178 29 62 43 74 51 48 12 -37
-13 -141 -77 -324 l-66 -188 77 6 c42 3 82 7 89 9 6 2 57 -1 113 -7 55 -6 103
-8 106 -5 3 3 -15 51 -40 107 -52 113 -101 280 -92 315 3 13 2 27 -4 30 -13 8
-13 75 -1 75 13 0 41 -40 41 -58 0 -7 12 -30 27 -50 52 -71 99 -114 157 -144
52 -26 68 -30 125 -26 166 9 317 156 336 328 18 160 -71 331 -202 386 -52 23
-181 22 -257 0 -32 -9 -60 -15 -62 -13 -3 3 16 29 41 58 93 108 126 185 126
296 0 112 -46 201 -137 264 -92 63 -229 90 -334 66z"/>
<path d="M1793 4984 c-5 -14 49 -185 93 -292 36 -87 42 -133 21 -150 -17 -14
-25 -7 -70 55 -75 103 -160 153 -260 153 -54 0 -76 -6 -135 -35 -84 -42 -133
-94 -175 -184 -28 -58 -32 -77 -32 -151 0 -116 24 -186 87 -256 90 -98 204
-132 328 -99 114 30 114 30 102 9 -6 -11 -34 -46 -62 -78 -128 -146 -140 -329
-32 -464 55 -69 55 -68 162 -110 80 -30 90 -32 170 -26 152 11 267 79 322 192
29 59 33 76 33 152 0 74 -4 93 -31 150 -17 36 -54 92 -82 124 -29 33 -52 63
-52 69 0 11 27 5 85 -17 52 -20 158 -20 223 -1 81 24 131 69 177 159 39 77 40
81 40 185 0 95 -3 112 -28 165 -41 88 -88 140 -159 175 -51 26 -73 31 -133 31
-39 0 -93 -7 -119 -16 -62 -21 -149 -101 -180 -167 -13 -29 -31 -61 -39 -72
-15 -20 -16 -19 -22 6 -13 52 27 210 94 377 23 57 41 108 39 114 -6 16 -359
17 -365 2z"/>
<path d="M5010 4979 c-19 -4 -97 -6 -172 -3 -83 3 -138 2 -138 -4 0 -5 23 -66
50 -135 28 -69 58 -159 67 -199 19 -83 23 -166 8 -170 -5 -2 -23 24 -40 57
-35 71 -104 144 -166 176 -60 31 -169 37 -238 14 -68 -22 -148 -97 -192 -177
-33 -62 -34 -65 -34 -184 0 -113 2 -124 29 -177 52 -103 134 -158 264 -177 68
-9 76 -8 154 20 45 16 83 28 85 26 2 -1 -23 -32 -55 -67 -111 -123 -140 -196
-128 -318 11 -103 23 -135 73 -191 69 -77 187 -132 282 -131 128 1 244 44 311
117 66 72 84 122 85 234 0 88 -2 100 -32 155 -17 33 -54 86 -82 118 -44 50
-61 77 -48 77 2 0 30 -9 63 -21 38 -14 86 -22 134 -23 67 -1 84 3 143 32 213
105 254 410 81 602 -20 22 -65 54 -100 71 -58 29 -70 31 -137 27 -124 -8 -228
-83 -292 -210 -43 -84 -59 -88 -52 -12 9 99 33 186 91 332 31 77 56 143 56
146 0 8 -26 6 -70 -5z"/>
<path d="M3243 3986 c3 -12 33 -99 66 -194 48 -138 61 -186 61 -234 0 -34 -4
-57 -9 -53 -6 3 -40 49 -77 101 -62 90 -71 98 -133 127 -114 52 -225 36 -336
-48 -122 -94 -172 -323 -100 -464 36 -73 100 -140 160 -167 66 -32 179 -33
266 -4 34 12 64 19 66 16 3 -3 -25 -42 -61 -88 -37 -46 -75 -107 -87 -138 -26
-70 -28 -168 -5 -238 24 -70 98 -151 173 -187 32 -16 66 -32 75 -37 31 -15
172 -9 246 11 107 28 158 69 207 166 38 76 40 83 39 170 -1 80 -5 97 -34 155
-17 36 -55 89 -83 118 -28 28 -48 52 -44 52 4 0 49 -7 99 -16 112 -19 186 -14
251 20 71 35 96 62 136 146 34 71 36 80 36 180 0 97 -2 110 -31 170 -32 65
-97 150 -116 150 -5 0 -21 8 -34 19 -32 25 -142 45 -207 37 -85 -11 -141 -54
-212 -163 -33 -51 -63 -92 -67 -92 -11 -1 -14 60 -5 118 8 53 42 155 98 286
16 39 29 77 29 85 0 13 -27 15 -186 16 -183 1 -186 0 -181 -20z"/>
<path d="M1807 2940 c73 -197 86 -244 90 -330 4 -97 10 -99 -72 25 -47 69
-120 128 -182 145 -24 7 -71 11 -106 8 -120 -10 -223 -86 -280 -206 -29 -61
-32 -75 -32 -168 0 -96 2 -103 38 -176 43 -87 95 -139 165 -162 81 -28 253
-16 283 20 13 16 49 19 49 5 0 -5 -26 -36 -59 -68 -108 -108 -141 -221 -111
-384 10 -57 19 -78 55 -121 36 -44 59 -60 131 -92 l88 -38 110 4 c96 4 118 8
164 32 118 60 185 154 197 277 10 105 -20 185 -114 309 -27 36 -48 66 -46 68
1 2 35 -7 75 -19 180 -54 334 12 413 179 29 61 32 76 32 167 0 89 -3 106 -28
157 -40 82 -115 160 -179 188 -123 53 -272 18 -368 -86 -26 -30 -54 -71 -61
-91 -23 -73 -49 -85 -49 -23 0 95 52 261 146 465 3 7 -63 10 -190 10 l-194 0
35 -95z"/>
<path d="M4687 3016 c-4 -9 12 -53 33 -98 22 -46 43 -105 46 -133 3 -27 17
-78 31 -113 18 -46 23 -78 21 -120 l-3 -57 -70 105 c-48 72 -84 114 -115 135
-43 29 -50 30 -150 30 -94 0 -110 -3 -155 -27 -77 -41 -150 -127 -178 -212
-21 -60 -22 -174 -3 -236 31 -102 100 -186 180 -221 90 -38 223 -35 305 7 16
8 27 10 29 4 4 -11 -61 -91 -122 -151 -38 -38 -39 -41 -47 -131 -14 -160 14
-246 103 -319 65 -55 114 -78 198 -95 55 -10 77 -10 137 2 107 22 150 39 202
83 90 75 137 224 107 338 -23 93 -32 108 -101 187 -58 67 -76 96 -60 96 3 0
33 -14 68 -31 57 -29 67 -31 133 -25 87 7 166 35 216 76 47 39 94 126 108 198
13 69 13 177 1 200 -5 9 -19 38 -31 64 -27 60 -102 139 -160 169 -40 21 -59
24 -159 24 l-113 0 -67 -71 c-37 -39 -82 -99 -100 -133 -18 -34 -37 -59 -42
-56 -24 16 7 198 51 300 52 119 80 191 80 208 0 15 -6 17 -37 11 -51 -10 -197
-10 -269 -1 -51 6 -63 5 -67 -7z"/>
<path d="M6110 2496 c0 -8 11 -49 25 -90 34 -102 33 -120 -6 -73 -74 89 -168
90 -236 0 -23 -30 -28 -46 -27 -88 3 -99 53 -155 140 -155 60 0 68 -11 35 -48
-29 -35 -35 -106 -11 -152 29 -56 96 -94 158 -88 56 5 129 48 142 84 17 44 12
114 -11 151 -12 19 -18 37 -15 40 4 4 33 9 65 11 74 5 109 36 122 107 14 75 2
120 -42 159 -68 62 -136 58 -204 -12 l-35 -36 0 26 c0 15 9 50 20 78 30 77 28
90 -19 90 -21 0 -53 3 -70 6 -24 5 -31 3 -31 -10z"/>
<path d="M5950 1654 c-46 -20 -77 -50 -103 -99 -21 -39 -22 -52 -25 -444 l-3
-404 32 -48 c43 -61 84 -81 186 -87 70 -4 88 -1 128 18 29 14 56 38 73 63 l27
41 3 421 3 422 -33 43 c-48 63 -105 90 -187 90 -36 -1 -82 -8 -101 -16z m153
-85 c26 -7 44 -21 57 -42 19 -30 20 -53 20 -392 0 -209 -4 -375 -10 -396 -16
-58 -42 -74 -120 -74 -58 0 -72 4 -94 24 -47 44 -50 69 -43 443 7 408 8 412
97 441 25 9 53 7 93 -4z"/>
<path d="M6376 1652 c-10 -17 -15 -1056 -5 -1074 6 -12 22 -18 44 -18 28 0 36
5 40 23 3 12 4 258 3 547 l-3 525 -37 3 c-20 2 -39 -1 -42 -6z"/>
</g>
</svg>
