<svg version="1.0" xmlns="http://www.w3.org/2000/svg"
 width="691.000000pt" height="1056.000000pt" viewBox="0 0 691.000000 1056.000000"
 preserveAspectRatio="xMidYMid meet">
<g transform="translate(0.000000,1056.000000) scale(0.100000,-0.100000)"
fill="#000000" stroke="none">
<path d="M320 9955 c-18 -22 -7 -1059 11 -1081 17 -21 66 -18 79 6 7 13 9 171
5 497 -5 491 -9 573 -29 585 -19 13 -53 9 -66 -7z"/>
<path d="M625 9945 c-67 -27 -100 -61 -116 -118 -6 -24 -9 -178 -7 -425 l3
-388 25 -49 c62 -119 260 -144 364 -47 65 61 66 66 66 500 0 366 -1 395 -19
430 -25 48 -44 65 -111 96 -70 33 -127 33 -205 1z m176 -91 c57 -29 59 -46 59
-455 l0 -371 -34 -34 c-40 -40 -102 -49 -166 -23 -54 21 -55 23 -58 433 -3
408 -1 425 47 451 35 19 115 19 152 -1z"/>
<path d="M4703 9115 c-28 -29 -61 -68 -73 -86 -13 -19 -147 -187 -297 -375
-160 -200 -273 -349 -273 -362 0 -25 685 -866 709 -869 11 -2 117 125 316 378
397 503 387 490 382 510 -6 22 -683 845 -701 852 -7 3 -35 -18 -63 -48z"/>
<path d="M1737 8730 c-186 -231 -343 -432 -349 -445 -14 -32 -40 1 365 -488
223 -269 334 -397 345 -395 9 2 60 58 112 124 52 67 203 257 335 423 132 166
242 306 243 312 2 5 1 20 -2 32 -5 23 -684 848 -702 854 -5 2 -162 -186 -347
-417z"/>
<path d="M487 8570 c-76 -94 -137 -177 -137 -184 0 -14 264 -338 280 -344 9
-3 280 334 280 348 0 5 -21 35 -47 67 -91 112 -234 283 -237 283 -1 0 -64 -77
-139 -170z"/>
<path d="M3328 8053 c-46 -54 -125 -152 -175 -218 -49 -66 -165 -212 -256
-324 -123 -149 -167 -211 -167 -230 1 -18 31 -62 101 -146 56 -66 195 -237
311 -380 115 -143 223 -275 241 -293 63 -67 33 -96 412 380 190 238 345 440
345 450 0 9 -64 95 -142 191 -437 531 -553 667 -569 667 -9 0 -55 -44 -101
-97z"/>
<path d="M4728 7127 c-18 -23 -161 -202 -318 -396 -338 -419 -330 -408 -330
-444 0 -27 56 -109 99 -144 8 -7 22 -25 32 -40 10 -16 32 -44 49 -63 47 -54
122 -143 150 -180 23 -30 42 -54 98 -120 11 -14 49 -59 83 -100 34 -41 68 -79
74 -85 7 -5 23 -26 36 -45 37 -54 71 -90 86 -90 7 0 21 10 31 21 9 12 25 29
35 38 9 8 17 20 17 25 0 5 7 16 15 25 22 23 95 117 130 166 17 23 50 65 73 91
53 60 57 65 108 134 23 31 96 125 163 209 66 84 121 160 121 168 0 24 -20 54
-95 143 -39 47 -143 173 -230 280 -87 107 -184 224 -214 260 -31 36 -76 93
-101 127 -25 34 -53 63 -62 63 -9 0 -32 -19 -50 -43z"/>
<path d="M1743 6719 c-232 -289 -339 -429 -341 -448 -2 -22 9 -43 51 -92 29
-35 180 -217 334 -404 290 -351 315 -379 332 -374 5 2 161 194 345 427 224
282 336 431 336 447 0 28 -40 81 -250 335 -88 107 -217 263 -285 346 -108 131
-159 184 -179 184 -3 0 -157 -189 -343 -421z"/>
<path d="M4715 5094 c-33 -41 -80 -100 -104 -132 -25 -31 -152 -191 -283 -355
-131 -164 -238 -306 -238 -316 0 -10 15 -37 33 -59 17 -22 61 -77 97 -123 36
-45 85 -105 110 -133 25 -28 59 -69 75 -91 16 -22 34 -45 40 -52 5 -6 37 -43
70 -83 33 -40 81 -95 106 -124 25 -29 60 -74 78 -99 17 -26 35 -47 39 -47 4 0
16 -13 25 -30 25 -42 51 -38 86 14 17 24 35 46 40 48 5 1 27 29 49 60 22 32
55 76 73 98 19 22 54 64 79 93 25 30 79 101 122 158 42 57 111 145 154 194 91
106 127 174 113 214 -5 14 -41 64 -80 111 -40 47 -90 110 -112 140 -23 30 -66
82 -95 114 -30 32 -89 104 -132 160 -43 56 -107 133 -142 173 -35 39 -75 87
-89 107 -13 20 -31 36 -39 35 -8 0 -42 -34 -75 -75z"/>
<path d="M1977 4988 c-498 -614 -568 -704 -565 -725 4 -27 695 -863 713 -863
17 0 14 -4 390 470 174 220 305 394 305 406 0 27 6 19 -369 472 -179 216 -330
392 -337 392 -7 0 -69 -69 -137 -152z"/>
<path d="M3101 3725 c-221 -276 -341 -433 -341 -448 0 -14 55 -88 146 -197
251 -302 359 -433 397 -484 21 -27 57 -72 81 -100 25 -28 53 -61 63 -74 24
-30 41 -23 77 34 16 26 53 72 81 103 28 31 62 72 75 91 14 19 124 161 246 315
121 154 226 290 232 302 7 12 9 30 5 40 -4 10 -62 85 -130 166 -68 82 -123
155 -123 163 0 8 -7 14 -15 14 -7 0 -18 6 -22 14 -29 51 -400 486 -414 486
-10 0 -150 -166 -358 -425z"/>
<path d="M4484 2785 c-175 -218 -334 -415 -351 -437 -41 -50 -41 -73 -4 -113
16 -16 162 -192 325 -390 350 -425 350 -425 364 -425 6 0 87 95 179 211 93
116 195 246 229 288 200 251 284 364 284 382 0 19 -197 267 -540 679 -80 96
-150 181 -156 189 -8 11 -77 -70 -330 -384z"/>
<path d="M2080 3098 c-428 -529 -650 -813 -650 -833 0 -22 48 -83 375 -475 66
-80 143 -173 170 -208 99 -124 118 -147 142 -169 30 -29 39 -29 54 0 7 12 37
51 68 87 32 36 78 94 103 130 25 36 68 90 94 121 27 31 67 81 90 110 22 30
102 132 177 227 76 95 137 178 137 183 0 6 -4 18 -10 28 -23 44 -684 836 -699
839 -10 2 -31 -14 -51 -40z"/>
<path d="M6238 2517 c-29 -23 -258 -318 -258 -332 0 -8 21 -40 47 -72 139
-172 225 -273 232 -273 14 0 271 331 271 349 0 17 -239 318 -265 333 -7 4 -19
2 -27 -5z"/>
<path d="M6064 1691 c-41 -10 -89 -55 -114 -105 -19 -40 -19 -59 -17 -447 l3
-405 23 -35 c13 -19 39 -49 58 -66 34 -33 35 -33 132 -33 90 0 100 2 144 29
28 19 55 46 69 73 l23 43 -3 405 c-3 397 -4 406 -25 450 -33 64 -104 100 -196
99 -36 -1 -80 -4 -97 -8z m149 -90 c14 -6 34 -19 45 -31 18 -20 20 -43 27
-398 6 -331 5 -383 -9 -415 -30 -73 -142 -87 -209 -27 l-32 28 -3 385 -3 384
27 33 c15 17 37 36 48 40 29 12 80 12 109 1z"/>
<path d="M6485 1690 c-8 -13 -6 -1054 1 -1075 10 -24 71 -19 85 7 14 26 2
1033 -12 1061 -11 19 -64 24 -74 7z"/>
</g>
</svg>
